<svg width="64" height="64" viewBox="0 0 64 64" fill="none" xmlns="http://www.w3.org/2000/svg">
<g id="EmberGen">
<path id="Vector" d="M31.9857 55.385C44.6013 55.385 54.8283 45.2411 54.8283 32.728C54.8283 20.2149 44.6013 10.071 31.9857 10.071C19.3701 10.071 9.14307 20.2149 9.14307 32.728C9.14307 45.2411 19.3701 55.385 31.9857 55.385Z" fill="url(#paint0_radial_278_1099)"/>
<path id="Vector_2" d="M53.0711 15.4552C54.0415 15.4552 54.8282 14.6749 54.8282 13.7123C54.8282 12.7498 54.0415 11.9695 53.0711 11.9695C52.1007 11.9695 51.314 12.7498 51.314 13.7123C51.314 14.6749 52.1007 15.4552 53.0711 15.4552Z" fill="#2CD6FB"/>
<path id="Vector_3" d="M50.3059 7.0661C51.865 7.0661 53.1288 5.81249 53.1288 4.26608C53.1288 2.71968 51.865 1.46606 50.3059 1.46606C48.7468 1.46606 47.4829 2.71968 47.4829 4.26608C47.4829 5.81249 48.7468 7.0661 50.3059 7.0661Z" fill="#2CD6FB"/>
<path id="Intersect" opacity="0.4" d="M49.7748 46.9419C45.5876 52.0908 39.1745 55.3846 31.9857 55.3846C19.9516 55.3846 10.0909 46.1543 9.20752 34.442C9.89408 25.3587 15.9911 17.7608 24.3093 14.8165C24.3093 14.8165 26.2763 14.0923 28.6203 13.7447C28.6421 13.7423 28.6884 13.735 28.6884 13.735C29.0809 13.6815 32.3308 13.2223 35.8512 12.3304C36.6835 12.1199 37.4615 11.8138 38.2267 11.5127C38.5115 11.4006 38.7944 11.2893 39.0778 11.1838C42.3027 12.2276 45.2121 13.9639 47.6273 16.2156C47.5729 16.9854 47.3502 17.8049 46.6207 18.7705C46.3941 19.084 46.1096 19.412 45.7625 19.7571C45.7625 19.7571 45.0308 20.2966 45.0068 21.2493C45.0068 21.2493 44.9804 21.9638 45.529 22.5081C45.5346 22.5138 45.5419 22.5208 45.5507 22.5293C45.7445 22.7156 46.6624 23.598 46.6624 26.2531C46.6624 28.8218 44.7233 31.5656 41.9255 31.5656C41.9255 31.5656 41.3228 31.5631 40.7041 31.4392L40.1019 31.2715C40.808 31.6555 41.7624 32.4842 41.7624 34.6957C41.7624 37.5196 39.26 38.8806 37.5503 38.8806C35.8404 38.8806 33.2624 40.73 33.2624 44.4069V44.419C33.265 44.6766 33.3768 48.808 37.6113 49.7461C40.4226 50.3676 45.6914 50.332 49.7748 46.9419Z" fill="black"/>
<path id="Vector_4" fill-rule="evenodd" clip-rule="evenodd" d="M28.6204 10.3162C28.6422 10.3138 28.6885 10.3065 28.6885 10.3065C29.081 10.253 32.3309 9.79375 35.8513 8.90186C38.2058 8.30646 40.1258 6.94549 42.5511 7.09859L43.2102 7.17151C46.3783 7.69644 47.6425 10.4231 47.6425 12.3236C47.6425 13.23 47.4985 14.1803 46.6208 15.342C46.5841 15.3104 46.5471 15.2812 46.5103 15.2496C46.5471 15.2812 46.5841 15.3104 46.6208 15.342C46.3942 15.6554 46.1097 15.9835 45.7626 16.3286C45.7626 16.3286 45.0309 16.8681 45.0069 17.8208C45.0069 17.8208 44.9805 18.5352 45.5291 19.0796C45.6596 19.2108 46.6625 20.0492 46.6625 22.8246C46.6625 25.3933 44.7234 28.137 41.9256 28.137C41.9256 28.137 41.3229 28.1346 40.7042 28.0107L40.102 27.843C40.8081 28.227 41.7624 29.0556 41.7624 31.2671C41.7624 34.0911 39.2601 35.452 37.5504 35.452C35.8405 35.452 33.2625 37.3014 33.2625 40.9784V40.9905C33.2651 41.2481 33.3769 45.3795 37.6114 46.3176C41.9092 47.2678 51.9511 46.6821 54.7197 34.9222C53.6081 46.4002 43.8465 55.3847 31.9857 55.3847C19.3785 55.3847 9.14307 45.2336 9.14307 32.7277C9.14307 22.895 15.473 14.5157 24.3094 11.388C24.3094 11.388 26.2764 10.6637 28.6204 10.3162Z" fill="url(#paint1_radial_278_1099)"/>
<path id="Intersect_2" d="M9.14404 32.5444C9.21006 24.3025 13.7234 17.1021 20.4195 13.1928C21.8865 12.5143 23.7971 11.9292 26.0232 11.9292C31.3203 11.9292 35.1621 14.0847 35.1621 18.1428C35.1621 18.1428 35.3172 21.041 32.4322 22.6647C32.4322 22.6647 31.0247 23.2577 31.0247 24.5649C31.0247 25.0088 31.4705 26.2002 32.2415 26.3772C33.5326 26.6713 34.8671 27.7233 34.8671 29.9472C34.8671 32.1712 32.6023 33.3754 31.2032 33.3135C28.4027 33.1959 25.023 36.6022 25.023 40.7804C25.023 41.2388 25.7017 52.4891 38.9527 52.4891C38.9527 52.4891 43.938 52.8152 48.532 48.3419C44.6794 52.3574 39.3579 54.9738 33.4258 55.3404C32.9713 55.3675 32.5133 55.3812 32.0521 55.3812C21.8586 55.3812 13.2108 48.6765 10.2425 39.4186L9.24889 34.582C9.18471 33.9108 9.14945 33.231 9.14404 32.5444Z" fill="url(#paint2_radial_278_1099)"/>
<path id="Intersect_3" d="M31.5855 55.3812C24.0843 55.2196 17.8367 49.153 17.8367 41.2721C17.8367 39.1092 18.6636 36.7203 18.6636 36.7203C18.7634 36.4182 19.1671 36.195 19.6324 35.9377C20.406 35.5098 21.35 34.9878 21.35 33.8527C21.35 33.1628 21.0611 32.8562 20.7731 32.5505C20.4869 32.2468 20.2016 31.944 20.2016 31.2669C20.2016 29.9084 21.4975 29.5803 21.4975 29.5803C24.9477 28.4187 25.2489 25.3712 25.2489 24.613C25.2489 21.2374 22.4236 19.3467 19.984 19.3467C16.2215 19.3467 10.7483 23.9358 9.39038 29.3819C9.22746 30.4737 9.14307 31.5908 9.14307 32.7276C9.14307 45.1081 19.1545 55.1693 31.5855 55.3812Z" fill="white" fill-opacity="0.45"/>
</g>
<defs>
<radialGradient id="paint0_radial_278_1099" cx="0" cy="0" r="1" gradientUnits="userSpaceOnUse" gradientTransform="translate(48.4982 19.9098) rotate(129.187) scale(44.6353 44.7102)">
<stop stop-color="#4A9EFF"/>
<stop offset="1" stop-color="#001958"/>
</radialGradient>
<radialGradient id="paint1_radial_278_1099" cx="0" cy="0" r="1" gradientUnits="userSpaceOnUse" gradientTransform="translate(41.9371 14.6177) rotate(101.021) scale(39.9417 45.1458)">
<stop stop-color="#2DD9FD"/>
<stop offset="0.47" stop-color="#21B6E9"/>
<stop offset="1" stop-color="#005BB5"/>
</radialGradient>
<radialGradient id="paint2_radial_278_1099" cx="0" cy="0" r="1" gradientUnits="userSpaceOnUse" gradientTransform="translate(27.7041 11.9292) rotate(88.3323) scale(39.6419 43.2486)">
<stop stop-color="#6FE8FA"/>
<stop offset="0.4" stop-color="#6FE8FA"/>
<stop offset="1" stop-color="#009ED9"/>
</radialGradient>
</defs>
</svg>
