<?xml version="1.0" encoding="UTF-8" standalone="no"?>
<!DOCTYPE svg PUBLIC "-//W3C//DTD SVG 1.1//EN" "http://www.w3.org/Graphics/SVG/1.1/DTD/svg11.dtd">
<svg width="100%" height="100%" viewBox="0 0 500 143" version="1.1" xmlns="http://www.w3.org/2000/svg" xmlns:xlink="http://www.w3.org/1999/xlink" xml:space="preserve" xmlns:serif="http://www.serif.com/" style="fill-rule:evenodd;clip-rule:evenodd;stroke-linejoin:round;stroke-miterlimit:2;">
    <g id="ODIN" transform="matrix(1.00784,0,0,1.00784,-476.143,-714.215)">
        <g transform="matrix(0.163923,0,0,0.163923,432.428,576.237)">
            <g id="O">
                <path d="M430.516,1595.76C413.94,1584.38 400.839,1573.36 400.839,1573.36L827.125,835.012C827.125,835.012 844.672,841.52 859.166,848.469C877.436,857.226 892.569,865.763 892.569,865.763C1099.2,985.063 1170.11,1249.68 1050.81,1456.31C931.507,1662.95 666.89,1733.85 460.256,1614.55C460.256,1614.55 445.783,1606.23 430.516,1595.76ZM856.543,928.162L496.282,1552.15C668.477,1651.57 888.991,1592.48 988.408,1420.29C1087.82,1248.09 1028.74,1027.58 856.543,928.162ZM321.659,1487.36C307.172,1466.38 302.015,1456.32 302.015,1456.32C227.54,1326.96 222.078,1162.46 302.018,1024C381.958,885.54 527.146,808.023 676.415,807.839C676.415,807.839 696.568,807.787 713.348,809.394C738.628,811.816 755.435,815.078 755.435,815.078L347.771,1521.17C347.771,1521.17 338.1,1511.16 321.659,1487.36ZM633.291,882.532C524.653,895.735 423.297,958.044 364.417,1060.03C305.537,1162.01 302.255,1280.94 345.139,1381.63L633.291,882.532Z" style="fill:white;"/>
            </g>
        </g>
        <g transform="matrix(1,0,0,1,-82.6772,0)">
            <g id="D">
                <path d="M779.528,850.394L724.977,850.394L804.246,713.097C804.246,713.097 808.392,714.778 810.18,715.618C811.814,716.385 814.977,718.132 814.977,718.132L814.963,718.156C836.137,730.417 850.394,753.32 850.394,779.528C850.394,818.639 818.641,850.392 779.528,850.394ZM779.53,708.661C779.53,708.661 783.838,708.757 785.982,708.953C788.141,709.15 792.485,709.846 792.485,709.846L790.111,713.957L785.903,721.246L732.283,814.117L725.672,825.569L720.472,834.574L720.472,810.952L720.472,708.662L708.661,708.662L708.661,708.661L779.528,708.661L779.53,708.661ZM808.87,728.71L745.185,839.016L779.528,839.016L779.909,839.014C804.276,838.86 825.16,823.917 834.032,802.718C836.963,795.712 838.583,788.024 838.583,779.96C838.583,758.044 826.618,738.9 808.87,728.71ZM732.283,790.495L772.461,720.905L732.283,720.905L732.283,790.495Z" style="fill:white;"/>
            </g>
        </g>
        <g transform="matrix(1,0,0,1,-174.314,0)">
            <g id="I">
                <path d="M1001.09,720.904L983.37,720.904L983.37,839.016L1001.09,839.016L1001.09,851.259L953.842,851.259L953.842,839.016L971.559,839.016L971.559,720.904L953.842,720.904L953.842,708.661L1001.09,708.661L1001.09,720.904Z" style="fill:white;"/>
            </g>
        </g>
        <g id="N" transform="matrix(1,0,0,1,-236.196,0)">
            <path d="M1086.61,782.198L1086.6,768.592L1204.75,836.805L1204.72,850.389L1204.72,850.394L1192.91,843.57L1098.42,789.017L1098.42,850.394L1086.61,850.394L1086.61,782.198ZM1098.42,748.103L1192.91,802.656L1192.91,708.661L1204.72,708.661L1204.72,809.475L1204.75,823.168L1086.59,754.949L1086.61,741.284L1086.61,708.661L1098.42,708.661L1098.42,748.103Z" style="fill:white;"/>
        </g>
    </g>
</svg>
