<?xml version="1.0" encoding="UTF-8" standalone="no"?>
<!-- Created with sK1/UniConvertor (http://sk1project.org/) -->

<svg
   width="458.07144pt"
   height="352.89999pt"
   viewBox="0 0 458.07144 352.89999"
   fill-rule="evenodd"
   version="1.1"
   id="svg19"
   sodipodi:docname="nest.svg"
   inkscape:version="1.3 (0e150ed6c4, 2023-07-21)"
   xmlns:inkscape="http://www.inkscape.org/namespaces/inkscape"
   xmlns:sodipodi="http://sodipodi.sourceforge.net/DTD/sodipodi-0.dtd"
   xmlns="http://www.w3.org/2000/svg"
   xmlns:svg="http://www.w3.org/2000/svg">
  <defs
     id="defs19" />
  <sodipodi:namedview
     id="namedview19"
     pagecolor="#ffffff"
     bordercolor="#000000"
     borderopacity="0.25"
     inkscape:showpageshadow="2"
     inkscape:pageopacity="0.0"
     inkscape:pagecheckerboard="0"
     inkscape:deskcolor="#d1d1d1"
     inkscape:document-units="pt"
     inkscape:zoom="0.74386201"
     inkscape:cx="-36.969222"
     inkscape:cy="28.90321"
     inkscape:window-width="1920"
     inkscape:window-height="1027"
     inkscape:window-x="1912"
     inkscape:window-y="-8"
     inkscape:window-maximized="1"
     inkscape:current-layer="svg19" />
  <g
     id="g19"
     transform="translate(-325.2,-399.39)">
    <g
       id="g18">
      <path
         style="fill:#5f5f61;stroke:none"
         d="m 778.5,493.49 c 1.3,-2.1 2.6,-4.1 4,-6.1 1.2,-1.7 1,-2.9 -0.6,-3.7 -0.3,-0.6 -0.8,-1 -1.4,-1.5 -1.7,-1.2 -3.5,-2.4 -5.4,-3.6 -4.2,-2.6 -8.6,-4.9 -13.2,-6.8 -4.4,-2 -9,-3.6 -13.6,-4.8 -4.9,-1.2 -9.8,-1.7 -14.7,-1.4 -1,0.1 -1.9,0.2 -3,0.3 -3.3,0.1 -6.6,0.5 -9.8,1.3 -0.2,-0.3 -0.6,-0.5 -1,-0.7 -0.9,0.1 -1.5,0.7 -1.8,1.7 -1.3,4.6 -3.1,9.1 -5.3,13.5 -2,4 -4,8.1 -5.8,12.2 -0.4,-4.8 -2.5,-8.8 -6.3,-12.1 -0.3,-0.2 -0.5,-0.4 -0.8,-0.7 -1.2,-1.6 -2.7,-2.9 -4.4,-3.9 1.5,-4.2 1.9,-8.6 1.3,-13.2 -0.1,-0.7 -0.4,-1.4 -0.7,-2.1 -1.5,-2.8 -3.6,-5.1 -6.2,-6.9 -3.7,-2.6 -7.8,-4.3 -12.2,-5.2 0.2,-0.5 0.3,-1 0.4,-1.6 0.1,-0.4 0.2,-0.8 0.4,-1.2 0.2,-0.9 0.4,-1.8 0.6,-2.7 1.2,-4.7 2,-9.5 2.6,-14.4 0.4,-3.8 0,-7.4 -1.2,-10.9 -0.6,-1.5 -1.4,-2.8 -2.6,-3.8 -2.4,-2 -4.8,-4 -7.2,-6 -2,-1.6 -4.1,-2.9 -6.3,-4 -4.4,-2.2 -8.9,-4.1 -13.5,-5.8 -0.1,0 -0.2,0.1 -0.3,0.1 -1.1,0.7 -1.4,1.3 -1.1,2.1 -0.1,0 -0.1,0.1 -0.1,0.2 -0.1,0.3 -0.2,0.6 -0.3,0.8 -1.1,2.5 -1.7,5.1 -1.6,7.6 -0.1,0.1 -0.1,0.2 -0.1,0.3 -0.2,0.7 -0.4,1.5 -0.6,2.2 -0.5,1.5 -0.9,3 -1.3,4.4 -0.7,2.3 -1.4,4.5 -2.1,6.7 -1.5,4.6 -2.8,9.1 -3.9,13.7 -0.5,2.3 -1.1,4.6 -1.9,6.9 -0.7,2.3 -1.3,4.7 -1.9,7.1 -1.2,4.7 -2.7,9.3 -4.6,13.8 -1.8,4.6 -3.5,9.3 -5,14.1 -0.6,1.7 -1.1,3.4 -1.7,5 -0.2,-0.1 -0.5,-0.2 -0.7,-0.4 -3.2,-1.4 -6.5,-2.8 -9.7,-4.1 -4.5,-1.7 -9,-3.6 -13.5,-5.4 -4.5,-2 -9.3,-3.6 -14,-4.9 -2.3,-0.7 -4.6,-1.3 -6.9,-1.9 -4.8,-1.3 -9.5,-2.7 -14.2,-4.1 -0.3,0 -0.7,0 -1,0 -0.5,-0.1 -1,-0.1 -1.4,0 -1.2,-0.4 -2.3,-0.6 -3.6,-0.7 -1.5,-0.2 -3.2,-0.5 -4.7,-0.8 -3.2,-0.6 -6.5,-1 -9.9,-1.2 -1.1,0 -2.1,-0.2 -3,-0.4 -3.8,-0.7 -7.7,-1.1 -11.6,-1.1 -4.5,0.2 -8.8,0.7 -13.3,1.5 -2.7,0.5 -5.2,1.3 -7.6,2.4 -3.1,1.5 -5.9,3.4 -8.4,5.8 -4.1,3.8 -7.8,8.1 -11,12.7 -3,4.5 -5.9,9.1 -8.6,13.9 -2.3,4.1 -4,8.4 -5.2,12.9 -0.5,1.8 -0.9,3.5 -1.4,5.2 -0.1,0 -0.1,0 -0.1,0 -0.6,0.9 -1,1.9 -1.1,3 -0.1,1.4 -0.2,2.8 -0.2,4.2 -0.1,2.5 0.3,4.9 1.2,7.2 0.9,2.5 2,4.9 3.3,7.1 2.4,4.4 5.8,7.9 10,10.7 0.8,0.6 1.6,1.1 2.5,1.7 -0.1,0 -0.1,0.1 -0.1,0.3 -0.3,2.4 -0.5,4.8 -0.8,7.2 -0.2,2.5 -0.4,4.9 -0.8,7.3 -0.2,2 -0.4,3.8 -0.5,5.8 -0.1,0 -0.1,0 -0.1,0.1 -0.2,1.4 -0.4,2.9 -0.5,4.4 -1.1,-0.2 -2.3,-0.2 -3.4,-0.3 -2,0 -3.9,0 -5.9,0.2 -1.1,0 -2.3,0.3 -3.3,0.8 -1.6,0.6 -3.2,1.2 -4.8,2 -0.7,0.2 -1.4,0.6 -2.1,1 -0.7,0.5 -1.4,1.1 -2.1,1.6 -0.6,0.6 -1.3,1.2 -1.9,1.9 -0.1,0 -0.1,-0.1 -0.1,-0.2 -0.1,0 -0.1,0 -0.2,0.1 0,-0.1 0,-0.1 -0.1,0 0,0.1 0,0.1 0,0.2 -0.1,0 -0.1,0.1 -0.1,0.2 0,0 -0.1,0.2 -0.1,0.2 0,0 0,0 0,0 -0.4,0.5 -0.8,0.8 -1.2,1.2 -1.2,1.3 -2.4,2.5 -3.4,3.8 -1.1,1.4 -2,2.9 -2.8,4.4 -0.4,1 -0.9,1.9 -1.3,2.8 -0.2,0.2 -0.3,0.4 -0.4,0.6 -0.9,1.6 -1.6,3.3 -2.2,5 -0.3,0.9 -0.6,1.8 -0.9,2.8 -0.1,0.4 -0.3,0.9 -0.5,1.3 -0.1,0 -0.2,0.1 -0.2,0.2 -0.1,0.2 -0.2,0.4 -0.3,0.5 -0.1,0.2 -0.2,0.4 -0.4,0.6 0,0.1 0,0.1 -0.1,0.1 0,0.1 -0.1,0.1 -0.1,0.2 -0.5,0.4 -0.9,0.8 -1.4,1.1 -1.8,0.9 -3.8,1.3 -6,1.1 -0.2,-0.1 -0.4,-0.1 -0.7,-0.2 -0.9,-0.4 -1.8,-0.5 -2.8,-0.3 0,0 -0.1,0.1 -0.2,0.1 0,0.1 -0.1,0.2 -0.1,0.3 0,0.3 0,0.6 0.1,0.8 0,0.4 0.2,0.7 0.4,0.9 0.1,0.1 0.3,0.3 0.4,0.4 0.1,0 0.1,0 0.1,0.1 0,0 0,0 0.1,0.1 0,0 0.1,0 0.2,0 0,0.1 0,0.1 0.1,0.1 0.1,0.2 0.3,0.4 0.5,0.5 0.8,0.7 1.8,1.1 3,1.3 1.7,0.5 3.4,0.7 5.2,0.6 0.4,-0.1 0.7,-0.1 1.1,-0.1 2.8,-0.5 5.4,-1.5 7.9,-3.1 1.6,-1.1 2.6,-2.7 2.9,-4.7 0.2,-1.3 0.3,-2.6 0.4,-3.9 0.1,-0.2 0.2,-0.4 0.3,-0.7 0.9,-1.6 1.9,-3.2 3.1,-4.6 0.8,-1.2 1.5,-2.5 2,-3.8 0.2,-0.1 0.3,-0.2 0.4,-0.4 0.5,-0.9 1.2,-1.6 2,-2.1 1,-0.7 1.9,-1.5 2.7,-2.5 1,-1.3 2.1,-2.5 3.4,-3.5 2,-1.5 4.3,-2.3 6.8,-2.2 2.9,0 5.8,0 8.8,-0.1 v 0 c 1.1,0.3 2.1,0.6 3.1,1 0.6,0.5 1.1,1.1 1.6,1.8 0.4,0.6 0.8,1.3 1.1,2 0.2,0.3 0.3,0.5 0.5,0.7 -0.3,0.3 -0.4,0.6 -0.2,1.1 0.7,1.8 1.5,3.4 2.6,5 0.1,1 0.6,1.9 1.4,2.7 0.3,0.4 0.6,0.7 0.9,0.9 0.7,0.6 1.4,0.8 2.2,0.8 0,0.4 0,0.7 0.2,1 0.3,0.8 0.7,1.5 1.1,2.2 0.4,0.6 0.8,1.2 1.1,1.8 0.9,1.5 2,2.7 3.4,3.7 0.4,0.3 0.8,0.5 1.3,0.7 2.5,1.1 5.1,1.2 7.9,0.4 0.2,-0.1 0.6,-0.2 0.8,-0.2 1.9,-0.6 3.7,-1.4 5.3,-2.6 0.5,-0.4 1,-0.9 1.4,-1.5 0.9,-1.4 1.5,-2.9 1.6,-4.6 0,-0.3 0,-0.6 0,-0.9 -0.4,-1.8 -1.6,-2.8 -3.6,-2.9 v 0.1 c -0.1,-0.1 -0.1,-0.1 -0.2,-0.1 -0.2,0.2 -0.5,0.3 -0.7,0.6 -0.4,0.3 -0.7,0.7 -1.1,1.1 -1,1.3 -2.3,1.9 -3.9,2 -3.1,0.1 -5.8,-1 -7.9,-3.3 0,-0.4 -0.2,-0.7 -0.6,-0.8 -0.2,-0.1 -0.4,-0.1 -0.6,-0.1 0,0.1 0,0.1 0,0.1 0,0.1 0,0.2 0,0.3 -0.1,0 -0.1,0 -0.1,0.1 0,0 0,0 0,0 -0.1,0.4 0,0.8 0.2,1.3 0.2,0.2 0.4,0.5 0.7,0.7 0.5,0.5 1,0.9 1.7,1.3 -0.2,0.1 -0.4,0.3 -0.5,0.5 -0.1,0.1 -0.1,0.2 -0.1,0.3 -0.1,0.4 -0.2,0.8 -0.2,1.1 0.1,0 0.1,0 0.2,0.1 0,-0.1 0.1,-0.1 0.1,-0.1 0.4,-0.3 0.6,-0.6 0.7,-1 0,0 0,0 0.1,0 0.2,-0.2 0.3,-0.3 0.4,-0.5 1,0.5 2,0.9 3.1,1.1 1.9,0.4 3.9,0.2 5.6,-0.6 0.4,-0.3 0.8,-0.6 1.1,-0.9 0.7,-0.8 1.4,-1.6 2.2,-2.4 0.2,0.1 0.4,0.1 0.5,0.1 0.2,0 0.4,0.1 0.6,0.1 -0.1,0 0,0 0.1,0 0,0.1 0.1,0.1 0.2,0.2 0,0 0,0 0.1,0 0.5,0.5 0.9,1.1 0.9,1.9 -0.1,0.6 -0.1,1.2 -0.3,1.9 -0.1,0 -0.1,0.1 -0.1,0.2 0,0.4 -0.1,0.8 -0.4,1.1 -0.1,0.2 -0.1,0.4 -0.2,0.6 -0.6,1 -1.5,1.9 -2.6,2.6 -0.6,0.4 -1.2,0.8 -1.8,1.1 -2.7,1.2 -5.5,1.6 -8.3,1.1 -0.4,-0.1 -0.8,-0.2 -1.1,-0.3 -1.9,-0.9 -3.5,-2.1 -4.9,-3.7 0,0 0,0 0,-0.1 0,0 0,0 0,-0.1 0,0 -0.1,-0.1 -0.1,-0.1 -0.1,-0.1 -0.1,-0.1 -0.1,-0.1 -0.3,-0.8 -0.7,-1.6 -1.2,-2.3 -0.3,-0.5 -0.5,-1 -0.6,-1.5 -0.1,-0.4 -0.2,-0.7 -0.4,-0.8 0.2,-0.1 0.5,-0.3 0.8,-0.5 1,-0.4 1.9,-1 2.7,-1.8 0.2,-0.3 0.3,-0.5 0.5,-0.7 0,-0.2 0,-0.3 0,-0.5 0,0 0,-0.1 0,-0.2 0.1,0 0.1,0 0.2,0 0,0 0,0 0.1,0 v 0 c 0.3,-0.7 0.3,-1.4 0.1,-2.1 -0.1,-0.2 -0.1,-0.3 -0.1,-0.4 -0.1,-0.2 -0.2,-0.4 -0.2,-0.6 -0.4,-0.9 -0.9,-1.9 -1.4,-2.8 -0.2,-0.5 -0.5,-1 -0.6,-1.5 -0.2,-0.5 -0.5,-1 -0.9,-1.4 -0.6,-0.8 -1,-1.6 -1.2,-2.5 0,-0.1 -0.1,-0.1 -0.1,-0.1 -0.7,-0.6 -1.5,-0.9 -2.3,-1 -0.1,0 -0.1,0 -0.1,0 -0.1,-0.2 -0.3,-0.3 -0.4,-0.5 -0.3,-0.2 -0.6,-0.5 -0.9,-0.6 -0.3,-0.2 -0.5,-0.4 -0.7,-0.6 -1,-0.9 -2.2,-1.6 -3.5,-2.1 -0.1,-0.1 -0.2,-0.1 -0.3,-0.2 -0.3,-0.1 -0.5,-0.2 -0.7,-0.4 1.9,-0.9 3.8,-1.8 5.7,-2.8 2.1,-1 4.3,-2.1 6.4,-3.1 2.4,-1 4.6,-2.3 6.7,-3.7 1.3,-0.9 2.7,-1.8 4,-2.5 0.7,-0.5 1.4,-0.9 2,-1.3 1.3,0.4 2.4,0.8 3.7,1.2 2.1,0.6 4,1.3 5.9,2.2 4.4,2 8.9,4 13.3,6 0.6,0.3 1.1,0.5 1.6,0.9 0.4,0.2 0.9,0.5 1.3,0.6 0.4,0.2 0.9,0.5 1.5,0.7 1.6,0.7 3.3,1.6 4.9,2.6 3.6,2.2 7.2,4.4 10.8,6.6 0.4,0.2 0.7,0.5 0.9,0.7 0.8,0.7 1.5,1.4 2.2,2.3 3.2,3.5 6.3,7.3 9.2,11.2 0.8,1 1.5,2.1 2.2,3.2 2.7,4.1 4.8,8.5 6.4,13.1 0.7,2.4 1.7,4.7 2.8,6.9 0.9,1.8 2,3.4 3.2,4.7 -0.1,1.7 -0.2,3.4 -0.5,5.1 -0.1,1.3 0,2.6 0.5,3.8 0.7,2.3 1.9,4.4 3.5,6.3 1.2,1.3 2.5,2.4 3.9,3.2 1.6,1 3.4,1.7 5.2,2.3 0.2,2 0.4,4.1 0.9,6.1 0.3,1.3 0.6,2.6 0.9,3.9 0.3,0.9 0.5,1.8 0.7,2.7 0.3,0.9 0.4,1.8 0.7,2.6 0.2,0.9 0.5,1.8 0.7,2.6 0.3,0.9 0.5,1.8 0.7,2.6 0.2,1 0.4,1.9 0.6,2.9 0.2,1.3 0.6,2.5 1,3.5 0.4,0.8 0.6,1.5 0.8,2.4 -1.3,0.5 -2.6,0.9 -3.9,1.4 -1.3,0.5 -2.5,1 -3.8,1.4 -1.2,0.4 -2.4,0.8 -3.7,1.2 -1.2,0.3 -2.3,0.6 -3.5,0.9 -1.2,0.3 -2.4,0.5 -3.6,0.7 -1.8,0.4 -3.6,0.6 -5.5,0.7 -1.1,0.1 -2.1,0.2 -3.2,0.3 -0.5,0 -1,0.1 -1.6,0.2 -0.5,0 -1,0 -1.6,0.1 -0.4,0 -0.8,0.1 -1.3,0.1 -0.4,0 -0.9,0 -1.3,0 -0.9,-0.1 -1.8,-0.1 -2.6,-0.1 -0.9,0 -1.7,0 -2.6,0 -0.4,0 -0.9,0 -1.4,0.2 -0.4,0 -0.8,0.2 -1.1,0.5 -0.4,0.4 -0.6,0.8 -0.7,1.2 -0.2,0.5 -0.3,0.9 -0.2,1.4 0,0.4 0,0.9 0.3,1.3 0.2,0.4 0.6,0.7 1,1 0.7,0.4 1.6,0.8 2.4,1.1 0.8,0.2 1.7,0.4 2.6,0.5 3,0.2 5.9,0.3 8.8,0.2 3.2,0 6.3,-0.2 9.5,-0.5 1.5,-0.1 2.9,-0.4 4.3,-0.7 0.9,-0.3 1.8,-0.6 2.6,-0.9 1,-0.3 1.9,-0.5 2.7,-0.8 0.2,-0.1 0.3,-0.1 0.5,-0.2 0,0.1 0,0.1 0,0.1 0.1,0.1 0.1,0.1 0.1,0.2 -0.4,0.3 -0.8,0.7 -1.3,1.1 -0.6,0.5 -1.3,1.1 -2,1.7 -0.8,0.5 -1.5,1 -2.2,1.6 -0.8,0.6 -1.5,1.1 -2.3,1.6 -0.7,0.5 -1.5,1 -2.2,1.5 -1.3,1 -2.6,1.8 -3.9,2.8 -0.9,0.7 -1.9,1.2 -2.7,1.9 -0.5,0.3 -0.9,0.6 -1.4,0.9 -0.4,0.3 -0.9,0.6 -1.3,0.9 -0.5,0.3 -1,0.6 -1.5,0.9 -0.2,0.1 -0.4,0.3 -0.6,0.6 -0.4,0.3 -0.8,0.8 -1.1,1.3 -0.3,0.4 -0.5,0.9 -0.7,1.4 -0.1,0.4 -0.1,0.8 -0.1,1.1 0,0.4 0.2,0.7 0.3,1 0.2,0.3 0.4,0.6 0.6,0.8 0.4,0.4 0.7,0.6 1.1,0.9 0.4,0.1 0.8,0.3 1.2,0.5 0.4,0 0.8,-0.2 1.2,-0.3 1.1,-0.4 2.2,-0.9 3.3,-1.4 2.3,-1.1 4.3,-2.3 6.2,-3.7 1.3,-1.1 2.6,-2.1 3.9,-3.1 1.1,-0.9 2.2,-1.7 3.2,-2.5 1.6,-1.2 3.1,-2.4 4.5,-3.6 0.8,-0.7 1.5,-1.3 2.1,-1.9 1.2,-1.2 2.3,-2.3 3.4,-3.4 0.7,-0.6 1.3,-1.2 1.9,-1.7 0.8,-0.7 1.6,-1.5 2.3,-2.3 0.7,-0.8 1.3,-1.6 1.9,-2.5 1.1,-0.2 2.2,-0.4 3.3,-0.5 1.1,-0.2 2.2,-0.4 3.3,-0.6 1.1,-0.2 2.2,-0.4 3.3,-0.6 1,-0.2 2.1,-0.4 3.2,-0.6 1.4,-0.1 2.8,-0.3 4.2,-0.4 2.1,-0.2 4.2,-0.3 6.1,-0.4 1.3,0 2.5,-0.1 3.8,-0.1 0.6,-0.1 1.2,-0.2 1.8,-0.2 0.6,-0.1 1.2,-0.2 1.9,-0.2 0.6,-0.1 1.2,-0.2 1.8,-0.3 0.6,-0.1 1.2,-0.2 1.8,-0.3 0.8,-0.1 1.6,-0.4 2.3,-0.7 0.5,-0.2 1,-0.5 1.4,-0.8 0.3,-0.3 0.5,-0.6 0.7,-0.9 0.1,-0.3 0.2,-0.6 0.2,-1 0.1,-0.3 0,-0.7 -0.1,-1 -0.3,-0.6 -0.6,-1.1 -1.1,-1.5 -0.3,-0.4 -0.7,-0.5 -1.2,-0.6 -0.6,-0.2 -1.5,-0.3 -2.5,-0.3 -1,0 -2.4,0.1 -4.1,0.3 -1.8,0.1 -3.7,0.1 -5.8,-0.1 -2.1,-0.1 -4.3,-0.1 -6.7,0.1 -2.5,0.3 -4.6,0.4 -6.5,0.3 -1.9,0 -3.5,0.1 -4.7,0.3 -1.3,0.1 -2.6,0.2 -3.8,0.4 -0.7,0 -1.3,0 -1.9,0 -0.3,-1.4 -0.6,-2.8 -0.8,-4.2 -0.2,-1.1 -0.4,-2.2 -0.6,-3.3 -0.2,-1.6 -0.4,-3.2 -0.7,-4.8 -0.2,-1.2 -0.4,-2.4 -0.6,-3.6 0,-0.4 -0.1,-0.8 -0.2,-1.3 -0.3,-1.6 -0.6,-3.2 -0.9,-4.8 -0.3,-1.6 -0.5,-3.3 -0.6,-4.9 2.1,-0.6 4,-1.6 5.9,-3 1.5,-1.1 2.8,-2.4 3.7,-3.9 2.1,0.8 4.2,1.5 6.3,2 4.8,1.3 9.6,2.1 14.4,2.5 5,0.3 9.8,0.1 14.7,-0.7 1,-0.1 2.1,-0.3 3.2,-0.5 4.7,-0.4 9.3,-1.5 13.8,-3.4 2.9,-1.2 5.8,-2.5 8.6,-3.9 0.9,-0.4 1.7,-0.8 2.5,-1.1 3.5,-1.5 6.9,-3.2 10.1,-5.1 3.9,-2.3 7.5,-5 10.8,-8 3.3,0.1 6.7,0 10.2,-0.4 1.4,-0.1 2.7,-0.5 4,-1.2 0.4,-0.3 0.8,-0.5 1.2,-0.7 2.4,1.3 5,2.4 7.6,3.2 1.3,0.4 2.6,0.8 3.9,1.2 0.9,0.2 1.8,0.5 2.7,0.7 0.8,0.3 1.7,0.5 2.6,0.7 0.8,0.3 1.7,0.5 2.6,0.7 0.8,0.2 1.7,0.5 2.6,0.7 0.9,0.3 1.8,0.6 2.7,0.9 1.3,0.5 2.5,0.8 3.6,0.9 0.8,0.1 1.6,0.2 2.4,0.5 -0.2,1.3 -0.4,2.7 -0.7,4.1 -0.2,1.3 -0.4,2.6 -0.6,4 -0.3,1.2 -0.6,2.5 -0.8,3.8 -0.4,1.1 -0.7,2.3 -1,3.5 -0.4,1.1 -0.8,2.3 -1.2,3.4 -0.6,1.8 -1.3,3.5 -2.2,5.1 -0.4,1 -0.9,2 -1.3,3 -0.2,0.4 -0.4,0.9 -0.6,1.4 -0.2,0.1 -0.3,0.3 -0.4,0.5 -0.7,1.3 -1.4,2.7 -2.1,4 -0.3,0.5 -0.6,1 -0.9,1.5 -0.5,0.8 -0.9,1.5 -1.3,2.2 -0.2,0.4 -0.4,0.8 -0.5,1.3 -0.2,0.4 -0.3,0.9 -0.1,1.3 0.1,0.4 0.3,0.8 0.7,1.2 0.3,0.4 0.6,0.6 1.1,0.9 0.4,0.2 0.8,0.3 1.3,0.3 0.5,0 0.9,-0.1 1.3,-0.3 0.8,-0.5 1.5,-1 2.2,-1.6 0.6,-0.6 1.2,-1.3 1.8,-2 1.6,-2.4 3.1,-4.9 4.5,-7.5 1.6,-2.7 3,-5.5 4.3,-8.5 0.6,-1.3 1.1,-2.7 1.5,-4 0.2,-0.9 0.4,-1.8 0.6,-2.8 0.2,-0.9 0.4,-1.8 0.6,-2.7 0,-0.1 0,-0.2 0,-0.2 0.1,-0.1 0.3,-0.1 0.4,-0.1 0.1,0.5 0.2,1 0.3,1.5 0.2,0.8 0.3,1.7 0.5,2.6 0,0.9 0.1,1.8 0.2,2.7 0.1,0.9 0.2,1.8 0.3,2.7 0.1,0.9 0.2,1.8 0.2,2.7 0.2,1.6 0.3,3.2 0.5,4.9 0,1.1 0.1,2.2 0.2,3.3 0.1,0.5 0.1,1 0.2,1.6 0,0.5 0,1 0.1,1.6 0,0.5 0.1,1.1 0,1.7 0.1,0.2 0.1,0.5 0.2,0.8 0.1,0.5 0.3,1.1 0.6,1.7 0.2,0.4 0.6,0.9 0.9,1.3 0.3,0.2 0.6,0.4 0.9,0.6 0.3,0.1 0.6,0.2 1,0.2 0.3,0.1 0.7,0 1,-0.1 0.5,-0.1 0.9,-0.3 1.3,-0.6 0.3,-0.2 0.7,-0.5 1,-0.7 0,-0.1 0,-0.1 0.1,-0.1 0,-0.1 0.1,-0.2 0.2,-0.3 0.2,-0.5 0.4,-1 0.3,-1.5 0,-0.2 0,-0.4 0,-0.5 0.1,-0.8 0.2,-1.6 0.2,-2.4 0.2,-2.4 0.2,-4.8 -0.1,-7.2 -0.2,-1.6 -0.5,-3.2 -0.7,-4.9 -0.2,-1.4 -0.4,-2.7 -0.6,-4.1 -0.2,-1.9 -0.5,-3.8 -0.9,-5.6 -0.1,-1 -0.3,-1.9 -0.6,-2.8 -0.4,-1.6 -0.8,-3.1 -1.2,-4.7 -0.2,-0.8 -0.4,-1.6 -0.5,-2.4 -0.2,-1.1 -0.5,-2.1 -0.9,-3.2 -0.3,-0.9 -0.7,-1.9 -1.2,-2.8 0.4,-1 0.8,-2.1 1.2,-3.1 0.4,-1.1 0.8,-2.1 1.2,-3.2 0.3,-1 0.7,-2.1 1.1,-3.1 0.4,-1.1 0.8,-2.1 1.1,-3.1 0.6,-1.3 1.1,-2.6 1.7,-3.9 0.9,-1.9 1.8,-3.7 2.8,-5.5 0.6,-1.1 1.2,-2.2 1.7,-3.3 0.3,-0.5 0.5,-1.1 0.8,-1.6 0.2,-0.6 0.5,-1.2 0.7,-1.8 0.2,-0.5 0.5,-1.1 0.7,-1.7 0.2,-0.5 0.4,-1.1 0.7,-1.7 0.2,-0.8 0.4,-1.6 0.5,-2.4 0.1,-0.5 0.1,-1 0,-1.6 -0.1,-0.4 -0.3,-0.7 -0.5,-1 -0.1,-0.3 -0.4,-0.6 -0.7,-0.7 -0.3,-0.2 -0.6,-0.3 -0.9,-0.4 -0.7,0 -1.3,0 -1.9,0.2 -0.4,0.1 -0.8,0.3 -1,0.7 -0.6,0.5 -1.1,1.2 -1.6,2.1 -0.5,0.8 -1.1,2.1 -1.8,3.7 -0.8,1.5 -1.8,3.2 -2.9,4.9 -0.8,1.1 -1.4,2.2 -2.1,3.4 -0.2,0.2 -0.5,0.6 -0.7,0.9 -1.2,2.2 -2.2,4.3 -3.1,6.6 -0.1,0.1 -0.1,0.2 -0.2,0.4 0,0.1 -0.1,0.2 -0.2,0.4 -1,1.6 -1.7,3 -2.1,4.2 -0.6,1.1 -1.1,2.3 -1.6,3.5 -0.3,0.5 -0.6,1.1 -0.9,1.6 -1.4,-0.4 -2.7,-0.9 -4.1,-1.4 -1,-0.4 -2.1,-0.8 -3.1,-1.1 -1.5,-0.6 -3,-1.2 -4.5,-1.8 -1.1,-0.5 -2.3,-0.9 -3.4,-1.3 -0.4,-0.2 -0.8,-0.3 -1.2,-0.5 -1.6,-0.5 -3.1,-1.1 -4.6,-1.6 -1.8,-0.6 -3.4,-1.3 -5,-2.1 1,-1.9 1.8,-3.9 2.4,-6 1.4,-4.8 1.7,-9.7 1.1,-14.6 -0.2,-1.5 -0.6,-2.7 -1.4,-3.6 0.9,-3.2 1.7,-6.4 2.4,-9.6 0.1,-0.8 0.2,-1.5 0.3,-2.3 0.3,-3.6 0.9,-7.3 1.5,-10.9 0.4,-1.8 0.9,-3.6 1.7,-5.3 0.3,-0.6 0.5,-1.1 0.8,-1.7 0.1,-0.1 0.2,-0.3 0.3,-0.5 2.4,-3.5 4.5,-7.2 6.2,-11.1 0.7,-1.6 1.6,-3.1 2.7,-4.6 2.3,-2.9 4.5,-6 6.6,-9.2 2.7,-4.1 5.3,-8.3 7.9,-12.5 2.5,-4.2 5.3,-8.2 8.3,-12.1 3.1,-3.8 5.9,-7.9 8.4,-12.2 z m -265,-5 c 2.4,-1.1 4.8,-1.8 7.4,-1.9 0.1,-0.1 0.2,-0.1 0.4,0 1,-0.1 2.1,-0.1 3.2,0.1 3.6,0.6 7.1,1.6 10.5,2.8 3.5,1.3 6.6,3.3 9.3,6.1 2.7,2.7 4.3,6 4.8,9.9 0.3,1.7 0.4,3.5 0.4,5.3 0,0.2 0,0.5 0,0.8 0,1.8 -0.2,3.6 -0.4,5.5 -0.7,4.1 -2.4,7.8 -5,11.1 -2.5,3 -5.6,5.3 -9.3,6.8 -3.2,1.1 -6.3,1.7 -9.5,1.7 -0.8,0 -1.5,0 -2.1,0 -3.7,-0.6 -7.3,-1.7 -10.6,-3.2 -3.5,-1.8 -6.2,-4.3 -8.2,-7.5 -1.9,-3.2 -3.1,-6.7 -3.6,-10.5 -0.4,-2.3 -0.5,-4.7 -0.5,-7 0.1,-1.2 0.2,-2.4 0.4,-3.5 0.4,-3.7 1.8,-6.9 4.2,-9.7 2.4,-2.9 5.3,-5.2 8.6,-6.8 z m -40,88.8 c -0.1,-0.7 -0.2,-1.3 -0.2,-1.9 0.1,0 0.1,0 0.1,0 1.8,-0.9 3.7,-1.3 5.7,-1.4 2.2,-0.3 4.3,-0.3 6.5,0 -0.4,0.5 -0.4,1.2 -0.2,2 0.1,0.1 0.1,0.1 0.2,0.1 0,0 0.1,0 0.1,0 l 0.1,-0.1 c 0,0 0.1,-0.2 0.1,-0.3 0.1,-0.6 0.3,-1.1 0.6,-1.7 0.3,0.1 0.6,0.1 0.8,0.2 0,0.4 0,0.8 -0.1,1.3 0,0.4 0,0.8 0,1.2 0.1,0.3 0.2,0.4 0.5,0.5 0.9,0.1 1.9,0 2.8,-0.4 1.1,-0.4 2.1,-0.8 3.1,-1.3 0.6,0.2 1.2,0.5 1.8,0.8 0.1,0.1 0.3,0.2 0.4,0.2 1,0.3 1.9,0.7 2.6,1.4 0,0.2 -0.1,0.5 -0.1,0.8 -0.1,0 -0.1,0 -0.1,0 -0.1,0.1 -0.1,0.1 -0.1,0.2 -0.2,0.4 -0.4,0.9 -0.5,1.3 0.1,0.1 0.1,0.1 0.1,0.1 0.1,0 0.2,0 0.2,0 0.7,-0.6 1.1,-1.2 1.1,-1.8 v 0 c 0,0 0,0 0.1,0 0.5,0.6 1.2,1.1 2.1,1.5 0,0 0,0 0,0 0,0.1 0,0.1 0,0.1 0.1,0.1 0.1,0.1 0.2,0.2 0,0 0,0 0.1,0.1 -0.1,0.1 -0.1,0.1 0,0.1 -0.1,0 -0.1,0 0,0.1 -0.1,0 -0.1,0 -0.1,0.1 0.1,0.1 0.1,0.2 0.1,0.3 0,0.2 0,0.3 0,0.5 0,0.1 0,0.2 0,0.3 -0.1,0.3 -0.1,0.5 -0.1,0.7 0,0.1 0,0.1 0,0.1 0,0.1 0,0.2 0,0.4 -0.1,0 -0.1,0 -0.1,0 0,0.1 0,0.1 -0.1,0.1 0,0.1 0,0.1 0,0.1 0,0.1 0,0.1 0,0.2 0,0.1 0,0.1 0,0.1 -0.4,0.1 -0.7,0.3 -1,0.5 -0.6,0.4 -1.1,0.6 -1.7,0.6 -0.1,0 -0.2,0 -0.2,0 -0.5,-0.2 -0.9,-0.6 -1.2,-1.1 -0.8,-1.2 -1.6,-2.4 -2.6,-3.4 -0.3,-0.3 -0.6,-0.5 -0.9,-0.6 -1.1,-0.5 -2.4,-0.9 -3.7,-1.1 -1.5,-0.1 -3.1,-0.2 -4.7,-0.3 -0.1,0 -0.2,0 -0.3,0 -1.4,-0.3 -2.7,-0.3 -3.9,0 -1,0.1 -1.9,0.3 -2.8,0.4 -0.6,0.1 -1.2,0.3 -1.8,0.6 -1.6,0.9 -3.1,2.1 -4.5,3.4 0,0.1 0,0.1 0,0.1 v 0.1 c -0.3,0.2 -0.5,0.4 -0.8,0.7 -0.5,0.7 -1.2,1.4 -1.9,1.9 -1.6,0.9 -2.8,2.1 -3.9,3.6 0,0 0,0 0,0.1 0,0 0,0 0,0.1 -0.1,0 -0.1,0 0,0.1 -0.2,0.1 -0.3,0.3 -0.4,0.4 -0.4,1.1 -0.9,2.1 -1.6,2.9 -0.9,1.2 -1.8,2.5 -2.4,3.8 -0.4,0.6 -0.8,1.2 -1,1.8 -0.4,1 -0.7,2 -0.7,3.1 -0.1,1.3 -0.5,2.6 -1.1,3.8 -0.2,0.3 -0.5,0.6 -0.7,0.8 -0.5,0.2 -1.1,0.3 -1.6,0.3 0,0.2 0.2,0.3 0.4,0.3 0.1,0.1 0.2,0.1 0.3,0.1 -0.9,0.8 -2,1.4 -3.1,1.8 -0.8,0.3 -1.5,0.5 -2.2,0.7 -3.8,1.1 -7.4,0.8 -10.8,-0.8 -0.1,-0.2 -0.2,-0.3 -0.3,-0.3 -0.2,-0.1 -0.4,-0.2 -0.4,-0.3 -0.1,-0.1 -0.1,-0.1 -0.2,-0.2 0,-0.1 0,-0.2 -0.1,-0.2 0,-0.1 0,-0.2 0,-0.2 -0.1,-0.1 -0.1,-0.1 -0.1,-0.1 0,-0.1 -0.1,-0.2 -0.1,-0.2 v -0.1 c 0.3,0 0.6,0 1,0 0,0 0,0 0.1,0.1 2.1,0.9 4.4,1.1 6.7,0.6 1.2,-0.4 2.3,-1 3.2,-1.9 1.4,-1.3 2.2,-2.9 2.6,-4.8 0.2,-0.9 0.4,-1.9 0.8,-2.8 0.1,-0.5 0.3,-0.9 0.5,-1.3 0.2,-0.2 0.3,-0.4 0.5,-0.6 0.1,-0.4 0.3,-0.7 0.5,-1.1 0.1,-0.3 0.3,-0.6 0.4,-0.9 0.1,-0.1 0.1,-0.2 0.2,-0.2 0,-0.1 0,-0.2 0.1,-0.3 0.4,-0.8 0.8,-1.5 1.2,-2.2 0,0.2 0.2,0.5 0.3,0.7 0.5,0.8 1.1,0.9 1.6,0.4 0,0 0,0 0,-0.1 -0.7,-0.3 -1,-0.8 -1.1,-1.4 0,-0.2 0,-0.3 0,-0.4 0,-0.3 0,-0.6 -0.1,-0.8 0.4,-0.9 0.9,-1.6 1.5,-2.4 1,-1.2 2,-2.5 3.1,-3.7 0.1,-0.3 0.3,-0.5 0.5,-0.7 0,0.3 0,0.7 0,1 0.1,0.8 0.6,1.3 1.4,1.5 v -0.1 c 0,0 0,0 0.1,0 0,-0.1 0,-0.1 0,-0.1 0,-0.4 -0.2,-0.6 -0.4,-0.9 -0.3,-0.9 -0.2,-1.7 0,-2.6 0.7,-0.7 1.5,-1.4 2.2,-2.1 0.7,-0.5 1.4,-1.1 2.3,-1.5 1.2,-0.8 2.5,-1.5 3.9,-2 -0.2,1 0.2,1.8 1.4,2.3 0.1,-0.1 0.2,-0.1 0.3,-0.2 -0.3,-0.2 -0.4,-0.5 -0.5,-0.8 z m 30.4,-30.8 c 1.3,0.6 2.5,1.2 3.7,2 2.3,1.1 4.7,2.3 7,3.6 1.9,0.9 3.9,1.8 5.9,2.5 0.6,0.3 1.3,0.4 2,0.6 0.5,0.1 0.7,0.3 0.6,0.8 -0.1,0.1 -0.1,0.2 -0.1,0.3 -0.3,0.1 -0.5,0.2 -0.7,0.3 -0.3,0.2 -0.7,0.5 -1,0.7 -0.1,0.1 -0.2,0.2 -0.3,0.2 -1.2,1 -2.4,1.9 -3.7,2.7 -0.5,0.3 -1,0.6 -1.5,0.9 -0.8,0.4 -1.7,0.9 -2.4,1.4 -1.9,1.3 -4,2.5 -6.1,3.6 -1.8,0.9 -3.6,1.8 -5.5,2.7 -3.4,1.7 -6.8,3.2 -10.1,4.9 -0.7,0.3 -1.3,0.5 -2,0.9 v -0.1 c 0.1,-0.4 0.1,-0.8 0.1,-1.3 0.2,-2 0.3,-4 0.6,-6 0.2,-2.4 0.5,-4.9 0.8,-7.3 0.3,-2.4 0.6,-4.9 0.8,-7.3 0,-0.3 0,-0.6 0.1,-1 0,-0.7 0.1,-1.5 0.2,-2.2 0.1,-0.1 0.1,-0.2 0.1,-0.4 0.2,-1.4 0.6,-2.8 1,-4.1 0.1,-0.3 0.2,-0.6 0.3,-0.9 0,-0.2 0.1,-0.4 0.1,-0.5 0,-0.1 -0.1,-0.2 -0.2,-0.2 0,-0.1 0,-0.2 0,-0.2 0,-0.1 0,-0.1 0,-0.2 0.1,0 0.1,0 0.1,0 0.1,-0.1 0.2,-0.1 0.2,-0.1 v -0.1 c 1,0.6 2.1,1 3.2,1.3 2.4,0.5 4.7,1.3 6.8,2.5 z m -0.4,33.9 c 0.1,0.1 0.2,0.1 0.3,0.1 v 0.1 c -0.1,0 -0.1,0 0,0.1 0,0 0,0.1 0,0.1 0.1,0.1 0.1,0.1 0.1,0.2 0,0 0,0 0,0 0.1,0.1 0.1,0.2 0.1,0.3 -0.1,0 -0.1,0 -0.1,0.1 0,0.1 0,0.1 0,0.1 0.1,0 0.1,0 0.1,0.1 0.1,0 0.1,0 0.1,0.1 0,0 0,0 0,0.1 -0.1,0 -0.1,0 0,0.1 0.4,0.6 0.7,1.1 1,1.8 0.2,0.3 0.3,0.5 0.4,0.8 0.5,0.8 0.9,1.6 1.5,2.5 0.7,1 1,2.2 0.9,3.5 -0.9,1.9 -2.4,3.1 -4.5,3.7 -0.3,0 -0.6,0 -0.8,-0.1 -0.9,-0.5 -1.5,-1.1 -2,-2 -0.5,-0.9 -1,-1.8 -1.4,-2.7 l -0.1,-0.1 c 0,-0.2 -0.1,-0.4 -0.2,-0.5 0,-0.1 -0.1,-0.2 -0.2,-0.2 -0.2,-0.4 -0.4,-0.8 -0.5,-1.1 -0.2,-0.3 -0.4,-0.6 -0.5,-0.9 -0.1,0 -0.1,0 -0.1,-0.1 0,0 0,0 0,-0.1 -0.1,0 -0.1,-0.1 -0.1,-0.1 0,-0.3 -0.1,-0.7 -0.2,-1 0.4,0.3 0.8,0.3 1.2,0.1 0,0.1 0.1,0.1 0.2,0.1 0.1,0 0.2,0 0.4,0 0.7,-0.3 1.5,-0.5 2.3,-1 0.1,0 0.2,-0.2 0.3,-0.4 0.8,-1.4 0.9,-2.8 0.5,-4.3 0,-0.1 0,-0.1 0,-0.2 0.1,0 0.3,0 0.4,0 0.1,0.1 0.1,0.2 0.2,0.3 0.1,0.1 0.2,0.1 0.4,0.2 0,0 0,0.1 0.1,0.1 0,0.1 0.1,0.1 0.2,0.2 z"
         id="path1" />
      <path
         style="fill:#ffffff;stroke:none"
         d="m 520.9,486.59 c -2.6,0.1 -5,0.8 -7.4,1.9 -3.3,1.6 -6.2,3.9 -8.6,6.8 -2.4,2.8 -3.8,6 -4.2,9.7 -0.2,1.1 -0.3,2.3 -0.4,3.5 0,2.3 0.1,4.7 0.5,7 0.5,3.8 1.7,7.3 3.6,10.5 2,3.2 4.7,5.7 8.2,7.5 3.3,1.5 6.9,2.6 10.6,3.2 0.6,0 1.3,0 2.1,0 3.2,0 6.3,-0.6 9.5,-1.7 3.7,-1.5 6.8,-3.8 9.3,-6.8 2.6,-3.3 4.3,-7 5,-11.1 0.2,-1.9 0.4,-3.7 0.4,-5.5 0,-0.3 0,-0.6 0,-0.8 0,-1.8 -0.1,-3.6 -0.4,-5.3 -0.5,-3.9 -2.1,-7.2 -4.8,-9.9 -2.7,-2.8 -5.8,-4.8 -9.3,-6.1 -3.4,-1.2 -6.9,-2.2 -10.5,-2.8 -1.1,-0.2 -2.2,-0.2 -3.2,-0.1 -0.2,-0.1 -0.3,-0.1 -0.4,0 z m 0.7,29.3 c -2.7,0.6 -5,-0.1 -6.6,-2.2 -0.4,-0.4 -0.7,-1 -0.9,-1.6 -0.2,-0.9 -0.2,-1.9 0,-2.9 0.2,-0.4 0.4,-0.9 0.6,-1.3 1.1,-1.8 2.6,-2.9 4.5,-3.3 2.3,-0.2 4.1,0.6 5.5,2.2 0.3,0.3 0.4,0.6 0.5,0.9 0.1,0.3 0.1,0.5 0.2,0.7 0.1,0.4 0.2,0.7 0.3,1.2 0.1,0.2 0.1,0.5 0.1,0.8 0.1,0.6 0.1,1.3 -0.2,2.1 -0.7,1.8 -2,2.9 -4,3.4 z"
         id="path2" />
      <path
         style="fill:#5f5f61;stroke:none"
         d="m 515,513.69 c 1.6,2.1 3.9,2.8 6.6,2.2 2,-0.5 3.3,-1.6 4,-3.4 0.3,-0.8 0.3,-1.5 0.2,-2.1 0,-0.3 0,-0.6 -0.1,-0.8 -0.1,-0.5 -0.2,-0.8 -0.3,-1.2 -0.1,-0.2 -0.1,-0.4 -0.2,-0.7 -0.1,-0.3 -0.2,-0.6 -0.5,-0.9 -1.4,-1.6 -3.2,-2.4 -5.5,-2.2 -1.9,0.4 -3.4,1.5 -4.5,3.3 -0.2,0.4 -0.4,0.9 -0.6,1.3 -0.2,1 -0.2,2 0,2.9 0.2,0.6 0.5,1.2 0.9,1.6 z"
         id="path3" />
      <path
         style="fill:#ffffff;stroke:none"
         d="m 473.3,575.39 c 0,0.6 0.1,1.2 0.2,1.9 0.1,0.3 0.2,0.6 0.5,0.8 -0.1,0.1 -0.2,0.1 -0.3,0.2 -1.2,-0.5 -1.6,-1.3 -1.4,-2.3 -1.4,0.5 -2.7,1.2 -3.9,2 -0.9,0.4 -1.6,1 -2.3,1.5 -0.7,0.7 -1.5,1.4 -2.2,2.1 -0.2,0.9 -0.3,1.7 0,2.6 0.2,0.3 0.4,0.5 0.4,0.9 0,0 0,0 0,0.1 -0.1,0 -0.1,0 -0.1,0 v 0.1 c -0.8,-0.2 -1.3,-0.7 -1.4,-1.5 0,-0.3 0,-0.7 0,-1 -0.2,0.2 -0.4,0.4 -0.5,0.7 -1.1,1.2 -2.1,2.5 -3.1,3.7 -0.6,0.8 -1.1,1.5 -1.5,2.4 0.1,0.2 0.1,0.5 0.1,0.8 0,0.1 0,0.2 0,0.4 0.1,0.6 0.4,1.1 1.1,1.4 0,0.1 0,0.1 0,0.1 -0.5,0.5 -1.1,0.4 -1.6,-0.4 -0.1,-0.2 -0.3,-0.5 -0.3,-0.7 -0.4,0.7 -0.8,1.4 -1.2,2.2 -0.1,0.1 -0.1,0.2 -0.1,0.3 -0.1,0 -0.1,0.1 -0.2,0.2 -0.1,0.3 -0.3,0.6 -0.4,0.9 -0.2,0.4 -0.4,0.7 -0.5,1.1 -0.2,0.2 -0.3,0.4 -0.5,0.6 -0.2,0.4 -0.4,0.8 -0.5,1.3 -0.4,0.9 -0.6,1.9 -0.8,2.8 -0.4,1.9 -1.2,3.5 -2.6,4.8 -0.9,0.9 -2,1.5 -3.2,1.9 -2.3,0.5 -4.6,0.3 -6.7,-0.6 -0.1,-0.1 -0.1,-0.1 -0.1,-0.1 -0.4,0 -0.7,0 -1,0 v 0.1 c 0,0 0.1,0.1 0.1,0.2 0,0 0,0 0.1,0.1 0,0 0,0.1 0,0.2 0.1,0 0.1,0.1 0.1,0.2 0.1,0.1 0.1,0.1 0.2,0.2 0,0.1 0.2,0.2 0.4,0.3 0.1,0 0.2,0.1 0.3,0.3 3.4,1.6 7,1.9 10.8,0.8 0.7,-0.2 1.4,-0.4 2.2,-0.7 1.1,-0.4 2.2,-1 3.1,-1.8 -0.1,0 -0.2,0 -0.3,-0.1 -0.2,0 -0.4,-0.1 -0.4,-0.3 0.5,0 1.1,-0.1 1.6,-0.3 0.2,-0.2 0.5,-0.5 0.7,-0.8 0.6,-1.2 1,-2.5 1.1,-3.8 0,-1.1 0.3,-2.1 0.7,-3.1 0.2,-0.6 0.6,-1.2 1,-1.8 0.6,-1.3 1.5,-2.6 2.4,-3.8 0.7,-0.8 1.2,-1.8 1.6,-2.9 0.1,-0.1 0.2,-0.3 0.4,-0.4 -0.1,-0.1 -0.1,-0.1 0,-0.1 0,-0.1 0,-0.1 0,-0.1 0,-0.1 0,-0.1 0,-0.1 1.1,-1.5 2.3,-2.7 3.9,-3.6 0.7,-0.5 1.4,-1.2 1.9,-1.9 0.3,-0.3 0.5,-0.5 0.8,-0.7 v -0.1 c 0,0 0,0 0,-0.1 1.4,-1.3 2.9,-2.5 4.5,-3.4 0.6,-0.3 1.2,-0.5 1.8,-0.6 0.9,-0.1 1.8,-0.3 2.8,-0.4 1.2,-0.3 2.5,-0.3 3.9,0 0.1,0 0.2,0 0.3,0 1.6,0.1 3.2,0.2 4.7,0.3 1.3,0.2 2.6,0.6 3.7,1.1 0.3,0.1 0.6,0.3 0.9,0.6 1,1 1.8,2.2 2.6,3.4 0.3,0.5 0.7,0.9 1.2,1.1 0,0 0.1,0 0.2,0 0.6,0 1.1,-0.2 1.7,-0.6 0.3,-0.2 0.6,-0.4 1,-0.5 0,0 0,0 0,-0.1 0,-0.1 0,-0.1 0,-0.2 0,0 0,0 0,-0.1 0.1,0 0.1,0 0.1,-0.1 0,0 0,0 0.1,0 0,-0.2 0,-0.3 0,-0.4 0,0 0,0 0,-0.1 0,-0.2 0,-0.4 0.1,-0.7 0,-0.1 0,-0.2 0,-0.3 0,-0.2 0,-0.3 0,-0.5 0,-0.1 0,-0.2 -0.1,-0.3 0,-0.1 0,-0.1 0.1,-0.1 -0.1,-0.1 -0.1,-0.1 0,-0.1 -0.1,0 -0.1,0 0,-0.1 -0.1,-0.1 -0.1,-0.1 -0.1,-0.1 -0.1,-0.1 -0.1,-0.1 -0.2,-0.2 0,0 0,0 0,-0.1 0,0 0,0 0,0 -0.9,-0.4 -1.6,-0.9 -2.1,-1.5 H 499 c 0,0.6 -0.4,1.2 -1.1,1.8 0,0 -0.1,0 -0.2,0 0,0 0,0 -0.1,-0.1 0.1,-0.4 0.3,-0.9 0.5,-1.3 0,-0.1 0,-0.1 0.1,-0.2 0,0 0,0 0.1,0 0,-0.3 0.1,-0.6 0.1,-0.8 -0.7,-0.7 -1.6,-1.1 -2.6,-1.4 -0.1,0 -0.3,-0.1 -0.4,-0.2 -0.6,-0.3 -1.2,-0.6 -1.8,-0.8 -1,0.5 -2,0.9 -3.1,1.3 -0.9,0.4 -1.9,0.5 -2.8,0.4 -0.3,-0.1 -0.4,-0.2 -0.5,-0.5 0,-0.4 0,-0.8 0,-1.2 0.1,-0.5 0.1,-0.9 0.1,-1.3 -0.2,-0.1 -0.5,-0.1 -0.8,-0.2 -0.3,0.6 -0.5,1.1 -0.6,1.7 0,0.1 -0.1,0.3 -0.1,0.3 l -0.1,0.1 c 0,0 -0.1,0 -0.1,0 -0.1,0 -0.1,0 -0.2,-0.1 -0.2,-0.8 -0.2,-1.5 0.2,-2 -2.2,-0.3 -4.3,-0.3 -6.5,0 -2,0.1 -3.9,0.5 -5.7,1.4 z"
         id="path4" />
      <path
         style="fill:#ffffff;stroke:none"
         d="m 507.6,548.49 c -1.2,-0.8 -2.4,-1.4 -3.7,-2 -2.1,-1.2 -4.4,-2 -6.8,-2.5 -1.1,-0.3 -2.2,-0.7 -3.2,-1.3 v 0.1 c 0,0 -0.1,0 -0.2,0.1 0,0 0,0 -0.1,0 0,0.1 0,0.1 0,0.2 0,0 0,0.1 0,0.2 0.1,0 0.2,0.1 0.2,0.2 0,0.1 -0.1,0.3 -0.1,0.5 -0.1,0.3 -0.2,0.6 -0.3,0.9 -0.4,1.3 -0.8,2.7 -1,4.1 0,0.2 0,0.3 -0.1,0.4 -0.1,0.7 -0.2,1.5 -0.2,2.2 -0.1,0.4 -0.1,0.7 -0.1,1 -0.2,2.4 -0.5,4.9 -0.8,7.3 -0.3,2.4 -0.6,4.9 -0.8,7.3 -0.3,2 -0.4,4 -0.6,6 0,0.5 0,0.9 -0.1,1.3 v 0.1 c 0.7,-0.4 1.3,-0.6 2,-0.9 3.3,-1.7 6.7,-3.2 10.1,-4.9 1.9,-0.9 3.7,-1.8 5.5,-2.7 2.1,-1.1 4.2,-2.3 6.1,-3.6 0.7,-0.5 1.6,-1 2.4,-1.4 0.5,-0.3 1,-0.6 1.5,-0.9 1.3,-0.8 2.5,-1.7 3.7,-2.7 0.1,0 0.2,-0.1 0.3,-0.2 0.3,-0.2 0.7,-0.5 1,-0.7 0.2,-0.1 0.4,-0.2 0.7,-0.3 0,-0.1 0,-0.2 0.1,-0.3 0.1,-0.5 -0.1,-0.7 -0.6,-0.8 -0.7,-0.2 -1.4,-0.3 -2,-0.6 -2,-0.7 -4,-1.6 -5.9,-2.5 -2.3,-1.3 -4.7,-2.5 -7,-3.6 z"
         id="path5" />
      <path
         style="fill:#ffffff;stroke:none"
         d="m 503.8,580.49 c -0.1,0 -0.2,0 -0.3,-0.1 -0.1,-0.1 -0.2,-0.1 -0.2,-0.2 -0.1,0 -0.1,-0.1 -0.1,-0.1 -0.2,-0.1 -0.3,-0.1 -0.4,-0.2 -0.1,-0.1 -0.1,-0.2 -0.2,-0.3 -0.1,0 -0.3,0 -0.4,0 0,0.1 0,0.1 0,0.2 0.4,1.5 0.3,2.9 -0.5,4.3 -0.1,0.2 -0.2,0.4 -0.3,0.4 -0.8,0.5 -1.6,0.7 -2.3,1 -0.2,0 -0.3,0 -0.4,0 -0.1,0 -0.2,0 -0.2,-0.1 -0.4,0.2 -0.8,0.2 -1.2,-0.1 0.1,0.3 0.2,0.7 0.2,1 0,0 0,0.1 0.1,0.1 0,0.1 0,0.1 0,0.1 0,0.1 0,0.1 0.1,0.1 0.1,0.3 0.3,0.6 0.5,0.9 0.1,0.3 0.3,0.7 0.5,1.1 0.1,0 0.2,0.1 0.2,0.2 0.1,0.1 0.2,0.3 0.2,0.5 l 0.1,0.1 c 0.4,0.9 0.9,1.8 1.4,2.7 0.5,0.9 1.1,1.5 2,2 0.2,0.1 0.5,0.1 0.8,0.1 2.1,-0.6 3.6,-1.8 4.5,-3.7 0.1,-1.3 -0.2,-2.5 -0.9,-3.5 -0.6,-0.9 -1,-1.7 -1.5,-2.5 -0.1,-0.3 -0.2,-0.5 -0.4,-0.8 -0.3,-0.7 -0.6,-1.2 -1,-1.8 -0.1,-0.1 -0.1,-0.1 0,-0.1 0,-0.1 0,-0.1 0,-0.1 0,-0.1 0,-0.1 -0.1,-0.1 0,-0.1 0,-0.1 -0.1,-0.1 0,0 0,0 0,-0.1 0,-0.1 0,-0.1 0.1,-0.1 0,-0.1 0,-0.2 -0.1,-0.3 0,0 0,0 0,0 0,-0.1 0,-0.1 -0.1,-0.2 0,0 0,-0.1 0,-0.1 -0.1,-0.1 -0.1,-0.1 0,-0.1 z"
         id="path6" />
      <path
         style="fill:#ffffff;stroke:none"
         d="m 524.6,593.29 c -0.1,0 -0.3,0 -0.5,-0.1 -0.8,0.8 -1.5,1.6 -2.2,2.4 -0.3,0.3 -0.7,0.6 -1.1,0.9 -1.7,0.8 -3.7,1 -5.6,0.6 -1.1,-0.2 -2.1,-0.6 -3.1,-1.1 -0.1,0.2 -0.2,0.3 -0.4,0.5 -0.1,0 -0.1,0 -0.1,0 -0.1,0.4 -0.3,0.7 -0.7,1 0,0 -0.1,0 -0.1,0.1 -0.1,-0.1 -0.1,-0.1 -0.2,-0.1 0,-0.3 0.1,-0.7 0.2,-1.1 0,-0.1 0,-0.2 0.1,-0.3 0.1,-0.2 0.3,-0.4 0.5,-0.5 -0.7,-0.4 -1.2,-0.8 -1.7,-1.3 -0.3,-0.2 -0.5,-0.5 -0.7,-0.7 -0.2,-0.5 -0.3,-0.9 -0.2,-1.3 0,0 0,0 0,0 0,-0.1 0,-0.1 0.1,-0.1 0,-0.1 0,-0.2 0,-0.3 0,-0.1 0,-0.2 0,-0.4 0,0 0,0 -0.1,0 0,-0.1 0,-0.1 -0.1,-0.1 v 0 c -0.1,0 -0.1,0 -0.1,0 -0.1,0 -0.1,0 -0.2,0 0,0.1 0,0.2 0,0.2 0,0.2 0,0.3 0,0.5 -0.2,0.2 -0.3,0.4 -0.5,0.7 -0.8,0.8 -1.7,1.4 -2.7,1.8 -0.3,0.2 -0.6,0.4 -0.8,0.5 0.2,0.1 0.3,0.4 0.4,0.8 0.1,0.5 0.3,1 0.6,1.5 0.5,0.7 0.9,1.5 1.2,2.3 0,0 0,0 0.1,0.1 0,0 0.1,0.1 0.1,0.1 0,0.1 0,0.1 0,0.1 0,0.1 0,0.1 0,0.1 1.4,1.6 3,2.8 4.9,3.7 0.3,0.1 0.7,0.2 1.1,0.3 2.8,0.5 5.6,0.1 8.3,-1.1 0.6,-0.3 1.2,-0.7 1.8,-1.1 1.1,-0.7 2,-1.6 2.6,-2.6 0.1,-0.2 0.1,-0.4 0.2,-0.6 0.3,-0.3 0.4,-0.7 0.4,-1.1 0,-0.1 0,-0.2 0.1,-0.2 0.2,-0.7 0.2,-1.3 0.3,-1.9 0,-0.8 -0.4,-1.4 -0.9,-1.9 -0.1,0 -0.1,0 -0.1,0 -0.1,-0.1 -0.2,-0.1 -0.2,-0.2 -0.1,0 -0.2,0 -0.1,0 -0.2,0 -0.4,-0.1 -0.6,-0.1 z m 0.3,2.8 c 0,-0.1 -0.1,-0.2 -0.2,-0.2 0,-0.1 0,-0.1 0,-0.1 0,-0.1 0,-0.1 0.1,-0.2 0,0 0,0 0,-0.1 0.1,-0.1 0.2,-0.3 0.5,-0.3 0,0 0,0 0.1,0 0.7,0.4 0.6,0.7 -0.1,0.9 -0.2,0.1 -0.3,0 -0.4,0 z m 0.2,2.3 c 0,0 0.1,0 0.2,0.1 -0.1,0 -0.1,0 0,0.1 -0.1,0 -0.1,0 0,0.1 0,0 0,0 0,0.1 0,0 0,0 0,0.1 0,0 0,0 0,0.1 -0.1,0 -0.2,0 -0.2,0.1 0,0 -0.1,0 -0.2,0.1 -0.7,-0.6 -1.4,-0.9 -2.3,-0.9 0,0 0,0 -0.1,0.1 -0.1,0 -0.2,0.1 -0.4,0.1 v 0.1 c 0,0 -0.1,0 -0.1,0 -0.1,0 -0.1,0 -0.2,-0.1 0,0 -0.1,-0.1 -0.1,-0.1 0.1,-0.5 0.4,-0.7 0.9,-0.8 0.2,0 0.4,0 0.5,0 0.9,0 1.5,0.3 2,0.8 z m -1.7,-3.6 c 0.1,0 0.2,0 0.2,0 0.8,0.3 0.9,0.7 0.4,1.2 -0.3,0.2 -0.5,0.2 -0.6,0 -0.6,-0.4 -0.6,-0.8 0,-1.2 z"
         id="path7" />
      <path
         style="fill:#5f5f61;stroke:none"
         d="m 524.7,595.89 c 0.1,0 0.2,0.1 0.2,0.2 0.1,0 0.2,0.1 0.4,0 0.7,-0.2 0.8,-0.5 0.1,-0.9 -0.1,0 -0.1,0 -0.1,0 -0.3,0 -0.4,0.2 -0.5,0.3 0,0.1 0,0.1 0,0.1 -0.1,0.1 -0.1,0.1 -0.1,0.2 z"
         id="path8" />
      <path
         style="fill:#5f5f61;stroke:none"
         d="m 525.3,598.49 c -0.1,-0.1 -0.2,-0.1 -0.2,-0.1 -0.5,-0.5 -1.1,-0.8 -2,-0.8 -0.1,0 -0.3,0 -0.5,0 -0.5,0.1 -0.8,0.3 -0.9,0.8 0,0 0.1,0.1 0.1,0.1 0.1,0.1 0.1,0.1 0.2,0.1 0,0 0.1,0 0.1,0 v -0.1 c 0.2,0 0.3,-0.1 0.4,-0.1 0.1,-0.1 0.1,-0.1 0.1,-0.1 0.9,0 1.6,0.3 2.3,0.9 0.1,-0.1 0.2,-0.1 0.2,-0.1 0,-0.1 0.1,-0.1 0.2,-0.1 0,-0.1 0,-0.1 0,-0.1 0,-0.1 0,-0.1 0,-0.1 0,-0.1 0,-0.1 0,-0.1 -0.1,-0.1 -0.1,-0.1 0,-0.1 -0.1,-0.1 -0.1,-0.1 0,-0.1 z"
         id="path9" />
      <path
         style="fill:#5f5f61;stroke:none"
         d="m 523.6,594.79 c 0,0 -0.1,0 -0.2,0 -0.6,0.4 -0.6,0.8 0,1.2 0.1,0.2 0.3,0.2 0.6,0 0.5,-0.5 0.4,-0.9 -0.4,-1.2 z"
         id="path10" />
      <path
         style="fill:#5f5f61;stroke:none"
         d="m 427.5,626.49 c -0.1,0 -0.1,0 -0.2,0 -0.6,0.5 -1.2,1 -1.7,1.7 -0.2,0.4 -0.5,0.8 -0.9,1.1 -1.6,2.1 -3.2,4.3 -4.7,6.4 -0.2,0.3 -0.3,0.5 -0.5,0.7 -0.9,-0.8 -1.8,-1.5 -2.8,-2.2 -2,-1.4 -4.1,-2.7 -6.2,-3.8 -0.2,0 -0.3,0 -0.4,0.1 -0.1,-0.3 -0.3,-0.4 -0.6,-0.6 -0.2,0 -0.4,0.1 -0.5,0.3 -0.3,0.4 -0.4,1 -0.5,1.5 -0.1,1.2 -0.2,2.3 -0.3,3.5 -0.1,1.2 -0.2,2.4 -0.2,3.7 -0.2,2.4 -0.4,4.8 -0.8,7.2 -0.3,0 -0.6,0.1 -0.9,0.2 -1.1,0.4 -2.2,0.8 -3.3,1.2 -1.6,0.7 -3.2,1.3 -4.8,2.1 -1.8,0.9 -3.5,2 -5.1,3.3 -2.4,2.1 -4.2,4.6 -5.5,7.5 -0.9,1.9 -1.4,3.9 -1.4,6 0,1.2 -0.1,2.4 -0.1,3.7 -0.1,1.4 -0.1,2.8 -0.1,4.2 0.1,0.7 0,1.5 -0.1,2.2 -0.2,1 0.2,1.7 1,2.3 -0.3,0.2 -0.5,0.5 -0.7,0.8 -0.2,0.3 -0.4,0.6 -0.6,0.8 -0.3,0.6 -0.4,1.2 -0.3,1.8 0.2,0.6 0.4,1.2 0.7,1.7 1.2,2.2 1.6,4.7 1.2,7.2 -0.1,0.8 -0.2,1.7 -0.2,2.6 -0.1,-0.1 -0.3,-0.1 -0.4,-0.2 -1.2,-0.6 -2.3,-1.3 -3.4,-1.9 -0.3,-0.3 -0.6,-0.5 -1,-0.7 -1.8,-1 -3.6,-2 -5.5,-3 -0.1,-0.1 -0.2,-0.2 -0.3,-0.3 -2,-1.5 -4.2,-2.4 -6.7,-2.7 -0.4,0 -0.5,0.3 -0.5,0.7 0.2,1 0.4,2.1 0.9,3.1 0.6,1.5 1.3,2.9 2.2,4.2 -0.1,-0.1 -0.3,-0.2 -0.4,-0.2 -0.2,-0.1 -0.4,-0.2 -0.6,-0.3 -2.7,-1.1 -5.5,-1.8 -8.4,-2.2 -0.2,0 -0.4,-0.1 -0.7,-0.1 -0.9,-0.2 -1.7,0 -2.3,0.6 0,0 0,0.1 0,0.2 0.2,1.2 0.7,2.4 1.6,3.4 1,1.3 2.1,2.5 3.4,3.6 0.4,0.4 0.8,0.8 1.2,1.2 1.8,1.8 3.8,3.5 5.9,4.9 1.6,1.1 3.1,2.1 4.5,3.2 0.6,0.6 1.3,1.1 2.1,1.6 1.3,0.8 2.7,1.7 4,2.6 0.4,0.3 0.8,0.5 1.3,0.7 0,0 0,0 0.1,0 -0.2,0 -0.3,0 -0.5,0.1 -1.8,0.5 -3.7,1 -5.6,1.6 -0.6,0.2 -1.3,0.4 -1.9,0.5 -1.1,0.3 -2.2,0.6 -3.3,0.8 -0.4,0 -0.7,0.1 -0.9,0.3 -0.3,-0.6 -0.8,-1.1 -1.3,-1.5 -0.4,-0.2 -0.8,-0.5 -1.1,-0.7 -0.2,-0.1 -0.3,-0.2 -0.5,-0.3 0,0 -0.1,-0.1 -0.2,-0.1 -0.3,-0.1 -0.6,-0.2 -0.8,-0.4 -0.3,-0.1 -0.5,-0.2 -0.7,-0.2 -0.1,0 -0.2,0 -0.3,-0.1 -0.1,0 -0.2,0 -0.2,0 -0.1,0 -0.2,-0.2 -0.3,-0.2 -2.3,-0.9 -4.7,-1.4 -7.2,-1.5 -2.2,0 -4.3,0 -6.4,0 -2.8,0 -5.6,0.1 -8.4,0.2 -5.1,0.1 -10.2,0.3 -15.2,0.7 -0.2,0 -0.3,0.1 -0.4,0.3 0,0 0,0 0,0 0,0.1 0,0.1 0,0.1 0,0.1 0,0.1 0,0.1 0,0.1 0,0.1 0,0.1 0.1,0.1 0.1,0.1 0.1,0.2 0,0 0,0 0.1,0 0.8,0.1 1.7,0.3 2.5,0.5 0.7,0.2 1.4,0.4 2,0.5 0.2,0 0.4,0 0.6,0 0,0.1 0.1,0.1 0.1,0.1 0.1,0 0.2,0 0.2,0 0.3,0.1 0.5,0.1 0.7,0.1 0.1,0 0.1,0 0.2,0 0.1,0.1 0.2,0.1 0.4,0.1 0.9,0.3 1.8,0.5 2.7,0.6 0.8,0.2 1.6,0.3 2.4,0.3 6.5,0.8 13,1.5 19.4,2.2 0.9,0.1 1.7,0.3 2.4,0.6 0.5,0.1 0.9,0.3 1.3,0.5 -0.9,0.1 -1.8,0.3 -2.6,0.6 -1.3,0.3 -2.6,0.6 -4,0.7 -1.1,0.1 -2,0.6 -2.7,1.4 0,0.1 0,0.3 0,0.4 -0.2,0.4 -0.4,0.8 -0.5,1.1 -0.2,0.5 -0.1,0.9 0.4,1.1 1.8,0.9 3.5,0.9 5.3,-0.1 0.2,-0.1 0.5,-0.2 0.8,-0.2 1.5,-0.1 3.1,-0.2 4.6,-0.4 0.7,-0.1 1.4,-0.3 2.1,-0.5 0.5,-0.1 1.1,-0.2 1.6,-0.2 0.9,-0.1 1.7,-0.2 2.5,-0.4 3.9,-0.7 7.7,-1.2 11.7,-1.4 0.4,0 0.8,0 1.3,0 2.7,0 5.4,0 8,0 0.6,0 1.2,0 1.7,0.1 -0.3,0.2 -0.6,0.4 -0.9,0.7 -0.1,0.1 -0.1,0.2 -0.1,0.4 0,0.1 0.1,0.3 0.2,0.4 0,0 0,0.1 0,0.1 0,0.1 0,0.1 0,0.1 0,0.1 0,0.1 0.1,0.2 -0.1,-0.1 -0.1,-0.1 -0.1,-0.1 -0.1,0 -0.1,0 -0.1,0 h -0.1 c 0.1,0.1 0.1,0.2 0.2,0.2 0,0 0,0 0.1,0.1 0,0 0,0 0.1,0.1 0,0 0.1,0.1 0.1,0.1 0,0 0,0 0,0.1 0.1,0 0.1,0 0.1,0.1 0.1,0 0.1,0 0.1,0.1 v 0 c 0,0.1 0,0.1 0,0.1 0,0.1 0,0.1 0,0.1 0,0.1 0,0.1 0.1,0.1 0,0.1 0,0.1 0,0.1 0,0.1 0,0.1 0,0.1 0.1,0.1 0.2,0.2 0.3,0.3 l 0.1,0.1 c 0,0 0,0 0.1,0.1 0,0 0,0 0,0.1 0,0 0,0 0,0.1 0,0 0,0 0,0.1 0.1,0.1 0.2,0.2 0.4,0.4 0.1,0.1 0.2,0.2 0.4,0.2 0.1,0.1 0.1,0.1 0.1,0.2 0.1,0 0.1,0 0.2,0.1 0,0 0.1,0 0.2,0 0,0.1 0,0.1 0.1,0.1 v 0 c 0.2,0.1 0.4,0.1 0.6,0.1 0.6,0.1 1.2,0.1 1.7,-0.1 1.8,-0.4 3.5,-0.8 5.2,-1.1 0,0 0,0 0.1,-0.1 v 0 c 1.9,-0.1 3.8,-0.5 5.6,-1.2 1.3,-0.5 2.5,-0.6 3.8,-0.3 0.8,0.1 1.5,0.2 2.2,0.1 2.1,-0.2 4,0 5.9,0.4 2.2,0.6 4.5,0.7 6.9,0.6 0.2,-0.2 0.4,-0.5 0.5,-0.7 0.1,-0.3 0.2,-0.5 0.3,-0.8 0.8,-0.2 1.5,-0.4 2.2,-0.6 0,0 0.1,0 0.2,0 0.1,0.1 0.3,0.3 0.4,0.5 0.3,0.2 0.6,0.5 0.9,0.7 0,0.1 0,0.1 0,0.1 0,0.1 0,0.1 0,0.1 0.1,0.2 0.2,0.3 0.2,0.5 0,0 0.1,0.1 0.1,0.1 2.6,0.3 5.2,0.3 7.8,0.1 0,0 0,-0.1 0.1,-0.1 0.2,0.1 0.5,0.4 0.7,0.6 0,0 0.1,0 0.2,0.1 0.5,0.4 1.1,0.6 1.7,0.6 1.8,0.2 3.5,0.5 5.2,0.9 1.2,0.3 2.4,0.6 3.6,0.8 1.1,0.3 2.1,0.3 3.2,0.2 2,-0.3 4.1,-0.1 6,0.4 0.7,0.2 1.4,0.3 2,0.5 2.2,0.4 4.1,0.1 6,-1.2 0.1,-0.1 0.1,-0.2 0.1,-0.3 0,-0.4 -0.1,-0.7 -0.4,-0.8 -0.2,-0.2 -0.6,-0.2 -1.1,-0.2 -1.7,-0.4 -3.5,-0.7 -5.3,-0.9 0,0 -0.1,-0.1 -0.2,-0.2 0,0 0,-0.1 0,-0.1 0,0 0.1,0 0.2,0 0.5,-0.1 1.1,-0.2 1.7,-0.3 0.3,0.1 0.8,0.2 1.2,0.3 1.3,0.1 2.5,0.6 3.6,1.2 0,0.1 0.1,0.1 0.1,0.1 0.1,0.1 0.1,0.1 0.1,0.1 0.1,0.1 0.2,0.2 0.3,0.2 0.4,1.1 1.2,1.6 2.4,1.4 0.1,0.2 0.2,0.3 0.3,0.5 0.4,0.6 0.9,1.1 1.5,1.4 0.5,0.5 1,0.8 1.7,0.7 0,0 0.1,-0.1 0.1,-0.1 0.1,-0.7 0.2,-1.4 0.2,-2.2 0,-0.3 0,-0.7 -0.1,-1 -0.2,-1.5 -1,-2.5 -2.2,-3.2 -1.3,-0.8 -2.6,-1.4 -4,-2 0.4,-0.2 0.8,-0.3 1.2,-0.3 0.7,-0.2 1.4,-0.3 2.1,-0.4 0.5,-0.1 1.1,-0.2 1.7,-0.4 0.2,0 0.4,-0.1 0.7,-0.2 0.2,-0.1 0.5,-0.2 0.8,-0.3 2,-0.4 4,-0.8 5.9,-1.1 0.6,-0.1 1.1,-0.2 1.6,-0.2 2.8,-0.2 5.6,-0.3 8.4,-0.2 0.1,0 0.2,0 0.4,0.1 2.2,0 4.4,0.2 6.6,0.4 2.6,0.2 5.2,0.2 7.8,0 1.8,-0.1 3.7,-0.1 5.6,-0.1 0.4,0 0.9,0 1.4,0 -0.5,0.1 -1,0.2 -1.4,0.3 -2.8,0.8 -5.6,1.4 -8.4,2 -2.2,0.5 -4.3,1.1 -6.3,2 -1.8,0.8 -3.6,1.6 -5.4,2.3 -1.6,0.7 -3.2,1.3 -4.8,1.9 -0.2,0.1 -0.4,0.2 -0.7,0.2 -0.6,0.2 -0.9,0.5 -0.8,1.1 0.1,0.1 0.2,0.2 0.3,0.3 0.1,0.1 0.2,0.2 0.2,0.3 0.4,0.5 0.8,0.7 1.2,0.4 0.7,0.1 1.4,-0.1 2.2,-0.3 0.8,-0.4 1.7,-0.6 2.6,-0.8 1.4,-0.3 2.6,-0.6 3.9,-1 1.6,-0.5 3.3,-1.1 4.9,-1.7 0.4,-0.2 0.8,-0.3 1.2,-0.4 1.2,-0.2 2.4,-0.5 3.5,-0.7 0.8,-0.2 1.6,-0.5 2.4,-0.8 1.1,-0.6 2.3,-0.9 3.6,-1.1 0.4,0 0.8,-0.1 1.2,-0.2 0.9,-0.2 1.7,-0.3 2.6,-0.5 0.5,0 1,-0.1 1.5,-0.3 1.5,-0.3 2.9,-0.4 4.4,-0.2 1.3,0.1 2.6,0.3 3.9,0.7 0,0.1 0.1,0.1 0.2,0.2 0,0 0.1,0 0.1,0.1 0.1,0 0.2,0 0.3,0.1 0,0 0.1,0 0.2,0 0,0.2 0.1,0.2 0.3,0.2 0.6,0.2 1.2,0.3 1.7,0.4 -1.4,0.4 -2.8,0.6 -4.3,0.7 -0.3,0.1 -0.6,0.1 -0.8,0.1 -1.9,0.3 -3.7,0.8 -5.5,1.6 -0.4,0.2 -0.9,0.4 -1.4,0.4 -2.5,0.3 -4.9,0.8 -7.3,1.6 -0.1,0 -0.3,0.1 -0.4,0.1 -1.8,0.3 -3.6,0.7 -5.4,1.1 -1.9,0.4 -3.7,0.9 -5.6,1.5 -0.4,0.2 -0.8,0.4 -1,0.7 -0.5,0.6 -1,1.2 -1.5,1.8 -0.5,0 -0.9,0 -1.3,0.1 -2.4,0.4 -4.7,0.9 -6.9,1.5 -0.8,0.3 -1.5,0.4 -2.2,0.6 -2.9,0.5 -5.7,0.7 -8.7,0.7 -2.7,-0.1 -5.3,0.2 -7.9,0.9 -0.4,-0.2 -0.9,-0.3 -1.5,-0.1 -1.9,0.5 -3.7,0.4 -5.5,-0.4 -0.9,-0.3 -1.7,-0.7 -2.5,-1.3 -0.9,-0.5 -1.8,-1 -2.8,-1.3 -2.3,-0.9 -4.7,-1.5 -7.1,-1.7 -2.5,-0.3 -5,-0.4 -7.5,-0.2 -1.2,0 -2.4,0.1 -3.6,0.2 -0.6,0.1 -1.3,0.1 -2,0.1 -2.8,-0.1 -5.6,0.1 -8.3,0.5 -0.1,0 -0.2,0 -0.3,0.1 0.1,-0.1 0.2,-0.2 0.2,-0.4 0,-0.2 -0.1,-0.3 -0.3,-0.3 -1,-0.3 -2.1,-0.6 -3.1,-1 -0.7,-0.4 -1.3,-0.7 -2.1,-1 1.8,-0.9 3.6,-1.8 5.3,-2.8 0.9,-0.5 1.2,-1.1 0.8,-1.8 0,-0.1 0,-0.1 0,-0.1 0,-0.1 0,-0.1 0,-0.1 0,-0.1 0,-0.1 0,-0.1 0,-0.1 0,-0.1 0,-0.1 -0.2,-0.2 -0.3,-0.2 -0.6,-0.2 -0.4,0.1 -0.8,0.3 -1.2,0.5 -0.2,0.1 -0.3,0.2 -0.5,0.3 -2.8,1 -5.8,1.6 -8.8,1.7 -2.5,0 -4.9,0.4 -7.3,1.1 -0.4,0.1 -0.8,0.2 -1.1,0.2 -4.1,0.6 -8.2,1 -12.3,1 -0.6,0.1 -1.1,0.1 -1.7,0.3 -2.3,0.5 -4.7,1 -7.2,1.4 -0.9,0.1 -1.8,0.3 -2.7,0.5 -3,0.7 -6.1,1.1 -9.2,1.4 -1.7,0.1 -3.4,0.4 -5.1,0.9 -0.4,0.2 -0.9,0.3 -1.4,0.4 -0.3,0.1 -0.6,0.2 -0.8,0.3 -0.8,0.3 -1.6,0.4 -2.4,0.6 -2.1,0.3 -4.1,0.7 -6.1,1.2 -1.9,0.4 -3.7,0.9 -5.6,1.6 -0.4,0.2 -0.8,0.3 -1.2,0.4 -1.3,0.2 -2.5,0.5 -3.7,0.9 -0.4,0.1 -0.8,0.3 -1,0.6 -0.2,0.3 -0.2,0.5 0.1,0.7 0.5,0.4 1.1,0.6 1.7,0.7 4.5,0.7 8.8,0.4 13.1,-0.6 1.4,-0.4 2.8,-0.7 4.2,-0.9 2.4,-0.5 4.9,-0.9 7.4,-1.2 3.1,-0.4 6.3,-0.5 9.5,-0.3 4.2,0.4 8.3,-0.1 12.3,-1.2 1.7,-0.3 3.4,-0.5 5.1,-0.8 1.4,-0.1 2.8,-0.4 4.2,-0.8 2.8,-0.8 5.7,-1.5 8.5,-2.3 0.2,0 0.3,0 0.4,0 2.9,-0.2 5.8,-0.3 8.6,-0.4 h 0.1 c 0,-0.1 0,-0.1 0,-0.1 0.5,-0.1 1,-0.1 1.5,-0.1 0.5,-0.1 1,0 1.5,0 -0.5,0.1 -0.9,0.2 -1.4,0.3 -1.5,0.4 -2.9,0.9 -4.4,1.5 -1.5,0.6 -2.8,1.5 -4.1,2.5 -0.6,0.6 -1.3,1.2 -1.9,1.8 -1.3,1.3 -2.7,2.5 -4.2,3.5 -0.9,0.7 -1.9,1 -3,1.2 -3.5,0.4 -7,0.6 -10.5,0.4 0.9,-0.8 1.8,-1.6 2.8,-2.5 0.4,-0.3 0.6,-0.7 0.7,-1.2 0.2,-0.8 -0.1,-1.3 -0.8,-1.6 -0.6,-0.2 -1.3,-0.3 -2.1,-0.2 -0.4,0.1 -0.9,0.2 -1.5,0.2 -0.8,0 -1.3,0.4 -1.3,1.3 -0.7,0.6 -1.4,0.8 -2.4,0.5 -0.8,-0.3 -1.5,-0.3 -2.3,0 -1,0.4 -2.1,0.9 -3.2,1.3 -2.7,1 -5.4,1.8 -8.2,2.6 -1.2,0.3 -2.4,0.7 -3.6,1.1 -2.4,0.7 -4.6,1.7 -6.8,2.8 -1.7,0.8 -3.2,1.9 -4.7,3.2 -0.1,0.2 -0.3,0.3 -0.5,0.4 -0.6,0.3 -0.9,0.8 -0.7,1.4 0,0 0.1,0.1 0.1,0.1 1.8,-0.1 3.5,-0.4 5.2,-0.9 0.7,-0.2 1.3,-0.5 2,-0.8 2.5,-1.1 5,-2.1 7.7,-2.7 0.3,-0.1 0.6,-0.2 0.9,-0.3 3.5,-1.2 7.2,-1.7 11,-1.4 0.4,0 0.8,0 1.2,0.1 1.5,0.4 3,0.6 4.5,0.7 2.2,0.2 4.2,0.4 6.1,0.6 -0.3,0.4 -0.5,0.9 -0.6,1.3 -0.1,0.7 0.1,1.2 0.6,1.7 0.8,0.5 1.6,0.7 2.5,0.4 2.4,-0.9 4.7,-1.7 7,-2.6 2.3,-0.9 4.6,-1.9 7,-2.9 1.3,-0.6 2.6,-1 4.1,-1.3 0.5,-0.1 1.1,-0.2 1.6,-0.3 1.8,-0.2 3.6,-0.6 5.2,-1.2 0.3,0.1 0.5,0.1 0.8,0.1 0.6,0.1 1.2,0.1 1.9,0 2,-0.3 4.1,-0.4 6.2,-0.4 0.1,0 0.2,0 0.3,0 4,-0.1 7.9,0.1 11.8,0.4 0.2,0.1 0.3,0.1 0.4,0.1 4.7,0.2 9.3,-0.1 13.9,-1.1 1.3,-0.3 2.6,-0.6 3.9,-0.9 2,-0.5 4,-0.7 6,-0.7 0.2,0 0.3,0 0.4,0 -0.1,0.1 -0.2,0.2 -0.4,0.3 -0.6,0.3 -0.9,0.8 -1,1.5 0,0.1 0.1,0.2 0.2,0.2 1.5,0.2 3,0.3 4.5,0.4 0.1,0 0.1,0 0.1,0 0,0 0,0 0,0 0,0.1 -0.1,0.1 -0.1,0.2 -0.5,0.5 -0.8,1 -1.1,1.6 0,0.1 0,0.2 0,0.2 -0.1,0.2 -0.1,0.3 -0.1,0.4 0,0.1 0,0.1 -0.1,0.1 0,0.1 -0.1,0.1 -0.1,0.2 0,0 0,0.1 0,0.2 0,0.1 0,0.2 0,0.3 0.1,0 0.2,0.1 0.2,0.1 0.5,0 1,0 1.4,0 0.5,-0.1 0.9,-0.1 1.3,0.1 1.4,0.6 2.7,0.5 4,0 1.7,-0.8 3.5,-1.2 5.4,-1.3 0.2,0.1 0.4,0.2 0.5,0.3 0.1,0.1 0.2,0.2 0.4,0.3 1,0.7 2.1,1.3 3.2,1.9 3,1.4 6.2,1.8 9.5,1.1 1.1,-0.2 2.2,-0.5 3.3,-0.7 2.3,-0.6 4.7,-1.2 7,-2 0.7,-0.2 1.3,-0.4 1.9,-0.6 2.2,-0.7 4.5,-1 6.8,-1.1 2.5,-0.1 4.9,-0.3 7.3,-0.5 0.4,-0.1 0.6,-0.2 0.7,-0.5 0,-0.2 -0.1,-0.3 -0.2,-0.4 0.1,-0.3 0.1,-0.6 0,-1 0,-0.4 -0.3,-0.6 -0.7,-0.8 -1.2,-0.4 -2.3,-0.6 -3.4,-0.5 0,0 0,0 -0.1,0 0.1,-0.1 0.1,-0.1 0.1,-0.1 0.1,-0.1 0.3,-0.2 0.4,-0.4 0.1,-0.1 0.3,-0.3 0.5,-0.4 0.1,-0.1 0.2,-0.2 0.2,-0.3 0.4,-0.2 0.5,-0.5 0.7,-0.9 -0.2,-0.4 -0.7,-0.5 -1.1,-0.2 -1.3,0.7 -2.6,1.1 -4.1,1.4 -2.5,0.4 -5.1,0.4 -7.7,0.2 -2.4,-0.3 -4.8,-0.7 -7.2,-1.2 -1.4,-0.3 -2.8,-0.5 -4.1,-0.7 -1,-0.1 -2,-0.2 -3,-0.2 -2,0 -3.9,0 -5.8,0 -0.1,-0.1 -0.2,-0.1 -0.4,-0.1 -1.2,-0.1 -2.3,-0.2 -3.5,-0.4 -0.1,-0.1 -0.2,-0.1 -0.3,-0.1 0.1,-0.1 0.2,-0.1 0.3,-0.1 1.1,-0.3 2.1,-0.6 3.1,-0.8 0.3,-0.1 0.6,-0.1 0.8,-0.1 1.8,0 3.4,-0.4 5,-1.2 0.4,-0.2 0.8,-0.5 1.2,-1 1.7,0 3.3,0.3 4.9,0.8 0.2,0.1 0.4,0.1 0.7,0.2 1.2,0.1 2.4,0.3 3.6,0.5 1.7,0.4 3.5,0.4 5.2,0 h 0.1 c 0,-0.1 0,-0.1 0,-0.1 0,-0.1 0,-0.2 0.1,-0.2 -0.1,-0.1 -0.1,-0.1 -0.2,-0.1 -0.5,-0.4 -1.2,-0.6 -1.8,-0.6 -0.9,-0.1 -1.7,-0.4 -2.4,-1.1 -0.3,-0.3 -0.7,-0.4 -1.1,-0.5 -2.6,-0.2 -5.3,-0.3 -8,-0.1 0,-0.1 0,-0.1 -0.1,-0.1 -0.2,-0.1 -0.4,-0.2 -0.7,-0.3 0,0.1 0,0.1 -0.1,0.1 0,0 -0.1,0.1 -0.1,0.1 -0.1,0 -0.1,0 -0.1,0 v -0.1 c 0,0 0.1,-0.1 0.2,-0.1 0,-0.1 0,-0.1 0.1,-0.1 0.9,-0.5 1.8,-0.8 2.9,-0.8 0.9,0 1.8,0 2.8,-0.2 2.7,-0.3 5.5,-0.8 8.2,-1.4 0.9,-0.2 1.8,-0.4 2.8,-0.5 2.3,-0.3 4.5,-1 6.6,-2.1 0.7,-0.3 1.3,-0.5 2,-0.7 1.7,-0.4 3.3,-0.9 5,-1.4 1.3,0 2.6,0 4,-0.1 0,0 0.1,0 0.2,-0.1 0,0.1 0,0.2 0,0.2 0,0.1 0,0.1 0,0.1 0,0 -0.2,0 -0.2,0.1 0,0 0,0 0,0 -0.1,0.2 -0.1,0.3 -0.1,0.5 0,0.2 -0.1,0.4 -0.1,0.6 -0.1,0.1 -0.1,0.2 -0.1,0.3 0,0.1 0,0.2 -0.1,0.3 -0.1,0 -0.1,0.1 -0.1,0.1 v 0.1 c 0,0 0,0 0,0.1 -0.1,0 -0.1,0 -0.1,0.1 0,0 0,0 0,0.1 0,0 0,0 0,0.1 0,0 0,0 -0.1,0.1 0,0 0,0 0,0 0,0.1 0,0.1 0,0.1 0,0.1 0,0.2 0,0.3 -0.1,0.1 -0.1,0.2 0,0.2 0,0.1 0,0.1 0,0.1 0.2,0.2 0.3,0.2 0.5,0.1 0.1,0 0.2,0 0.4,-0.1 0.6,-0.1 1.3,-0.3 2,-0.5 1,-0.4 2,-0.7 2.9,-1.1 0.3,-0.1 0.6,-0.2 0.9,-0.3 2.5,-0.4 5.1,-0.9 7.7,-1.3 1.3,-0.3 2.6,-0.6 4,-0.9 0.7,-0.2 1.4,-0.3 2.2,-0.4 1.7,-0.3 3.4,-0.8 5,-1.5 0.9,-0.3 1.7,-0.7 2.5,-1.2 1,-0.6 2,-1.2 3,-1.8 0.1,-0.1 0.1,-0.1 0.3,-0.1 0,-0.1 0,-0.1 0.1,-0.1 0,0 0,0 0.1,-0.1 0,0 0.1,0 0.2,0 0.2,-0.1 0.3,-0.1 0.4,-0.1 0,0 0,0 0,-0.1 0.5,-0.5 0.4,-1 -0.4,-1.3 -0.4,-0.2 -0.9,-0.4 -1.4,-0.6 -1,-0.6 -2.1,-1.1 -3.2,-1.4 -1.5,-0.5 -3,-0.7 -4.6,-0.7 v 0 c -0.6,-0.2 -1.3,-0.2 -1.9,-0.2 -0.3,0 -0.5,0 -0.8,0.1 -1.1,0.1 -2.2,0.2 -3.2,0.3 -0.6,0 -1.2,0.1 -1.8,0.1 -3.3,0.4 -6.7,0.6 -10,0.6 -0.3,0 -0.7,0 -1.1,-0.1 -1.4,-0.4 -2.9,-0.5 -4.5,-0.5 -0.6,-0.5 -1.3,-0.8 -2.1,-0.9 -0.9,-0.1 -1.6,-0.4 -2.3,-0.8 -1.5,-0.8 -3.2,-1.1 -5,-0.9 -2.2,0 -4.4,0.3 -6.5,0.9 -0.5,0.2 -1,0.3 -1.4,0.4 -4.1,0.8 -8.2,1 -12.4,0.6 0,0 -0.1,0 -0.1,0 -0.7,-0.2 -1.3,-0.3 -1.9,-0.3 -0.2,0 -0.4,0 -0.6,0 0.1,-0.1 0.3,-0.2 0.4,-0.3 0.8,-0.4 1.5,-0.8 2.2,-1.1 0.1,-0.1 0.2,-0.2 0.3,-0.2 0.5,-0.2 0.9,-0.6 1.3,-0.8 0.4,-0.3 0.8,-0.7 1,-1 0.1,0 0.1,0 0.2,0 2,0.1 4,-0.1 6,-0.4 0.8,-0.2 1.7,-0.3 2.5,-0.4 2.8,-0.4 5.5,-0.5 8.3,-0.3 0.2,0 0.3,0 0.3,0 2.7,0.2 5.2,0.3 7.9,0.5 3,0.2 5.8,-0.1 8.6,-0.7 0.4,-0.1 0.7,-0.2 1.2,-0.3 0.8,-0.1 1.3,-0.6 1.5,-1.2 -0.1,-0.1 -0.2,-0.1 -0.2,-0.1 -1.5,-0.3 -3,-0.5 -4.5,-0.8 0.7,-0.2 1.4,-0.4 2.1,-0.6 2.4,-0.6 4.7,-1.5 7,-2.5 2.6,-1.1 4.9,-2.8 6.8,-5 0,0 0,-0.1 0.1,-0.1 0.2,-0.5 0.5,-0.9 0.6,-1.4 0,0 0,0 0,-0.1 0,-0.2 -0.2,-0.4 -0.4,-0.4 -1.7,0.6 -3.3,1.2 -5,1.9 -1.2,0.3 -2.5,0.7 -3.6,1 -2.2,0.7 -4.4,1.5 -6.6,2.2 -1.8,0.6 -3.8,1 -5.8,1 -1.6,0.1 -3.2,0 -4.9,-0.2 -0.6,-0.1 -1.3,-0.2 -1.9,-0.3 1,-1.5 2,-2.8 3.2,-4.1 1.5,-1.8 3,-3.6 4.4,-5.4 0.7,-0.8 1.3,-1.6 1.9,-2.5 1.3,-2 2.8,-3.8 4.6,-5.6 1.2,-1.2 2.4,-2.4 3.5,-3.8 1.2,-1.3 2.2,-2.7 3.4,-4 0.3,-0.4 0.6,-0.7 0.9,-1 0.6,-0.5 0.9,-1.1 0.8,-1.7 0,-0.2 -0.1,-0.3 -0.2,-0.3 -1.1,-0.3 -2.2,-0.1 -3.2,0.5 -0.2,0.2 -0.4,0.3 -0.6,0.3 -1.4,0.5 -2.8,1 -4.1,1.5 -4,1.4 -8,2.5 -12.1,3.4 0.1,-1.1 0.3,-2.3 0.6,-3.4 0.4,-1.6 0.9,-3.2 1.3,-4.8 0.4,-1.1 0,-1.7 -1.1,-1.8 -1.6,0.8 -3.2,1.7 -4.8,2.8 -2,1.3 -3.9,2.6 -5.9,3.9 -1.8,1.2 -3.8,2.4 -5.8,3.4 -0.2,0.1 -0.4,0.2 -0.6,0.3 0,-1.4 0,-2.8 0,-4.3 0,-2.3 0,-4.6 0,-6.8 0,-0.3 0,-0.5 0,-0.7 0.1,-1 0.2,-1.9 0.3,-2.7 0.1,-0.4 0.1,-0.7 0.1,-1 0.2,-2.3 0.4,-4.6 0.7,-6.8 0,-0.4 0,-0.7 -0.1,-0.9 -0.4,-0.5 -0.6,-1 -0.9,-1.4 -0.1,-0.3 -0.3,-0.5 -0.4,-0.7 -0.1,-0.4 -0.1,-0.8 -0.1,-1.3 0,-2.4 0,-4.9 0.1,-7.4 0.2,-2.4 0.5,-4.8 1.1,-7.2 0.3,-0.8 0,-1.4 -0.8,-1.7 0,0 -0.1,0 -0.1,0.1 -1.2,0.8 -2.2,1.8 -3.1,2.9 -1.8,2.5 -3.8,4.7 -6,6.8 0.2,-0.4 0.3,-0.9 0.4,-1.4 0.1,-0.3 0.1,-0.5 0.2,-0.7 0.3,-1.2 0.6,-2.5 0.8,-3.8 0.5,-2.4 0.8,-4.8 1.1,-7.2 0,-0.6 0.2,-1.2 0.3,-1.8 0.2,-0.9 -0.1,-1.5 -0.8,-1.7 -0.6,0.1 -1.1,0.4 -1.4,1 -0.6,0.9 -1.3,1.8 -2.1,2.5 -1.1,1.2 -2.1,2.4 -3.1,3.6 -0.4,0.6 -0.9,1.2 -1.4,1.7 -1.4,1.4 -2.7,2.7 -4.1,4 -0.2,-0.2 -0.6,-0.2 -1.1,0.1 0,-0.2 0,-0.3 0,-0.4 0.2,-0.6 0.1,-1.3 -0.2,-1.9 -0.1,-0.3 -0.3,-0.5 -0.6,-0.6 -0.5,-0.2 -1,-0.2 -1.6,-0.2 -0.4,-0.7 -1,-1.3 -1.9,-1.6 -0.5,-0.2 -1.1,-0.5 -1.7,-0.7 -2.2,-1 -4.5,-1.9 -6.8,-2.7 -0.4,-0.2 -0.7,-0.2 -1,-0.3 -1.1,-0.2 -2.2,-0.4 -3.4,-0.5 -0.9,-0.1 -1.8,-0.3 -2.6,-0.6 -2.4,-0.9 -4.8,-1.2 -7.3,-1.1 -0.4,0.1 -1,0.2 -1.5,0.2 -1,0 -1.9,0.2 -2.8,0.4 -1.1,0.4 -2.2,0.8 -3.2,1.4 -1.5,0.8 -3,1.7 -4.6,2.4 -2,1 -3.8,2.2 -5.4,3.8 -1.1,0.9 -2,2 -2.9,3.1 -0.1,-0.1 -0.1,-0.2 -0.1,-0.2 -0.4,-0.5 -0.8,-1 -1.2,-1.4 -1.1,-0.8 -2.3,-1.6 -3.6,-2.1 -1.9,-0.9 -3.9,-1.3 -5.9,-1.2 -0.2,-0.8 -0.4,-1.7 -0.7,-2.5 -0.4,-1 -0.8,-2 -1.2,-3.1 -0.7,-1.6 -1.3,-3.4 -1.7,-5.1 -0.3,-1 -0.8,-1.6 -1.7,-1.8 z m -30,45.8 c -0.2,-0.3 -0.3,-0.6 -0.3,-1 -0.6,-2.2 -0.3,-4.4 0.8,-6.5 0.9,-1.5 2,-2.8 3.5,-3.7 3.2,-2.1 6.6,-3.6 10.3,-4.7 3,-0.9 6,-1.3 9.1,-1.1 1.4,0.9 2.8,1.9 4.2,2.8 0.8,0.6 1.5,1.3 2.1,2.1 -0.6,0.2 -1.1,0.4 -1.7,0.6 -1,0.4 -2,0.8 -3.1,1.3 -2.2,1 -4.5,1.9 -6.7,2.8 -1.2,0.4 -2.4,0.8 -3.5,1.2 -0.5,0.1 -0.9,0.2 -1.3,0.4 -2.5,1 -5,1.9 -7.6,2.7 -2.1,0.8 -4.1,1.8 -5.8,3.1 z m 1.1,2 c -0.2,-0.3 -0.3,-0.5 -0.5,-0.8 -0.1,0 -0.1,0 -0.1,-0.1 0,-0.1 -0.1,-0.2 -0.2,-0.3 2.1,-0.9 4.2,-1.6 6.4,-2.4 0.9,-0.2 1.8,-0.5 2.6,-0.9 0,1.1 0.1,2.2 0.4,3.2 0.3,1.6 0.8,3 1.4,4.5 0,0 0,0.1 0.1,0.2 h -0.1 c -0.1,0.1 -0.3,0.2 -0.4,0.3 -0.8,0.3 -1.6,0.5 -2.5,0.7 -2.1,0.3 -3.9,-0.2 -5.4,-1.8 -0.6,-0.6 -1.2,-1.4 -1.6,-2.2 0,-0.2 -0.1,-0.3 -0.1,-0.4 z m 18.4,-2.2 c -0.9,-0.4 -1.7,-0.8 -2.5,-1.3 -1.6,-0.8 -3.2,-1.5 -4.9,-2 1.5,-0.6 3.1,-1 4.6,-1.4 2.4,-0.7 4.7,-1.5 6.9,-2.6 2.2,-1.1 4.5,-2.1 6.8,-2.9 0,-0.1 0.1,-0.1 0.1,-0.1 0.2,0.7 0.4,1.3 0.4,2 0.1,0.5 0.1,1 0,1.5 -0.1,1.1 -0.4,2.2 -0.8,3.2 -0.3,0.6 -0.7,1.2 -1.3,1.7 -1.4,1.4 -3.1,2.4 -5,3.1 -0.5,0.1 -0.6,0.4 -0.6,0.8 0,0.1 0,0.1 0.1,0.2 -1.3,-0.8 -2.6,-1.5 -3.8,-2.2 z m 5.2,38.7 c 0.1,0 0.1,0 0.1,0 1.1,0.4 2.1,0.5 3.3,0.4 1.5,-0.1 3.1,-0.1 4.7,0 1.6,0.1 3.1,-0.1 4.6,-0.6 1.6,0 3.2,0 4.8,-0.1 0,0 0.1,0 0.2,0 0.6,-0.1 1.2,-0.2 1.7,-0.3 2.5,-0.6 5,-0.8 7.6,-0.6 0,0 0.1,0 0.2,0 1.2,0.3 2.5,0.5 3.8,0.4 2.6,-0.2 5.2,-0.3 7.8,-0.2 0.2,0.1 0.3,0.3 0.5,0.3 0.5,0.3 1.1,0.6 1.7,1 0.5,0.2 0.9,0.4 1.4,0.6 0.5,0.2 1,0.4 1.4,0.5 0.1,0 0.1,0 0.1,0 0,0 0,0 0.1,0 0.1,-0.1 0.2,-0.1 0.2,-0.2 0.1,-0.1 0.1,-0.2 0.1,-0.4 -0.3,-0.8 -0.7,-1.5 -1.3,-2.2 -0.4,-0.5 -0.8,-0.8 -1.3,-1.2 -0.8,-0.6 -1.6,-1.2 -2.5,-1.6 0.3,0 0.6,0 0.9,0 1.3,0 2.6,-0.1 3.9,-0.3 3.3,-0.3 6.5,-0.2 9.7,0.3 0.3,0.1 0.6,0.2 0.9,0.2 0.2,0 0.4,0 0.5,0.1 0.6,0.2 1.2,0.4 1.8,0.5 1.9,0.4 3.9,0.8 5.8,1.3 0.5,0.1 0.9,0.2 1.4,0.4 1.6,0.7 3.3,1.1 5.1,1.2 1,0.1 2,0 3,-0.2 0.9,-0.2 1.8,-0.3 2.7,-0.4 -0.5,0.2 -1,0.4 -1.6,0.6 -0.2,0.1 -0.4,0.2 -0.6,0.3 -0.5,0 -1,0.1 -1.5,0.3 -0.5,0.2 -0.9,0.2 -1.4,0.3 -1.2,0.3 -2.5,0.5 -3.8,0.7 -0.9,0.2 -1.8,0.2 -2.8,0.4 -1.5,0.2 -3.1,0.4 -4.6,0.8 -0.1,0 -0.2,0 -0.3,0 -2.8,0.5 -5.6,0.9 -8.4,1.1 -1.2,0 -2.3,0.1 -3.4,0.2 -3.8,0.1 -7.7,0.2 -11.5,0.1 -0.1,0 -0.2,0 -0.2,0 -0.7,0.1 -1.3,0.2 -2,0.4 -1.6,0.3 -3.2,0.9 -4.7,1.7 -0.1,-0.1 -0.2,-0.1 -0.4,-0.2 -0.9,-0.2 -1.9,-0.3 -2.9,-0.1 -0.2,-0.2 -0.4,-0.3 -0.6,-0.3 h -0.1 c 0,-0.1 -0.1,-0.1 -0.2,-0.1 -0.2,-0.2 -0.3,-0.3 -0.5,-0.3 -0.8,-0.2 -1.4,-0.4 -2.1,-0.7 v -0.1 c -0.2,-0.1 -0.4,-0.1 -0.6,-0.2 -1.8,-0.3 -3.6,-0.4 -5.5,-0.2 -0.1,0 -0.1,0 -0.1,0 -1.4,-0.3 -2.9,-0.5 -4.4,-0.5 -0.2,0 -0.5,0.1 -0.8,0.2 -0.4,0.1 -0.8,0.2 -1.2,0.2 -0.9,0.2 -1.8,0.3 -2.7,0.3 -1.8,0.1 -3.5,0.2 -5.3,0.3 -0.9,0.1 -1.8,0.2 -2.7,0.3 -2.5,0.2 -4.9,0.5 -7.3,0.8 -0.1,0 -0.2,0 -0.3,0 -1.2,0 -2.5,0.1 -3.8,0.2 -0.9,0.1 -1.8,0.2 -2.7,0.4 -0.5,0 -1,0.1 -1.5,0.2 -1.1,0.3 -2.3,0.3 -3.4,0.1 -2.4,-0.3 -4.8,-0.5 -7.2,-0.7 -1,-0.1 -1.9,-0.2 -2.8,-0.4 -2.2,-0.3 -4.4,-0.4 -6.7,-0.2 -0.1,0 -0.2,0 -0.3,0 0.4,-0.2 0.7,-0.3 1.1,-0.4 1.1,-0.3 2.1,-0.5 3.2,-0.8 0.1,-0.1 0.2,-0.1 0.3,-0.1 0.8,-0.3 1.6,-0.4 2.5,-0.5 1,-0.1 2,-0.2 2.9,-0.4 0.9,-0.2 1.7,-0.3 2.6,-0.6 2,-0.5 4,-0.7 6.1,-0.7 1.1,0 2.2,-0.2 3.3,-0.4 1.7,-0.4 3.4,-0.6 5.1,-0.5 0.2,0 0.4,0 0.6,0 3.5,0 6.9,-0.1 10.3,-0.4 z m 6.2,6.9 c -0.2,0 -0.4,-0.1 -0.5,-0.1 -0.2,-0.1 -0.4,-0.2 -0.6,-0.2 2.4,-0.3 4.8,-0.3 7.2,-0.1 0.7,0.1 1.3,0 1.9,-0.1 2.7,0 5.4,0.5 7.8,1.7 0.2,0.1 0.4,0.2 0.6,0.3 0.7,0.3 1.3,0.6 1.8,1 0.2,0.1 0.3,0.2 0.5,0.4 0.1,0.1 0.2,0.2 0.4,0.3 -0.1,0.1 -0.1,0.1 -0.1,0.1 0,0.1 0,0.1 -0.1,0.1 0,0.1 -0.1,0.2 -0.2,0.2 -0.6,0.1 -1.3,0 -2,-0.1 -1.6,-0.2 -3.1,-0.3 -4.7,-0.3 -0.4,0 -0.8,-0.1 -1.1,-0.3 -1,-0.8 -2.1,-1.2 -3.3,-1.5 -2.5,-0.5 -5,-0.9 -7.6,-1.4 z m -4,8.6 -0.1,-0.1 h 0.1 z m -28.6,5.9 c 0.1,-0.1 0.1,-0.1 0.2,-0.1 0.1,-0.1 0.2,-0.1 0.3,-0.1 0.8,-0.1 1.7,-0.2 2.5,-0.3 2,-0.3 4,-0.7 6,-1.2 1.7,-0.5 3.5,-0.7 5.3,-0.9 -0.1,0.4 -0.4,0.6 -0.8,0.8 -1.9,0.6 -3.9,0.9 -5.9,0.9 -0.5,0 -1,0 -1.5,0.1 -2,0.4 -4,0.6 -6.1,0.8 z m -4.7,0.9 c -0.1,0 -0.2,0.1 -0.3,0.2 -1.3,0.4 -2.6,0.9 -3.9,1.3 -2.7,0.9 -5.4,1.1 -7.9,0.5 1.5,-0.2 3.1,-0.5 4.7,-0.8 2.4,-0.4 4.8,-0.9 7.2,-1.4 0.1,0 0.3,0 0.4,0.1 0,0 -0.1,0 -0.2,0.1 z m 48.6,2.2 c 1,-0.1 1.9,-0.1 2.9,0 0.1,0 0.2,0 0.3,0 2.9,0.1 5.6,0.6 8.2,1.7 1.3,0.5 2.6,0.9 3.9,1.2 -0.8,0.1 -1.6,0.2 -2.5,0.4 0,0 -0.1,0 -0.2,0 -1.3,-0.2 -2.7,-0.2 -4,-0.3 -2.5,0 -4.9,-0.1 -7.4,-0.3 -3.9,-0.4 -7.9,-0.2 -11.8,0.5 -2.3,0.3 -4.4,0.9 -6.6,1.7 -1.3,0.4 -2.7,0.8 -4,1.2 -0.1,-0.1 -0.2,-0.1 -0.2,-0.1 0,0 0.1,-0.1 0.2,-0.1 0.2,-0.2 0.4,-0.3 0.5,-0.5 0.1,0 0.2,-0.1 0.3,-0.1 0.1,-0.1 0.1,-0.1 0.2,-0.2 0,0 0.1,0 0.2,0 0.2,-0.2 0.5,-0.4 0.8,-0.6 0.1,-0.1 0.3,-0.2 0.4,-0.4 0,0 0.1,0 0.2,0 0.2,-0.2 0.5,-0.3 0.9,-0.5 0.2,-0.1 0.4,-0.2 0.7,-0.3 0.3,-0.2 0.7,-0.4 1.1,-0.6 0.4,0 0.9,-0.1 1.4,-0.3 2.3,-0.6 4.8,-1.1 7.2,-1.5 2.5,-0.3 4.9,-0.7 7.3,-0.9 z m 25,-88.9 c 2.1,-1.4 4.4,-2.2 6.9,-2.5 2,0 3.9,0.6 5.4,1.9 0,0 0,0 0.1,0.1 0,0 0,0.1 0,0.1 0,0.1 0,0.1 0,0.1 0,0.1 0,0.2 0,0.2 -1,1.6 -2,3.2 -3.2,4.7 -0.8,1 -1.5,2 -2.3,3 -1.1,1.7 -2.3,3.4 -3.5,5.2 -0.7,1.1 -1.6,2.3 -2.5,3.3 -0.6,0.7 -1.2,1.4 -1.8,2.1 -0.7,0.9 -1.3,1.6 -1.9,2.3 -0.6,-1 -1.3,-1.9 -2.1,-2.8 -1.2,-1.5 -1.9,-3.1 -2,-4.9 0,-0.3 0,-0.6 -0.1,-0.9 -0.1,-1.2 0,-2.4 0.3,-3.6 0.2,-0.6 0.5,-1.2 0.8,-1.8 0.7,-1.4 1.6,-2.7 2.8,-3.9 0.9,-0.9 2,-1.8 3.1,-2.6 z m 15.3,1.4 c 0.1,0.2 0.3,0.4 0.4,0.7 0.9,1.6 1.3,3.3 1.2,5.2 -0.1,2 -0.5,3.9 -1.2,5.7 -1,2.3 -2.4,4.3 -4.4,6 -0.4,0.3 -0.9,0.7 -1.3,1 -1.3,1 -2.7,1.5 -4.3,1.7 -0.3,0.1 -0.6,0.1 -0.8,0.2 -1.6,0.2 -3.2,0.3 -4.8,0 -0.8,-0.1 -1.5,-0.3 -2,-0.6 1.1,-1.4 2.3,-2.7 3.4,-4 1.1,-1.1 2.1,-2.2 3,-3.5 1.4,-1.9 2.9,-3.8 4.3,-5.8 0.5,-0.6 0.9,-1.2 1.4,-1.8 1.5,-1.9 2.9,-3.9 4.1,-6.1 0.3,0.4 0.6,0.8 1,1.3 z m 19.5,54.6 c 1,-0.1 2.1,-0.1 3.2,0 1.1,0.2 2.3,0.3 3.4,0.6 1.9,0.4 3.8,0.6 5.5,0.6 -0.7,0.3 -1.4,0.7 -2.1,1.1 -1.2,0.5 -2.3,1.1 -3.3,1.7 -0.3,0 -0.5,-0.1 -0.7,-0.2 -1.4,-0.5 -2.8,-0.6 -4.4,-0.4 -3.2,0.4 -6.3,0.3 -9.4,-0.5 -0.3,-0.1 -0.6,-0.1 -0.9,-0.2 -3.5,-0.2 -6.8,-0.8 -10.1,-1.7 -1.8,-0.5 -3.7,-0.8 -5.5,-1 0.4,0 0.8,0 1.2,0 1.2,-0.2 2.4,-0.3 3.6,-0.6 1.6,0 3.2,0.1 4.8,0.3 1.8,0.2 3.6,0.2 5.3,-0.1 1.6,-0.3 3.2,-0.2 4.7,0.1 0.5,0 0.9,0.1 1.3,0.2 1.2,0.1 2.3,0.2 3.4,0.1 z m 22.5,2.8 c 0.4,0 0.8,0.1 1.3,0.1 0,0.1 0.1,0.1 0.2,0.2 -0.7,0 -1.4,0 -2,0 -1.1,-0.1 -2.2,-0.1 -3.2,-0.2 0,0 -0.1,0 -0.2,0 0.1,0 0.2,0 0.2,0 h 0.1 c 0.3,-0.1 0.7,-0.1 1.1,-0.2 0.9,0 1.6,0 2.5,0.1 z m -60.7,13.6 c -0.8,-0.2 -1.5,-0.5 -2.2,-0.7 0.6,0 1.3,0 2,0 1.9,-0.2 3.9,-0.3 5.8,-0.4 0.7,0 1.3,0 1.9,0 -1.1,0.5 -2.1,1.1 -3,1.9 -0.3,0.2 -0.5,0.3 -0.9,0.2 -1.2,-0.2 -2.4,-0.6 -3.6,-1 z m 25.5,18.4 c 0.1,0 0.1,0 0.2,0 v 0 h -0.1 z m 2.1,5.5 c -0.2,-0.1 -0.4,-0.1 -0.6,-0.2 -0.7,0 -1.4,-0.1 -1.9,-0.1 0.1,-0.2 0.3,-0.3 0.4,-0.5 0.2,-0.1 0.3,-0.3 0.3,-0.5 0.1,0 0.1,0 0.1,0 0,-0.1 0,-0.2 0.1,-0.2 0.1,-0.1 0.3,-0.1 0.5,-0.1 1.2,-0.3 2.4,-0.4 3.6,-0.5 1.3,0.1 2.5,0.1 3.7,0.2 2.7,0.3 5.4,0.7 8.1,1.2 2.3,0.5 4.6,1 6.9,1.3 -2.7,0.1 -5.3,0.3 -7.9,0.8 -2.3,0.5 -4.6,0.6 -6.9,0.5 -0.5,-0.1 -1,-0.1 -1.4,-0.3 -1.7,-0.4 -3.4,-0.9 -5,-1.6 z m 48.4,-23.4 c 0.1,-0.1 0.2,-0.1 0.3,-0.1 1.9,0 3.9,-0.1 5.8,-0.2 1.5,-0.1 3,-0.1 4.4,-0.2 0.3,0 0.7,0.1 1.1,0.2 0.2,0 0.6,0.1 0.9,0.1 -1.1,0.2 -2.2,0.3 -3.2,0.6 -2.3,0.5 -4.5,1.2 -6.7,2 -0.2,0.1 -0.3,0.2 -0.4,0.2 -0.4,0.3 -0.8,0.3 -1.1,0.2 -0.1,-0.5 -0.2,-1 -0.3,-1.6 0,-0.1 0,-0.1 -0.1,-0.2 -0.5,-0.3 -1.1,-0.5 -1.8,-0.7 -0.1,0 -0.1,0 -0.1,0 -0.3,-0.1 -0.6,-0.1 -1,-0.2 0.8,-0.1 1.5,-0.1 2.2,-0.1 z m -3.3,5.5 c -0.1,0 -0.1,-0.1 -0.1,-0.1 0.1,0 0.2,0 0.2,0.1 h 0.1 c 0.1,0 0.1,0.1 0.2,0.1 -0.2,0 -0.3,0 -0.4,0 z"
         id="path11" />
      <path
         style="fill:#ffffff;stroke:none"
         d="m 397.2,671.29 c 0,0.4 0.1,0.7 0.3,1 1.7,-1.3 3.7,-2.3 5.8,-3.1 2.6,-0.8 5.1,-1.7 7.6,-2.7 0.4,-0.2 0.8,-0.3 1.3,-0.4 1.1,-0.4 2.3,-0.8 3.5,-1.2 2.2,-0.9 4.5,-1.8 6.7,-2.8 1.1,-0.5 2.1,-0.9 3.1,-1.3 0.6,-0.2 1.1,-0.4 1.7,-0.6 -0.6,-0.8 -1.3,-1.5 -2.1,-2.1 -1.4,-0.9 -2.8,-1.9 -4.2,-2.8 -3.1,-0.2 -6.1,0.2 -9.1,1.1 -3.7,1.1 -7.1,2.6 -10.3,4.7 -1.5,0.9 -2.6,2.2 -3.5,3.7 -1.1,2.1 -1.4,4.3 -0.8,6.5 z"
         id="path12" />
      <path
         style="fill:#ffffff;stroke:none"
         d="m 398.1,673.49 c 0.2,0.3 0.3,0.5 0.5,0.8 0,0.1 0.1,0.2 0.1,0.4 0.4,0.8 1,1.6 1.6,2.2 1.5,1.6 3.3,2.1 5.4,1.8 0.9,-0.2 1.7,-0.4 2.5,-0.7 0.1,-0.1 0.3,-0.2 0.4,-0.3 h 0.1 c -0.1,-0.1 -0.1,-0.2 -0.1,-0.2 -0.6,-1.5 -1.1,-2.9 -1.4,-4.5 -0.3,-1 -0.4,-2.1 -0.4,-3.2 -0.8,0.4 -1.7,0.7 -2.6,0.9 -2.2,0.8 -4.3,1.5 -6.4,2.4 0.1,0.1 0.2,0.2 0.2,0.3 0,0.1 0,0.1 0.1,0.1 z"
         id="path13" />
      <path
         style="fill:#ffffff;stroke:none"
         d="m 414.5,670.79 c 0.8,0.5 1.6,0.9 2.5,1.3 1.2,0.7 2.5,1.4 3.8,2.2 -0.1,-0.1 -0.1,-0.1 -0.1,-0.2 0,-0.4 0.1,-0.7 0.6,-0.8 1.9,-0.7 3.6,-1.7 5,-3.1 0.6,-0.5 1,-1.1 1.3,-1.7 0.4,-1 0.7,-2.1 0.8,-3.2 0.1,-0.5 0.1,-1 0,-1.5 0,-0.7 -0.2,-1.3 -0.4,-2 0,0 -0.1,0 -0.1,0.1 -2.3,0.8 -4.6,1.8 -6.8,2.9 -2.2,1.1 -4.5,1.9 -6.9,2.6 -1.5,0.4 -3.1,0.8 -4.6,1.4 1.7,0.5 3.3,1.2 4.9,2 z"
         id="path14" />
      <path
         style="fill:#78977d;stroke:none"
         d="m 480.5,713.09 c -0.8,0.1 -1.7,0.2 -2.6,0.3 -2.3,0.2 -4.7,0.5 -7.1,0.7 -0.7,0.1 -1.4,0.2 -2.1,0.3 1.1,-0.1 2.2,-0.2 3.4,-0.2 2.8,-0.2 5.6,-0.6 8.4,-1.1 z"
         id="path15" />
      <path
         style="fill:#ffffff;stroke:none"
         d="m 471.6,643.89 c -2.5,0.3 -4.8,1.1 -6.9,2.5 -1.1,0.8 -2.2,1.7 -3.1,2.6 -1.2,1.2 -2.1,2.5 -2.8,3.9 -0.3,0.6 -0.6,1.2 -0.8,1.8 -0.3,1.2 -0.4,2.4 -0.3,3.6 0.1,0.3 0.1,0.6 0.1,0.9 0.1,1.8 0.8,3.4 2,4.9 0.8,0.9 1.5,1.8 2.1,2.8 0.6,-0.7 1.2,-1.4 1.9,-2.3 0.6,-0.7 1.2,-1.4 1.8,-2.1 0.9,-1 1.8,-2.2 2.5,-3.3 1.2,-1.8 2.4,-3.5 3.5,-5.2 0.8,-1 1.5,-2 2.3,-3 1.2,-1.5 2.2,-3.1 3.2,-4.7 0,0 0,-0.1 0,-0.2 0,0 0,0 0,-0.1 0,0 0,-0.1 0,-0.1 -0.1,-0.1 -0.1,-0.1 -0.1,-0.1 -1.5,-1.3 -3.4,-1.9 -5.4,-1.9 z"
         id="path16" />
      <path
         style="fill:#ffffff;stroke:none"
         d="m 480.4,648.49 c -0.1,-0.3 -0.3,-0.5 -0.4,-0.7 -0.4,-0.5 -0.7,-0.9 -1,-1.3 -1.2,2.2 -2.6,4.2 -4.1,6.1 -0.5,0.6 -0.9,1.2 -1.4,1.8 -1.4,2 -2.9,3.9 -4.3,5.8 -0.9,1.3 -1.9,2.4 -3,3.5 -1.1,1.3 -2.3,2.6 -3.4,4 0.5,0.3 1.2,0.5 2,0.6 1.6,0.3 3.2,0.2 4.8,0 0.2,-0.1 0.5,-0.1 0.8,-0.2 1.6,-0.2 3,-0.7 4.3,-1.7 0.4,-0.3 0.9,-0.7 1.3,-1 2,-1.7 3.4,-3.7 4.4,-6 0.7,-1.8 1.1,-3.7 1.2,-5.7 0.1,-1.9 -0.3,-3.6 -1.2,-5.2 z"
         id="path17" />
      <path
         style="fill:#5f5f61;stroke:none"
         d="m 349.7,723.29 c -0.7,0 -1.3,0.1 -1.9,0.2 -0.9,0.1 -1.7,0.3 -2.4,0.7 -1,0.4 -1.9,0.7 -3,0.9 -1,0.3 -2,0.5 -3,0.7 -1.8,0.4 -3.6,0.8 -5.5,1.2 -2.6,0.5 -5.2,1.1 -7.8,1.5 0,0.1 0,0.1 0,0.1 0,0.1 0,0.1 0.1,0.1 l -0.1,0.1 c 0,0 0,0 0,0 -0.2,-0.1 -0.4,-0.1 -0.7,-0.1 v 0 c -0.1,0 -0.1,0 -0.1,0 h -0.1 c 0,0 0,0 0.1,0 0.1,0.1 0.2,0.2 0.3,0.3 0.2,0.2 0.5,0.4 0.9,0.4 l 0.1,0.1 c 1.2,0.3 2.4,0.5 3.7,0.6 0.1,0 0.3,0 0.4,0 2.3,0.1 4.5,-0.1 6.8,-0.7 1.9,-0.4 3.9,-0.7 5.9,-0.9 2.5,-0.1 5,-0.2 7.5,-0.1 1.8,0 3.6,0.1 5.4,0.1 1.1,0 2.2,0.1 3.3,0.2 2.4,0.2 4.8,0.4 7.3,0.5 1.8,0.1 3.8,0.1 5.8,0 0.5,-0.1 0.9,-0.1 1.4,-0.2 0.4,0 0.6,-0.3 0.7,-0.6 0,-0.3 0,-0.4 -0.3,-0.5 -0.8,-0.2 -1.6,-0.3 -2.5,-0.3 -0.6,0 -1.2,0 -1.8,-0.1 -2.1,-0.3 -4.2,-0.6 -6.4,-0.9 -2.4,-0.3 -4.7,-0.8 -7.1,-1.4 -0.6,-0.2 -1.2,-0.4 -1.8,-0.6 -1.7,-0.7 -3.5,-1.1 -5.2,-1.3 z"
         id="path18" />
    </g>
  </g>
</svg>
