<?xml version="1.0" encoding="UTF-8" standalone="no"?>
<!-- Created with sK1/UniConvertor (http://sk1project.org/) -->

<svg
   width="78.599998pt"
   height="133.10001pt"
   viewBox="0 0 78.599998 133.1"
   fill-rule="evenodd"
   version="1.1"
   id="svg40"
   sodipodi:docname="parapoly.svg"
   inkscape:version="1.3 (0e150ed6c4, 2023-07-21)"
   xmlns:inkscape="http://www.inkscape.org/namespaces/inkscape"
   xmlns:sodipodi="http://sodipodi.sourceforge.net/DTD/sodipodi-0.dtd"
   xmlns="http://www.w3.org/2000/svg"
   xmlns:svg="http://www.w3.org/2000/svg">
  <defs
     id="defs40" />
  <sodipodi:namedview
     id="namedview40"
     pagecolor="#ffffff"
     bordercolor="#000000"
     borderopacity="0.25"
     inkscape:showpageshadow="2"
     inkscape:pageopacity="0.0"
     inkscape:pagecheckerboard="0"
     inkscape:deskcolor="#d1d1d1"
     inkscape:document-units="pt"
     inkscape:zoom="0.74386201"
     inkscape:cx="366.33138"
     inkscape:cy="-323.31265"
     inkscape:window-width="1920"
     inkscape:window-height="1027"
     inkscape:window-x="1912"
     inkscape:window-y="-8"
     inkscape:window-maximized="1"
     inkscape:current-layer="svg40" />
  <g
     id="g40"
     transform="translate(-23.1,-663.69)">
    <g
       id="g39">
      <path
         style="fill:#5f5f61;stroke:none"
         d="m 23.4,679.79 c -0.1,0 -0.2,0.1 -0.3,0.2 0.1,0.2 0.3,0.4 0.7,0.6 0.2,0.1 0.5,0.3 0.7,0.6 0.2,0.3 0.5,0.7 0.8,1.1 0.1,0.1 0.2,0.1 0.2,0.1 l 0.1,0.1 c 0,0 0.1,0.1 0.1,0.2 0.4,0.4 0.8,0.8 1.1,1.2 0.5,0.5 0.9,0.9 1.3,1.4 0.6,0.6 1.3,1.2 2,1.7 0,0 0,0.1 0,0.2 0.1,0.1 0.1,0.2 0.1,0.4 0.1,0.1 0.2,0.2 0.2,0.3 0,0.1 0,0.2 0.1,0.3 0.4,0.9 1.1,1.5 2,1.9 1.1,0.7 2.4,1.2 3.8,1.5 0.2,0 0.3,0 0.6,0.1 0.1,0.1 0.2,0.1 0.2,0.1 0,0.3 0,0.6 0,0.9 0.2,1.1 0.7,1.9 1.8,2.5 0.5,0.2 1,0.4 1.5,0.5 0,0.2 0.1,0.4 0.2,0.6 -0.1,0.3 -0.1,0.7 -0.1,1 0,0.1 0,0.1 0,0.2 -0.1,0.6 -0.2,1.3 -0.2,1.9 -0.7,-0.1 -1.3,-0.2 -2,-0.1 v 0.1 c -0.1,0 -0.2,0 -0.2,0 -0.1,0 -0.1,0.2 -0.1,0.2 -0.1,0 -0.1,0 -0.1,0.1 0,0 0,0 0,0.1 0.1,0 0.1,0.1 0.1,0.2 0.9,0.3 1.8,0.4 2.8,0.3 0.2,0 0.3,0 0.4,0 0.1,0 0.1,0 0.2,0 1.1,0.3 2.3,0.6 3.5,0.7 0,-0.1 0,-0.1 0,-0.1 0.1,-0.1 0.1,-0.1 0.1,-0.2 0,0 0,0 0,-0.1 0,0 0,0 0,0 -0.8,-0.5 -1.6,-0.7 -2.4,-0.8 0.5,-0.2 1.1,-0.6 1.5,-1.1 0,0 0,0 0,-0.1 0,-0.3 -0.2,-0.5 -0.6,-0.4 -0.8,0.3 -1.6,0.7 -2.4,1.2 0.1,-0.6 0.1,-1.1 0,-1.6 0.1,0 0.1,0 0.1,-0.1 0.2,-0.6 0.2,-1.3 -0.1,-1.9 0.6,0 1.2,-0.1 1.7,-0.2 0.4,-0.2 0.8,-0.3 1.2,-0.5 0.3,-0.1 0.6,-0.3 0.9,-0.4 0.8,0.4 1.7,0.7 2.6,0.9 0.2,0 0.4,0 0.7,0 0,0.9 0.1,1.8 0.1,2.7 0,0.3 0.1,0.4 0.2,0.6 -0.4,0 -0.7,0 -1.1,0 -0.4,-0.1 -0.8,0 -1.2,0.2 0,0 0,0 -0.1,0 0,0 0,0 0,0.1 0,0 0,0.1 0,0.2 0,0 0,0 0,0.1 1,0.3 2.1,0.4 3.2,0.3 0.5,0.4 1.2,0.8 1.9,1 0.2,0.1 0.3,0.2 0.4,0.3 0.7,0.4 1.1,0.3 1.4,-0.2 -0.1,0 -0.1,0 -0.1,0 -0.8,-0.5 -1.6,-0.8 -2.4,-1.3 0.6,-0.1 1.2,-0.2 1.8,-0.4 h 0.1 c 0.1,-0.1 0.2,-0.3 0.2,-0.5 0,-0.1 0,-0.1 -0.1,-0.1 0,-0.1 -0.2,-0.2 -0.3,-0.2 -0.2,0.1 -0.3,0.2 -0.5,0.2 -0.3,0 -0.5,0 -0.7,0 -0.6,0 -1.1,0.1 -1.5,0.4 0,-0.3 -0.1,-0.6 -0.3,-0.9 0,-0.2 0,-0.3 0,-0.4 0,-0.4 0,-0.8 0,-1.2 0.1,-0.4 0.1,-0.7 -0.1,-0.9 1.3,-0.3 2.3,-1 3.1,-2.3 0.3,-0.4 0.6,-0.8 0.8,-1.2 1,-1 1.6,-2.2 1.8,-3.7 0.3,-0.6 0.4,-1.1 0.4,-1.7 0.2,-2.4 0,-4.7 -0.4,-7 -0.3,-1.9 -0.5,-3.8 -0.7,-5.6 0,-0.1 0,-0.1 0,-0.2 0,-0.4 0,-0.8 0.1,-1.1 0,0 0.1,0.1 0.2,0.1 0.3,-0.1 0.6,-0.1 0.8,-0.2 1.3,-0.6 2.5,-1.2 3.7,-1.8 v -0.1 c 0,0 0,0 0,-0.1 0,0 0,0 0.1,-0.1 -0.1,0 -0.1,0 -0.1,-0.1 -1.4,-0.6 -2.7,-1.1 -4.2,-1.5 0,-0.1 0,-0.1 0.1,-0.1 -0.1,-0.1 -0.1,-0.1 -0.1,-0.1 -0.1,-0.2 -0.3,-0.2 -0.4,-0.2 -0.1,-0.1 -0.1,-0.3 -0.1,-0.5 0,-0.5 -0.1,-1 -0.2,-1.5 -0.1,-0.2 -0.3,-0.4 -0.3,-0.7 -0.1,-0.2 -0.1,-0.4 -0.3,-0.6 -0.6,-0.9 -1.6,-1.4 -2.9,-1.4 -0.1,0 -0.3,0 -0.5,0 h -0.1 c -0.4,-0.1 -0.8,-0.1 -1.2,-0.2 -0.5,0.2 -1,0.3 -1.5,0.6 -0.1,0 -0.2,0.1 -0.3,0.2 -0.8,0.6 -1.4,1.4 -1.8,2.3 -0.1,0.3 -0.2,0.7 -0.3,1 -0.1,0.3 -0.2,0.6 -0.4,0.9 0,0 0,0 0,0.1 0.1,0.1 0,0.2 0,0.4 -0.1,0 -0.1,0.1 -0.1,0.2 -0.2,0.5 -0.3,1.1 -0.2,1.6 0,0.8 0.1,1.6 0.2,2.3 -0.1,0.1 -0.1,0.2 -0.2,0.3 0,0 0,0.1 0,0.1 0,0.4 0,0.7 -0.1,1 0,0 0,0 0,0.1 0,0.3 -0.1,0.7 -0.3,1 0,0.1 0,0.1 0,0.2 0,0.2 0,0.4 -0.1,0.6 0,0 0,0 0,0.1 -0.1,0 -0.1,0 -0.1,0 0,0.1 0,0.2 0,0.2 -0.2,0.3 -0.2,0.5 -0.1,0.8 -0.4,0 -0.8,-0.1 -1.2,-0.1 -1.3,0.1 -2.6,0.3 -4,0.5 -0.4,0 -0.8,0.1 -1.3,0.2 -2.1,0.2 -4.1,0.6 -6.2,1 0,0.1 0,0.1 -0.1,0.1 -0.1,0.2 -0.1,0.4 0,0.6 0.1,0 0.1,0 0.1,0.1 0.1,0 0.2,0 0.2,0 0,0.1 0,0.1 0.1,0.1 0.1,0.2 0.2,0.4 0.4,0.6 -1.3,-0.2 -2.5,-0.4 -3.8,-0.4 -1.4,-0.1 -2.7,-0.3 -4.1,-0.6 0,0.1 0,0.1 -0.1,0 z m 23.3,-10.5 c 0.2,-0.6 0.6,-1 1.1,-1.3 0.1,-0.1 0.2,-0.2 0.4,-0.2 0.2,-0.1 0.5,-0.2 0.7,-0.3 1.5,-0.2 2.4,0.4 2.6,1.6 0.2,1 0,1.7 -0.6,2.1 -0.2,0.2 -0.5,0.4 -0.8,0.5 -1.3,0.5 -2.3,0.2 -3,-0.6 -0.5,-0.5 -0.6,-1.1 -0.4,-1.8 z m 7.6,0.3 c 0,0 0,0 0,0 0,-0.1 0,-0.2 0,-0.2 0.7,0.7 1.7,1.2 2.9,1.3 v 0.1 c -1.1,0.3 -2,0.7 -2.9,1.3 0.1,-0.9 0.1,-1.7 0,-2.5 z"
         id="path1" />
      <path
         style="fill:#ffffff;stroke:none"
         d="m 47.8,667.99 c -0.5,0.3 -0.9,0.7 -1.1,1.3 -0.2,0.7 -0.1,1.3 0.4,1.8 0.7,0.8 1.7,1.1 3,0.6 0.3,-0.1 0.6,-0.3 0.8,-0.5 0.6,-0.4 0.8,-1.1 0.6,-2.1 -0.2,-1.2 -1.1,-1.8 -2.6,-1.6 -0.2,0.1 -0.5,0.2 -0.7,0.3 -0.2,0 -0.3,0.1 -0.4,0.2 z m 0.3,1.4 c 0.1,-0.3 0.3,-0.5 0.6,-0.5 0.8,-0.2 1.2,0.1 1.2,0.7 0,0.4 -0.1,0.6 -0.4,0.8 -0.4,0.5 -0.9,0.4 -1.4,0 0,-0.3 0,-0.6 0,-1 z"
         id="path2" />
      <path
         style="fill:#5f5f61;stroke:none"
         d="m 48.7,668.89 c -0.3,0 -0.5,0.2 -0.6,0.5 0,0.4 0,0.7 0,1 0.5,0.4 1,0.5 1.4,0 0.3,-0.2 0.4,-0.4 0.4,-0.8 0,-0.6 -0.4,-0.9 -1.2,-0.7 z"
         id="path3" />
      <path
         style="fill:#ffffff;stroke:none"
         d="m 54.3,669.59 c 0,0 0,0 0,0 0.1,0.8 0.1,1.6 0,2.5 0.9,-0.6 1.8,-1 2.9,-1.3 v -0.1 c -1.2,-0.1 -2.2,-0.6 -2.9,-1.3 0,0 0,0.1 0,0.2 z"
         id="path4" />
      <path
         style="fill:#5f5f61;stroke:none"
         d="m 75.4,674.59 c -0.3,0 -0.4,0.2 -0.4,0.5 0,0.8 0,1.6 -0.1,2.4 0,0.1 0,0.3 0.1,0.4 -1,-0.1 -1.9,-0.2 -2.8,-0.3 -0.1,0 -0.2,0 -0.2,0.1 v 0 c -0.1,0 -0.1,0 -0.1,0 -0.1,0.1 -0.1,0.1 -0.1,0.1 0,0.1 0,0.1 0,0.1 0,0.5 0.2,1 0.5,1.4 0.2,0.2 0.3,0.5 0.5,0.8 0.2,0.4 0.4,0.9 0.5,1.4 0.1,0 0.1,0 0.1,0.1 0.1,0 0.1,0 0.1,0.1 0,0 0,0 0,0.1 0,0 0,0 0,0.1 0,0 0,0 0,0.1 0.1,0 0.1,0 0.1,0.1 0.1,0 0.1,0 0.1,0.1 0.1,0 0.1,0 0.1,0 0,0.1 0,0.2 0.1,0.2 0.1,0.2 0.1,0.4 0.3,0.6 0.2,0.5 0.5,0.9 0.8,1.2 0.2,0.1 0.3,0.1 0.4,-0.1 1,-1.3 2,-2.6 3,-4 0.1,0 0.1,-0.1 0.2,-0.1 0.6,-0.4 0.9,-0.9 0.8,-1.6 0,0 -0.1,-0.1 -0.1,-0.1 -1,0 -1.9,-0.1 -2.8,-0.2 0,-0.3 0,-0.7 0,-1.1 0,-0.2 0,-0.5 0,-0.8 0.2,-0.8 0,-1.4 -0.5,-1.8 0,0.1 -0.1,0.1 -0.1,0.1 -0.1,0 -0.1,0 -0.1,0 -0.1,0 -0.1,0.1 -0.1,0.2 0,0 0,0 0,0.1 -0.1,-0.1 -0.2,-0.2 -0.3,-0.2 z"
         id="path5" />
      <path
         style="fill:#5f5f61;stroke:none"
         d="m 76.8,689.69 c 0,0 0,0.1 0,0.2 -0.2,0 -0.4,-0.1 -0.5,-0.1 -0.1,0 -0.1,0 -0.2,0 -0.1,0 -0.1,0 -0.1,0.1 0,0 0,0 0,0.1 0,0.1 0,0.1 0,0.1 v 0 c -0.1,0 -0.2,0 -0.3,0 -1,0.4 -1.9,0.8 -2.8,1.4 -2,1.1 -3.9,2.3 -5.6,3.7 -0.8,0.4 -1.5,0.7 -2.1,1.1 -2,1.3 -4,2.4 -6.1,3.4 -0.1,0.2 -0.3,0.2 -0.5,0.3 -0.3,0.3 -0.8,0.6 -1.3,0.7 -0.9,0.7 -1.7,1.3 -2.7,1.8 -0.3,0.3 -0.7,0.6 -1.1,0.7 -0.1,0.2 -0.2,0.4 -0.1,0.5 0,0.4 0,0.7 0,1 0,0.1 0,0.1 0.1,0.1 0.1,0 0.2,0.1 0.3,0.2 0,0.1 0,0.1 0.1,0.1 0.5,0.2 1,0.5 1.5,0.7 0,0.1 0.1,0.1 0.1,0.1 0,0.1 0,0.2 0,0.2 0,0.1 0,0.1 0,0.1 0,0.4 0,0.7 0,1 0,0.1 0.1,0.2 0.1,0.2 0,0.1 0,0.2 0,0.2 0,1.1 0,2.2 0.2,3.3 0,0.1 0,0.2 0,0.3 -0.1,1.7 0,3.4 0.1,5 0.2,1.4 0.3,2.8 0.2,4.3 0,2.4 0,4.8 0,7.2 0.1,0 0.1,0.1 0.1,0.2 0.1,0.9 0.2,1.8 0.2,2.8 0.1,1.3 0.2,2.7 0.2,4.1 -0.1,0.7 0,1.4 0,2.2 -0.5,0.4 -1.1,0.7 -1.8,1.1 -0.3,0.3 -0.7,0.6 -1.1,0.7 -0.1,0.2 -0.2,0.3 -0.1,0.5 0,0.3 0,0.7 0,1 0,0.1 0,0.1 0.1,0.1 0.1,0 0.2,0.1 0.3,0.2 0,0 0,0.1 0.1,0.1 0.5,0.2 1,0.5 1.5,0.7 0.7,0.7 1.6,1.2 2.6,1.4 0.1,0.1 0.1,0.1 0.1,0.1 0.3,0.1 0.5,0.3 0.8,0.4 1.2,1 2.6,1.8 4.1,2.3 1.2,0.7 2.4,1.5 3.6,2.2 0.6,0.3 1.2,0.5 1.7,0.8 1,0.4 1.8,1 2.6,1.6 0.3,0.2 0.6,0.3 0.8,0.5 1.6,0.7 3.3,1.6 4.8,2.6 0.6,0.3 1.1,0.4 1.5,0.2 0.1,-0.1 0.1,-0.3 0.1,-0.4 0.8,-0.2 1.6,-0.5 2.4,-0.9 2.1,-1.2 4.2,-2.3 6.4,-3.5 1.2,-0.7 2.5,-1.5 3.7,-2.2 0.9,-0.5 1.6,-1 2.4,-1.7 1.6,-1.3 3.4,-2.5 5.3,-3.3 1,-0.3 1.8,-0.8 2.6,-1.3 0.1,-0.1 0.2,-0.1 0.2,-0.1 0.1,0 0.2,0 0.3,-0.1 0,0 0.1,0 0.1,0 -0.1,-0.8 -0.2,-1.6 -0.3,-2.4 0,-0.1 0,-0.2 0,-0.2 -0.3,-0.1 -0.6,-0.2 -0.8,-0.2 -0.5,-0.3 -1.1,-0.5 -1.6,-0.6 0,0 0,-0.1 0,-0.2 0.2,0.1 0.4,0.2 0.6,0.3 -0.1,-0.1 -0.3,-0.2 -0.5,-0.3 0,-0.1 -0.1,-0.1 -0.1,-0.2 0,-0.8 0,-1.6 0,-2.4 h -0.1 c 0,-0.1 -0.1,-0.1 -0.1,-0.1 0,-0.1 0,-0.2 0,-0.2 0,-1.2 0,-2.2 -0.1,-3.3 0,0 0,-0.1 0,-0.2 0,-1.1 -0.1,-2.2 -0.3,-3.3 0.1,-0.9 0,-1.9 -0.1,-2.9 0,-0.2 0,-0.4 -0.1,-0.6 0,-2.5 -0.1,-5 0,-7.4 0,-2.5 0.1,-4.9 0.3,-7.3 0.1,-0.4 0.1,-0.7 0.2,-0.9 0.1,-0.7 0,-1.3 -0.3,-1.7 0.9,-0.3 1.8,-0.8 2.5,-1.3 0.1,0 0.2,0 0.2,0 0.1,0 0.2,0 0.2,-0.1 0,-0.3 -0.1,-0.6 -0.1,-0.8 0,-0.1 0,-0.1 0,-0.1 0,0 0,0 0,0 0.1,-0.1 0.1,-0.2 0.2,-0.2 0,-0.1 0,-0.2 0,-0.2 0,-0.1 0,-0.1 0,-0.1 v 0 c 0,-0.1 0,-0.2 0.1,-0.2 -0.1,-0.1 -0.1,-0.2 -0.1,-0.2 0,-0.1 0,-0.2 -0.1,-0.3 0,0 -0.1,0 -0.1,-0.1 0,-0.1 0,-0.2 0,-0.2 -0.1,-0.2 -0.1,-0.3 -0.1,-0.4 -0.3,-0.1 -0.5,-0.2 -0.8,-0.3 0,0 0,0 -0.1,0 -0.1,-0.1 -0.3,-0.3 -0.4,-0.4 -0.1,-0.1 -0.2,-0.1 -0.2,-0.1 -0.5,-0.3 -0.9,-0.5 -1.4,-0.6 -0.4,-0.1 -0.7,-0.2 -1,-0.5 0,-0.1 -0.1,-0.1 -0.2,-0.1 -1.7,-1 -3.4,-1.8 -5.1,-2.5 0,-0.1 0,-0.1 0,-0.1 -0.1,0 -0.1,0 -0.1,-0.1 0,-0.1 -0.1,-0.1 -0.2,-0.2 -0.1,-0.1 -0.2,-0.2 -0.3,-0.2 -0.9,-0.6 -1.8,-1 -2.8,-1.3 -0.1,-0.2 -0.3,-0.3 -0.5,-0.5 -0.9,-0.5 -1.8,-0.9 -2.7,-1.3 v 0 c -0.1,-0.1 -0.2,-0.1 -0.3,-0.2 -0.1,0 -0.3,-0.1 -0.5,-0.2 0,0.1 0,0.1 0,0.1 0.1,0.1 0.3,0.1 0.5,0.2 -1.5,-0.3 -2.8,-1 -3.9,-1.9 -0.1,0 -0.1,0 -0.2,-0.1 -1.3,-0.4 -2.6,-1 -3.9,-1.8 0,0 -0.1,0 -0.2,0.1 z m -7.2,4.7 c 0.3,-0.3 0.6,-0.5 0.9,-0.6 1.8,-1.2 3.6,-2.2 5.5,-3.1 0,-0.1 0.1,-0.1 0.2,-0.1 0,-0.1 0,-0.1 0,-0.2 0.2,0.1 0.4,0.1 0.7,-0.1 0.1,0 0.1,0 0.1,-0.1 v 0 c 0.3,0.2 0.7,0.4 1,0.5 0.3,0.2 0.6,0.4 1,0.4 0.1,0 0.1,0 0.1,0 0.5,0.1 0.9,0.3 1.3,0.5 1.4,1.1 3,1.8 4.7,2.3 0.2,0.2 0.3,0.2 0.5,0.3 0.5,0.3 1,0.5 1.6,0.7 0,0 0,0 0.1,0.1 0.3,0.2 0.6,0.4 1,0.6 0,0 0,0 0,0 0,0 0,0 0.1,0.1 0,0 0.1,0.1 0.2,0.1 0.5,0.3 0.9,0.5 1.3,0.7 0.1,0.1 0.1,0.1 0.2,0.1 0.8,0.5 1.6,1 2.5,1.3 0.4,0.2 0.8,0.4 1.2,0.5 0.7,0.5 1.5,0.8 2.2,1.2 0.7,0.5 1.5,0.8 2.3,1.2 0.1,0 0.2,0.1 0.2,0.1 0.8,0.4 1.5,0.7 2.1,1.2 0.1,0 0.1,0.1 0.1,0.1 0.1,0.1 0.1,0.1 0.1,0.2 0,0 -0.1,0 -0.1,0.1 0,0.1 0,0.1 0,0.1 0,0.1 0,0.2 0,0.4 0,0.1 0,0.1 0,0.1 v 0 c 0,0.1 0,0.2 -0.1,0.2 0,0.2 0,0.3 0,0.5 -1.6,0.8 -3.2,1.5 -4.7,2.3 -0.2,0 -0.4,0.1 -0.6,0.3 -0.8,0.5 -1.6,1.2 -2.3,1.7 -1.9,1.4 -3.9,2.7 -5.9,3.8 -0.5,0.3 -1,0.7 -1.5,0.9 -0.8,0.3 -1.5,0.8 -2.2,1.2 -1.8,1.2 -3.7,2.2 -5.8,3 -0.2,-0.2 -0.4,-0.3 -0.6,-0.4 -0.7,-0.3 -1.4,-0.6 -2,-0.9 -0.8,-0.3 -1.6,-0.7 -2.3,-1.2 -1.5,-0.9 -3,-1.8 -4.7,-2.6 -0.1,-0.1 -0.3,-0.2 -0.5,-0.3 -1.1,-0.5 -2.1,-1.1 -3.2,-1.7 -1.6,-0.8 -3.2,-1.7 -4.7,-2.7 0,-0.1 -0.1,-0.1 -0.2,-0.1 -1.3,-0.7 -2.6,-1.3 -3.9,-2 -0.4,-0.3 -0.8,-0.5 -1.3,-0.6 -0.1,0.1 -0.1,0.1 -0.1,0.1 v -0.1 c -0.1,-0.1 -0.1,-0.1 -0.1,-0.1 0,0 0,0 0,-0.1 -0.1,-0.1 -0.1,-0.2 0,-0.4 0,-0.1 0,-0.2 0,-0.3 0.1,0 0.2,0 0.3,-0.1 0.6,-0.4 1.2,-0.9 1.9,-1.3 0,0 0,0 0,-0.1 0,0 0,0 0,0 1.7,-1 3.3,-2 5,-2.9 0.2,-0.1 0.4,-0.1 0.6,-0.2 0,-0.1 0,-0.1 0.1,-0.1 0.2,-0.1 0.5,-0.3 0.7,-0.5 0.2,0 0.3,-0.1 0.4,-0.1 2.3,-1.2 4.5,-2.5 6.6,-3.9 z m 21,16.5 c 0.9,-0.5 1.6,-1 2.4,-1.7 1.5,-1.2 3.2,-2.3 5,-3.1 -0.2,0.7 -0.3,1.6 -0.3,2.5 0,0 0,0 -0.1,0 0,0.1 0,0.1 0,0.1 0,0.1 0,0.2 0,0.3 0,1.3 -0.1,2.6 -0.2,3.9 -0.1,1.2 -0.1,2.3 -0.1,3.4 0,2.4 0.1,4.8 0.1,7.2 0,0.1 0,0.2 0.1,0.2 0.1,1.1 0.1,2.2 0.1,3.4 0.1,0 0.1,0 0.1,0.1 0,0 0,0 0.1,0.1 0,0.1 0,0.2 0,0.3 -0.1,1 0,2.1 0.2,3.1 0,0.1 0,0.2 0,0.3 0.1,1.2 0.1,2.4 0.1,3.6 0.1,0.1 0.2,0.2 0.2,0.3 0,0.6 0,1.1 0,1.6 0,0.2 -0.1,0.4 -0.2,0.6 0,0.1 -0.1,0.2 -0.1,0.3 0,0.1 0,0.2 0,0.3 -0.1,0 -0.2,0.1 -0.3,0.1 -0.1,0.1 -0.2,0.1 -0.3,0.2 -1.2,0.5 -2.4,1.1 -3.6,1.6 -0.1,0.1 -0.3,0.2 -0.5,0.3 -0.6,0.5 -1.3,1 -2,1.5 -1.6,1.2 -3.4,2.3 -5.1,3.3 -0.5,0.3 -0.9,0.5 -1.4,0.8 -0.6,0.3 -1.3,0.6 -1.9,1.1 -1.4,0.9 -3,1.7 -4.6,2.3 -0.2,0.1 -0.3,0.2 -0.5,0.2 -0.1,-0.1 -0.3,-0.3 -0.5,-0.3 -0.6,-0.3 -1.2,-0.5 -1.8,-0.8 -0.7,-0.3 -1.3,-0.6 -2,-1 -1.3,-0.9 -2.6,-1.6 -4,-2.3 -0.2,-0.1 -0.4,-0.2 -0.5,-0.3 -1,-0.4 -2,-0.9 -2.8,-1.4 -1.5,-0.7 -2.8,-1.5 -4.1,-2.4 -0.1,0 -0.2,-0.1 -0.2,-0.1 -1.2,-0.5 -2.4,-1.1 -3.4,-1.7 -0.4,-0.3 -0.8,-0.4 -1.2,-0.5 -0.1,0 -0.1,0 -0.1,0 v 0 0 c 0,-0.3 0.1,-0.5 0.1,-0.8 0.2,-2.4 0.1,-4.8 -0.1,-7.2 -0.3,-2.2 -0.4,-4.5 -0.4,-6.8 0,-2.4 0,-4.8 0,-7.3 -0.1,0 -0.1,-0.1 -0.1,-0.1 0,-2 -0.1,-3.9 -0.3,-5.8 0,0 0,-0.1 0,-0.2 0.1,-0.7 0,-1.4 -0.2,-2 0,0 0,0 0,-0.1 0,-0.3 0,-0.6 0,-0.9 -0.1,-0.1 -0.2,-0.2 -0.2,-0.3 0,-0.1 0,-0.1 0,-0.1 0,-0.1 0,-0.3 0,-0.4 0.6,0.5 1.3,0.8 2,0.9 0.1,0.1 0.1,0.1 0.1,0.1 0.3,0.1 0.5,0.3 0.8,0.4 1.2,1 2.6,1.8 4.1,2.3 1.2,0.7 2.4,1.5 3.6,2.2 0.6,0.3 1.2,0.5 1.8,0.8 0.9,0.4 1.7,1 2.5,1.6 0.3,0.2 0.6,0.3 0.8,0.5 1.7,0.7 3.3,1.6 4.8,2.6 0.4,0.2 0.7,0.3 1,0.3 0.2,0 0.4,0 0.5,-0.1 0.1,-0.1 0.1,-0.3 0.1,-0.4 0.8,-0.2 1.6,-0.5 2.4,-0.9 2.1,-1.2 4.2,-2.3 6.4,-3.5 1.2,-0.7 2.5,-1.5 3.7,-2.2 z m -1.4,32.9 c 0.8,-0.4 1.5,-0.8 2.1,-1.4 1.4,-1.2 3,-2.1 4.7,-2.9 0.8,-0.2 1.6,-0.6 2.3,-1.1 0,-0.1 0.1,-0.1 0.1,-0.1 0.1,0 0.2,0 0.2,0 0.3,-0.2 0.4,-0.4 0.4,-0.6 0,-0.1 0,-0.1 0,-0.1 0,-0.1 0,-0.2 0,-0.3 0.6,0.2 1.2,0.5 1.8,0.6 0,0.1 0,0.2 0.1,0.3 0,0.1 0,0.3 0,0.5 0,0.1 0,0.2 -0.1,0.2 0,0.2 0,0.3 0,0.5 -1.6,0.7 -3.2,1.5 -4.7,2.2 -0.2,0.1 -0.4,0.2 -0.6,0.4 -0.8,0.5 -1.6,1.1 -2.3,1.7 -1.9,1.4 -3.9,2.7 -5.9,3.8 -0.5,0.3 -1,0.6 -1.5,0.9 -0.8,0.3 -1.5,0.8 -2.2,1.2 -1.8,1.2 -3.7,2.2 -5.8,3 -0.2,-0.2 -0.4,-0.3 -0.6,-0.4 -0.7,-0.3 -1.4,-0.6 -2,-0.9 -0.8,-0.3 -1.6,-0.7 -2.3,-1.2 -1.5,-0.9 -3,-1.8 -4.6,-2.6 -0.3,-0.1 -0.4,-0.2 -0.6,-0.3 -1.1,-0.6 -2.2,-1.1 -3.2,-1.7 -1.6,-0.8 -3.2,-1.7 -4.7,-2.7 0,-0.1 -0.1,-0.1 -0.2,-0.2 -1.3,-0.6 -2.6,-1.2 -3.9,-2 -0.4,-0.2 -0.8,-0.4 -1.3,-0.5 -0.1,0 -0.1,0 -0.1,0 v 0 c -0.1,-0.1 -0.1,-0.1 -0.1,-0.1 0,0 0,0 0,-0.1 -0.1,-0.1 -0.1,-0.2 0,-0.4 0,-0.1 0,-0.2 0,-0.3 0.1,0 0.2,-0.1 0.3,-0.1 0.6,-0.5 1.2,-0.9 1.9,-1.3 0,0 0,0 0,-0.1 0,0 0,0 0,0 0.1,-0.1 0.1,-0.1 0.2,-0.1 v 0 c 0,0.3 0,0.6 0,0.9 0,0 0,0 0.1,0.1 0.1,0 0.2,0.1 0.2,0.1 0.1,0.1 0.1,0.1 0.1,0.2 0.5,0.1 0.9,0.3 1.3,0.6 0.7,0.6 1.5,1 2.4,1.2 0,0 0,0 0.1,0 0.2,0.2 0.4,0.3 0.6,0.4 1.1,0.9 2.3,1.5 3.6,2 1.1,0.6 2.2,1.3 3.2,1.9 0.5,0.2 1,0.4 1.5,0.7 0.8,0.4 1.6,0.8 2.3,1.3 0.2,0.2 0.4,0.3 0.7,0.5 1.4,0.6 2.8,1.4 4.2,2.2 0.4,0.3 0.9,0.4 1.3,0.2 0.1,-0.1 0.1,-0.3 0,-0.4 0.8,-0.1 1.5,-0.4 2.2,-0.7 1.8,-1.1 3.7,-2.1 5.6,-3 1,-0.7 2.1,-1.3 3.2,-2 z"
         id="path6" />
      <path
         style="fill:#ffffff;stroke:none"
         d="m 70.5,693.79 c -0.3,0.1 -0.6,0.3 -0.9,0.6 -2.1,1.4 -4.3,2.7 -6.6,3.9 -0.1,0 -0.2,0.1 -0.4,0.1 -0.2,0.2 -0.5,0.4 -0.7,0.5 -0.1,0 -0.1,0 -0.1,0.1 -0.2,0.1 -0.4,0.1 -0.6,0.2 -1.7,0.9 -3.3,1.9 -5,2.9 0,0 0,0 0,0 0,0.1 0,0.1 0,0.1 -0.7,0.4 -1.3,0.9 -1.9,1.3 -0.1,0.1 -0.2,0.1 -0.3,0.1 0,0.1 0,0.2 0,0.3 -0.1,0.2 -0.1,0.3 0,0.4 0,0.1 0,0.1 0,0.1 0,0 0,0 0.1,0.1 v 0.1 c 0,0 0,0 0.1,-0.1 0.5,0.1 0.9,0.3 1.3,0.6 1.3,0.7 2.6,1.3 3.9,2 0.1,0 0.2,0 0.2,0.1 1.5,1 3.1,1.9 4.7,2.7 1.1,0.6 2.1,1.2 3.2,1.7 0.2,0.1 0.4,0.2 0.5,0.3 1.7,0.8 3.2,1.7 4.7,2.6 0.7,0.5 1.5,0.9 2.3,1.2 0.6,0.3 1.3,0.6 2,0.9 0.2,0.1 0.4,0.2 0.6,0.4 2.1,-0.8 4,-1.8 5.8,-3 0.7,-0.4 1.4,-0.9 2.2,-1.2 0.5,-0.2 1,-0.6 1.5,-0.9 2,-1.1 4,-2.4 5.9,-3.8 0.7,-0.5 1.5,-1.2 2.3,-1.7 0.2,-0.2 0.4,-0.3 0.6,-0.3 1.5,-0.8 3.1,-1.5 4.7,-2.3 0,-0.2 0,-0.3 0,-0.5 0.1,0 0.1,-0.1 0.1,-0.2 v 0 c 0,0 0,0 0,-0.1 0,-0.2 0,-0.3 0,-0.4 0,0 0,0 0,-0.1 0,-0.1 0.1,-0.1 0.1,-0.1 0,-0.1 0,-0.1 -0.1,-0.2 0,0 0,-0.1 -0.1,-0.1 -0.6,-0.5 -1.3,-0.8 -2.1,-1.2 0,0 -0.1,-0.1 -0.2,-0.1 -0.8,-0.4 -1.6,-0.7 -2.3,-1.2 -0.7,-0.4 -1.5,-0.7 -2.2,-1.2 -0.4,-0.1 -0.8,-0.3 -1.2,-0.5 -0.9,-0.3 -1.7,-0.8 -2.5,-1.3 -0.1,0 -0.1,0 -0.2,-0.1 -0.4,-0.2 -0.8,-0.4 -1.3,-0.7 -0.1,0 -0.2,-0.1 -0.2,-0.1 -0.1,-0.1 -0.1,-0.1 -0.1,-0.1 0,0 0,0 0,0 -0.4,-0.2 -0.7,-0.4 -1,-0.6 -0.1,-0.1 -0.1,-0.1 -0.1,-0.1 -0.6,-0.2 -1.1,-0.4 -1.6,-0.7 -0.2,-0.1 -0.3,-0.1 -0.5,-0.3 -1.7,-0.5 -3.3,-1.2 -4.7,-2.3 -0.4,-0.2 -0.8,-0.4 -1.3,-0.5 0,0 0,0 -0.1,0 -0.4,0 -0.7,-0.2 -1,-0.4 -0.3,-0.1 -0.7,-0.3 -1,-0.5 v 0 c 0,0.1 0,0.1 -0.1,0.1 -0.3,0.2 -0.5,0.2 -0.7,0.1 0,0.1 0,0.1 0,0.2 -0.1,0 -0.2,0 -0.2,0.1 -1.9,0.9 -3.7,1.9 -5.5,3.1 z m 5.9,-0.5 c 0.1,0 0.1,0 0.3,0.1 0,0 0,0 0,0.1 2.2,0.8 4.3,1.8 6.3,3.1 0,-0.1 0,-0.2 0,-0.2 0,-0.1 0,-0.1 0,-0.1 0,0.1 0,0.3 0.1,0.3 0,0 0,0 0,0 1,0.6 1.9,1.1 3,1.5 1.3,0.5 2.6,1.2 3.8,2 0.5,0.1 1,0.3 1.5,0.5 0.2,0 0.4,0 0.5,0.2 0.3,0.1 0.6,0.2 1,0.3 0.1,0 0.2,0.1 0.3,0.2 0.5,0.2 1.1,0.4 1.6,0.6 0.3,0.1 0.4,0.2 0.6,0.4 0,0 0.1,0.1 0,0.3 0,0 0,0.1 0,0.1 -0.4,0 -0.8,-0.1 -1.2,-0.2 -0.9,-0.4 -1.8,-0.9 -2.7,-1.3 0.1,0.8 0.1,1.5 0,2.3 0,0.1 0,0.1 -0.1,0.1 -0.1,-0.8 -0.2,-1.6 -0.2,-2.5 -0.6,-0.3 -1.2,-0.5 -1.7,-0.8 -0.6,-0.2 -1.2,-0.6 -1.8,-0.8 0,0.1 0,0.3 0,0.6 0,0 0,0 0,0 0.3,1 0.4,2.1 0.3,3.1 0,0.1 0,0.1 0,0.1 -0.1,0 -0.1,0 -0.1,0 -0.1,-0.4 -0.1,-0.8 -0.3,-1.2 0,-0.1 0,-0.1 0,-0.2 0,-0.5 -0.1,-1 -0.2,-1.6 0,0 0,0 -0.1,-0.1 0.1,-0.3 0.1,-0.6 0,-0.9 -0.8,-0.4 -1.6,-0.7 -2.4,-1.1 0,0.4 0,0.7 0,1 0,0.1 0,0.1 0,0.1 0.1,0.1 0.2,0.3 0.2,0.3 0.1,2.2 0.1,4.5 0.1,6.6 0,0 0,0.1 -0.1,0.2 0,0 -0.1,0 -0.2,0.1 0,-0.1 0,-0.1 0,-0.1 -0.1,-2.1 -0.1,-4.2 -0.2,-6.3 0,-0.1 0,-0.2 0,-0.3 -0.1,0 -0.1,-0.1 -0.1,-0.2 0,-0.5 0,-1 0,-1.5 -0.3,-0.2 -0.6,-0.3 -0.8,-0.5 0.3,1.8 0.5,3.5 0.4,5.4 0,0.1 0,0.1 0,0.1 0,0 0,0 -0.1,0.1 -0.1,-1.5 -0.3,-3 -0.5,-4.5 0,-0.1 0,-0.1 0,-0.1 0.1,-0.3 0,-0.6 0,-1 h -0.1 c 0,0 0,0 0.1,0 -0.2,-0.1 -0.3,-0.2 -0.5,-0.3 0.1,1.3 0.2,2.5 0.3,3.8 0,0 0,0 0,0 -0.1,0.1 -0.1,0.2 -0.2,0.2 0,0 -0.1,0 -0.1,0 -0.1,0 -0.1,0 -0.1,-0.1 -0.2,-1.3 -0.2,-2.6 -0.1,-4 -0.5,-0.2 -1,-0.5 -1.5,-0.9 -0.2,-0.1 -0.4,-0.2 -0.5,-0.2 0.1,2.3 0.3,4.6 0.5,7 0,0.7 0,1.4 0.1,2.1 v 0.1 c -0.1,0 -0.1,0 -0.1,0 -0.4,-2.4 -0.6,-4.8 -0.8,-7.2 0,-0.8 -0.1,-1.5 -0.1,-2.2 -0.2,-0.2 -0.5,-0.3 -0.7,-0.4 0.2,1.4 0.3,2.9 0.3,4.5 0,0.1 0,0.1 -0.1,0.1 -0.1,-1.5 -0.3,-3 -0.3,-4.7 -0.3,-0.1 -0.6,-0.2 -0.9,-0.3 0.1,2.4 0.1,4.8 0.2,7.2 0,0.6 0,1.3 0,1.8 -0.3,-2.4 -0.4,-4.8 -0.5,-7.2 0,-0.7 0,-1.3 0,-2 h 0.1 c -0.3,-0.1 -0.5,-0.2 -0.7,-0.3 0.1,1.1 0.1,2.2 0,3.3 0,0.1 0,0.1 0,0.2 -0.1,0 -0.2,0 -0.2,-0.1 v -0.1 c -0.1,-1.1 -0.1,-2.2 -0.2,-3.3 -0.1,-0.1 -0.3,-0.2 -0.4,-0.3 -0.1,0 -0.1,0 -0.2,-0.1 -0.1,0 -0.2,-0.1 -0.4,-0.1 0.2,1 0.3,2.2 0.2,3.3 -0.1,1.4 -0.1,2.7 0,4 0,0.1 0.1,0.2 0.1,0.2 0.1,0.7 0.1,1.3 0.1,2 0,0 0,0 0,0.1 0.1,0 0.1,0.1 0.2,0.2 0,0.5 0,1 0.1,1.6 0,0.1 0,0.1 0,0.1 0.2,0.8 0.3,1.6 0.3,2.5 0,0 0,0 0,0.1 0,0 0.1,0.1 0.1,0.2 0.2,0.9 0.2,1.8 0.2,2.8 0,0 0,0 0,0.1 0.1,0.3 0.2,0.5 0.1,0.8 0,0.1 0.1,0.1 0.1,0.1 0.8,-0.4 1.5,-0.8 2.3,-1.2 v -0.1 c 2,-1.2 4,-2.4 6.1,-3.5 0.7,-0.4 1.5,-0.8 2.2,-1.3 2.2,-1.1 4.3,-2.2 6.4,-3.4 0.2,0 0.4,0.1 0.5,0.3 0,0.1 0,0.1 0,0.1 -1.1,0.8 -2.3,1.5 -3.5,2.1 -0.1,0 -0.1,0 -0.1,0.1 v 0 c -0.2,0.1 -0.4,0.2 -0.5,0.3 h -0.1 c -0.3,0.1 -0.6,0.2 -0.8,0.3 -0.1,0.1 -0.1,0.1 -0.1,0.2 v 0 c -2.2,1.2 -4.3,2.3 -6.5,3.5 -0.1,0 -0.2,0.1 -0.3,0.3 -0.6,0.3 -1.2,0.7 -1.8,1 -0.1,0 -0.2,0.1 -0.3,0.1 -0.7,0.5 -1.5,0.9 -2.2,1.3 -0.1,0 -0.2,0 -0.3,0.1 -0.2,0.2 -0.3,0.3 -0.5,0.3 -0.1,0.1 -0.1,0.1 -0.1,0.1 -0.1,0 -0.1,0 -0.1,0.1 -0.4,0.4 -0.9,0.4 -1.5,-0.1 -0.8,-0.6 -1.7,-1.1 -2.7,-1.5 -0.2,0 -0.3,-0.1 -0.5,-0.2 -2.6,-1.2 -5.1,-2.3 -7.8,-3.5 -1.8,-0.8 -3.6,-1.8 -5.2,-2.9 -0.3,-0.1 -0.6,-0.2 -0.9,-0.4 0,0 0,0 -0.1,-0.1 -0.2,-0.1 -0.4,-0.1 -0.6,-0.3 0,-0.1 -0.1,-0.1 -0.1,-0.1 -0.1,0 -0.1,0 -0.1,-0.1 0,0 0,0 0,-0.1 0,0 0,0 0,0 0,-0.1 0,-0.1 0,-0.2 0,0 0,0 0,-0.1 0.1,0 0.1,0 0.1,-0.1 0.1,0 0.1,0 0.1,0 0.1,0 0.1,0 0.2,0 v -0.1 c 0,0 0,0 0.1,0.1 0.1,-0.1 0.3,-0.2 0.5,-0.3 0,-0.1 0.1,-0.1 0.2,-0.1 0.6,-0.5 1.3,-0.9 2,-1.3 0,-0.1 0,-0.2 0,-0.2 v -0.1 c 0,0.1 0,0.2 0.1,0.2 0.2,-0.1 0.5,-0.3 0.8,-0.5 0,-0.1 0,-0.3 0,-0.5 0,0 0,0 0,-0.1 0,0 0.1,0 0.1,-0.1 h 0.1 c 0,0.2 0,0.4 0,0.6 0.2,-0.1 0.4,-0.2 0.6,-0.3 0,-0.1 0,-0.2 0,-0.3 v 0 c 0,0.1 0,0.2 0.1,0.2 0.7,-0.4 1.5,-0.8 2.2,-1.3 0.5,-0.3 0.9,-0.5 1.4,-0.7 v -0.1 0 c 0.1,0 0.1,0 0.1,0 1.7,-0.9 3.4,-1.9 5,-2.8 1.3,-0.8 2.6,-1.5 3.9,-2.2 z m 13.7,7.6 c 0,-0.1 0,-0.1 0.1,-0.1 0,0.1 0.1,0.3 0.1,0.3 0.1,0.1 0.1,0.1 0.1,0.1 0.1,0.4 0.1,0.7 0.1,1 -0.1,0.1 -0.1,0.1 -0.1,0.1 0.1,0.1 0.1,0.2 0.2,0.3 -0.1,0 -0.1,0.1 -0.1,0.2 0,0.1 0,0.1 0,0.1 -0.2,0 -0.2,0 -0.2,-0.2 0,0 0,0 0,-0.1 -0.1,0 -0.1,-0.1 -0.2,-0.2 0,-0.5 0,-1 0,-1.5 z m -3.8,-1.7 c 0,0 0,0 0,0 0.1,-0.1 0.1,-0.1 0.2,-0.1 0,0.1 0,0.1 0.1,0.1 0,0.9 0,1.9 -0.1,2.7 v 0 c -0.2,-0.7 -0.3,-1.5 -0.2,-2.3 0,0 0,0 0,0 -0.2,-0.1 -0.2,-0.2 0,-0.4 z m 2.8,1.6 c 0.1,0 0.1,0 0.1,0.1 0.1,1.3 0.2,2.6 0.2,3.9 0,0.1 0,0.1 0,0.2 -0.1,0.1 -0.1,0.1 -0.1,0.1 0,0 -0.1,0 -0.1,0 -0.1,-1.6 -0.3,-3.3 -0.6,-4.9 0,0 0,0 0,-0.1 0.1,0 0.1,0 0.2,0 v 0 c 0.2,0.1 0.2,0.3 0.3,0.5 0,0 0,0 0,0.1 z m -7.2,-2.4 c -0.1,-0.5 0,-0.8 0.1,-1.2 0.3,2.4 0.5,4.6 0.6,6.9 0,0.1 0,0.1 0,0.1 0,0.1 0,0.2 0.1,0.2 -0.1,0.2 -0.1,0.2 -0.2,0.3 -0.2,-0.5 -0.4,-1.1 -0.4,-1.8 -0.1,-1.5 -0.1,-3 -0.2,-4.5 z"
         id="path7" />
      <path
         style="fill:#5f5f61;stroke:none"
         d="m 76.7,693.39 c -0.2,-0.1 -0.2,-0.1 -0.3,-0.1 -1.3,0.7 -2.6,1.4 -3.9,2.2 -1.6,0.9 -3.3,1.9 -5,2.8 0,0 0,0 -0.1,0 v 0 0.1 c -0.5,0.2 -0.9,0.4 -1.4,0.7 -0.7,0.5 -1.5,0.9 -2.2,1.3 -0.1,0 -0.1,-0.1 -0.1,-0.2 v 0 c 0,0.1 0,0.2 0,0.3 -0.2,0.1 -0.4,0.2 -0.6,0.3 0,-0.2 0,-0.4 0,-0.6 H 63 c 0,0.1 -0.1,0.1 -0.1,0.1 0,0.1 0,0.1 0,0.1 0,0.2 0,0.4 0,0.5 -0.3,0.2 -0.6,0.4 -0.8,0.5 -0.1,0 -0.1,-0.1 -0.1,-0.2 v 0.1 c 0,0 0,0.1 0,0.2 -0.7,0.4 -1.4,0.8 -2,1.3 -0.1,0 -0.2,0 -0.2,0.1 -0.2,0.1 -0.4,0.2 -0.5,0.3 -0.1,-0.1 -0.1,-0.1 -0.1,-0.1 v 0.1 c -0.1,0 -0.1,0 -0.2,0 0,0 0,0 -0.1,0 0,0.1 0,0.1 -0.1,0.1 0,0.1 0,0.1 0,0.1 0,0.1 0,0.1 0,0.2 0,0 0,0 0,0 0,0.1 0,0.1 0,0.1 0,0.1 0,0.1 0.1,0.1 0,0 0.1,0 0.1,0.1 0.2,0.2 0.4,0.2 0.6,0.3 0.1,0.1 0.1,0.1 0.1,0.1 0.3,0.2 0.6,0.3 0.9,0.4 1.6,1.1 3.4,2.1 5.2,2.9 2.7,1.2 5.2,2.3 7.8,3.5 0.2,0.1 0.3,0.2 0.5,0.2 1,0.4 1.9,0.9 2.7,1.5 0.6,0.5 1.1,0.5 1.5,0.1 0,-0.1 0,-0.1 0.1,-0.1 0,0 0,0 0.1,-0.1 0.2,0 0.3,-0.1 0.5,-0.3 0.1,-0.1 0.2,-0.1 0.3,-0.1 0.7,-0.4 1.5,-0.8 2.2,-1.3 0.1,0 0.2,-0.1 0.3,-0.1 0.6,-0.3 1.2,-0.7 1.8,-1 0.1,-0.2 0.2,-0.3 0.3,-0.3 2.2,-1.2 4.3,-2.3 6.5,-3.5 v 0 c 0,-0.1 0,-0.1 0.1,-0.2 0.2,-0.1 0.5,-0.2 0.8,-0.3 h 0.1 c 0.1,-0.1 0.3,-0.2 0.5,-0.3 v 0 c 0,-0.1 0,-0.1 0.1,-0.1 1.2,-0.6 2.4,-1.3 3.5,-2.1 0,0 0,0 0,-0.1 -0.1,-0.2 -0.3,-0.3 -0.5,-0.3 -2.1,1.2 -4.2,2.3 -6.4,3.4 -0.7,0.5 -1.5,0.9 -2.2,1.3 -2.1,1.1 -4.1,2.3 -6.1,3.5 v 0.1 c -0.8,0.4 -1.5,0.8 -2.3,1.2 0,0 -0.1,0 -0.1,-0.1 0.1,-0.3 0,-0.5 -0.1,-0.8 0,-0.1 0,-0.1 0,-0.1 0,-1 0,-1.9 -0.2,-2.8 0,-0.1 -0.1,-0.2 -0.1,-0.2 0,-0.1 0,-0.1 0,-0.1 0,-0.9 -0.1,-1.7 -0.3,-2.5 0,0 0,0 0,-0.1 -0.1,-0.6 -0.1,-1.1 -0.1,-1.6 -0.1,-0.1 -0.1,-0.2 -0.2,-0.2 0,-0.1 0,-0.1 0,-0.1 0,-0.7 0,-1.3 -0.1,-2 0,0 -0.1,-0.1 -0.1,-0.2 -0.1,-1.3 -0.1,-2.6 0,-4 0.1,-1.1 0,-2.3 -0.2,-3.3 0.2,0 0.3,0.1 0.4,0.1 0.1,0.1 0.1,0.1 0.2,0.1 0.1,0.1 0.3,0.2 0.4,0.3 0.1,1.1 0.1,2.2 0.2,3.3 v 0.1 c 0,0.1 0.1,0.1 0.2,0.1 0,-0.1 0,-0.1 0,-0.2 0.1,-1.1 0.1,-2.2 0,-3.3 0.2,0.1 0.4,0.2 0.7,0.3 h -0.1 c 0,0.7 0,1.3 0,2 0.1,2.4 0.2,4.8 0.5,7.2 0,-0.5 0,-1.2 0,-1.8 -0.1,-2.4 -0.1,-4.8 -0.2,-7.2 0.3,0.1 0.6,0.2 0.9,0.3 0,1.7 0.2,3.2 0.3,4.7 0.1,0 0.1,0 0.1,-0.1 0,-1.6 -0.1,-3.1 -0.3,-4.5 0.2,0.1 0.5,0.2 0.7,0.4 0,0.7 0.1,1.4 0.1,2.2 0.2,2.4 0.4,4.8 0.8,7.2 0,0 0,0 0.1,0 v -0.1 c -0.1,-0.7 -0.1,-1.4 -0.1,-2.1 -0.2,-2.4 -0.4,-4.7 -0.5,-7 0.1,0 0.3,0.1 0.5,0.2 0.5,0.4 1,0.7 1.5,0.9 -0.1,1.4 -0.1,2.7 0.1,4 0,0.1 0,0.1 0.1,0.1 0,0 0.1,0 0.1,0 0.1,0 0.1,-0.1 0.2,-0.2 0,0 0,0 0,0 -0.1,-1.3 -0.2,-2.5 -0.3,-3.8 0.2,0.1 0.3,0.2 0.5,0.3 -0.1,0 -0.1,0 -0.1,0 h 0.1 c 0,0.4 0.1,0.7 0,1 0,0 0,0 0,0.1 0.2,1.5 0.4,3 0.5,4.5 0.1,-0.1 0.1,-0.1 0.1,-0.1 0,0 0,0 0,-0.1 0.1,-1.9 -0.1,-3.6 -0.4,-5.4 0.2,0.2 0.5,0.3 0.8,0.5 0,0.5 0,1 0,1.5 0,0.1 0,0.2 0.1,0.2 0,0.1 0,0.2 0,0.3 0.1,2.1 0.1,4.2 0.2,6.3 0,0 0,0 0,0.1 0.1,-0.1 0.2,-0.1 0.2,-0.1 0.1,-0.1 0.1,-0.2 0.1,-0.2 0,-2.1 0,-4.4 -0.1,-6.6 0,0 -0.1,-0.2 -0.2,-0.3 0,0 0,0 0,-0.1 0,-0.3 0,-0.6 0,-1 0.8,0.4 1.6,0.7 2.4,1.1 0.1,0.3 0.1,0.6 0,0.9 0.1,0.1 0.1,0.1 0.1,0.1 0.1,0.6 0.2,1.1 0.2,1.6 0,0.1 0,0.1 0,0.2 0.2,0.4 0.2,0.8 0.3,1.2 0,0 0,0 0.1,0 0,0 0,0 0,-0.1 0.1,-1 0,-2.1 -0.3,-3.1 0,0 0,0 0,0 0,-0.3 0,-0.5 0,-0.6 0.6,0.2 1.2,0.6 1.8,0.8 0.5,0.3 1.1,0.5 1.7,0.8 0,0.9 0.1,1.7 0.2,2.5 0.1,0 0.1,0 0.1,-0.1 0.1,-0.8 0.1,-1.5 0,-2.3 0.9,0.4 1.8,0.9 2.7,1.3 0.4,0.1 0.8,0.2 1.2,0.2 0,0 0,-0.1 0,-0.1 0.1,-0.2 0,-0.3 0,-0.3 -0.2,-0.2 -0.3,-0.3 -0.6,-0.4 -0.5,-0.2 -1.1,-0.4 -1.6,-0.6 -0.1,-0.1 -0.2,-0.2 -0.3,-0.2 -0.4,-0.1 -0.7,-0.2 -1,-0.3 -0.1,-0.2 -0.3,-0.2 -0.5,-0.2 -0.5,-0.2 -1,-0.4 -1.5,-0.5 -1.2,-0.8 -2.5,-1.5 -3.8,-2 -1.1,-0.4 -2,-0.9 -3,-1.5 0,0 0,0 0,0 -0.1,0 -0.1,-0.2 -0.1,-0.3 0,0 0,0 0,0.1 0,0 0,0.1 0,0.2 -2,-1.3 -4.1,-2.3 -6.3,-3.1 z m -1.2,0.9 v 0 c 0.3,-0.1 0.5,-0.2 0.8,-0.4 -0.1,0.1 -0.1,0.2 -0.1,0.3 h -0.1 0.1 c -0.1,0.1 -0.1,0.2 -0.1,0.2 0.1,2.5 0.1,4.9 0.3,7.3 0,0.1 0.1,0.2 0.1,0.2 0,0.1 0,0.1 0,0.2 0,0.6 0,1.2 0.1,1.9 0.1,0.1 0.1,0.1 0.2,0.2 0,0 0,0 0,0.1 0,0.4 0,0.9 0.1,1.4 0,0 0,0 0,0.1 0.2,0.8 0.3,1.7 0.2,2.6 0.1,0 0.1,0 0.1,0.1 0,0.1 0,0.1 0,0.1 0.1,1 0.1,2 0.1,2.9 0,0.1 0.1,0.1 0.1,0.2 0,0 0,0 0,0.1 0,0 0,0 0,0.1 0,-0.1 -0.1,-0.1 -0.2,-0.1 0,0 0,0 0,0 -2,-0.9 -4,-1.7 -6,-2.6 -0.5,-0.2 -1,-0.5 -1.5,-0.7 -0.9,-0.4 -1.7,-0.9 -2.6,-1.2 -1.1,-0.5 -2.1,-1 -3.1,-1.6 -1.4,-0.8 -2.7,-1.6 -4.1,-2.2 0.2,-0.2 0.4,-0.3 0.6,-0.4 0.2,-0.2 0.4,-0.3 0.6,-0.3 0.1,0.3 0.1,0.4 0.2,0.6 0,0 0,0 0,-0.1 0,-0.2 0,-0.4 0,-0.7 0,0 0.1,0 0.1,0 0.2,-0.2 0.4,-0.3 0.5,-0.4 0,0.6 0,1.4 0,2 0.1,-0.1 0.2,-0.1 0.3,-0.1 0,0 0,0 0,-0.1 0,-0.7 0,-1.3 -0.1,-1.9 0.1,-0.1 0.1,-0.2 0.2,-0.2 0.1,-0.1 0.2,-0.1 0.3,-0.1 0.1,0 0.2,-0.1 0.2,-0.1 0,0.9 0.1,1.7 0.1,2.6 0.1,-0.1 0.2,-0.1 0.3,-0.2 v 0 c 0,-0.9 0,-1.8 0,-2.6 0.1,-0.1 0.3,-0.2 0.4,-0.3 0,1.4 0,2.6 0,4 0.1,0 0.2,0 0.3,0 0,-0.6 0,-1.1 -0.1,-1.7 0,-0.1 0,-0.1 0,-0.1 0,-0.8 0.1,-1.6 0,-2.3 0.1,0 0.2,-0.2 0.2,-0.2 0,0.6 0,1.2 0,1.8 0,0.1 0.2,0.1 0.3,0.2 0,-0.1 0.1,-0.1 0.2,-0.2 0,0 0,0 0,-0.1 0,-0.6 0,-1.3 0,-1.9 0.2,-0.1 0.4,-0.3 0.6,-0.4 -0.1,0.8 -0.1,1.7 0,2.5 0.1,0 0.1,0 0.2,0.1 0,0 0,0 0.1,-0.1 0,0 0,0 0,0 0.1,-0.1 0.1,-0.1 0.1,-0.1 0,-0.9 -0.1,-1.7 -0.1,-2.6 0.1,0 0.1,-0.1 0.3,-0.2 -0.2,1.9 -0.2,3.8 0.1,5.7 0.1,0.1 0.1,0.2 0.1,0.4 0.1,0.1 0.1,0.1 0.3,0.1 0,0 0.1,0 0.2,0 0.1,-0.3 0,-0.5 -0.1,-0.7 v -0.1 c -0.2,-1.8 -0.3,-3.6 -0.5,-5.4 0.2,-0.2 0.5,-0.3 0.7,-0.4 -0.1,1.3 0,2.7 0.1,4.1 0.1,0 0.1,0 0.2,-0.1 0,-0.1 0,-0.1 0,-0.1 0,-1.3 0.1,-2.8 0,-4.1 0.2,-0.2 0.4,-0.2 0.6,-0.3 0,1.5 0.1,3 0.2,4.4 0.1,0.2 0.1,0.2 0.2,0.3 0,0.1 0,0.1 0,0.1 0,0.3 0,0.5 0,0.8 0,0 0,0 0.1,0 0,0.1 0,0.1 0,0.1 0,0.1 0,0.1 0,0.1 0,0.2 0.1,0.3 0.1,0.4 v -0.1 c 0,-0.8 0,-1.7 0,-2.6 -0.1,-0.1 -0.1,-0.1 -0.1,-0.1 -0.1,-1.2 -0.2,-2.3 -0.2,-3.6 0.3,-0.2 0.7,-0.4 1.1,-0.6 -0.1,0 -0.1,0.1 -0.2,0.1 v 0.1 c -0.1,2.3 0.1,4.7 0.4,6.9 0,0 0,0 0,-0.1 0,0 0,0 0,-0.1 0,-2.3 0,-4.5 -0.2,-6.9 0.1,-0.1 0.2,-0.1 0.2,-0.1 0.6,-0.4 1.2,-0.7 1.8,-1 v 0.1 c 0,1.1 0,2.2 0.1,3.3 0,0.1 0.1,0.1 0.2,0.1 0.1,0 0.1,0 0.1,0 0.1,0 0.1,0 0.1,-0.1 0,-0.1 0,-0.1 0,-0.1 0,-0.1 0,-0.2 -0.1,-0.2 0,-0.1 0,-0.1 0,-0.1 0.1,-1 0.1,-2 0,-3.1 -0.1,0 -0.1,0 -0.2,0 0.7,-0.4 1.3,-0.7 1.9,-1.1 0,0.5 0.1,0.9 0,1.3 -0.1,2.6 -0.1,5 0.3,7.4 0,0.1 0,0.1 0,0.1 -0.1,1.2 0,2.4 0.2,3.5 v 0.1 c 0.1,0 0.1,0 0.2,0 0.1,-1.2 0.1,-2.5 -0.1,-3.8 0,-0.4 0,-0.9 0,-1.3 0.2,-2.6 0,-5 -0.5,-7.4 0.8,-0.5 1.5,-0.9 2.2,-1.4 0.1,0 0.2,0 0.3,-0.1 z"
         id="path8" />
      <path
         style="fill:#ffffff;stroke:none"
         d="m 75.5,694.29 v 0 c -0.1,0.1 -0.2,0.1 -0.3,0.1 -0.7,0.5 -1.4,0.9 -2.2,1.4 0.5,2.4 0.7,4.8 0.5,7.4 0,0.4 0,0.9 0,1.3 0.2,1.3 0.2,2.6 0.1,3.8 -0.1,0 -0.1,0 -0.2,0 v -0.1 c -0.2,-1.1 -0.3,-2.3 -0.2,-3.5 0,0 0,0 0,-0.1 -0.4,-2.4 -0.4,-4.8 -0.3,-7.4 0.1,-0.4 0,-0.8 0,-1.3 -0.6,0.4 -1.2,0.7 -1.9,1.1 0.1,0 0.1,0 0.2,0 0.1,1.1 0.1,2.1 0,3.1 0,0 0,0 0,0.1 0.1,0 0.1,0.1 0.1,0.2 0,0 0,0 0,0.1 0,0.1 0,0.1 -0.1,0.1 0,0 0,0 -0.1,0 -0.1,0 -0.2,0 -0.2,-0.1 -0.1,-1.1 -0.1,-2.2 -0.1,-3.3 v -0.1 c -0.6,0.3 -1.2,0.6 -1.8,1 0,0 -0.1,0 -0.2,0.1 0.2,2.4 0.2,4.6 0.2,6.9 0,0.1 0,0.1 0,0.1 0,0.1 0,0.1 0,0.1 -0.3,-2.2 -0.5,-4.6 -0.4,-6.9 v -0.1 c 0.1,0 0.1,-0.1 0.2,-0.1 -0.4,0.2 -0.8,0.4 -1.1,0.6 0,1.3 0.1,2.4 0.2,3.6 0,0 0,0 0.1,0.1 0,0.9 0,1.8 0,2.6 v 0.1 c 0,-0.1 -0.1,-0.2 -0.1,-0.4 0,0 0,0 0,-0.1 0,0 0,0 0,-0.1 -0.1,0 -0.1,0 -0.1,0 0,-0.3 0,-0.5 0,-0.8 0,0 0,0 0,-0.1 -0.1,-0.1 -0.1,-0.1 -0.2,-0.3 -0.1,-1.4 -0.2,-2.9 -0.2,-4.4 -0.2,0.1 -0.4,0.1 -0.6,0.3 0.1,1.3 0,2.8 0,4.1 0,0 0,0 0,0.1 -0.1,0.1 -0.1,0.1 -0.2,0.1 -0.1,-1.4 -0.2,-2.8 -0.1,-4.1 -0.2,0.1 -0.5,0.2 -0.7,0.4 0.2,1.8 0.3,3.6 0.5,5.4 v 0.1 c 0.1,0.2 0.2,0.4 0.1,0.7 -0.1,0 -0.2,0 -0.2,0 -0.2,0 -0.2,0 -0.3,-0.1 0,-0.2 0,-0.3 -0.1,-0.4 -0.3,-1.9 -0.3,-3.8 -0.1,-5.7 -0.2,0.1 -0.2,0.2 -0.3,0.2 0,0.9 0.1,1.7 0.1,2.6 0,0 0,0 -0.1,0.1 0,0 0,0 0,0 -0.1,0.1 -0.1,0.1 -0.1,0.1 -0.1,-0.1 -0.1,-0.1 -0.2,-0.1 -0.1,-0.8 -0.1,-1.7 0,-2.5 -0.2,0.1 -0.4,0.3 -0.6,0.4 0,0.6 0,1.3 0,1.9 0,0.1 0,0.1 0,0.1 -0.1,0.1 -0.2,0.1 -0.2,0.2 -0.1,-0.1 -0.3,-0.1 -0.3,-0.2 0,-0.6 0,-1.2 0,-1.8 0,0 -0.1,0.2 -0.2,0.2 0.1,0.7 0,1.5 0,2.3 0,0 0,0 0,0.1 0.1,0.6 0.1,1.1 0.1,1.7 -0.1,0 -0.2,0 -0.3,0 0,-1.4 0,-2.6 0,-4 -0.1,0.1 -0.3,0.2 -0.4,0.3 0,0.8 0,1.7 0,2.6 v 0 c -0.1,0.1 -0.2,0.1 -0.3,0.2 0,-0.9 -0.1,-1.7 -0.1,-2.6 0,0 -0.1,0.1 -0.2,0.1 -0.1,0 -0.2,0 -0.3,0.1 -0.1,0 -0.1,0.1 -0.2,0.2 0.1,0.6 0.1,1.2 0.1,1.9 0,0.1 0,0.1 0,0.1 -0.1,0 -0.2,0 -0.3,0.1 0,-0.6 0,-1.4 0,-2 -0.1,0.1 -0.3,0.2 -0.5,0.4 0,0 -0.1,0 -0.1,0 0,0.3 0,0.5 0,0.7 0,0.1 0,0.1 0,0.1 -0.1,-0.2 -0.1,-0.3 -0.2,-0.6 -0.2,0 -0.4,0.1 -0.6,0.3 -0.2,0.1 -0.4,0.2 -0.6,0.4 1.4,0.6 2.7,1.4 4.1,2.2 1,0.6 2,1.1 3.1,1.6 0.9,0.3 1.7,0.8 2.6,1.2 0.5,0.2 1,0.5 1.5,0.7 2,0.9 4,1.7 6,2.6 0,0 0,0 0,0 0.1,0 0.2,0 0.2,0.1 0,-0.1 0,-0.1 0,-0.1 0,-0.1 0,-0.1 0,-0.1 0,-0.1 -0.1,-0.1 -0.1,-0.2 0,-0.9 0,-1.9 -0.1,-2.9 0,0 0,0 0,-0.1 0,-0.1 0,-0.1 -0.1,-0.1 0.1,-0.9 0,-1.8 -0.2,-2.6 0,-0.1 0,-0.1 0,-0.1 -0.1,-0.5 -0.1,-1 -0.1,-1.4 0,-0.1 0,-0.1 0,-0.1 -0.1,-0.1 -0.1,-0.1 -0.2,-0.2 -0.1,-0.7 -0.1,-1.3 -0.1,-1.9 0,-0.1 0,-0.1 0,-0.2 0,0 -0.1,-0.1 -0.1,-0.2 -0.2,-2.4 -0.2,-4.8 -0.3,-7.3 0,0 0,-0.1 0.1,-0.2 h -0.1 0.1 c 0,-0.1 0,-0.2 0.1,-0.3 -0.3,0.2 -0.5,0.3 -0.8,0.4 z m -1.3,1.1 c 0,0 0.1,0 0.1,0 0.1,0 0.1,0 0.1,0.1 0.1,1.7 0.1,3.5 0.3,5.2 0,0.1 0,0.1 0,0.1 0.2,0.7 0.2,1.4 0.2,2.2 0,0.1 0,0.1 0,0.1 -0.1,0 -0.2,0.1 -0.2,0.1 -0.1,0 -0.2,0 -0.2,-0.1 0,-0.5 0,-1.2 0,-1.8 0,-0.1 0,-0.1 0,-0.1 -0.1,-0.1 -0.2,-0.1 -0.2,-0.2 0,-0.7 0,-1.4 -0.1,-2.2 0,0 0,0 0,-0.1 -0.2,-1 -0.2,-2.1 -0.1,-3.2 0,-0.1 0,-0.1 0,-0.1 z m 1.3,-0.6 c 0,0 0,0 0,0.1 0.2,1.4 0.3,2.8 0.2,4.2 0,0 0,0 0,0.1 -0.3,-1.3 -0.5,-2.7 -0.4,-4.2 0,-0.1 0,-0.1 0,-0.2 v 0 c 0.1,0 0.1,0 0.2,0 z m -3.3,1.8 c 0.1,0 0.1,0 0.1,0 0.1,1.1 0.1,2.2 0,3.3 0,0 0,0 0,0.1 -0.1,0.1 -0.1,0.1 -0.2,0.1 -0.1,-1.1 -0.2,-2.2 -0.1,-3.4 0,0 0,0 0,-0.1 0,0 0.1,0 0.2,0 z m -2,1.3 v 0 c 0.2,2.5 0.3,4.9 0.2,7.4 0,0.9 -0.1,1.8 -0.2,2.7 -0.2,-1.2 -0.3,-2.4 -0.3,-3.7 0,-2.1 0.1,-4.2 0.3,-6.4 z"
         id="path9" />
      <path
         style="fill:#5f5f61;stroke:none"
         d="m 74.3,695.39 c 0,0 -0.1,0 -0.1,0 h -0.1 c 0,0 0,0 0,0.1 -0.1,1.1 -0.1,2.2 0.1,3.2 0,0.1 0,0.1 0,0.1 0.1,0.8 0.1,1.5 0.1,2.2 0,0.1 0.1,0.1 0.2,0.2 0,0 0,0 0,0.1 0,0.6 0,1.3 0,1.8 0,0.1 0.1,0.1 0.2,0.1 0,0 0.1,-0.1 0.2,-0.1 0,0 0,0 0,-0.1 0,-0.8 0,-1.5 -0.2,-2.2 0,0 0,0 0,-0.1 -0.2,-1.7 -0.2,-3.5 -0.3,-5.2 0,-0.1 0,-0.1 -0.1,-0.1 z"
         id="path10" />
      <path
         style="fill:#5f5f61;stroke:none"
         d="m 75.5,694.89 c 0,-0.1 0,-0.1 0,-0.1 -0.1,0 -0.1,0 -0.2,0 v 0 c 0,0.1 0,0.1 0,0.2 -0.1,1.5 0.1,2.9 0.4,4.2 0,-0.1 0,-0.1 0,-0.1 0.1,-1.4 0,-2.8 -0.2,-4.2 z"
         id="path11" />
      <path
         style="fill:#5f5f61;stroke:none"
         d="m 72.3,696.59 c 0,0 0,0 -0.1,0 v 0 c -0.1,0 -0.2,0 -0.2,0 0,0.1 0,0.1 0,0.1 -0.1,1.2 0,2.3 0.1,3.4 0.1,0 0.1,0 0.2,-0.1 0,-0.1 0,-0.1 0,-0.1 0.1,-1.1 0.1,-2.2 0,-3.3 z"
         id="path12" />
      <path
         style="fill:#5f5f61;stroke:none"
         d="m 70.2,697.89 v 0 c -0.2,2.2 -0.3,4.3 -0.3,6.4 0,1.3 0.1,2.5 0.3,3.7 0.1,-0.9 0.2,-1.8 0.2,-2.7 0.1,-2.5 0,-4.9 -0.2,-7.4 z"
         id="path13" />
      <path
         style="fill:#5f5f61;stroke:none"
         d="m 90.2,700.79 c -0.1,0 -0.1,0 -0.1,0.1 0,0.5 0,1 0,1.5 0.1,0.1 0.1,0.2 0.2,0.2 0,0.1 0,0.1 0,0.1 0,0.2 0,0.2 0.2,0.2 0,0 0,0 0,-0.1 0,-0.1 0,-0.2 0.1,-0.2 -0.1,-0.1 -0.1,-0.2 -0.2,-0.3 0,0 0,0 0.1,-0.1 0,-0.3 0,-0.6 -0.1,-1 0,0 0,0 -0.1,-0.1 0,0 -0.1,-0.2 -0.1,-0.3 z"
         id="path14" />
      <path
         style="fill:#5f5f61;stroke:none"
         d="m 86.3,699.19 c 0,0 0,0 0,0 -0.2,0.2 -0.2,0.3 0,0.4 0,0 0,0 0,0 -0.1,0.8 0,1.6 0.2,2.3 v 0 c 0.1,-0.8 0.1,-1.8 0.1,-2.7 -0.1,0 -0.1,0 -0.1,-0.1 -0.1,0 -0.1,0 -0.2,0.1 z"
         id="path15" />
      <path
         style="fill:#5f5f61;stroke:none"
         d="m 89.2,700.89 c 0,-0.1 0,-0.1 -0.1,-0.1 0,-0.1 0,-0.1 0,-0.1 0,-0.1 0,-0.1 0,-0.1 -0.1,-0.2 -0.1,-0.4 -0.3,-0.5 v 0 c -0.1,0 -0.1,0 -0.2,0 0,0.1 0,0.1 0,0.1 0.3,1.6 0.5,3.3 0.6,4.9 0,0 0.1,0 0.1,0 0,0 0,0 0.1,-0.1 0,-0.1 0,-0.1 0,-0.2 0,-1.3 -0.1,-2.6 -0.2,-3.9 z"
         id="path16" />
      <path
         style="fill:#5f5f61;stroke:none"
         d="m 82,697.19 c -0.1,0.4 -0.2,0.7 -0.1,1.2 0.1,1.5 0.1,3 0.2,4.5 0,0.7 0.2,1.3 0.4,1.8 0.1,-0.1 0.1,-0.1 0.2,-0.3 -0.1,0 -0.1,-0.1 -0.1,-0.2 0,0 0,0 0,-0.1 -0.1,-2.3 -0.3,-4.5 -0.6,-6.9 z"
         id="path17" />
      <path
         style="fill:#ffffff;stroke:none"
         d="m 93,709.19 c -0.8,0.7 -1.5,1.2 -2.4,1.7 -1.2,0.7 -2.5,1.5 -3.7,2.2 -2.2,1.2 -4.3,2.3 -6.4,3.5 -0.8,0.4 -1.6,0.7 -2.4,0.9 0,0.1 0,0.3 -0.1,0.4 -0.1,0.1 -0.3,0.1 -0.5,0.1 -0.3,0 -0.6,-0.1 -1,-0.3 -1.5,-1 -3.1,-1.9 -4.8,-2.6 -0.2,-0.2 -0.5,-0.3 -0.8,-0.5 -0.8,-0.6 -1.6,-1.2 -2.5,-1.6 -0.6,-0.3 -1.2,-0.5 -1.8,-0.8 -1.2,-0.7 -2.4,-1.5 -3.6,-2.2 -1.5,-0.5 -2.9,-1.3 -4.1,-2.3 -0.3,-0.1 -0.5,-0.3 -0.8,-0.4 0,0 0,0 -0.1,-0.1 -0.7,-0.1 -1.4,-0.4 -2,-0.9 0,0.1 0,0.3 0,0.4 0,0 0,0 0,0.1 0,0.1 0.1,0.2 0.2,0.3 0,0.3 0,0.6 0,0.9 0,0.1 0,0.1 0,0.1 0.2,0.6 0.3,1.3 0.2,2 0,0.1 0,0.2 0,0.2 0.2,1.9 0.3,3.8 0.3,5.8 0,0 0,0.1 0.1,0.1 0,2.5 0,4.9 0,7.3 0,2.3 0.1,4.6 0.4,6.8 0.2,2.4 0.3,4.8 0.1,7.2 0,0.3 -0.1,0.5 -0.1,0.8 v 0 0 c 0,0 0,0 0.1,0 0.4,0.1 0.8,0.2 1.2,0.5 1,0.6 2.2,1.2 3.4,1.7 0,0 0.1,0.1 0.2,0.1 1.3,0.9 2.6,1.7 4.1,2.4 0.8,0.5 1.8,1 2.8,1.4 0.1,0.1 0.3,0.2 0.5,0.3 1.4,0.7 2.7,1.4 4,2.3 0.7,0.4 1.3,0.7 2,1 0.6,0.3 1.2,0.5 1.8,0.8 0.2,0 0.4,0.2 0.5,0.3 0.2,0 0.3,-0.1 0.5,-0.2 1.6,-0.6 3.2,-1.4 4.6,-2.3 0.6,-0.5 1.3,-0.8 1.9,-1.1 0.5,-0.3 0.9,-0.5 1.4,-0.8 1.7,-1 3.5,-2.1 5.1,-3.3 0.7,-0.5 1.4,-1 2,-1.5 0.2,-0.1 0.4,-0.2 0.5,-0.3 1.2,-0.5 2.4,-1.1 3.6,-1.6 0.1,-0.1 0.2,-0.1 0.3,-0.2 0.1,0 0.2,-0.1 0.3,-0.1 0,-0.1 0,-0.2 0,-0.3 0,-0.1 0.1,-0.2 0.1,-0.3 0.1,-0.2 0.2,-0.4 0.2,-0.6 0,-0.5 0,-1 0,-1.6 0,-0.1 -0.1,-0.2 -0.2,-0.3 0,-1.2 0,-2.4 -0.1,-3.6 0,-0.1 0,-0.2 0,-0.3 -0.2,-1 -0.3,-2.1 -0.2,-3.1 0,-0.1 0,-0.2 0,-0.3 -0.1,-0.1 -0.1,-0.1 -0.1,-0.1 0,-0.1 0,-0.1 -0.1,-0.1 0,-1.2 0,-2.3 -0.1,-3.4 -0.1,0 -0.1,-0.1 -0.1,-0.2 0,-2.4 -0.1,-4.8 -0.1,-7.2 0,-1.1 0,-2.2 0.1,-3.4 0.1,-1.3 0.2,-2.6 0.2,-3.9 0,-0.1 0,-0.2 0,-0.3 0,0 0,0 0,-0.1 0.1,0 0.1,0 0.1,0 0,-0.9 0.1,-1.8 0.3,-2.5 -1.8,0.8 -3.5,1.9 -5,3.1 z m -15.8,9.3 c 0,-0.1 0,-0.1 0,-0.2 0,0 0,0 0.1,-0.1 0,0 0.1,0 0.1,0 v -0.1 c 0.1,0.1 0.1,0.1 0.2,0.1 0.1,0.5 0.1,1 -0.1,1.6 0,0 0,0.1 0,0.1 0.2,2.4 0.3,4.8 0.2,7.2 0,1.3 0,2.5 0.1,3.8 -0.1,0 -0.1,0 -0.1,0.1 0,0 0,0 -0.1,0.1 0,0.1 0,0.3 0,0.4 0,0.1 0,0.1 -0.1,0.1 -0.1,0 -0.1,-0.2 -0.1,-0.5 0,0 0,-0.1 0,-0.1 0,-0.1 0,-0.1 0,-0.1 0.1,-0.1 0.1,-0.1 0.1,-0.1 0.1,-0.4 0.1,-0.8 0,-1.2 0,-0.1 0,-0.2 0,-0.2 0,-0.1 0,-0.1 0,-0.1 -0.1,-0.1 -0.1,-0.1 -0.1,-0.1 0,-2.4 -0.1,-4.8 -0.3,-7.2 0,-0.1 0,-0.2 -0.1,-0.3 0,-0.7 0,-1.3 0,-1.9 0,0 0,-0.1 0,-0.2 0.1,0 0.1,0 0.1,-0.1 0,0 0,0 0.1,-0.1 0,-0.3 0,-0.6 0,-0.9 z m 0.3,19.4 c 0,0 0,0 0,0 0.1,0.2 0.1,0.5 0.1,0.7 0,0.1 0,0.1 0,0.1 -0.1,0.1 -0.1,0.1 -0.1,0.1 0,-0.3 0,-0.6 0,-0.9 z m 0,-3.9 c 0,0 0,0 0,0.1 -0.1,0 -0.1,0 -0.1,0.1 0,-0.2 0,-0.3 0,-0.4 0,0 0,0 0.1,0 0,0 0,0.1 0,0.2 z m 0,5.1 v 0 c 0.1,0.4 0.1,0.7 0.2,1 0,0.1 0,0.1 0,0.1 0,0.1 0,0.1 0.1,0.1 0.1,0.6 0.2,1.2 0.2,1.8 0,0.1 0,0.1 0,0.1 0.1,0.1 0.1,0.1 0.1,0.1 0,1.2 0,2.3 0,3.5 0,0 0,0.1 0,0.2 0.1,0 0.1,0.1 0.2,0.1 0,0.8 0,1.5 0.1,2.3 0,0 0,0.1 0,0.2 -0.1,0 -0.2,0.1 -0.2,0.1 -0.1,0 -0.1,0 -0.2,0 0,-0.8 0,-1.5 0,-2.3 0,0 0,0 0,-0.1 0,0 0,-0.1 -0.1,-0.2 0.1,-1.8 0,-3.6 -0.3,-5.4 -0.1,0 -0.1,-0.1 -0.1,-0.2 0,0 -0.1,-0.1 -0.1,-0.2 0,-0.4 0,-0.8 0,-1.2 z"
         id="path18" />
      <path
         style="fill:#5f5f61;stroke:none"
         d="m 77.2,718.29 c 0,0.1 0,0.1 0,0.2 0,0.3 0,0.6 0,0.9 -0.1,0.1 -0.1,0.1 -0.1,0.1 0,0.1 0,0.1 -0.1,0.1 0,0.1 0,0.2 0,0.2 0,0.6 0,1.2 0,1.9 0.1,0.1 0.1,0.2 0.1,0.3 0.2,2.4 0.3,4.8 0.3,7.2 0,0 0,0 0.1,0.1 0,0 0,0 0,0.1 0,0 0,0.1 0,0.2 0.1,0.4 0.1,0.8 0,1.2 0,0 0,0 -0.1,0.1 0,0 0,0 0,0.1 0,0 0,0.1 0,0.1 0,0.3 0,0.5 0.1,0.5 0.1,0 0.1,0 0.1,-0.1 0,-0.1 0,-0.3 0,-0.4 0.1,-0.1 0.1,-0.1 0.1,-0.1 0,-0.1 0,-0.1 0.1,-0.1 -0.1,-1.3 -0.1,-2.5 -0.1,-3.8 0.1,-2.4 0,-4.8 -0.2,-7.2 0,0 0,-0.1 0,-0.1 0.2,-0.6 0.2,-1.1 0.1,-1.6 -0.1,0 -0.1,0 -0.2,-0.1 v 0.1 c 0,0 -0.1,0 -0.1,0 z"
         id="path19" />
      <path
         style="fill:#5c7876;stroke:none"
         d="m 77.5,737.89 c 0,0 0,0 0,0 0,0.3 0,0.6 0,0.9 0,0 0,0 0.1,-0.1 0,0 0,0 0,-0.1 0,-0.2 0,-0.5 -0.1,-0.7 z"
         id="path20" />
      <path
         style="fill:#5c7876;stroke:none"
         d="m 77.5,734.09 c 0,-0.1 0,-0.1 0,-0.1 0,-0.1 0,-0.2 0,-0.2 -0.1,0 -0.1,0 -0.1,0 0,0.1 0,0.2 0,0.4 0,-0.1 0,-0.1 0.1,-0.1 z"
         id="path21" />
      <path
         style="fill:#5f5f61;stroke:none"
         d="m 77.5,739.09 v 0 h -0.1 c 0,0.4 0,0.8 0,1.2 0,0.1 0.1,0.2 0.1,0.2 0,0.1 0,0.2 0.1,0.2 0.3,1.8 0.4,3.6 0.3,5.4 0.1,0.1 0.1,0.2 0.1,0.2 0,0.1 0,0.1 0,0.1 0,0.8 0,1.5 0,2.3 0.1,0 0.1,0 0.2,0 0,0 0.1,-0.1 0.2,-0.1 0,-0.1 0,-0.2 0,-0.2 -0.1,-0.8 -0.1,-1.5 -0.1,-2.3 -0.1,0 -0.1,-0.1 -0.2,-0.1 0,-0.1 0,-0.2 0,-0.2 0,-1.2 0,-2.3 0,-3.5 0,0 0,0 -0.1,-0.1 0,0 0,0 0,-0.1 0,-0.6 -0.1,-1.2 -0.2,-1.8 -0.1,0 -0.1,0 -0.1,-0.1 0,0 0,0 0,-0.1 -0.1,-0.3 -0.1,-0.6 -0.2,-1 z"
         id="path22" />
      <path
         style="fill:#ffffff;stroke:none"
         d="m 91.3,742.39 c -0.6,0.6 -1.3,1 -2.1,1.4 -1.1,0.7 -2.2,1.3 -3.2,2 -1.9,0.9 -3.8,1.9 -5.6,3 -0.7,0.3 -1.4,0.6 -2.2,0.7 0.1,0.1 0.1,0.3 0,0.4 -0.4,0.2 -0.9,0.1 -1.3,-0.2 -1.4,-0.8 -2.8,-1.6 -4.2,-2.2 -0.3,-0.2 -0.5,-0.3 -0.7,-0.5 -0.7,-0.5 -1.5,-0.9 -2.3,-1.3 -0.5,-0.3 -1,-0.5 -1.5,-0.7 -1,-0.6 -2.1,-1.3 -3.2,-1.9 -1.3,-0.5 -2.5,-1.1 -3.6,-2 -0.2,-0.1 -0.4,-0.2 -0.6,-0.4 -0.1,0 -0.1,0 -0.1,0 -0.9,-0.2 -1.7,-0.6 -2.4,-1.2 -0.4,-0.3 -0.8,-0.5 -1.3,-0.6 0,-0.1 0,-0.1 -0.1,-0.2 0,0 -0.1,-0.1 -0.2,-0.1 -0.1,-0.1 -0.1,-0.1 -0.1,-0.1 0,-0.3 0,-0.6 0,-0.9 v 0 c -0.1,0 -0.1,0 -0.2,0.1 0,0 0,0 0,0 0,0.1 0,0.1 0,0.1 -0.7,0.4 -1.3,0.8 -1.9,1.3 -0.1,0 -0.2,0.1 -0.3,0.1 0,0.1 0,0.2 0,0.3 -0.1,0.2 -0.1,0.3 0,0.4 0,0.1 0,0.1 0,0.1 0,0 0,0 0.1,0.1 v 0 c 0,0 0,0 0.1,0 0.5,0.1 0.9,0.3 1.3,0.5 1.3,0.8 2.6,1.4 3.9,2 0.1,0.1 0.2,0.1 0.2,0.2 1.5,1 3.1,1.9 4.7,2.7 1,0.6 2.1,1.1 3.2,1.7 0.2,0.1 0.3,0.2 0.6,0.3 1.6,0.8 3.1,1.7 4.6,2.6 0.7,0.5 1.5,0.9 2.3,1.2 0.6,0.3 1.3,0.6 2,0.9 0.2,0.1 0.4,0.2 0.6,0.4 2.1,-0.8 4,-1.8 5.8,-3 0.7,-0.4 1.4,-0.9 2.2,-1.2 0.5,-0.3 1,-0.6 1.5,-0.9 2,-1.1 4,-2.4 5.9,-3.8 0.7,-0.6 1.5,-1.2 2.3,-1.7 0.2,-0.2 0.4,-0.3 0.6,-0.4 1.5,-0.7 3.1,-1.5 4.7,-2.2 0,-0.2 0,-0.3 0,-0.5 0.1,0 0.1,-0.1 0.1,-0.2 0,-0.2 0,-0.4 0,-0.5 -0.1,-0.1 -0.1,-0.2 -0.1,-0.3 -0.6,-0.1 -1.2,-0.4 -1.8,-0.6 0,0.1 0,0.2 0,0.3 0,0 0,0 0,0.1 0,0.2 -0.1,0.4 -0.4,0.6 0,0 -0.1,0 -0.2,0 0,0 -0.1,0 -0.1,0.1 -0.7,0.5 -1.5,0.9 -2.3,1.1 -1.7,0.8 -3.3,1.7 -4.7,2.9 z"
         id="path23" />
      <path
         style="fill:#5f5f61;stroke:none"
         d="m 80.4,754.99 c 0,0.1 -0.1,0.1 -0.1,0.1 -0.4,0.2 -0.7,0.4 -1.1,0.5 -2.2,1.1 -4.4,2.3 -6.5,3.5 -1.9,1.2 -3.8,2.3 -5.7,3.3 -2,1 -4,2.1 -6.1,3.1 0,0.1 0,0.2 0,0.2 0,0.1 0,0.2 0,0.2 v 0 c 0,-0.1 0,-0.2 -0.1,-0.3 0,-0.1 -0.1,-0.1 -0.1,-0.1 v 0 c -0.1,0.1 -0.2,0.1 -0.3,0.1 0,0.1 0,0.2 0,0.3 0,0.7 0,1.5 0,2.2 -0.1,0 -0.1,0 -0.1,0.1 0,0 0,0 -0.1,0.1 0,0.1 0,0.1 0,0.1 0,0.8 -0.1,1.7 -0.3,2.5 0,0 0,0 0,0.1 0,1.2 -0.2,2.5 -0.5,3.6 0,0.1 0,0.1 0,0.1 -0.2,1 -0.2,1.9 0,2.9 0,0 0,0 0.1,0.1 0.1,0.4 0.2,0.9 0.2,1.4 0,0.1 0,0.1 0,0.1 0.1,0.1 0.1,0.1 0.1,0.1 0,0.1 0,0.2 0,0.2 0,0.1 0,0.2 0,0.3 0,0.1 0,0.1 -0.1,0.1 v 0.1 c 0,0 0,0.1 0,0.2 0,0.5 0,1 -0.1,1.5 -0.1,0 -0.1,0 -0.1,0.1 -0.1,0.5 -0.2,1.1 -0.2,1.7 0,0 0,0 -0.1,0.1 0,0 0,0 0,0 0,0.1 0,0.2 0,0.2 -0.2,1.1 -0.2,2.1 -0.2,3.1 0.2,0.2 0.3,0.3 0.5,0.4 0.1,0 0.2,0 0.2,-0.1 0.4,0.2 0.8,0.4 1.3,0.4 0,0.1 0,0.1 0.1,0.2 0.8,0.6 1.7,1.1 2.7,1.5 1.1,0.4 2.2,1 3.1,1.7 0.7,0.6 1.5,0.9 2.4,1.1 0.7,0.2 1.4,0.5 2.1,0.8 0.9,0.7 1.9,1.3 2.9,1.9 1,0.7 2.2,1.2 3.4,1.6 0.2,0.1 0.3,0.2 0.5,0.3 0,0 0.1,0 0.1,0.1 0.1,0 0.2,0 0.2,0 0.1,0 0.2,0 0.2,0 0.4,-0.3 0.9,-0.6 1.4,-0.7 0.2,-0.1 0.3,-0.1 0.5,-0.1 l -0.1,-0.1 c 1.6,-0.6 3.2,-1.4 4.6,-2.3 0.9,-0.6 1.8,-1.1 2.8,-1.5 0.6,-0.6 1.4,-1 2.2,-1.3 1.5,-0.7 3,-1.3 4.6,-1.7 0.6,-0.3 1.2,-0.6 2,-0.7 0,-0.1 0,-0.1 0.1,-0.1 0.2,-0.2 0.5,-0.4 0.9,-0.4 0,-0.1 0,-0.1 0,-0.1 0.5,-0.1 0.8,-0.3 1,-0.6 0.2,0.2 0.4,0.1 0.6,-0.1 0,-1.2 -0.1,-2.3 -0.2,-3.4 -0.1,-1 -0.1,-2 -0.1,-2.9 0,-1 -0.1,-1.9 -0.2,-2.7 -0.1,-0.4 -0.1,-0.8 -0.2,-1.2 0,-0.5 0.1,-0.9 0.3,-1.3 0.3,-0.9 0.5,-1.7 0.6,-2.7 0,-0.6 0.1,-1.2 0,-1.9 0,-1.5 0.1,-3 0.3,-4.5 0,-0.3 0,-0.6 -0.1,-0.9 0.2,-0.1 0.3,-0.2 0.3,-0.5 -0.1,-0.1 -0.1,-0.2 -0.1,-0.2 -0.1,-0.1 -0.1,-0.2 -0.1,-0.3 -0.5,-0.7 -1.2,-1.2 -2.1,-1.5 -1.8,-0.6 -3.4,-1.3 -5,-2.2 -2.1,-1.1 -4.2,-2.3 -6.3,-3.5 -0.7,-0.4 -1.5,-0.7 -2.3,-1 0,0 0,0 0,0 -1.2,-0.6 -2.2,-1.2 -3.2,-1.8 0,0 -0.1,0 -0.1,0 -0.1,0 -0.1,0 -0.2,0.1 0,0.1 0,0.2 0,0.3 -0.1,0 -0.1,0 -0.2,0 z m -12.1,13.7 c 0.1,0 0.2,0 0.4,0 0.2,0.2 0.3,0.3 0.6,0.4 0,0 0.1,0 0.2,0.1 0,0.2 0.2,0.2 0.3,0.3 0.1,0 0.2,0.1 0.2,0.1 -0.4,-0.1 -0.8,-0.2 -1.2,-0.4 -0.1,0 -0.2,-0.1 -0.3,-0.1 -0.2,0 -0.5,-0.1 -0.6,-0.2 0,-0.1 0,-0.1 0,-0.2 0.1,0 0.1,0 0.1,0 v -0.1 c 0,0.1 0.2,0.1 0.3,0.1 z m -5,0.3 c 0,-0.1 0,-0.1 0,-0.1 0.1,0 0.2,0 0.2,0 0.1,0 0.2,0 0.2,0 0.2,0.2 0.3,0.2 0.6,0.3 0.2,0 0.6,0.2 0.8,0.3 0.2,0.2 0.4,0.4 0.6,0.5 0.1,0.2 0.3,0.4 0.3,0.7 0,0.3 0,0.7 0,1.2 0,0.2 0,0.5 0.1,0.7 v 0 c -0.1,0.1 -0.1,0.2 -0.1,0.3 0,0 0,0 0,0 -0.2,0.6 -0.5,1 -1,1.5 -0.8,1 -1.9,1.2 -3.1,0.8 -0.1,-0.1 -0.2,-0.2 -0.4,-0.3 -0.1,-0.2 -0.3,-0.4 -0.5,-0.5 -0.1,-0.1 -0.1,-0.1 -0.1,-0.2 0,0 0,0 0,-0.1 -0.1,0 -0.1,-0.1 -0.1,-0.2 0,0 0,0 0,0 0,-0.3 0,-0.5 0,-0.7 0,-0.2 -0.1,-0.3 -0.2,-0.5 0,-0.5 0,-1 0,-1.5 0.1,-0.2 0.2,-0.4 0.2,-0.7 0.1,0.1 0.2,0.1 0.2,0.1 0.3,-0.1 0.4,-0.2 0.6,-0.5 0.4,-0.6 0.9,-0.9 1.6,-1.1 z m 0,11.3 c 0,0 0,0 0.1,-0.1 0.9,-0.6 1.8,-1.1 2.7,-1.6 0.1,0 0.1,0 0.1,0 h 0.1 c 0,0 0,0 0,0 0.1,-0.1 0.2,-0.1 0.2,-0.1 0,0 0,0.1 0,0.1 0,0 0,0 0,0.1 0,-0.1 0,-0.1 0,-0.1 0,-0.1 0.1,-0.1 0.2,-0.1 0,0 0,0 0,0.1 v 0 c 0.3,0.3 0.6,0.5 0.8,0.8 0.2,0.3 0.3,0.7 0.5,1 0.1,0 0.1,0 0.1,0 0.4,0.3 0.6,0.6 0.6,1 0,0 0,0 0,0.1 0.3,0.3 0.5,0.6 0.7,0.9 0,0 0,0 0,0.1 0,0.1 0,0.2 0,0.4 0,0 0,0 0,0.1 -0.1,0 -0.1,0 -0.1,0.1 -0.1,0.1 -0.1,0.1 -0.3,0.2 -0.3,-0.2 -0.6,-0.4 -0.8,-0.7 -0.4,-0.1 -0.7,-0.3 -0.8,-0.5 -0.2,-0.1 -0.4,-0.2 -0.4,-0.3 -0.2,-0.1 -0.3,-0.1 -0.4,-0.3 -0.4,-0.1 -0.7,-0.4 -1.1,-0.8 -0.1,0 -0.2,0 -0.3,-0.1 -0.1,0 -0.1,0 -0.1,0.1 -0.1,0 -0.1,0 -0.1,0 -0.7,0.2 -1.3,0.1 -1.8,-0.1 0,-0.1 0,-0.2 0.1,-0.3 z m 0.4,2.7 c -0.1,-0.4 -0.2,-0.8 -0.3,-1.2 0,0 0,-0.1 0,-0.2 0.1,0 0.2,0 0.3,-0.1 v 0 c 0,0 0.1,0 0.1,0.1 0.2,0.2 0.4,0.5 0.5,0.9 0,0 0,0 0,0.1 0.2,0.2 0.3,0.5 0.4,0.7 0,0.1 0,0.1 0,0.2 1.3,-0.5 2.5,-0.6 3.7,-0.4 0,0.1 0,0.2 0,0.2 0,0.1 0,0.1 0,0.1 -0.1,0.1 -0.2,0.2 -0.3,0.2 0,0.1 0,0.1 0,0.1 -0.1,0 -0.1,0 -0.1,0.1 0,0 -0.1,0 -0.1,0.1 -0.1,0 -0.1,0 -0.1,0.1 -1.1,0.1 -2.1,0.4 -3.1,0.9 -0.3,-0.2 -0.5,-0.4 -0.7,-0.7 0,-0.4 0,-0.7 -0.2,-1 0,-0.1 0,-0.2 -0.1,-0.2 z m 16.8,-7.9 c 0,0 -0.1,0 -0.1,0 -0.7,-0.1 -1.4,-0.2 -2,-0.7 -1.1,-0.8 -2.4,-1.5 -3.6,-2.1 0.1,-0.1 0.2,-0.1 0.4,-0.1 v -0.1 c 0.2,0.1 0.4,0.3 0.6,0.3 0.1,0 0.2,0.1 0.2,0.1 0.5,0.4 1,0.6 1.5,0.7 0.3,0.3 0.8,0.5 1.2,0.5 0.2,0.1 0.3,0.2 0.5,0.3 0.4,0.2 0.9,0.4 1.3,0.7 0,0.1 0,0.1 0.1,0.2 v 0 c 0,0 0,0 0,0.1 -0.1,0 -0.1,0 -0.1,0.1 z m 0.6,-0.4 c 0.2,-0.1 0.3,-0.3 0.6,-0.5 1.2,-0.4 2.4,-1 3.6,-1.6 0,0 0.1,0 0.1,0 h 0.1 c -0.8,0.4 -1.4,0.8 -2,1.3 0,0 0,0 -0.1,0 -0.5,0.2 -1.1,0.5 -1.6,0.8 -0.3,0.2 -0.5,0.2 -0.7,0 z m -2.9,2.3 c 0.1,0.1 0.1,0.2 0.1,0.4 0,0.4 0,0.9 0,1.3 -0.1,0.1 -0.1,0.1 -0.1,0.1 0,0.1 0,0.2 -0.1,0.2 0,0.2 -0.1,0.3 -0.2,0.5 0,0 0,0.1 0,0.2 -0.1,0.1 -0.1,0.3 -0.3,0.4 0,0.1 0,0.1 0,0.1 0,0.1 0,0.1 0,0.1 -0.8,1.2 -2,1.6 -3.4,1.3 -0.1,0 -0.2,-0.1 -0.2,-0.2 -0.8,-1.4 -1.2,-2.8 -1.2,-4.3 0.5,-0.4 1,-0.7 1.5,-1.2 0,0 0.1,-0.1 0.1,-0.2 0.3,0 0.6,-0.1 0.8,-0.3 0.8,0.1 1.5,0.3 2.2,0.6 0.2,0.2 0.5,0.5 0.8,0.8 0,0.1 0,0.1 0,0.1 z m 1.8,-1.5 h 0.1 c 0,0 0,0 0.1,0 v 0 c 0.5,1.5 0.5,3.2 0.2,4.9 -0.1,0.2 -0.1,0.4 -0.1,0.7 0,0.4 -0.1,0.7 -0.3,1 -0.4,-0.3 -0.5,-0.9 -0.4,-1.5 0.1,-0.3 0.1,-0.6 0.1,-0.9 0.2,-0.4 0.3,-0.8 0.3,-1.2 0,-0.1 0,-0.1 0,-0.1 -0.1,-0.4 -0.1,-0.7 -0.1,-1 0,-0.7 0,-1.3 0.1,-1.8 z m -7.8,-5 c 0.2,0.2 0.5,0.4 0.7,0.5 0,0 0,0 0.1,0.1 -0.5,-0.1 -0.7,-0.2 -0.9,-0.6 z m 7.6,12.8 c 0,-0.1 0.1,-0.1 0.1,-0.1 l 0.1,-0.1 c 0,0.1 0,0.1 0.1,0.1 0,0.5 -0.1,0.9 -0.1,1.4 v 0 c 0,0.1 0,0.1 0,0.1 0.1,0.1 0.1,0.1 0.1,0.1 0,0.1 0,0.1 0,0.1 0,0.1 0,0.1 0,0.1 0,0.1 -0.1,0.2 -0.1,0.2 -0.2,0.5 -0.2,1.1 -0.2,1.6 v 0.1 c 0,0 -0.1,0.1 -0.2,0.2 0,0.6 0,1.2 0,1.8 0,0 0,0 0,0.1 0,0 -0.1,0 -0.1,0.1 -0.1,-0.7 -0.1,-1.4 -0.1,-2.1 0,0 0,-0.1 0,-0.2 0,0 0.1,-0.1 0.1,-0.2 0,-0.5 0,-1 0.1,-1.5 0,-0.1 0,-0.1 0,-0.1 0.1,-0.1 0.2,-0.2 0.2,-0.3 0,-0.5 0,-0.9 0,-1.3 z m 11.9,-14.4 c 0,0 0,0 -0.1,0.1 0,0 0,0 -0.1,0.1 0,-0.2 0.1,-0.2 0.3,-0.4 0,0 0.1,0 0.2,-0.1 v 0 0 c 0.2,-0.1 0.3,-0.2 0.4,-0.2 0.6,-0.3 1.1,-0.5 1.5,-0.8 0.1,-0.1 0.2,-0.1 0.2,-0.1 0.1,0 0.1,0 0.1,0 -0.1,0.1 -0.2,0.2 -0.2,0.3 0,0.1 0,0.1 -0.1,0.1 -0.6,0.2 -1.2,0.5 -1.8,0.8 v 0.1 l -0.1,0.1 c -0.1,0 -0.2,0 -0.3,0 z m -1.2,0.7 c 0,0.1 -0.2,0.3 -0.4,0.3 0,0 -0.1,0 -0.1,0 0.1,-0.1 0.2,-0.2 0.4,-0.3 z m -1.1,0.5 c 0.1,0 0.2,0 0.3,0 -0.7,0.5 -1.5,1 -2.4,1.6 v 0 c -0.4,0.2 -0.7,0.2 -0.9,0.1 0.8,-0.8 1.9,-1.4 3,-1.7 z"
         id="path24" />
      <path
         style="fill:#ffffff;stroke:none"
         d="m 68.7,768.69 c -0.2,0 -0.3,0 -0.4,0 -0.1,0 -0.3,0 -0.3,-0.1 v 0.1 c 0,0 0,0 -0.1,0 0,0.1 0,0.1 0,0.2 0.1,0.1 0.4,0.2 0.6,0.2 0.1,0 0.2,0.1 0.3,0.1 0.4,0.2 0.8,0.3 1.2,0.4 0,0 -0.1,-0.1 -0.2,-0.1 -0.1,-0.1 -0.3,-0.1 -0.3,-0.3 -0.1,-0.1 -0.2,-0.1 -0.2,-0.1 -0.3,-0.1 -0.4,-0.2 -0.6,-0.4 z"
         id="path25" />
      <path
         style="fill:#ffffff;stroke:none"
         d="m 63.3,768.89 c 0,0 0,0 0,0.1 -0.1,0 -0.1,0 -0.1,0 -0.7,0.2 -1.2,0.5 -1.6,1.1 -0.2,0.3 -0.3,0.4 -0.6,0.5 0,0 -0.1,0 -0.2,-0.1 0,0.3 -0.1,0.5 -0.2,0.7 0,0.5 0,1 0,1.5 0.1,0.2 0.2,0.3 0.2,0.5 0,0.2 0,0.4 0,0.7 0,0 0,0 0,0 0,0.1 0,0.2 0.1,0.2 0,0.1 0,0.1 0,0.1 0,0.1 0,0.1 0.1,0.2 0.2,0.1 0.4,0.3 0.5,0.5 0.2,0.1 0.3,0.2 0.4,0.3 1.2,0.4 2.3,0.2 3.1,-0.8 0.5,-0.5 0.8,-0.9 1,-1.5 0,0 0,0 0,0 0,-0.1 0,-0.2 0.1,-0.3 v 0 c -0.1,-0.2 -0.1,-0.5 -0.1,-0.7 0,-0.5 0,-0.9 0,-1.2 0,-0.3 -0.2,-0.5 -0.3,-0.7 -0.2,-0.1 -0.4,-0.3 -0.6,-0.5 -0.2,-0.1 -0.6,-0.3 -0.8,-0.3 -0.3,-0.1 -0.4,-0.1 -0.6,-0.3 0,0 -0.1,0 -0.2,0 0,0 -0.1,0 -0.2,0 z m -0.8,2.1 c 0.1,-0.1 0.2,-0.1 0.2,-0.2 0.1,0 0.2,0 0.2,-0.1 1,0.2 1.1,0.7 0.7,1.4 0,0.1 -0.1,0.3 -0.2,0.3 -0.8,0.5 -1.1,0.2 -1.2,-0.5 0,-0.2 0,-0.4 0.1,-0.7 0,-0.1 0.1,-0.2 0.2,-0.2 z"
         id="path26" />
      <path
         style="fill:#5f5f61;stroke:none"
         d="m 62.7,770.79 c 0,0.1 -0.1,0.1 -0.2,0.2 -0.1,0 -0.2,0.1 -0.2,0.2 -0.1,0.3 -0.1,0.5 -0.1,0.7 0.1,0.7 0.4,1 1.2,0.5 0.1,0 0.2,-0.2 0.2,-0.3 0.4,-0.7 0.3,-1.2 -0.7,-1.4 0,0.1 -0.1,0.1 -0.2,0.1 z"
         id="path27" />
      <path
         style="fill:#ffffff;stroke:none"
         d="m 63.4,780.19 c -0.1,0.1 -0.1,0.1 -0.1,0.1 -0.1,0.1 -0.1,0.2 -0.1,0.3 0.5,0.2 1.1,0.3 1.8,0.1 0,0 0,0 0.1,0 0,-0.1 0,-0.1 0.1,-0.1 0.1,0.1 0.2,0.1 0.3,0.1 0.4,0.4 0.7,0.7 1.1,0.8 0.1,0.2 0.2,0.2 0.4,0.3 0,0.1 0.2,0.2 0.4,0.3 0.1,0.2 0.4,0.4 0.8,0.5 0.2,0.3 0.5,0.5 0.8,0.7 0.2,-0.1 0.2,-0.1 0.3,-0.2 0,-0.1 0,-0.1 0.1,-0.1 0,-0.1 0,-0.1 0,-0.1 0,-0.2 0,-0.3 0,-0.4 0,-0.1 0,-0.1 0,-0.1 -0.2,-0.3 -0.4,-0.6 -0.7,-0.9 0,-0.1 0,-0.1 0,-0.1 0,-0.4 -0.2,-0.7 -0.6,-1 0,0 0,0 -0.1,0 -0.2,-0.3 -0.3,-0.7 -0.5,-1 -0.2,-0.3 -0.5,-0.5 -0.8,-0.8 v 0 c 0,-0.1 0,-0.1 0,-0.1 -0.1,0 -0.2,0 -0.2,0.1 0,0 0,0 0,0.1 0,-0.1 0,-0.1 0,-0.1 0,0 0,-0.1 0,-0.1 0,0 -0.1,0 -0.2,0.1 0,0 0,0 0,0 h -0.1 c 0,0 0,0 -0.1,0 -0.9,0.5 -1.8,1 -2.7,1.6 z"
         id="path28" />
      <path
         style="fill:#ffffff;stroke:none"
         d="m 63.4,781.79 c 0.1,0.4 0.2,0.8 0.3,1.2 0.1,0 0.1,0.1 0.1,0.2 0.2,0.3 0.2,0.6 0.2,1 0.2,0.3 0.4,0.5 0.7,0.7 1,-0.5 2,-0.8 3.1,-0.9 0,-0.1 0,-0.1 0.1,-0.1 0,-0.1 0.1,-0.1 0.1,-0.1 0,-0.1 0,-0.1 0.1,-0.1 0,0 0,0 0,-0.1 0.1,0 0.2,-0.1 0.3,-0.2 0,0 0,0 0,-0.1 0,0 0,-0.1 0,-0.2 -1.2,-0.2 -2.4,-0.1 -3.7,0.4 0,-0.1 0,-0.1 0,-0.2 -0.1,-0.2 -0.2,-0.5 -0.4,-0.7 0,-0.1 0,-0.1 0,-0.1 -0.1,-0.4 -0.3,-0.7 -0.5,-0.9 0,-0.1 -0.1,-0.1 -0.1,-0.1 v 0 c -0.1,0.1 -0.2,0.1 -0.3,0.1 0,0.1 0,0.2 0,0.2 z"
         id="path29" />
      <path
         style="fill:#ffffff;stroke:none"
         d="m 80.4,775.09 c 0,0 0.1,0 0.1,0 0,-0.1 0,-0.1 0.1,-0.1 0,-0.1 0,-0.1 0,-0.1 v 0 c -0.1,-0.1 -0.1,-0.1 -0.1,-0.2 -0.4,-0.3 -0.9,-0.5 -1.3,-0.7 -0.2,-0.1 -0.3,-0.2 -0.5,-0.3 -0.4,0 -0.9,-0.2 -1.2,-0.5 -0.5,-0.1 -1,-0.3 -1.5,-0.7 0,0 -0.1,-0.1 -0.2,-0.1 -0.2,0 -0.4,-0.2 -0.6,-0.3 v 0.1 c -0.2,0 -0.3,0 -0.4,0.1 1.2,0.6 2.5,1.3 3.6,2.1 0.6,0.5 1.3,0.6 2,0.7 z"
         id="path30" />
      <path
         style="fill:#ffffff;stroke:none"
         d="m 81.7,774.19 c -0.3,0.2 -0.4,0.4 -0.6,0.5 0.2,0.2 0.4,0.2 0.7,0 0.5,-0.3 1.1,-0.6 1.6,-0.8 0.1,0 0.1,0 0.1,0 0.6,-0.5 1.2,-0.9 2,-1.3 h -0.1 c 0,0 -0.1,0 -0.1,0 -1.2,0.6 -2.4,1.2 -3.6,1.6 z"
         id="path31" />
      <path
         style="fill:#ffffff;stroke:none"
         d="m 78.3,777.39 c 0,-0.2 0,-0.3 -0.1,-0.4 0,-0.1 0,-0.1 0,-0.1 0,0 0,0 0,-0.1 -0.3,-0.3 -0.6,-0.6 -0.8,-0.8 -0.7,-0.3 -1.4,-0.5 -2.2,-0.6 -0.2,0.2 -0.5,0.3 -0.8,0.3 0,0.1 -0.1,0.2 -0.1,0.2 -0.5,0.5 -1,0.8 -1.5,1.2 0,1.5 0.4,2.9 1.2,4.3 0,0.1 0.1,0.2 0.2,0.2 1.4,0.3 2.6,-0.1 3.4,-1.3 0,0 0,0 0,-0.1 0,0 0,0 0,-0.1 0.2,-0.1 0.2,-0.3 0.3,-0.4 0,-0.1 0,-0.2 0,-0.2 0.1,-0.2 0.2,-0.3 0.2,-0.5 0.1,0 0.1,-0.1 0.1,-0.2 0,0 0,0 0.1,-0.1 0,-0.4 0,-0.9 0,-1.3 z m -3.8,0.3 c 0.4,-0.3 0.9,-0.5 1.4,-0.3 0.6,0.5 0.6,1 -0.1,1.5 -0.1,0.1 -0.3,0.1 -0.4,0.1 -0.4,0 -0.7,-0.2 -0.9,-0.4 -0.1,-0.2 0,-0.4 0,-0.6 0,-0.1 0,-0.1 0,-0.3 z"
         id="path32" />
      <path
         style="fill:#5f5f61;stroke:none"
         d="m 75.9,777.39 c -0.5,-0.2 -1,0 -1.4,0.3 0,0.2 0,0.2 0,0.3 0,0.2 -0.1,0.4 0,0.6 0.2,0.2 0.5,0.4 0.9,0.4 0.1,0 0.3,0 0.4,-0.1 0.7,-0.5 0.7,-1 0.1,-1.5 z"
         id="path33" />
      <path
         style="fill:#ffffff;stroke:none"
         d="M 80.1,775.49 H 80 c 0,0 0,0 0,0.1 -0.1,0.5 -0.1,1.1 -0.1,1.8 0,0.3 0,0.6 0.1,1 0,0 0,0 0,0.1 0,0.4 -0.1,0.8 -0.3,1.2 0,0.3 0,0.6 -0.1,0.9 -0.1,0.6 0,1.2 0.4,1.5 0.2,-0.3 0.3,-0.6 0.3,-1 0,-0.3 0,-0.5 0.1,-0.7 0.3,-1.7 0.3,-3.4 -0.2,-4.9 v 0 z"
         id="path34" />
      <path
         style="fill:#ffffff;stroke:none"
         d="m 72.9,770.99 c -0.2,-0.1 -0.5,-0.3 -0.7,-0.5 0,0 -0.1,0 -0.1,0 0.2,0.4 0.4,0.5 0.9,0.6 z"
         id="path35" />
      <path
         style="fill:#ffffff;stroke:none"
         d="m 79.9,783.19 c 0,0 -0.1,0 -0.1,0.1 0,0 0,0 0,0.1 0,0.4 0,0.8 0,1.3 0,0.1 -0.1,0.2 -0.2,0.3 0,0 0,0 0,0.1 -0.1,0.5 -0.1,1 -0.1,1.5 0,0.1 -0.1,0.2 -0.1,0.2 0,0.1 0,0.2 0,0.2 0,0.7 0,1.4 0.1,2.1 0,-0.1 0.1,-0.1 0.1,-0.1 0,-0.1 0,-0.1 0,-0.1 0,-0.6 0,-1.2 0,-1.8 0.1,-0.1 0.2,-0.2 0.2,-0.2 v -0.1 c 0,-0.5 0,-1.1 0.2,-1.6 0,0 0.1,-0.1 0.1,-0.2 0,0 0,0 0,-0.1 0,0 0,0 0,-0.1 0,0 0,0 -0.1,-0.1 0,0 0,0 0,-0.1 v 0 c 0,-0.5 0.1,-0.9 0.1,-1.4 -0.1,0 -0.1,0 -0.1,-0.1 z"
         id="path36" />
      <path
         style="fill:#ffffff;stroke:none"
         d="m 91.6,768.99 c 0.1,-0.1 0.1,-0.1 0.1,-0.1 0.1,0 0.2,0 0.3,0 l 0.1,-0.1 v -0.1 c 0.6,-0.3 1.2,-0.6 1.8,-0.8 0.1,0 0.1,0 0.1,-0.1 0,-0.1 0.1,-0.2 0.2,-0.3 0,0 0,0 -0.1,0 0,0 -0.1,0 -0.2,0.1 -0.4,0.3 -0.9,0.5 -1.5,0.8 -0.1,0 -0.2,0.1 -0.4,0.2 v 0 0 c -0.1,0.1 -0.2,0.1 -0.2,0.1 -0.2,0.2 -0.3,0.2 -0.3,0.4 z"
         id="path37" />
      <path
         style="fill:#ffffff;stroke:none"
         d="m 90.1,769.89 c 0.2,0 0.4,-0.2 0.4,-0.3 0,0 -0.1,0 -0.1,0 -0.2,0.1 -0.3,0.2 -0.4,0.3 z"
         id="path38" />
      <path
         style="fill:#ffffff;stroke:none"
         d="m 89.7,770.09 c -0.1,0 -0.2,0 -0.3,0 -1.1,0.3 -2.2,0.9 -3,1.7 0.2,0.1 0.5,0.1 0.9,-0.1 v 0 c 0.9,-0.6 1.7,-1.1 2.4,-1.6 z"
         id="path39" />
    </g>
  </g>
</svg>
