<?xml version="1.0" encoding="UTF-8" standalone="no"?>
<!-- Created with Inkscape (http://www.inkscape.org/) -->

<svg
   width="34.669144mm"
   height="28.261311mm"
   viewBox="0 0 34.669144 28.261311"
   version="1.1"
   id="svg1"
   inkscape:version="1.3 (0e150ed6c4, 2023-07-21)"
   sodipodi:docname="stickers_breadcrumbs.svg"
   xmlns:inkscape="http://www.inkscape.org/namespaces/inkscape"
   xmlns:sodipodi="http://sodipodi.sourceforge.net/DTD/sodipodi-0.dtd"
   xmlns="http://www.w3.org/2000/svg"
   xmlns:svg="http://www.w3.org/2000/svg">
  <sodipodi:namedview
     id="namedview1"
     pagecolor="#ffffff"
     bordercolor="#000000"
     borderopacity="0.25"
     inkscape:showpageshadow="2"
     inkscape:pageopacity="0.0"
     inkscape:pagecheckerboard="0"
     inkscape:deskcolor="#d1d1d1"
     inkscape:document-units="mm"
     inkscape:zoom="0.74386223"
     inkscape:cx="65.200245"
     inkscape:cy="53.101231"
     inkscape:window-width="1920"
     inkscape:window-height="1027"
     inkscape:window-x="1912"
     inkscape:window-y="-8"
     inkscape:window-maximized="1"
     inkscape:current-layer="layer1" />
  <defs
     id="defs1" />
  <g
     inkscape:label="Layer 1"
     inkscape:groupmode="layer"
     id="layer1"
     transform="translate(-87.84166,-134.40841)">
    <path
       style="fill:#5f5f61;stroke:none;stroke-width:0.352778"
       d="m 88.097272,158.07973 c 0.3175,0.17639 0.564444,0.17639 0.705556,-0.10583 0.03528,-0.0353 0.03528,-0.0705 0.07055,-0.0705 0.07056,-0.49389 -0.141111,-0.81139 -0.635,-0.91723 -0.211667,0.0353 -0.352778,0.17639 -0.388055,0.42334 -0.03528,0.28222 0.03528,0.49389 0.246944,0.67027 z"
       id="path59" />
    <path
       style="fill:#5f5f61;stroke:none;stroke-width:0.352778"
       d="m 89.649494,158.07973 c -0.03528,0.0706 -0.07055,0.17639 -0.03528,0.35278 0.03528,0.38806 0.246945,0.56445 0.670278,0.56445 0.176389,0 0.282222,-0.10584 0.282222,-0.28223 0.03528,-0.45861 -0.141111,-0.74083 -0.599722,-0.88194 -0.141111,0.0706 -0.246944,0.10583 -0.3175,0.24694 z"
       id="path60" />
    <path
       style="fill:#5f5f61;stroke:none;stroke-width:0.352778"
       d="m 89.72005,161.60751 c -0.07056,0.0353 -0.141111,0.0706 -0.176389,0.14111 -0.105833,0.10584 -0.176389,0.24695 -0.176389,0.38806 -0.03528,0.24694 0.07056,0.42333 0.3175,0.49389 0.352778,0.10583 0.599722,0 0.705555,-0.35278 0.03528,-0.21167 0.03528,-0.35278 -0.03528,-0.49389 -0.105834,-0.10583 -0.246945,-0.17639 -0.458611,-0.21167 -0.07056,0.0353 -0.141111,0.0353 -0.176389,0.0353 z"
       id="path61" />
    <path
       style="fill:#5f5f61;stroke:none;stroke-width:0.352778"
       d="m 88.908661,161.00779 c 0.246944,-0.0353 0.388055,-0.17639 0.388055,-0.38806 0.07056,-0.45861 -0.176388,-0.70555 -0.635,-0.74083 -0.211666,0.0353 -0.3175,0.17639 -0.3175,0.38806 0,0.17639 0.03528,0.3175 0.105834,0.45861 0.105833,0.21166 0.246944,0.3175 0.458611,0.28222 z"
       id="path62" />
    <path
       style="fill:#5f5f61;stroke:none;stroke-width:0.352778"
       d="m 101.64394,146.15585 c -0.3175,0.10583 -0.67028,0.17638 -0.98778,0.21166 -0.49389,0.0353 -0.987777,0.17639 -1.375833,0.35278 -0.141111,0.0706 -0.211666,0.10583 -0.352777,0.17639 -0.599723,0.24694 -1.199445,0.59972 -1.658056,1.05833 0,0 0,0 0,0.0353 0,0 0,0 -0.03528,0.0353 -0.03528,0 -0.03528,0 -0.03528,0 -0.03528,0.0353 -0.07055,0.0706 -0.105833,0.10583 -0.07055,0.0706 -0.105833,0.14111 -0.141111,0.21167 -0.03528,0.0705 -0.07056,0.10583 -0.105833,0.17639 0,0 0,0 -0.03528,0.0353 0,0 0,0.0353 0,0.0706 -0.03528,0.0353 -0.03528,0.0706 -0.07056,0.10583 0,0 -0.03528,0.0353 -0.03528,0.0353 -0.03528,0.0353 -0.03528,0.0353 -0.03528,0.0353 0,0.0353 0,0.0705 -0.03528,0.0705 0,0.0353 0,0.0353 0,0.0353 0,0.0353 0,0.0353 0,0.0353 v 0.0353 c -0.03528,0 -0.03528,0 -0.03528,0.0353 0,0 0,0 -0.03528,0.0353 0,0 0,0 0,0.0353 0,0 0,0 0,0.0353 0,0 0,0 0,0.0353 -0.03528,0 -0.03528,0 -0.03528,0.0353 -0.03528,0 -0.03528,0 -0.03528,0.0353 v 0 c 0,0.0353 0,0.0353 -0.03528,0.0353 0,0.0353 0,0.0706 0,0.0706 0,0.0353 0,0.0705 0,0.0705 0,0.0353 0,0.0353 -0.03528,0.0353 0,0.0353 0,0.0353 0,0.0353 l -0.03528,0.0353 c 0,0 0,0 0,0.0353 0,0 0,0 0,0.0353 0,0 0,0.0353 0,0.0706 -0.03528,0.0353 -0.03528,0.0705 -0.03528,0.10583 0,0 0,0.0353 -0.03528,0.0353 0,0.0353 0,0.0353 0,0.0353 0,0.0353 0,0.0353 0,0.0353 0,0.10584 0,0.21167 -0.03528,0.3175 0,0.0706 0,0.14111 0,0.21167 0,0.0353 0,0.0353 0.03528,0.0353 -0.03528,0.0353 -0.03528,0.0353 -0.07056,0.0353 -0.105833,0.0706 -0.176388,0.10584 -0.282222,0.17639 v 0 c 0,0.0353 0,0.0353 0,0.0353 -0.141111,0.0706 -0.246944,0.17639 -0.388055,0.28222 -0.141111,0.10584 -0.282223,0.21167 -0.423334,0.35278 -0.670277,0.45861 -1.340555,0.9525 -1.975555,1.44639 -0.03528,0.10583 -0.03528,0.17639 0,0.28222 0.03528,0.10584 0.03528,0.24695 0.03528,0.35278 0,0.0353 0,0.0353 0.03528,0.0353 0,0.0353 0,0.0353 0.03528,0.0353 0,0.0705 0,0.10583 0,0.14111 -0.03528,0.0705 0,0.14111 0.03528,0.21166 1.411111,0.10584 2.822222,0.17639 4.233333,0.21167 0.07056,0 0.141111,0.0353 0.176389,0.0353 0.03528,0 0.03528,0 0.03528,-0.0353 0,0 0,0 0.03528,0 0.03528,0 0.07055,0 0.141111,0 0.03528,0 0.03528,0 0.03528,0 0.03528,0 0.07055,0.0353 0.105833,0.0706 0,0 0,0 0.03528,0 0.246944,0.3175 0.564444,0.52916 0.9525,0.635 0.493889,0.10583 0.952503,0.14111 1.481673,0.0705 0.9525,-0.14111 1.905,-0.42333 2.78694,-0.81139 0.70556,-0.3175 1.41111,-0.67028 2.11667,-1.05833 0.35278,-0.17639 0.70555,-0.24695 1.05833,-0.24695 0,0.0353 0,0.0353 0,0.0353 0,0 0,0 0,0 0,0.0353 0,0.0353 0.0353,0.0353 v 0 c 0,0 0.0705,0.0353 0.10583,0.0353 0,0 0,0 0,0 0.0353,0 0.0353,0 0.0353,0 v 0.0353 c 0.0706,0.0353 0.14111,0.0705 0.17639,0.10583 0.0353,0.0353 0.0705,0.0353 0.10583,0.0353 h 0.0353 c 0.45861,0.45861 1.02306,0.81139 1.5875,1.09361 0.0353,0 0.0706,0 0.10583,0.0353 0.0353,0 0.0353,0 0.0353,0.0353 0.0353,0 0.0353,0 0.0353,0.0353 0.88194,0.35278 1.76389,0.52917 2.71639,0.49389 -0.17639,0.35278 -0.42334,0.67028 -0.70556,0.9525 -0.10583,0.14111 -0.17639,0.3175 -0.3175,0.42333 -0.67028,0.74084 -1.44639,1.37584 -2.32833,1.905 -0.17639,0.14111 -0.35278,0.3175 -0.52917,0.49389 l -0.0353,-0.0705 c 0,-0.0353 0,-0.0353 0,-0.0353 0,-0.0353 0,-0.0353 -0.0353,-0.0353 -0.17639,-0.0353 -0.38806,-0.0353 -0.59973,-0.0353 -0.0705,0 -0.14111,0 -0.21166,0 -0.70556,0 -1.41111,0.0706 -2.11667,0.28223 -0.17639,0.0705 -0.35278,0.17638 -0.49389,0.3175 0,0 0,0 0,0.0353 0,0.0353 0,0.0706 0,0.10584 0,0.0353 0,0.0353 0,0.0353 0,0.0353 0,0.0353 0.0353,0.0353 0,0.0353 0,0.0353 0.0353,0.0353 0,0.0353 0,0.0353 0.0353,0.0353 0,0.0353 0.0353,0.0353 0.0353,0.0353 0.3175,0.0705 0.59973,0.10583 0.91723,0.10583 0.42333,0 0.81138,0.0353 1.19944,0.10583 0.14111,0.0353 0.24694,0.0353 0.35278,0.0706 0,0 0,0 0,0.0353 v 0 c 0.0353,0.0353 0.0705,0.0353 0.10583,0.0705 -0.17639,0.17639 -0.35278,0.35278 -0.52917,0.49389 -0.0705,0.0353 -0.10583,0.0706 -0.10583,0.14111 -0.21167,0.14111 -0.38805,0.28222 -0.56444,0.42333 -0.0353,0.0353 -0.0353,0.0353 -0.0353,0.0706 -0.0706,0.0353 -0.10583,0.10583 -0.14111,0.14111 0,0 0,0 0,-0.0353 -0.0353,0 -0.0353,0 -0.0353,0 -0.0353,0 -0.0353,0 -0.0353,0 0,0 0,0 0,0.0353 -0.0353,0 -0.0353,0 -0.0353,0.0353 -0.0353,0 -0.0353,0 -0.0353,0 -0.0353,0.0705 -0.0706,0.10583 -0.10584,0.14111 0,0.0706 0,0.10583 0,0.14111 -0.0353,0.10583 0,0.21167 0,0.3175 0.0353,0 0.0353,0 0.0353,0 0,0.0353 0,0.0706 0.0353,0.0706 0.45861,0.21166 0.84667,0.14111 1.19944,-0.21167 0.52917,-0.49389 1.05834,-1.02306 1.5875,-1.5875 0.0353,0 0.0706,0 0.10584,-0.0353 0.0705,0 0.10583,-0.0353 0.14111,-0.0353 0.17639,0 0.42333,0 0.635,0.0353 0.52916,0.10584 1.09361,0.14111 1.65805,0.17639 0,-0.0705 0.0353,-0.10583 0.0706,-0.14111 0.0353,-0.0353 0.0705,-0.0706 0.0705,-0.10583 0,0 0,0 0.0353,-0.0353 0,0 0,0 0,-0.0353 0,-0.0353 0,-0.0705 0,-0.10583 0,0 0,-0.0353 0,-0.0353 0,-0.0353 0,-0.0353 0,-0.0353 -0.0353,-0.0353 -0.0353,-0.0353 -0.0353,-0.0353 -0.59972,-0.42333 -1.27,-0.67027 -1.97555,-0.74083 0.70555,-0.49389 1.41111,-0.98778 2.11667,-1.48167 0.10583,-0.10583 0.24694,-0.24694 0.35277,-0.35277 0.38806,-0.3175 0.67028,-0.67028 0.88195,-1.05834 0.0353,-0.0353 0.0705,-0.0353 0.0705,-0.0353 0.0706,-0.14112 0.17639,-0.28223 0.28223,-0.38806 0,-0.0353 0,-0.0353 0,-0.0353 0,-0.0353 0,-0.0353 0,-0.0353 0.0705,-0.14111 0.17638,-0.28222 0.24694,-0.38805 0,-0.0353 0,-0.0353 0,-0.0353 0.0706,-0.10583 0.10583,-0.21167 0.17639,-0.28222 0.17639,-0.0353 0.35278,-0.0706 0.52917,-0.10583 0.14111,-0.0706 0.28222,-0.10584 0.45861,-0.10584 0.9525,-0.17639 1.79916,-0.59972 2.43416,-1.30528 0.635,0.0706 1.30528,0.0706 1.94028,-0.10583 -0.0705,0.14111 -0.14111,0.24695 -0.21167,0.38806 -0.0353,0.0353 -0.0353,0.0353 -0.0353,0.0353 0,0.0353 0,0.0353 0,0.0353 0,0.0353 0,0.0353 0,0.0353 -0.0353,0.0706 -0.0706,0.14111 -0.14111,0.21167 0,0 0,0 0,0.0353 v 0 c -0.0353,0.0706 -0.0706,0.14112 -0.0706,0.17639 -0.0353,0.0353 -0.0353,0.0353 -0.0353,0.0353 0,0.0353 0,0.0353 0,0.0353 0,0.0353 0,0.0353 -0.0353,0.0705 0,0.0353 -0.0705,0.0706 -0.0705,0.10584 0,0 0,0 0,0.0353 0,0 0,0 0,0.0353 0,0.0353 -0.0353,0.0706 -0.0706,0.10584 0,0.0353 0,0.0353 0,0.0353 0,0.0353 0,0.0353 -0.0353,0.0353 0,0.0353 0,0.0353 -0.0353,0.0353 0,0.0353 0,0.0353 0,0.0353 0,0.0353 0,0.0353 0,0.0353 0,0.0353 0,0.0353 -0.0353,0.0353 0,0.0706 -0.0353,0.10584 -0.0353,0.17639 -0.0353,0 -0.0353,0 -0.0353,0.0353 -0.10583,0.14111 -0.17638,0.3175 -0.28222,0.49389 0,0 -0.0353,0 -0.0353,0.0353 0,0 0,0 0,0.0353 v 0 c -0.0353,0.0353 -0.0706,0.0706 -0.10583,0.0706 0,0.0706 -0.0353,0.10583 -0.0705,0.14111 0,0.0353 0,0.0353 0,0.0353 0,0.0353 0,0.0353 0,0.0705 -0.0706,0.0353 -0.0706,0.0706 -0.10584,0.14112 -0.0353,0 -0.0353,0 -0.0353,0.0353 v 0 c -0.0705,0.14111 -0.14111,0.24695 -0.17638,0.35278 -0.0353,0 -0.0353,0 -0.0353,0.0353 0,0 0,0 -0.0353,0.0353 -0.0353,0.0705 -0.0706,0.14111 -0.10583,0.21166 0,0.0353 0,0.0353 0,0.0353 0,0.0353 0,0.0706 0,0.0706 -0.10584,0.14111 -0.21167,0.28222 -0.28223,0.45861 0,-0.0353 0,-0.0353 -0.0353,-0.0353 v 0.0353 c -0.28223,0 -0.56445,0.0353 -0.88195,0.0353 -0.0353,0 -0.0353,0 -0.0353,0.0353 -0.56444,0 -1.12888,0.0353 -1.69333,0.0706 -0.21167,0.0353 -0.38805,0.10583 -0.52917,0.24694 -0.0706,0.0706 -0.14111,0.17639 -0.21166,0.28223 0.0353,0.0353 0.0353,0.0705 0,0.10583 v 0.0353 c -0.0353,0 -0.0353,0 -0.0353,0 0,0.0353 0,0.0353 0,0.0353 0,0.0353 0,0.0353 0,0.0353 0,0.0706 0,0.10584 0,0.14111 0,0.0353 0,0.0353 0,0.0706 0.0353,0 0.0706,0 0.0706,0 0.0353,0 0.0705,0.0706 0.10583,0.0706 0,0.0353 0.0353,0.0353 0.0706,0.0353 0.0353,0 0.0353,0 0.0353,0.0353 0.0353,0.0353 0.0706,0.0706 0.14111,0.10583 0.59973,0 1.16417,0 1.79917,0.0353 0.17639,0.0353 0.35278,0 0.49389,-0.0353 -0.14111,0.17639 -0.28222,0.28223 -0.42333,0.42334 -0.0353,0.0705 -0.0706,0.14111 -0.10584,0.17639 -0.35278,0.35277 -0.59972,0.70555 -0.84666,1.12888 0,0.0353 0,0.10584 0,0.17639 0,0.10584 0,0.21167 0,0.35278 0.0353,0 0.0353,0 0.0353,0.0353 0.17639,0.0353 0.35278,0.0705 0.52917,0.0353 0.10583,-0.0353 0.21167,-0.10584 0.35278,-0.17639 0.10583,-0.0353 0.21166,-0.10584 0.3175,-0.17639 0.70555,-0.49389 1.23472,-1.05833 1.62278,-1.79917 0.45861,0.0353 0.91722,0.0706 1.34055,0.21167 0.42333,0 0.81139,-0.0353 1.27,-0.0353 0.3175,0 0.59972,-0.14111 0.81139,-0.35278 0.0353,0 0.0353,-0.0705 0.0353,-0.10583 0.0353,-0.0353 0.0353,-0.0706 0.0705,-0.0706 0,0 0,0 0,-0.0353 0,-0.0353 0,-0.0706 0.0353,-0.0706 0,-0.0353 -0.0353,-0.0705 -0.0353,-0.10583 -0.0353,-0.0353 -0.0353,-0.0706 -0.0353,-0.14111 -0.0353,-0.0706 -0.14112,-0.14111 -0.21167,-0.17639 -0.0706,0 -0.14111,-0.0353 -0.24695,-0.0353 -0.81138,-0.0353 -1.62277,-0.14111 -2.43416,-0.35278 0,-0.0353 0,-0.0353 0,-0.0353 0,-0.0353 0,-0.0353 0.0353,-0.0353 0,-0.0353 0,-0.0353 0,-0.0353 0,-0.0353 0,-0.0353 0,-0.0353 0,-0.0353 0,-0.0353 0,-0.0353 0.0353,-0.0353 0.0353,-0.0353 0.0353,-0.0353 0,-0.0706 0.0353,-0.10584 0.0706,-0.14112 0,0 0,0 0,-0.0353 0,0 0,0 0,-0.0353 0,0 0,0 0,-0.0353 0.0353,0 0.0705,-0.0353 0.0705,-0.0705 v 0 c 0.0353,-0.0353 0.0353,-0.0706 0.0353,-0.0706 0,-0.0353 0,-0.0353 0,-0.0353 0.0353,-0.0353 0.0353,-0.0705 0.0706,-0.10583 0,-0.0353 0,-0.0353 0,-0.0353 v -0.0353 c 0,0 0,0 0,-0.0353 0.10583,-0.14112 0.17639,-0.3175 0.24694,-0.45862 v -0.0353 c 0,0 0,0 0,-0.0353 0.0353,0 0.0353,0 0.0353,-0.0353 0.0353,-0.10583 0.10583,-0.24694 0.17639,-0.35278 0,-0.0353 0,-0.0353 0.0353,-0.0353 0,-0.0353 0,-0.0353 0,-0.0353 0.21166,-0.35278 0.38805,-0.70556 0.56444,-1.05834 v -0.0353 c 0,0 0,0 0,-0.0353 0,0 0,0 0,-0.0353 0.14111,-0.21167 0.24695,-0.42333 0.35278,-0.635 0,0 0,0 0,-0.0353 0,-0.0353 0.0353,-0.10583 0.0705,-0.14111 0,-0.0353 0,-0.0353 0,-0.0353 0,-0.0353 0,-0.0353 0,-0.0353 0.0353,-0.0353 0.0353,-0.0353 0.0353,-0.0353 0,-0.0353 0.0353,-0.0706 0.0706,-0.10583 0,0 0,0 0,-0.0353 0,0 0,0 0,-0.0353 0,0 0,0 0,0 0,-0.0706 0.0353,-0.10583 0.0705,-0.14111 v 0 c 0,-0.0353 0,-0.0353 0,-0.0353 0.0353,0 0.0353,0 0.0353,-0.0353 0,-0.0353 0,-0.0353 0.0353,-0.0353 0,-0.0353 0,-0.0353 0,-0.0353 0,-0.0353 0,-0.0353 0,-0.0353 0,-0.0353 0,-0.0353 0,-0.0353 0.0353,-0.0353 0.0353,-0.0705 0.0353,-0.10583 0,0 0,0 0.0353,-0.0353 0,0 0,0 0,-0.0353 0.0353,0 0.0353,0 0.0353,0 0,-0.0353 0,-0.0353 0,-0.0705 0,0 0,0 0,-0.0353 0,0 0,0 0,-0.0353 0.0353,0 0.0353,0 0.0353,-0.0353 h 0.0353 c 0.3175,-0.17638 0.635,-0.38805 0.91722,-0.635 v 0 c 0,-0.0353 0.0706,-0.0705 0.10583,-0.0705 0.14111,-0.21167 0.24695,-0.38806 0.42334,-0.52917 0.0705,-0.17639 0.17639,-0.3175 0.3175,-0.42333 0,0 0,0 0.0353,-0.0353 0.0706,-0.10583 0.14112,-0.21167 0.17639,-0.3175 0,0 0,0 0,-0.0353 0.10584,-0.10583 0.17639,-0.24694 0.28223,-0.38805 0.0706,-0.10584 0.0706,-0.17639 0.10583,-0.24695 0.14111,-0.52916 0.14111,-1.05833 0.0705,-1.62277 0,0 0,0 -0.0353,-0.0353 0,-0.0353 0,-0.0706 0,-0.14111 -0.0706,-0.17639 -0.14111,-0.35278 -0.24695,-0.52917 0,0 0,0 0,-0.0353 0,0 0,-0.0353 0,-0.0353 0,-0.0353 -0.0353,-0.0705 -0.0353,-0.10583 -0.10583,-0.21167 -0.21166,-0.38805 -0.3175,-0.56444 0,-0.0353 0,-0.0353 0,-0.0353 0,-0.0353 0,-0.0353 0,-0.0353 -0.0353,-0.0353 -0.0705,-0.0705 -0.0705,-0.14111 -0.28222,-0.49389 -0.52917,-0.98778 -0.81139,-1.44639 -0.0353,-0.0353 -0.0353,-0.0353 -0.0353,-0.0353 -0.3175,-0.52916 -0.67028,-1.02305 -1.05833,-1.48166 0,-0.0353 0,-0.0353 -0.0353,-0.0353 0.52917,-0.67028 0.9525,-1.41111 1.30528,-2.18722 0,0 0,0 0,-0.0353 0,0 0,0 0,-0.0353 0.10583,-0.14111 0.17639,-0.28222 0.24694,-0.45861 0,-0.0705 0.0353,-0.17639 0.10584,-0.24694 0,-0.17639 0.0705,-0.3175 0.0705,-0.45861 0.0353,-0.0353 0.0353,-0.0706 0.0353,-0.0706 0,-0.0353 0,-0.0353 0,-0.0353 0,-0.0705 0,-0.10583 0,-0.14111 0.0353,0 0.0353,-0.0353 0.0706,-0.0353 0,-0.0353 0,-0.0353 0,-0.0705 0,-0.0353 0,-0.10584 0,-0.14111 0,-0.0353 0,-0.0706 0,-0.0706 0,-0.0353 0,-0.0353 0,-0.0353 0,-0.0353 0,-0.0353 0,-0.0353 0.0353,0 0.0705,-0.0706 0.0705,-0.0706 v -0.0353 c 0,-0.0705 0,-0.21166 0,-0.28222 0.0353,-0.0353 0.0353,-0.0706 0.0353,-0.0706 0,-0.0353 0,-0.0353 0,-0.0353 0,-0.10584 0,-0.21167 0,-0.28223 0,-0.0353 0,-0.0353 0,-0.0705 0.0353,0 0.0353,-0.0353 0.0705,-0.0353 0,0 0,0 0,-0.0353 0,-0.17639 0,-0.35277 0,-0.49389 0,0 0,0 0,-0.0353 0,-0.0353 0.0353,-0.0353 0.0706,-0.0353 0,-0.0353 0,-0.0706 0.0353,-0.10583 0.0353,-0.0706 0.0705,-0.10584 0.14111,-0.17639 0,-0.0353 0.0353,-0.0706 0.0353,-0.10584 0.0705,-0.10583 0.14111,-0.21166 0.17639,-0.3175 v -0.0353 c 0,0 0,0 0,-0.0353 0.0353,-0.0353 0.0706,-0.0706 0.0706,-0.14111 0,-0.0353 0,-0.0706 0,-0.0706 0.0353,-0.0353 0.0353,-0.0353 0.0706,-0.0353 0,-0.0705 0,-0.14111 0.0353,-0.17639 0.0353,-0.14111 0.0706,-0.24694 0.14112,-0.3175 0,-0.0705 0,-0.10583 0,-0.14111 0.0353,-0.0706 0.0705,-0.10583 0.10583,-0.14111 0,-0.0705 0,-0.17639 0.0353,-0.28222 0.0705,-0.21167 0.0705,-0.45861 0,-0.70556 -0.0353,-0.0353 -0.0353,-0.0705 -0.0353,-0.10583 -0.0353,-0.0705 -0.10583,-0.14111 -0.17639,-0.21167 v 0 c 0,-0.0353 0,-0.0353 0,-0.0353 0,-0.0353 0,-0.0353 0,-0.0353 0,-0.0353 0,-0.0353 0,-0.0353 -0.0353,-0.0353 -0.0706,-0.0705 -0.10583,-0.10583 0,-0.0353 -0.0353,-0.0706 -0.0706,-0.10584 0,0 -0.0353,0 -0.0706,-0.0353 -0.0706,0 -0.10584,0 -0.14112,0 -0.10583,0 -0.17638,0 -0.24694,0.0705 -0.42333,0.45861 -0.9525,0.91722 -1.48167,1.30528 0,0 0,0 -0.0353,0.0353 0,0 -0.0353,0.0353 -0.0706,0.0353 -0.0353,0.0353 -0.0706,0.0353 -0.0706,0.0353 0,0.0353 -0.0353,0.0353 -0.0706,0.0706 0,0 0,0 -0.0353,0 0,0.0353 0,0.0353 0,0.0353 -0.0705,0.0353 -0.0705,0.0705 -0.14111,0.0705 -0.0353,0.0706 -0.10583,0.10584 -0.10583,0.17639 -0.52917,0.52917 -1.09361,0.9525 -1.79917,1.30528 0,0.0353 -0.0353,0.0353 -0.0353,0.0353 -0.0353,0 -0.0705,0.0353 -0.10583,0.0353 -0.42333,0.24695 -0.88195,0.49389 -1.34056,0.635 -0.0353,0.0353 -0.0705,0.0353 -0.0705,0.0353 0,0 -0.0353,0.0353 -0.0706,0.0353 -0.10583,0.0706 -0.17639,0.14111 -0.28222,0.17639 -0.635,0.3175 -1.27,0.67028 -1.905,1.02305 -0.0353,0 -0.0706,0 -0.10583,0 v 0 c -0.0353,0 -0.10584,-0.0353 -0.14111,-0.0353 -0.35278,-0.0353 -0.70556,-0.0706 -1.05834,-0.0706 -0.52916,0.0353 -1.02305,0.14111 -1.48166,0.38806 -0.49389,0.21166 -0.98778,0.3175 -1.48167,0.3175 -0.35278,0 -0.70556,0.0706 -0.98778,0.17639 -0.45861,0.21166 -0.91722,0.49388 -1.34055,0.81138 -0.38806,0.28223 -0.81139,0.56445 -1.19945,0.84667 -0.10583,0.0353 -0.17639,0.10583 -0.28222,0.17639 0,0 -0.0706,0.0353 -0.0706,0.0706 -0.10583,0.0706 -0.21166,0.17638 -0.28222,0.24694 -0.24694,0.21167 -0.42333,0.42333 -0.635,0.635 0,0.0353 0,0.0353 0,0.0353 0,0.0353 0,0.0353 0,0.0353 0,0 0,0 -0.0353,0.0353 0,0 0,0 -0.0353,0.0353 0,0.0353 0,0.0706 -0.0706,0.10583 -0.0706,0.10584 -0.17639,0.21167 -0.28222,0.3175 0,0.0353 0,0.0353 0,0.0353 -0.0706,0.0353 -0.0706,0.10584 -0.10584,0.14111 -0.0353,0.0353 -0.0705,0.0706 -0.0705,0.0706 -0.0353,0.0353 -0.0706,0.0353 -0.0706,0.0353 0,0.0353 0,0.0353 0,0.0353 -0.635,0.635 -1.30527,1.23473 -1.94027,1.79917 -0.17639,0.10583 -0.35278,0.21167 -0.49389,0.3175 0.0353,0 0.0353,0 0.0353,0 -0.0706,0.0353 -0.14112,0.0706 -0.21167,0.0706 z m -0.21167,2.78694 c 0,0.0353 0,0.0353 0,0.0353 0.0353,0.0353 0.0353,0.0353 0.0353,0.0353 0.0353,0.0353 0.0353,0.0353 0.0353,0.0353 0,0.0353 0,0.0706 0,0.0706 0,0.0353 0,0.0353 0,0.0705 0,0 0,0 0,0.0353 0,0 0,0 0,0.0353 0,0 0,0 0.0353,0.0353 0,0 0,0 0.0353,0.0353 0,0.0353 0,0.0705 0,0.10583 0,0.14111 0,0.24694 0,0.35278 0,0.0705 0,0.17639 0,0.24694 -0.0353,0.0353 -0.0353,0.0353 -0.0353,0.0353 -0.0353,0.0353 -0.0353,0.0353 -0.0353,0.0353 0,0.0353 0,0.0706 0,0.10583 0.0353,0.0353 0,0.0706 0,0.10583 -0.0353,0.0353 -0.0706,0.0706 -0.0706,0.10584 0,0 0,0 0,0.0353 -0.0353,0.0706 -0.0705,0.14112 -0.14111,0.24695 -0.0353,0.0705 -0.0706,0.14111 -0.10583,0.21167 -0.56445,0.74083 -1.340558,0.98777 -2.293058,0.77611 -0.141111,-0.10584 -0.282222,-0.21167 -0.352778,-0.3175 -0.105833,-0.14111 -0.211667,-0.24695 -0.282222,-0.38806 0,-0.0353 0,-0.0353 0,-0.0705 -0.03528,-0.0353 -0.03528,-0.0706 -0.03528,-0.10584 -0.03528,-0.0353 -0.03528,-0.0705 -0.03528,-0.0705 -0.07055,-0.28223 -0.07055,-0.56445 -0.03528,-0.84667 0.03528,-0.17639 0.07056,-0.38806 0.105834,-0.56444 0,-0.0353 0,-0.0706 0,-0.0706 0.03528,-0.0353 0.07055,-0.0706 0.07055,-0.10583 0,-0.0353 0,-0.0353 0,-0.0706 0.03528,0 0.03528,0 0.03528,-0.0353 0.03528,0 0.03528,0 0.07056,-0.0353 0,0 0,0 0.03528,0 0.03528,-0.0353 0.03528,-0.0706 0.07056,-0.10584 0.458611,-0.38805 0.987778,-0.67028 1.622774,-0.77611 0.21167,-0.0353 0.38806,-0.0353 0.59972,0.0353 0.28223,0.10583 0.49389,0.28222 0.56445,0.56444 0,0 0,0 0.0353,0.0353 0,0 0,0 0.0353,0.0353 0,0 0,0 0,0.0353 0,0 0,0 0,0.0353 0,0 0,0 0,0 0,0.0353 0,0.0353 0,0.0353 z m -1.481665,-2.2225 c 0,-0.0353 -0.03528,-0.0353 -0.07055,-0.0353 0.03528,0 0.07055,0 0.07055,0 z m -2.892778,6.45583 c 0,0.0353 0,0.0353 0.03528,0.0353 -0.987778,-0.14111 -1.940278,-0.14111 -2.892778,0 -0.03528,0 -0.03528,0 -0.03528,0 0,-0.0353 -0.03528,-0.0353 -0.03528,-0.0705 -0.03528,0 -0.03528,-0.0353 -0.03528,-0.0706 0,-0.0353 -0.07055,-0.0706 -0.07055,-0.14111 0.705555,-0.49389 1.375833,-0.91722 2.081388,-1.34056 v 0.0353 c -0.03528,0.0353 -0.03528,0.0353 -0.03528,0.0706 0.07055,0 0.105833,-0.0353 0.105833,-0.10584 0.03528,0 0.03528,0 0.03528,-0.0353 0.03528,0 0.03528,0 0.07055,-0.0353 0.03528,0 0.03528,0.0353 0.03528,0.0353 -0.03528,0.0705 -0.03528,0.10583 0,0.14111 0,0.0353 0,0.0353 0,0.0353 0.03528,0.0353 0.03528,0.0353 0.03528,0.0353 0,0.0706 0,0.0706 0,0.14111 0,0.10584 0.03528,0.24695 0.03528,0.35278 0.03528,0.0353 0.03528,0.0353 0.03528,0.0353 0.03528,0.0705 0.07056,0.14111 0.141111,0.21167 0.141112,0.21166 0.282223,0.42333 0.458612,0.635 0,0.0353 0,0.0353 0.03528,0.0353 z m 0.740834,0.77611 v 0 c -0.03528,-0.0353 -0.03528,-0.0353 -0.07056,-0.0353 z m -1.763889,-3.21027 z m 23.459718,-7.47889 c 0,0 0,0.0353 -0.0353,0.0353 0,0 0,0 -0.0353,0 z m -12.13555,-1.94028 c -0.0353,0.0353 -0.0353,0.0353 -0.0706,0.0353 0.0353,0 0.0353,0 0.0706,-0.0353 z m -1.23472,0.9525 c 0,0 0,0 -0.0353,0 v -0.0353 c 0,0 0,0 0.0353,0 z m 7.54944,-2.68111 c 0.0353,0 0.0706,0 0.0706,0.0353 -0.0353,0 -0.0353,0.0353 -0.0706,0.0705 z m 2.50472,13.37028 c 0,0.0353 0,0.0353 -0.0353,0.0353 z m 0.52917,3.10444 v 0.0706 c 0,-0.0353 0,-0.0353 0,-0.0353 z"
       id="path63" />
    <path
       style="fill:#ffffff;stroke:none;stroke-width:0.352778"
       d="m 101.43227,148.97807 c 0,0 0,0 0,-0.0353 0,0 0,0 -0.0353,-0.0353 0,0 0,0 0,-0.0353 0,0 0,0 0,0 0,-0.0353 0,-0.0353 0,-0.0353 0,-0.0353 0,-0.0353 0,-0.0353 -0.0353,-0.0353 -0.0353,-0.0353 -0.0353,-0.0353 -0.0353,-0.0353 -0.0353,-0.0353 -0.0353,-0.0353 -0.0706,-0.28222 -0.28222,-0.45861 -0.56445,-0.56444 -0.21166,-0.0706 -0.38805,-0.0706 -0.59972,-0.0353 -0.634998,0.10583 -1.164165,0.38806 -1.622776,0.77611 -0.03528,0.0353 -0.03528,0.0706 -0.07056,0.10584 -0.03528,0 -0.03528,0 -0.03528,0 -0.03528,0.0353 -0.03528,0.0353 -0.07056,0.0353 0,0.0353 0,0.0353 -0.03528,0.0353 0,0.0353 0,0.0353 0,0.0706 0,0.0353 -0.03528,0.0705 -0.07055,0.10583 0,0 0,0.0353 0,0.0706 -0.03528,0.17638 -0.07056,0.38805 -0.105834,0.56444 -0.03528,0.28222 -0.03528,0.56444 0.03528,0.84667 0,0 0,0.0353 0.03528,0.0705 0,0.0353 0,0.0706 0.03528,0.10584 0,0.0353 0,0.0353 0,0.0705 0.07055,0.14111 0.176389,0.24695 0.282222,0.38806 0.07056,0.10583 0.211667,0.21166 0.352778,0.3175 0.9525,0.21166 1.72861,-0.0353 2.29306,-0.77611 0.0353,-0.0706 0.0706,-0.14112 0.10583,-0.21167 0.0706,-0.10583 0.10583,-0.17639 0.14111,-0.24695 0,-0.0353 0,-0.0353 0,-0.0353 0,-0.0353 0.0353,-0.0706 0.0706,-0.10584 0,-0.0353 0.0353,-0.0705 0,-0.10583 0,-0.0353 0,-0.0706 0,-0.10583 0,0 0,0 0.0353,-0.0353 0,0 0,0 0.0353,-0.0353 0,-0.0705 0,-0.17639 0,-0.24694 0,-0.10584 0,-0.21167 0,-0.35278 0,-0.0353 0,-0.0706 0,-0.10583 -0.0353,-0.0353 -0.0353,-0.0353 -0.0353,-0.0353 -0.0353,-0.0353 -0.0353,-0.0353 -0.0353,-0.0353 0,-0.0353 0,-0.0353 0,-0.0353 0,-0.0353 0,-0.0353 0,-0.0353 0,-0.0353 0,-0.0353 0,-0.0705 0,0 0,-0.0353 0,-0.0706 0,0 0,0 -0.0353,-0.0353 z m -0.91722,0.67028 c 0,0.0705 0,0.14111 0.0353,0.21166 0,0.0706 0,0.10584 0,0.14111 -0.0353,0.0353 -0.0353,0.0353 -0.0353,0.0353 -0.0353,0.0353 -0.0353,0.0706 -0.0706,0.10583 0,0 0,0.0353 0,0.0706 -0.21166,0.17639 -0.42333,0.17639 -0.634996,0 -0.03528,-0.0353 -0.07056,-0.0353 -0.07056,-0.0706 h -0.03528 c -0.03528,-0.0353 -0.03528,-0.0353 -0.03528,0 v 0 c -0.03528,-0.0353 -0.03528,-0.0706 -0.03528,-0.10583 -0.03528,-0.14111 -0.03528,-0.3175 -0.03528,-0.45861 0.03528,-0.0353 0.03528,-0.0353 0.03528,-0.0353 0.03528,-0.0353 0.141111,-0.10583 0.176389,-0.14111 0.03528,0 0.03528,0 0.03528,0 0.282217,-0.0705 0.493887,-0.0353 0.634997,0.17639 0.0353,0 0.0353,0 0.0353,0.0353 z"
       id="path64" />
    <path
       style="fill:#5f5f61;stroke:none;stroke-width:0.352778"
       d="m 100.55033,149.86001 c -0.0353,-0.0705 -0.0353,-0.14111 -0.0353,-0.21166 0,-0.0353 0,-0.0353 0,-0.0353 0,-0.0353 0,-0.0353 -0.0353,-0.0353 -0.14111,-0.21167 -0.35278,-0.24694 -0.634998,-0.17639 0,0 0,0 -0.03528,0 -0.03528,0.0353 -0.141111,0.10583 -0.176389,0.14111 0,0 0,0 -0.03528,0.0353 0,0.14111 0,0.3175 0.03528,0.45861 0,0.0353 0,0.0706 0.03528,0.10583 v 0 c 0,-0.0353 0,-0.0353 0.03528,0 h 0.03528 c 0,0.0353 0.03528,0.0353 0.07056,0.0706 0.211667,0.17639 0.423337,0.17639 0.634997,0 0,-0.0353 0,-0.0706 0,-0.0706 0.0353,-0.0353 0.0353,-0.0706 0.0706,-0.10583 0,0 0,0 0.0353,-0.0353 0,-0.0353 0,-0.0705 0,-0.14111 z"
       id="path65" />
    <path
       style="fill:#ffffff;stroke:none;stroke-width:0.352778"
       d="m 97.093105,153.2114 c -0.03528,0 -0.03528,0 -0.03528,-0.0353 -0.03528,0 -0.03528,0 -0.03528,-0.0353 -0.176389,-0.21167 -0.3175,-0.42334 -0.458612,-0.635 -0.07055,-0.0706 -0.105833,-0.14112 -0.141111,-0.21167 0,0 0,0 -0.03528,-0.0353 0,-0.10583 -0.03528,-0.24694 -0.03528,-0.35278 0,-0.0705 0,-0.0705 0,-0.14111 0,0 0,0 -0.03528,-0.0353 0,0 0,0 0,-0.0353 -0.03528,-0.0353 -0.03528,-0.0706 0,-0.14111 0,0 0,-0.0353 -0.03528,-0.0353 -0.03528,0.0353 -0.03528,0.0353 -0.07055,0.0353 0,0.0353 0,0.0353 -0.03528,0.0353 0,0.0706 -0.03528,0.10584 -0.105833,0.10584 0,-0.0353 0,-0.0353 0.03528,-0.0706 v -0.0353 c -0.705555,0.42334 -1.375833,0.84667 -2.081388,1.34056 0,0.0705 0.07055,0.10583 0.07055,0.14111 0,0.0353 0,0.0706 0.03528,0.0706 0,0.0353 0.03528,0.0353 0.03528,0.0705 0,0 0,0 0.03528,0 0.9525,-0.14111 1.905,-0.14111 2.892778,0 z"
       id="path66" />
    <path
       style="fill:#5f5f61;stroke:none;stroke-width:0.352778"
       d="m 92.824494,157.93862 c -0.03528,0.0353 -0.03528,0.0706 -0.03528,0.0706 -0.03528,-0.0353 -0.141111,-0.0353 -0.211666,-0.0353 -0.352778,0.14111 -0.458611,0.45861 -0.352778,0.84667 0.03528,0.14111 0.105833,0.21166 0.211667,0.28222 0.07056,0 0.105833,0 0.141111,0 0.3175,0.0353 0.493889,-0.10583 0.564444,-0.42333 0.3175,0.10583 0.493889,-0.0706 0.564445,-0.42334 0.07055,-0.42333 -0.105834,-0.59972 -0.529167,-0.635 -0.211667,0.0353 -0.3175,0.14111 -0.352778,0.3175 z"
       id="path67" />
    <path
       style="fill:#5f5f61;stroke:none;stroke-width:0.352778"
       d="m 91.871994,160.54918 c 0.246945,0.10583 0.423333,0 0.529167,-0.24695 0.105833,-0.3175 0.03528,-0.52916 -0.176389,-0.635 -0.07056,-0.0353 -0.176389,-0.0353 -0.282222,-0.0705 -0.246945,0.0705 -0.388056,0.21167 -0.388056,0.45861 -0.03528,0.17639 0.03528,0.3175 0.141111,0.42333 0.03528,0.0353 0.105834,0.0706 0.176389,0.0706 z"
       id="path68" />
    <path
       style="fill:#5f5f61;stroke:none;stroke-width:0.352778"
       d="m 91.378105,160.90196 c -0.105833,-0.0353 -0.176389,-0.0353 -0.3175,-0.0353 -0.246944,0.10583 -0.388055,0.3175 -0.352778,0.59972 0,0.0353 0,0.0706 0.03528,0.0706 0,0.0705 0.03528,0.10583 0.105834,0.14111 0.03528,0 0.07055,0.0353 0.105833,0.0705 0.07055,0.10584 0.176389,0.17639 0.3175,0.24695 0.211667,0.0353 0.352778,0 0.423333,-0.21167 0.141111,-0.3175 0.105834,-0.56444 -0.141111,-0.70555 -0.07055,-0.0706 -0.105833,-0.14112 -0.176389,-0.17639 z"
       id="path69" />
    <path
       style="fill:#5f5f61;stroke:none;stroke-width:0.352778"
       d="m 95.540883,159.94946 c 0.282222,0.0353 0.458611,-0.0706 0.529167,-0.35278 0.07055,-0.42333 -0.105834,-0.635 -0.493889,-0.67028 -0.141111,0 -0.246945,0.0706 -0.3175,0.21167 -0.03528,0.10583 -0.03528,0.21166 -0.07056,0.3175 -0.03528,0.28222 0.07056,0.42333 0.352778,0.49389 z"
       id="path70" />
    <path
       style="fill:#5f5f61;stroke:none;stroke-width:0.352778"
       d="m 93.953383,160.40807 c -0.3175,0.0353 -0.458611,0.21166 -0.423333,0.56444 0.03528,0.38806 0.282222,0.59972 0.670277,0.59972 0.105834,0 0.176389,-0.0353 0.211667,-0.10583 0.141111,-0.49389 0,-0.84667 -0.458611,-1.05833 z"
       id="path71" />
    <path
       style="fill:#5f5f61;stroke:none;stroke-width:0.352778"
       d="m 94.48255,161.74862 c 0.03528,0.38806 0.211666,0.52917 0.599722,0.45861 0.105833,0 0.176389,-0.0705 0.176389,-0.17638 0.105833,-0.42334 -0.07056,-0.70556 -0.493889,-0.88195 -0.141111,0.0706 -0.211667,0.17639 -0.282222,0.3175 0,0.0706 -0.03528,0.17639 0,0.28222 z"
       id="path72" />
    <path
       style="fill:#5f5f61;stroke:none;stroke-width:0.352778"
       d="m 97.939772,159.8789 c 0.105833,0.14111 0.246944,0.17639 0.423333,0.14111 0.211667,-0.0353 0.352778,-0.17639 0.423333,-0.42333 0.07056,-0.38806 -0.07055,-0.635 -0.493888,-0.77611 -0.07056,0.0353 -0.141112,0.0353 -0.211667,0.0705 -0.352778,0.28223 -0.388056,0.59973 -0.141111,0.98778 z"
       id="path73" />
  </g>
</svg>
