<?xml version="1.0" encoding="UTF-8" standalone="no"?>
<!-- Created with Inkscape (http://www.inkscape.org/) -->

<svg
   width="62.312523mm"
   height="54.932243mm"
   viewBox="0 0 62.312523 54.932243"
   version="1.1"
   id="svg1"
   inkscape:version="1.3 (0e150ed6c4, 2023-07-21)"
   sodipodi:docname="stickers_giant.svg"
   xmlns:inkscape="http://www.inkscape.org/namespaces/inkscape"
   xmlns:sodipodi="http://sodipodi.sourceforge.net/DTD/sodipodi-0.dtd"
   xmlns="http://www.w3.org/2000/svg"
   xmlns:svg="http://www.w3.org/2000/svg">
  <sodipodi:namedview
     id="namedview1"
     pagecolor="#ffffff"
     bordercolor="#000000"
     borderopacity="0.25"
     inkscape:showpageshadow="2"
     inkscape:pageopacity="0.0"
     inkscape:pagecheckerboard="0"
     inkscape:deskcolor="#d1d1d1"
     inkscape:document-units="mm"
     inkscape:zoom="0.74386223"
     inkscape:cx="336.75591"
     inkscape:cy="211.73275"
     inkscape:window-width="1920"
     inkscape:window-height="1027"
     inkscape:window-x="1912"
     inkscape:window-y="-8"
     inkscape:window-maximized="1"
     inkscape:current-layer="layer1" />
  <defs
     id="defs1" />
  <g
     inkscape:label="Layer 1"
     inkscape:groupmode="layer"
     id="layer1"
     transform="translate(-15.875001,-35.718758)">
    <path
       style="fill:#5f5f61;stroke:none;stroke-width:0.352778"
       d="m 67.323229,39.427804 c -0.352778,0.176389 -0.635,0.388056 -0.917222,0.635 -0.9525,0.917222 -1.905,1.799167 -2.8575,2.681111 -0.211667,0.211667 -0.458611,0.388056 -0.705556,0.599722 -1.375833,0.987778 -2.645833,2.081389 -3.845277,3.316111 -0.9525,0.9525 -1.905,1.869722 -2.928056,2.786945 -0.282222,-0.811389 -0.670278,-1.516945 -1.199444,-2.187223 0,-0.176388 -0.03528,-0.352777 -0.105834,-0.493888 -0.105833,-0.176389 -0.211666,-0.352778 -0.3175,-0.493889 0,-0.07056 0,-0.141111 0,-0.211667 -0.07055,-1.481667 -0.388055,-2.892778 -1.058333,-4.268611 -0.740833,-1.552222 -1.834444,-2.892778 -3.210278,-3.986389 -1.411111,-1.093611 -2.963333,-1.799166 -4.727222,-2.046111 -0.176389,0.03528 -0.352777,0.07056 -0.529166,0.07056 -0.03528,0 -0.03528,0 -0.03528,0 -0.705556,-0.141111 -1.446389,-0.141111 -2.187222,-0.03528 -1.27,-0.03528 -2.469445,0.246944 -3.633611,0.811389 -0.141111,0.105833 -0.282223,0.176389 -0.388056,0.246944 -1.27,0.881945 -2.293055,1.905 -3.139722,3.175 -0.176389,0.211667 -0.352778,0.458611 -0.529167,0.670278 -0.388055,0.493889 -0.564444,1.058333 -0.529166,1.693333 0,0 -0.03528,0.03528 -0.03528,0.07056 -0.07056,0.07056 -0.141111,0.176389 -0.141111,0.246944 -0.07056,0.352778 -0.07056,0.670278 0,1.023056 0,0.03528 -0.03528,0.105833 -0.07056,0.141111 -0.564444,0.846667 -1.093611,1.693333 -1.693333,2.504722 -0.529167,0.740833 -1.058333,1.481667 -1.622778,2.2225 -0.352778,0.458611 -0.670278,0.9525 -0.917222,1.516944 -0.211667,0.529167 -0.105833,0.881945 0.423333,1.058334 0.246945,0.176389 0.529167,0.3175 0.811389,0.458611 1.058333,0.352778 2.116667,0.564444 3.245556,0.599722 1.234722,0.03528 2.398888,-0.03528 3.598333,-0.176389 -0.105833,0.3175 -0.141111,0.635 -0.176389,0.987778 -0.07056,0 -0.141111,0 -0.176389,0.03528 -1.375833,0.3175 -2.751666,0.3175 -4.092222,-0.03528 -1.516944,-0.388056 -3.033889,-0.635 -4.621389,-0.776111 -1.693333,-0.141111 -3.386666,-0.3175 -5.115277,-0.564445 -0.635,-0.03528 -1.234723,0.07056 -1.799167,0.3175 -0.176389,0.03528 -0.352778,0.03528 -0.564445,0.07056 -0.246944,0.03528 -0.352777,0.211667 -0.3175,0.458611 l 0.03528,0.03528 c -0.07055,0.105833 -0.07055,0.211666 -0.03528,0.352778 0.423334,0.282222 0.705556,0.635 0.811389,1.023055 0.07056,0.176389 0.07056,0.3175 0.07056,0.493889 0,0.564444 0.141111,1.093611 0.458611,1.552222 0.599722,0.987778 1.446389,1.658056 2.54,2.046111 -0.03528,0.105834 -0.03528,0.246945 -0.03528,0.352778 -0.03528,0.493889 0.03528,0.9525 0.176389,1.411111 0.07056,0.246945 0.176389,0.458611 0.3175,0.670278 0.352778,0.458611 0.670278,0.917222 0.987778,1.411111 0.705555,0.987778 1.658055,1.552222 2.822222,1.799167 0.141111,0.07055 0.3175,0.07055 0.493889,0.141111 -0.176389,0.352777 -0.246945,0.740833 -0.246945,1.199444 0,0.246945 0.03528,0.529167 0.105834,0.776111 0.07055,0.246945 0.176389,0.423334 0.352778,0.529167 0.917222,0.740833 1.940277,1.164166 3.139722,1.305278 1.234722,0.105833 2.434166,0.176388 3.668888,0.176388 -0.3175,0.282223 -0.493888,0.670278 -0.599722,1.093612 -0.388055,0.423333 -0.529166,0.917222 -0.493889,1.446388 0,0.03528 0,0.07056 0,0.105834 -1.411111,-0.03528 -2.822222,-0.105834 -4.233333,-0.211667 -1.5875,-0.141111 -3.175,-0.3175 -4.727222,-0.529167 0,-0.493888 0,-0.987777 0.03528,-1.481666 0.03528,-0.881945 0.176389,-1.728611 0.3175,-2.575278 0.141111,-0.599722 -0.03528,-1.023055 -0.529167,-1.234722 -0.176389,0.03528 -0.352778,0.105833 -0.458611,0.3175 -0.03528,0.141111 -0.07056,0.282222 -0.141111,0.423333 -0.246945,0.9525 -0.388056,1.905 -0.388056,2.8575 -0.141111,-0.211667 -0.246944,-0.388055 -0.388055,-0.635 -0.211667,-0.352778 -0.352778,-0.705555 -0.493889,-1.093611 -0.105833,-0.529167 -0.352778,-0.881944 -0.776111,-1.093611 -0.03528,0 -0.105833,0 -0.141111,0.03528 -0.07056,0 -0.141111,0.03528 -0.176389,0.141111 -0.282222,0.599722 -0.176389,1.199444 0.282222,1.693333 0.493889,1.093611 1.058333,2.187222 1.658056,3.245556 v 0 c -0.03528,0.176389 0.03528,0.246944 0.176388,0.3175 0,0 0,0 0.03528,0 0,0.03528 0,0.07056 0.03528,0.07056 -0.07056,0.705556 -0.07056,1.411111 0.03528,2.116667 0.105833,0.705555 0.458611,1.234722 1.093611,1.5875 0.07055,0.03528 0.141111,0.03528 0.246944,0 0.529167,-0.3175 0.599723,-0.776111 0.141111,-1.340556 -0.141111,-0.670278 -0.246944,-1.375833 -0.3175,-2.046111 0,-0.03528 0,-0.03528 0,-0.03528 0.423334,0.105834 0.811389,0.176389 1.199445,0.282223 0.987778,0.176388 1.940278,0.3175 2.928055,0.423333 1.622778,0.141111 3.245556,0.211667 4.868334,0.211667 0.141111,0.246944 0.282222,0.529166 0.423333,0.776111 0.246944,0.388055 0.564444,0.705555 0.917222,0.987777 1.023056,0.740834 2.187222,1.023056 3.4925,0.811389 0.917222,-0.141111 1.658056,-0.529166 2.2225,-1.164166 0.635,0.493889 1.305278,0.987777 1.940278,1.481666 0.423333,0.3175 0.881944,0.564445 1.375833,0.776111 0.282222,0.105834 0.564444,0.176389 0.846667,0.211667 0.564444,0.03528 1.093611,-0.176389 1.516944,-0.635 0.388056,0.388056 0.811389,0.740833 1.305278,1.023056 0.176389,0.105833 0.352778,0.176389 0.529167,0.246944 0.317499,0.105833 0.599722,0.176389 0.917222,0.246944 0.07055,0.3175 0.176389,0.635 0.246944,0.9525 0.246945,0.846667 0.458611,1.693334 0.670278,2.575278 0.3175,1.446389 0.635,2.892778 0.881944,4.374445 -0.176389,-0.03528 -0.352777,-0.03528 -0.529166,-0.07056 -0.388056,-0.03528 -0.811389,-0.105833 -1.199445,-0.246944 -0.9525,-0.3175 -1.869722,-0.564445 -2.822222,-0.705556 -0.352778,0 -0.564444,0.176389 -0.670278,0.493889 -0.03528,0.105833 0,0.176389 0.03528,0.211667 0.564445,0.529166 1.199445,0.881944 1.975556,1.093611 0.246944,0.03528 0.493889,0.105833 0.740833,0.141111 0.599722,0.07055 1.199444,0.211666 1.799167,0.388055 -1.023056,0.388056 -2.046111,0.776111 -3.069167,1.164167 -0.493889,0.176389 -0.670278,0.493889 -0.564444,0.9525 0.07055,0.105833 0.141111,0.176389 0.282222,0.176389 1.164166,0.03528 2.363611,-0.211667 3.4925,-0.635 0.3175,-0.141111 0.599722,-0.211667 0.917222,-0.282222 0.529167,-0.141112 0.917222,-0.423334 1.128889,-0.811389 0.141111,0.07055 0.246944,0.105833 0.352778,0.141111 1.058333,0.282222 2.046111,0.670278 2.963333,1.199444 0.740833,0.423334 1.552222,0.740834 2.398889,0.9525 0.599722,0.141111 0.881944,-0.07056 0.881944,-0.635 0,-0.176389 -0.07056,-0.282222 -0.246944,-0.352778 -0.564445,-0.246944 -1.128889,-0.493888 -1.693334,-0.740833 -1.340555,-0.599722 -2.751666,-1.093611 -4.198055,-1.481666 -0.03528,-0.03528 -0.07056,-0.07056 -0.07056,-0.07056 -0.211666,-0.211667 -0.423333,-0.352778 -0.635,-0.493889 -0.03528,-0.105833 -0.03528,-0.246944 -0.03528,-0.352778 -0.176389,-1.728611 -0.493889,-3.386666 -0.987778,-5.009444 -0.282222,-0.9525 -0.529167,-1.905 -0.776111,-2.8575 1.340555,-0.03528 2.504722,-0.599722 3.457222,-1.658055 0.246944,-0.282223 0.388055,-0.599723 0.458611,-0.917223 0.740833,0.211667 1.481667,0.176389 2.328333,-0.105833 0.458611,-0.176389 0.917222,-0.388056 1.375834,-0.599722 1.411111,-0.776111 2.328333,-1.834445 2.716388,-3.175 0.423334,-0.105833 0.811389,-0.246945 1.234723,-0.388056 0.564444,-0.246944 1.128888,-0.423333 1.763888,-0.493889 0.846667,-0.176388 1.658056,-0.423333 2.398889,-0.846666 0.881945,-0.458611 1.763889,-0.917222 2.610556,-1.446389 1.481666,-0.881944 3.033889,-1.658056 4.621389,-2.293056 0.740833,-0.3175 1.446388,-0.705555 2.081388,-1.199444 0.141111,-0.141111 0.246945,-0.282222 0.246945,-0.458611 0.141111,-0.987778 0.07055,-1.975556 -0.246945,-2.998611 -0.352777,-1.234722 -1.234722,-1.763889 -2.610555,-1.552222 -1.164167,0.141111 -2.293056,0.352777 -3.457222,0.599722 -0.529167,0.141111 -1.058334,0.211667 -1.5875,0.246944 -1.905,0.105834 -3.774722,0.423334 -5.609167,0.9525 0.352778,-0.493889 0.740834,-0.9525 1.164167,-1.411111 0.599722,-0.635 0.917222,-1.375833 1.023055,-2.187222 0.105834,-1.058333 -0.141111,-1.940278 -0.776111,-2.575278 0.493889,-0.493889 0.9525,-0.987777 1.375834,-1.516944 0.705555,-0.917222 1.058333,-1.940278 1.023055,-3.069167 0,-0.3175 -0.07055,-0.564444 -0.176389,-0.811389 1.340556,-1.093611 1.905,-2.504722 1.763889,-4.198055 0.07056,-0.176389 0.105833,-0.352778 0.105833,-0.529167 -0.07055,-0.529166 -0.176388,-1.023055 -0.282222,-1.552222 -0.176389,-0.705555 -0.423333,-1.411111 -0.705555,-2.116666 -0.282223,-0.599723 -0.670278,-1.093612 -1.199445,-1.411112 -0.105833,0 -0.246944,0.07056 -0.352778,0.176389 -0.03528,0.03528 -0.07055,0.07056 -0.07055,0.141111 -0.07056,0 -0.141111,0.03528 -0.176389,0.07056 z m -24.094722,0.105833 c 0,0 0,0 0.03528,-0.03528 0.176389,-0.03528 0.352778,-0.07056 0.529167,-0.105834 1.058333,-0.246944 2.116666,-0.246944 3.139722,-0.03528 1.023055,0.211667 1.763889,0.740834 2.2225,1.622778 0.141111,0.246945 0.3175,0.458611 0.493889,0.599722 0.07055,0.246945 0.176389,0.493889 0.246944,0.776111 0.07056,0.352778 0.105834,0.705556 0.105834,1.093612 0,0.740833 -0.176389,1.411111 -0.564445,2.010833 -0.846667,1.305278 -2.010833,2.081389 -3.563055,2.363611 -0.07056,0 -0.141111,0.03528 -0.246945,0 -0.740833,-0.03528 -1.446389,-0.03528 -2.151944,0.07055 -0.670278,-0.458611 -1.375834,-0.881944 -2.081389,-1.27 -0.141111,-0.282222 -0.282222,-0.564444 -0.423333,-0.846666 -0.07056,-0.211667 -0.141112,-0.423333 -0.176389,-0.670278 -0.07056,-0.599722 -0.3175,-1.128889 -0.635,-1.552222 0.105833,-0.564445 0.3175,-1.093611 0.599722,-1.622778 0.458611,-0.881944 1.199444,-1.552222 2.151944,-2.010833 0.176389,-0.07056 0.282223,-0.211667 0.3175,-0.388056 z m -5.326944,9.2075 c 0.07056,0.352778 0.105833,0.705556 0.176389,1.058333 -0.07056,0.246945 -0.03528,0.493889 0.03528,0.740834 0.03528,0.141111 0.105833,0.246944 0.246944,0.352778 -1.023055,0.141111 -2.046111,0.246944 -3.069166,0.3175 -1.411112,0.07055 -2.786945,-0.105834 -4.056945,-0.599723 0.211667,-0.493889 0.493889,-0.9525 0.811389,-1.375833 0.987778,-1.128889 1.834444,-2.363611 2.575278,-3.668889 0.105833,-0.211666 0.211666,-0.423333 0.352778,-0.599722 1.093611,0.846667 1.975555,1.834444 2.751666,2.963333 0.07056,0.282222 0.105833,0.529167 0.176389,0.811389 z"
       id="path41" />
    <path
       style="fill:#ffffff;stroke:none;stroke-width:0.352778"
       d="m 43.263785,39.49836 c -0.03528,0.03528 -0.03528,0.03528 -0.03528,0.03528 -0.03528,0.176389 -0.141111,0.3175 -0.3175,0.388056 -0.9525,0.458611 -1.693333,1.128889 -2.151944,2.010833 -0.282222,0.529167 -0.493889,1.058333 -0.599722,1.622778 0.3175,0.423333 0.564444,0.9525 0.635,1.552222 0.03528,0.246945 0.105833,0.458611 0.176389,0.670278 0.141111,0.282222 0.282222,0.564444 0.423333,0.846666 0.705555,0.388056 1.411111,0.811389 2.081389,1.27 0.705555,-0.105833 1.411111,-0.105833 2.151944,-0.07055 0.105834,0.03528 0.176389,0 0.246945,0 1.552222,-0.282222 2.716388,-1.058333 3.563055,-2.363611 0.388056,-0.599722 0.564445,-1.27 0.564445,-2.010833 0,-0.388056 -0.03528,-0.740834 -0.105834,-1.093612 -0.07055,-0.282222 -0.176389,-0.529166 -0.246944,-0.776111 -0.176389,-0.141111 -0.352778,-0.352777 -0.493889,-0.599722 -0.458611,-0.881944 -1.199445,-1.411111 -2.2225,-1.622778 -1.023056,-0.211666 -2.081389,-0.211666 -3.139722,0.03528 -0.176389,0.03528 -0.352778,0.07056 -0.529167,0.105834 z m 1.199445,3.633611 c 0.03528,-0.141112 0.105833,-0.282223 0.246944,-0.388056 0.07056,0 0.141111,0 0.211667,-0.03528 v 0 c 0.670277,0.03528 0.987777,0.388056 0.987777,0.9525 -0.03528,0.282222 -0.176388,0.423334 -0.458611,0.423334 -0.740833,0.03528 -1.058333,-0.282223 -0.987777,-0.9525 z"
       id="path42" />
    <path
       style="fill:#5f5f61;stroke:none;stroke-width:0.352778"
       d="m 44.710174,42.743915 c -0.141111,0.105833 -0.211667,0.246944 -0.246944,0.388056 -0.07056,0.670277 0.246944,0.987777 0.987777,0.9525 0.282223,0 0.423334,-0.141112 0.458611,-0.423334 0,-0.564444 -0.3175,-0.917222 -0.987777,-0.9525 v 0 c -0.07056,0.03528 -0.141111,0.03528 -0.211667,0.03528 z"
       id="path43" />
    <path
       style="fill:#ffffff;stroke:none;stroke-width:0.352778"
       d="m 38.077952,49.79947 c -0.07056,-0.352777 -0.105833,-0.705555 -0.176389,-1.058333 -0.07056,-0.282222 -0.105833,-0.529167 -0.176389,-0.811389 -0.776111,-1.128889 -1.658055,-2.116666 -2.751666,-2.963333 -0.141112,0.176389 -0.246945,0.388056 -0.352778,0.599722 -0.740834,1.305278 -1.5875,2.54 -2.575278,3.668889 -0.3175,0.423333 -0.599722,0.881944 -0.811389,1.375833 1.27,0.493889 2.645833,0.670278 4.056945,0.599723 1.023055,-0.07056 2.046111,-0.176389 3.069166,-0.3175 -0.141111,-0.105834 -0.211667,-0.211667 -0.246944,-0.352778 -0.07056,-0.246945 -0.105834,-0.493889 -0.03528,-0.740834 z"
       id="path44" />
    <path
       style="fill:#5f5f61;stroke:none;stroke-width:0.352778"
       d="m 16.911286,87.440858 c -0.141111,0.141112 -0.246945,0.246945 -0.388056,0.352778 -0.493889,0.423334 -0.705555,0.917222 -0.635,1.516945 0.03528,0.246944 0.176389,0.423333 0.388056,0.529166 0.07056,0.07056 0.176389,0.03528 0.246944,0 0.246945,-0.176389 0.458611,-0.423333 0.635,-0.705555 0.176389,-0.3175 0.388056,-0.599722 0.670278,-0.881945 0,0.352778 0.07056,0.670278 0.141111,1.023056 0.176389,0.917222 0.740833,1.340555 1.622778,1.340555 0.176389,-0.176388 0.176389,-0.3175 0.105833,-0.493888 -0.211667,-0.388056 -0.352778,-0.811389 -0.423333,-1.234723 0.3175,0 0.635,0 0.9525,0 -0.105834,0.599723 0.105833,0.987778 0.670277,1.199445 0.105834,0.03528 0.211667,0.03528 0.246945,-0.07056 0.211667,-0.3175 0.3175,-0.705555 0.352778,-1.093611 0.246944,0 0.529166,0 0.776111,0 0.03528,0 0.07055,0.03528 0.07055,0.07056 0.03528,0.388055 0.176389,0.705555 0.423334,1.023055 0.705555,0.740834 1.446389,0.846667 2.187222,0.246945 0,-0.141111 -0.03528,-0.246945 -0.176389,-0.3175 -0.529167,-0.282223 -0.881944,-0.740834 -1.023056,-1.340556 0.07056,-0.03528 0.141112,-0.07055 0.211667,-0.141111 0.176389,0.07056 0.352778,0.105833 0.529167,0.211667 1.234722,0.529166 2.504722,0.599722 3.739444,0.141111 0.846667,-0.3175 1.658056,-0.282222 2.469444,0.105833 0.03528,-0.03528 0.07056,-0.03528 0.07056,-0.07055 0,0 0.03528,-0.03528 0.03528,-0.03528 -0.03528,-0.03528 -0.03528,-0.07056 -0.07056,-0.07056 0,-0.03528 -0.03528,-0.07056 -0.07055,-0.07056 -0.282222,-0.529167 -0.705556,-0.846667 -1.305278,-0.9525 -0.529167,-0.141111 -1.058333,-0.141111 -1.5875,0 -0.881944,0.246944 -1.763889,0.141111 -2.645833,-0.246945 -0.564445,-0.211666 -1.093611,-0.352778 -1.693334,-0.352778 -0.705555,-0.529166 -1.5875,-0.705555 -2.610555,-0.564444 -0.352778,0.03528 -0.705556,0.03528 -1.093611,0.07056 -0.105833,-0.07056 -0.211667,-0.141111 -0.3175,-0.246945 -0.03528,-0.03528 -0.07056,-0.07055 -0.105833,-0.105833 -0.03528,-0.07056 -0.105834,-0.176389 -0.141112,-0.246945 0,-0.03528 0,-0.03528 0,-0.03528 0.211667,-0.105834 0.388056,-0.3175 0.458612,-0.599723 0,0 -0.03528,-0.03528 -0.07056,-0.03528 -0.141111,-0.141111 -0.282222,-0.176389 -0.493889,-0.176389 -0.176389,0 -0.352778,0 -0.529167,0.03528 -0.105833,-0.07056 -0.211666,-0.105834 -0.352777,-0.176389 0,0 -0.03528,-0.03528 -0.07056,-0.03528 -0.388055,-0.3175 -0.811389,-0.458611 -1.340555,-0.423333 -0.282223,0.03528 -0.493889,0.176388 -0.635,0.458611 -0.3175,0.635 -0.246945,1.164166 0.176388,1.693333 0.246945,0.246944 0.493889,0.458611 0.776112,0.564444 -0.07056,0.03528 -0.141112,0.105834 -0.176389,0.141111 z"
       id="path45" />
  </g>
</svg>
