<?xml version="1.0" encoding="UTF-8" standalone="no"?>
<!-- Created with Inkscape (http://www.inkscape.org/) -->

<svg
   width="60.505493mm"
   height="50.588345mm"
   viewBox="0 0 60.505493 50.588345"
   version="1.1"
   id="svg1"
   inkscape:version="1.3 (0e150ed6c4, 2023-07-21)"
   sodipodi:docname="stickers_atlas.svg"
   xmlns:inkscape="http://www.inkscape.org/namespaces/inkscape"
   xmlns:sodipodi="http://sodipodi.sourceforge.net/DTD/sodipodi-0.dtd"
   xmlns="http://www.w3.org/2000/svg"
   xmlns:svg="http://www.w3.org/2000/svg">
  <sodipodi:namedview
     id="namedview1"
     pagecolor="#ffffff"
     bordercolor="#000000"
     borderopacity="0.25"
     inkscape:showpageshadow="2"
     inkscape:pageopacity="0.0"
     inkscape:pagecheckerboard="0"
     inkscape:deskcolor="#d1d1d1"
     inkscape:document-units="mm"
     inkscape:zoom="0.74386223"
     inkscape:cx="219.79876"
     inkscape:cy="391.87364"
     inkscape:window-width="1920"
     inkscape:window-height="1027"
     inkscape:window-x="1912"
     inkscape:window-y="-8"
     inkscape:window-maximized="1"
     inkscape:current-layer="layer1" />
  <defs
     id="defs1" />
  <g
     inkscape:label="Layer 1"
     inkscape:groupmode="layer"
     id="layer1"
     transform="translate(-46.831245,-44.714567)">
    <path
       style="fill:#5f5f61;stroke:none;stroke-width:0.352778"
       d="m 87.193132,44.714585 c -0.881944,0.03528 -1.763888,0.03528 -2.645833,0.07056 -0.07055,0 -0.141111,0 -0.211666,0 -2.786945,0.211666 -5.468056,0.811389 -8.113889,1.658055 -0.105834,0.03528 -0.176389,0.07056 -0.211667,0.141111 -0.811389,0.282223 -1.552222,0.670278 -2.257778,1.128889 -0.176388,0.07056 -0.352777,0.176389 -0.529166,0.282222 -0.388056,0.211667 -0.776111,0.423334 -1.128889,0.705556 -1.622778,1.234722 -3.069167,2.645833 -4.303889,4.303889 -0.3175,0.388055 -0.635,0.811389 -0.917222,1.234722 -1.128889,1.516944 -1.763889,3.210278 -1.834445,5.115278 -0.07055,1.164166 -0.03528,2.363611 0.07056,3.4925 -0.423333,0.211666 -0.776111,0.529166 -1.058333,0.987777 -0.03528,0.07056 -0.07056,0.141111 -0.07056,0.211667 -0.282222,1.128889 -0.246944,2.257778 0.176389,3.351389 0,0 0,0.03528 0.03528,0.07055 -0.529167,-0.105833 -1.058333,-0.176389 -1.5875,-0.176389 -0.388056,0 -0.776111,0 -1.164167,-0.03528 -1.693333,-0.03528 -3.139722,0.529166 -4.303889,1.728611 -1.234722,1.27 -2.151944,2.751666 -2.716388,4.409722 -0.141112,0.423333 -0.246945,0.811389 -0.3175,1.199444 -0.03528,0.423334 -0.03528,0.846667 -0.03528,1.27 0,0.03528 0,0.07056 0,0.105834 -0.635,0.141111 -1.234722,0.3175 -1.869722,0.423333 -1.693334,0.352778 -3.316111,0.881944 -4.903611,1.5875 -0.493889,0.246944 -0.599723,0.564444 -0.282223,0.9525 0.141112,0.176389 0.3175,0.282222 0.493889,0.3175 2.081389,0.564444 4.162778,0.987778 6.314722,1.305278 0.635,0.105833 1.27,0.246944 1.869723,0.493889 1.058333,1.058333 2.293055,1.834444 3.774722,2.293055 0.599722,0.176389 1.164166,0.3175 1.763889,0.423333 1.693333,0.282223 3.386666,0.282223 5.079999,0 0.03528,-0.03528 0.07056,-0.03528 0.105834,-0.03528 0.07055,0.07055 0.141111,0.105833 0.176389,0.141111 0.635,0.811389 1.481666,1.340555 2.469444,1.622777 0.776111,0.211667 1.411111,0.03528 1.905,-0.493888 0.246944,0.07055 0.493889,0.141111 0.740833,0.211666 0.141111,0.105834 0.282223,0.211667 0.458611,0.3175 0.282223,0.141111 0.564445,0.282222 0.811389,0.458611 0.3175,0.176389 0.599723,0.3175 0.917223,0.423334 -0.105834,0.176388 -0.211667,0.352777 -0.3175,0.564444 -0.846667,1.516944 -1.905,2.892778 -3.210278,4.056944 -0.141111,0.141112 -0.3175,0.246945 -0.493889,0.282223 -1.058333,0.3175 -2.151944,0.564444 -3.245556,0.740833 -0.599722,0.07055 -0.846666,0.388055 -0.705555,0.9525 0.07055,0.211667 0.176389,0.3175 0.423333,0.282222 0.881945,-0.03528 1.763889,-0.105833 2.610556,-0.246944 -0.246945,0.282222 -0.493889,0.529166 -0.705556,0.811389 -0.141111,0.141111 -0.211666,0.282222 -0.282222,0.423333 -0.246944,0.564444 -0.07056,0.881944 0.529167,1.023055 0.176389,0 0.282222,-0.03528 0.388055,-0.105833 0.670278,-0.635 1.305278,-1.305278 1.905,-1.975555 0.3175,0.105833 0.670278,0.141111 1.058333,0.07055 0.987778,-0.105833 1.975556,-0.282222 2.963334,-0.423333 0.211666,-0.03528 0.352777,-0.141111 0.423333,-0.282222 0.388056,-0.670278 0.176389,-1.058334 -0.635,-1.164167 -0.917222,0.211667 -1.869722,0.352778 -2.822222,0.458611 -0.03528,0 -0.07056,0 -0.105833,0 0,0 0,-0.03528 0,-0.07056 0.423333,-0.388055 0.811388,-0.811388 1.164166,-1.269999 0.9525,-1.234723 1.728611,-2.54 2.434167,-3.880556 0.282222,0 0.564444,-0.03528 0.846666,-0.105833 1.128889,-0.211667 1.622778,-0.881945 1.446389,-1.940278 0.670278,0 1.234723,-0.246944 1.693334,-0.705556 1.27,-0.03528 2.504722,-0.141111 3.774722,-0.3175 0.211666,0.423334 0.529166,0.776112 0.987778,1.058334 0.3175,0.211666 0.670277,0.352778 1.023055,0.458611 -0.03528,0.388055 -0.03528,0.811389 0,1.199444 0,0.423334 0.03528,0.811389 0.07056,1.199445 -0.211667,-0.246945 -0.458612,-0.458611 -0.740834,-0.599723 -0.105833,0 -0.211666,0.03528 -0.3175,0.141112 -0.176389,0.07055 -0.211666,0.211666 -0.176389,0.352777 0.3175,1.093611 0.776111,2.116667 1.411111,3.069167 0.105834,0.176389 0.246945,0.246944 0.388056,0.282222 -0.388056,0.529167 -0.776111,1.093611 -1.128889,1.693333 -0.105833,0.141112 -0.211666,0.246945 -0.3175,0.388056 -0.423333,0.388056 -0.493889,0.846667 -0.246944,1.27 0.07055,0.176389 0.176389,0.211667 0.352778,0.211667 0.634999,-0.105834 1.023055,-0.529167 1.199444,-1.234723 0.352778,-0.458611 0.705555,-0.917222 0.9525,-1.411111 0.03528,-0.07056 0.07055,-0.105833 0.105833,-0.176388 0.599722,0.670277 1.27,1.269999 2.046111,1.763888 0.211667,0.105834 0.423334,0.246945 0.599723,0.388056 0.634999,0.423333 1.023055,0.282222 1.269999,-0.352778 0.03528,-0.105833 0.03528,-0.176389 -0.03528,-0.211667 -0.564445,-0.705555 -1.234722,-1.27 -2.046111,-1.728611 -0.458611,-0.282222 -0.811389,-0.670277 -1.058334,-1.164166 -0.705555,-1.552222 -1.093611,-3.245556 -1.093611,-4.974167 0,-0.03528 0,-0.03528 0,-0.03528 0.211667,-0.03528 0.423334,-0.105833 0.670278,-0.176388 0.917222,-0.282223 1.481667,-0.881945 1.658056,-1.763889 0.07055,-0.423334 0.105833,-0.811389 0.141111,-1.234723 0.07055,-0.493888 0.211666,-0.917222 0.423333,-1.340555 0.811389,0.105833 1.5875,0.176389 2.398889,0.211667 0.176389,0.03528 0.352778,-0.03528 0.493889,-0.176389 0.211666,-0.211667 0.3175,-0.493889 0.246944,-0.776111 0.9525,-0.141111 1.905,-0.211667 2.822222,-0.282223 1.234722,-0.03528 2.469445,-0.105833 3.704167,-0.176388 0.493889,0 0.9525,-0.07056 1.41111,-0.176389 0.28222,-0.03528 0.52917,-0.105834 0.77611,-0.176389 1.51695,-0.493889 3.06917,-1.058334 4.55083,-1.622778 0.21167,-0.105833 0.42334,-0.141111 0.67028,-0.141111 0.70556,0.03528 1.05834,-0.282222 1.09361,-0.9525 0,-0.211667 -0.0353,-0.388056 -0.14111,-0.564444 -0.17639,-0.423334 -0.45861,-0.740834 -0.88194,-0.9525 -1.48167,-0.881945 -3.10445,-1.446389 -4.83306,-1.658056 -0.59972,-0.105833 -1.23472,-0.176389 -1.869719,-0.246944 0,0 0,0 0,0 -0.03528,0.03528 -0.03528,0.03528 -0.07056,0.07055 -0.282222,-0.03528 -0.599722,-0.07055 -0.917222,-0.07055 -0.246944,-0.211667 -0.529166,-0.388056 -0.846666,-0.529167 0.846666,-0.564445 1.516944,-1.27 1.940277,-2.187222 0.141111,-0.246945 0.282222,-0.458611 0.42334,-0.670278 0,0 0,0 0.0353,-0.03528 0,0 0,0 0,0.03528 0.3175,-0.423333 0.635,-0.881944 0.88195,-1.305278 0.9525,-1.516944 1.48167,-3.139722 1.65805,-4.903611 0,-0.211666 0,-0.423333 -0.0705,-0.599722 0.21167,-1.199444 0.21167,-2.398889 0.0353,-3.598333 -0.24695,-1.728611 -0.81139,-3.351389 -1.69334,-4.868333 -0.24694,-0.423334 -0.45861,-0.846667 -0.70555,-1.27 -0.493894,-0.9525 -1.128894,-1.834445 -1.869727,-2.645834 -0.246945,-0.282222 -0.493889,-0.564444 -0.705556,-0.881944 -1.128889,-1.411111 -2.54,-2.363611 -4.268611,-2.892778 -0.458611,-0.141111 -0.881944,-0.282222 -1.340556,-0.458611 -1.5875,-0.564444 -3.210277,-1.058333 -4.903611,-1.446389 z m -0.07055,1.27 c 0.07055,0 0.176389,0 0.246944,0.03528 1.305278,0.3175 2.575278,0.705555 3.81,1.164167 0.529167,0.176388 1.058334,0.352777 1.552222,0.493888 0.811389,0.246945 1.552223,0.635 2.187223,1.164167 0.881944,0.705556 1.658055,1.446389 2.434166,2.293056 0.176389,0.176388 0.3175,0.388055 0.458611,0.635 0.493889,0.705555 1.023056,1.446388 1.516945,2.2225 0.141111,0.211666 0.282222,0.423333 0.423333,0.635 -0.03528,0.3175 0.03528,0.599722 0.176389,0.917222 0.246945,0.458611 0.423335,0.881944 0.564445,1.375833 0.49389,1.622778 0.635,3.351389 0.45862,5.150555 -0.0706,0.881945 -0.21167,1.728612 -0.35278,2.610556 -0.0353,0.176389 -0.0706,0.352778 -0.10584,0.529167 0,0 0,0 0,0.03528 0.0353,0 0.0353,0.03528 0.0706,0.03528 0,0.07056 0,0.105834 0,0.141111 0,0.07056 0,0.105834 0,0.141111 -0.0353,0 -0.0353,0.03528 -0.0353,0.07056 -0.0353,0 -0.0353,0.03528 -0.0706,0.07056 0,0 0,0.03528 0,0.07055 0,0 0,0.03528 0,0.03528 -0.42334,0.776111 -0.881953,1.552222 -1.340564,2.328333 -0.458611,0.529167 -0.917222,1.128889 -1.305278,1.763889 -0.564444,0.917222 -1.375833,1.411111 -2.398889,1.481667 -0.211666,0 -0.352777,0.105833 -0.458611,0.282222 -0.176389,0.388055 -0.105833,0.705555 0.211667,0.846666 -0.282222,-0.03528 -0.564444,-0.07055 -0.811389,-0.141111 -0.07055,0.07056 -0.07055,0.141111 -0.105833,0.211667 -0.141111,0 -0.282222,0.03528 -0.423333,0.03528 0,-0.211667 -0.03528,-0.423334 -0.105834,-0.670278 0.105834,-0.03528 0.176389,-0.07056 0.246945,-0.07056 1.693333,-0.705555 2.963333,-1.834444 3.880555,-3.386666 0.03528,-0.07056 0.07056,-0.176389 0.105833,-0.246945 0.388056,-1.305277 0.282223,-2.539999 -0.352777,-3.704166 0.105833,-0.07056 0.176389,-0.141111 0.246944,-0.282222 0.493889,-0.670278 0.987778,-1.340556 1.446389,-1.975556 0.246944,-0.352778 0.458611,-0.705555 0.599722,-1.093611 0.105833,-0.352778 0.176393,-0.740833 0.176393,-1.164167 -0.0353,-1.622777 -0.493893,-3.069166 -1.446393,-4.303888 0.176389,-0.3175 0.03528,-0.564445 -0.388055,-0.740834 -0.07056,0 -0.105834,0.03528 -0.141111,0.03528 -0.03528,0.03528 -0.07056,0.07056 -0.105834,0.105833 -0.03528,0 -0.07055,0 -0.105833,0.03528 -0.105833,0.03528 -0.141111,0.07056 -0.141111,0.176389 -0.705556,0.529167 -1.411111,1.093611 -2.116667,1.658056 -0.529167,0.423333 -1.058333,0.881944 -1.552222,1.340555 -0.282222,0.246945 -0.564444,0.493889 -0.881944,0.670278 -1.199445,0.740833 -2.434167,1.552222 -3.633612,2.328333 -1.375833,0.9525 -2.751666,1.905 -4.092222,2.892778 -0.564444,0.458611 -1.199444,0.846667 -1.905,1.128889 -1.940277,0.881944 -3.915833,1.658055 -5.926666,2.398889 -0.529167,0.176388 -1.023056,0.352777 -1.481667,0.564444 -2.010833,0.846667 -4.056944,1.622778 -6.138333,2.293056 -0.105833,-0.176389 -0.211667,-0.3175 -0.3175,-0.493889 -0.423333,-0.635 -0.881944,-1.305278 -1.340555,-1.940278 -0.740834,-1.093611 -1.305278,-2.257778 -1.728612,-3.4925 -0.03528,-0.141111 -0.03528,-0.246944 -0.07055,-0.352778 -0.03528,-0.458611 -0.176389,-0.881944 -0.458611,-1.164166 -0.03528,-0.705556 -0.07056,-1.411112 -0.07056,-2.116667 -0.03528,-0.529167 0,-1.058333 0.03528,-1.552222 0.141111,-1.093611 0.423333,-2.151945 0.917222,-3.139722 0.917222,-1.234723 1.905,-2.469445 2.963333,-3.668889 0.282223,-0.352778 0.564445,-0.705556 0.881945,-1.058334 1.058333,-1.269999 2.328333,-2.151944 3.845278,-2.786944 0.246944,-0.07055 0.458611,-0.211667 0.670277,-0.388055 0.388056,-0.352778 0.881945,-0.564445 1.411111,-0.705556 0.564445,-0.141111 0.987778,-0.388056 1.340556,-0.740833 2.928055,-0.705556 5.961944,-1.058334 9.031111,-1.023056 z M 59.076744,76.182362 c -0.03528,-0.07055 -0.07055,-0.105833 -0.105833,-0.176389 0.07055,0 0.176389,-0.03528 0.282222,-0.03528 0.529167,-0.141111 1.058333,-0.282223 1.552222,-0.388056 0.03528,0 0.03528,0.03528 0.03528,0.07056 0.07056,0.529166 0.388056,0.811388 0.917222,0.846666 0.176389,0 0.282222,-0.07055 0.3175,-0.246944 0.03528,-0.3175 0.07056,-0.670278 0.03528,-1.023056 0.635,-0.211666 1.27,-0.388055 1.905,-0.599722 0,0.141111 0,0.282222 -0.03528,0.388056 -0.03528,0.282222 -0.105833,0.564444 -0.141111,0.846666 -0.07055,0.458611 -0.3175,0.776111 -0.740833,0.9525 -1.128889,0.564445 -2.293056,0.529167 -3.421945,-0.03528 -0.246944,-0.141111 -0.458611,-0.352777 -0.599722,-0.599722 z m -4.198055,2.293056 c 0.03528,0.211666 0.105833,0.423333 0.211666,0.599722 -1.552222,-0.3175 -3.104444,-0.599722 -4.656666,-0.811389 1.481666,-0.282222 2.892778,-0.670278 4.303889,-1.199444 0,0.211666 0,0.388055 0.03528,0.599722 0.03528,0.282222 0.07056,0.529167 0.105834,0.811389 z"
       id="path33" />
    <path
       style="fill:#ffffff;stroke:none;stroke-width:0.352778"
       d="m 87.369521,46.019863 c -0.07056,-0.03528 -0.176389,-0.03528 -0.246944,-0.03528 -3.069167,-0.03528 -6.103056,0.3175 -9.031111,1.023056 -0.352778,0.352777 -0.776111,0.599722 -1.340556,0.740833 -0.529166,0.141111 -1.023055,0.352778 -1.411111,0.705556 -0.211666,0.176388 -0.423333,0.3175 -0.670277,0.388055 -1.516945,0.635 -2.786945,1.516945 -3.845278,2.786944 -0.3175,0.352778 -0.599722,0.705556 -0.881945,1.058334 -1.058333,1.199444 -2.046111,2.434166 -2.963333,3.668889 -0.493889,0.987777 -0.776111,2.046111 -0.917222,3.139722 -0.03528,0.493889 -0.07056,1.023055 -0.03528,1.552222 0,0.705555 0.03528,1.411111 0.07056,2.116667 0.282222,0.282222 0.423333,0.705555 0.458611,1.164166 0.03528,0.105834 0.03528,0.211667 0.07055,0.352778 0.423334,1.234722 0.987778,2.398889 1.728612,3.4925 0.458611,0.635 0.917222,1.305278 1.340555,1.940278 0.105833,0.176389 0.211667,0.3175 0.3175,0.493889 2.081389,-0.670278 4.1275,-1.446389 6.138333,-2.293056 0.458611,-0.211667 0.9525,-0.388056 1.481667,-0.564444 2.010833,-0.740834 3.986389,-1.516945 5.926666,-2.398889 0.705556,-0.282222 1.340556,-0.670278 1.905,-1.128889 1.340556,-0.987778 2.716389,-1.940278 4.092222,-2.892778 1.199445,-0.776111 2.434167,-1.5875 3.633612,-2.328333 0.3175,-0.176389 0.599722,-0.423333 0.881944,-0.670278 0.493889,-0.458611 1.023055,-0.917222 1.552222,-1.340555 0.705556,-0.564445 1.411111,-1.128889 2.116667,-1.658056 0,-0.105833 0.03528,-0.141111 0.141111,-0.176389 0.03528,-0.03528 0.07055,-0.03528 0.105833,-0.03528 0.03528,-0.03528 0.07056,-0.07056 0.105834,-0.105833 0.03528,0 0.07055,-0.03528 0.141111,-0.03528 0.423333,0.176389 0.564444,0.423334 0.388055,0.740834 0.9525,1.234722 1.411111,2.681111 1.446391,4.303888 0,0.423334 -0.07055,0.811389 -0.176391,1.164167 -0.141111,0.388056 -0.352778,0.740833 -0.599722,1.093611 -0.458611,0.635 -0.9525,1.305278 -1.446389,1.975556 -0.07055,0.141111 -0.141111,0.211666 -0.246944,0.282222 0.635,1.164167 0.740833,2.398889 0.352777,3.704166 -0.03528,0.07056 -0.07055,0.176389 -0.105833,0.246945 -0.917222,1.552222 -2.187222,2.681111 -3.880555,3.386666 -0.07056,0 -0.141111,0.03528 -0.246945,0.07056 0.07056,0.246944 0.105834,0.458611 0.105834,0.670278 0.141111,0 0.282222,-0.03528 0.423333,-0.03528 0.03528,-0.07056 0.03528,-0.141111 0.105833,-0.211667 0.246945,0.07056 0.529167,0.105834 0.811389,0.141111 -0.3175,-0.141111 -0.388056,-0.458611 -0.211667,-0.846666 0.105834,-0.176389 0.246945,-0.282222 0.458611,-0.282222 1.023056,-0.07056 1.834445,-0.564445 2.398889,-1.481667 0.388056,-0.635 0.846667,-1.234722 1.305278,-1.763889 0.458611,-0.776111 0.917222,-1.552222 1.340562,-2.328333 0,0 0,-0.03528 0,-0.03528 0,-0.03528 0,-0.07055 0,-0.07055 0.0353,-0.03528 0.0353,-0.07056 0.0706,-0.07056 0,-0.03528 0,-0.07056 0.0353,-0.07056 0,-0.03528 0,-0.07055 0,-0.141111 0,-0.03528 0,-0.07055 0,-0.141111 -0.0353,0 -0.0353,-0.03528 -0.0706,-0.03528 0,-0.03528 0,-0.03528 0,-0.03528 0.0353,-0.176389 0.0706,-0.352778 0.10584,-0.529167 0.14111,-0.881944 0.28222,-1.728611 0.35278,-2.610556 0.17638,-1.799166 0.0353,-3.527777 -0.45862,-5.150555 -0.14111,-0.493889 -0.3175,-0.917222 -0.564443,-1.375833 -0.141111,-0.3175 -0.211667,-0.599722 -0.176389,-0.917222 -0.141111,-0.211667 -0.282222,-0.423334 -0.423333,-0.635 -0.493889,-0.776112 -1.023056,-1.516945 -1.516945,-2.2225 -0.141111,-0.246945 -0.282222,-0.458612 -0.458611,-0.635 -0.776111,-0.846667 -1.552222,-1.5875 -2.434166,-2.293056 -0.635,-0.529167 -1.375834,-0.917222 -2.187223,-1.164167 -0.493888,-0.141111 -1.023055,-0.3175 -1.552222,-0.493888 -1.234722,-0.458612 -2.504722,-0.846667 -3.81,-1.164167 z m 4.409722,1.552222 c 0.493889,0.211667 0.493889,0.493889 0,0.776111 -0.776111,0.423334 -1.622777,0.705556 -2.539999,0.811389 -0.529167,0.07056 -1.058334,0.211667 -1.552223,0.458611 -0.211666,0.105834 -0.458611,0.211667 -0.705555,0.246945 -0.917222,0.211666 -1.799167,0.458611 -2.645833,0.670277 -0.493889,0.141112 -0.9525,0.176389 -1.446389,0.105834 -0.282223,-0.03528 -0.493889,-0.141111 -0.705556,-0.282222 -0.141111,-0.141112 -0.282222,-0.246945 -0.423333,-0.352778 -0.07056,0.03528 -0.141111,0.03528 -0.246945,0.03528 -0.141111,0.176388 -0.352777,0.3175 -0.564444,0.423333 0.141111,0.105833 0.246944,0.211667 0.388055,0.3175 0,0 0.03528,0 0.03528,0 0.811389,0.246944 0.9525,0.635 0.352778,1.199444 -0.282222,0.3175 -0.352778,0.635 -0.246944,1.023056 0.07055,0.211666 0.141111,0.423333 0.141111,0.635 0.07055,0.529166 -0.03528,0.987778 -0.3175,1.375833 -0.176389,0.176389 -0.352778,0.352778 -0.529167,0.529167 -0.493889,0.352778 -0.9525,0.776111 -1.340556,1.199444 -0.776111,0.846667 -1.693333,1.516945 -2.716388,1.975556 -0.03528,0.282222 0,0.493889 0.141111,0.740833 0.03528,0.07056 0.07055,0.176389 0.07055,0.246944 0,0.03528 0.03528,0.07056 0.03528,0.07056 0.03528,0.03528 0.07056,0.07056 0.105833,0.07056 0.03528,0.105833 0.07056,0.211666 0.03528,0.3175 0,0.07055 0.03528,0.141111 0.03528,0.211666 1.340556,0.282222 2.681111,0.670278 3.951111,1.164167 0.141111,0.07055 0.282222,0.141111 0.388056,0.246944 0.141111,0.670278 0.176388,1.340556 0.07055,2.046111 0,0.246945 -0.141111,0.423334 -0.3175,0.599723 -0.388055,0.282222 -0.740833,0.564444 -1.058333,0.846666 -0.3175,0.458611 -0.635,0.846667 -1.058333,1.234722 -0.07056,0.07056 -0.141112,0.176389 -0.176389,0.282223 -0.07056,0 -0.105834,0.03528 -0.141111,0.07055 0,0.03528 -0.03528,0.03528 -0.07056,0.07056 -0.03528,0 -0.105833,0 -0.141111,0 -0.03528,0 -0.07056,-0.03528 -0.07056,-0.07056 0,0 0,-0.03528 0,-0.03528 0,-0.07056 0,-0.105833 0.03528,-0.141111 0,-0.03528 0,-0.07055 0,-0.07055 0.03528,-0.03528 0.03528,-0.03528 0.03528,-0.07056 0.03528,-0.03528 0.07055,-0.07055 0.105833,-0.141111 0,0 0,-0.03528 0.03528,-0.07056 0,0 0,-0.03528 0,-0.03528 0.564444,-0.846667 1.164167,-1.5875 1.869722,-2.293056 0.246945,-0.246944 0.388056,-0.564444 0.3175,-0.9525 -0.03528,-0.3175 -0.03528,-0.599722 -0.07055,-0.917222 -1.234723,-0.458611 -2.54,-0.776111 -3.880556,-0.987778 -0.3175,-0.03528 -0.493889,-0.246944 -0.493889,-0.635 0,-0.07056 0,-0.176389 0,-0.246944 -0.141111,-0.246945 -0.246944,-0.458611 -0.352778,-0.705556 0,-0.07056 -0.03528,-0.105833 -0.07055,-0.141111 -0.176389,-0.670278 0,-1.164166 0.529167,-1.481666 0.917222,-0.493889 1.728611,-1.128889 2.434166,-1.905 0.564445,-0.564445 1.164167,-1.128889 1.799167,-1.622778 0.03528,-0.564445 0,-1.128889 -0.03528,-1.693333 -0.07056,-0.352778 0,-0.705556 0.141111,-0.987778 0.03528,-0.07056 0.07056,-0.141111 0.105833,-0.211667 -0.529166,-0.246944 -0.846666,-0.670278 -0.917222,-1.27 -0.03528,-0.423333 0.176389,-0.670278 0.635,-0.599722 0.141111,0 0.246945,0 0.388056,-0.105833 0.493889,-0.352778 0.987778,-0.3175 1.481666,0.105833 0.141112,0.141111 0.3175,0.211667 0.529167,0.211667 0.881945,0.03528 1.693333,-0.105834 2.54,-0.388056 0.529167,-0.246944 1.093611,-0.423333 1.658056,-0.529167 0.388055,-0.141111 0.811388,-0.282222 1.164166,-0.458611 0.211667,-0.07055 0.388056,-0.141111 0.599722,-0.176389 0.9525,-0.141111 1.834445,-0.388055 2.681111,-0.740833 z m -0.776111,7.196667 c -0.105833,0.176389 -0.07055,0.352777 0.105834,0.529166 0.846666,0.881945 1.446389,1.869722 1.763889,3.033889 0.141111,0.141111 0.282222,0.246945 0.388055,0.458611 0.03528,0.03528 0.03528,0.03528 0.03528,0.03528 -0.282222,0.282222 -0.564445,0.246944 -0.811389,-0.07056 -0.282222,-0.03528 -0.493889,-0.211666 -0.635,-0.564444 -0.07056,-0.246944 -0.141111,-0.493889 -0.211667,-0.776111 -0.564444,-0.705556 -1.023055,-1.411111 -1.411111,-2.187222 -0.03528,-0.105834 -0.07055,-0.211667 -0.07055,-0.282222 -0.03528,-0.635 0.176389,-1.058334 0.705555,-1.340556 0.776111,-1.058333 1.799167,-1.799167 3.033889,-2.2225 0,0 0,0 0,-0.03528 0.141111,0.03528 0.211667,0.07056 0.3175,0.141111 0,0.03528 0.03528,0.07056 0.03528,0.105834 -0.105833,0.352777 -0.423333,0.670277 -0.881945,0.881944 -1.023055,0.493889 -1.834444,1.234722 -2.363611,2.293056 z m 5.468056,15.945555 c 0,-0.03528 0,-0.03528 0,-0.03528 z m -25.541111,-17.4625 c 0,0 0,-0.03528 0,-0.07055 0.07056,-0.176389 0.211667,-0.3175 0.388056,-0.458611 0,0 0,-0.03528 0,-0.07056 0,0 0,-0.03528 0,-0.07056 0.03528,0 0.07055,0 0.105833,0 0,0 0,0 0.03528,0 0.03528,0.141112 0.07055,0.3175 0.07055,0.458612 -0.03528,0.03528 -0.03528,0.03528 0,0.07055 -0.07055,0.105833 -0.105833,0.246945 -0.176388,0.3175 -0.03528,0.846667 0,1.693333 0.141111,2.54 0.07055,0.458611 0.07055,0.917222 -0.07056,1.305278 -0.105833,0.493889 -0.352778,0.917222 -0.635,1.305278 0,0.105833 -0.03528,0.211666 -0.105833,0.282222 0,0.03528 0,0.03528 -0.03528,0.07055 0.176389,0.246945 0.352778,0.458611 0.529167,0.705556 0.635,-0.03528 1.164166,0.03528 1.693333,0.282222 0.03528,0 0.03528,0.03528 0.07056,0.105833 0.07055,0.388056 -0.07056,0.705556 -0.352778,0.917223 0.670278,0.105833 0.987778,0.493888 0.9525,1.234722 0,0.3175 -0.07056,0.599722 -0.211667,0.881944 -0.03528,0.105834 -0.105833,0.246945 -0.141111,0.388056 -0.493889,1.199444 -0.388056,2.363611 0.352778,3.457222 0.388055,0.564444 0.670278,1.128889 0.881944,1.728611 -0.3175,0.458611 -0.635,0.388056 -0.917222,-0.176389 -0.423333,-0.811389 -0.846667,-1.658055 -1.27,-2.504722 -0.176389,-0.423333 -0.246944,-0.846667 -0.211667,-1.305278 0,-0.493889 0.141111,-0.9525 0.352778,-1.375833 0.141111,-0.211667 0.246945,-0.493889 0.282222,-0.740833 0.03528,-0.246945 0.03528,-0.458612 -0.07055,-0.670278 -0.282222,0 -0.529167,-0.105834 -0.740834,-0.352778 -0.105833,-0.07056 -0.141111,-0.211667 -0.105833,-0.3175 0,-0.141111 0.03528,-0.282222 0.03528,-0.423333 0.03528,-0.03528 0.07056,-0.07056 0.105833,-0.105834 -0.388055,0 -0.811389,-0.141111 -1.199444,-0.458611 -0.211667,-0.141111 -0.388056,-0.3175 -0.564445,-0.529166 -0.282222,-0.458611 -0.282222,-0.846667 0,-1.305278 0.705556,-1.023056 0.917223,-2.116667 0.599723,-3.245556 -0.141112,-0.388055 -0.105834,-0.776111 0.105833,-1.128888 -0.03528,-0.176389 0,-0.282223 0,-0.458612 0,0 0,-0.07055 0,-0.07055 0.03528,-0.07056 0.07056,-0.105833 0.105833,-0.105833 0,-0.03528 0,-0.07056 0,-0.105834 z"
       id="path34" />
    <path
       style="fill:#5f5f61;stroke:none;stroke-width:0.352778"
       d="m 91.779243,48.348196 c 0.493889,-0.282222 0.493889,-0.564444 0,-0.776111 -0.846666,0.352778 -1.728611,0.599722 -2.681111,0.740833 -0.211666,0.03528 -0.388055,0.105834 -0.599722,0.176389 -0.352778,0.176389 -0.776111,0.3175 -1.164166,0.458611 -0.564445,0.105834 -1.128889,0.282223 -1.658056,0.529167 -0.846667,0.282222 -1.658055,0.423333 -2.54,0.388056 -0.211667,0 -0.388055,-0.07056 -0.529167,-0.211667 -0.493888,-0.423333 -0.987777,-0.458611 -1.481666,-0.105833 -0.141111,0.105833 -0.246945,0.105833 -0.388056,0.105833 -0.458611,-0.07056 -0.670278,0.176389 -0.635,0.599722 0.07056,0.599722 0.388056,1.023056 0.917222,1.27 -0.03528,0.07056 -0.07055,0.141111 -0.105833,0.211667 -0.141111,0.282222 -0.211667,0.635 -0.141111,0.987778 0.03528,0.564444 0.07056,1.128888 0.03528,1.693333 -0.635,0.493889 -1.234722,1.058333 -1.799167,1.622778 -0.705555,0.776111 -1.516944,1.411111 -2.434166,1.905 -0.529167,0.3175 -0.705556,0.811388 -0.529167,1.481666 0.03528,0.03528 0.07055,0.07056 0.07055,0.141111 0.105834,0.246945 0.211667,0.458611 0.352778,0.705556 0,0.07056 0,0.176389 0,0.246944 0,0.388056 0.176389,0.599723 0.493889,0.635 1.340556,0.211667 2.645833,0.529167 3.880556,0.987778 0.03528,0.3175 0.03528,0.599722 0.07055,0.917222 0.07056,0.388056 -0.07055,0.705556 -0.3175,0.9525 -0.705555,0.705556 -1.305278,1.446389 -1.869722,2.293056 0,0 0,0.03528 0,0.03528 -0.03528,0.03528 -0.03528,0.07056 -0.03528,0.07056 -0.03528,0.07056 -0.07055,0.105833 -0.105833,0.141111 0,0.03528 0,0.03528 -0.03528,0.07056 0,0 0,0.03528 0,0.07055 -0.03528,0.03528 -0.03528,0.07056 -0.03528,0.141111 0,0 0,0.03528 0,0.03528 0,0.03528 0.03528,0.07056 0.07056,0.07056 0.03528,0 0.105833,0 0.141111,0 0.03528,-0.03528 0.07056,-0.03528 0.07056,-0.07056 0.03528,-0.03528 0.07055,-0.07055 0.141111,-0.07055 0.03528,-0.105834 0.105833,-0.211667 0.176389,-0.282223 0.423333,-0.388055 0.740833,-0.776111 1.058333,-1.234722 0.3175,-0.282222 0.670278,-0.564444 1.058333,-0.846666 0.176389,-0.176389 0.3175,-0.352778 0.3175,-0.599723 0.105833,-0.705555 0.07056,-1.375833 -0.07055,-2.046111 -0.105834,-0.105833 -0.246945,-0.176389 -0.388056,-0.246944 -1.27,-0.493889 -2.610555,-0.881945 -3.951111,-1.164167 0,-0.07055 -0.03528,-0.141111 -0.03528,-0.211666 0.03528,-0.105834 0,-0.211667 -0.03528,-0.3175 -0.03528,0 -0.07055,-0.03528 -0.105833,-0.07056 0,0 -0.03528,-0.03528 -0.03528,-0.07056 0,-0.07055 -0.03528,-0.176388 -0.07055,-0.246944 -0.141111,-0.246944 -0.176389,-0.458611 -0.141111,-0.740833 1.023055,-0.458611 1.940277,-1.128889 2.716388,-1.975556 0.388056,-0.423333 0.846667,-0.846666 1.340556,-1.199444 0.176389,-0.176389 0.352778,-0.352778 0.529167,-0.529167 0.282222,-0.388055 0.388055,-0.846667 0.3175,-1.375833 0,-0.211667 -0.07056,-0.423334 -0.141111,-0.635 -0.105834,-0.388056 -0.03528,-0.705556 0.246944,-1.023056 0.599722,-0.564444 0.458611,-0.9525 -0.352778,-1.199444 0,0 -0.03528,0 -0.03528,0 -0.141111,-0.105833 -0.246944,-0.211667 -0.388055,-0.3175 0.211667,-0.105833 0.423333,-0.246945 0.564444,-0.423333 0.105834,0 0.176389,0 0.246945,-0.03528 0.141111,0.105833 0.282222,0.211666 0.423333,0.352778 0.211667,0.141111 0.423333,0.246944 0.705556,0.282222 0.493889,0.07055 0.9525,0.03528 1.446389,-0.105834 0.846666,-0.211666 1.728611,-0.458611 2.645833,-0.670277 0.246944,-0.03528 0.493889,-0.141111 0.705555,-0.246945 0.493889,-0.246944 1.023056,-0.388055 1.552223,-0.458611 0.917222,-0.105833 1.763888,-0.388055 2.539999,-0.811389 z"
       id="path35" />
    <path
       style="fill:#5f5f61;stroke:none;stroke-width:0.352778"
       d="m 91.108966,55.297918 c -0.176389,-0.176389 -0.211667,-0.352777 -0.105834,-0.529166 0.529167,-1.058334 1.340556,-1.799167 2.363611,-2.293056 0.458612,-0.211667 0.776112,-0.529167 0.881945,-0.881944 0,-0.03528 -0.03528,-0.07056 -0.03528,-0.105834 -0.105833,-0.07055 -0.176389,-0.105833 -0.3175,-0.141111 0,0.03528 0,0.03528 0,0.03528 -1.234722,0.423333 -2.257778,1.164167 -3.033889,2.2225 -0.529166,0.282222 -0.740833,0.705556 -0.705555,1.340556 0,0.07055 0.03528,0.176388 0.07055,0.282222 0.388056,0.776111 0.846667,1.481666 1.411111,2.187222 0.07056,0.282222 0.141111,0.529167 0.211667,0.776111 0.141111,0.352778 0.352778,0.529167 0.635,0.564444 0.246944,0.3175 0.529167,0.352778 0.811389,0.07056 0,0 0,0 -0.03528,-0.03528 -0.105833,-0.211666 -0.246944,-0.3175 -0.388055,-0.458611 -0.3175,-1.164167 -0.917223,-2.151944 -1.763889,-3.033889 z"
       id="path36" />
    <path
       style="fill:#867982;stroke:none;stroke-width:0.352778"
       d="m 96.471188,70.679029 c 0,0 0,0 0,0.03528 v 0 z"
       id="path37" />
    <path
       style="fill:#5f5f61;stroke:none;stroke-width:0.352778"
       d="m 70.930077,53.181252 c 0,0.03528 0,0.07055 0,0.07055 0,0.03528 0,0.07056 0,0.105834 -0.03528,0 -0.07055,0.03528 -0.105833,0.105833 0,0 0,0.07055 0,0.07055 0,0.176389 -0.03528,0.282223 0,0.458612 -0.211667,0.352777 -0.246945,0.740833 -0.105833,1.128888 0.3175,1.128889 0.105833,2.2225 -0.599723,3.245556 -0.282222,0.458611 -0.282222,0.846667 0,1.305278 0.176389,0.211666 0.352778,0.388055 0.564445,0.529166 0.388055,0.3175 0.811389,0.458611 1.199444,0.458611 -0.03528,0.03528 -0.07055,0.07056 -0.105833,0.105834 0,0.141111 -0.03528,0.282222 -0.03528,0.423333 -0.03528,0.105833 0,0.246944 0.105833,0.3175 0.211667,0.246944 0.458612,0.352778 0.740834,0.352778 0.105833,0.211666 0.105833,0.423333 0.07055,0.670278 -0.03528,0.246944 -0.141111,0.529166 -0.282222,0.740833 -0.211667,0.423333 -0.352778,0.881944 -0.352778,1.375833 -0.03528,0.458611 0.03528,0.881945 0.211667,1.305278 0.423333,0.846667 0.846667,1.693333 1.27,2.504722 0.282222,0.564445 0.599722,0.635 0.917222,0.176389 -0.211666,-0.599722 -0.493889,-1.164167 -0.881944,-1.728611 -0.740834,-1.093611 -0.846667,-2.257778 -0.352778,-3.457222 0.03528,-0.141111 0.105833,-0.282222 0.141111,-0.388056 0.141111,-0.282222 0.211667,-0.564444 0.211667,-0.881944 0.03528,-0.740834 -0.282222,-1.128889 -0.9525,-1.234722 0.282222,-0.211667 0.423333,-0.529167 0.352778,-0.917223 -0.03528,-0.07055 -0.03528,-0.105833 -0.07056,-0.105833 -0.529167,-0.246944 -1.058333,-0.3175 -1.693333,-0.282222 -0.176389,-0.246945 -0.352778,-0.458611 -0.529167,-0.705556 0.03528,-0.03528 0.03528,-0.03528 0.03528,-0.07055 0.07055,-0.07056 0.105833,-0.176389 0.105833,-0.282222 0.282222,-0.388056 0.529167,-0.811389 0.635,-1.305278 0.141111,-0.388056 0.141111,-0.846667 0.07056,-1.305278 -0.141111,-0.846667 -0.176389,-1.693333 -0.141111,-2.54 0.07055,-0.07055 0.105833,-0.211667 0.176388,-0.3175 -0.03528,-0.03528 -0.03528,-0.03528 0,-0.07055 0,-0.141112 -0.03528,-0.3175 -0.07055,-0.458612 -0.03528,0 -0.03528,0 -0.03528,0 -0.03528,0 -0.07055,0 -0.105833,0 0,0.03528 0,0.07056 0,0.07056 0,0.03528 0,0.07056 0,0.07056 -0.176389,0.141111 -0.3175,0.282222 -0.388056,0.458611 z"
       id="path38" />
    <path
       style="fill:#ffffff;stroke:none;stroke-width:0.352778"
       d="m 58.970911,76.005973 c 0.03528,0.07056 0.07055,0.105834 0.105833,0.176389 0.141111,0.246945 0.352778,0.458611 0.599722,0.599722 1.128889,0.564445 2.293056,0.599723 3.421945,0.03528 0.423333,-0.176389 0.670278,-0.493889 0.740833,-0.9525 0.03528,-0.282222 0.105833,-0.564444 0.141111,-0.846666 0.03528,-0.105834 0.03528,-0.246945 0.03528,-0.388056 -0.635,0.211667 -1.27,0.388056 -1.905,0.599722 0.03528,0.352778 0,0.705556 -0.03528,1.023056 -0.03528,0.176389 -0.141111,0.246944 -0.3175,0.246944 -0.529166,-0.03528 -0.846666,-0.3175 -0.917222,-0.846666 0,-0.03528 0,-0.07056 -0.03528,-0.07056 -0.493889,0.105833 -1.023055,0.246945 -1.552222,0.388056 -0.105833,0 -0.211667,0.03528 -0.282222,0.03528 z"
       id="path39" />
    <path
       style="fill:#ffffff;stroke:none;stroke-width:0.352778"
       d="m 55.090355,79.07514 c -0.105833,-0.176389 -0.176389,-0.388056 -0.211666,-0.599722 -0.03528,-0.282222 -0.07056,-0.529167 -0.105834,-0.811389 -0.03528,-0.211667 -0.03528,-0.388056 -0.03528,-0.599722 -1.411111,0.529166 -2.822223,0.917222 -4.303889,1.199444 1.552222,0.211667 3.104444,0.493889 4.656666,0.811389 z"
       id="path40" />
  </g>
</svg>
