<?xml version="1.0" encoding="UTF-8" standalone="no"?>
<!-- Created with sK1/UniConvertor (http://sk1project.org/) -->

<svg
   width="239pt"
   height="75.5952pt"
   viewBox="0 0 239 75.595198"
   fill-rule="evenodd"
   version="1.1"
   id="svg19"
   sodipodi:docname="while.svg"
   inkscape:version="1.3 (0e150ed6c4, 2023-07-21)"
   xmlns:inkscape="http://www.inkscape.org/namespaces/inkscape"
   xmlns:sodipodi="http://sodipodi.sourceforge.net/DTD/sodipodi-0.dtd"
   xmlns="http://www.w3.org/2000/svg"
   xmlns:svg="http://www.w3.org/2000/svg">
  <defs
     id="defs19" />
  <sodipodi:namedview
     id="namedview19"
     pagecolor="#ffffff"
     bordercolor="#000000"
     borderopacity="0.25"
     inkscape:showpageshadow="2"
     inkscape:pageopacity="0.0"
     inkscape:pagecheckerboard="0"
     inkscape:deskcolor="#d1d1d1"
     inkscape:document-units="pt"
     inkscape:zoom="0.74386201"
     inkscape:cx="332.723"
     inkscape:cy="-109.56333"
     inkscape:window-width="1920"
     inkscape:window-height="1027"
     inkscape:window-x="1912"
     inkscape:window-y="-8"
     inkscape:window-maximized="1"
     inkscape:current-layer="svg19" />
  <g
     id="g19"
     transform="translate(-48.6,-664.31336)">
    <g
       id="g18">
      <path
         style="fill:#5f5f61;stroke:none"
         d="m 268.1,698.59 c -0.3,-0.2 -0.6,-0.3 -0.9,-0.4 -1.5,-0.1 -3,0.1 -4.5,0.5 -0.8,0.3 -1.5,0.7 -2.2,1.2 -0.7,0.7 -1.2,1.3 -1.7,2 0,0 -0.1,0 -0.1,0 -0.4,-0.1 -0.8,-0.1 -1.3,-0.1 0,0 -0.1,0 -0.2,0 -1.4,0 -2.8,0.1 -4.2,0.3 -0.5,0 -0.9,0 -1.4,0.1 -0.6,0.1 -1.3,0.4 -1.8,0.6 0,0.1 0,0.1 0,0.1 0,0.1 0,0.1 0,0.2 0,0 0,0 0,0 1,0.5 2,0.9 2.9,1.4 0.5,0.2 1,0.4 1.5,0.6 0.7,0.2 1.2,0.5 1.5,0.7 -0.3,0 -0.5,0.1 -0.8,0.3 -0.9,0.3 -1.8,0.7 -2.7,1.2 -0.7,0.3 -1.4,0.8 -1.9,1.3 0,0.1 0,0.1 0,0.2 0,0 0,0 0,0.1 0,0 0,0 0,0.1 0.1,0.1 0.1,0.1 0.2,0.1 2.1,0 4.3,0 6.5,-0.2 -0.1,0.7 -0.1,1.4 0,2.2 0,0.1 0.1,0.3 0.2,0.5 -0.1,0.7 -0.3,1.3 -0.4,2 0,0.3 -0.1,0.6 -0.1,0.9 -0.1,0.2 -0.1,0.5 -0.1,0.7 -0.2,0.4 -0.3,0.9 -0.3,1.3 -0.6,1.9 -0.5,3.6 0.5,5.4 0.5,1 1.1,1.9 1.9,2.8 0.1,0 0.1,0 0.1,0.1 0.1,0.1 0.1,0.3 0.2,0.4 0.7,1 1.5,1.8 2.6,2.3 0,0.5 0.2,0.9 0.5,1.4 0.3,0.5 0.7,0.8 1.1,1 0.2,1.9 0.7,3.9 1.5,5.8 -1,0 -1.9,0.1 -2.8,0.1 -0.6,0.1 -0.9,0.4 -0.7,1 0,0.2 0.1,0.3 0.4,0.4 0.3,0 0.7,0 1.1,0.1 -0.3,0 -0.4,0.1 -0.6,0.2 -0.8,0.2 -1.1,0.7 -0.7,1.4 0.1,0.2 0.3,0.3 0.5,0.2 1.4,-0.4 2.8,-1 4.1,-1.6 1.2,0 2.3,-0.1 3.5,-0.3 0.4,0 0.7,-0.3 0.8,-0.6 0.2,-0.9 -0.2,-1.3 -1.1,-1.3 -1,0.1 -1.9,0.3 -2.9,0.6 -0.4,-1.5 -0.9,-3 -1.2,-4.5 -0.1,-0.5 -0.2,-1 -0.2,-1.5 0.5,-0.1 0.9,-0.3 1.2,-0.6 0.3,0.2 0.8,0.3 1.3,0.4 1.9,0.3 3.8,0.3 5.7,0 0.2,0.3 0.6,0.5 1,0.6 0.5,0.2 1,0.2 1.3,0.1 0.7,0.6 1.4,1.1 2,1.6 -0.5,0.5 -1.1,1 -1.7,1.6 -0.2,-0.1 -0.4,-0.1 -0.7,0 -0.1,0 -0.1,0 -0.2,0 -0.9,0 -1.8,0 -2.6,0.1 -0.9,0 -1.2,0.4 -1,1.2 0,0.1 0.1,0.2 0.2,0.3 0.9,0.2 1.8,0.3 2.6,0.3 -0.5,0.5 -0.9,0.9 -1.4,1.5 -0.2,0.2 -0.2,0.5 -0.1,0.7 0.3,0.5 0.6,0.6 1.1,0.3 1.1,-0.6 2.1,-1.4 2.9,-2.2 0.1,-0.1 0.1,-0.1 0.1,-0.1 1,0.1 2,0.1 2.9,0 0.3,0 0.5,-0.1 0.7,-0.4 0.7,-0.7 0.5,-1.2 -0.5,-1.5 -0.6,0 -1.3,0 -1.8,0.1 0,-0.1 0.1,-0.2 0.2,-0.2 0.5,-0.5 1,-1 1.5,-1.4 0.1,-0.1 0.1,-0.2 0,-0.3 -0.4,-0.9 -1,-1.6 -1.8,-2.1 -0.2,-0.2 -0.4,-0.3 -0.6,-0.5 0.1,-0.1 0.2,-0.3 0.3,-0.5 0.2,-0.1 0.3,-0.1 0.4,-0.2 0.3,-0.1 0.6,-0.2 1,-0.3 0.7,-0.3 1.3,-0.6 1.9,-1 0.1,-0.1 0.3,-0.2 0.5,-0.2 2.5,-0.7 4.5,-2.1 5.9,-4.2 0.2,-0.4 0.4,-0.8 0.3,-1.1 0.1,-0.1 0.1,-0.3 0.1,-0.4 -0.1,-0.4 -0.3,-0.6 -0.7,-0.5 0,0 0,0 -0.1,0 -0.1,-0.2 -0.3,-0.3 -0.6,-0.2 -0.8,0 -1.4,0 -2.1,0.1 1.1,-1.1 1.8,-2.3 2.2,-3.7 0.1,-0.5 0,-0.8 -0.4,-1.1 -1.1,-0.5 -2.3,-1 -3.5,-1.4 0,0 0,0 -0.1,-0.1 -0.4,-0.2 -0.8,-0.4 -1.2,-0.6 0,0 0,0 0,-0.1 -1.4,-0.6 -2.7,-1.2 -4,-1.8 -0.8,-1 -1.3,-2.2 -1.8,-3.4 0.1,-0.2 0.1,-0.4 0.2,-0.6 0.2,-0.4 0.2,-0.8 0.3,-1.3 0,-1.2 -0.2,-2.4 -0.7,-3.5 0,-0.2 -0.2,-0.3 -0.2,-0.4 -0.1,-0.8 -0.6,-1.5 -1.3,-2 -0.7,-1.1 -1.9,-1.8 -3.5,-2.2 -0.2,0 -0.4,0.1 -0.7,0.1 -0.5,-0.1 -0.9,-0.2 -1.3,-0.2 z m -3.9,10.3 c -0.8,-1.4 -0.8,-2.8 0,-4.2 0.2,-0.4 0.5,-0.6 0.9,-0.8 0.4,-0.2 0.8,-0.3 1.3,-0.3 0.3,0 0.5,0 0.8,0.1 1.5,0.1 2.5,1 2.9,2.5 0.2,0.4 0.2,0.9 0.1,1.2 -0.3,1.3 -1.1,2.2 -2.5,2.4 -1.1,0.3 -2.1,0.1 -3,-0.4 -0.3,-0.1 -0.4,-0.3 -0.5,-0.5 z m -5.7,-6.3 c 0.1,-0.1 0.1,-0.1 0.1,-0.1 0,-0.1 0.1,-0.2 0.2,-0.2 0,0 0.1,0 0.1,0 0,0 0,0 0.1,0 0.1,0.1 0.1,0.1 0.1,0.1 0,0.1 0,0.1 0,0.2 -0.1,0 -0.1,0 -0.2,0 0,0.1 0,0.1 0,0.2 0,0 0,0.1 0,0.2 0,0.1 0,0.1 0,0.1 -0.1,0 -0.1,0 -0.1,0.1 0,0 0.1,0.1 0.1,0.2 0,0.2 0,0.2 0,0.3 -0.2,0.2 -0.3,0.5 -0.3,0.8 0,0.1 0,0.1 0,0.2 0,0 0,0 0,0.1 0,0 0,0 -0.1,0.1 -0.1,0.3 -0.1,0.6 -0.1,0.9 0,0.1 0,0.2 0,0.3 -0.1,0.4 -0.2,0.8 -0.2,1.3 0,0.1 0,0.2 -0.1,0.3 l -0.2,0.1 c -0.2,-0.1 -0.5,-0.2 -0.7,-0.2 -0.3,0 -0.5,0 -0.8,0 -1.2,0.2 -2.3,0.3 -3.2,0.5 0.3,-0.2 0.6,-0.4 0.9,-0.5 0.1,-0.1 0.3,-0.2 0.5,-0.3 0.5,-0.2 1,-0.5 1.5,-0.6 0.4,-0.1 0.8,-0.2 1.2,-0.3 0.1,0 0.1,0 0.2,0 0.2,-0.2 0.3,-0.3 0.2,-0.5 0,-0.2 -0.1,-0.3 -0.2,-0.3 -0.1,-0.3 -0.3,-0.4 -0.6,-0.5 -0.8,-0.4 -1.7,-0.8 -2.5,-1.2 -0.8,-0.3 -1.6,-0.6 -2.4,-1 1.5,-0.2 2.9,-0.3 4.4,-0.1 0.8,0 1.5,0 2.1,-0.2 z"
         id="path1" />
      <path
         style="fill:#ffffff;stroke:none"
         d="m 264.2,704.69 c -0.8,1.4 -0.8,2.8 0,4.2 0.1,0.2 0.2,0.4 0.5,0.5 0.9,0.5 1.9,0.7 3,0.4 1.4,-0.2 2.2,-1.1 2.5,-2.4 0.1,-0.3 0.1,-0.8 -0.1,-1.2 -0.4,-1.5 -1.4,-2.4 -2.9,-2.5 -0.3,-0.1 -0.5,-0.1 -0.8,-0.1 -0.5,0 -0.9,0.1 -1.3,0.3 -0.4,0.2 -0.7,0.4 -0.9,0.8 z m 2.2,3.1 c -0.3,-0.2 -0.6,-0.4 -0.7,-0.6 -0.1,-0.1 -0.2,-0.4 -0.3,-0.6 0,-0.1 0,-0.2 0,-0.3 0,-0.1 0,-0.2 0,-0.2 0.2,-0.3 0.3,-0.5 0.5,-0.6 0.3,-0.4 0.7,-0.5 1.2,-0.4 1.1,0.5 1.3,1.2 0.7,2.3 -0.3,0.5 -0.7,0.7 -1.4,0.4 z"
         id="path2" />
      <path
         style="fill:#5f5f61;stroke:none"
         d="m 265.7,707.19 c 0.1,0.2 0.4,0.4 0.7,0.6 0.7,0.3 1.1,0.1 1.4,-0.4 0.6,-1.1 0.4,-1.8 -0.7,-2.3 -0.5,-0.1 -0.9,0 -1.2,0.4 -0.2,0.1 -0.3,0.3 -0.5,0.6 0,0 0,0.1 0,0.2 0,0.1 0,0.2 0,0.3 0.1,0.2 0.2,0.5 0.3,0.6 z"
         id="path3" />
      <path
         style="fill:#ffffff;stroke:none"
         d="m 258.6,702.49 c 0,0 0,0 -0.1,0.1 -0.6,0.2 -1.3,0.2 -2.1,0.2 -1.5,-0.2 -2.9,-0.1 -4.4,0.1 0.8,0.4 1.6,0.7 2.4,1 0.8,0.4 1.7,0.8 2.5,1.2 0.3,0.1 0.5,0.2 0.6,0.5 0.1,0 0.2,0.1 0.2,0.3 0.1,0.2 0,0.3 -0.2,0.5 -0.1,0 -0.1,0 -0.2,0 -0.4,0.1 -0.8,0.2 -1.2,0.3 -0.5,0.1 -1,0.4 -1.5,0.6 -0.2,0.1 -0.4,0.2 -0.5,0.3 -0.3,0.1 -0.6,0.3 -0.9,0.5 0.9,-0.2 2,-0.3 3.2,-0.5 0.3,0 0.5,0 0.8,0 0.2,0 0.5,0.1 0.7,0.2 l 0.2,-0.1 c 0.1,-0.1 0.1,-0.2 0.1,-0.3 0,-0.5 0.1,-0.9 0.2,-1.3 0,-0.1 0,-0.2 0,-0.3 0,-0.3 0,-0.6 0.1,-0.9 0.1,-0.1 0.1,-0.1 0.1,-0.1 0,-0.1 0,-0.1 0,-0.1 0,-0.1 0,-0.1 0,-0.2 0,-0.3 0.1,-0.6 0.3,-0.8 0,-0.1 0,-0.1 0,-0.3 0,-0.1 -0.1,-0.2 -0.1,-0.2 0,-0.1 0,-0.1 0.1,-0.1 0,0 0,0 0,-0.1 0,-0.1 0,-0.2 0,-0.2 0,-0.1 0,-0.1 0,-0.2 0.1,0 0.1,0 0.2,0 0,-0.1 0,-0.1 0,-0.2 0,0 0,0 -0.1,-0.1 -0.1,0 -0.1,0 -0.1,0 0,0 -0.1,0 -0.1,0 -0.1,0 -0.2,0.1 -0.2,0.2 z m -0.2,1.1 0.2,-0.2 c -0.1,0.1 -0.1,0.1 -0.1,0.2 z"
         id="path4" />
      <path
         style="fill:#4daccc;stroke:none"
         d="m 258.6,703.39 -0.2,0.2 c 0,0 0,0 0.1,0 0,-0.1 0,-0.1 0.1,-0.2 z"
         id="path5" />
      <path
         style="fill:#5f5f61;stroke:none"
         d="m 163.9,704.59 c -2.2,0.1 -4,1.1 -5.3,2.8 -0.2,0.2 -0.3,0.3 -0.4,0.5 -0.3,-0.2 -0.5,-0.5 -0.7,-0.7 -1.4,-1.4 -2.9,-2.5 -4.5,-3.4 h -0.1 c -0.1,0.1 -0.1,0.1 -0.1,0.1 v 0 c -0.1,0.1 -0.1,0.2 -0.1,0.3 0,0.2 0,0.4 0.1,0.6 0,0 0,0.1 0.1,0.2 0.1,0.1 0.2,0.2 0.2,0.3 0,0.1 0.1,0.3 0.1,0.4 0.1,0.2 0.2,0.4 0.3,0.7 0.1,0.1 0.2,0.2 0.2,0.3 0.2,0.3 0.2,0.6 0.3,0.9 0.1,0 0.2,0.1 0.2,0.3 0.2,0.2 0.2,0.5 0.3,0.7 0.1,0.2 0.2,0.3 0.2,0.5 0.2,0.2 0.3,0.5 0.3,0.8 -0.2,0 -0.5,0 -0.8,0.1 -0.8,0.1 -1.6,0.3 -2.4,0.5 -0.9,0.1 -1.6,0.5 -2.1,1 0.6,0.5 1.3,0.9 2,1.2 0.1,0.1 0.1,0.2 0.1,0.2 0.9,0.7 1.7,1.2 2.6,1.8 0.1,0 0.1,0 0.1,0.1 0.1,0.1 0.2,0.3 0.3,0.4 -0.4,0.7 -0.6,1.5 -0.8,2.4 -0.5,2.1 -0.1,4 1,5.9 0,0.1 0.1,0.3 0.1,0.5 0.4,1.2 1.1,2.3 2.1,3.1 0.4,0.3 0.7,0.6 1.1,0.8 0.4,0.3 0.9,0.6 1.3,0.9 0,0.9 0.4,1.6 1.3,2.1 0,1 0.1,2 0.1,3.1 -1,-0.7 -2,-1.2 -3.2,-1.5 0,0 -0.1,0 -0.2,0.1 -0.7,0.5 -0.7,1 0.2,1.4 0.7,0.4 1.3,0.8 2,1.2 -0.9,0.3 -1.7,0.7 -2.5,1.2 -0.5,0.2 -0.6,0.5 -0.4,0.9 0.3,0.5 0.7,0.6 1.1,0.4 1,-0.5 2,-0.9 3,-1.3 0.1,0 0.2,-0.1 0.3,-0.1 0.2,0 0.3,0 0.5,-0.1 0,0 0,0 0.1,0 0.3,0.5 0.8,0.8 1.4,1 0.8,0.3 1.3,0 1.4,-0.8 0,-0.1 0,-0.2 -0.1,-0.3 -0.6,-0.5 -1.3,-0.9 -2.1,-1.1 0,-0.1 0,-0.1 0,-0.2 0.1,-1.3 0,-2.6 0,-3.9 0.1,-0.1 0.3,-0.1 0.4,-0.2 0.1,0 0.2,0 0.2,-0.1 0.2,-0.1 0.4,-0.2 0.5,-0.3 0.2,0.1 0.4,0.1 0.5,0.1 0.4,0.1 0.8,0.2 1.2,0.2 0.3,0.1 0.6,0.1 0.9,0.1 0.1,0.2 0.3,0.4 0.4,0.5 0.4,0.3 0.8,0.5 1.1,0.7 0.2,0.6 0.4,1.3 0.6,2 0.2,0.6 0.4,1.2 0.6,1.8 -0.8,-0.2 -1.6,-0.3 -2.5,-0.3 -0.4,0 -0.6,0.3 -0.6,0.7 0,0.2 0,0.3 0.1,0.3 0.4,0.2 0.8,0.3 1.3,0.5 -0.1,0 -0.2,0.1 -0.3,0.1 -0.6,0.5 -0.7,1.1 -0.2,1.6 0.1,0.2 0.3,0.2 0.5,0.2 0.9,-0.4 1.7,-0.9 2.4,-1.6 0.2,0 0.3,-0.1 0.4,-0.2 0.1,-0.1 0.2,-0.1 0.2,-0.1 0.9,0 1.7,-0.1 2.6,-0.4 0.3,-0.1 0.5,-0.3 0.6,-0.5 0.4,-0.8 0.2,-1.3 -0.7,-1.4 -0.3,0 -0.5,0.1 -0.8,0.2 -0.5,0.2 -0.9,0.3 -1.4,0.3 -0.1,0 -0.1,0 -0.1,0.1 -0.2,-1.3 -0.5,-2.5 -1,-3.7 0.2,-0.1 0.3,-0.3 0.4,-0.4 0.2,-0.3 0.4,-0.5 0.5,-0.8 0.1,0 0.2,-0.1 0.4,-0.1 0.3,0 0.7,0 1.1,0 0.9,-0.1 1.5,-0.5 1.8,-1.1 1.7,-0.4 3.2,-1.2 4.3,-2.5 0.2,-0.2 0.3,-0.4 0.3,-0.7 0,-1.1 -0.3,-2 -1.2,-2.6 0.3,-0.6 0.4,-1.2 0.5,-1.9 0,-0.2 -0.1,-0.5 -0.3,-0.6 -0.9,-0.7 -1.8,-1.4 -2.7,-2.1 -0.6,-0.3 -1,-0.8 -1.5,-1.2 -0.2,-0.3 -0.4,-0.5 -0.6,-0.7 0.1,-0.6 0.1,-1.2 0.1,-1.8 0,-2 -0.4,-3.9 -1.1,-5.8 -0.3,-0.6 -0.6,-1.2 -1,-1.8 -1.7,-2 -3.8,-3 -6.5,-2.8 z m -5.4,4.2 c 0,0 0,0 0.1,0 v 0 c 0.1,0 0.1,0 0.2,0.1 0,0.1 0,0.1 0.1,0.2 -0.4,0.5 -0.7,1.1 -0.9,1.7 0,0.1 0,0.1 0,0.2 -0.2,0.3 -0.4,0.6 -0.5,0.9 0,0.1 0,0.1 0,0.2 -0.2,0 -0.4,0.1 -0.6,0.3 -0.3,0.8 -0.7,1.6 -1.2,2.3 0,0 -0.1,0.1 -0.1,0.1 -0.1,-0.1 -0.1,-0.1 -0.1,-0.1 0,0 -0.1,-0.1 -0.2,-0.1 v -0.1 c 0,0 -0.1,-0.1 -0.2,-0.1 -1.3,-1.1 -2.7,-1.9 -4.3,-2.7 1.7,-0.5 3.4,-0.8 5,-1.1 0.2,0 0.3,0 0.2,-0.2 -0.4,-1.4 -1,-2.8 -1.7,-4.1 0.1,-0.2 0,-0.3 -0.1,-0.5 -0.1,-0.1 -0.2,-0.3 -0.2,-0.5 0.1,0.1 0.2,0.2 0.3,0.3 1.2,1 2.3,2 3.4,3 0,0 0,0 0,0 0.2,0.2 0.4,0.2 0.6,0.2 0.1,0 0.1,0 0.2,0 z m 9.2,4.8 c -0.1,0.1 -0.1,0.2 -0.2,0.2 -0.9,1.8 -2.4,2.3 -4.3,1.6 -0.6,-0.2 -0.9,-0.6 -1.2,-1.1 -0.5,-1 -0.3,-2 0.4,-2.9 0.2,-0.3 0.4,-0.5 0.6,-0.7 0.6,-1 1.5,-1.5 2.7,-1.6 1.5,0 2.4,0.7 2.4,2.2 0.1,0.8 -0.1,1.6 -0.4,2.3 z"
         id="path6" />
      <path
         style="fill:#ffffff;stroke:none"
         d="m 158.6,708.79 c -0.1,0 -0.1,0 -0.1,0 -0.1,0 -0.1,0 -0.2,0 -0.2,0 -0.4,0 -0.6,-0.2 0,0 0,0 0,0 -1.1,-1 -2.2,-2 -3.4,-3 -0.1,-0.1 -0.2,-0.2 -0.3,-0.3 0,0.2 0.1,0.4 0.2,0.5 0.1,0.2 0.2,0.3 0.1,0.5 0.7,1.3 1.3,2.7 1.7,4.1 0.1,0.2 0,0.2 -0.2,0.2 -1.6,0.3 -3.3,0.6 -5,1.1 1.6,0.8 3,1.6 4.3,2.7 0.1,0 0.2,0.1 0.2,0.1 v 0.1 c 0.1,0 0.2,0.1 0.2,0.1 0,0 0,0 0.1,0.1 0,0 0.1,-0.1 0.1,-0.1 0.5,-0.7 0.9,-1.5 1.2,-2.3 0.2,-0.2 0.4,-0.3 0.6,-0.3 0,-0.1 0,-0.1 0,-0.2 0.1,-0.3 0.3,-0.6 0.5,-0.9 0,-0.1 0,-0.1 0,-0.2 0.2,-0.6 0.5,-1.2 0.9,-1.7 -0.1,-0.1 -0.1,-0.1 -0.1,-0.2 -0.1,-0.1 -0.1,-0.1 -0.2,-0.1 z"
         id="path7" />
      <path
         style="fill:#ffffff;stroke:none"
         d="m 167.5,713.79 c 0.1,0 0.1,-0.1 0.2,-0.2 0.3,-0.7 0.5,-1.5 0.4,-2.3 0,-1.5 -0.9,-2.2 -2.4,-2.2 -1.2,0.1 -2.1,0.6 -2.7,1.6 -0.2,0.2 -0.4,0.4 -0.6,0.7 -0.7,0.9 -0.9,1.9 -0.4,2.9 0.3,0.5 0.6,0.9 1.2,1.1 1.9,0.7 3.4,0.2 4.3,-1.6 z m -2.1,-2.2 c 1.3,0 1.7,0.5 1.4,1.6 -0.3,0.8 -0.8,1 -1.6,0.7 -0.2,-0.1 -0.4,-0.3 -0.5,-0.5 -0.4,-0.7 -0.2,-1.3 0.5,-1.8 0.1,0 0.2,0 0.2,0 z"
         id="path8" />
      <path
         style="fill:#5f5f61;stroke:none"
         d="m 166.8,713.19 c 0.3,-1.1 -0.1,-1.6 -1.4,-1.6 0,0 -0.1,0 -0.2,0 -0.7,0.5 -0.9,1.1 -0.5,1.8 0.1,0.2 0.3,0.4 0.5,0.5 0.8,0.3 1.3,0.1 1.6,-0.7 z"
         id="path9" />
      <path
         style="fill:#5f5f61;stroke:none"
         d="m 222.3,706.69 c -0.6,-0.6 -1.3,-1.2 -2.2,-1.6 -0.4,-0.2 -0.9,-0.4 -1.4,-0.5 -1.6,-0.7 -3.1,-1 -4.8,-1.1 -0.4,-0.1 -0.8,0 -1.2,0.1 -0.2,0 -0.5,0.1 -0.8,0.2 -1.3,0 -2.5,0.5 -3.5,1.5 -1.8,2 -2.9,4.3 -3.2,6.9 0,0.6 0,1.2 -0.1,1.7 0,0.6 0,1.1 0.1,1.6 -0.2,1.6 -0.2,3.2 0.1,4.8 -0.3,1.4 0,2.7 0.7,3.9 0.7,1 1.5,2 2.4,2.7 -0.1,0.1 -0.1,0.2 -0.1,0.2 0,0.2 0,0.4 0.1,0.5 0,0.2 0.1,0.3 0.2,0.5 -1.1,0.2 -2.2,0.4 -3.3,0.7 0.1,-0.6 0.3,-1.1 0.4,-1.5 0.3,-0.9 0.1,-1.5 -0.8,-1.8 -0.2,0 -0.5,0.1 -0.6,0.4 -0.2,0.4 -0.4,0.8 -0.5,1.3 -0.1,0.4 -0.1,0.8 -0.2,1.3 -0.4,-0.6 -0.9,-1.2 -1.4,-1.8 -0.4,-0.6 -0.9,-1 -1.5,-1.2 -0.1,0 -0.2,0.1 -0.4,0.1 -0.2,0.2 -0.4,0.4 -0.3,0.6 0,0.6 0.3,1.2 0.8,1.6 0.7,0.8 1.4,1.6 2.1,2.4 0.1,0.1 0.1,0.1 0.1,0.2 0,1.1 0.2,2.3 0.6,3.4 0.1,0.3 0.2,0.5 0.4,0.7 0.5,0.5 1,0.5 1.4,-0.1 0.2,-0.3 0.2,-0.5 0.1,-0.8 -0.2,-0.6 -0.4,-1.3 -0.5,-2 0,-0.4 -0.2,-0.9 -0.4,-1.2 1.2,-0.1 2.4,-0.3 3.5,-0.7 0.6,-0.1 1.1,-0.3 1.7,-0.4 0.5,0.3 1.3,0.4 2.1,0.2 0.2,0 0.4,-0.1 0.6,-0.1 0.3,0.1 0.7,0.2 1.1,0.3 0.4,0.1 0.8,0.2 1.2,0.2 0.8,0.1 1.6,0.1 2.5,0.1 0,1.8 0.4,3.6 1,5.3 -0.9,0 -1.7,-0.1 -2.6,-0.4 -0.9,-0.2 -1.4,0 -1.6,0.8 0,0.3 0.1,0.4 0.3,0.5 0.9,0.4 1.9,0.7 3,0.8 -0.9,0.4 -1.7,0.7 -2.6,1.1 -0.2,0.1 -0.4,0.2 -0.5,0.4 -0.5,0.5 -0.4,0.9 0.2,1.3 0.1,0 0.2,0.1 0.3,0 1.6,-0.5 3.2,-1.1 4.8,-1.7 0,0 0.1,0 0.2,-0.1 1.1,0.2 2.2,0.2 3.3,0 0.5,-0.1 0.7,-0.4 0.7,-0.8 0,-0.4 -0.2,-0.6 -0.7,-0.7 -0.9,-0.1 -1.8,-0.1 -2.8,-0.2 0,-0.8 -0.2,-1.6 -0.5,-2.4 -0.4,-1.2 -0.7,-2.4 -1,-3.6 0,-0.1 0,-0.2 0,-0.3 0,0 0,0 0.1,0 3,0.1 5.8,-0.6 8.4,-2.2 1,-0.1 2,-0.5 2.9,-1 0.3,-0.2 0.5,-0.4 0.7,-0.5 0.9,-0.7 1.7,-1.4 2.6,-2 1,-0.7 1.7,-1.6 2.3,-2.6 0.2,-0.4 0.5,-0.9 0.6,-1.3 0.4,-0.9 0.2,-1.5 -0.6,-1.8 -2,1 -4.2,1.6 -6.4,1.8 1.1,-1 2,-2.1 2.9,-3.3 0.3,-0.5 0.3,-0.9 0.2,-1.2 0,-0.2 -0.1,-0.3 -0.1,-0.4 -0.1,-0.1 -0.2,-0.3 -0.3,-0.4 -0.5,-0.3 -1,-0.4 -1.5,-0.2 -2.1,0.4 -4.1,0.4 -6,-0.1 -0.1,-0.2 -0.1,-0.3 0,-0.4 1.3,-0.7 2.7,-1.5 3.9,-2.3 0.2,-0.1 0.3,-0.2 0.5,-0.3 0,0 0.1,0 0.2,0 0.1,0 0.2,0 0.2,0 0.1,-0.1 0.1,-0.1 0.1,-0.2 0.1,0 0.1,-0.1 0.1,-0.2 -0.3,-0.6 -0.8,-0.9 -1.4,-1.1 -1.1,-0.4 -2.1,-0.6 -3.2,-0.6 0,-0.1 0,-0.1 0.1,-0.2 0.3,-0.7 0.6,-1.3 0.9,-1.9 0,-0.1 0,-0.1 0,-0.2 0,0 0,0 0,-0.1 0.1,0 0.1,-0.1 0.1,-0.2 0.5,-0.7 0.9,-1.5 1.2,-2.3 0,-0.1 0,-0.1 0,-0.1 -0.1,-0.1 -0.3,-0.3 -0.5,-0.3 v 0.1 c -0.1,0 -0.1,0 -0.2,0 v 0.1 c -1.4,0.8 -2.8,1.5 -4.3,2.1 z m 0.4,0.5 v 0 h 0.1 c 0,0 0,0 0.1,0 0.4,0 0.8,-0.1 1.2,-0.4 0.7,-0.3 1.4,-0.7 2,-0.9 0.1,-0.1 0.1,-0.1 0.1,-0.1 0,0.1 0,0.1 -0.1,0.1 -0.5,0.9 -1.1,1.8 -1.6,2.7 -0.2,0.4 -0.4,0.7 -0.6,1 0,0.1 0,0.2 -0.1,0.2 -0.1,0.3 0,0.5 0.3,0.6 h 0.1 c 1.4,0.4 2.8,0.7 4.1,1 -1.2,0.7 -2.5,1.3 -3.8,2 -0.1,0.1 -0.3,0.2 -0.4,0.2 -0.2,-0.2 -0.4,-0.4 -0.7,-0.4 0,-0.1 -0.1,-0.3 -0.1,-0.3 0,-0.2 0,-0.3 0,-0.4 0,-0.1 0,-0.1 0,-0.1 -0.1,-0.1 -0.1,-0.1 -0.1,-0.1 0,-0.2 -0.1,-0.6 -0.1,-0.9 v 0 c -0.1,-0.1 -0.1,-0.1 -0.1,-0.1 -0.1,-0.2 -0.1,-0.5 -0.2,-0.7 0,0 0,0 -0.1,0 0,-0.1 0,-0.1 0,-0.2 0,0 0,0 0,-0.1 0,0 0,0 -0.1,-0.1 0,0 0,0 0,-0.1 0,0 0,0 0,0 0,-0.1 -0.1,-0.2 -0.1,-0.2 -0.1,-0.1 -0.1,-0.1 -0.1,-0.1 0,-0.1 0,-0.2 0,-0.2 0,0 0,0 0,-0.1 -0.1,-0.1 -0.1,-0.1 -0.2,-0.1 0,-0.1 0,-0.2 0,-0.2 v -0.1 c 0,0 0,0 -0.1,0 0,-0.1 0,-0.2 0,-0.3 0,0 0,0 0,-0.1 0,0 -0.1,0 -0.1,-0.1 0,0 0,0 0,0 0,-0.1 0,-0.1 0,-0.2 -0.1,0 -0.1,0 -0.1,0 -0.1,-0.2 -0.1,-0.3 -0.1,-0.4 0,-0.1 0,-0.1 0,-0.1 0.2,-0.3 0.5,-0.5 0.9,-0.7 z m -6.9,1.3 c 0.1,-0.1 0.2,-0.1 0.4,-0.1 1.5,0.3 2.5,1.1 3.2,2.5 0.1,0.4 0.2,0.8 0.1,1.2 -0.4,1.4 -1.4,2.1 -2.9,2.2 -0.6,0.1 -1.2,0 -1.8,-0.1 -1.4,-0.1 -2.4,-0.8 -3,-1.9 -0.1,-0.2 -0.1,-0.4 -0.1,-0.5 0.1,-1.5 0.9,-2.5 2.4,-3 0.4,-0.1 0.8,-0.2 1.2,-0.2 0.2,-0.1 0.3,-0.1 0.5,-0.1 z m 18.9,12.5 c 0,-0.1 0,-0.1 0,-0.1 0,-0.1 0,-0.1 0.1,-0.1 -0.1,0.1 -0.1,0.1 -0.1,0.2 z m -6.8,0.5 c 0.1,0 0.1,0 0.2,0 -0.2,0.1 -0.3,0.1 -0.4,0.1 0.1,0 0.2,0 0.2,-0.1 z"
         id="path10" />
      <path
         style="fill:#ffffff;stroke:none"
         d="m 222.9,707.29 c -0.1,0 -0.1,0 -0.1,0 0,0 0,0 -0.1,-0.1 v 0 c -0.4,0.2 -0.7,0.4 -0.9,0.7 0,0 0,0 0,0.1 0,0.1 0,0.2 0.1,0.4 0,0 0,0 0.1,0 0,0.1 0,0.1 0,0.2 0,0 0,0 0,0 0,0.1 0.1,0.1 0.1,0.1 0,0.1 0,0.1 0,0.1 0,0.1 0,0.2 0,0.3 0.1,0 0.1,0 0.1,0 v 0.1 c 0,0 0,0.1 0,0.2 0.1,0 0.1,0 0.2,0.1 0,0.1 0,0.1 0,0.1 0,0 0,0.1 0,0.2 0,0 0,0 0.1,0.1 0,0 0.1,0.1 0.1,0.2 0,0 0,0 0,0 0,0.1 0,0.1 0,0.1 0.1,0.1 0.1,0.1 0.1,0.1 0,0.1 0,0.1 0,0.1 0,0.1 0,0.1 0,0.2 0.1,0 0.1,0 0.1,0 0.1,0.2 0.1,0.5 0.2,0.7 0,0 0,0 0.1,0.1 v 0 c 0,0.3 0.1,0.7 0.1,0.9 0,0 0,0 0.1,0.1 0,0 0,0 0,0.1 0,0.1 0,0.2 0,0.4 0,0 0.1,0.2 0.1,0.3 0.3,0 0.5,0.2 0.7,0.4 0.1,0 0.3,-0.1 0.4,-0.2 1.3,-0.7 2.6,-1.3 3.8,-2 -1.3,-0.3 -2.7,-0.6 -4.1,-1 h -0.1 c -0.3,-0.1 -0.4,-0.3 -0.3,-0.6 0.1,0 0.1,-0.1 0.1,-0.2 0.2,-0.3 0.4,-0.6 0.6,-1 0.5,-0.9 1.1,-1.8 1.6,-2.7 v 0 c -0.6,0.2 -1.3,0.6 -2,0.9 -0.4,0.3 -0.8,0.4 -1.2,0.4 z"
         id="path11" />
      <path
         style="fill:#4daccc;stroke:none"
         d="m 222.8,707.19 h -0.1 c 0.1,0.1 0.1,0.1 0.1,0.1 z"
         id="path12" />
      <path
         style="fill:#ffffff;stroke:none"
         d="m 216.2,708.39 c -0.2,0 -0.3,0 -0.4,0.1 -0.2,0 -0.3,0 -0.5,0.1 -0.4,0 -0.8,0.1 -1.2,0.2 -1.5,0.5 -2.3,1.5 -2.4,3 0,0.1 0,0.3 0.1,0.5 0.6,1.1 1.6,1.8 3,1.9 0.6,0.1 1.2,0.2 1.8,0.1 1.5,-0.1 2.5,-0.8 2.9,-2.2 0.1,-0.4 0,-0.8 -0.1,-1.2 -0.7,-1.4 -1.7,-2.2 -3.2,-2.5 z m -1.8,2.6 c 0.1,-0.9 0.6,-1.3 1.5,-1.2 1.1,0.3 1.4,0.9 1.1,1.9 -0.2,0.7 -0.7,1 -1.6,0.8 -0.5,-0.2 -0.9,-0.4 -1.1,-0.9 0,-0.1 0,-0.1 -0.1,-0.2 0,0 0,-0.1 0,-0.1 0,-0.1 0,-0.2 0.1,-0.2 z"
         id="path13" />
      <path
         style="fill:#5f5f61;stroke:none"
         d="m 215.9,709.79 c -0.9,-0.1 -1.4,0.3 -1.5,1.2 -0.1,0.1 -0.1,0.1 -0.1,0.1 -0.1,0 -0.1,0.1 -0.1,0.2 0,0 0,0.1 0,0.1 0.1,0.1 0.1,0.1 0.1,0.2 0.2,0.5 0.6,0.7 1.1,0.9 0.9,0.2 1.4,-0.1 1.6,-0.8 0.3,-1 0,-1.6 -1.1,-1.9 z"
         id="path14" />
      <path
         style="fill:#5f5f61;stroke:none"
         d="m 125.3,679.49 c -1.2,0.5 -2.5,1.2 -3.7,2 -0.4,0.1 -0.8,0.3 -1.1,0.5 -1.3,0.4 -2.5,0.8 -3.7,1.2 -0.3,0.1 -0.6,0.2 -0.9,0.3 -1.8,0.7 -3.5,1.6 -5.1,2.7 -0.5,0.3 -0.9,0.6 -1.4,0.9 -1.6,1.3 -3.3,2.2 -5.2,2.9 -0.4,-0.9 -0.8,-1.7 -1.3,-2.5 -0.2,-0.7 -0.4,-1.3 -0.7,-1.9 -0.5,-1.3 -1.2,-2.7 -1.9,-3.9 -0.2,-0.6 -0.4,-1.1 -0.8,-1.6 -0.9,-1.5 -1.7,-3.1 -2.1,-4.7 -0.1,-0.3 -0.2,-0.6 -0.3,-0.8 -0.7,-1.5 -1.5,-2.8 -2.4,-4.1 -0.9,-1.1 -1.9,-2.1 -3,-2.8 -2.1,-1.4 -4.2,-2.3 -6.5,-2.8 -0.9,-0.5 -2,-0.7 -3.2,-0.5 -0.6,0.1 -1.3,0.1 -2.1,0.1 -3.1,0.3 -6,1.2 -8.5,3 -0.2,0.1 -0.4,0.2 -0.6,0.3 -1.4,1 -2.7,2.1 -3.8,3.3 -1.8,1.9 -3.2,4 -4.4,6.3 -0.9,1.8 -1.7,3.6 -2.3,5.5 -0.1,0.2 -0.1,0.4 -0.2,0.7 0,-0.1 0,-0.1 -0.1,-0.2 -0.6,-0.5 -1.3,-0.8 -2.1,-0.9 -0.6,-0.1 -1.2,-0.2 -1.8,-0.4 -2.2,-0.8 -4.6,-1.4 -6.9,-1.9 -0.1,0.1 -0.1,0.1 -0.2,0.1 0,0 0,0 -0.1,0.1 v 0 c -0.1,0.1 -0.2,0.1 -0.2,0.1 0,0.1 0,0.1 0,0.1 -0.1,0.1 -0.1,0.1 -0.1,0.2 1.1,0.7 2,1.5 2.9,2.4 0.4,0.3 0.7,0.6 1,0.9 0.9,1.1 1.9,2.1 3,3.1 0.3,0.3 0.7,0.7 1.2,1 0.5,0.4 1,0.9 1.6,1.4 -0.4,0.2 -0.8,0.3 -1.2,0.5 -0.4,0.2 -0.8,0.5 -1.2,0.6 -2.3,1.2 -4.3,2.6 -6,4.3 v 0.1 c -0.2,0.1 -0.3,0.2 -0.4,0.5 0.1,0 0.1,0.1 0.2,0.1 1.1,0.4 2.2,0.4 3.3,0.2 2.4,-0.5 4.7,-0.7 7.1,-0.4 0,0.2 0.1,0.4 0.2,0.6 0,0.6 0,1.3 0.1,2 0.1,0.2 0.1,0.5 0.1,0.8 -0.1,0.9 0.1,1.8 0.4,2.7 0.5,1.6 1,3.2 1.4,4.9 0.1,0.7 0.4,1.6 0.7,2.3 0.6,1.6 1.5,3.1 2.8,4.4 0.4,0.4 0.8,0.8 1.3,1.1 1.3,0.7 2.2,1.7 2.9,2.9 0.5,0.7 0.9,1.3 1.2,1.9 0.8,1.4 2,2.7 3.2,3.8 1.1,1 2.3,1.9 3.5,2.6 0.4,0.3 0.8,0.5 1.2,0.7 -0.8,0.2 -1.6,0.5 -2.4,0.8 -2,0.9 -3.9,1.8 -5.8,2.8 -0.2,-0.4 -0.5,-0.7 -0.8,-1 -0.9,-1 -1.7,-2.1 -2.4,-3.2 -0.5,-0.8 -1.2,-1.4 -2,-1.9 -0.3,0 -0.5,0.1 -0.7,0.3 -0.1,0.2 -0.2,0.4 -0.1,0.7 0.3,0.8 0.8,1.6 1.4,2.3 0.5,0.6 1,1.2 1.4,1.9 -0.2,-0.1 -0.4,-0.2 -0.7,-0.3 -0.7,-0.3 -1.3,-0.6 -2,-1 -0.9,-0.5 -1.8,-1 -2.8,-1.3 -0.5,0 -0.8,0.3 -0.9,0.8 -0.1,0.2 0,0.3 0.1,0.4 0.5,0.6 1.2,1.1 2,1.4 1.1,0.6 2.4,1.1 3.5,1.7 0.5,0.2 1,0.4 1.5,0.6 0.2,0.2 0.5,0.3 0.7,0.5 0.3,0.1 0.5,0.2 0.8,0.3 0.2,0.3 0.4,0.7 0.6,1.1 0.5,0.6 0.8,1.2 1.1,1.9 0.4,0.8 0.7,1.6 0.9,2.5 0.2,0.6 0.5,0.9 1.2,1 0.3,0 0.5,-0.1 0.6,-0.4 0.2,-0.6 0.2,-1.2 -0.1,-1.8 -0.6,-1 -1.1,-2.1 -1.5,-3.2 -0.2,-0.3 -0.3,-0.7 -0.5,-1 -0.2,-0.3 -0.4,-0.6 -0.7,-0.9 1.3,-0.4 2.5,-0.9 3.7,-1.4 2,-1 4,-1.8 6.1,-2.5 1,0.4 2,0.5 3.1,0.5 0.4,0.1 0.8,0.2 1.3,0.2 2.1,0.3 4.2,0.1 6.3,-0.6 1.5,-0.4 2.7,-1.2 3.7,-2.2 0.8,0.1 1.6,0.3 2.4,0.4 0.6,0 1.2,0.1 1.7,0.1 0,0.4 0.1,0.8 0.2,1.3 0.5,2.4 1,4.8 1.3,7.2 0.1,0.6 0.2,1.2 0.1,1.9 0,0.1 0,0.2 0,0.3 -0.2,-0.1 -0.4,-0.3 -0.6,-0.4 -2.2,-1 -4.5,-2 -6.7,-2.8 -0.8,0.2 -1,0.6 -0.7,1.4 0.2,0.3 0.4,0.5 0.8,0.7 1.5,0.6 3.1,1.2 4.6,1.9 -0.9,0.2 -1.8,0.4 -2.7,0.5 -1.4,0.2 -2.8,0.4 -4.1,0.8 -0.3,0 -0.4,0.2 -0.4,0.4 0.1,0.8 0.5,1.1 1.5,1 0.3,-0.1 0.6,-0.1 0.9,-0.1 1.5,-0.2 3.1,-0.4 4.6,-0.9 0.2,0 0.4,-0.1 0.6,-0.1 0.2,-0.1 0.5,-0.1 0.8,-0.2 0.4,0 0.8,-0.1 1.2,-0.2 0.2,0 0.4,0 0.6,0 0.1,-0.1 0.3,-0.1 0.4,-0.2 0.3,0.1 0.6,0.3 1,0.3 0.3,0.1 0.6,0.1 1,0.1 0.6,0 1.3,0 1.9,0.1 0.9,0.2 1.7,0.2 2.6,0 0.9,-0.2 1.2,-0.7 1,-1.6 -0.1,-0.1 -0.2,-0.2 -0.3,-0.3 -1.4,-0.2 -2.8,-0.3 -4.2,-0.2 -0.6,-0.1 -1.1,0 -1.6,0.1 0.1,-0.4 0.1,-0.7 0.1,-1.1 -0.1,-0.6 -0.2,-1.2 -0.2,-1.7 -0.3,-1.9 -0.6,-3.7 -0.9,-5.6 -0.2,-0.9 -0.3,-1.8 -0.4,-2.7 0.9,-0.1 1.8,-0.5 2.7,-1 1.7,-1 3.1,-2.3 4.2,-3.8 0.5,-0.1 0.8,-0.2 1.1,-0.5 0,-0.1 0.1,-0.1 0.2,-0.1 2.4,-0.3 4.8,-0.6 7.3,-0.8 2.4,-0.3 4.8,-0.8 7.2,-1.7 1.2,-0.4 2.4,-0.8 3.7,-1.1 1.1,-0.3 2.2,-0.6 3.4,-0.8 0.6,-0.1 1.1,-0.2 1.4,-0.6 0.1,-0.1 0.1,-0.2 0.1,-0.3 -0.1,-0.2 -0.2,-0.4 -0.2,-0.6 0,0 0,-0.1 -0.1,-0.1 -0.2,-0.1 -0.4,-0.1 -0.5,-0.1 -1.4,-0.5 -2.7,-1.2 -4,-2 -1,-0.5 -2,-0.8 -2.9,-1.2 0.1,-0.1 0.2,-0.2 0.3,-0.3 0.4,-0.3 0.8,-0.7 1.2,-1.1 0.5,-0.6 0.9,-1.2 1.2,-1.8 1.3,-1 1.9,-2.4 2,-4.1 0,-0.1 0,-0.2 0,-0.2 0.5,-0.3 1,-0.5 1.4,-0.8 1.3,0.1 2.4,-0.3 3.4,-1 2,-1.6 3.3,-3.6 3.9,-6 0.1,-0.4 0.1,-0.7 0.2,-1 0.2,-1.1 -0.1,-1.9 -0.7,-2.4 -0.1,-0.1 -0.4,-0.4 -0.6,-0.5 -0.3,-0.1 -0.5,-0.3 -0.7,-0.5 -0.1,-0.1 -0.3,-0.3 -0.5,-0.4 -1.2,-0.5 -2.6,-0.7 -3.9,-0.7 0.4,-1 0.8,-2.1 1,-3.1 0.3,-1 0.5,-2 0.4,-3 -0.1,-0.3 -0.1,-0.5 -0.1,-0.6 -0.3,-0.7 -0.5,-1.4 -0.8,-2.1 -0.4,-1.1 -0.9,-2.2 -1.4,-3.2 -0.3,-0.4 -0.6,-0.7 -0.9,-1.1 -0.5,0.3 -0.9,0.5 -1.4,0.7 -1,0.4 -1.8,0.8 -2.8,1.1 -0.5,0.2 -1.1,0.4 -1.7,0.7 z m -37.7,-11 c 0,-0.1 0,-0.1 0,-0.2 0,0.1 0,0.1 0.1,0.1 z m -3.2,7.7 c 0.4,0.6 0.7,1.2 0.9,1.9 1,2.1 1.1,4.4 0.4,6.6 -0.3,0.7 -0.6,1.3 -1,1.9 -1.6,2 -3.6,3.2 -6.3,3.5 -2.6,0.2 -4.9,-0.5 -6.8,-2.4 -0.9,-1 -1.6,-2.1 -1.7,-3.4 0,-0.6 -0.1,-1.2 -0.2,-1.8 -0.2,-1.2 -0.1,-2.3 0.3,-3.4 0.9,-2.4 2.4,-4.3 4.4,-5.9 0.6,-0.5 1.4,-0.8 2.3,-0.9 1.8,-0.3 3.5,0 5,1 1.2,0.7 2.1,1.7 2.7,2.9 z m 32.9,8.8 c 0,0 0,0 0.1,0 -0.1,0 -0.1,0 -0.1,0.1 z m 7.3,24.1 c 0.1,0 0.1,0 0.2,0 -0.1,0 -0.1,0 -0.1,0 z m -67,-25.7 c 0.4,0.1 0.7,0.3 1,0.5 0.2,0.2 0.4,0.3 0.6,0.3 0,0 0,0 0,-0.1 0.1,0.1 0.3,0.2 0.5,0.2 0.1,-0.1 0.2,-0.1 0.3,-0.3 -0.1,0.3 -0.1,0.6 -0.2,0.9 0.1,0.3 0.1,0.5 0.1,0.8 0,0 0,0 0,0.1 0.4,1.2 0.6,2.4 0.6,3.8 0,0.2 0,0.5 0,0.7 0,0 0,0.1 0,0.2 0,0.4 0,0.8 0.1,1.3 0,0 0,0.1 0,0.2 0,0.1 0,0.1 0,0.1 0.1,0 0.1,0 0.1,0.1 0.1,0.2 0.1,0.4 0.1,0.6 0.1,0.1 0.1,0.2 0.1,0.3 0,0 0,0 0.1,0.1 0,0 0,0 0,0.1 0,0.4 0,0.8 0,1.3 -0.2,-0.1 -0.4,-0.1 -0.7,0 v 0 c -0.1,0 -0.3,0 -0.4,-0.1 -0.7,-0.2 -1.4,-0.2 -2.1,-0.2 -1,0.1 -2.1,0.3 -3.2,0.4 -1,0.1 -2,0.2 -2.9,0.2 0.3,-0.3 0.8,-0.7 1.2,-1 2.2,-1.2 4.3,-2.4 6.5,-3.7 0.1,0 0.2,-0.1 0.4,-0.2 0,-0.1 0.1,-0.2 0.1,-0.2 0,-0.1 0,-0.2 0,-0.2 0,-0.1 -0.1,-0.2 -0.1,-0.2 -1.5,-1.2 -2.9,-2.5 -4.3,-3.8 -0.2,-0.2 -0.5,-0.4 -0.7,-0.7 -1,-1.2 -2.2,-2.3 -3.4,-3.2 2.1,0.5 4.1,1.1 6.2,1.7 z"
         id="path15" />
      <path
         style="fill:#ffffff;stroke:none"
         d="m 85.3,678.09 c -0.2,-0.7 -0.5,-1.3 -0.9,-1.9 -0.6,-1.2 -1.5,-2.2 -2.7,-2.9 -1.5,-1 -3.2,-1.3 -5,-1 -0.9,0.1 -1.7,0.4 -2.3,0.9 -2,1.6 -3.5,3.5 -4.4,5.9 -0.4,1.1 -0.5,2.2 -0.3,3.4 0.1,0.6 0.2,1.2 0.2,1.8 0.1,1.3 0.8,2.4 1.7,3.4 1.9,1.9 4.2,2.6 6.8,2.4 2.7,-0.3 4.7,-1.5 6.3,-3.5 0.4,-0.6 0.7,-1.2 1,-1.9 0.7,-2.2 0.6,-4.5 -0.4,-6.6 z m -7.6,0.8 c 1.4,0.1 2.2,0.9 2.2,2.2 0.1,1.1 -0.3,2 -1.2,2.6 -0.7,0.6 -1.5,0.6 -2.4,0.2 -1.3,-0.6 -1.8,-1.6 -1.5,-3.1 0.2,-0.8 0.6,-1.3 1.2,-1.6 0.6,-0.2 1.1,-0.3 1.7,-0.3 z"
         id="path16" />
      <path
         style="fill:#5f5f61;stroke:none"
         d="m 79.9,681.09 c 0,-1.3 -0.8,-2.1 -2.2,-2.2 -0.6,0 -1.1,0.1 -1.7,0.3 -0.6,0.3 -1,0.8 -1.2,1.6 -0.3,1.5 0.2,2.5 1.5,3.1 0.9,0.4 1.7,0.4 2.4,-0.2 0.9,-0.6 1.3,-1.5 1.2,-2.6 z"
         id="path17" />
      <path
         style="fill:#ffffff;stroke:none"
         d="m 58.6,683.89 c -0.3,-0.2 -0.6,-0.4 -1,-0.5 -2.1,-0.6 -4.1,-1.2 -6.2,-1.7 1.2,0.9 2.4,2 3.4,3.2 0.2,0.3 0.5,0.5 0.7,0.7 1.4,1.3 2.8,2.6 4.3,3.8 0,0 0.1,0.1 0.1,0.2 0,0 0,0.1 0,0.2 0,0 -0.1,0.1 -0.1,0.2 -0.2,0.1 -0.3,0.2 -0.4,0.2 -2.2,1.3 -4.3,2.5 -6.5,3.7 -0.4,0.3 -0.9,0.7 -1.2,1 0.9,0 1.9,-0.1 2.9,-0.2 1.1,-0.1 2.2,-0.3 3.2,-0.4 0.7,0 1.4,0 2.1,0.2 0.1,0.1 0.3,0.1 0.4,0.1 v 0 c 0.3,-0.1 0.5,-0.1 0.7,0 0,-0.5 0,-0.9 0,-1.3 0,-0.1 0,-0.1 0,-0.1 -0.1,-0.1 -0.1,-0.1 -0.1,-0.1 0,-0.1 0,-0.2 -0.1,-0.3 0,-0.2 0,-0.4 -0.1,-0.6 0,-0.1 0,-0.1 -0.1,-0.1 0,0 0,0 0,-0.1 0,-0.1 0,-0.2 0,-0.2 -0.1,-0.5 -0.1,-0.9 -0.1,-1.3 0,-0.1 0,-0.2 0,-0.2 0,-0.2 0,-0.5 0,-0.7 0,-1.4 -0.2,-2.6 -0.6,-3.8 0,-0.1 0,-0.1 0,-0.1 0,-0.3 0,-0.5 -0.1,-0.8 0,-0.2 -0.1,-0.4 -0.1,-0.6 -0.2,0 -0.4,-0.1 -0.5,-0.2 0,0.1 0,0.1 0,0.1 -0.2,0 -0.4,-0.1 -0.6,-0.3 z"
         id="path18" />
    </g>
  </g>
</svg>
