<?xml version="1.0" encoding="UTF-8" standalone="no"?>
<!-- Created with sK1/UniConvertor (http://sk1project.org/) -->

<svg
   width="301.51489pt"
   height="288.85095pt"
   viewBox="0 0 301.51489 288.85095"
   fill-rule="evenodd"
   version="1.1"
   id="svg37"
   sodipodi:docname="hellope.svg"
   inkscape:version="1.3 (0e150ed6c4, 2023-07-21)"
   xmlns:inkscape="http://www.inkscape.org/namespaces/inkscape"
   xmlns:sodipodi="http://sodipodi.sourceforge.net/DTD/sodipodi-0.dtd"
   xmlns="http://www.w3.org/2000/svg"
   xmlns:svg="http://www.w3.org/2000/svg">
  <defs
     id="defs37" />
  <sodipodi:namedview
     id="namedview37"
     pagecolor="#ffffff"
     bordercolor="#000000"
     borderopacity="0.25"
     inkscape:showpageshadow="2"
     inkscape:pageopacity="0.0"
     inkscape:pagecheckerboard="0"
     inkscape:deskcolor="#d1d1d1"
     inkscape:document-units="pt"
     inkscape:zoom="0.74386201"
     inkscape:cx="272.22791"
     inkscape:cy="-108.219"
     inkscape:window-width="1920"
     inkscape:window-height="1027"
     inkscape:window-x="1912"
     inkscape:window-y="-8"
     inkscape:window-maximized="1"
     inkscape:current-layer="svg37" />
  <g
     id="g37"
     transform="translate(-94.1,-502.19)">
    <g
       id="g36">
      <path
         style="fill:#5f5f61;stroke:none"
         d="m 328.3,527.39 c 0,-0.2 0,-0.3 0,-0.6 0,-0.5 -0.1,-1.1 -0.4,-1.6 -1,-2.3 -2.4,-4.3 -4.1,-6.1 -1.7,-1.7 -3.4,-3.4 -5.2,-5.1 -1.7,-1.6 -3.5,-3.3 -5.3,-5 -0.7,-0.7 -1.4,-1.2 -2.2,-1.6 -0.1,-0.3 -0.4,-0.5 -0.8,-0.7 -0.3,-0.1 -0.6,-0.2 -0.9,-0.3 -1.9,-0.8 -4,-1.1 -6.1,-1 -0.2,0 -0.4,0 -0.6,0.1 -0.4,0 -0.6,0.2 -0.8,0.5 0,0 -0.1,0 -0.2,0.1 -1.8,1.1 -3.5,2.3 -5.1,3.7 -1.1,0.8 -2.2,1.7 -3.2,2.5 -0.3,0.4 -0.7,0.7 -1.1,1.1 -1.5,1.5 -2.8,3 -3.9,4.7 -0.5,0.5 -0.8,1 -1.3,1.5 -1.7,1.8 -3.2,3.7 -4.6,5.6 -0.7,1.1 -1.4,2.1 -2.1,3.1 -1.2,2.1 -2.7,4.1 -4.3,6 -1.6,1.8 -3.2,3.7 -4.7,5.7 -0.1,0.2 -0.3,0.4 -0.5,0.6 -0.2,0.4 -0.3,0.6 -0.2,1 -1,1.4 -1.8,2.8 -2.5,4.4 -0.3,0.5 -0.4,1 -0.7,1.6 -0.9,2.2 -1.8,4.5 -2.5,6.9 -0.6,1.7 -1.1,3.4 -1.7,5.1 -0.9,2.4 -1.7,4.6 -2.6,6.9 -0.3,0.7 -0.5,1.4 -0.5,2.1 -0.4,0 -0.8,-0.1 -1.2,-0.1 -2.4,-0.5 -4.8,-0.9 -7.2,-1.3 -2,0 -3.6,0.7 -4.9,2.1 -1.2,1.3 -1.8,2.8 -1.9,4.4 0,1.1 0.4,1.9 1.2,2.5 1.5,1 3,1.6 4.8,1.8 0.4,0.1 0.9,0.2 1.3,0.3 2.4,0.8 4.8,1.2 7.3,1.5 0.5,0 0.8,0.1 1.3,0.2 -0.6,0.9 -1.3,1.8 -2,2.8 -0.2,0.3 -0.5,0.7 -0.7,0.9 -1.9,2.3 -2.8,4.9 -2.5,7.8 0,0.2 0,0.3 0,0.4 -0.6,1.7 -0.8,3.6 -0.7,5.4 0.1,2.1 0.4,4.1 0.8,6 0,0.7 0,1.3 0.1,2 0.1,0.5 0.2,1 0.3,1.6 0,0 0,0.1 0,0.2 0.2,2.4 0.6,4.7 1.2,7.1 0.4,1.6 0.8,3.3 1.4,4.9 0.2,1.7 0.5,3.5 0.9,5.3 0.6,3.6 1.6,7.2 2.7,10.8 -1.7,-0.8 -3.5,-1.1 -5.5,-1.1 0,0.1 0,0.1 0,0.1 -0.1,0 -0.3,0.1 -0.5,0.1 0,0 0,0 0,0.1 0,0 0,0 -0.1,0.1 0,-0.1 0,-0.2 -0.1,-0.3 0,-0.1 -0.1,-0.2 -0.1,-0.4 -0.7,-1.5 -1.3,-3.1 -1.8,-4.7 0,-0.2 -0.1,-0.4 -0.1,-0.6 -0.7,-2.4 -1.3,-4.7 -2,-7.1 -0.1,-0.3 -0.2,-0.6 -0.3,-0.9 -0.3,-0.8 -0.7,-1.3 -1.4,-1.6 -0.1,0.1 -0.2,0.1 -0.3,0.1 -0.2,0.1 -0.3,0.1 -0.4,0.2 -0.9,0.7 -1.9,1.5 -2.9,2.3 -0.1,0.1 -0.2,0.1 -0.2,0.2 -1.1,0.1 -1.4,0.7 -0.9,1.6 1,2.2 1.9,4.4 2.7,6.6 0,0.1 0,0.2 0,0.3 0.1,0.2 0.1,0.3 0.2,0.4 0.1,0.1 0.1,0.2 0.1,0.4 0.3,0.7 0.6,1.5 0.8,2.3 -1,-0.3 -2.2,-0.4 -3.3,-0.4 -2.4,-0.1 -4.5,0.5 -6.5,1.8 -0.9,0.5 -1.7,1 -2.6,1.5 -1.2,0.8 -2.3,1.7 -3.3,2.8 -0.4,0.3 -0.9,0.7 -1.2,1.1 -1.5,1.8 -2.2,3.8 -2.4,6 0,1.5 0,3 0,4.4 0,0.7 0.1,1.3 0.2,1.9 0.3,1.5 1.2,2.4 2.6,2.6 -0.1,1.4 0.3,2.5 1.3,3.4 0.2,0.2 0.5,0.4 0.8,0.6 1.4,0.7 2.9,1 4.5,0.8 0.2,0 0.3,0 0.4,-0.1 -0.1,0.2 -0.1,0.3 -0.2,0.4 -0.2,0.9 -0.4,1.7 -0.5,2.6 -0.1,1.4 0.1,2.7 0.7,3.9 0.6,1 1.3,1.8 2.3,2.4 0.3,0.2 0.6,0.3 0.9,0.3 1.3,0.1 2.5,0 3.8,-0.1 -0.1,0.3 0,0.6 0.1,1 0.4,1.3 1.2,2.5 2.4,3.4 0.2,0.2 0.4,0.3 0.7,0.4 1.9,0.9 3.9,1.6 6,2.1 0.1,0 0.3,0.1 0.5,0.1 0.9,0.1 1.8,0 2.6,-0.2 1.3,-0.3 2.4,-0.9 3.3,-1.8 0,0 0,0 0.1,-0.1 0,0 0.1,0 0.1,0 0.2,0.9 0.5,1.9 0.9,2.8 0,0.1 0,0.1 0.1,0.1 0,0.1 0,0.2 0,0.3 0,0.1 0,0.2 0.1,0.4 0.1,0 0.1,0.1 0.1,0.2 0.2,0.2 0.3,0.5 0.4,0.8 -0.7,0.1 -1.5,0.3 -2.2,0.5 -1,0.1 -1.9,0.3 -2.8,0.5 -0.9,0.1 -1.8,0.3 -2.7,0.5 -0.9,0.2 -1.8,0.4 -2.8,0.6 -0.9,0.2 -1.8,0.3 -2.7,0.4 -1.2,0.2 -2.4,0.3 -3.8,0.5 -0.6,0.1 -1.2,0.2 -1.9,0.3 -1.4,0.3 -2.8,0.6 -4.2,0.8 -1,0.1 -1.9,0.3 -2.9,0.7 -0.7,0.2 -1.4,0.5 -2.1,0.7 -1.6,0.4 -3.2,0.9 -4.8,1.3 -0.3,0 -0.6,0.1 -0.9,0.3 -1.7,0.8 -3.4,1.6 -5.2,2.4 -1.8,0.9 -3.6,1.7 -5.3,2.8 -0.3,0.2 -0.5,0.4 -0.5,0.8 -0.2,0 -0.4,0.1 -0.6,0.3 -0.4,0.1 -0.7,0.3 -1,0.5 -1,0.6 -2,1.3 -3,2 -0.7,0.5 -1.2,1.1 -1.7,1.9 -0.9,1.6 -1,3.3 -0.3,4.9 0.3,0.7 0.7,1.2 1.2,1.7 1.2,1 2.5,1.9 3.8,2.6 0.2,0.1 0.3,0.2 0.5,0.4 -0.1,0 -0.1,0 -0.1,0 -0.2,0.8 -0.6,1.7 -1,2.5 -0.9,1.5 -1.9,3 -3.1,4.5 -1.8,2.2 -3.7,4.5 -5.4,6.8 -0.8,1 -1.6,2.1 -2.2,3.2 -0.9,1.4 -1.8,2.9 -2.5,4.5 -1.2,2.3 -2.2,4.7 -3.1,7.1 -0.7,2.2 -1.2,4.5 -1.4,6.8 -0.1,1 -0.1,2 -0.1,2.9 0.1,2 0.3,4 0.5,6 0.2,1.2 0.5,2.4 0.8,3.6 0.3,0.9 0.6,1.9 0.9,2.9 0.5,1.7 1.3,3.1 2.3,4.5 -0.1,0 -0.2,0 -0.2,0 -0.4,-0.1 -0.7,-0.1 -1,0 -1.2,0.2 -2.3,0.7 -3.2,1.4 -1.3,0.8 -2.1,2 -2.6,3.4 -0.5,1.2 -0.8,2.6 -0.8,4 -0.1,1.2 0.2,2.3 0.8,3.4 0.7,1.3 1.7,2.5 2.9,3.5 1.4,1 2.5,2.3 3.3,3.7 0.1,0.6 0,1 -0.3,1.3 -0.4,0.5 -0.9,0.9 -1.4,1.3 -0.7,0.6 -1.5,1.1 -2.4,1.5 -0.1,0 -0.1,0.1 -0.2,0.2 -0.4,1.1 -0.4,2.2 0.2,3.3 0.4,0.8 1.1,1.2 2.2,1 0.6,-0.1 1.2,-0.1 1.8,-0.2 2.3,-0.1 4.6,-0.6 6.7,-1.4 1.6,-0.7 2.6,-1.8 3.2,-3.4 0.4,-1.1 0.6,-2.2 0.6,-3.4 0.1,-1.3 -0.1,-2.6 -0.5,-3.8 0,-0.1 0,-0.2 0,-0.3 -0.1,-0.7 0,-1.3 0.5,-1.9 0.7,-0.9 1.6,-1.6 2.8,-2.1 0.2,-0.2 0.4,-0.3 0.6,-0.4 0.5,-0.3 1,-0.6 1.3,-1.2 0.1,-0.1 0.1,-0.1 0.1,-0.2 2.3,0.8 4.7,1.5 7.1,2 2.4,0.6 4.8,1.1 7.3,1.6 0.7,0.2 1.4,0.3 2.2,0.4 2.4,0.5 4.9,0.8 7.3,0.8 1,0 2,0.1 2.9,0.3 2,0.4 3.9,0.7 5.9,1 2.4,0.3 4.9,0.4 7.4,0.3 0.1,0 0.2,0 0.3,0 2.5,0 5,0.1 7.5,0.1 0.1,0 0.2,0 0.4,0 2.2,0.1 4.4,0.1 6.5,0 0.5,0 0.9,-0.1 1.3,-0.1 2.2,-0.3 4.5,-0.5 6.7,-0.5 1.5,0 2.9,-0.1 4.3,-0.4 2.4,-0.4 4.9,-0.6 7.4,-0.4 1.1,0.1 2.1,0.1 3.1,0 2.1,-0.2 4.2,-0.3 6.2,-0.6 0.7,0 1.4,-0.1 2,-0.1 1.9,-0.1 3.8,-0.1 5.6,-0.3 0.7,0 1.4,-0.1 2.1,-0.3 0.3,0 0.6,-0.1 0.9,-0.2 2.3,-0.6 4.6,-1 6.9,-1.2 1.2,-0.1 2.4,-0.3 3.5,-0.5 0,0.3 0.1,0.6 0.5,0.9 0.2,0.2 0.4,0.4 0.7,0.5 1.1,0.5 2,1.3 2.8,2.2 0.4,0.6 0.6,1.2 0.5,1.9 -0.1,0.1 -0.1,0.2 0,0.3 -0.4,1.2 -0.6,2.5 -0.6,3.8 0,1.2 0.2,2.3 0.6,3.4 0.6,1.6 1.7,2.7 3.2,3.4 2.2,0.8 4.4,1.3 6.7,1.4 0.7,0.1 1.3,0.1 1.9,0.2 1,0.2 1.7,-0.2 2.2,-1 0.5,-1.1 0.6,-2.2 0.1,-3.3 0,-0.1 -0.1,-0.2 -0.2,-0.2 -0.9,-0.4 -1.7,-0.9 -2.4,-1.5 -0.5,-0.4 -0.9,-0.8 -1.3,-1.3 -0.4,-0.3 -0.5,-0.7 -0.3,-1.3 0.8,-1.4 1.9,-2.7 3.2,-3.7 1.3,-1 2.2,-2.2 3,-3.5 0.6,-1.1 0.8,-2.2 0.8,-3.4 -0.1,-1.4 -0.4,-2.8 -0.8,-4 -0.3,-0.7 -0.6,-1.2 -0.9,-1.8 2.1,-0.9 4.1,-2.1 5.9,-3.6 0.5,-0.5 0.6,-0.8 0.3,-1.1 0,-0.1 0.1,-0.2 0.2,-0.3 1.7,-1.6 2.9,-3.5 3.7,-5.6 0.4,-1 0.8,-2 1.1,-2.9 0.4,-1.2 0.8,-2.3 1,-3.5 0.4,-2 0.7,-4 0.9,-6 0,-0.9 0.1,-1.9 0,-2.9 0,-2.3 -0.3,-4.6 -1,-6.8 -0.7,-2.5 -1.6,-5 -2.6,-7.4 -0.7,-1.5 -1.5,-3.1 -2.3,-4.6 -0.6,-1.1 -1.2,-2.2 -2,-3.3 -1.6,-2.4 -3.3,-4.8 -5,-7.1 -1.1,-1.5 -2,-3.1 -2.8,-4.7 -0.3,-0.4 -0.5,-0.9 -0.6,-1.4 1.7,-0.7 3.5,-1.5 5.1,-2.5 0.4,-0.2 0.8,-0.4 1.1,-0.6 1.6,-1.1 2.7,-2.4 3.3,-4.1 0.2,-0.3 0.4,-0.6 0.5,-1 0,-0.2 0,-0.4 0.1,-0.6 0.1,-0.9 -0.2,-1.8 -0.7,-2.6 -0.6,-0.6 -1.1,-1.3 -1.8,-1.8 l -0.3,-0.2 c 3.2,-0.8 6.4,-1.6 9.7,-2.2 2.6,-0.5 5.2,-1 7.8,-1.4 4.2,-0.7 8.3,-1.4 12.4,-2 0.9,-0.1 1.4,-0.5 1.7,-1.3 0,-0.1 0,-0.2 0.1,-0.2 0.2,-0.3 0.4,-0.6 0.3,-0.9 0,-1.3 -0.7,-2.1 -2,-2.5 -0.7,-0.2 -1.3,-0.5 -1.8,-0.8 -1.5,-0.8 -2.8,-1.6 -4,-2.6 3.1,-0.8 6.1,-2.1 8.9,-3.9 1.6,-0.9 3.2,-1.9 4.8,-3 0.4,-0.2 0.8,-0.4 1.2,-0.7 1.7,-1.1 3.4,-2.2 5.1,-3.4 0.3,0 0.5,-0.2 0.7,-0.3 0.7,-0.7 1.4,-1.2 2.2,-1.6 1,-0.5 1.4,-1.3 1.3,-2.2 0,-0.4 -0.2,-0.6 -0.5,-0.6 -2.5,0.1 -5,0.2 -7.6,0.4 -4.5,0.3 -9,0.3 -13.6,0.2 1.6,-3.3 2.9,-6.7 4.1,-10.1 0,-0.1 0.1,-0.1 0.1,-0.2 1.1,-1.4 0.9,-2.4 -0.5,-3.1 -4.4,2.2 -8.6,4.7 -12.9,7.3 -1.5,1 -3.1,1.8 -4.7,2.5 -0.9,0.4 -1.7,0.8 -2.5,1.3 -1.1,-2 -2.2,-4.1 -3.2,-6.1 -0.6,-1.2 -1.3,-2.2 -2.2,-3.2 -1.5,-1.7 -2.8,-3.5 -4,-5.4 -0.6,-0.9 -1.1,-1.9 -1.6,-2.8 -2,-3.8 -3.7,-7.7 -5.2,-11.8 -0.4,-1.1 -0.7,-2.2 -1,-3.4 -0.6,-2.3 -1.3,-4.7 -1.9,-7 -1.4,-4.7 -2.6,-9.4 -3.7,-14.1 -1.1,-4.7 -2.3,-9.4 -3.7,-14 -0.7,-2.4 -1.3,-4.8 -2,-7.2 -0.3,-1.1 -0.7,-2.3 -1.2,-3.2 -0.1,-0.7 -0.3,-1.4 -0.7,-2.1 -1.2,-2.2 -2.4,-4.2 -3.8,-6.3 -0.2,-0.3 -0.4,-0.5 -0.6,-0.8 0.1,-0.1 0.2,-0.1 0.3,-0.1 2.4,-0.6 4.7,-1.5 7,-2.6 0.5,-0.3 1.1,-0.7 1.6,-1 0.8,-0.6 1.6,-1.2 2.5,-1.9 1,-0.8 1.6,-1.8 1.7,-3.1 0.1,-1.5 -0.5,-2.7 -2,-3.3 -0.4,-0.4 -1,-0.7 -1.8,-0.8 -1,0 -2,0.1 -3.1,0.4 -0.4,0.2 -0.8,0.3 -1.2,0.5 -1.6,0.9 -3.2,1.4 -4.9,1.7 0.6,-1.2 1,-2.4 1.3,-3.6 0.3,-1.6 -0.3,-2.7 -1.8,-3.4 -1.1,-0.5 -2.2,-1 -3.3,-1.6 0,-0.1 -0.1,-0.2 -0.1,-0.3 -0.1,-0.1 -0.2,-0.1 -0.2,-0.3 0,-0.1 0,-0.1 0,-0.1 0,-0.5 -0.1,-0.8 -0.3,-1.1 0.1,-0.3 0.2,-0.7 0.4,-1.1 0,-0.1 0.1,-0.2 0.1,-0.3 0.3,-0.2 0.5,-0.4 0.5,-0.7 0.1,-0.4 0,-0.7 -0.4,-0.9 -1.9,-0.9 -2.9,-2.3 -3.1,-4.4 -0.1,-0.6 -0.1,-1.2 -0.2,-1.9 -0.3,-2.5 -0.7,-4.8 -1.3,-7.3 -0.5,-2.4 -0.6,-4.8 -0.2,-7.3 0.1,-0.6 0.2,-1.2 0.5,-1.8 0,-0.2 0.1,-0.3 0.1,-0.4 1.1,-0.2 2.1,-0.2 3.1,0.1 0.3,0 0.6,0.1 0.8,0.2 1.9,0.3 3.4,1.3 4.4,3 0.1,0.2 0.3,0.4 0.6,0.6 0,0.2 0,0.5 0.1,0.8 0,0.9 0.1,1.8 0.3,2.7 -0.1,0.1 -0.1,0.3 0,0.4 0,0.9 0.5,1.2 1.3,0.8 0.2,0 0.2,-0.1 0.3,-0.3 0,-0.2 0,-0.5 0,-0.8 0.5,-0.4 0.8,-1 1.1,-1.6 0.4,-1 0.8,-2.1 1,-3.1 0.1,-0.3 0.1,-0.5 0.2,-0.7 0.2,-0.2 0.2,-0.5 0.3,-0.7 z m -2.3,0.7 c -0.1,0.5 -0.3,1 -0.5,1.5 -0.1,-0.3 -0.2,-0.5 -0.3,-0.7 -0.2,-0.7 -0.4,-1.2 -0.9,-1.6 -0.3,-0.4 -0.7,-0.7 -1.1,-1 -2.1,-1.4 -4.4,-2.2 -6.9,-2.3 -0.3,0 -0.6,0 -0.9,0.1 -0.5,0 -1,0.1 -1.5,0.2 -0.1,0 -0.1,0 -0.1,0 -0.2,0 -0.3,0.1 -0.5,0.1 -0.3,0.1 -0.6,0.2 -1,0.3 -0.7,0.2 -1.5,0.4 -2.3,0.7 -0.2,0.1 -0.2,0.2 -0.2,0.5 0.3,0.8 0.9,1.1 1.9,0.7 0.2,0 0.4,-0.1 0.6,-0.1 -0.5,2.2 -0.6,4.4 -0.3,6.7 0,0.6 0.1,1.2 0.3,1.8 0.5,2.4 0.9,4.8 1.2,7.3 0,0.2 0,0.3 0,0.4 -0.2,2.1 0.2,4 1.2,5.8 0.4,0.7 1,1.3 1.6,1.7 0,0.2 -0.1,0.4 -0.1,0.6 0,0.3 -0.1,0.6 -0.1,0.8 -0.2,0.9 -0.2,1.6 -0.1,2.4 0.1,0.8 0.4,1.1 1,1 0.2,0.3 0.5,0.6 0.8,0.8 0.8,0.6 1.6,1 2.5,1.2 0.7,0.1 1.3,0.5 1.8,1 -0.1,0.1 -0.1,0.3 -0.1,0.5 -0.1,0.5 -0.3,1.1 -0.5,1.7 -0.8,1.2 -1.5,2.4 -2.2,3.6 -0.4,0.7 -0.3,1.2 0.3,1.5 0.1,0.1 0.2,0.1 0.3,0 0.5,-0.1 0.9,-0.4 1.3,-0.8 0.9,0.3 1.9,0.4 2.9,0.3 1.1,-0.1 2.2,-0.5 3.3,-1 1.3,-0.8 2.8,-1.1 4.3,-1.2 -0.1,0 -0.1,0 -0.1,0.1 0.2,0 0.4,0 0.7,0 0.1,0 0.3,0 0.5,0.1 0.1,0.1 0.2,0.1 0.3,0.2 0,0 0,0.1 0,0.1 0.1,0.1 0.1,0.2 0.1,0.2 0.1,0.1 0.1,0.1 0.1,0.2 0,0.4 -0.2,0.7 -0.5,1.1 -1.3,1.2 -2.8,2.2 -4.4,3.1 -2.2,1.1 -4.5,2 -6.9,2.5 -0.2,0 -0.4,0.1 -0.6,0.1 -1.1,0.2 -2.2,0.5 -3.3,0.7 -0.3,0.1 -0.7,0.2 -1,0.3 -1.2,0.2 -2.3,0.5 -3.4,0.9 -1.8,0.9 -3.8,1.7 -5.8,2.3 -2.4,0.5 -4.8,1 -7.2,1.3 -1.4,0.2 -2.8,0.2 -4.2,0.3 -1.8,0 -3.6,0.2 -5.5,0.6 -0.3,0.1 -0.6,0.2 -0.9,0.3 0,0 -0.1,0 -0.2,0 -0.1,0 -0.3,0.1 -0.5,0.1 -0.5,0.1 -1.1,0.2 -1.7,0.4 -0.3,0 -0.6,0.1 -1,0.1 -1.7,0.4 -3.4,0.5 -5.1,0.5 -0.2,0 -0.3,0 -0.4,0 -0.8,0.1 -1.6,0.1 -2.3,0.2 -0.1,0 -0.2,0 -0.4,0 -0.3,0 -0.7,0 -1.1,0 v 0 c -0.8,0 -1.7,0 -2.6,0 -0.2,0 -0.4,0 -0.5,0 -0.1,0 -0.2,0 -0.2,0 -1.3,0 -2.7,0.1 -4,0.2 -0.3,0 -0.7,0 -1.1,0 -0.9,0 -1.9,0 -2.8,0 -1.3,0 -2.5,-0.2 -3.7,-0.3 -0.3,-0.1 -0.6,-0.1 -0.8,-0.1 -0.5,-0.1 -1,-0.1 -1.6,-0.2 -1.8,-0.3 -3.6,-0.8 -5.3,-1.3 -0.3,-0.1 -0.5,-0.1 -0.8,-0.3 -0.7,-0.1 -1.5,-0.3 -2.3,-0.5 -0.3,-0.1 -0.6,-0.2 -1,-0.3 0,0 -0.1,0 -0.1,0 -0.4,-0.1 -0.7,-0.3 -1,-0.5 0,0 -0.1,0 -0.2,0 -0.1,-0.1 -0.2,-0.1 -0.3,-0.2 -0.4,-0.1 -0.7,-0.3 -0.8,-0.6 -0.5,-0.4 -0.6,-0.9 -0.5,-1.4 0.2,-1.1 0.8,-1.8 1.8,-2.4 0.4,-0.3 0.8,-0.4 1.2,-0.4 0.1,0 0.2,0 0.3,0 0.6,-0.2 1.2,-0.3 1.8,-0.2 0.6,-0.2 1.2,-0.2 1.9,-0.2 2.5,-0.1 4.9,0.2 7.4,0.7 2,0.4 4,0.8 6.1,1 0.5,-0.2 0.7,-0.6 0.5,-1.3 -0.1,-0.2 -0.2,-0.3 -0.5,-0.4 -2.1,-0.3 -4.2,-0.6 -6.4,-0.8 0.5,-0.8 0.8,-1.8 1.1,-2.7 0.3,-0.5 0.4,-0.9 0.7,-1.4 0.2,-0.5 0.4,-1 0.6,-1.6 0.8,-2.1 1.5,-4.3 2.2,-6.4 0.8,-2.3 1.6,-4.6 2.4,-6.9 0.9,-2.3 1.8,-4.5 3,-6.7 0.1,-0.3 0.3,-0.5 0.4,-0.8 0.2,-0.3 0.3,-0.5 0.3,-0.8 0.5,-0.5 1,-1 1.6,-1.6 1.5,-1.9 3.1,-3.8 4.7,-5.6 1.1,-1.4 2.2,-2.9 3.2,-4.4 1.3,-2 2.7,-3.9 4.2,-5.9 0.9,-1 1.6,-2 2.5,-3.1 1.5,-1.9 3.1,-3.8 4.8,-5.6 0.6,-0.7 1.3,-1.3 2,-2 0.8,-0.6 1.6,-1.2 2.3,-1.9 1,-0.7 2,-1.5 2.9,-2.2 0.9,-0.8 1.9,-1.3 3.1,-1.6 0.2,0 0.3,-0.1 0.3,-0.3 0.1,0 0.1,-0.1 0.1,-0.2 0.7,0.1 1.5,0.2 2.3,0.4 1.1,0.2 2.3,0.5 3.5,0.9 0.5,0.4 1.1,0.9 1.7,1.4 1.8,1.6 3.6,3.2 5.4,4.9 1.7,1.8 3.4,3.5 5.2,5.3 0.3,0.3 0.6,0.6 0.9,1 1.5,1.7 2.8,3.6 3.8,5.6 -0.4,0.3 -0.6,0.8 -0.6,1.5 z m -62.2,58.5 c 0.9,-0.1 1.6,0 2.4,0.1 2.1,0.5 3.6,1.9 4.6,4.3 0.6,1.7 1,3.4 1.4,5 0.4,2 0.2,3.8 -0.4,5.7 -0.5,1.6 -1.5,2.9 -2.9,3.8 -1.7,1.2 -3.7,1.6 -5.8,1.1 -2,-0.5 -3.4,-1.7 -4.2,-3.6 -0.5,-1 -0.8,-2 -1,-3 -0.1,-1.1 -0.1,-2.1 -0.1,-3.2 0.1,-0.5 0.1,-1.1 0.1,-1.7 0.2,-1.2 0.4,-2.5 0.8,-3.7 0.7,-2.6 2.4,-4.3 5.1,-4.8 z m 45.3,-1.7 c 1,-0.3 2,-0.4 3,-0.4 3.7,0.6 5.8,2.8 6.3,6.6 0.2,2.1 -0.1,4.2 -1.2,6.2 -0.3,0.7 -0.7,1.4 -1.2,2.1 -1.6,2.9 -4.1,4.5 -7.5,5 -2.2,0.3 -4.2,-0.4 -5.7,-2 -1.9,-2 -2.4,-4.3 -1.7,-6.9 0.2,-0.7 0.3,-1.4 0.4,-2.2 0.6,-4.5 3.2,-7.3 7.6,-8.4 z m -18,37.9 c -1.9,1.7 -3.5,3.6 -4.9,5.6 -0.6,0.8 -1.3,1.3 -2.1,1.6 -0.8,0.3 -1.3,0.1 -1.7,-0.7 -2,-4 -3.9,-8 -5.7,-12 -0.2,-0.3 -0.3,-0.6 -0.3,-0.9 0.2,-0.3 0.4,-0.5 0.7,-0.7 1.1,-0.9 2.4,-1.6 3.8,-2.1 0.2,0 0.3,0 0.4,-0.1 4.1,-0.3 8.1,0.1 12.1,1.3 0.3,0.1 0.7,0.1 1,0.1 v 0 c 0.3,0.1 0.5,0.2 0.8,0.3 0.4,0.2 0.7,0.4 1.2,0.5 0,0.4 -0.1,0.8 -0.3,1.3 -0.5,1 -1.1,1.9 -1.8,2.7 -1.1,1 -2.1,2.1 -3.2,3.1 z m -42.4,3.3 c 0,-0.1 0,-0.2 0,-0.4 -0.5,-0.9 -0.9,-1.9 -1.2,-2.9 0.9,-0.7 1.8,-1.4 2.8,-2 0,0.1 0,0.2 0.1,0.3 0.3,0.7 0.6,1.4 0.8,2.2 0,0 0,0.1 0.1,0.2 0,0.3 0.1,0.7 0.2,1 0.5,2.3 1.2,4.5 2,6.7 0,0.1 0,0.2 0,0.2 0.9,2.2 1.7,4.4 2.6,6.6 0.3,0.7 0.5,1.4 0.8,2.2 0.2,0.4 0.4,0.8 0.5,1.2 0,0.1 0,0.1 0,0.1 -0.3,0.1 -0.7,0.1 -1.1,0.1 -0.7,0 -1.4,0.1 -2,0.3 -0.2,0 -0.3,0.1 -0.4,0.1 -0.1,-0.2 -0.1,-0.4 -0.2,-0.7 -0.2,-0.5 -0.4,-1.1 -0.6,-1.6 -0.6,-2.3 -1.3,-4.6 -2,-7 -0.6,-2.2 -1.4,-4.4 -2.4,-6.6 z m 1.7,57.4 c 0.8,-0.1 1.5,-0.2 2.2,-0.3 0.8,-0.2 1.5,-0.3 2.2,-0.4 1.3,-0.3 2.5,-0.6 3.8,-0.8 1.1,-0.3 2.2,-0.5 3.3,-0.7 1,-0.1 2.2,-0.2 3.2,-0.3 0.1,0 0.2,0 0.3,0 0,0 0,0 0,0 0,0.2 0,0.4 0.2,0.5 0.2,0.6 0.3,1.2 0.5,1.8 0.3,1.2 0.8,2.4 1.2,3.6 -1.7,0.1 -3.4,-0.1 -4.9,-0.4 -1.1,-0.3 -2.1,-0.3 -3.2,-0.1 -1.9,0.4 -3.8,0.8 -5.7,1.1 -0.4,0.1 -0.8,0.2 -1.3,0.2 -2.4,0.5 -4.7,1 -7.1,1.5 -2.7,0.7 -5.4,1.4 -8.1,2 -3,0.7 -5.9,1.9 -8.7,3.3 -1.2,0.6 -2.2,1.6 -3.1,2.7 -0.4,0.5 -0.6,1.1 -0.6,1.9 -0.1,0.4 0.1,0.8 0.4,1.1 0.2,0.1 0.4,0.4 0.6,0.5 0.5,0.7 1.3,1.4 2.5,2.1 0.2,0.4 0.6,0.7 1.2,0.9 0.1,0 0.3,0.1 0.4,0.2 1.3,0.6 2.7,1 4.1,1.3 2.4,0.4 4.8,1 7.1,1.8 0.6,0.1 1.1,0.2 1.7,0.3 1.7,0 3.3,0.1 5,0.3 1.1,0.1 2.2,0.1 3.4,0.1 0.9,0 1.9,0.1 2.9,0.2 0.6,0.1 1.3,0.2 2,0.2 1.1,0.1 2.3,0.1 3.5,0.2 2,0 4.1,0 6.2,0 0,0 0.1,0 0.2,0 1.6,-0.1 3.3,-0.1 5,0 0.8,0 1.6,0 2.4,0.1 1.9,0.1 3.8,0.2 5.7,0.1 0.5,-0.1 1,-0.1 1.6,-0.2 1.3,-0.3 2.7,-0.4 4,-0.1 1.1,0.2 2.1,0.1 3.1,-0.1 2.3,-0.7 4.8,-1 7.3,-1 0.2,0 0.5,0 0.7,-0.1 0.3,-0.1 0.6,-0.2 0.8,-0.2 2,-0.2 3.8,-0.5 5.7,-0.7 0.3,0 0.6,0 0.8,0 1.6,0 3.2,-0.2 4.6,-0.6 2.3,-0.6 4.6,-1 7,-1.2 0.3,-0.1 0.5,-0.1 0.8,-0.2 0.7,-0.2 1.4,-0.5 2.1,-0.9 1,-0.5 2.2,-0.8 3.4,-0.8 1.2,-0.1 2.3,-0.4 3.4,-1.1 0.7,-0.4 1.5,-0.7 2.2,-1.1 0.3,-0.1 0.6,-0.3 0.9,-0.5 1.1,-0.6 2.2,-1.5 3.1,-2.5 0.2,-0.3 0.4,-0.5 0.7,-0.6 0.2,-0.2 0.4,-0.3 0.5,-0.5 0.2,-0.2 0.3,-0.5 0.3,-0.8 0.2,-1.2 -0.2,-2.1 -1.3,-2.7 -0.1,0 -0.3,-0.2 -0.5,-0.2 -0.6,-0.3 -1.2,-0.6 -1.9,-0.9 -1.1,-0.5 -2.2,-1.1 -3.3,-1.6 -0.4,-0.2 -0.8,-0.4 -1.2,-0.6 -2.3,-1 -4.6,-1.8 -7.1,-2.3 -2,-0.4 -4.1,-0.7 -6.2,-0.8 -2.3,-0.2 -4.5,-0.5 -6.7,-0.8 -0.3,0 -0.5,-0.1 -0.8,-0.1 -2.5,-0.5 -4.9,-0.8 -7.4,-0.9 -0.1,0 -0.1,0 -0.1,0 -3.7,0.9 -7.4,1.4 -11.1,1.4 -0.4,0 -0.6,0 -0.9,0.1 -0.1,0 -0.2,0 -0.4,0.1 -1.1,0.2 -2.2,0.3 -3.4,0.2 -0.6,-0.1 -1.2,-0.1 -1.8,-0.1 -0.9,0 -1.7,0.1 -2.5,0.1 -0.4,-0.7 -0.6,-1.5 -0.9,-2.3 0,-0.1 0,-0.2 0,-0.2 -0.5,-1 -0.9,-1.9 -1.3,-2.8 -0.1,-0.3 -0.2,-0.6 -0.2,-0.9 0.5,-0.1 1,-0.1 1.5,-0.1 0.3,0 0.7,0 1,0.1 0.9,0 1.8,0 2.7,0 0.2,0 0.3,0 0.5,0 0.9,0 1.8,0 2.7,-0.1 1.3,-0.1 2.6,-0.2 4,-0.5 1.8,-0.2 3.6,-0.5 5.5,-0.7 4,-0.4 8,-0.4 12,0.2 3.9,0.4 7.6,1 11.2,1.5 1.3,0.4 2.6,0.7 4,1.2 1.3,0.4 2.6,0.9 3.9,1.3 0.3,0 0.6,0.1 0.8,0.1 0.5,0.1 1,0.2 1.5,0.3 1,0.2 2.1,0.5 3.1,0.8 2.4,0.8 4.7,1.5 7.1,2.2 0.3,0.2 0.7,0.3 1,0.3 0.7,0.2 1.2,0.4 1.8,0.8 0.8,0.9 1.8,1.7 2.8,2.4 0.6,0.3 1.3,0.7 1.9,0.9 0.2,0.1 0.3,0.1 0.5,0.1 l 4.8,3.1 c 0.3,0.4 0.6,0.7 0.8,1.1 0.1,1 -0.2,1.9 -0.9,2.7 -1.5,1.9 -3.4,3.4 -5.7,4.4 -2.5,1.1 -5.2,2 -7.8,2.8 -0.7,0.2 -1.2,0.5 -1.6,0.9 0,0 0,0 0,0.1 v 0 c 0,0.1 0,0.1 0,0.2 0,0 0,0 0,0 0.4,0.4 0.9,0.5 1.4,0.5 0.4,0 0.8,0 1.1,-0.2 1.3,-0.3 2.5,-0.6 3.8,-1 0.3,1.3 0.9,2.5 1.8,3.7 1.3,2 2.7,4 4.1,6 0.7,1.1 1.4,2.1 2.3,3.1 0.2,0.2 0.4,0.5 0.6,0.8 0.4,0.8 0.9,1.6 1.5,2.4 0.3,0.5 0.6,1 0.9,1.6 0.3,0.5 0.6,1.1 0.9,1.6 0.1,0.3 0.3,0.5 0.3,0.8 1,2.2 1.9,4.5 2.7,6.8 0.3,0.9 0.6,1.8 0.9,2.7 0.2,1.2 0.4,2.5 0.5,3.8 0,0.1 0,0.2 0.1,0.4 -0.1,1.4 -0.1,2.9 -0.2,4.4 0,0.1 0,0.2 -0.1,0.4 0,0.3 -0.1,0.6 -0.1,1 -0.3,0.7 -0.4,1.4 -0.4,2.1 -0.1,0.2 -0.1,0.3 -0.1,0.4 -0.1,0.3 -0.3,0.6 -0.3,1 0,0.1 0,0.2 0,0.4 -0.6,2.1 -1.3,4.3 -2.3,6.4 -1,2.2 -2.5,4.1 -4.7,5.4 -0.6,0.4 -1.3,0.8 -1.9,1.1 -0.7,0.3 -1.2,0.7 -1.7,1.1 -0.2,0.2 -0.3,0.3 -0.3,0.6 v 0 c -0.5,0.3 -1.1,0.5 -1.7,0.8 -0.9,-0.6 -1.9,-1 -2.9,-1.2 -0.4,-0.1 -0.7,-0.1 -1,0 -0.2,0.1 -0.5,0.3 -0.7,0.4 0,0.2 -0.1,0.3 -0.3,0.3 0,0 -0.1,0 -0.1,0.1 -0.1,0 -0.1,0.1 -0.2,0.2 v 0.1 l -0.4,0.1 -0.4,0.4 -0.4,0.1 c -0.8,0.8 -1.7,1.7 -2.7,2.4 -0.1,0.1 -0.2,0.3 -0.2,0.3 0,0 0,0 0.1,0 0.2,-0.2 0.5,-0.3 0.8,-0.5 0.5,-0.3 1,-0.7 1.4,-1 0.1,0 0.2,-0.2 0.3,-0.2 0.1,-0.1 0.2,-0.1 0.3,-0.1 1.3,-0.6 2.7,-0.7 4,-0.2 0,0 0,0 0,0 0.6,0.1 1.2,0.4 1.7,0.7 0.4,0.3 0.7,0.6 0.8,1 1,1.1 1.4,2.5 1.3,4.1 0,0.1 0,0.2 0,0.3 0,2 -0.8,3.6 -2.4,4.8 -1.6,1.2 -3,2.7 -4.1,4.5 -0.3,0.4 -0.5,1 -0.5,1.5 -0.1,1.9 0.6,3.3 2.2,4.3 0.3,0.2 0.5,0.4 0.8,0.5 0.4,0.4 0.9,0.6 1.5,0.8 0,0.1 0,0.1 0,0.1 0,0.2 -0.1,0.3 -0.1,0.4 0,0.1 0,0.2 -0.1,0.2 -2,0 -4,-0.2 -6.1,-0.6 -1.1,-0.2 -1.9,-0.7 -2.7,-1.4 -0.4,-0.5 -0.8,-1.1 -1,-1.7 -0.4,-1.4 -0.5,-2.8 -0.2,-4.3 0.2,-1.1 0.3,-2.2 0.2,-3.4 -0.1,-1.1 -0.6,-2.1 -1.5,-2.9 0,-0.1 -0.1,-0.1 -0.2,-0.2 -0.2,-0.1 -0.4,-0.3 -0.6,-0.5 -0.1,-0.1 -0.3,-0.2 -0.5,-0.3 -0.3,-0.3 -0.7,-0.4 -1,-0.6 -0.2,-0.1 -0.3,-0.2 -0.5,-0.3 0.1,0 0.1,0 0.2,0 -0.5,-0.4 -0.8,-0.9 -1,-1.4 -0.1,-0.2 -0.2,-0.5 -0.2,-0.7 0,-0.1 0,-0.1 0,-0.2 -1.5,0.4 -3.1,0.8 -4.6,0.9 -0.7,0 -1.4,0.1 -2,0.3 -2.4,0.4 -4.8,0.9 -7.2,1.3 -0.2,0.1 -0.4,0.1 -0.6,0.1 -2.1,0.1 -4.1,0.2 -6.1,0.3 -1.2,0.1 -2.4,0.2 -3.6,0.4 -2.4,0.3 -4.9,0.5 -7.4,0.5 -1.6,0 -3.2,0 -4.8,0 -0.1,0 -0.2,0 -0.3,0 -2.1,0.3 -4.2,0.5 -6.3,0.5 -2.4,0.1 -4.7,0.2 -7,0.6 -2.5,0.4 -5,0.4 -7.5,0.1 -0.2,0 -0.5,0 -0.9,0 -2.4,0 -4.8,0.1 -7.3,0.1 -2.2,0.1 -4.3,0 -6.6,-0.2 -0.7,0 -1.5,-0.1 -2.2,-0.4 -2.4,-0.6 -4.8,-1 -7.3,-1.2 -0.8,0 -1.6,-0.1 -2.4,-0.2 -2.1,-0.1 -4.1,-0.4 -6.2,-0.8 -2.4,-0.5 -4.8,-0.9 -7.3,-1.4 -2.4,-0.5 -4.8,-1.1 -7.1,-2 -2.4,-0.9 -4.6,-1.9 -6.7,-3.1 -0.7,-0.4 -1.3,-0.8 -1.9,-1.2 -0.4,-0.3 -0.9,-0.7 -1.4,-0.9 -0.6,-0.4 -1.3,-0.8 -1.9,-1.3 -2,-1.4 -3.5,-3.3 -4.4,-5.7 -0.8,-2.1 -1.4,-4.3 -1.8,-6.5 0,-0.1 0,-0.2 0,-0.4 -0.1,-0.3 -0.2,-0.7 -0.3,-1 0,-0.1 0,-0.2 0,-0.4 0,-0.7 -0.1,-1.4 -0.3,-2.1 0,-0.4 -0.1,-0.7 -0.1,-1 -0.1,-0.2 -0.1,-0.3 -0.1,-0.4 0.1,-1.5 0.1,-3 0.1,-4.4 0.1,-0.2 0.1,-0.3 0.1,-0.4 0.2,-1.3 0.4,-2.5 0.8,-3.8 0.3,-0.8 0.6,-1.7 1,-2.6 0.9,-2.3 1.9,-4.5 3,-6.7 0.1,-0.2 0.3,-0.5 0.4,-0.7 0.4,-0.6 0.7,-1.1 1,-1.6 0.3,-0.6 0.7,-1.1 1,-1.5 0.6,-0.8 1.2,-1.5 1.7,-2.3 0.2,-0.3 0.4,-0.6 0.6,-0.8 0.9,-1 1.7,-1.9 2.5,-2.9 1.4,-2 2.9,-4 4.4,-5.9 1.1,-1.3 1.9,-2.8 2.4,-4.5 0.1,0.1 0.3,0.2 0.5,0.3 1.7,0.9 3.5,1.5 5.4,2 0.5,0.1 0.9,0.2 1.3,0.4 0.5,0.1 0.8,-0.1 0.9,-0.6 0.1,-0.6 -0.1,-0.9 -0.7,-1.2 -0.6,-0.2 -1.3,-0.5 -2,-0.7 -1.2,-0.5 -2.4,-1 -3.5,-1.6 -1.9,-0.9 -3.7,-2 -5.5,-3.2 -1.7,-1 -2.3,-2.4 -2.1,-4.2 0.1,-0.4 0.2,-0.6 0.4,-0.9 1.5,-1.6 3.3,-3.1 5.3,-4.1 0.8,-0.4 1.4,-0.9 1.8,-1.5 1.7,-0.6 3.4,-1.3 5.1,-2 1.5,-0.6 3,-1.2 4.5,-1.8 1.3,-0.5 2.6,-1 3.9,-1.3 3.7,-1.1 7.5,-1.9 11.2,-2.6 0.3,0 0.6,-0.1 0.9,-0.1 1,-0.1 2,-0.2 2.9,-0.3 z m 14,-10.8 c 0.9,-0.6 1.9,-1.1 2.9,-1.5 0,0 0.1,0 0.1,0 0.4,-0.1 0.7,-0.1 1,-0.2 0.2,1.3 0.5,2.5 1.2,3.8 0,0.1 0,0.2 0.1,0.2 0,0.2 0.1,0.3 0.1,0.3 0,0.3 0.1,0.5 0.1,0.8 0.3,0.6 0.5,1.2 0.8,1.8 0.2,0.7 0.4,1.4 0.7,2.2 0.1,0.3 0.2,0.6 0.3,1 0.6,1.7 1.2,3.4 2,5.1 0,0.1 0,0.1 0,0.2 0.2,0.4 0.4,0.9 0.5,1.5 0.6,1.9 1.2,3.9 1.9,5.7 0,0.1 0,0.1 0.1,0.1 0,0.1 0,0.2 0,0.3 0,0.1 0,0.1 0.1,0.1 0,0 0,0 0.1,0.1 0,0 0,0 0,0.1 0,0 0,0 0,0.1 0,0 0,0 0,0.1 -0.5,0.6 -1.2,0.6 -2,0.3 -0.9,-0.4 -1.7,-0.4 -2.5,-0.1 -0.1,-0.2 -0.2,-0.4 -0.4,-0.6 0,0 0,0 0,-0.1 0,-0.1 0,-0.1 0,-0.1 -0.1,-0.1 -0.1,-0.1 -0.1,-0.1 0,0 -0.1,-0.1 -0.1,-0.1 -0.4,-0.9 -0.8,-1.8 -1.2,-2.6 0,0 0,-0.2 -0.1,-0.2 -0.1,-0.2 -0.1,-0.3 -0.2,-0.3 -0.2,-0.9 -0.4,-1.7 -0.6,-2.5 -0.2,-0.5 -0.3,-0.9 -0.4,-1.4 -0.6,-1.7 -1.3,-3.5 -2,-5.2 0,-0.1 0,-0.2 0,-0.3 -0.1,-0.1 -0.1,-0.3 -0.1,-0.4 -0.3,-0.8 -0.6,-1.5 -0.9,-2.3 -0.1,-0.1 -0.2,-0.3 -0.3,-0.5 -0.2,-0.6 -0.4,-1.2 -0.7,-1.8 -0.1,-0.4 -0.2,-0.8 -0.4,-1.2 -0.1,-0.6 -0.4,-1 -0.7,-1.4 0.3,-0.2 0.6,-0.5 0.7,-0.9 z m 5.4,-0.8 c -0.1,-0.6 -0.3,-1 -0.6,-1.3 0.1,0 0.1,0 0.2,-0.1 0.5,-0.1 1,-0.2 1.5,-0.2 0.4,-0.1 0.7,-0.1 0.9,-0.1 0.8,2.6 1.6,5.1 2.7,7.5 -0.5,0 -1,0 -1.5,0 -0.3,0.1 -0.6,0.1 -1,0.1 -0.3,-0.8 -0.6,-1.6 -0.8,-2.5 -0.3,-1.2 -0.8,-2.3 -1.3,-3.4 z m -68.9,92.6 c 0.4,-0.2 0.8,-0.5 1.2,-0.6 1.4,-0.6 2.9,-0.6 4.4,0.1 0.1,0 0.2,0 0.2,0.1 0.1,0 0.2,0.1 0.3,0.2 0.1,0 0.1,0 0.1,0.1 1.5,0.2 2.8,0.7 4.1,1.5 1,0.4 1.9,1 2.9,1.6 0.6,0.5 1.1,1.1 1.3,1.8 -0.3,0.3 -0.3,0.7 0.1,1.2 -0.1,0.1 -0.1,0.2 -0.1,0.4 v 0 c -1,0.5 -1.9,1 -2.8,1.8 -0.9,0.8 -1.4,1.8 -1.4,2.9 -0.1,1.2 -0.1,2.3 0.2,3.4 0.2,1.5 0.2,2.9 -0.3,4.3 -0.2,0.6 -0.5,1.2 -1,1.7 -0.7,0.7 -1.6,1.2 -2.6,1.4 -2.1,0.4 -4.2,0.6 -6.2,0.6 0,0 0,-0.1 0,-0.2 -0.1,-0.1 -0.1,-0.2 -0.1,-0.4 0,0 0,0 0,-0.1 0.5,-0.2 1,-0.4 1.5,-0.8 0.2,-0.1 0.5,-0.3 0.7,-0.5 1.6,-1 2.4,-2.4 2.3,-4.3 -0.1,-0.5 -0.2,-1.1 -0.5,-1.5 -1.1,-1.8 -2.5,-3.3 -4.2,-4.5 -1.5,-1.2 -2.3,-2.8 -2.3,-4.8 0,-0.1 0,-0.2 -0.1,-0.3 -0.1,-2.1 0.7,-3.8 2.3,-5.1 z m 97.6,-72 0.1,-0.1 c 2.3,0.1 4.3,0.9 6,2.4 0.2,0.3 0.2,0.5 0,0.8 -0.6,0.8 -1.4,1.5 -2.4,2 -1.6,0.6 -3.2,1 -4.9,1.2 -0.1,-0.1 -0.4,-0.2 -0.5,-0.3 0,-0.2 0,-0.3 0,-0.4 0,0 0,-0.1 0,-0.2 2,-0.6 3.9,-1.5 5.7,-2.5 0.2,-0.1 0.3,-0.2 0.4,-0.3 -1,-0.8 -2.3,-1.4 -3.8,-1.8 -0.4,-0.1 -0.7,-0.2 -0.9,-0.6 0.1,-0.1 0.2,-0.1 0.3,-0.2 z m -3.1,3.5 c -0.1,0.1 -0.1,0.1 -0.2,0.2 0,0.1 -0.1,0.2 -0.3,0.4 0,0 0,0 0,0.1 -3,1.4 -6.1,1.7 -9.3,1.2 -0.3,-0.1 -0.4,-0.2 -0.4,-0.4 0.4,-0.7 1,-1.1 1.9,-1.1 2.5,0 4.8,-0.3 7.2,-0.9 0,-0.1 0,-0.1 -0.1,-0.1 -0.3,0 -0.5,-0.1 -0.8,-0.1 -2,-1.1 -4.2,-1.4 -6.6,-1 -0.5,0.1 -0.9,0 -1.2,-0.3 -0.1,-0.1 -0.2,-0.2 -0.2,-0.2 0,-0.1 0,-0.1 0,-0.2 0,0 0.1,-0.1 0.2,-0.2 0,0 0,-0.1 0.1,-0.1 0,0 0.1,0 0.1,-0.1 0.3,-0.1 0.6,-0.1 1,-0.1 v 0 c 2.4,-0.3 4.6,0.1 6.8,1.2 0.1,0.1 0.2,0.1 0.2,0.2 0.3,0.1 0.6,0.1 0.9,0.2 0.2,0.1 0.4,0.2 0.7,0.4 0,0 0,0.1 0,0.1 0,0.1 0,0.2 0,0.2 0,0.1 0,0.2 0,0.2 0,0 0,0.1 0,0.2 0,0 0,0.1 0,0.2 z m -24.6,2.3 c 0,0.1 0,0.2 0,0.3 0,0 -0.1,0.1 -0.1,0.1 -0.1,0.1 -0.1,0.1 -0.1,0.1 -4.9,1.4 -9.7,1 -14.2,-1.4 -0.1,-0.2 -0.2,-0.5 -0.2,-0.7 0.1,-0.2 0.1,-0.4 0,-0.6 1.1,-1.5 2.6,-2.5 4.5,-2.9 0.6,-0.1 1.1,-0.2 1.6,-0.4 0.5,0 0.9,0.1 1.3,0.3 0,0.1 0.1,0.1 0.1,0.2 0.1,0 0.1,0.1 0.1,0.2 0,0.1 0,0.1 -0.1,0.2 0,0 0,0.1 -0.1,0.1 -2.2,0.4 -4.1,1.2 -5.8,2.4 1.6,0.7 3.3,1 5.1,1.1 2.5,0.1 4.9,0.3 7.2,0.6 0.3,0.1 0.5,0.2 0.7,0.4 z m -16.6,-0.2 c 0.1,0 0.1,0.1 0.1,0.1 0,0.1 0,0.2 -0.1,0.2 0,0.1 0,0.2 -0.1,0.2 -0.1,0 -0.2,0.1 -0.3,0.1 -1.3,0 -2.6,-0.4 -3.8,-0.9 -0.1,-0.2 -0.2,-0.2 -0.3,-0.4 0,-0.1 -0.1,-0.2 -0.2,-0.3 0,-1.2 0.6,-2 1.7,-2.5 0.4,-0.2 0.8,-0.4 1.1,-0.5 0.5,0 1,0 1.3,0.4 0.1,0.1 0.1,0.1 0.1,0.2 0,0 0,0.1 0,0.1 0,0.1 -0.1,0.2 -0.1,0.3 -0.1,0 -0.1,0 -0.2,0.1 -1.1,0.3 -2.2,0.8 -3.1,1.5 1.4,0.4 2.7,0.9 3.9,1.4 z"
         id="path1" />
      <path
         style="fill:#ffffff;stroke:none"
         d="m 325.5,529.59 c 0.2,-0.5 0.4,-1 0.5,-1.5 0,-0.7 0.2,-1.2 0.6,-1.5 -1,-2 -2.3,-3.9 -3.8,-5.6 -0.3,-0.4 -0.6,-0.7 -0.9,-1 -1.8,-1.8 -3.5,-3.5 -5.2,-5.3 -1.8,-1.7 -3.6,-3.3 -5.4,-4.9 -0.6,-0.5 -1.2,-1 -1.7,-1.4 -1.2,-0.4 -2.4,-0.7 -3.5,-0.9 -0.8,-0.2 -1.6,-0.3 -2.3,-0.4 0,0.1 0,0.2 -0.1,0.2 0,0.2 -0.1,0.3 -0.3,0.3 -1.2,0.3 -2.2,0.8 -3.1,1.6 -0.9,0.7 -1.9,1.5 -2.9,2.2 -0.7,0.7 -1.5,1.3 -2.3,1.9 -0.7,0.7 -1.4,1.3 -2,2 -1.7,1.8 -3.3,3.7 -4.8,5.6 -0.9,1.1 -1.6,2.1 -2.5,3.1 -1.5,2 -2.9,3.9 -4.2,5.9 -1,1.5 -2.1,3 -3.2,4.4 -1.6,1.8 -3.2,3.7 -4.7,5.6 -0.6,0.6 -1.1,1.1 -1.6,1.6 0,0.3 -0.1,0.5 -0.3,0.8 -0.1,0.3 -0.3,0.5 -0.4,0.8 -1.2,2.2 -2.1,4.4 -3,6.7 -0.8,2.3 -1.6,4.6 -2.4,6.9 -0.7,2.1 -1.4,4.3 -2.2,6.4 -0.2,0.6 -0.4,1.1 -0.6,1.6 -0.3,0.5 -0.4,0.9 -0.7,1.4 -0.3,0.9 -0.6,1.9 -1.1,2.7 2.2,0.2 4.3,0.5 6.4,0.8 0.3,0.1 0.4,0.2 0.5,0.4 0.2,0.7 0,1.1 -0.5,1.3 -2.1,-0.2 -4.1,-0.6 -6.1,-1 -2.5,-0.5 -4.9,-0.8 -7.4,-0.7 -0.7,0 -1.3,0 -1.9,0.2 -0.6,-0.1 -1.2,0 -1.8,0.2 -0.1,0 -0.2,0 -0.3,0 -0.4,0 -0.8,0.1 -1.2,0.4 -1,0.6 -1.6,1.3 -1.8,2.4 -0.1,0.5 0,1 0.5,1.4 0.1,0.3 0.4,0.5 0.8,0.6 0.1,0.1 0.2,0.1 0.3,0.2 0.1,0 0.2,0 0.2,0 0.3,0.2 0.6,0.4 1,0.5 0,0 0.1,0 0.1,0 0.4,0.1 0.7,0.2 1,0.3 0.8,0.2 1.6,0.4 2.3,0.5 0.3,0.2 0.5,0.2 0.8,0.3 1.7,0.5 3.5,1 5.3,1.3 0.6,0.1 1.1,0.1 1.6,0.2 0.2,0 0.5,0 0.8,0.1 1.2,0.1 2.4,0.3 3.7,0.3 0.9,0 1.9,0 2.8,0 0.4,0 0.8,0 1.1,0 1.3,-0.1 2.7,-0.2 4,-0.2 0,0 0.1,0 0.2,0 0.1,0 0.3,0 0.5,0 0.9,0 1.8,0 2.6,0 v 0 c 0.4,0 0.8,0 1.1,0 0.2,0 0.3,0 0.4,0 0.7,-0.1 1.5,-0.1 2.3,-0.2 0.1,0 0.2,0 0.4,0 1.7,0 3.4,-0.1 5.1,-0.5 0.4,0 0.7,-0.1 1,-0.1 0.6,-0.2 1.2,-0.3 1.7,-0.4 0.2,0 0.4,-0.1 0.5,-0.1 0.1,0 0.2,0 0.2,0 0.3,-0.1 0.6,-0.2 0.9,-0.3 1.9,-0.4 3.7,-0.6 5.5,-0.6 1.4,-0.1 2.8,-0.1 4.2,-0.3 2.4,-0.3 4.8,-0.8 7.2,-1.3 2,-0.6 4,-1.4 5.8,-2.3 1.1,-0.4 2.2,-0.7 3.4,-0.9 0.3,-0.1 0.7,-0.2 1,-0.3 1.1,-0.2 2.2,-0.5 3.3,-0.7 0.2,0 0.4,-0.1 0.6,-0.1 2.4,-0.5 4.7,-1.4 6.9,-2.5 1.6,-0.9 3.1,-1.9 4.4,-3.1 0.3,-0.4 0.5,-0.7 0.5,-1.1 0,-0.1 0,-0.1 -0.1,-0.2 0,0 0,-0.1 -0.1,-0.2 0,0 0,-0.1 0,-0.1 -0.1,-0.1 -0.2,-0.1 -0.3,-0.2 -0.2,-0.1 -0.4,-0.1 -0.5,-0.1 -0.3,0 -0.5,0 -0.7,0 0,-0.1 0,-0.1 0.1,-0.1 -1.5,0.1 -3,0.4 -4.3,1.2 -1.1,0.5 -2.2,0.9 -3.3,1 -1,0.1 -2,0 -2.9,-0.3 -0.4,0.4 -0.8,0.7 -1.3,0.8 -0.1,0.1 -0.2,0.1 -0.3,0 -0.6,-0.3 -0.7,-0.8 -0.3,-1.5 0.7,-1.2 1.4,-2.4 2.2,-3.6 0.2,-0.6 0.4,-1.2 0.5,-1.7 0,-0.2 0,-0.4 0.1,-0.5 -0.5,-0.5 -1.1,-0.9 -1.8,-1 -0.9,-0.2 -1.7,-0.6 -2.5,-1.2 -0.3,-0.2 -0.6,-0.5 -0.8,-0.8 -0.6,0.1 -0.9,-0.2 -1,-1 -0.1,-0.8 -0.1,-1.5 0.1,-2.4 0,-0.2 0.1,-0.5 0.1,-0.8 0,-0.2 0.1,-0.4 0.1,-0.6 -0.6,-0.4 -1.2,-1 -1.6,-1.7 -1,-1.8 -1.4,-3.7 -1.2,-5.8 0,-0.1 0,-0.2 0,-0.4 -0.3,-2.5 -0.7,-4.9 -1.2,-7.3 -0.2,-0.6 -0.3,-1.2 -0.3,-1.8 -0.3,-2.3 -0.2,-4.5 0.3,-6.7 -0.2,0 -0.4,0.1 -0.6,0.1 -1,0.4 -1.6,0.1 -1.9,-0.7 0,-0.3 0,-0.4 0.2,-0.5 0.8,-0.3 1.6,-0.5 2.3,-0.7 0.4,-0.1 0.7,-0.2 1,-0.3 0.2,0 0.3,-0.1 0.5,-0.1 0,0 0,0 0.1,0 0.5,-0.1 1,-0.2 1.5,-0.2 0.3,-0.1 0.6,-0.1 0.9,-0.1 2.5,0.1 4.8,0.9 6.9,2.3 0.4,0.3 0.8,0.6 1.1,1 0.5,0.4 0.7,0.9 0.9,1.6 0.1,0.2 0.2,0.4 0.3,0.7 z"
         id="path2" />
      <path
         style="fill:#ffffff;stroke:none"
         d="m 266.2,586.69 c -0.8,-0.1 -1.5,-0.2 -2.4,-0.1 -2.7,0.5 -4.4,2.2 -5.1,4.8 -0.4,1.2 -0.6,2.5 -0.8,3.7 0,0.6 0,1.2 -0.1,1.7 0,1.1 0,2.1 0.1,3.2 0.2,1 0.5,2 1,3 0.8,1.9 2.2,3.1 4.2,3.6 2.1,0.5 4.1,0.1 5.8,-1.1 1.4,-0.9 2.4,-2.2 2.9,-3.8 0.6,-1.9 0.8,-3.7 0.4,-5.7 -0.4,-1.6 -0.8,-3.3 -1.4,-5 -1,-2.4 -2.5,-3.8 -4.6,-4.3 z m -1.9,12.3 c 2.1,0.7 2.8,2.1 2.1,4.4 -0.3,1.4 -1.2,1.9 -2.7,1.4 -1.2,-0.5 -1.8,-1.3 -1.8,-2.6 -0.1,-1.9 0.7,-3 2.4,-3.2 z"
         id="path3" />
      <path
         style="fill:#5f5f61;stroke:none"
         d="m 266.4,603.39 c 0.7,-2.3 0,-3.7 -2.1,-4.4 -1.7,0.2 -2.5,1.3 -2.4,3.2 0,1.3 0.6,2.1 1.8,2.6 1.5,0.5 2.4,0 2.7,-1.4 z"
         id="path4" />
      <path
         style="fill:#ffffff;stroke:none"
         d="m 312.1,584.49 c -1,0 -2,0.1 -3,0.4 -4.4,1.1 -7,3.9 -7.6,8.4 -0.1,0.8 -0.2,1.5 -0.4,2.2 -0.7,2.6 -0.2,4.9 1.7,6.9 1.5,1.6 3.5,2.3 5.7,2 3.4,-0.5 5.9,-2.1 7.5,-5 0.5,-0.7 0.9,-1.4 1.2,-2.1 1.1,-2 1.4,-4.1 1.2,-6.2 -0.5,-3.8 -2.6,-6 -6.3,-6.6 z m -5.3,11.2 c 0.5,0.2 0.9,0.5 1.3,0.8 1.2,0.9 1.4,2.1 0.5,3.6 -0.2,0.5 -0.5,0.9 -0.8,1.1 -0.9,1.1 -1.9,1 -3.4,-0.2 -0.4,-0.4 -0.6,-0.9 -0.6,-1.5 -0.1,-2.3 0.9,-3.6 3,-3.8 z"
         id="path5" />
      <path
         style="fill:#5f5f61;stroke:none"
         d="m 308.1,596.49 c -0.4,-0.3 -0.8,-0.6 -1.3,-0.8 -2.1,0.2 -3.1,1.5 -3,3.8 0,0.6 0.2,1.1 0.6,1.5 1.5,1.2 2.5,1.3 3.4,0.2 0.3,-0.2 0.6,-0.6 0.8,-1.1 0.9,-1.5 0.7,-2.7 -0.5,-3.6 z"
         id="path6" />
      <path
         style="fill:#ffffff;stroke:none"
         d="m 286.2,628.39 c 1.4,-2 3,-3.9 4.9,-5.6 1.1,-1 2.1,-2.1 3.2,-3.1 0.7,-0.8 1.3,-1.7 1.8,-2.7 0.2,-0.5 0.3,-0.9 0.3,-1.3 -0.5,-0.1 -0.8,-0.3 -1.2,-0.5 -0.3,-0.1 -0.5,-0.2 -0.8,-0.3 v 0 c -0.3,0 -0.7,0 -1,-0.1 -4,-1.2 -8,-1.6 -12.1,-1.3 -0.1,0.1 -0.2,0.1 -0.4,0.1 -1.4,0.5 -2.7,1.2 -3.8,2.1 -0.3,0.2 -0.5,0.4 -0.7,0.7 0,0.3 0.1,0.6 0.3,0.9 1.8,4 3.7,8 5.7,12 0.4,0.8 0.9,1 1.7,0.7 0.8,-0.3 1.5,-0.8 2.1,-1.6 z"
         id="path7" />
      <path
         style="fill:#ffffff;stroke:none"
         d="m 248.7,625.69 c 0,0.2 0,0.3 0,0.4 1,2.2 1.8,4.4 2.4,6.6 0.7,2.4 1.4,4.7 2,7 0.2,0.5 0.4,1.1 0.6,1.6 0.1,0.3 0.1,0.5 0.2,0.7 0.1,0 0.2,-0.1 0.4,-0.1 0.6,-0.2 1.3,-0.3 2,-0.3 0.4,0 0.8,0 1.1,-0.1 0,0 0,0 0,-0.1 -0.1,-0.4 -0.3,-0.8 -0.5,-1.2 -0.3,-0.8 -0.5,-1.5 -0.8,-2.2 -0.9,-2.2 -1.7,-4.4 -2.6,-6.6 0,0 0,-0.1 0,-0.2 -0.8,-2.2 -1.5,-4.4 -2,-6.7 -0.1,-0.3 -0.2,-0.7 -0.2,-1 -0.1,-0.1 -0.1,-0.2 -0.1,-0.2 -0.2,-0.8 -0.5,-1.5 -0.8,-2.2 -0.1,-0.1 -0.1,-0.2 -0.1,-0.3 -1,0.6 -1.9,1.3 -2.8,2 0.3,1 0.7,2 1.2,2.9 z"
         id="path8" />
      <path
         style="fill:#ffffff;stroke:none"
         d="m 252.6,683.19 c -0.7,0.1 -1.4,0.2 -2.2,0.3 -0.9,0.1 -1.9,0.2 -2.9,0.3 -0.3,0 -0.6,0.1 -0.9,0.1 -3.7,0.7 -7.5,1.5 -11.2,2.6 -1.3,0.3 -2.6,0.8 -3.9,1.3 -1.5,0.6 -3,1.2 -4.5,1.8 -1.7,0.7 -3.4,1.4 -5.1,2 -0.4,0.6 -1,1.1 -1.8,1.5 -2,1 -3.8,2.5 -5.3,4.1 -0.2,0.3 -0.3,0.5 -0.4,0.9 -0.2,1.8 0.4,3.2 2.1,4.2 1.8,1.2 3.6,2.3 5.5,3.2 1.1,0.6 2.3,1.1 3.5,1.6 0.7,0.2 1.4,0.5 2,0.7 0.6,0.3 0.8,0.6 0.7,1.2 -0.1,0.5 -0.4,0.7 -0.9,0.6 -0.4,-0.2 -0.8,-0.3 -1.3,-0.4 -1.9,-0.5 -3.7,-1.1 -5.4,-2 -0.2,-0.1 -0.4,-0.2 -0.5,-0.3 -0.5,1.7 -1.3,3.2 -2.4,4.5 -1.5,1.9 -3,3.9 -4.4,5.9 -0.8,1 -1.6,1.9 -2.5,2.9 -0.2,0.2 -0.4,0.5 -0.6,0.8 -0.5,0.8 -1.1,1.5 -1.7,2.3 -0.3,0.4 -0.7,0.9 -1,1.5 -0.3,0.5 -0.6,1 -1,1.6 -0.1,0.2 -0.3,0.5 -0.4,0.7 -1.1,2.2 -2.1,4.4 -3,6.7 -0.4,0.9 -0.7,1.8 -1,2.6 -0.4,1.3 -0.6,2.5 -0.8,3.8 0,0.1 0,0.2 -0.1,0.4 0,1.4 0,2.9 -0.1,4.4 0,0.1 0,0.2 0.1,0.4 0,0.3 0.1,0.6 0.1,1 0.2,0.7 0.3,1.4 0.3,2.1 0,0.2 0,0.3 0,0.4 0.1,0.3 0.2,0.7 0.3,1 0,0.2 0,0.3 0,0.4 0.4,2.2 1,4.4 1.8,6.5 0.9,2.4 2.4,4.3 4.4,5.7 0.6,0.5 1.3,0.9 1.9,1.3 0.5,0.2 1,0.6 1.4,0.9 0.6,0.4 1.2,0.8 1.9,1.2 2.1,1.2 4.3,2.2 6.7,3.1 2.3,0.9 4.7,1.5 7.1,2 2.5,0.5 4.9,0.9 7.3,1.4 2.1,0.4 4.1,0.7 6.2,0.8 0.8,0.1 1.6,0.2 2.4,0.2 2.5,0.2 4.9,0.6 7.3,1.2 0.7,0.3 1.5,0.4 2.2,0.4 2.3,0.2 4.4,0.3 6.6,0.2 2.5,0 4.9,-0.1 7.3,-0.1 0.4,0 0.7,0 0.9,0 2.5,0.3 5,0.3 7.5,-0.1 2.3,-0.4 4.6,-0.5 7,-0.6 2.1,0 4.2,-0.2 6.3,-0.5 0.1,0 0.2,0 0.3,0 1.6,0 3.2,0 4.8,0 2.5,0 5,-0.2 7.4,-0.5 1.2,-0.2 2.4,-0.3 3.6,-0.4 2,-0.1 4,-0.2 6.1,-0.3 0.2,0 0.4,0 0.6,-0.1 2.4,-0.4 4.8,-0.9 7.2,-1.3 0.6,-0.2 1.3,-0.3 2,-0.3 1.5,-0.1 3.1,-0.5 4.6,-0.9 0,0.1 0,0.1 0,0.2 0,0.2 0.1,0.5 0.2,0.7 0.2,0.5 0.5,1 1,1.4 -0.1,0 -0.1,0 -0.2,0 0.2,0.1 0.3,0.2 0.5,0.3 0.3,0.2 0.7,0.3 1,0.6 0.2,0.1 0.4,0.2 0.5,0.3 0.2,0.2 0.4,0.4 0.6,0.5 0.1,0.1 0.2,0.1 0.2,0.2 0.9,0.8 1.4,1.8 1.5,2.9 0.1,1.2 0,2.3 -0.2,3.4 -0.3,1.5 -0.2,2.9 0.2,4.3 0.2,0.6 0.6,1.2 1,1.7 0.8,0.7 1.6,1.2 2.7,1.4 2.1,0.4 4.1,0.6 6.1,0.6 0.1,0 0.1,-0.1 0.1,-0.2 0,-0.1 0.1,-0.2 0.1,-0.4 0,0 0,0 0,-0.1 -0.6,-0.2 -1.1,-0.4 -1.5,-0.8 -0.3,-0.1 -0.5,-0.3 -0.8,-0.5 -1.6,-1 -2.3,-2.4 -2.2,-4.3 0,-0.5 0.2,-1.1 0.5,-1.5 1.1,-1.8 2.5,-3.3 4.1,-4.5 1.6,-1.2 2.4,-2.8 2.4,-4.8 0,-0.1 0,-0.2 0,-0.3 0.1,-1.6 -0.3,-3 -1.3,-4.1 -0.1,-0.4 -0.4,-0.7 -0.8,-1 -0.5,-0.3 -1.1,-0.6 -1.7,-0.7 0,0 0,0 0,0 -1.3,-0.5 -2.7,-0.4 -4,0.2 -0.1,0 -0.2,0 -0.3,0.1 -0.1,0 -0.2,0.2 -0.3,0.2 -0.4,0.3 -0.9,0.7 -1.4,1 -0.3,0.2 -0.6,0.3 -0.8,0.5 -0.1,0 -0.1,0 -0.1,0 0,0 0.1,-0.2 0.2,-0.3 1,-0.7 1.9,-1.6 2.7,-2.4 l 0.4,-0.1 0.4,-0.4 0.4,-0.1 v -0.1 c 0.1,-0.1 0.1,-0.2 0.2,-0.2 0,-0.1 0.1,-0.1 0.1,-0.1 0.2,0 0.3,-0.1 0.3,-0.3 0.2,-0.1 0.5,-0.3 0.7,-0.4 0.3,-0.1 0.6,-0.1 1,0 1,0.2 2,0.6 2.9,1.2 0.6,-0.3 1.2,-0.5 1.7,-0.8 v 0 c 0,-0.3 0.1,-0.4 0.3,-0.6 0.5,-0.4 1,-0.8 1.7,-1.1 0.6,-0.3 1.3,-0.7 1.9,-1.1 2.2,-1.3 3.7,-3.2 4.7,-5.4 1,-2.1 1.7,-4.3 2.3,-6.4 0,-0.2 0,-0.3 0,-0.4 0,-0.4 0.2,-0.7 0.3,-1 0,-0.1 0,-0.2 0.1,-0.4 0,-0.7 0.1,-1.4 0.4,-2.1 0,-0.4 0.1,-0.7 0.1,-1 0.1,-0.2 0.1,-0.3 0.1,-0.4 0.1,-1.5 0.1,-3 0.2,-4.4 -0.1,-0.2 -0.1,-0.3 -0.1,-0.4 -0.1,-1.3 -0.3,-2.6 -0.5,-3.8 -0.3,-0.9 -0.6,-1.8 -0.9,-2.7 -0.8,-2.3 -1.7,-4.6 -2.7,-6.8 0,-0.3 -0.2,-0.5 -0.3,-0.8 -0.3,-0.5 -0.6,-1.1 -0.9,-1.6 -0.3,-0.6 -0.6,-1.1 -0.9,-1.6 -0.6,-0.8 -1.1,-1.6 -1.5,-2.4 -0.2,-0.3 -0.4,-0.6 -0.6,-0.8 -0.9,-1 -1.6,-2 -2.3,-3.1 -1.4,-2 -2.8,-4 -4.1,-6 -0.9,-1.2 -1.5,-2.4 -1.8,-3.7 -1.3,0.4 -2.5,0.7 -3.8,1 -0.3,0.2 -0.7,0.2 -1.1,0.2 -0.5,0 -1,-0.1 -1.4,-0.5 0,0 0,0 0,0 0,-0.1 0,-0.1 0,-0.2 v 0 c 0,-0.1 0,-0.1 0,-0.1 0.4,-0.4 0.9,-0.7 1.6,-0.9 2.6,-0.8 5.3,-1.7 7.8,-2.8 2.3,-1 4.2,-2.5 5.7,-4.4 0.7,-0.8 1,-1.7 0.9,-2.7 -0.2,-0.4 -0.5,-0.7 -0.8,-1.1 l -4.8,-3.1 c -0.2,0 -0.3,0 -0.5,-0.1 -0.6,-0.2 -1.3,-0.6 -1.9,-0.9 -1,-0.7 -2,-1.5 -2.8,-2.4 -0.6,-0.4 -1.1,-0.6 -1.8,-0.8 -0.3,0 -0.7,-0.1 -1,-0.3 -2.4,-0.7 -4.7,-1.4 -7.1,-2.2 -1,-0.3 -2.1,-0.6 -3.1,-0.8 -0.5,-0.1 -1,-0.2 -1.5,-0.3 -0.2,0 -0.5,-0.1 -0.8,-0.1 -1.3,-0.4 -2.6,-0.9 -3.9,-1.3 -1.4,-0.5 -2.7,-0.8 -4,-1.2 -3.6,-0.5 -7.3,-1.1 -11.2,-1.5 -4,-0.6 -8,-0.6 -12,-0.2 -1.9,0.2 -3.7,0.5 -5.5,0.7 -1.4,0.3 -2.7,0.4 -4,0.5 -0.9,0.1 -1.8,0.1 -2.7,0.1 -0.2,0 -0.3,0 -0.5,0 -0.9,0 -1.8,0 -2.7,0 -0.3,-0.1 -0.7,-0.1 -1,-0.1 -0.5,0 -1,0 -1.5,0.1 0,0.3 0.1,0.6 0.2,0.9 0.4,0.9 0.8,1.8 1.3,2.8 0,0 0,0.1 0,0.2 0.3,0.8 0.5,1.6 0.9,2.3 0.8,0 1.6,-0.1 2.5,-0.1 0.6,0 1.2,0 1.8,0.1 1.2,0.1 2.3,0 3.4,-0.2 0.2,-0.1 0.3,-0.1 0.4,-0.1 0.3,-0.1 0.5,-0.1 0.9,-0.1 3.7,0 7.4,-0.5 11.1,-1.4 0,0 0,0 0.1,0 2.5,0.1 4.9,0.4 7.4,0.9 0.3,0 0.5,0.1 0.8,0.1 2.2,0.3 4.4,0.6 6.7,0.8 2.1,0.1 4.2,0.4 6.2,0.8 2.5,0.5 4.8,1.3 7.1,2.3 0.4,0.2 0.8,0.4 1.2,0.6 1.1,0.5 2.2,1.1 3.3,1.6 0.7,0.3 1.3,0.6 1.9,0.9 0.2,0 0.4,0.2 0.5,0.2 1.1,0.6 1.5,1.5 1.3,2.7 0,0.3 -0.1,0.6 -0.3,0.8 -0.1,0.2 -0.3,0.3 -0.5,0.5 -0.3,0.1 -0.5,0.3 -0.7,0.6 -0.9,1 -2,1.9 -3.1,2.5 -0.3,0.2 -0.6,0.4 -0.9,0.5 -0.7,0.4 -1.5,0.7 -2.2,1.1 -1.1,0.7 -2.2,1 -3.4,1.1 -1.2,0 -2.4,0.3 -3.4,0.8 -0.7,0.4 -1.4,0.7 -2.1,0.9 -0.3,0.1 -0.5,0.1 -0.8,0.2 -2.4,0.2 -4.7,0.6 -7,1.2 -1.4,0.4 -3,0.6 -4.6,0.6 -0.2,0 -0.5,0 -0.8,0 -1.9,0.2 -3.7,0.5 -5.7,0.7 -0.2,0 -0.5,0.1 -0.8,0.2 -0.2,0.1 -0.5,0.1 -0.7,0.1 -2.5,0 -5,0.3 -7.3,1 -1,0.2 -2,0.3 -3.1,0.1 -1.3,-0.3 -2.7,-0.2 -4,0.1 -0.6,0.1 -1.1,0.1 -1.6,0.2 -1.9,0.1 -3.8,0 -5.7,-0.1 -0.8,-0.1 -1.6,-0.1 -2.4,-0.1 -1.7,-0.1 -3.4,-0.1 -5,0 -0.1,0 -0.2,0 -0.2,0 -2.1,0 -4.2,0 -6.2,0 -1.2,-0.1 -2.4,-0.1 -3.5,-0.2 -0.7,0 -1.4,-0.1 -2,-0.2 -1,-0.1 -2,-0.2 -2.9,-0.2 -1.2,0 -2.3,0 -3.4,-0.1 -1.7,-0.2 -3.3,-0.3 -5,-0.3 -0.6,-0.1 -1.1,-0.2 -1.7,-0.3 -2.3,-0.8 -4.7,-1.4 -7.1,-1.8 -1.4,-0.3 -2.8,-0.7 -4.1,-1.3 -0.1,-0.1 -0.3,-0.2 -0.4,-0.2 -0.6,-0.2 -1,-0.5 -1.2,-0.9 -1.2,-0.7 -2,-1.4 -2.5,-2.1 -0.2,-0.1 -0.4,-0.4 -0.6,-0.5 -0.3,-0.3 -0.5,-0.7 -0.4,-1.1 0,-0.8 0.2,-1.4 0.6,-1.9 0.9,-1.1 1.9,-2.1 3.1,-2.7 2.8,-1.4 5.7,-2.6 8.7,-3.3 2.7,-0.6 5.4,-1.3 8.1,-2 2.4,-0.5 4.7,-1 7.1,-1.5 0.5,0 0.9,-0.1 1.3,-0.2 1.9,-0.3 3.8,-0.7 5.7,-1.1 1.1,-0.2 2.1,-0.2 3.2,0.1 1.5,0.3 3.2,0.5 4.9,0.4 -0.4,-1.2 -0.9,-2.4 -1.2,-3.6 -0.2,-0.6 -0.3,-1.2 -0.5,-1.8 -0.2,-0.1 -0.2,-0.3 -0.2,-0.5 0,0 0,0 0,0 -0.1,0 -0.2,0 -0.3,0 -1,0.1 -2.2,0.2 -3.2,0.3 -1.1,0.2 -2.2,0.4 -3.3,0.7 -1.3,0.2 -2.5,0.5 -3.8,0.8 -0.7,0.1 -1.4,0.2 -2.2,0.4 z"
         id="path9" />
      <path
         style="fill:#ffffff;stroke:none"
         d="m 267.3,671.19 c -1,0.4 -2,0.9 -2.9,1.5 -0.1,0.4 -0.4,0.7 -0.7,0.9 0.3,0.4 0.6,0.8 0.7,1.4 0.2,0.4 0.3,0.8 0.4,1.2 0.3,0.6 0.5,1.2 0.7,1.8 0.1,0.2 0.2,0.4 0.3,0.5 0.3,0.8 0.6,1.5 0.9,2.3 0,0.1 0,0.3 0.1,0.4 0,0.1 0,0.2 0,0.3 0.7,1.7 1.4,3.5 2,5.2 0.1,0.5 0.2,0.9 0.4,1.4 0.2,0.8 0.4,1.6 0.6,2.5 0.1,0 0.1,0.1 0.2,0.3 0.1,0 0.1,0.2 0.1,0.2 0.4,0.8 0.8,1.7 1.2,2.6 0,0 0.1,0.1 0.1,0.1 0,0 0,0 0.1,0.1 0,0 0,0 0,0.1 0,0.1 0,0.1 0,0.1 0.2,0.2 0.3,0.4 0.4,0.6 0.8,-0.3 1.6,-0.3 2.5,0.1 0.8,0.3 1.5,0.3 2,-0.3 0,-0.1 0,-0.1 0,-0.1 0,-0.1 0,-0.1 0,-0.1 0,-0.1 0,-0.1 0,-0.1 -0.1,-0.1 -0.1,-0.1 -0.1,-0.1 -0.1,0 -0.1,0 -0.1,-0.1 0,-0.1 0,-0.2 0,-0.3 -0.1,0 -0.1,0 -0.1,-0.1 -0.7,-1.8 -1.3,-3.8 -1.9,-5.7 -0.1,-0.6 -0.3,-1.1 -0.5,-1.5 0,-0.1 0,-0.1 0,-0.2 -0.8,-1.7 -1.4,-3.4 -2,-5.1 -0.1,-0.4 -0.2,-0.7 -0.3,-1 -0.3,-0.8 -0.5,-1.5 -0.7,-2.2 -0.3,-0.6 -0.5,-1.2 -0.8,-1.8 0,-0.3 -0.1,-0.5 -0.1,-0.8 0,0 -0.1,-0.1 -0.1,-0.3 -0.1,0 -0.1,-0.1 -0.1,-0.2 -0.7,-1.3 -1,-2.5 -1.2,-3.8 -0.3,0.1 -0.6,0.1 -1,0.2 z"
         id="path10" />
      <path
         style="fill:#ffffff;stroke:none"
         d="m 202.1,763.89 c -0.4,0.1 -0.8,0.4 -1.2,0.6 -1.6,1.3 -2.4,3 -2.3,5.1 0.1,0.1 0.1,0.2 0.1,0.3 0,2 0.8,3.6 2.3,4.8 1.7,1.2 3.1,2.7 4.2,4.5 0.3,0.4 0.4,1 0.5,1.5 0.1,1.9 -0.7,3.3 -2.3,4.3 -0.2,0.2 -0.5,0.4 -0.7,0.5 -0.5,0.4 -1,0.6 -1.5,0.8 0,0.1 0,0.1 0,0.1 0,0.2 0,0.3 0.1,0.4 0,0.1 0,0.2 0,0.2 2,0 4.1,-0.2 6.2,-0.6 1,-0.2 1.9,-0.7 2.6,-1.4 0.5,-0.5 0.8,-1.1 1,-1.7 0.5,-1.4 0.5,-2.8 0.3,-4.3 -0.3,-1.1 -0.3,-2.2 -0.2,-3.4 0,-1.1 0.5,-2.1 1.4,-2.9 0.9,-0.8 1.8,-1.3 2.8,-1.8 v 0 c 0,-0.2 0,-0.3 0.1,-0.4 -0.4,-0.5 -0.4,-0.9 -0.1,-1.2 -0.2,-0.7 -0.7,-1.3 -1.3,-1.8 -1,-0.6 -1.9,-1.2 -2.9,-1.6 -1.3,-0.8 -2.6,-1.3 -4.1,-1.5 0,-0.1 0,-0.1 -0.1,-0.1 -0.1,-0.1 -0.2,-0.2 -0.3,-0.2 0,-0.1 -0.1,-0.1 -0.2,-0.1 -1.5,-0.7 -3,-0.7 -4.4,-0.1 z"
         id="path11" />
      <path
         style="fill:#ffffff;stroke:none"
         d="m 298.6,692.39 -0.1,0.1 c -0.1,0.1 -0.2,0.1 -0.3,0.2 0.2,0.4 0.5,0.5 0.9,0.6 1.5,0.4 2.8,1 3.8,1.8 -0.1,0.1 -0.2,0.2 -0.4,0.3 -1.8,1 -3.7,1.9 -5.7,2.5 0,0.1 0,0.2 0,0.2 0,0.1 0,0.2 0,0.4 0.1,0.1 0.4,0.2 0.5,0.3 1.7,-0.2 3.3,-0.6 4.9,-1.2 1,-0.5 1.8,-1.2 2.4,-2 0.2,-0.3 0.2,-0.5 0,-0.8 -1.7,-1.5 -3.7,-2.3 -6,-2.4 z"
         id="path12" />
      <path
         style="fill:#ffffff;stroke:none"
         d="m 295.2,696.19 c 0.1,-0.1 0.1,-0.1 0.2,-0.2 0,-0.1 0,-0.2 0,-0.2 0,-0.1 0,-0.2 0,-0.2 0,0 0,-0.1 0,-0.2 0,0 0,-0.1 0,-0.2 0,0 0,-0.1 0,-0.1 -0.3,-0.2 -0.5,-0.3 -0.7,-0.4 -0.3,-0.1 -0.6,-0.1 -0.9,-0.2 0,-0.1 -0.1,-0.1 -0.2,-0.2 -2.2,-1.1 -4.4,-1.5 -6.8,-1.2 v 0 c -0.4,0 -0.7,0 -1,0.1 0,0.1 -0.1,0.1 -0.1,0.1 -0.1,0 -0.1,0.1 -0.1,0.1 -0.1,0.1 -0.2,0.2 -0.2,0.2 0,0.1 0,0.1 0,0.2 0,0 0.1,0.1 0.2,0.2 0.3,0.3 0.7,0.4 1.2,0.3 2.4,-0.4 4.6,-0.1 6.6,1 0.3,0 0.5,0.1 0.8,0.1 0.1,0 0.1,0 0.1,0.1 -2.4,0.6 -4.7,0.9 -7.2,0.9 -0.9,0 -1.5,0.4 -1.9,1.1 0,0.2 0.1,0.3 0.4,0.4 3.2,0.5 6.3,0.2 9.3,-1.2 0,-0.1 0,-0.1 0,-0.1 0.2,-0.2 0.3,-0.3 0.3,-0.4 z"
         id="path13" />
      <path
         style="fill:#ffffff;stroke:none"
         d="m 270.8,698.59 c 0,-0.1 0,-0.2 0,-0.3 -0.2,-0.2 -0.4,-0.3 -0.7,-0.4 -2.3,-0.3 -4.7,-0.5 -7.2,-0.6 -1.8,-0.1 -3.5,-0.4 -5.1,-1.1 1.7,-1.2 3.6,-2 5.8,-2.4 0.1,0 0.1,-0.1 0.1,-0.1 0.1,-0.1 0.1,-0.1 0.1,-0.2 0,-0.1 0,-0.2 -0.1,-0.2 0,-0.1 -0.1,-0.1 -0.1,-0.2 -0.4,-0.2 -0.8,-0.3 -1.3,-0.3 -0.5,0.2 -1,0.3 -1.6,0.4 -1.9,0.4 -3.4,1.4 -4.5,2.9 0.1,0.2 0.1,0.4 0,0.6 0,0.2 0.1,0.5 0.2,0.7 4.5,2.4 9.3,2.8 14.2,1.4 0,0 0,0 0.1,-0.1 z"
         id="path14" />
      <path
         style="fill:#ffffff;stroke:none"
         d="m 254.3,698.19 c 0,0 0,-0.1 -0.1,-0.1 -1.2,-0.5 -2.5,-1 -3.9,-1.4 0.9,-0.7 2,-1.2 3.1,-1.5 0.1,-0.1 0.1,-0.1 0.2,-0.1 0,-0.1 0.1,-0.2 0.1,-0.3 0,0 0,-0.1 0,-0.1 0,-0.1 0,-0.1 -0.1,-0.2 -0.3,-0.4 -0.8,-0.4 -1.3,-0.4 -0.3,0.1 -0.7,0.3 -1.1,0.5 -1.1,0.5 -1.7,1.3 -1.7,2.5 0.1,0.1 0.2,0.2 0.2,0.3 0.1,0.2 0.2,0.2 0.3,0.4 1.2,0.5 2.5,0.9 3.8,0.9 0.1,0 0.2,-0.1 0.3,-0.1 0.1,0 0.1,-0.1 0.1,-0.2 0.1,0 0.1,-0.1 0.1,-0.2 z"
         id="path15" />
      <path
         style="fill:#5f5f61;stroke:none"
         d="m 327.8,538.79 c -0.3,-0.4 -0.6,-0.8 -0.8,-1.3 -0.4,-0.4 -0.7,-0.9 -1,-1.4 -0.3,-0.4 -0.7,-0.6 -1.2,-0.4 -0.1,0.1 -0.2,0.3 -0.2,0.4 -0.2,1.4 -0.4,2.6 -0.6,3.9 -1.5,0.3 -2.9,0.7 -4.4,1.2 -0.5,0.1 -0.6,0.4 -0.4,0.9 0.4,0 0.8,0.1 1.1,0.3 1,0.6 2,0.9 3.1,1.1 -0.1,1 -0.2,2 -0.3,3 -0.1,1 -0.2,1.8 -0.4,2.7 -0.1,0.4 0,0.8 0.4,0.9 0.2,0.1 0.4,0 0.5,-0.1 0.2,-0.3 0.3,-0.5 0.4,-0.6 1,-1.4 2.1,-2.9 3.4,-4.2 1.2,0.5 2.4,1.1 3.5,1.6 0.5,0.3 0.9,0.4 1.5,0.4 0.4,0.3 0.7,0.3 1.1,-0.1 -0.2,-0.5 -0.5,-0.9 -0.8,-1.4 -1.1,-1.1 -2,-2.4 -2.7,-3.7 1.3,-1.2 2.4,-2.5 3.3,-4 0.1,-0.2 0.2,-0.3 0.2,-0.4 -0.1,-0.5 -0.3,-0.6 -0.8,-0.5 -0.8,0.4 -1.7,0.7 -2.5,1 -0.8,0.4 -1.6,0.6 -2.4,0.7 z m -1.3,0.7 c 0.1,0 0.3,0.2 0.4,0.5 0,0 0,0 0.1,0.1 0.1,0 0.3,0.2 0.4,0.4 0,-0.1 0.1,-0.2 0.2,-0.2 0.2,-0.3 0.5,-0.4 0.8,-0.4 0.9,-0.4 2,-0.8 3,-1.2 -0.6,0.8 -1.3,1.6 -2.1,2.2 -0.2,0.5 -0.6,0.8 -1,0.9 0.2,0.2 0.4,0.3 0.5,0.7 0.1,0.1 0.2,0.3 0.3,0.5 0.2,0.3 0.4,0.6 0.6,1 0.4,0.5 0.9,1.1 1.4,1.6 -0.3,-0.1 -0.5,-0.2 -0.8,-0.3 -0.7,-0.4 -1.4,-0.8 -2.2,-1.1 0,0 0,0 0,-0.1 0.1,0 0.1,0 0.1,0 -0.1,0 -0.2,0 -0.3,-0.1 -0.3,0.1 -0.5,0.1 -0.8,0 -0.3,0.3 -0.6,0.5 -0.9,0.8 v 0 c -0.7,0.9 -1.3,1.7 -2,2.3 0.1,-1 0.2,-2 0.3,-3 -0.1,-0.3 -0.1,-0.5 0,-0.8 0,-0.1 0,-0.2 0,-0.3 -0.4,0 -0.8,-0.2 -1.1,-0.4 -0.1,-0.1 -0.1,-0.1 -0.1,-0.1 -0.5,-0.1 -0.9,-0.2 -1.2,-0.4 H 322 c -0.2,-0.1 -0.4,-0.3 -0.7,-0.3 0.7,-0.3 1.4,-0.5 2.2,-0.5 v -0.1 c 0.1,0 0.2,0 0.3,0 0,0 0,0 0.1,0 0.3,-0.1 0.7,-0.2 1,-0.1 0,-0.1 0,-0.1 0.1,-0.1 0,-0.3 0,-0.5 0.2,-0.7 0,-0.2 0,-0.3 0,-0.3 v -0.1 0 c -0.1,-0.1 -0.1,-0.1 0,-0.1 0.1,-0.7 0.2,-1.3 0.2,-2.1 0.1,0 0.2,0.1 0.3,0.3 0.4,0.4 0.7,0.8 0.9,1.3 -0.1,0.1 -0.1,0.1 -0.1,0.2 z"
         id="path16" />
      <path
         style="fill:#ffffff;stroke:none"
         d="m 326.9,539.99 c -0.1,-0.3 -0.3,-0.5 -0.4,-0.5 0,-0.1 0,-0.1 0.1,-0.2 -0.2,-0.5 -0.5,-0.9 -0.9,-1.3 -0.1,-0.2 -0.2,-0.3 -0.3,-0.3 0,0.8 -0.1,1.4 -0.2,2.1 -0.1,0 -0.1,0 0,0.1 v 0 0.1 c 0,0 0,0.1 0,0.3 -0.2,0.2 -0.2,0.4 -0.2,0.7 -0.1,0 -0.1,0 -0.1,0.1 -0.3,-0.1 -0.7,0 -1,0.1 -0.1,0 -0.1,0 -0.1,0 -0.1,0 -0.2,0 -0.3,0 v 0.1 c -0.8,0 -1.5,0.2 -2.2,0.5 0.3,0 0.5,0.2 0.7,0.3 h 0.1 c 0.3,0.2 0.7,0.3 1.2,0.4 0,0 0,0 0.1,0.1 0.3,0.2 0.7,0.4 1.1,0.4 0,0.1 0,0.2 0,0.3 -0.1,0.3 -0.1,0.5 0,0.8 -0.1,1 -0.2,2 -0.3,3 0.7,-0.6 1.3,-1.4 2,-2.3 v 0 c 0.3,-0.3 0.6,-0.5 0.9,-0.8 0.3,0.1 0.5,0.1 0.8,0 0.1,0.1 0.2,0.1 0.3,0.1 0,0 0,0 -0.1,0 0,0.1 0,0.1 0,0.1 0.8,0.3 1.5,0.7 2.2,1.1 0.3,0.1 0.5,0.2 0.8,0.3 -0.5,-0.5 -1,-1.1 -1.4,-1.6 -0.2,-0.4 -0.4,-0.7 -0.6,-1 -0.1,-0.2 -0.2,-0.4 -0.3,-0.5 -0.1,-0.4 -0.3,-0.5 -0.5,-0.7 0.4,-0.1 0.8,-0.4 1,-0.9 0.8,-0.6 1.5,-1.4 2.1,-2.2 -1,0.4 -2.1,0.8 -3,1.2 -0.3,0 -0.6,0.1 -0.8,0.4 -0.1,0 -0.2,0.1 -0.2,0.2 -0.1,-0.2 -0.3,-0.4 -0.4,-0.4 z"
         id="path17" />
      <path
         style="fill:#5f5f61;stroke:none"
         d="m 236.6,531.59 c 0,0.1 0,0.2 0,0.4 0,1 0.1,2 0,3 0,0 -0.1,0.1 -0.1,0.2 -0.1,0 -0.1,0.1 -0.1,0.1 0,0.1 0,0.2 0,0.2 -0.1,0.8 -0.2,1.5 -0.2,2.3 -0.1,0 -0.1,0.2 -0.1,0.2 -0.1,0 -0.1,0.1 -0.2,0.2 0,0 0,0.1 0,0.1 0.1,0.4 0,0.7 0,1 -0.1,0 -0.1,0.2 -0.2,0.2 0,0 0,0.1 -0.1,0.2 0,0 0,0.1 0,0.1 0.1,0.4 0,0.7 0,1 -0.1,0 -0.2,0.2 -0.2,0.2 -0.1,0.1 -0.1,0.2 -0.1,0.3 -0.1,0.2 -0.2,0.4 -0.3,0.5 -1.9,1 -3.9,1.6 -6.2,1.5 0,0.1 -0.1,0.2 -0.1,0.2 0,0.1 0,0.2 -0.1,0.3 1.6,0.8 3.3,1.2 5.1,1.2 0.4,0.2 0.7,0.4 1.1,0.5 0.1,0 0.1,0.1 0.1,0.2 0.1,0.3 0.1,0.5 0.2,0.8 0,0 0,0.1 0.1,0.2 0.1,0.1 0.2,0.2 0.2,0.3 0,0.1 0,0.2 0,0.2 0,0.1 0,0.2 0,0.3 0.1,0 0.2,0.2 0.2,0.3 0.2,1.3 0.4,2.7 0.3,4.2 0.1,0 0.1,0 0.2,0.1 0,0 0,0.1 0.1,0.2 0,0 0,0.2 0,0.2 0,0.3 0.1,0.6 0.2,1 0.2,0 0.3,0 0.4,0 0.1,0 0.2,0 0.3,0 0,0 0,0 0.1,0 0,-0.2 0,-0.3 0.1,-0.4 0.1,-2.6 0.1,-5.1 -0.2,-7.6 0,-0.1 0,-0.2 0.1,-0.3 0,0 0.1,-0.1 0.1,-0.2 0,0 0,-0.1 0,-0.2 0.1,-0.3 0.2,-0.7 0.3,-1.1 0.4,-0.6 0.9,-1 1.6,-1.2 0.8,0.3 1.5,0.5 2.3,0.8 1.6,0.5 2.6,0.2 2.8,-1.1 -0.5,-0.5 -1.1,-0.7 -1.7,-0.6 -1.8,0 -3.2,-0.6 -4.3,-1.8 0,0 0,-0.1 0,-0.1 -0.1,-3.1 -0.3,-6.1 -0.7,-9 -0.1,-0.1 -0.2,-0.1 -0.3,-0.2 0,0.1 0,0.1 0,0.1 -0.2,0.1 -0.3,0.2 -0.4,0.2 -0.1,0.1 -0.1,0.2 -0.1,0.2 0,0.3 -0.1,0.4 -0.2,0.6 z m 0.1,6.7 h 0.1 c 0,0.8 0,1.6 0,2.4 0.6,0.6 1.1,1.1 1.3,1.5 -0.4,0.3 -0.8,0.5 -1.1,0.8 -0.2,0.3 -0.4,0.7 -0.7,1 0.1,0.5 0,0.8 -0.3,1.1 -0.3,-0.6 -0.7,-0.9 -1.3,-1.1 0.5,-0.3 1,-0.8 1.4,-1.4 0,-0.1 0,-0.1 0,-0.1 0.4,-1.4 0.6,-2.8 0.6,-4.2 z"
         id="path18" />
      <path
         style="fill:#ffffff;stroke:none"
         d="m 236.8,538.29 h -0.1 c 0,1.4 -0.2,2.8 -0.6,4.2 0,0 0,0 0,0.1 -0.4,0.6 -0.9,1.1 -1.4,1.4 0.6,0.2 1,0.5 1.3,1.1 0.3,-0.3 0.4,-0.6 0.3,-1.1 0.3,-0.3 0.5,-0.7 0.7,-1 0.3,-0.3 0.7,-0.5 1.1,-0.8 -0.2,-0.4 -0.7,-0.9 -1.3,-1.5 0,-0.8 0,-1.6 0,-2.4 z"
         id="path19" />
      <path
         style="fill:#5f5f61;stroke:none"
         d="m 201.1,523.89 c 0.5,-1.6 0.1,-2.8 -1,-3.6 -0.8,0.1 -1.6,0.3 -2.5,0.5 -0.2,0 -0.3,0.1 -0.3,0.3 -0.4,1.6 -0.4,3.4 0.1,5.2 -0.1,0.1 -0.1,0.2 0,0.4 0.3,4 1.1,7.9 2.4,11.8 0.1,0 0.1,0.1 0.2,0.1 0.1,0.2 0.3,0.3 0.6,0.4 0.5,-0.3 0.9,-0.5 1.3,-1 0.4,-0.3 0.5,-0.7 0.3,-1.2 -0.9,-2.8 -1.4,-5.7 -1.6,-8.6 0,-1.5 0.1,-2.9 0.5,-4.3 z"
         id="path20" />
      <path
         style="fill:#5f5f61;stroke:none"
         d="m 186.3,535.19 c -0.7,0.6 -1.3,1.3 -1.9,2.1 0.1,0.2 0.1,0.4 0,0.6 0,0.1 0,0.3 0,0.6 0,0 0,0 0,0.1 -0.4,0.7 -0.6,1.6 -0.6,2.4 0,0.5 0.1,1 0.3,1.3 -0.1,0.3 -0.1,0.6 -0.1,0.8 0.1,0.3 0.2,0.5 0.4,0.7 0,0.1 0.1,0.2 0.2,0.2 0.1,0.8 0.5,1.5 1.1,2 2.4,2 5,2.3 7.9,1 1.4,-0.5 1.6,-1.5 0.6,-2.6 -0.1,-0.2 -0.3,-0.2 -0.4,-0.2 -2.4,0.8 -4.7,0.5 -6.8,-0.7 -0.1,-0.2 -0.1,-0.3 -0.2,-0.4 -0.1,-0.1 -0.2,-0.2 -0.2,-0.4 -0.1,0 -0.1,-0.1 -0.1,-0.2 0.4,0 0.8,0 1.1,-0.2 1.4,-0.5 2.8,-0.8 4.2,-1 2,-0.2 2.8,-1.2 2.4,-2.9 -0.6,-2.8 -2.5,-4.1 -5.6,-4.1 -0.9,0 -1.6,0.3 -2.3,0.9 z m -0.7,4 c -0.1,-1.5 0.6,-2.6 2.1,-3.1 1.8,-0.3 3.2,0.2 4.4,1.5 0,0.2 0,0.4 0,0.6 0,0.1 0,0.2 0.1,0.3 -2.2,0.8 -4.3,1.5 -6.5,2 0,-0.1 0,-0.3 0,-0.5 0,-0.2 -0.1,-0.4 -0.1,-0.5 0,-0.1 0,-0.2 0,-0.3 z"
         id="path21" />
      <path
         style="fill:#5f5f61;stroke:none"
         d="m 202.8,541.19 v 0.1 c -1.3,0.2 -2.1,0.7 -2.3,1.7 -0.1,0.2 -0.2,0.3 -0.3,0.5 0,0 0,0 0,0.1 0,0.1 0,0.2 0,0.4 0,0 0,0.1 0,0.2 0.3,0.4 0.7,0.6 1.2,0.7 0.1,0 0.1,0 0.2,0 0.5,0.1 1.1,-0.1 1.6,-0.6 1.3,-1.3 1.2,-2.3 -0.4,-3.1 z"
         id="path22" />
      <path
         style="fill:#5f5f61;stroke:none"
         d="m 181.4,543.69 c 0,-0.5 -0.1,-0.9 -0.3,-1.2 -1.7,-3.2 -4.4,-4.6 -8.3,-4.3 -2,0.3 -3.8,1.2 -5.3,2.8 -0.3,0.4 -0.6,0.9 -0.6,1.5 0,0 0,0.1 0,0.1 -0.1,0 -0.1,0 -0.1,0 -0.3,0.1 -0.5,0.2 -0.6,0.5 -0.1,0.2 -0.1,0.4 0,0.6 0,0.1 0,0.3 0,0.5 0.1,0.3 0.2,0.4 0.4,0.6 0.5,0.8 0.8,1.7 0.8,2.7 0.1,0 0.2,0.2 0.3,0.3 0.3,1 0.7,1.9 1.2,2.8 0.1,0.1 0.1,0.2 0.1,0.4 0,0 0,0.1 0.1,0.2 0,0 0.1,0.1 0.1,0.1 0.4,0.5 0.7,0.9 1,1.4 0.5,1.9 1.1,3.9 1.8,5.8 0.5,1.2 1.3,1.8 2.3,1.8 0.1,-0.2 0.1,-0.3 0.2,-0.3 0,-0.1 0,-0.2 0.1,-0.3 -0.1,-0.1 -0.1,-0.2 -0.2,-0.3 0,-0.2 -0.1,-0.3 -0.2,-0.4 -0.5,-1.7 -0.9,-3.3 -1.4,-4.9 -0.1,-0.6 -0.3,-1.1 -0.6,-1.6 -0.2,-0.5 -0.5,-1 -0.8,-1.5 1.6,0.1 3.2,0 4.8,-0.6 3.4,-1.2 5.1,-3.4 5.2,-6.7 z m -2.2,-0.2 c -0.1,0.1 -0.1,0.2 -0.2,0.2 0,0.1 0,0.2 -0.1,0.3 0,0.9 -0.4,1.6 -1.2,2.2 -2,1.4 -4.3,2.2 -6.9,2.3 -0.1,0 -0.3,0 -0.4,0.1 -0.4,-0.9 -0.8,-1.8 -1.1,-2.8 -0.2,-0.5 -0.4,-1 -0.7,-1.5 h 0.1 c 0.3,-1.3 1.1,-2.3 2.3,-2.9 3.1,-1.7 5.9,-1.3 8.3,1.2 0,0.1 0,0.2 0,0.4 0,0.1 0,0.2 -0.1,0.3 0,0.1 0,0.2 0,0.2 z"
         id="path23" />
      <path
         style="fill:#5f5f61;stroke:none"
         d="m 164.6,549.79 c -0.1,-0.8 -0.3,-1.5 -0.7,-2.2 -1,-1.9 -2.7,-2.8 -5.1,-2.6 -1.3,0.4 -2.6,1.1 -3.9,2 -1.1,0.7 -1.8,1.8 -2.2,3.1 -0.1,0.6 -0.3,1.4 -0.4,2 -0.1,2.2 0.9,3.7 3,4.5 3.6,1.2 6.3,0.3 8.3,-2.8 0.7,-1.2 1.1,-2.5 1,-4 z m -10.1,1.8 c 0.1,-0.6 0.2,-1.3 0.4,-1.9 0,0 0.1,-0.1 0.1,-0.2 0.2,-0.2 0.4,-0.3 0.6,-0.5 0.2,0.1 0.3,0.1 0.5,0.2 0.1,-0.1 0.2,-0.2 0.3,-0.2 0.7,-0.7 1.6,-1.3 2.5,-1.8 0.6,-0.1 1.2,0 1.8,0.1 0,0.1 0.1,0.2 0.2,0.2 0.4,0.2 0.8,0.5 1.1,0.8 0.2,0.5 0.3,1.1 0.4,1.7 0.1,2.2 -0.8,3.7 -2.9,4.5 -2.2,0.8 -3.9,0.3 -4.9,-1.4 -0.1,-0.5 -0.1,-1 -0.1,-1.5 z"
         id="path24" />
      <path
         style="fill:#5f5f61;stroke:none"
         d="m 198,573.19 c 0.2,-0.6 0.6,-1 1.1,-1.2 2.7,-1.1 5.4,-2 8.2,-2.8 2.6,-0.7 4.8,-2.2 6.5,-4.4 1.4,-1.8 1.8,-3.8 1.1,-5.8 -0.2,-0.3 -0.4,-0.6 -0.5,-0.9 -0.4,-0.6 -0.5,-1.3 -0.3,-2 0.2,-0.1 0.3,-0.1 0.4,-0.1 0.7,-0.5 1.3,-1.2 1.8,-1.9 0.1,-0.1 0.2,-0.1 0.3,-0.1 1.4,-0.3 2.2,-1 2.6,-2.2 -0.1,0 -0.1,0 -0.1,0 -0.1,0 -0.2,0 -0.3,0 -0.6,0.2 -1.1,0.4 -1.6,0.7 -0.4,0.1 -0.7,0.2 -1,0.5 -1.1,0.8 -2.2,1.8 -3.1,2.8 -0.1,0.3 -0.1,0.6 -0.1,0.8 0.1,0.5 0.1,1 0.2,1.5 0.3,0.4 0.6,0.8 1,1.1 0,0.3 0.1,0.4 0.2,0.6 0.2,0.4 0.3,0.8 0.2,1.3 -0.6,2.1 -1.9,3.8 -3.8,4.9 -2.9,1.7 -6,3 -9.3,3.9 -3,0.7 -5.2,2.4 -6.9,5.1 -0.1,0.5 -0.3,1.1 -0.4,1.6 -0.3,2.2 0.6,3.6 2.7,4.1 1,0.3 1.9,0.6 2.7,1.2 2.1,1.3 4.4,1.8 7.1,1.6 -0.2,0.7 -0.6,1.5 -1.3,2.2 -2.6,2.9 -5.9,3.9 -10,3 -0.4,-0.2 -0.7,-0.5 -1,-0.8 -0.3,-0.4 -0.8,-0.6 -1.3,-0.6 -3.9,-0.2 -6.8,1.2 -8.9,4.2 0.1,0.7 0,1.4 -0.1,2.1 -0.1,1.3 -0.3,2.5 -0.6,3.7 -0.1,0.1 -0.1,0.2 -0.1,0.2 -0.1,0.1 -0.1,0.2 -0.1,0.2 0,0.2 0,0.3 0,0.4 0,0.2 0.1,0.4 0.1,0.6 -0.1,0.3 -0.3,0.6 -0.5,0.8 -0.9,0.4 -1.8,1 -2.5,1.7 0,0.4 0,0.8 0,1.1 0.4,3.3 1.7,6.1 3.9,8.4 2,2.1 4.3,3.9 6.9,5.3 0.5,0.2 0.9,0.3 1.4,0.5 3.9,1.1 7.7,2.5 11.6,3.9 0.5,0.4 0.9,0.9 1.3,1.4 0.1,0.2 0.2,0.3 0.3,0.5 1,1.5 1.5,3.2 1.5,5 -0.1,1.6 -0.3,3.2 -0.9,4.7 -1.2,3.4 -3.1,6.4 -5.7,8.9 -0.3,0.3 -0.5,0.5 -0.8,0.7 -1.7,1.2 -3.3,2.4 -4.9,3.6 -2,1.6 -2.7,3.6 -1.9,6.1 -0.1,0.1 -0.1,0.2 0,0.3 0.2,1 0.5,2 0.7,3.1 1.2,0.7 2.5,1.3 3.9,1.8 0.1,0 0.1,0.1 0.1,0.2 0.1,0.7 0.2,1.4 0.4,2 0.3,1.3 0.8,2.5 1.5,3.6 0.4,0.5 0.9,0.9 1.4,1.1 2.3,0.7 4.6,0.9 6.9,0.6 3.7,-0.6 6.8,0.4 9.2,3 0.2,0.2 0.5,0.4 0.8,0.5 1.5,0.6 2.5,1.6 3.1,3 0,0.4 0,0.7 0.1,1 0,0.1 0,0.2 0,0.3 -0.1,2 0.3,3.8 1,5.4 0.5,1 1.1,1.8 2,2.5 1.6,1.3 3.1,1.4 4.4,0.4 -0.1,-0.7 -0.5,-1.1 -1.2,-1.3 -2.1,-0.5 -3.3,-1.7 -3.8,-3.7 -0.3,-1.3 -0.5,-2.7 -0.6,-4.1 0,-0.6 -0.3,-1.2 -0.7,-1.7 -1.9,-1.9 -3.8,-3.7 -5.9,-5.4 -1.2,-1 -2.7,-1.6 -4.4,-1.7 -3.3,-0.3 -6.7,-0.5 -10.1,-0.5 -0.4,-0.4 -0.8,-0.7 -1.3,-0.9 0,-0.2 -0.1,-0.3 -0.3,-0.5 0,0 0,-0.1 0,-0.1 0.1,-0.4 0,-0.7 -0.2,-1 0.1,-0.2 0.1,-0.5 0.1,-0.7 -0.2,-1.2 -0.5,-2.4 -0.9,-3.6 -1.1,-0.5 -2.2,-1 -3.4,-1.4 -0.2,-0.6 -0.4,-1.1 -0.7,-1.6 -1,-2 -0.6,-3.7 1.2,-5 1.2,-0.9 2.3,-1.7 3.4,-2.5 2.4,-1.8 4.4,-4.1 6,-6.7 1.5,-2.6 2.5,-5.3 3.1,-8.2 0.3,-1.2 0.3,-2.5 0.1,-3.9 -0.3,-2.3 -1.3,-4.4 -2.9,-6.2 -0.3,-0.3 -0.6,-0.5 -0.9,-0.5 -1.7,-0.5 -3.3,-1.1 -4.9,-2 -2.1,-1 -4.3,-1.9 -6.6,-2.5 -1.9,-1 -3.8,-1.9 -5.8,-2.9 -3.1,-2.5 -5.1,-5.8 -6,-9.7 1.2,-0.6 1.9,-1.5 2.4,-2.5 0,-0.1 0.1,-0.1 0.2,-0.1 0,-0.1 0.1,-0.2 0.1,-0.2 0,-0.2 0.1,-0.4 0.1,-0.6 0.2,-0.1 0.3,-0.2 0.4,-0.4 0.1,-0.7 0.3,-1.4 0.5,-2.1 0.3,-1.2 0.4,-2.5 0.3,-3.9 1.8,-1.9 4,-2.9 6.7,-3 0.3,0.5 0.8,0.9 1.3,1.1 1.8,1 3.8,1.2 5.9,0.9 2,-0.4 3.9,-1.2 5.5,-2.5 1.8,-1.4 2.7,-3.2 2.9,-5.4 0,-0.2 -0.1,-0.4 -0.3,-0.5 -1.3,-0.5 -2.6,-0.8 -4,-0.8 -0.6,0 -1.2,-0.1 -1.7,-0.3 -2.2,-1 -4.3,-2 -6.4,-3 0,-0.3 0,-0.5 0,-0.8 0.1,-0.6 0,-1.1 -0.1,-1.5 0.2,-0.2 0.3,-0.5 0.4,-0.7 0.5,-1 1.1,-1.7 1.9,-2.3 z"
         id="path25" />
      <path
         style="fill:#5f5f61;stroke:none"
         d="m 127.5,502.29 c 0,0 -0.1,0 -0.1,0 -0.4,0.8 -0.6,1.6 -0.6,2.4 0.1,0.8 0,1.6 -0.1,2.4 -0.2,1.7 -0.5,3.4 -0.7,5.1 -0.1,0.6 -0.4,1 -0.9,1.4 -1.7,1 -3.4,1.8 -5.3,2.2 -0.1,0.2 -0.1,0.3 -0.1,0.4 0,0.2 0,0.3 0.1,0.4 1.5,0.4 3.1,0.8 4.8,1 0.1,0 0.2,0 0.3,0.1 0.8,1.5 1.1,3.1 1.1,4.8 -0.1,1.2 0.1,2.3 0.6,3.3 0.6,1.4 1.4,1.5 2.2,0.3 0,-0.1 0,-0.2 0,-0.4 -0.4,-2.2 -0.3,-4.3 0.4,-6.4 0,-0.1 0,-0.2 0,-0.3 0,-0.4 0.1,-0.8 0.1,-1.2 1.2,-2.3 3,-3.6 5.8,-4 0.1,0 0.1,0 0.2,-0.1 0.2,-0.2 0.4,-0.4 0.5,-0.7 -0.1,-0.3 -0.2,-0.4 -0.3,-0.3 -1.9,0.1 -3.9,0.3 -5.8,0.5 -0.1,0 -0.1,-0.1 -0.2,-0.2 -0.2,-0.3 -0.4,-0.6 -0.5,-0.9 0.2,-1.7 0.3,-3.4 0.3,-5.1 0.2,-1.9 -0.3,-3.5 -1.5,-4.8 -0.1,0.1 -0.2,0.1 -0.3,0.1 z m 0.3,10.9 c 0,0 0.1,0.1 0.2,0.1 0.5,0.9 1.1,1.4 1.8,1.5 0,0 0,0.1 -0.1,0.2 -0.7,0.9 -1.4,1.9 -2,2.9 -0.2,-1.1 -0.8,-1.9 -1.9,-2.3 0.1,-0.1 0.2,-0.1 0.2,-0.2 0.9,-0.7 1.4,-1.7 1.6,-2.8 0,0.2 0,0.4 0.2,0.6 z"
         id="path26" />
      <path
         style="fill:#ffffff;stroke:none"
         d="m 128,513.29 c -0.1,0 -0.2,-0.1 -0.2,-0.1 -0.2,-0.2 -0.2,-0.4 -0.2,-0.6 -0.2,1.1 -0.7,2.1 -1.6,2.8 0,0.1 -0.1,0.1 -0.2,0.2 1.1,0.4 1.7,1.2 1.9,2.3 0.6,-1 1.3,-2 2,-2.9 0.1,-0.1 0.1,-0.2 0.1,-0.2 -0.7,-0.1 -1.3,-0.6 -1.8,-1.5 z"
         id="path27" />
      <path
         style="fill:#5f5f61;stroke:none"
         d="m 143.6,539.69 c -0.2,0 -0.3,0.1 -0.5,0.1 -0.2,0.2 -0.3,0.3 -0.3,0.6 -0.2,1.2 0,2.4 0.3,3.6 0.1,0 0.1,0 0.2,0.1 0,0 0,0.1 0.1,0.2 0.3,0.8 0.5,1.6 0.7,2.4 0.2,1.4 0.6,2.8 0.9,4.2 0.6,2.1 1,4.3 1.2,6.6 0.1,0.8 0.5,1.3 1.4,1.4 0.5,0.1 0.7,-0.2 0.8,-0.8 0.2,-2.7 -0.1,-5.5 -0.9,-8.2 -0.7,-2.4 -1.4,-4.7 -2.5,-6.9 0,-0.2 -0.2,-0.3 -0.2,-0.4 -0.3,-0.6 -0.5,-1.4 -0.4,-2.3 -0.1,0 -0.1,-0.1 -0.1,-0.1 -0.1,-0.3 -0.4,-0.5 -0.7,-0.5 z"
         id="path28" />
      <path
         style="fill:#5f5f61;stroke:none"
         d="m 103.8,550.09 c -0.3,0.1 -0.4,0.4 -0.5,0.5 -0.3,1.4 -0.4,2.6 -0.2,4 0.8,4.6 1.8,9.3 2.9,13.9 0.5,0.6 1.1,0.7 1.8,0.5 0.3,-0.2 0.4,-0.4 0.4,-0.7 -0.5,-2.4 -0.9,-4.8 -1.4,-7.2 1.9,0.4 3.8,0.4 5.8,-0.1 0.3,1.1 0.7,2.2 1.1,3.3 0.3,0.7 0.5,1.2 0.7,1.9 0.4,1.3 1.3,1.8 2.5,1.1 0.4,-0.2 0.5,-0.4 0.4,-0.7 -1.5,-3.9 -2.7,-8 -3.4,-12.1 -0.1,-0.5 -0.1,-0.9 -0.2,-1.4 0,-1.5 -0.7,-2.6 -1.9,-3.4 -0.1,0 -0.3,0.1 -0.5,0.1 -0.1,0.2 -0.2,0.2 -0.2,0.4 0,2.6 0.3,5.3 0.8,7.8 -1.6,0.3 -3.3,0.5 -5.1,0.5 -0.1,0 -0.3,0 -0.4,0 -0.1,-0.2 -0.1,-0.4 -0.1,-0.5 0,-0.5 0,-0.9 0,-1.3 -0.2,-1.2 -0.3,-2.5 -0.3,-3.7 0,-1.5 -0.6,-2.5 -1.7,-3 -0.1,0 -0.2,0 -0.4,0 0,0.1 -0.1,0.1 -0.1,0.1 z"
         id="path29" />
      <path
         style="fill:#5f5f61;stroke:none"
         d="m 120,557.69 c -0.3,0.4 -0.2,0.8 0,1.1 0.1,0.1 0.1,0.2 0.1,0.2 -0.1,2.1 1,3.5 3.1,4.2 1.8,0.6 3.7,0.8 5.6,0.4 0.9,-0.1 1.8,-0.5 2.5,-0.8 0.8,-0.3 1.1,-0.8 1.1,-1.6 -0.1,-1.2 -0.6,-1.6 -1.8,-1.1 -1.8,0.9 -3.7,1.1 -5.8,0.7 -0.9,-0.2 -1.6,-0.6 -2,-1.3 2.6,-0.2 5.2,-0.6 7.8,-1.4 0.4,-0.4 0.6,-0.8 0.5,-1.3 0,-0.5 -0.1,-0.9 -0.4,-1.3 -1.3,-2.2 -3.2,-3 -5.9,-2.5 -1.3,0.1 -2.3,0.8 -3.1,2.1 -0.4,0.6 -0.7,1.4 -1.1,2.1 -0.3,0.1 -0.5,0.3 -0.6,0.5 z m 8.5,-2.2 c 0.1,0 0.1,0.1 0.1,0.2 0.1,0.2 0.2,0.4 0.3,0.5 -1.9,0.8 -3.9,1 -5.8,0.8 0.1,-0.1 0.1,-0.2 0.1,-0.3 0.3,-0.5 0.6,-1 0.9,-1.5 0.2,0 0.3,-0.1 0.4,-0.2 1.4,-0.3 2.8,-0.2 4,0.5 z"
         id="path30" />
      <path
         style="fill:#5f5f61;stroke:none"
         d="m 101.3,581.79 c -0.1,-0.3 -0.4,-0.7 -0.6,-1.1 -0.1,0 -0.1,0 -0.1,0 -0.1,0.1 -0.2,0.1 -0.3,0.1 -0.1,0.1 -0.1,0.2 -0.1,0.2 0,0.5 0,0.8 0.2,1.2 -0.1,0.1 -0.1,0.2 0,0.3 0.1,1.5 0,3 -0.4,4.3 -0.3,0.3 -0.5,0.7 -0.7,1.2 -0.4,0.1 -0.7,0.4 -0.9,0.8 -1.7,0.6 -3.1,1.4 -4.3,2.4 0,0.2 0.1,0.2 0.2,0.2 1.3,0.1 2.7,0.2 4,0.5 0.6,0.5 1.2,0.9 2,1.3 1,1.4 1.7,3.1 2,4.8 0.1,0.1 0.2,0.1 0.3,0.2 0,-0.1 0.1,-0.1 0.2,-0.1 0,-0.1 0,-0.1 0.1,-0.1 0,-0.1 0,-0.2 0.1,-0.2 0.1,-0.4 0.2,-0.8 0.3,-1.1 0,-0.1 0,-0.2 0.1,-0.2 0.4,-1.2 0.5,-2.5 0,-3.8 0.1,0 0.1,-0.1 0.1,-0.2 0.1,-0.2 0.1,-0.5 0.2,-0.7 0.4,-0.7 0.8,-1.3 1.2,-1.9 0.1,0 0.1,-0.1 0.1,-0.2 0,-0.1 0,-0.2 0.1,-0.4 1.4,-0.9 2.9,-1.6 4.6,-2.1 0,-0.1 0,-0.1 0.1,-0.2 0.1,-0.2 0.1,-0.4 0,-0.5 -0.2,-0.3 -0.4,-0.4 -0.7,-0.2 -1.8,0.7 -3.6,1.3 -5.3,1.5 -1.2,-1.7 -2,-3.6 -2.4,-5.8 0,0 -0.1,-0.1 -0.1,-0.2 z m 0.1,5.7 c 0.1,-0.1 0.1,-0.2 0.1,-0.2 0,-0.2 0,-0.4 0.2,-0.6 h 0.1 c 0,0.2 0,0.3 0,0.4 0.8,1.2 1.7,1.8 2.6,1.9 -0.3,0.3 -0.5,0.6 -0.6,0.9 -0.5,0.5 -0.9,1 -1.2,1.5 -0.1,0.1 -0.1,0.2 -0.1,0.4 -0.2,0.4 -0.4,0.8 -0.4,1.3 -1.1,-1.3 -2.3,-2.2 -3.8,-2.7 0.3,-0.1 0.5,-0.2 0.7,-0.5 0.1,0 0.2,0 0.4,-0.1 0.7,-0.7 1.4,-1.5 2,-2.3 z"
         id="path31" />
      <path
         style="fill:#ffffff;stroke:none"
         d="m 101.5,587.29 c 0,0 0,0.1 -0.1,0.2 -0.6,0.8 -1.3,1.6 -2,2.3 -0.2,0.1 -0.3,0.1 -0.4,0.1 -0.2,0.3 -0.4,0.4 -0.7,0.5 1.5,0.5 2.7,1.4 3.8,2.7 0,-0.5 0.2,-0.9 0.4,-1.3 0,-0.2 0,-0.3 0.1,-0.4 0.3,-0.5 0.7,-1 1.2,-1.5 0.1,-0.3 0.3,-0.6 0.6,-0.9 -0.9,-0.1 -1.8,-0.7 -2.6,-1.9 0,-0.1 0,-0.2 0,-0.4 h -0.1 c -0.2,0.2 -0.2,0.4 -0.2,0.6 z"
         id="path32" />
      <path
         style="fill:#5f5f61;stroke:none"
         d="m 134.5,542.99 c 0,0 -0.1,0 -0.2,0 0,0.1 -0.1,0.2 -0.2,0.4 -0.1,0.1 -0.1,0.1 -0.1,0.1 0,0.2 0,0.5 0,0.6 0,0.4 0.1,0.8 0,1.1 0.3,0.3 0.5,0.6 0.7,0.9 0.2,0.5 0.3,0.9 0.4,1.4 0.1,1.8 0.7,3.5 1.7,5 0.4,1.6 0.9,3.2 1.4,4.7 0.1,0.4 0.3,0.8 0.4,1.2 0.4,1.3 1.2,1.9 2.4,1.7 0.3,-0.1 0.3,-0.1 0.3,-0.4 -0.2,-2 -0.8,-4 -1.8,-6 0,-0.2 0,-0.4 0,-0.5 -0.3,-1.5 -0.9,-2.7 -1.9,-4 0,-0.2 0,-0.4 0,-0.5 0,-1.8 -0.8,-3.3 -2,-4.5 0,-0.2 0,-0.2 0,-0.4 0,-0.2 0,-0.3 0,-0.3 -0.1,-0.1 -0.1,-0.2 -0.2,-0.2 -0.2,-0.2 -0.4,-0.3 -0.6,-0.3 -0.1,0 -0.2,0 -0.3,0 z"
         id="path33" />
      <path
         style="fill:#5f5f61;stroke:none"
         d="m 131.4,584.69 c 0,-0.1 0,-0.2 -0.1,-0.4 -0.1,-0.2 -0.4,-0.5 -0.6,-0.7 -0.1,0 -0.2,-0.1 -0.3,-0.1 -0.4,-0.1 -0.9,-0.1 -1.3,-0.2 v 0.1 c -1.1,-0.1 -2,0.1 -2.8,0.6 1.3,0.1 2.5,0.2 3.9,0.2 0,0.3 0.1,0.4 0.3,0.5 0.1,0.1 0.1,0.2 0.2,0.3 0,0 0,0 0,0.1 0,0.2 0,0.5 0,0.7 0,0.1 0,0.2 0,0.2 -0.4,0.4 -0.6,0.8 -0.9,1.2 -0.2,0.4 -0.5,0.7 -0.7,1.1 0,0 0,0.1 0,0.2 0,0.2 0,0.4 0.1,0.5 0,0.1 0,0.2 0,0.2 0.3,0.3 0.6,0.6 0.9,1 0.3,0.3 0.6,0.7 0.8,1.1 0,0 0,0.1 0,0.2 0,0.2 0,0.5 0,0.7 0,0.1 0,0.2 0,0.2 0.4,0.6 1,1 1.7,1.3 3.7,1.2 7.7,2.1 11.8,2.6 0.2,0.1 0.3,0.2 0.4,0.3 1.5,1.4 2.8,2.9 4,4.5 0.2,0.5 0.4,1 0.7,1.4 0.4,0.8 0.6,1.5 0.6,2.3 -0.4,0.6 -0.8,1.2 -1.3,1.8 -0.3,0.3 -0.6,0.7 -1,0.9 -2.4,1.5 -4.6,3.1 -6.8,4.8 -0.2,0.1 -0.2,0.2 -0.3,0.3 -3.7,2.8 -6.9,6.1 -9.6,9.9 0,0 0,0.1 0,0.2 0,0 0,0.1 0,0.1 -0.1,0.1 -0.1,0.2 -0.2,0.2 -0.1,0.1 -0.1,0.2 -0.1,0.2 -0.1,0.6 -0.2,1.1 -0.1,1.7 0,0.5 0,0.9 0,1.3 0,0.1 0.1,0.2 0.1,0.2 0.1,0.1 0.1,0.1 0.1,0.2 0,0 0,0.1 0,0.2 0,0 0,0.1 0,0.2 0,0 0,0.1 0,0.2 0.3,0.4 0.4,0.8 0.7,1.2 0.2,0.2 0.2,0.4 0.4,0.6 0,0.5 0.1,0.9 0.3,1.4 0.3,0.5 0.7,1 1,1.4 0,0.1 0,0.2 0,0.2 0,0.2 0,0.3 0,0.4 0.1,0.1 0.1,0.1 0.1,0.2 1.2,1.5 2.8,2.6 4.7,3.3 4.2,1.3 8.5,1.7 13,0.9 0,0.1 0,0.1 0.1,0.1 2,3.4 4.9,5.5 8.9,6.4 0.6,0.4 1.3,0.7 2.2,0.7 4.5,0 9.1,0.2 13.6,0.4 0.6,0.1 1.3,0.1 1.9,0.2 1.4,0.1 2.3,0.8 2.9,2 0.6,1.6 1.5,2.9 2.8,4.1 1.3,1.2 1.5,2.5 0.5,3.9 -0.1,0.1 -0.2,0.2 -0.2,0.4 -1.9,3 -4,5.9 -6.5,8.4 -1.4,1 -2.6,2.1 -3.5,3.4 0,0.3 0,0.6 -0.1,0.9 -0.1,0.7 -0.1,1.5 0,2.3 0.6,0.8 1.4,1.6 2.2,2.2 0.5,0.3 1.1,0.5 1.7,0.5 2.9,0.2 5.5,1.1 7.8,2.9 0.2,0.2 0.5,0.3 0.8,0.5 2.4,1.3 4.9,2.6 7.4,3.9 0.3,0.1 0.6,0.2 0.8,0.3 1.9,0.8 3.9,1.3 6,1.4 0.2,0.1 0.5,0.1 0.7,0.1 5.9,-0.2 11.8,0.2 17.5,1.1 1.9,0.3 3.1,1.2 3.9,2.9 0.1,0 0.2,0.1 0.3,0.1 0.1,0 0.2,0 0.3,-0.1 v 0 c 0.6,-1 0.4,-1.9 -0.4,-2.8 -0.2,-0.1 -0.4,-0.3 -0.6,-0.3 -3.6,-1.6 -7.5,-2.4 -11.7,-2.2 -4.2,0.1 -8.3,-0.3 -12.4,-1.2 -2.8,-0.7 -5.4,-1.7 -8,-3.2 -0.3,-0.1 -0.6,-0.3 -0.9,-0.4 -0.4,-0.2 -0.7,-0.3 -1.1,-0.6 -0.9,-0.6 -1.8,-1.2 -2.7,-1.8 -1,-0.8 -2.2,-1.2 -3.6,-1.4 -0.6,-0.1 -1.2,-0.1 -1.8,-0.2 -2.1,0 -3.8,-0.9 -5,-2.7 0.2,-0.4 0.4,-0.8 0.6,-1.2 0.9,-1.5 2,-2.8 3.5,-4 0.1,-0.1 0.2,-0.2 0.4,-0.3 2.4,-2.6 4.5,-5.4 6.2,-8.5 0.2,-0.1 0.3,-0.2 0.5,-0.3 0.2,-0.5 0.3,-0.9 0.3,-1.4 0,-1.8 -0.8,-3.4 -2.3,-4.6 -0.2,-0.2 -0.3,-0.3 -0.4,-0.4 0,-0.1 0,-0.2 0,-0.2 0,-0.1 0,-0.1 -0.1,-0.2 0,0 -0.1,-0.1 -0.1,-0.2 -0.1,-0.1 -0.2,-0.2 -0.3,-0.4 0,-0.1 -0.1,-0.3 -0.1,-0.5 -0.4,-0.8 -0.8,-1.6 -1.2,-2.5 -0.2,-0.1 -0.4,-0.2 -0.6,-0.3 -1.5,-0.8 -3,-1.3 -4.6,-1.3 -4.7,-0.2 -9.4,-0.4 -14.2,-0.6 -0.4,0 -0.9,0 -1.4,0.1 -0.4,-0.4 -0.8,-0.6 -1.3,-0.7 -3,-0.6 -5.4,-2.1 -7,-4.6 0,0 0,-0.1 -0.1,-0.2 0,-0.2 -0.2,-0.4 -0.4,-0.6 0.2,-0.1 0.3,-0.4 0.3,-0.6 0,-0.2 0,-0.3 -0.1,-0.4 0,-0.3 -0.2,-0.4 -0.4,-0.4 -3.1,0.1 -6.1,0 -9.3,-0.1 -2.8,-0.2 -5.4,-1.1 -7.5,-2.8 0,-0.4 -0.1,-0.7 -0.2,-1 -0.8,-1.2 -1.6,-2.3 -2.5,-3.3 -0.1,-0.2 -0.2,-0.4 -0.3,-0.6 0,0 -0.1,-0.1 -0.1,-0.2 -0.1,-0.5 -0.1,-1 -0.1,-1.5 -0.1,-0.2 -0.1,-0.5 -0.1,-0.7 0.7,-1.7 1.6,-3.2 2.8,-4.4 3,-3.2 6.4,-6 10,-8.4 0.4,-0.1 0.8,-0.2 1,-0.4 0.3,-0.2 0.5,-0.4 0.8,-0.6 0.2,-0.1 0.5,-0.2 0.7,-0.3 1.2,-0.6 2.2,-1.3 3,-2.3 2,-2.3 2.2,-4.8 0.5,-7.4 -1.1,-1.7 -2.5,-3.1 -4.2,-4.3 -0.2,-0.2 -0.3,-0.3 -0.4,-0.4 -0.5,-0.8 -1.2,-1.2 -2,-1.3 -0.9,-0.2 -1.9,-0.3 -2.7,-0.5 -1.2,-0.2 -2.2,-0.4 -3.3,-0.5 -2.3,-0.1 -4.3,-0.8 -6,-1.9 0,-0.1 0,-0.2 0,-0.3 0,-0.3 0,-0.6 0,-1 0,0 0,-0.1 0,-0.2 -0.4,-0.3 -0.7,-0.5 -1.1,-0.7 -0.5,-0.2 -0.8,-0.5 -1,-0.9 0.1,-0.5 0.2,-1 0.6,-1.3 0.4,-0.4 0.6,-0.7 0.7,-1.2 0,-0.5 0,-1 0,-1.5 z"
         id="path34" />
      <path
         style="fill:#5f5f61;stroke:none"
         d="m 218.8,635.19 c 0,0.3 -0.1,0.5 -0.3,0.8 0,0.2 0,0.4 -0.1,0.5 -0.3,1.3 -0.4,2.6 -0.2,4 0.1,0 0.1,0.1 0.2,0.2 0,0.1 0.1,0.2 0.2,0.3 0.3,0.2 0.6,0.2 0.8,0 0.1,0 0.1,0 0.1,-0.1 0.4,-2.8 1.1,-5.5 2.1,-8.1 0,0 -0.1,-0.1 -0.2,-0.1 -1.2,0.3 -2,1.1 -2.6,2.3 0,0.1 0,0.2 0,0.2 z"
         id="path35" />
      <path
         style="fill:#5f5f61;stroke:none"
         d="m 230,631.29 c -0.1,0.1 -0.1,0.1 -0.2,0.2 -2.4,2 -4.2,4.5 -5.3,7.5 0,0 0,0.1 0,0.2 0,0 0,0.1 0,0.1 -0.1,0.2 -0.1,0.3 -0.2,0.4 0,0.3 -0.2,0.6 -0.4,0.8 0,0.1 0,0.2 0,0.3 0,0.2 0,0.3 0,0.4 -0.5,1.4 -0.8,2.9 -0.8,4.5 0,0.6 0.1,1.1 0.3,1.6 0.6,1.5 1.3,1.8 2.3,0.8 -0.1,-0.6 -0.2,-1.2 -0.2,-1.9 -0.2,-2.8 0.2,-5.6 1.1,-8.2 0.1,-0.2 0.2,-0.3 0.3,-0.4 1.1,-2.1 2.5,-4 4.2,-5.6 0,-0.1 0,-0.2 -0.1,-0.2 -0.1,-0.3 -0.3,-0.5 -0.7,-0.5 v 0 c -0.1,0 -0.2,0 -0.3,0 z"
         id="path36" />
    </g>
  </g>
</svg>
