<?xml version="1.0" encoding="UTF-8" standalone="no"?>
<!-- Created with sK1/UniConvertor (http://sk1project.org/) -->

<svg
   width="227.5pt"
   height="120.85464pt"
   viewBox="0 0 227.5 120.85464"
   fill-rule="evenodd"
   version="1.1"
   id="svg27"
   sodipodi:docname="slice.svg"
   inkscape:version="1.3 (0e150ed6c4, 2023-07-21)"
   xmlns:inkscape="http://www.inkscape.org/namespaces/inkscape"
   xmlns:sodipodi="http://sodipodi.sourceforge.net/DTD/sodipodi-0.dtd"
   xmlns="http://www.w3.org/2000/svg"
   xmlns:svg="http://www.w3.org/2000/svg">
  <defs
     id="defs27" />
  <sodipodi:namedview
     id="namedview27"
     pagecolor="#ffffff"
     bordercolor="#000000"
     borderopacity="0.25"
     inkscape:showpageshadow="2"
     inkscape:pageopacity="0.0"
     inkscape:pagecheckerboard="0"
     inkscape:deskcolor="#d1d1d1"
     inkscape:document-units="pt"
     inkscape:zoom="0.74386201"
     inkscape:cx="-12.771186"
     inkscape:cy="123.00668"
     inkscape:window-width="1920"
     inkscape:window-height="1027"
     inkscape:window-x="1912"
     inkscape:window-y="-8"
     inkscape:window-maximized="1"
     inkscape:current-layer="g26" />
  <g
     id="g27"
     transform="translate(-307.69273,-339.92083)">
    <g
       id="g26"
       transform="translate(-13.10727,-277.26917)">
      <path
         style="fill:#5f5f61;stroke:none"
         d="m 508,658.79 h -0.1 c -2.4,-0.7 -4.8,-0.8 -7.3,-0.6 -0.4,0.1 -0.9,0.2 -1.3,0.2 -0.4,0.1 -0.8,0.1 -1.2,0.1 -2.4,0.1 -4.8,0.4 -7.2,1 -0.5,0.1 -1,0.2 -1.4,0.4 -1.3,0.3 -2.4,0.7 -3.5,1.3 -0.5,0.2 -0.8,0.5 -1.2,0.8 -0.8,-0.2 -1.6,-0.3 -2.4,-0.3 -0.1,0 -0.2,0 -0.3,0.1 -0.2,0 -0.3,0.1 -0.5,0.2 -0.2,0.1 -0.4,0.2 -0.6,0.4 0,0 0,0 -0.1,0 -0.1,0.2 -0.3,0.3 -0.5,0.5 -0.3,0.2 -0.6,0.4 -0.9,0.6 -0.9,0.6 -1.7,1.3 -2.5,2 -0.1,-0.1 -0.2,-0.1 -0.3,-0.1 -1.6,0.2 -3,0.8 -4.3,1.6 h -0.1 c 0,0.1 -0.1,0.1 -0.2,0.1 -0.2,0.1 -0.3,0.2 -0.4,0.3 0,0.1 0,0.1 0,0.1 -0.3,0.1 -0.5,0.3 -0.7,0.5 -0.5,0.4 -0.9,0.8 -1.1,1.3 -1.3,-0.5 -2.5,-0.9 -3.7,-1.3 0,-0.1 0,-0.1 0,-0.1 -0.2,0 -0.4,-0.1 -0.7,-0.2 0,0 0,0.1 -0.1,0.1 v 0 c -0.2,0.1 -0.3,0.2 -0.3,0.4 0,0 0,0.1 0,0.1 -0.1,0.1 -0.2,0.2 -0.3,0.4 -0.2,-0.1 -0.4,-0.1 -0.6,-0.2 -0.2,-0.1 -0.5,-0.2 -0.7,-0.3 -1.2,-0.5 -2.3,-0.9 -3.5,-1.2 -0.5,-0.8 -1,-1.5 -1.7,-2.1 -0.9,-0.8 -1.8,-1.5 -2.8,-2.2 -1.7,-1.1 -3.6,-1.7 -5.5,-1.7 -0.2,-0.1 -0.3,-0.2 -0.5,-0.2 -0.5,-0.2 -1,-0.4 -1.4,-0.6 -1.2,-0.6 -2.3,-1 -3.6,-1.2 -1.4,-0.2 -2.9,-0.5 -4.4,-0.7 -1.2,-0.3 -2.4,-0.5 -3.5,-0.8 -2.4,-0.6 -4.7,-1.1 -7.1,-1.3 -0.5,-0.1 -1,-0.2 -1.5,-0.2 -0.9,-0.1 -1.8,-0.3 -2.6,-0.4 1.2,-0.4 2.4,-0.9 3.7,-1.3 1.2,-0.5 2.5,-1 3.8,-1.4 0.7,-0.3 1,-0.7 1,-1.3 0,0 -0.1,-0.1 -0.1,-0.1 -0.1,-0.1 -0.2,-0.1 -0.2,-0.1 -0.2,-0.3 -0.4,-0.5 -0.6,-0.5 -0.4,-0.1 -0.8,-0.2 -1.1,-0.4 -1.3,-0.7 -2.7,-1 -4.3,-0.7 -0.4,-0.1 -0.8,-0.2 -1.2,-0.3 -2,-0.4 -4,-0.8 -6,-1.2 0.9,-0.5 1.8,-0.7 2.7,-0.7 1.2,0 2.3,-0.3 3.3,-0.9 0.1,0 0.3,-0.1 0.4,-0.1 2.4,0.1 4.7,-0.3 6.9,-1.2 0.1,-0.1 0.3,-0.2 0.4,-0.3 0.1,-0.1 0.1,-0.2 0.2,-0.3 0.1,-0.1 0.3,-0.3 0.3,-0.6 0.1,-0.1 0.1,-0.3 -0.1,-0.4 -0.7,-0.6 -1.6,-1 -2.6,-1.2 -2.3,-0.5 -4.7,-0.9 -7.1,-1.3 -2.1,-0.2 -4.1,-0.4 -6.1,-0.7 0,-0.2 0,-0.4 -0.1,-0.6 0,-0.5 -0.1,-1 -0.3,-1.5 0.1,-0.7 0.1,-1.5 0.1,-2.2 0,-1.5 -0.1,-2.9 -0.4,-4.4 -0.1,-0.7 -0.2,-1.4 -0.5,-2.1 -0.3,-2.1 -1.3,-3.8 -2.8,-5.3 -0.9,-0.7 -1.7,-1.4 -2.6,-2 -0.1,0 -0.1,-0.1 -0.2,-0.1 -0.8,-0.5 -1.6,-1.1 -2.4,-1.6 -1,-0.7 -2,-1.2 -3,-1.4 -0.9,-0.2 -1.9,-0.5 -2.8,-0.7 -1,-0.4 -2,-0.6 -3,-0.8 -1.3,-0.2 -2.6,-0.4 -3.9,-0.5 -1.3,-0.2 -2.6,-0.2 -3.9,-0.2 -0.8,0 -1.7,0 -2.5,0.2 -0.5,0 -0.9,0.1 -1.3,0.2 -0.2,0 -0.4,0.1 -0.7,0.1 -2.3,0.5 -4.3,1.6 -6,3.2 -1.4,0.8 -2.7,1.8 -3.7,2.9 -0.7,0.8 -1.2,1.6 -1.7,2.4 -0.5,0.8 -1,1.7 -1.4,2.5 -0.5,0.9 -0.9,1.7 -1.3,2.6 -0.5,1.1 -0.8,2.3 -0.9,3.5 -0.1,1.2 -0.2,2.4 -0.3,3.6 -0.2,1.1 -0.3,2.3 -0.5,3.4 0,0.4 -0.1,0.7 -0.1,1.1 -0.1,0.1 -0.1,0.2 -0.1,0.4 -0.4,1.2 -0.9,2.4 -1.4,3.7 -0.2,0.7 -0.5,1.4 -0.7,2 l -1.3,4.2 c -0.8,0.6 -1.5,1.1 -2.2,1.6 -1,0.8 -2,1.6 -3,2.5 0,0.1 0,0.1 0,0.1 -0.2,0 -0.3,0.1 -0.4,0.2 -0.1,0.1 -0.2,0.2 -0.4,0.3 -1.9,1.6 -3.7,3.2 -5.4,5.1 -0.5,0.4 -0.8,1 -1.2,1.5 0,0 0,0 -0.1,0.1 -0.5,0.6 -1,1.3 -1.5,2 -0.4,0.8 -0.8,1.7 -1,2.6 -0.3,1 -0.4,2 -0.4,3.1 -0.1,0.5 0.1,0.9 0.4,1.3 0.5,0.7 1.2,1.3 1.9,1.8 0.7,0.5 1.4,1.1 2.2,1.7 -0.2,0.2 -0.4,0.5 -0.6,0.8 -0.5,0.8 -1.1,1.6 -1.7,2.4 -0.5,0.7 -1,1.4 -1.5,2.1 -0.9,1 -1.9,1.9 -3,2.9 -0.3,0.3 -0.6,0.6 -1,0.9 -1,0 -2.1,0.1 -3.1,0.2 -1.6,0.1 -3.2,0.2 -4.8,0.2 -6.5,0.3 -13,1.2 -19.2,2.9 -0.1,0 -0.2,0 -0.3,0 -0.1,0.1 -0.2,0.1 -0.3,0.1 0,0 0,0 -0.1,0 v 0.1 c -0.4,0.1 -0.9,0.2 -1.3,0.4 -0.1,0 -0.1,0 -0.1,0.1 -0.1,0 -0.1,0.1 -0.1,0.2 0,0 0,0.1 0,0.2 0.6,0.4 1.3,0.6 2,0.6 0.1,0.1 0.1,0.1 0.2,0.1 3.5,1.3 7,2.4 10.6,3.6 2.6,0.9 5.2,1.7 7.8,2.6 0,0 0,0 0,0.1 0.2,1.2 1,1.9 2.4,2.1 1.5,0.2 3,0.4 4.5,0.3 0.5,0 1.1,0 1.7,0.1 1.1,0.3 2.2,0.6 3.3,1 1,0.4 2,0.7 3.1,1.1 l -0.3,1.1 c -0.1,0 -0.1,0.1 -0.1,0.1 -0.1,1.5 0.5,2.4 1.9,2.9 0.4,0.1 0.7,0.1 1,0.2 0.2,0.3 0.5,0.7 0.7,1.1 0.6,0.7 1.4,1.4 2.4,2 0.5,0.3 1.1,0.7 1.7,1 -1,1.4 -1.9,3 -2.6,4.7 -0.1,0.2 -0.2,0.4 -0.3,0.6 -0.2,0.4 -0.4,0.8 -0.6,1.3 -0.4,0.7 -0.8,1.5 -1.1,2.2 -0.1,0.1 -0.1,0.1 -0.1,0.2 -0.5,0.6 -0.8,1.3 -0.9,2 -0.5,0.8 -0.9,1.7 -1.1,2.5 -0.3,0.4 -0.7,0.7 -1.1,0.9 -0.3,0 -0.7,-0.1 -1.1,-0.1 -1.7,-0.1 -3.4,-0.2 -5,-0.4 -2.5,-0.2 -5,-0.3 -7.5,-0.2 -0.8,0 -1.2,0.4 -1.3,1.3 0,0.3 0.1,0.7 0.3,1 0.1,0.1 0.2,0.2 0.2,0.2 0.1,0.3 0.4,0.5 0.8,0.6 0.8,0 1.7,0.1 2.5,0.2 2.5,0.1 5,0 7.4,-0.3 0.7,0 1.3,0 1.9,0 0,0.1 0.1,0.1 0.1,0.1 0,0.1 0,0.2 -0.1,0.3 v 0.1 c -0.7,0.3 -1.4,0.6 -2.2,1 -2.2,1.1 -4.5,2.1 -6.7,3.2 -0.2,0 -0.4,0.1 -0.6,0.3 -0.7,0.5 -0.7,1.1 0,1.7 0,0 0,0 0.1,0.1 0,0.1 0.1,0.2 0.2,0.3 0.8,0.5 1.8,0.5 2.8,0 0.2,-0.1 0.5,-0.2 0.8,-0.4 1.9,-1 3.8,-2 5.8,-3 1.5,-0.8 3.1,-1.7 4.5,-2.7 0.1,0 0.2,-0.1 0.3,-0.2 0.9,-0.3 1.7,-0.4 2.6,-0.6 0.5,-0.1 1,-0.1 1.4,0 1.6,-0.2 3.1,-0.3 4.6,-0.5 1.1,-0.1 2.3,-0.3 3.4,-0.7 0.3,-0.1 0.5,-0.4 0.6,-0.8 0,-0.7 -0.2,-1.1 -0.6,-1.3 -0.3,-0.2 -0.7,-0.2 -1.2,-0.2 -1.9,0.4 -3.8,0.6 -5.8,0.8 -0.9,0 -1.7,0.1 -2.5,0.2 h -0.1 c -0.2,-0.1 -0.4,-0.3 -0.7,-0.5 0.1,-0.1 0.1,-0.2 0,-0.3 0,-0.1 0,-0.2 0.1,-0.3 0.4,-0.9 0.9,-1.9 1.4,-2.8 0.6,-1.3 1.2,-2.6 1.8,-3.9 0.3,-0.4 0.5,-0.8 0.7,-1.1 0.7,-1.1 1.5,-2.1 2.4,-3 0.2,-0.2 0.3,-0.4 0.4,-0.5 0.3,-0.2 0.5,-0.4 0.7,-0.5 0,-0.1 0.1,-0.1 0.1,-0.2 0.9,0.2 1.8,0.2 2.7,0.2 0.7,-0.1 1.4,-0.2 2.1,-0.4 1.8,-0.3 3.4,-0.9 4.8,-1.7 0.7,0.1 1.4,0.3 2.1,0.4 1.3,0.3 2.6,0.5 3.8,0.7 2.7,0.3 5.3,0.3 7.8,-0.1 1,1.7 2.7,2.8 4.9,3.2 0.1,0 0.2,0 0.2,0 -0.1,0.9 -0.2,1.8 -0.4,2.6 -0.1,0.4 -0.2,0.8 -0.3,1.2 -0.2,1.4 -0.4,2.7 -0.6,4.1 -0.1,0.3 -0.2,0.6 -0.2,0.9 -0.1,0.2 -0.1,0.3 0,0.4 -0.1,0.2 -0.2,0.5 -0.1,0.7 -0.3,0.2 -0.5,0.3 -0.9,0.3 -0.1,0 -0.3,0 -0.4,0 -0.6,-0.1 -1.2,-0.3 -1.8,-0.5 -2.1,-0.8 -4.2,-1.4 -6.4,-1.8 -0.6,0.1 -1,0.4 -1.3,1 -0.5,0.9 -0.2,1.6 0.9,2 0.1,0 0.1,0 0.2,0 0.1,0.1 0.2,0.1 0.4,0.1 0.7,0.2 1.4,0.3 2.1,0.4 0.4,0 0.8,0.1 1.2,0.1 2.6,0.7 5,1.7 7.4,3 0,0.1 0.1,0.1 0.1,0.1 0.3,0.3 0.6,0.7 0.9,1 0.4,1 1.1,1.8 2,2.6 0.3,0.2 0.5,0.5 0.8,0.8 1.5,1.7 3.2,3.2 5,4.5 0.8,0.4 1.5,0.5 2.3,0.1 1.1,-0.6 1.2,-1.3 0.3,-2.2 -0.4,-0.4 -0.8,-0.8 -1.2,-1.2 -1.4,-1.3 -2.8,-2.7 -4.2,-4.2 2.3,0.6 4.5,1.2 6.6,2 1.5,0.5 2.8,0.5 4.1,-0.2 0.8,-0.4 1.2,-1 1.1,-1.8 0,-0.3 -0.1,-0.4 -0.3,-0.5 -1.1,-0.6 -2.3,-0.9 -3.6,-1.1 -2.3,-0.3 -4.7,-0.8 -6.9,-1.6 -1.8,-0.7 -3.5,-1.2 -5.2,-1.8 -0.1,-0.2 -0.2,-0.4 -0.4,-0.6 0,-0.1 0,-0.1 0,-0.1 0,-0.1 0,-0.2 0.1,-0.3 0.3,-1.4 0.6,-2.7 0.9,-4.1 0.2,-0.2 0.3,-0.4 0.3,-0.8 0.4,-1.7 0.8,-3.5 1.4,-5.1 0.1,-0.2 0.1,-0.3 0.2,-0.4 1.2,-0.5 2.4,-1.1 3.5,-1.7 1.9,-1.2 3.1,-2.7 3.6,-4.5 0.1,0 0.1,0 0.1,0 0.1,0 0.2,0 0.4,0 0.3,0.2 0.8,0.3 1.3,0.5 0.7,0.1 1.4,0.1 2.1,0 0.9,-0.2 1.6,-0.5 2.2,-1 1.5,-1.3 2.7,-2.7 3.7,-4.3 1.1,-1.9 1.6,-4 1.7,-6.2 -0.2,-1.2 -0.2,-2.4 -0.2,-3.6 0.1,-0.6 0.2,-1.2 0.4,-1.8 0.3,-1.1 0.3,-2.4 0.1,-3.7 -0.2,-1.1 -0.4,-2.2 -0.6,-3.3 -0.1,-0.7 -0.4,-1.5 -0.8,-2.1 0.3,-0.7 0.4,-1.4 0.5,-2.1 0.1,0 0.1,0 0.1,0 1.5,0.3 3,0.5 4.5,0.8 2.3,0.3 4.6,0.4 7,0.2 0.8,-0.1 1.6,-0.4 2.3,-1 1.1,-0.8 1.5,-2 1.2,-3.4 -0.1,-0.7 -0.3,-1.3 -0.7,-1.8 0.9,0.3 1.7,0.5 2.6,0.8 1.7,0.7 3.5,1.2 5.3,1.6 2.4,0.6 4.8,0.9 7.3,0.8 0.7,0 1.4,-0.3 2,-0.8 0.7,-0.7 1.2,-1.4 1.5,-2.2 0.4,0.1 0.7,0.1 1,0.2 0.1,0.1 0.2,0.2 0.3,0.3 0.4,0.3 0.8,0.5 1.3,0.7 2.1,0.7 4.2,1.4 6.4,2 -0.2,0.4 -0.3,0.8 -0.4,1.2 -0.1,0 -0.1,0.1 -0.1,0.2 -0.1,0.4 -0.3,0.9 -0.6,1.3 0,0 0,0 0,0.1 v 0 c 0,0.1 0,0.1 0,0.1 -0.1,0.1 -0.2,0.2 -0.3,0.3 0,0.2 0,0.3 -0.1,0.5 0,0.3 0,0.6 0,0.9 0.5,0.2 0.9,0.3 1.3,0.5 0.2,0.1 0.3,0.1 0.5,0.1 1.1,0.4 2.2,0.8 3.4,1.2 0,0 0,0 0,0 v 0 c 0.1,1 0.1,2 -0.2,3 0,0.1 0,0.3 0,0.4 0.4,1.2 0.5,2.5 0.4,3.8 0,0.7 0,1.4 0,2.1 0.1,0.3 0.1,0.6 0.1,0.9 0,0.3 0.1,0.5 0.1,0.8 0.5,2 1.1,4 1.7,6 0.7,0.5 1.2,1 1.7,1.6 0.6,0.7 1.1,1.4 1.7,1.9 0.8,0.3 1.7,0.7 2.5,1.3 1.9,1.4 4,2.8 6.1,4.2 0.1,0 0.2,0.1 0.3,0.1 1.1,0.2 2.2,0.6 3.2,1.2 2,0.4 4,0.7 6.1,0.9 v 0 c 0,-0.2 0.1,-0.4 0.3,-0.6 0.6,0.4 1.2,0.4 1.7,-0.4 0.3,-0.5 0.6,-1.1 1,-1.6 0.4,-0.6 0.9,-1.1 1.5,-1.4 1.2,-0.5 2,-1.4 2.5,-2.5 0.2,-0.4 0.4,-0.7 0.8,-1 1.1,-1 2.3,-1.9 3.5,-2.7 0.3,-0.3 0.6,-0.5 0.8,-0.8 0.5,-0.7 1,-1.5 1.5,-2.3 0.1,-0.1 0.2,-0.2 0.3,-0.2 0.1,-0.2 0.3,-0.2 0.5,-0.4 0.8,-0.4 1.4,-1 1.8,-1.8 0,0 0.1,-0.2 0.1,-0.2 0.1,-0.1 0.2,-0.2 0.1,-0.3 0.7,-0.5 1.3,-1 1.8,-1.5 0.1,0 0.2,-0.2 0.3,-0.2 0.1,0.1 0.2,0.2 0.4,0.2 0.6,0.3 1.2,0.7 1.8,1.1 0.9,0.9 2,1.5 3.3,1.8 0,0.1 0,0.2 0.1,0.3 0,0.1 0.1,0.3 0.1,0.4 0.2,0.1 0.3,0.2 0.4,0.2 1.6,0.9 3,2 4.2,3.4 0.4,0.4 0.7,0.8 1.1,1.1 0.8,0.7 1.6,1.2 2.7,1.3 0.1,0.4 0.3,0.7 0.5,0.9 0.6,0.8 1.3,1.5 2.1,2.2 0,0.2 0,0.3 0.2,0.5 0.3,0.5 0.9,0.9 1.6,1.2 0.2,0.1 0.3,0.1 0.5,0.2 0.8,0.7 1.8,1.2 2.9,1.6 0.2,-0.1 0.3,-0.2 0.3,-0.3 0,0.1 0,0.1 0,0.2 0.2,0 0.4,0 0.7,0.1 0.1,-0.1 0.2,-0.2 0.4,-0.2 0.6,-0.2 1.1,-0.4 1.6,-0.5 0,0 0,0 0,-0.1 0.2,-0.3 0.5,-0.4 0.7,-0.5 1.3,-0.6 2.6,-1.1 3.9,-1.7 2,-1.2 3.9,-2.7 5.7,-4.2 1.1,-1 2.4,-2 3.6,-2.8 0.8,-1.1 1.6,-2.3 2.4,-3.5 0,0 0,-0.1 0,-0.2 -0.2,-1.6 -0.2,-3.2 -0.1,-4.8 -0.1,-0.1 -0.1,-0.2 -0.2,-0.4 -0.2,-1.3 -0.2,-2.5 0.2,-3.8 0.1,-0.5 0.2,-1 0.3,-1.5 0,-0.1 0,-0.2 0,-0.2 0,-0.4 0,-0.8 0,-1.2 -0.2,-1.2 -0.2,-2.4 -0.4,-3.7 -0.1,-0.9 -0.2,-1.8 -0.3,-2.8 -0.2,-0.2 -0.3,-0.6 -0.3,-1 0,-0.6 0,-1.2 0,-1.9 -0.1,-0.4 -0.1,-0.8 -0.1,-1.3 -0.2,-0.2 -0.3,-0.4 -0.4,-0.8 -0.3,-0.8 -0.7,-1.6 -1,-2.4 -0.2,-0.4 -0.4,-0.8 -0.5,-1.2 -1,-1.1 -2.2,-1.9 -3.5,-2.4 -0.8,-0.8 -1.7,-1.5 -2.7,-2.1 -2.2,-1.2 -4.5,-2.1 -6.8,-2.8 -0.3,-0.1 -0.7,-0.2 -1,-0.4 -1,-0.3 -2,-0.8 -3,-1.3 -0.5,-0.3 -1.1,-0.6 -1.7,-0.9 0,0 0,0 -0.1,0 -1.4,-0.5 -2.9,-1 -4.3,-1.6 -2.1,0 -4.1,0 -6.1,0 -0.3,0.1 -0.6,0 -0.8,0 -1.9,-0.3 -3.7,-0.4 -5.6,-0.5 -0.2,0.1 -0.4,0.1 -0.5,0.1 -0.3,0.1 -0.6,0.1 -0.9,0.1 -0.1,0 -0.2,0 -0.3,0 z m -2.9,20.5 c 0,0 0.1,0 0.1,0 0.2,0.1 0.3,0.1 0.4,0.2 0,0 0,0 0,0.1 v 0 c 0.1,-0.1 0.2,-0.1 0.3,-0.2 v 0 0 c 0,0 0,0 0,0 0,0.2 0,0.4 0,0.6 -0.2,1 -0.2,1.9 0.1,2.9 0,0 0,0 0.1,0.1 0,0 0,0 0,0.1 0,0 0,0 0,0.1 0,0.2 0,0.4 -0.1,0.5 0,0.1 0,0.2 0,0.2 0,0.3 0,0.5 0,0.8 0,0 0,0 0.1,0.1 0,0 0,0 0.1,0.1 v 0 c -0.1,0 -0.1,0 -0.1,0.1 0,0 0,0 0,0.1 0,0 0,0.1 0,0.2 0,0 0,0 0.1,0.1 0,0.3 0,0.6 0,0.9 -0.1,0 -0.1,0 -0.1,0.1 0,0 0,0.1 -0.1,0.2 v 0 c 0.1,0.2 0.1,0.3 0.1,0.4 0,0.1 0,0.1 0.1,0 0.1,0 0.1,0 0.1,-0.2 0,-0.1 0.1,-0.2 0.2,-0.2 0,-0.1 0,-0.2 0,-0.2 0,-0.3 0,-0.6 0,-0.8 0.4,0.2 0.9,0.3 1.4,0.2 0.1,0.2 0.2,0.3 0.3,0.5 0.2,0.2 0.3,0.4 0.4,0.5 0.1,0.3 0.3,0.4 0.6,0.4 0.6,0.1 1.3,0.3 1.9,0.5 0.3,0.2 0.6,0.3 0.9,0.5 0.5,0.5 1.1,0.9 1.6,1.1 0.1,0.4 0.3,0.7 0.4,1 0.3,0.4 0.6,0.8 1,1 0.6,0.5 1.4,0.8 2.1,1 v 0.1 c 0.1,0 0.1,0.2 0.2,0.2 0,0 0.1,0.1 0.1,0.2 0.1,0.2 0.2,0.4 0.2,0.5 0.3,0.7 0.7,1 1.4,1 0.1,0 0.1,0.1 0.2,0.1 0.1,0.1 0.2,0.2 0.3,0.2 0.6,0.5 1,1.2 1.2,2 0.1,0.2 0.1,0.3 0.3,0.3 0.6,0.3 1.3,0.5 2,0.5 0.1,0.3 0.4,0.5 0.6,0.7 0.1,0.1 0.3,0.2 0.4,0.5 0.3,0 0.6,0.1 0.9,0.1 0,0.1 0,0.1 0.1,0.1 0,0 0,0.1 0.1,0.1 0,0.5 0.3,0.9 0.8,1.2 0.6,0.4 1.1,0.8 1.7,1.1 v 0.1 c 0,0 0,0.1 0,0.2 0.1,0.1 0.2,0.1 0.2,0.1 0.1,0 0.2,0 0.2,-0.1 0.1,-0.1 0.1,-0.1 0.1,-0.2 0,0 0,-0.1 0.1,-0.2 0.1,0 0.1,-0.2 0.2,-0.3 -0.4,-0.6 -0.9,-0.9 -1.8,-1.1 -0.1,0 -0.2,-0.1 -0.2,-0.2 -0.4,-0.9 -1,-1.5 -2,-1.7 -0.1,-0.1 -0.3,-0.2 -0.3,-0.3 -0.1,-0.1 -0.3,-0.2 -0.5,-0.4 0,0 0,-0.2 -0.1,-0.3 -0.3,-0.4 -0.7,-0.5 -1.4,-0.3 0,-0.1 -0.1,-0.2 -0.2,-0.2 -0.1,0 -0.1,0 -0.2,-0.1 -0.1,-0.4 -0.2,-0.8 -0.4,-1.1 -0.2,-0.6 -0.7,-1 -1.2,-1.3 -0.5,-0.2 -1,-0.6 -1.5,-0.9 0,-0.3 -0.1,-0.5 -0.2,-0.8 -0.3,-0.5 -0.8,-0.8 -1.3,-0.9 -0.8,-0.1 -1.5,-0.5 -2,-1.1 0,-0.1 0,-0.2 -0.1,-0.3 -0.1,-0.9 -0.6,-1.4 -1.5,-1.7 0,0 0,0 0,0 -0.1,-0.1 -0.1,-0.1 -0.1,-0.1 -1.1,-1 -2.4,-1.4 -3.9,-1.5 0,0 0,0 0,-0.1 -0.7,-1 -1.7,-1.6 -2.9,-1.7 v 0.1 h -0.1 c 0,-0.1 0,-0.2 0,-0.2 0,-0.1 0,-0.1 -0.1,-0.1 0,-0.1 0,-0.1 0,-0.1 0,-0.1 0,-0.1 0,-0.2 0,-0.1 0,-0.2 0,-0.3 0,0 0,0 0.1,-0.1 0.2,-0.4 0.2,-0.8 -0.1,-1.2 0,0 0,0 0.1,-0.1 0.1,-1 0.1,-2 -0.2,-3 0.3,0.1 0.6,0.1 0.8,0.1 0.1,0 0.2,0.1 0.2,0.1 0.8,1.3 2,2 3.6,2.4 0,0 0.1,0 0.2,0 0.1,0.1 0.2,0.2 0.2,0.3 0.5,0.6 0.9,1.2 1.5,1.7 1.7,1.7 3.5,3.4 5.3,5 0.7,0.6 1.3,1.2 2,1.8 1.7,1.2 3.4,2.5 5.1,3.8 0.9,0.7 1.9,1.5 2.8,2.3 0.1,0.1 0.1,0.1 0.2,0.2 0.2,0 0.3,0.1 0.4,0.1 0.2,0.6 0.3,1.1 0.5,1.6 -0.1,0.2 -0.1,0.2 -0.1,0.4 0,0.4 -0.1,0.8 -0.2,1.2 -0.2,0.3 -0.2,0.6 -0.2,0.9 0,0.3 0,0.5 0,0.7 0.3,0.8 0.3,1.7 0,2.5 0,0.2 -0.1,0.4 -0.1,0.5 -0.1,0.8 0,1.5 0.5,2 0.3,0.6 0.5,1.1 0.5,1.7 0,0.3 0,0.6 -0.1,0.9 0,0.3 -0.1,0.6 -0.1,0.9 -0.1,-0.3 -0.4,-0.5 -0.9,-0.6 -0.2,-0.1 -0.3,-0.2 -0.5,-0.3 -0.8,-0.6 -1.6,-1.1 -2.6,-1.4 -0.2,-0.1 -0.2,-0.2 -0.3,-0.2 -0.4,-0.5 -0.9,-1.1 -1.3,-1.7 -0.9,-0.6 -1.6,-1.3 -1.9,-2.3 -0.1,-0.1 -0.2,-0.2 -0.4,-0.3 -1,-0.2 -1.8,-0.6 -2.6,-1.2 -0.4,-0.9 -1,-1.6 -1.8,-2.3 -0.4,-0.2 -0.7,-0.5 -1.1,-0.7 -1,-0.4 -1.9,-0.9 -2.8,-1.5 0,0 0,0 0,0 0,0 0,0 0,-0.1 -0.1,-0.1 -0.1,-0.1 -0.1,-0.1 0,-0.1 0,-0.1 0,-0.1 0,-0.1 0,-0.1 -0.1,-0.1 0,-0.1 0,-0.1 0,-0.1 -0.9,-0.9 -2,-1.4 -3.2,-1.5 -0.2,-0.5 -0.5,-0.9 -1,-1.2 -0.1,0 -0.2,-0.1 -0.2,-0.2 -0.3,-0.3 -0.6,-0.5 -1,-0.8 0,-0.1 0,-0.2 0.1,-0.3 -0.1,0 -0.1,0 -0.1,0 -0.1,-0.1 -0.1,-0.1 -0.1,-0.1 0,-0.6 -0.1,-1.1 -0.5,-1.5 v -0.1 c 0,0 0,-0.1 -0.1,-0.2 0,0 -0.1,0 -0.1,-0.1 v 0.1 c -0.1,0 -0.1,0 -0.2,0 0,0.1 0,0.1 -0.1,0.1 0.1,0.1 0.1,0.2 0.1,0.3 -0.1,0.5 0,1 0,1.6 0,0 -0.1,0.1 -0.1,0.1 -0.3,0.3 -0.6,0.5 -0.8,0.9 -0.1,0 -0.2,0.1 -0.2,0.1 -0.7,0.4 -1.2,1 -1.6,1.7 -0.1,0.1 -0.2,0.3 -0.4,0.4 -1.5,1.2 -2.6,2.5 -3.5,4.2 -1.9,1.3 -3.6,2.8 -5.1,4.5 0,0 0,0.1 -0.1,0.2 -0.1,0.3 -0.3,0.7 -0.5,1 -0.1,0.1 -0.1,0.1 -0.2,0.1 -1.9,1.1 -3.3,2.6 -4.3,4.4 -0.1,0.1 -0.1,0.1 -0.1,0.1 -0.1,0.1 -0.1,0.1 -0.1,0.2 -0.3,-0.1 -0.6,-0.1 -0.7,0 0,-0.6 0,-1.2 -0.2,-1.8 0,-0.1 0,-0.2 0.1,-0.3 0,-0.3 -0.1,-0.6 -0.3,-0.8 0,0 0,-0.1 0,-0.1 0,-0.2 0,-0.4 -0.1,-0.5 0.9,0 1.5,-0.5 1.9,-1.6 0,-0.1 0,-0.2 0,-0.2 0,-0.1 0,-0.1 0,-0.1 0.1,-0.1 0.1,-0.1 0.1,-0.1 0.2,-0.2 0.3,-0.4 0.4,-0.5 0,-0.1 0.1,-0.1 0.1,-0.2 0.1,0 0.1,0 0.1,0 1.4,0.3 2.2,-0.3 2.5,-1.7 0.5,-0.2 1.1,-0.6 1.5,-1 0.3,-0.1 0.5,-0.4 0.7,-0.6 0.6,-0.9 1.3,-1.7 2.1,-2.5 0.4,0 0.9,0 1.2,-0.3 0.4,-0.6 0.6,-1.2 0.9,-1.8 0.3,-0.9 0.9,-1.6 1.8,-1.9 0.3,-0.2 0.7,-0.4 1,-0.7 0.7,-0.8 1.4,-1.8 2,-2.7 0.7,0.2 1.2,0 1.7,-0.5 0,-0.1 0,-0.1 0,-0.2 0,-0.1 0,-0.2 0,-0.3 0.1,0 0.1,0 0.1,-0.1 0.1,0 0.1,0 0.1,-0.1 0.1,0.1 0.1,0.1 0.2,0.1 0,0 0.1,0 0.1,-0.1 0.1,-0.1 0.1,-0.1 0.1,-0.2 0.1,0 0.1,-0.1 0.2,-0.2 0,0 0,-0.2 0,-0.2 0.1,0 0.2,0 0.2,0 0.1,0 0.1,0 0.1,0 0.3,0.3 0.6,0.6 0.8,0.9 0.2,0.1 0.3,0.3 0.4,0.5 0.4,0.7 1.2,0.8 2.1,0.4 0.1,0 0.1,0 0.2,0 0.3,0.9 0.9,1.4 1.8,1.5 0.1,0.2 0.1,0.4 0.2,0.5 0.2,0.6 0.7,1.1 1.2,1.6 0.3,0.9 1,1.3 2,1.1 -0.1,0.1 -0.1,0.2 -0.1,0.3 0.1,0.2 0.2,0.4 0.4,0.4 0.6,0.2 1.2,0.4 1.9,0.5 0.1,0 0.2,0.1 0.3,0.1 v 0.1 c 0,0.1 0,0.2 0,0.3 0,0 0,0 0,0 0.2,0.2 0.3,0.2 0.5,0.2 0.1,0 0.3,0 0.4,0 0,0.1 0.1,0.3 0.1,0.4 0,0 0,0.1 0,0.2 0.1,0 0.1,0 0.2,0 0.3,0.2 0.6,0.5 0.8,0.7 0,0.2 0,0.3 0,0.5 0,0 0,0.1 0,0.2 0,0 0,0 0.1,0.1 0.1,0 0.1,0.2 0.1,0.2 v 0 c 0.5,0.9 1.2,1.3 2.1,1.5 0,0 0,0.1 0.1,0.2 0,0.1 0,0.2 0.1,0.3 0.2,1.3 1.1,2 2.5,2 0,0.1 0,0.2 0.1,0.4 0.1,0.1 0.1,0.1 0.1,0.1 0,0.1 0.1,0.2 0.1,0.3 0.1,0.2 0.2,0.3 0.4,0.3 0.6,0.1 1.2,0.4 1.6,1 0.1,0 0.2,0 0.4,0 v -0.1 c 0,0 0,0 0.1,0 0,0 0,0 0,-0.1 0,-0.1 0,-0.1 0,-0.1 0,-0.1 0,-0.1 0,-0.1 0,-0.1 0,-0.1 -0.1,-0.1 0,-0.8 -0.6,-1.2 -1.5,-1.2 -0.1,-0.1 -0.1,-0.1 -0.2,-0.1 v -0.1 c 0,-0.7 -0.5,-1.2 -1.3,-1.2 -0.2,0 -0.2,0 -0.3,-0.1 -0.5,-0.4 -0.9,-0.9 -1.1,-1.5 -0.1,-0.2 -0.2,-0.3 -0.3,-0.4 -0.4,-0.5 -1,-0.8 -1.6,-0.8 0,-0.2 -0.2,-0.4 -0.4,-0.5 -0.3,-0.3 -0.5,-0.7 -0.6,-1.2 -0.1,0 -0.1,0 -0.2,-0.1 -0.4,-0.4 -0.9,-0.8 -1.4,-1.2 v -0.1 c -0.1,0 -0.1,0 -0.1,-0.1 0,0 0,0 0,0 -0.3,-0.5 -0.7,-0.8 -1.2,-0.8 0,-0.1 0,-0.1 -0.1,-0.1 -0.2,-0.1 -0.5,-0.2 -0.7,-0.3 -0.2,-0.2 -0.3,-0.5 -0.2,-0.8 0,-0.2 0,-0.3 -0.2,-0.4 -0.4,-0.1 -0.9,-0.1 -1.4,0 -0.1,-0.1 -0.2,-0.2 -0.2,-0.4 -0.1,-0.1 -0.2,-0.2 -0.2,-0.2 -0.3,-0.5 -0.6,-1 -0.9,-1.5 -0.3,-0.9 -1,-1.3 -1.9,-1.3 0,0 0,-0.1 -0.1,-0.2 -0.3,-0.6 -0.7,-0.9 -1.1,-1 -0.2,0 -0.3,0 -0.4,0.1 -0.2,0 -0.4,0.1 -0.5,0.2 -0.3,0 -0.6,0 -0.9,0 -0.1,-0.2 -0.2,-0.4 -0.3,-0.6 -0.5,-0.6 -1,-1 -1.7,-1.2 0,0.1 -0.1,0.1 -0.2,0.1 0,-0.3 0,-0.6 -0.1,-1 0,0 0,-0.1 -0.1,-0.1 0,0 0,0 0,-0.1 0,-0.2 -0.1,-0.4 -0.2,-0.6 0,0 -0.1,0 -0.1,-0.1 0,0 0,0 0,-0.1 -0.1,-0.1 -0.2,-0.3 -0.2,-0.5 -0.1,0 -0.1,0.1 -0.1,0.1 0.1,0.9 0.2,1.8 0.2,2.6 0,0.1 0,0.2 -0.1,0.2 0.1,0.1 0.1,0.1 0.1,0.2 v 0 c 0,0 0,-0.1 -0.1,-0.1 0,-0.1 -0.1,-0.1 -0.2,-0.1 -0.1,0 -0.1,0 -0.2,0 0,0 0,0 -0.1,0 0,0.1 0,0.1 0,0.1 -0.1,0.1 -0.2,0.1 -0.2,0.2 0,0 0,0.2 -0.1,0.2 0,0 0,0.1 -0.1,0.2 0,0 0,0.1 0,0.2 0,0.1 0,0.1 0,0.1 0,0 0,0 -0.1,0 0,0.1 0,0.1 0,0.1 -1,-0.2 -1.7,0.1 -2.1,0.9 -0.1,0.1 -0.1,0.2 -0.2,0.3 -0.5,0.7 -1.1,1.5 -1.7,2.3 0,0 -0.1,0 -0.2,0.1 -0.1,0 -0.2,0.1 -0.4,0.1 -1.2,0.9 -2,2.2 -2.5,3.7 -0.3,0 -0.6,0 -0.9,0.2 -0.6,0.3 -1,0.8 -1.4,1.3 -0.5,1 -1.2,1.6 -2.2,2.1 -0.8,0.5 -1.5,1.2 -1.9,2.1 -1,-0.2 -1.7,0.3 -2.1,1.3 -0.3,0.9 -0.9,1.5 -1.7,1.9 0,-0.2 -0.1,-0.3 -0.2,-0.4 0.1,-0.7 0.1,-1.3 0.1,-2 0,-0.3 0,-0.5 0,-0.9 0,-0.1 -0.1,-0.2 -0.1,-0.4 -0.3,-0.5 -0.5,-1.1 -0.6,-1.6 0.1,0.1 0.2,0.1 0.4,0.1 1,-0.1 1.8,-0.7 2.2,-1.7 0.1,0 0.2,0 0.3,0 0.6,-0.3 1.2,-0.7 1.7,-1.2 0.1,0 0.1,-0.1 0.2,-0.1 0.3,-0.4 0.4,-0.9 0.4,-1.4 0,0 0,-0.1 0,-0.1 0.1,-0.2 0.2,-0.5 0.2,-0.7 0.2,-0.3 0.3,-0.5 0.5,-0.7 0.4,0 0.8,0 1.1,0.2 1.2,0.2 1.9,-0.2 2.3,-1.2 0.2,0 0.4,-0.1 0.5,-0.2 0.9,-0.8 1.7,-1.5 2.6,-2.3 0.5,0 0.9,-0.2 1.3,-0.5 0.2,-0.3 0.4,-0.6 0.5,-1 0.2,-0.7 0.5,-1.3 1,-1.8 0.4,0.1 0.7,0 1,-0.3 0.3,-0.2 0.5,-0.5 0.8,-0.9 0.2,-0.4 0.5,-0.8 0.9,-1.1 0.4,-0.5 0.7,-0.9 0.7,-1.5 0,0 0,0 0,-0.1 0,0 0,-0.1 0,-0.1 -0.1,-0.1 -0.3,0 -0.4,0.1 -0.3,0.2 -0.7,0.5 -0.9,0.9 -0.4,0.5 -0.9,1 -1.3,1.4 0,0.1 0,0.1 0,0.1 0,0.1 0,0.1 0,0.1 -0.1,0.1 -0.2,0.2 -0.3,0.4 -0.8,0.2 -1.5,0.6 -1.9,1.4 -0.1,0.4 -0.2,0.9 -0.4,1.2 -0.2,0.4 -0.5,0.6 -0.8,0.6 -0.3,0.1 -0.5,0.2 -0.7,0.3 -0.8,0.7 -1.6,1.5 -2.3,2.3 -0.3,0 -0.5,0 -0.7,0.1 -0.1,0.1 -0.1,0.1 -0.2,0.1 -0.2,0.7 -0.7,1 -1.5,1 -0.9,-0.1 -1.5,0.1 -2,0.6 -0.1,0.1 -0.1,0.2 -0.1,0.3 -0.3,0.9 -0.6,1.7 -1,2.6 -1.1,0.2 -1.9,0.8 -2.5,1.6 -0.3,0.6 -0.8,1 -1.5,1.1 -0.1,0.1 -0.1,0.1 -0.1,0.1 0,0.1 0,0.1 0,0.2 0,-0.1 0,-0.2 0,-0.3 0,-0.1 0,-0.2 0,-0.2 -0.1,-0.4 -0.1,-0.7 0,-0.9 0.1,-0.8 -0.1,-1.4 -0.6,-1.7 0.2,-0.2 0.3,-0.3 0.4,-0.6 0.1,-0.2 0.2,-0.5 0.3,-0.8 0.2,-0.3 0.5,-0.6 0.8,-0.9 0.4,-0.3 0.8,-0.6 1,-1 0.8,-1.1 1.7,-2 2.7,-2.7 1.3,-1.4 2.7,-2.6 4.2,-3.8 1.9,-1.5 3.7,-3.2 5.4,-5 0.9,-0.9 1.7,-1.8 2.5,-2.8 0.3,-0.5 0.7,-0.9 1.1,-1.3 -0.9,0.1 -1.7,0.4 -2.5,0.8 -0.2,0.1 -0.5,0.2 -0.7,0.2 -0.2,-0.1 -0.4,-0.1 -0.6,-0.1 -1.5,0.6 -3,1 -4.6,1.4 -0.1,0 -0.3,0 -0.5,0.1 -2.4,0.5 -4.8,1 -7.2,1.4 -1.1,0.2 -2,0.5 -3,0.9 -0.1,0.1 -0.3,0.1 -0.4,0.2 -0.4,0.3 -0.9,0.6 -1.4,0.9 -0.7,0.3 -1.3,0.4 -2,0.4 0,0 0,0 -0.1,-0.1 -2.4,1 -5,1.7 -7.5,2.3 -0.6,0.1 -1.1,0.1 -1.5,-0.3 -0.1,-0.1 -0.1,-0.2 -0.1,-0.4 0.1,-0.1 0.2,-0.2 0.2,-0.3 0.2,0 0.3,0.1 0.5,0.1 0.3,-0.5 0.9,-0.8 1.7,-0.9 0.1,-0.1 0.2,-0.1 0.3,-0.1 -0.2,0 -0.4,-0.1 -0.6,-0.1 -0.2,-0.1 -0.4,-0.1 -0.6,-0.2 -2,-0.6 -4,-1.2 -5.9,-1.9 -0.8,-0.3 -1.6,-0.6 -2.5,-0.9 -0.5,-0.2 -1.1,-0.4 -1.6,-0.6 -1.2,-0.4 -2.4,-0.7 -3.5,-0.9 -0.1,0 -0.2,0 -0.2,0 0,-0.1 0,-0.1 0,-0.1 0.1,-0.1 0.2,-0.3 0.2,-0.4 0.3,-1 0.6,-2 1,-3 0.2,-0.6 0.4,-1.2 0.6,-1.8 0,-0.1 0,-0.1 0,-0.2 0.4,-1.1 0.8,-2.2 1.2,-3.4 0.3,-1 0.8,-2.1 1.4,-3 0.1,-0.2 0.2,-0.3 0.2,-0.5 0.2,-0.2 0.3,-0.4 0.4,-0.6 0.1,0.1 0.2,0.1 0.3,0.2 0.3,0.2 0.7,0.4 1.1,0.5 0.1,0.1 0.2,0.1 0.4,0.2 0.4,0.2 0.9,0.3 1.3,0.5 0.1,0 0.2,0 0.2,0.1 1.6,0.7 3.2,1.5 4.9,2.1 1.5,0.7 3.1,1.3 4.6,1.9 2.3,0.9 4.5,1.8 6.8,2.7 2.2,1 4.6,1.9 6.9,2.6 0.6,0.2 1.2,0.4 1.7,0.6 0.8,0.3 1.6,0.6 2.5,0.9 0.1,0 0.2,0 0.3,0.1 0.2,-0.1 0.4,-0.1 0.7,-0.2 0.2,-0.1 0.4,-0.2 0.6,-0.3 0.4,-0.1 0.7,-0.2 1,-0.3 0.1,-0.1 0.2,-0.1 0.3,-0.1 v 0.1 c 0.5,-0.1 1,-0.2 1.5,-0.4 0.6,-0.1 1.1,-0.2 1.7,-0.1 0.6,-0.6 1.4,-0.8 2.5,-0.8 z m -73.9,-27.7 v 0 c 0.5,0.3 0.9,0.4 1.2,0.5 -0.5,0.2 -1,0.4 -1.4,0.6 -1.1,0.5 -2.1,0.9 -3.1,1.3 -1.4,0.4 -2.8,0.8 -4.1,1.2 -0.1,0.1 -0.1,0.1 -0.1,0.1 -1.7,0.5 -3.2,1.3 -4.5,2.3 h -0.1 v -0.1 c 0,0.1 -0.1,0.1 -0.2,0.2 v 0 c -0.4,0.2 -0.7,0.2 -0.9,-0.2 -0.4,-0.5 -0.8,-1 -1.4,-1.4 -0.2,-0.1 -0.3,-0.3 -0.5,-0.5 -0.5,-0.7 -1.2,-1.4 -1.8,-2 -1.1,-1.1 -2.2,-2.3 -3.1,-3.4 -0.3,-1.1 0,-2.1 0.8,-3 0.9,-0.9 1.6,-1.9 2.3,-2.9 0.8,-1.1 1.8,-2.1 2.8,-3 0.1,0 0.1,0 0.1,0 0.1,-0.1 0.1,-0.1 0.1,-0.1 h 0.1 c 0.1,0 0.2,0 0.3,0.1 0,0.1 0,0.1 0.1,0.1 0,0.1 0,0.1 -0.1,0.1 0.4,0.1 0.8,0.2 1.1,0.3 0.3,0.1 0.5,0.1 0.8,0.2 2.3,0.5 4.6,1 7,1.3 1.2,0.1 2.3,0.3 3.5,0.6 0.6,0.1 1.3,0.4 2,0.6 -0.5,0.2 -1,0.3 -1.6,0.4 -0.1,0.1 -0.2,0.1 -0.3,0.1 -1.2,0 -2.3,0.2 -3.4,0.4 -0.5,0.2 -1.1,0.3 -1.7,0.5 -0.3,0 -0.5,0.1 -0.7,0.1 -0.9,0.1 -1.8,0.3 -2.7,0.5 -0.6,0.2 -1.2,0.4 -1.8,0.7 -0.3,0.1 -0.6,0.3 -0.9,0.4 -0.6,0.3 -1,0.7 -1.4,1.2 0.2,0.4 0.6,0.5 1,0.3 0.1,-0.1 0.2,-0.1 0.3,-0.1 0,0 0,0 0.1,0 0.5,0.4 1.1,0.6 1.8,0.7 1.9,0.2 3.7,0.6 5.4,1.1 0.3,0 0.6,0.1 0.9,0 1.4,-0.1 2.8,0.2 4.1,0.8 z m -38.1,-9.4 v 0 c 0,0 0,0 0,0.1 z m -2.1,-4.5 c -0.1,0.3 0,0.5 0,0.8 -2.5,0.1 -4.7,1.1 -6.6,2.9 0,0.1 -0.1,0.2 -0.2,0.2 0,-0.3 0,-0.6 0,-0.9 0,-2.5 0.8,-4.5 2.6,-6.3 1.7,-1.7 3.8,-2.6 6.2,-2.6 2.5,0 4.5,0.9 6.3,2.6 1.7,1.8 2.6,3.8 2.6,6.3 0,1.5 -0.4,2.9 -1,4.1 -0.5,-1.2 -1.3,-2.3 -2.3,-3.4 -0.9,-0.9 -2,-1.7 -3.1,-2.1 0.2,-0.4 0.3,-0.8 0.3,-1.3 0,-1.6 -0.7,-2.4 -2.4,-2.5 -1.4,0.1 -2.2,0.8 -2.4,2.2 z m 3.4,41.1 c 0.4,0.2 0.7,0.5 1,0.8 2.8,2.4 3.2,5.2 1.2,8.3 -1.3,1.9 -3,2.5 -5.1,1.8 l -0.1,-0.7 h -0.1 l 0.1,-0.1 2.4,-0.3 c 0.2,-0.4 0.5,-0.8 0.8,-1.1 2,-2.9 2,-5.8 -0.2,-8.7 z m 2.1,-8.8 c 0.3,0.1 0.6,0.2 0.9,0.3 1.7,0.4 3.3,0.9 4.8,1.7 1.6,0.9 2.7,2.1 3.4,3.7 0.1,0.1 0.1,0.3 0.2,0.6 0.1,0.9 0.2,1.9 0.2,2.9 0,0.1 0,0.2 0,0.3 -0.1,1.3 -0.2,2.5 -0.4,3.7 0,0.7 -0.3,1.3 -0.6,1.7 -1.5,2 -3.4,3.2 -5.9,3.7 -0.1,0 -0.2,-0.1 -0.3,-0.2 -0.1,-0.1 -0.2,-0.2 -0.3,-0.3 -0.1,-0.2 -0.2,-0.4 -0.3,-0.5 0.5,-0.4 1,-0.6 1.6,-0.8 0.6,-0.4 1.3,-0.8 1.8,-1.3 2,-1.6 2.8,-3.8 2.6,-6.6 0,-0.3 0,-0.6 0,-0.9 0,-0.6 -0.1,-1.1 -0.4,-1.6 -0.4,-0.9 -0.9,-1.6 -1.6,-2 -1.6,-1.2 -3.3,-1.9 -5.2,-2.1 -2.7,-0.6 -5.2,-1.2 -7.7,-1.7 -3.6,-1 -7.1,-2 -10.6,-3 -1.1,-0.2 -2,-0.6 -2.9,-1 -0.2,-0.2 -0.4,-0.3 -0.5,-0.4 -0.4,-0.3 -0.7,-0.7 -0.9,-1 -0.3,-0.4 -0.6,-0.7 -0.7,-1.2 -0.3,-0.7 -0.6,-1.4 -0.7,-2.1 -0.2,-1.2 -0.3,-2.4 -0.4,-3.6 0,-0.9 0,-1.8 0.1,-2.6 0.1,-0.8 0.2,-1.6 0.3,-2.5 0,-0.1 0.2,-0.3 0.5,-0.4 0.1,0.1 0.1,0.3 0,0.5 0,0.4 0,0.8 0,1.2 0,1.2 0.1,2.4 0.4,3.6 0.2,1.3 0.6,2.6 1,3.8 0,0.1 0.1,0.2 0.1,0.4 0.3,0.6 0.6,1.2 1.1,1.8 0.5,0.9 1.4,1.4 2.5,1.6 0.4,0.1 0.8,0.2 1.2,0.3 1.2,0.3 2.4,0.6 3.5,1 1.2,0.3 2.3,0.6 3.5,1 0.8,0.2 1.6,0.4 2.4,0.6 1.2,0.2 2.4,0.5 3.6,0.8 1.2,0.3 2.4,0.5 3.7,0.7 z m 64.4,0.2 c -0.1,-0.5 -0.2,-1.1 -0.3,-1.6 0.2,0.1 0.5,0.2 0.8,0.2 0.9,0.3 1.9,0.6 2.8,0.9 -0.4,0.8 -0.8,1.7 -1.1,2.6 -0.1,0.2 -0.2,0.4 -0.2,0.6 -0.5,1.2 -0.9,2.3 -1.3,3.5 -1.6,-0.3 -3.2,-0.7 -4.7,-1.2 0.2,0 0.4,0 0.6,0 0.7,-0.1 1.3,-0.4 1.8,-1 1.1,-1.1 1.6,-2.4 1.6,-4 z m -75.2,9.6 c 0,-0.5 0.2,-0.8 0.6,-0.9 1,1.6 1.1,3.2 0.2,4.8 -0.3,0.4 -0.5,0.8 -0.7,1.3 -0.1,0.4 -0.4,0.8 -0.7,1.1 -0.5,0.5 -1.2,0.7 -2,0.7 -1,0.1 -1.8,-0.1 -2.4,-0.8 -0.4,-0.4 -0.7,-0.8 -0.9,-1.2 0,0 0,-0.1 0.1,-0.2 0.1,0 0.2,0 0.3,0.1 0.3,0.1 0.6,0.2 0.9,0.2 0.5,0.2 1.1,0.3 1.7,0.1 1.1,-0.1 1.9,-0.6 2.4,-1.7 0.5,-1.1 0.7,-2.2 0.5,-3.5 z"
         id="path1" />
      <path
         style="fill:#ffffff;stroke:none"
         d="m 505.2,679.29 c 0,0 -0.1,0 -0.1,0 -1.1,0 -1.9,0.2 -2.5,0.8 -0.6,-0.1 -1.1,0 -1.7,0.1 -0.5,0.2 -1,0.3 -1.5,0.4 -0.4,0.1 -0.8,0.2 -1.3,0.3 -0.2,0.1 -0.4,0.2 -0.6,0.3 -0.3,0.1 -0.5,0.1 -0.7,0.2 -0.1,-0.1 -0.2,-0.1 -0.3,-0.1 -0.9,-0.3 -1.7,-0.6 -2.5,-0.9 -0.5,-0.2 -1.1,-0.4 -1.7,-0.6 -2.3,-0.7 -4.7,-1.6 -6.9,-2.6 -2.3,-0.9 -4.5,-1.8 -6.8,-2.7 -1.5,-0.6 -3.1,-1.2 -4.6,-1.9 -1.7,-0.6 -3.3,-1.4 -4.9,-2.1 0,-0.1 -0.1,-0.1 -0.2,-0.1 -0.4,-0.2 -0.9,-0.3 -1.3,-0.5 -0.2,-0.1 -0.3,-0.1 -0.4,-0.2 -0.4,-0.1 -0.8,-0.3 -1.1,-0.5 -0.1,-0.1 -0.2,-0.1 -0.3,-0.2 -0.1,0.2 -0.2,0.4 -0.4,0.6 0,0.2 -0.1,0.3 -0.2,0.5 -0.6,0.9 -1.1,2 -1.4,3 -0.4,1.2 -0.8,2.3 -1.2,3.4 0,0.1 0,0.1 0,0.2 -0.2,0.6 -0.4,1.2 -0.6,1.8 -0.4,1 -0.7,2 -1,3 0,0.1 -0.1,0.3 -0.2,0.4 0,0 0,0 0,0.1 0,0 0.1,0 0.2,0 1.1,0.2 2.3,0.5 3.5,0.9 0.5,0.2 1.1,0.4 1.6,0.6 0.9,0.3 1.7,0.6 2.5,0.9 1.9,0.7 3.9,1.3 5.9,1.9 0.2,0.1 0.4,0.1 0.6,0.2 0.2,0 0.4,0.1 0.6,0.1 -0.1,0 -0.2,0 -0.3,0.1 -0.8,0.1 -1.4,0.4 -1.7,0.9 -0.2,0 -0.3,-0.1 -0.5,-0.1 0,0.1 -0.1,0.2 -0.2,0.3 0,0.2 0,0.3 0.1,0.4 0.4,0.4 0.9,0.4 1.5,0.3 2.5,-0.6 5.1,-1.3 7.5,-2.3 0.1,0.1 0.1,0.1 0.1,0.1 0.7,0 1.3,-0.1 2,-0.4 0.5,-0.3 1,-0.6 1.4,-0.9 0.1,-0.1 0.3,-0.1 0.4,-0.2 1,-0.4 1.9,-0.7 3,-0.9 2.4,-0.4 4.8,-0.9 7.2,-1.4 0.2,-0.1 0.4,-0.1 0.5,-0.1 1.6,-0.4 3.1,-0.8 4.6,-1.4 0.2,0 0.4,0 0.6,0.1 0.2,0 0.5,-0.1 0.7,-0.2 0.8,-0.4 1.6,-0.7 2.5,-0.8 -0.4,0.4 -0.8,0.8 -1.1,1.3 -0.8,1 -1.6,1.9 -2.5,2.8 -1.7,1.8 -3.5,3.5 -5.4,5 -1.5,1.2 -2.9,2.4 -4.2,3.8 -1,0.7 -1.9,1.6 -2.7,2.7 -0.2,0.4 -0.6,0.7 -1,1 -0.3,0.3 -0.6,0.6 -0.8,0.9 -0.1,0.3 -0.2,0.6 -0.3,0.8 -0.1,0.3 -0.2,0.4 -0.4,0.6 0.5,0.3 0.7,0.9 0.6,1.7 -0.1,0.2 -0.1,0.5 0,0.9 0,0 0,0.1 0,0.2 h 0.1 c 0.7,-0.1 1.2,-0.5 1.5,-1.1 0.6,-0.8 1.4,-1.4 2.5,-1.6 0.4,-0.9 0.7,-1.7 1,-2.6 0,-0.1 0,-0.2 0.1,-0.3 0.5,-0.5 1.1,-0.7 2,-0.6 0.8,0 1.3,-0.3 1.5,-1 0.1,0 0.1,0 0.2,-0.1 0.2,-0.1 0.4,-0.1 0.7,-0.1 0.7,-0.8 1.5,-1.6 2.3,-2.3 0.2,-0.1 0.4,-0.2 0.7,-0.3 0.3,0 0.6,-0.2 0.8,-0.6 0.2,-0.3 0.3,-0.8 0.4,-1.2 0.4,-0.8 1.1,-1.2 1.9,-1.4 0.1,-0.2 0.2,-0.3 0.3,-0.4 0,0 0,0 0,-0.1 0,0 0,0 0,-0.1 0.4,-0.4 0.9,-0.9 1.3,-1.4 0.2,-0.4 0.6,-0.7 0.9,-0.9 0.1,-0.1 0.3,-0.2 0.4,-0.1 0,0 0,0.1 0,0.1 0,0.1 0,0.1 0,0.1 0,0.6 -0.3,1 -0.7,1.5 -0.4,0.3 -0.7,0.7 -0.9,1.1 -0.3,0.4 -0.5,0.7 -0.8,0.9 -0.3,0.3 -0.6,0.4 -1,0.3 -0.5,0.5 -0.8,1.1 -1,1.8 -0.1,0.4 -0.3,0.7 -0.5,1 -0.4,0.3 -0.8,0.5 -1.3,0.5 -0.9,0.8 -1.7,1.5 -2.6,2.3 -0.1,0.1 -0.3,0.2 -0.5,0.2 -0.4,1 -1.1,1.4 -2.3,1.2 -0.3,-0.2 -0.7,-0.2 -1.1,-0.2 -0.2,0.2 -0.3,0.4 -0.5,0.7 0,0.2 -0.1,0.5 -0.2,0.7 0,0 0,0.1 0,0.1 0,0.5 -0.1,1 -0.4,1.4 -0.1,0 -0.1,0.1 -0.2,0.1 -0.5,0.5 -1.1,0.9 -1.7,1.2 -0.1,0 -0.2,0 -0.3,0 -0.4,1 -1.2,1.6 -2.2,1.7 -0.2,0 -0.3,0 -0.4,-0.1 0.1,0.5 0.3,1.1 0.6,1.6 0,0.2 0.1,0.3 0.1,0.4 0,0.4 0,0.6 0,0.9 0,0.7 0,1.3 -0.1,2 0.1,0.1 0.2,0.2 0.2,0.4 0.8,-0.4 1.4,-1 1.7,-1.9 0.4,-1 1.1,-1.5 2.1,-1.3 0.4,-0.9 1.1,-1.6 1.9,-2.1 1,-0.5 1.7,-1.1 2.2,-2.1 0.4,-0.5 0.8,-1 1.4,-1.3 0.3,-0.2 0.6,-0.2 0.9,-0.2 0.5,-1.5 1.3,-2.8 2.5,-3.7 0.2,0 0.3,-0.1 0.4,-0.1 0.1,-0.1 0.2,-0.1 0.2,-0.1 0.6,-0.8 1.2,-1.6 1.7,-2.3 0.1,-0.1 0.1,-0.2 0.2,-0.3 0.4,-0.8 1.1,-1.1 2.1,-0.9 0,0 0,0 0,-0.1 0.1,0 0.1,0 0.1,0 0,0 0,0 0,-0.1 0,-0.1 0,-0.2 0,-0.2 0.1,-0.1 0.1,-0.2 0.1,-0.2 0.1,0 0.1,-0.2 0.1,-0.2 0,-0.1 0.1,-0.1 0.2,-0.2 0,0 0,0 0,-0.1 0.1,0 0.1,0 0.1,0 0.1,0 0.1,0 0.2,0 0.1,0 0.2,0 0.2,0.1 v -0.1 c 0.1,0 0.1,-0.1 0.1,-0.2 0,-0.8 -0.1,-1.7 -0.2,-2.6 0,0 0,-0.1 0.1,-0.1 0,0.2 0.1,0.4 0.2,0.5 0,0.1 0,0.1 0,0.1 0,0.1 0.1,0.1 0.1,0.1 0.1,0.2 0.2,0.4 0.2,0.6 0,0.1 0,0.1 0,0.1 0.1,0 0.1,0.1 0.1,0.1 0.1,0.4 0.1,0.7 0.1,1 0.1,0 0.2,0 0.2,-0.1 0.7,0.2 1.2,0.6 1.7,1.2 0.1,0.2 0.2,0.4 0.3,0.6 0.3,0 0.6,0 0.9,0 0.1,-0.1 0.3,-0.2 0.5,-0.2 0.1,-0.1 0.2,-0.1 0.4,-0.1 0.4,0.1 0.8,0.4 1.1,1 0.1,0.1 0.1,0.2 0.1,0.2 0.9,0 1.6,0.4 1.9,1.3 0.3,0.5 0.6,1 0.9,1.5 0,0 0.1,0.1 0.2,0.2 0,0.2 0.1,0.3 0.2,0.4 0.5,-0.1 1,-0.1 1.4,0 0.2,0.1 0.2,0.2 0.2,0.4 -0.1,0.3 0,0.6 0.2,0.8 0.2,0.1 0.5,0.2 0.7,0.3 0.1,0 0.1,0 0.1,0.1 0.5,0 0.9,0.3 1.2,0.8 0,0 0,0 0,0 0,0.1 0,0.1 0.1,0.1 v 0.1 c 0.5,0.4 1,0.8 1.4,1.2 0.1,0.1 0.1,0.1 0.2,0.1 0.1,0.5 0.3,0.9 0.6,1.2 0.2,0.1 0.4,0.3 0.4,0.5 0.6,0 1.2,0.3 1.6,0.8 0.1,0.1 0.2,0.2 0.3,0.4 0.2,0.6 0.6,1.1 1.1,1.5 0.1,0.1 0.1,0.1 0.3,0.1 0.8,0 1.3,0.5 1.3,1.2 v 0.1 c 0.1,0 0.1,0 0.2,0.1 0.9,0 1.5,0.4 1.5,1.2 0.1,0 0.1,0 0.1,0.1 0,0 0,0 0,0.1 0,0 0,0 0,0.1 0,0.1 0,0.1 0,0.1 -0.1,0 -0.1,0 -0.1,0 v 0.1 c -0.2,0 -0.3,0 -0.4,0 -0.4,-0.6 -1,-0.9 -1.6,-1 -0.2,0 -0.3,-0.1 -0.4,-0.3 0,-0.1 -0.1,-0.2 -0.1,-0.3 0,0 0,0 -0.1,-0.1 -0.1,-0.2 -0.1,-0.3 -0.1,-0.4 -1.4,0 -2.3,-0.7 -2.5,-2 -0.1,-0.1 -0.1,-0.2 -0.1,-0.3 -0.1,-0.1 -0.1,-0.2 -0.1,-0.2 -0.9,-0.2 -1.6,-0.6 -2.1,-1.5 v 0 c 0,0 0,-0.2 -0.1,-0.2 -0.1,-0.1 -0.1,-0.1 -0.1,-0.1 0,-0.1 0,-0.2 0,-0.2 0,-0.2 0,-0.3 0,-0.5 -0.2,-0.2 -0.5,-0.5 -0.8,-0.7 -0.1,0 -0.1,0 -0.2,0 0,-0.1 0,-0.2 0,-0.2 0,-0.1 -0.1,-0.3 -0.1,-0.4 -0.1,0 -0.3,0 -0.4,0 -0.2,0 -0.3,0 -0.5,-0.2 0,0 0,0 0,0 0,-0.1 0,-0.2 0,-0.3 v -0.1 c -0.1,0 -0.2,-0.1 -0.3,-0.1 -0.7,-0.1 -1.3,-0.3 -1.9,-0.5 -0.2,0 -0.3,-0.2 -0.4,-0.4 0,-0.1 0,-0.2 0.1,-0.3 -1,0.2 -1.7,-0.2 -2,-1.1 -0.5,-0.5 -1,-1 -1.2,-1.6 -0.1,-0.1 -0.1,-0.3 -0.2,-0.5 -0.9,-0.1 -1.5,-0.6 -1.8,-1.5 -0.1,0 -0.1,0 -0.2,0 -0.9,0.4 -1.7,0.3 -2.1,-0.4 -0.1,-0.2 -0.2,-0.4 -0.4,-0.5 -0.2,-0.3 -0.5,-0.6 -0.8,-0.9 0,0 0,0 -0.1,0 0,0 -0.1,0 -0.2,0 0,0 0,0.2 0,0.2 -0.1,0.1 -0.1,0.2 -0.2,0.2 0,0.1 0,0.1 -0.1,0.2 0,0.1 -0.1,0.1 -0.1,0.1 -0.1,0 -0.1,0 -0.2,-0.1 0,0.1 0,0.1 -0.1,0.1 0,0.1 0,0.1 -0.1,0.1 0,0.1 0,0.2 0,0.3 0,0.1 0,0.1 0,0.2 -0.5,0.5 -1,0.7 -1.7,0.5 -0.6,0.9 -1.3,1.9 -2,2.7 -0.3,0.3 -0.7,0.5 -1,0.7 -0.9,0.3 -1.5,1 -1.8,1.9 -0.3,0.6 -0.5,1.2 -0.9,1.8 -0.3,0.3 -0.8,0.3 -1.2,0.3 -0.8,0.8 -1.5,1.6 -2.1,2.5 -0.2,0.2 -0.4,0.5 -0.7,0.6 -0.4,0.4 -1,0.8 -1.5,1 -0.3,1.4 -1.1,2 -2.5,1.7 0,0 0,0 -0.1,0 0,0.1 -0.1,0.1 -0.1,0.2 -0.1,0.1 -0.2,0.3 -0.4,0.5 0,0 0,0 -0.1,0.1 0,0 0,0 0,0.1 0,0 0,0.1 0,0.2 -0.4,1.1 -1,1.6 -1.9,1.6 0.1,0.1 0.1,0.3 0.1,0.5 0,0 0,0.1 0,0.1 0.2,0.2 0.3,0.5 0.3,0.8 -0.1,0.1 -0.1,0.2 -0.1,0.3 0.2,0.6 0.2,1.2 0.2,1.8 0.1,-0.1 0.4,-0.1 0.7,0 0,-0.1 0,-0.1 0.1,-0.2 0,0 0,0 0.1,-0.1 1,-1.8 2.4,-3.3 4.3,-4.4 0.1,0 0.1,0 0.2,-0.1 0.2,-0.3 0.4,-0.7 0.5,-1 0.1,-0.1 0.1,-0.2 0.1,-0.2 1.5,-1.7 3.2,-3.2 5.1,-4.5 0.9,-1.7 2,-3 3.5,-4.2 0.2,-0.1 0.3,-0.3 0.4,-0.4 0.4,-0.7 0.9,-1.3 1.6,-1.7 0,0 0.1,-0.1 0.2,-0.1 0.2,-0.4 0.5,-0.6 0.8,-0.9 0,0 0.1,-0.1 0.1,-0.1 0,-0.6 -0.1,-1.1 0,-1.6 0,-0.1 0,-0.2 -0.1,-0.3 0.1,0 0.1,0 0.1,-0.1 0.1,0 0.1,0 0.2,0 v -0.1 c 0,0.1 0.1,0.1 0.1,0.1 0.1,0.1 0.1,0.2 0.1,0.2 v 0.1 c 0.4,0.4 0.5,0.9 0.5,1.5 0,0 0,0 0.1,0.1 0,0 0,0 0.1,0 -0.1,0.1 -0.1,0.2 -0.1,0.3 0.4,0.3 0.7,0.5 1,0.8 0,0.1 0.1,0.2 0.2,0.2 0.5,0.3 0.8,0.7 1,1.2 1.2,0.1 2.3,0.6 3.2,1.5 0,0 0,0 0,0.1 0.1,0 0.1,0 0.1,0.1 0,0 0,0 0,0.1 0,0 0,0 0.1,0.1 0,0.1 0,0.1 0,0.1 0,0 0,0 0,0 0.9,0.6 1.8,1.1 2.8,1.5 0.4,0.2 0.7,0.5 1.1,0.7 0.8,0.7 1.4,1.4 1.8,2.3 0.8,0.6 1.6,1 2.6,1.2 0.2,0.1 0.3,0.2 0.4,0.3 0.3,1 1,1.7 1.9,2.3 0.4,0.6 0.9,1.2 1.3,1.7 0.1,0 0.1,0.1 0.3,0.2 1,0.3 1.8,0.8 2.6,1.4 0.2,0.1 0.3,0.2 0.5,0.3 0.5,0.1 0.8,0.3 0.9,0.6 0,-0.3 0.1,-0.6 0.1,-0.9 0.1,-0.3 0.1,-0.6 0.1,-0.9 0,-0.6 -0.2,-1.1 -0.5,-1.7 -0.5,-0.5 -0.6,-1.2 -0.5,-2 0,-0.1 0.1,-0.3 0.1,-0.5 0.3,-0.8 0.3,-1.7 0,-2.5 0,-0.2 0,-0.4 0,-0.7 0,-0.3 0,-0.6 0.2,-0.9 0.1,-0.4 0.2,-0.8 0.2,-1.2 0,-0.2 0,-0.2 0.1,-0.4 -0.2,-0.5 -0.3,-1 -0.5,-1.6 -0.1,0 -0.2,-0.1 -0.4,-0.1 -0.1,-0.1 -0.1,-0.1 -0.2,-0.2 -0.9,-0.8 -1.9,-1.6 -2.8,-2.3 -1.7,-1.3 -3.4,-2.6 -5.1,-3.8 -0.7,-0.6 -1.3,-1.2 -2,-1.8 -1.8,-1.6 -3.6,-3.3 -5.3,-5 -0.6,-0.5 -1,-1.1 -1.5,-1.7 0,-0.1 -0.1,-0.2 -0.2,-0.3 -0.1,0 -0.2,0 -0.2,0 -1.6,-0.4 -2.8,-1.1 -3.6,-2.4 0,0 -0.1,-0.1 -0.2,-0.1 -0.2,0 -0.5,0 -0.8,-0.1 0.3,1 0.3,2 0.2,3 -0.1,0.1 -0.1,0.1 -0.1,0.1 0.3,0.4 0.3,0.8 0.1,1.2 -0.1,0.1 -0.1,0.1 -0.1,0.1 0,0.1 0,0.2 0,0.3 0,0.1 0,0.1 0,0.2 0,0 0,0 0,0.1 0.1,0 0.1,0 0.1,0.1 0,0 0,0.1 0,0.2 h 0.1 v -0.1 0 c 1.2,0.1 2.2,0.7 2.9,1.7 0,0.1 0,0.1 0,0.1 1.5,0.1 2.8,0.5 3.9,1.5 0,0 0,0 0.1,0.1 0,0 0,0 0,0 0.9,0.3 1.4,0.8 1.5,1.7 0.1,0.1 0.1,0.2 0.1,0.3 0.5,0.6 1.2,1 2,1.1 0.5,0.1 1,0.4 1.3,0.9 0.1,0.3 0.2,0.5 0.2,0.8 0.5,0.3 1,0.7 1.5,0.9 0.5,0.3 1,0.7 1.2,1.3 0.2,0.3 0.3,0.7 0.4,1.1 0.1,0.1 0.1,0.1 0.2,0.1 0.1,0 0.2,0.1 0.2,0.2 0.7,-0.2 1.1,-0.1 1.4,0.3 0.1,0.1 0.1,0.3 0.1,0.3 0.2,0.2 0.4,0.3 0.5,0.4 0,0.1 0.2,0.2 0.3,0.3 1,0.2 1.6,0.8 2,1.7 0,0.1 0.1,0.2 0.2,0.2 0.9,0.2 1.4,0.5 1.8,1.1 -0.1,0.1 -0.1,0.3 -0.2,0.3 -0.1,0.1 -0.1,0.2 -0.1,0.2 0,0.1 0,0.1 -0.1,0.2 0,0.1 -0.1,0.1 -0.2,0.1 0,0 -0.1,0 -0.2,-0.1 0,-0.1 0,-0.2 0,-0.2 v -0.1 c -0.6,-0.3 -1.1,-0.7 -1.7,-1.1 -0.5,-0.3 -0.8,-0.7 -0.8,-1.2 -0.1,0 -0.1,-0.1 -0.1,-0.1 -0.1,0 -0.1,0 -0.1,-0.1 -0.3,0 -0.6,-0.1 -0.9,-0.1 -0.1,-0.3 -0.3,-0.4 -0.4,-0.5 -0.2,-0.2 -0.5,-0.4 -0.6,-0.7 -0.7,0 -1.4,-0.2 -2,-0.5 -0.2,0 -0.2,-0.1 -0.3,-0.3 -0.2,-0.8 -0.6,-1.5 -1.2,-2 -0.1,0 -0.2,-0.1 -0.3,-0.2 -0.1,0 -0.1,-0.1 -0.2,-0.1 -0.7,0 -1.1,-0.3 -1.4,-1 0,-0.1 -0.1,-0.3 -0.2,-0.5 0,-0.1 -0.1,-0.2 -0.1,-0.2 -0.1,0 -0.1,-0.2 -0.2,-0.2 v -0.1 c -0.7,-0.2 -1.5,-0.5 -2.1,-1 -0.4,-0.2 -0.7,-0.6 -1,-1 -0.1,-0.3 -0.3,-0.6 -0.4,-1 -0.5,-0.2 -1.1,-0.6 -1.6,-1.1 -0.3,-0.2 -0.6,-0.3 -0.9,-0.5 -0.6,-0.2 -1.3,-0.4 -1.9,-0.5 -0.3,0 -0.5,-0.1 -0.6,-0.4 -0.1,-0.1 -0.2,-0.3 -0.4,-0.5 -0.1,-0.2 -0.2,-0.3 -0.3,-0.5 -0.5,0.1 -1,0 -1.4,-0.2 0,0.2 0,0.5 0,0.8 0,0 0,0.1 0,0.2 -0.1,0 -0.2,0.1 -0.2,0.2 0,0.2 0,0.2 -0.1,0.2 -0.1,0.1 -0.1,0.1 -0.1,0 0,-0.1 0,-0.2 -0.1,-0.4 v 0 c 0.1,-0.1 0.1,-0.2 0.1,-0.2 0,-0.1 0,-0.1 0.1,-0.1 0,-0.3 0,-0.6 0,-0.9 -0.1,-0.1 -0.1,-0.1 -0.1,-0.1 0,-0.1 0,-0.2 0,-0.2 0,-0.1 0,-0.1 0,-0.1 0,-0.1 0,-0.1 0.1,-0.1 v 0 c -0.1,-0.1 -0.1,-0.1 -0.1,-0.1 -0.1,-0.1 -0.1,-0.1 -0.1,-0.1 0,-0.3 0,-0.5 0,-0.8 0,0 0,-0.1 0,-0.2 0.1,-0.1 0.1,-0.3 0.1,-0.5 0,-0.1 0,-0.1 0,-0.1 0,-0.1 0,-0.1 0,-0.1 -0.1,-0.1 -0.1,-0.1 -0.1,-0.1 -0.3,-1 -0.3,-1.9 -0.1,-2.9 0,-0.2 0,-0.4 0,-0.6 -0.1,0.1 -0.2,0.1 -0.3,0.2 v 0 c 0,-0.1 0,-0.1 0,-0.1 -0.1,-0.1 -0.2,-0.1 -0.4,-0.2 z"
         id="path2" />
      <path
         style="fill:#f6af96;stroke:none"
         d="M 505.9,679.39 Z"
         id="path3" />
      <path
         style="fill:#f6af96;stroke:none"
         d="m 487.4,701.79 h -0.1 c 0,0.1 0,0.2 0,0.3 0,-0.1 0,-0.1 0,-0.2 z"
         id="path4" />
      <path
         style="fill:#898668;stroke:none"
         d="m 506.6,684.69 v 0.1 z"
         id="path5" />
      <path
         style="fill:#f6af96;stroke:none"
         d="m 506.4,690.09 v 0.1 c 0.1,0 0.1,0.1 0.1,0.1 v 0 c 0,-0.1 0,-0.1 -0.1,-0.2 z"
         id="path6" />
      <path
         style="fill:#898668;stroke:none"
         d="m 498.1,680.89 c 0.5,-0.1 0.9,-0.2 1.3,-0.3 v -0.1 c -0.1,0 -0.2,0 -0.3,0.1 -0.3,0.1 -0.6,0.2 -1,0.3 z"
         id="path7" />
      <path
         style="fill:#ffffff;stroke:none"
         d="m 431.2,651.59 v 0 c -1.3,-0.6 -2.7,-0.9 -4.1,-0.8 -0.3,0.1 -0.6,0 -0.9,0 -1.7,-0.5 -3.5,-0.9 -5.4,-1.1 -0.7,-0.1 -1.3,-0.3 -1.8,-0.7 -0.1,0 -0.1,0 -0.1,0 -0.1,0 -0.2,0 -0.3,0.1 -0.4,0.2 -0.8,0.1 -1,-0.3 0.4,-0.5 0.8,-0.9 1.4,-1.2 0.3,-0.1 0.6,-0.3 0.9,-0.4 0.6,-0.3 1.2,-0.5 1.8,-0.7 0.9,-0.2 1.8,-0.4 2.7,-0.5 0.2,0 0.4,-0.1 0.7,-0.1 0.6,-0.2 1.2,-0.3 1.7,-0.5 1.1,-0.2 2.2,-0.4 3.4,-0.4 0.1,0 0.2,0 0.3,-0.1 0.6,-0.1 1.1,-0.2 1.6,-0.4 -0.7,-0.2 -1.4,-0.5 -2,-0.6 -1.2,-0.3 -2.3,-0.5 -3.5,-0.6 -2.4,-0.3 -4.7,-0.8 -7,-1.3 -0.3,-0.1 -0.5,-0.1 -0.8,-0.2 -0.3,-0.1 -0.7,-0.2 -1.1,-0.3 0.1,0 0.1,0 0.1,-0.1 -0.1,0 -0.1,0 -0.1,-0.1 -0.1,-0.1 -0.2,-0.1 -0.3,-0.1 h -0.1 c 0,0 0,0 -0.1,0.1 0,0 0,0 -0.1,0 -1,0.9 -2,1.9 -2.8,3 -0.7,1 -1.4,2 -2.3,2.9 -0.8,0.9 -1.1,1.9 -0.8,3 0.9,1.1 2,2.3 3.1,3.4 0.6,0.6 1.3,1.3 1.8,2 0.2,0.2 0.3,0.4 0.5,0.5 0.6,0.4 1,0.9 1.4,1.4 0.2,0.4 0.5,0.4 0.9,0.2 v 0 c 0.1,-0.1 0.2,-0.1 0.2,-0.2 l 0.1,0.1 c 1.3,-1 2.8,-1.8 4.5,-2.3 0,0 0,0 0.1,-0.1 1.3,-0.4 2.7,-0.8 4.1,-1.2 1,-0.4 2,-0.8 3.1,-1.3 0.4,-0.2 0.9,-0.4 1.4,-0.6 -0.3,-0.1 -0.7,-0.2 -1.2,-0.5 z"
         id="path8" />
      <path
         style="fill:#00945e;stroke:none"
         d="m 419.1,657.59 h 0.1 l -0.1,-0.1 z"
         id="path9" />
      <path
         style="fill:#ffffff;stroke:none"
         d="m 391,638.49 c 0,-0.3 -0.1,-0.5 0,-0.8 0.2,-1.4 1,-2.1 2.4,-2.2 1.7,0.1 2.4,0.9 2.4,2.5 0,0.5 -0.1,0.9 -0.3,1.3 1.1,0.4 2.2,1.2 3.1,2.1 1,1.1 1.8,2.2 2.3,3.4 0.6,-1.2 1,-2.6 1,-4.1 0,-2.5 -0.9,-4.5 -2.6,-6.3 -1.8,-1.7 -3.8,-2.6 -6.3,-2.6 -2.4,0 -4.5,0.9 -6.2,2.6 -1.8,1.8 -2.6,3.8 -2.6,6.3 0,0.3 0,0.6 0,0.9 0.1,0 0.2,-0.1 0.2,-0.2 1.9,-1.8 4.1,-2.8 6.6,-2.9 z"
         id="path10" />
      <path
         style="fill:#ffffff;stroke:none"
         d="m 395.4,679.59 c -0.3,-0.3 -0.6,-0.6 -1,-0.8 2.2,2.9 2.2,5.8 0.2,8.7 -0.3,0.3 -0.6,0.7 -0.8,1.1 l -2.4,0.3 v 0.1 l 0.1,0.7 c 2.1,0.7 3.8,0.1 5.1,-1.8 2,-3.1 1.6,-5.9 -1.2,-8.3 z"
         id="path11" />
      <path
         style="fill:#97a281;stroke:none"
         d="m 391.4,688.99 v -0.1 z"
         id="path12" />
      <path
         style="fill:#8eb9b6;stroke:none"
         d="m 391.4,688.99 v -0.1 l -0.1,0.1 z"
         id="path13" />
      <path
         style="fill:#8eb9b6;stroke:none"
         d="m 397.4,670.29 c -0.3,-0.1 -0.6,-0.2 -0.9,-0.3 v 0.1 z"
         id="path14" />
      <path
         style="fill:#ffffff;stroke:none"
         d="m 397.4,670.29 -0.9,-0.2 c -1.3,-0.2 -2.5,-0.4 -3.7,-0.7 -1.2,-0.3 -2.4,-0.6 -3.6,-0.8 -0.8,-0.2 -1.6,-0.4 -2.4,-0.6 -1.2,-0.4 -2.3,-0.7 -3.5,-1 -1.1,-0.4 -2.3,-0.7 -3.5,-1 -0.4,-0.1 -0.8,-0.2 -1.2,-0.3 -1.1,-0.2 -2,-0.7 -2.5,-1.6 -0.5,-0.6 -0.8,-1.2 -1.1,-1.8 0,-0.2 -0.1,-0.3 -0.1,-0.4 -0.4,-1.2 -0.8,-2.5 -1,-3.8 -0.3,-1.2 -0.4,-2.4 -0.4,-3.6 0,-0.4 0,-0.8 0,-1.2 0.1,-0.2 0.1,-0.4 0,-0.5 -0.3,0.1 -0.5,0.3 -0.5,0.4 -0.1,0.9 -0.2,1.7 -0.3,2.5 -0.1,0.8 -0.1,1.7 -0.1,2.6 0.1,1.2 0.2,2.4 0.4,3.6 0.1,0.7 0.4,1.4 0.7,2.1 0.1,0.5 0.4,0.8 0.7,1.2 0.2,0.3 0.5,0.7 0.9,1 0.1,0.1 0.3,0.2 0.5,0.4 0.9,0.4 1.8,0.8 2.9,1 3.5,1 7,2 10.6,3 2.5,0.5 5,1.1 7.7,1.7 1.9,0.2 3.6,0.9 5.2,2.1 0.7,0.4 1.2,1.1 1.6,2 0.3,0.5 0.4,1 0.4,1.6 0,0.3 0,0.6 0,0.9 0.2,2.8 -0.6,5 -2.6,6.6 -0.5,0.5 -1.2,0.9 -1.8,1.3 -0.6,0.2 -1.1,0.4 -1.6,0.8 0.1,0.1 0.2,0.3 0.3,0.5 0.1,0.1 0.2,0.2 0.3,0.3 0.1,0.1 0.2,0.2 0.3,0.2 2.5,-0.5 4.4,-1.7 5.9,-3.7 0.3,-0.4 0.6,-1 0.6,-1.7 0.2,-1.2 0.3,-2.4 0.4,-3.7 0,-0.1 0,-0.2 0,-0.3 0,-1 -0.1,-2 -0.2,-2.9 -0.1,-0.3 -0.1,-0.5 -0.2,-0.6 -0.7,-1.6 -1.8,-2.8 -3.4,-3.7 -1.5,-0.8 -3.1,-1.3 -4.8,-1.7 z"
         id="path15" />
      <path
         style="fill:#ffffff;stroke:none"
         d="m 460.6,668.59 c 0.1,0.5 0.2,1.1 0.3,1.6 0,1.6 -0.5,2.9 -1.6,4 -0.5,0.6 -1.1,0.9 -1.8,1 -0.2,0 -0.4,0 -0.6,0 1.5,0.5 3.1,0.9 4.7,1.2 0.4,-1.2 0.8,-2.3 1.3,-3.5 0,-0.2 0.1,-0.4 0.2,-0.6 0.3,-0.9 0.7,-1.8 1.1,-2.6 -0.9,-0.3 -1.9,-0.6 -2.8,-0.9 -0.3,0 -0.6,-0.1 -0.8,-0.2 z"
         id="path16" />
      <path
         style="fill:#ffffff;stroke:none"
         d="m 386.3,678.89 c -0.4,0.1 -0.6,0.4 -0.6,0.9 0.2,1.3 0,2.4 -0.5,3.5 -0.5,1.1 -1.3,1.6 -2.4,1.7 -0.6,0.2 -1.2,0.1 -1.7,-0.1 -0.3,0 -0.6,-0.1 -0.9,-0.2 -0.1,-0.1 -0.2,-0.1 -0.3,-0.1 -0.1,0.1 -0.1,0.2 -0.1,0.2 0.2,0.4 0.5,0.8 0.9,1.2 0.6,0.7 1.4,0.9 2.4,0.8 0.8,0 1.5,-0.2 2,-0.7 0.3,-0.3 0.6,-0.7 0.7,-1.1 0.2,-0.5 0.4,-0.9 0.7,-1.3 0.9,-1.6 0.8,-3.2 -0.2,-4.8 z"
         id="path17" />
      <path
         style="fill:#5aa692;stroke:none"
         d="M 464.7,684.59 Z"
         id="path18" />
      <path
         style="fill:#5f5f61;stroke:none"
         d="m 504.9,704.39 c -0.1,0 -0.1,0.2 -0.2,0.2 0,0 0,0.1 0,0.2 0,0.1 0,0.3 0,0.3 0,0.1 0,0.1 0,0.1 0.5,0.6 1.1,0.9 1.9,0.8 0,-0.1 0,-0.1 0.1,-0.1 0.2,-0.2 0.3,-0.4 0.5,-0.7 0,0 0,0 0,-0.1 -0.1,0 -0.1,-0.1 0,-0.2 0.1,-0.2 0.1,-0.5 0.1,-0.8 -0.1,0 -0.1,0 -0.1,0 -0.2,-0.2 -0.4,-0.4 -0.6,-0.5 -0.4,0.1 -0.8,0.2 -1.3,0.4 0,0.1 0,0.1 -0.1,0.1 -0.1,0 -0.2,0.1 -0.3,0.2 z m 1.2,-0.3 c 0.1,0 0.1,0 0.2,0.1 0.1,0.1 0.2,0.2 0.3,0.3 0,0.1 0,0.2 0,0.3 -0.1,0.1 -0.2,0.3 -0.2,0.3 -0.1,0.1 -0.1,0.1 -0.1,0.1 -0.3,0 -0.5,0 -0.6,-0.1 -0.2,0 -0.4,-0.1 -0.5,-0.3 0,0 0,0 0,-0.1 0.3,-0.2 0.6,-0.4 0.9,-0.6 z"
         id="path19" />
      <path
         style="fill:#ffffff;stroke:none"
         d="m 506.3,704.19 c -0.1,-0.1 -0.1,-0.1 -0.2,-0.1 -0.3,0.2 -0.6,0.4 -0.9,0.6 0,0.1 0,0.1 0,0.1 0.1,0.2 0.3,0.3 0.5,0.3 0.1,0.1 0.3,0.1 0.6,0.1 0,0 0,0 0.1,-0.1 0,0 0.1,-0.2 0.2,-0.3 0,-0.1 0,-0.2 0,-0.3 -0.1,-0.1 -0.2,-0.2 -0.3,-0.3 z"
         id="path20" />
      <path
         style="fill:#5f5f61;stroke:none"
         d="m 507.8,706.09 c -0.1,0 -0.2,0 -0.4,0.1 0,0 0,0 -0.1,0 0.2,0.1 0.3,0.2 0.3,0.2 v 0.1 c -0.3,-0.1 -0.4,0.1 -0.6,0.3 -0.1,0.3 -0.1,0.6 0,0.9 0.1,0.2 0.2,0.2 0.4,0.3 1.2,0.2 1.8,-0.3 1.8,-1.4 -0.1,0 -0.1,0 -0.1,0 -0.4,-0.3 -0.7,-0.5 -1.2,-0.5 z m 0,1 c 0,0 0,0 0,0 0.2,-0.2 0.2,-0.3 0.1,-0.5 0.2,0 0.4,0.1 0.5,0.3 -0.1,0.1 -0.2,0.2 -0.3,0.2 -0.1,0 -0.2,0 -0.3,0 z"
         id="path21" />
      <path
         style="fill:#ffffff;stroke:none"
         d="m 507.8,707.09 c 0,0 0,0 0,0 0.1,0 0.2,0 0.3,0 0.1,0 0.2,-0.1 0.3,-0.2 -0.1,-0.2 -0.3,-0.3 -0.5,-0.3 0.1,0.2 0.1,0.3 -0.1,0.5 z"
         id="path22" />
      <path
         style="fill:#5f5f61;stroke:none"
         d="m 504.8,706.69 c -0.1,-0.2 -0.2,-0.4 -0.4,-0.4 -0.7,-0.2 -1.3,-0.3 -2,-0.4 -0.3,0 -0.6,0.1 -0.9,0.2 0,0 0,0 -0.1,0 0,0.1 -0.1,0.2 -0.2,0.2 -0.1,0 -0.1,0 -0.1,0.1 0,0 0,0.2 0,0.2 0,0 0,0.1 0,0.2 0,0.1 0,0.2 -0.1,0.3 0,0 0,0 0,0 -0.1,0.1 -0.1,0.1 -0.1,0.1 0,0.2 0,0.4 0,0.6 0,0.2 0.1,0.4 0.1,0.6 0.1,0.2 0.1,0.5 0.2,0.8 1.5,0.5 2.8,0.4 3.9,-0.6 0.1,-0.7 -0.1,-1.3 -0.3,-1.9 z m -2.9,-0.1 c 0.6,0 1.3,0 1.9,0.2 0.1,0 0.1,0 0.1,0.1 0.3,0.3 0.4,0.7 0.3,1.2 -0.8,0.5 -1.6,0.7 -2.5,0.5 0,0 0,0 0,-0.1 -0.1,-0.1 -0.2,-0.2 -0.2,-0.3 0,0 0,-0.1 0,-0.1 0,-0.5 0.1,-0.9 0.2,-1.4 0,0 0.1,0 0.2,-0.1 z"
         id="path23" />
      <path
         style="fill:#ffffff;stroke:none"
         d="m 503.8,706.79 c -0.6,-0.2 -1.3,-0.2 -1.9,-0.2 -0.1,0.1 -0.2,0.1 -0.2,0.1 -0.1,0.5 -0.2,0.9 -0.2,1.4 0,0 0,0.1 0,0.1 0,0.1 0.1,0.2 0.2,0.3 0,0.1 0,0.1 0,0.1 0.9,0.2 1.7,0 2.5,-0.5 0.1,-0.5 0,-0.9 -0.3,-1.2 0,-0.1 0,-0.1 -0.1,-0.1 z"
         id="path24" />
    </g>
  </g>
</svg>
