<?xml version="1.0" encoding="UTF-8" standalone="no"?>
<!-- Created with Inkscape (http://www.inkscape.org/) -->

<svg
   width="60.958061mm"
   height="62.998665mm"
   viewBox="0 0 60.958061 62.998665"
   version="1.1"
   id="svg1"
   inkscape:version="1.3 (0e150ed6c4, 2023-07-21)"
   sodipodi:docname="stickers_serious_business.svg"
   xmlns:inkscape="http://www.inkscape.org/namespaces/inkscape"
   xmlns:sodipodi="http://sodipodi.sourceforge.net/DTD/sodipodi-0.dtd"
   xmlns="http://www.w3.org/2000/svg"
   xmlns:svg="http://www.w3.org/2000/svg">
  <sodipodi:namedview
     id="namedview1"
     pagecolor="#ffffff"
     bordercolor="#000000"
     borderopacity="0.25"
     inkscape:showpageshadow="2"
     inkscape:pageopacity="0.0"
     inkscape:pagecheckerboard="0"
     inkscape:deskcolor="#d1d1d1"
     inkscape:document-units="mm"
     inkscape:zoom="0.74386223"
     inkscape:cx="351.54359"
     inkscape:cy="485.97709"
     inkscape:window-width="1920"
     inkscape:window-height="1027"
     inkscape:window-x="1912"
     inkscape:window-y="-8"
     inkscape:window-maximized="1"
     inkscape:current-layer="layer1" />
  <defs
     id="defs1" />
  <g
     inkscape:label="Layer 1"
     inkscape:groupmode="layer"
     id="layer1"
     transform="translate(-12.154549,-19.817553)">
    <path
       style="fill:#5f5f61;stroke:none;stroke-width:0.352778"
       d="m 48.455381,23.274776 c -0.03528,-0.03528 -0.105833,-0.03528 -0.176389,-0.07056 -0.705556,-0.352778 -1.446389,-0.529167 -2.2225,-0.564445 -1.023056,0 -2.010833,0.141111 -3.033889,0.458611 -0.3175,0.07056 -0.670278,0.211667 -0.987778,0.352778 -0.388055,0.211667 -0.740833,0.458611 -1.093611,0.705556 -0.07056,0.07056 -0.141111,0.176388 -0.211666,0.246944 -1.481667,0.740833 -2.786945,1.834444 -3.915834,3.280833 0,0.03528 0,0.07056 0,0.105834 -0.03528,-0.03528 -0.03528,-0.03528 -0.07055,-0.03528 -0.458611,0.246944 -0.811389,0.564444 -1.164167,0.9525 -0.211666,0.246944 -0.352778,0.493889 -0.493889,0.776111 -0.564444,-0.07056 -1.128888,-0.141111 -1.693333,-0.211667 -0.282222,-0.03528 -0.564444,-0.07055 -0.881944,-0.105833 -0.846672,-0.105826 -1.728616,-0.21166 -2.575283,-0.282215 -0.493889,-0.07056 -0.9525,-0.105834 -1.446389,-0.176389 -0.846666,-0.141111 -1.728611,-0.211667 -2.610555,-0.211667 -0.3175,-0.07056 -0.635,0 -0.917222,0.105833 -0.176389,0.07056 -0.3175,0.141112 -0.458611,0.211667 -0.246945,0.105833 -0.388056,0.3175 -0.388056,0.564445 0,0.211666 0,0.423333 0,0.670277 0.105833,0.105834 0.246944,0.246945 0.388056,0.3175 0.282222,0.211667 0.599722,0.352778 0.952499,0.493889 0.07056,0.03528 0.176389,0.105834 0.246945,0.141111 0.03528,0.03528 0.07056,0.03528 0.07056,0.07056 -0.493889,0.105833 -1.023056,0.246944 -1.516944,0.423333 -0.423334,0.105834 -0.846667,0.211667 -1.27,0.246945 -0.105834,0.03528 -0.176389,0.105833 -0.211667,0.211666 -0.03528,0.141111 -0.07056,0.3175 -0.105833,0.458611 -0.03528,0.458612 -0.07056,0.881945 -0.105834,1.305278 -0.07056,0.776111 -0.211666,1.516945 -0.388055,2.293056 -0.07056,0.141111 -0.105834,0.282222 -0.176389,0.423333 -0.105833,0.176389 -0.105833,0.352778 -0.105833,0.529167 -0.282223,-0.07056 -0.599723,-0.105834 -0.917223,-0.176389 v 0 c 0,-0.03528 0,-0.03528 0,-0.03528 -0.03528,-0.141111 -0.141111,-0.176389 -0.282222,-0.176389 -0.03528,0.03528 -0.105833,0.03528 -0.176389,0.07056 -0.03528,0 -0.07055,0 -0.105833,0 -0.105833,-0.03528 -0.211667,-0.105834 -0.352778,-0.141111 -0.282222,-0.07056 -0.599722,-0.141112 -0.9525,-0.141112 -0.176389,-0.105833 -0.388055,-0.141111 -0.635,-0.07055 -0.03528,0 -0.07056,0 -0.07056,0 -0.03528,-0.03528 -0.105833,-0.03528 -0.176389,-0.03528 -0.03528,0 -0.105833,0.03528 -0.141111,0.03528 -0.776111,0.352778 -1.552222,0.705555 -2.363611,1.023055 -0.776111,0.3175 -1.552222,0.670278 -2.328333,1.093611 -0.03528,0 -0.07056,0.03528 -0.105833,0.03528 -0.176389,0.07056 -0.282223,0.141111 -0.352778,0.246945 -0.03528,0 -0.03528,0 -0.03528,0 -0.03528,0 -0.03528,0 -0.03528,0 -0.141111,0.105833 -0.176389,0.246944 -0.176389,0.388055 0,0.388056 0,0.776111 0,1.199445 -0.07056,0.846666 -0.105834,1.728611 -0.105834,2.610555 0.03528,0.846667 0.03528,1.728611 0.03528,2.610556 0,0.423333 -0.03528,0.881944 -0.105833,1.305277 -0.105833,0.740834 -0.141111,1.516945 -0.141111,2.293056 0.03528,0.881944 0.03528,1.763889 0,2.610555 0,0.635 -0.07056,1.27 -0.141111,1.940278 0,0.03528 0,0.105833 0.03528,0.105833 0,0.03528 0,0.03528 0.03528,0.03528 -0.03528,0 -0.03528,0 -0.03528,0 -0.07056,0.03528 -0.105833,0.03528 -0.105833,0.105834 0,0.03528 0,0.03528 0,0.03528 0,0 0,0 0,0.03528 0,0 0,0 0,0.03528 0.176389,0.105833 0.352777,0.105833 0.529166,0.141111 0.881945,0.07056 1.728611,0.211667 2.575278,0.423333 0.564444,0.176389 1.164167,0.282223 1.799167,0.3175 0.811389,0.105834 1.622777,0.176389 2.434166,0.352778 0.811389,0.141111 1.658056,0.282222 2.504722,0.352778 0.246945,0 0.529167,0.03528 0.776112,0.105833 0.740833,0.07056 1.446388,0.176389 2.151944,0.352778 0.211667,0 0.388055,0.03528 0.599722,0.03528 0.564445,0.03528 1.128889,0.07055 1.693333,0.105833 0.881945,0.03528 1.728612,0.141111 2.575278,0.282222 0.03528,0 0.07056,0 0.07056,0.03528 0,0.07056 -0.03528,0.07056 -0.07056,0.141111 -0.635,1.164167 -1.058333,2.398889 -1.234722,3.704167 -0.03528,0 -0.07055,0.07055 -0.07055,0.105833 -0.176389,0.599722 -0.246945,1.234722 -0.211667,1.869722 0,0.423334 0.07056,0.846667 0.176389,1.27 0.03528,0.211667 0.141111,0.458611 0.211667,0.670278 0.07056,0.352778 0.176389,0.776111 0.282222,1.128889 0,0.03528 0,0.07055 0,0.105833 0.07056,0.07056 0.141111,0.141111 0.176389,0.176389 0.03528,0.07056 0.03528,0.07056 0.03528,0.105833 0.246944,0.493889 0.564444,0.881945 1.023055,1.199445 0.352778,0.246944 0.776111,0.493889 1.199445,0.670278 1.940278,1.481666 4.233333,2.610555 6.843889,3.457222 0,0 0,0 0,0.03528 0.246944,1.446388 0.352777,2.822222 0.3175,4.198055 h 0.03528 c -0.03528,0.352778 -0.03528,0.705556 -0.03528,1.093611 0,0.176389 0,0.352778 0.03528,0.529167 -0.03528,0.03528 -0.03528,0.03528 -0.03528,0.03528 -0.141112,0.141111 -0.246945,0.3175 -0.282223,0.493888 -0.352777,0.03528 -0.705555,0.07056 -1.023055,0.105834 -0.635,0.07055 -1.234722,0.105833 -1.834445,0.176389 -0.776111,0.07055 -1.481666,0.282222 -2.116666,0.599722 -0.105834,0.07055 -0.211667,0.141111 -0.282222,0.246944 -0.176389,0.246945 -0.211667,0.529167 -0.105834,0.811389 0.176389,0.493889 0.564445,0.635 1.128889,0.529167 0.846667,-0.211667 1.693333,-0.423334 2.54,-0.599722 0.105833,-0.03528 0.246944,-0.07056 0.388056,-0.105834 -0.246945,0.246945 -0.493889,0.529167 -0.705556,0.811389 -0.03528,0.03528 -0.105833,0.07056 -0.141111,0.07056 -0.493889,0.3175 -0.705556,0.740833 -0.670278,1.27 0,0.352777 0.176389,0.529166 0.529167,0.599722 0.493889,0.07056 0.846666,-0.105833 1.023055,-0.458611 0,-0.03528 0,-0.03528 0,-0.03528 0.388056,-0.529167 0.881945,-0.987778 1.411111,-1.340556 0.3175,-0.211666 0.599723,-0.388055 0.846667,-0.635 0.705556,-0.564444 1.446389,-0.987777 2.328333,-1.234722 0.07056,0 0.176389,-0.07055 0.246945,-0.141111 0.03528,0 0.07055,0 0.105833,0 0.246945,0 0.423333,-0.105833 0.599722,-0.282222 0.105834,-0.141111 0.141111,-0.282222 0.141111,-0.458611 0.03528,-0.493889 -0.211666,-0.776111 -0.740833,-0.811389 -0.423333,0.176389 -0.881944,0.3175 -1.305278,0.493889 -0.211666,0.07055 -0.423333,0.141111 -0.635,0.176389 -0.03528,-0.211667 -0.176389,-0.388056 -0.352777,-0.493889 -0.03528,-0.03528 -0.03528,-0.07056 -0.03528,-0.105833 -0.07056,-0.423334 -0.141111,-0.881945 -0.141111,-1.340556 h 0.07055 c -0.141111,-1.199444 -0.246944,-2.504722 -0.246944,-3.845278 0,-0.03528 0,-0.07055 0,-0.105833 0.423333,0.07056 0.811389,0.141111 1.199444,0.211667 0.211667,0.07055 0.388056,0.141111 0.599722,0.211666 0.3175,0.07056 0.635,0.141111 0.9525,0.176389 0.635,0.07056 1.27,0.07056 1.905,0.03528 1.834445,0.211667 3.704167,0.388056 5.573889,0.529167 0.07056,0 0.105833,0 0.141111,0 0.141111,0.776111 0.282222,1.516944 0.458611,2.293055 0,0.07056 0,0.176389 0.03528,0.246945 0.07056,0.423333 0.211667,0.846666 0.3175,1.27 0.07056,0.246944 0.105833,0.493888 0.176389,0.776111 0.03528,0.246944 0.141111,0.458611 0.282222,0.529166 -0.105833,-0.03528 -0.246944,-0.07055 -0.388055,-0.07055 -0.3175,-0.07056 -0.599723,-0.141111 -0.917223,-0.211667 -0.352777,-0.282222 -0.740833,-0.458611 -1.164166,-0.564444 -0.176389,-0.141111 -0.388056,-0.211667 -0.635,-0.211667 -0.423333,0.07056 -0.599722,0.352778 -0.599722,0.811389 0,0.282222 0.141111,0.493889 0.352777,0.635 0.07056,0.176389 0.246945,0.3175 0.493889,0.352778 0.458611,0.141111 0.917223,0.246944 1.375834,0.352777 0.246944,0.03528 0.493888,0.141111 0.740833,0.211667 0.211667,0.105833 0.423333,0.176389 0.670278,0.246944 0,0 0,0 0,0 0.141111,0.352778 0.388055,0.635 0.740833,0.811389 0.423333,0.211667 0.881944,0.493889 1.27,0.776111 0.176389,0.282223 0.458611,0.529167 0.705556,0.740834 0.176388,0.176389 0.423333,0.3175 0.670277,0.388055 0.03528,0.03528 0.07056,0.07056 0.105834,0.141111 0.211666,0.211667 0.423333,0.388056 0.635,0.493889 0.07056,0.03528 0.105833,0.07056 0.141111,0.07056 0.282222,0.211667 0.564444,0.211667 0.881944,0.07055 0.176389,-0.105833 0.282222,-0.246944 0.211667,-0.388055 0,-0.03528 0,-0.03528 0,-0.07056 0,-0.141111 -0.03528,-0.282222 -0.176389,-0.388055 -0.07056,-0.03528 -0.141111,-0.07056 -0.176389,-0.105834 -0.388056,-0.493888 -0.811389,-0.917222 -1.27,-1.27 -0.105833,-0.07055 -0.176389,-0.141111 -0.282222,-0.176388 -0.246945,-0.176389 -0.493889,-0.388056 -0.740833,-0.599723 0.423333,0.105834 0.846666,0.176389 1.269999,0.282223 0.141112,0.07055 0.246945,0.105833 0.352778,0.141111 0.07056,0 0.105834,0 0.141111,0.03528 0,0 0.07056,0 0.105834,0.03528 0.352777,0.105834 0.740833,0.246945 1.128889,0.352778 0.423333,0.141111 0.811388,0.3175 1.234722,0.493889 0.176389,0.07055 0.352778,0.07055 0.529166,-0.03528 0.3175,-0.141111 0.458612,-0.423333 0.423334,-0.776111 -0.07056,-0.493889 -0.3175,-0.811389 -0.811389,-0.9525 -0.141111,-0.03528 -0.3175,-0.07056 -0.493889,-0.141111 -0.246944,-0.03528 -0.529167,-0.105833 -0.776111,-0.176389 -0.811389,-0.176389 -1.693333,-0.388055 -2.504722,-0.635 0,0.03528 -0.07056,0.03528 -0.07056,0.03528 -0.07055,-0.03528 -0.176389,0 -0.246944,0 -0.03528,0 -0.07056,0 -0.105834,-0.03528 -0.176388,-0.07055 -0.423333,-0.141111 -0.635,-0.211667 -0.282222,-0.07055 -0.564444,-0.141111 -0.846666,-0.176388 0,-0.3175 -0.07056,-0.599723 -0.211667,-0.881945 -0.176389,-0.740833 -0.423333,-1.481667 -0.670278,-2.2225 0,-0.07055 -0.03528,-0.141111 -0.105833,-0.246944 0,-0.03528 -0.03528,-0.07056 -0.03528,-0.105834 -0.141111,-0.529166 -0.211666,-1.093611 -0.3175,-1.693333 0,-0.03528 0,-0.07055 0,-0.105833 0.9525,-0.07056 1.834445,-0.176389 2.681111,-0.282222 0.246945,0 0.493889,-0.03528 0.740834,-0.03528 0.564444,-0.03528 1.128888,-0.176389 1.622777,-0.458611 2.786945,-0.705556 5.044722,-1.905 6.879167,-3.563056 0,0 0.03528,-0.03528 0.07055,-0.03528 0.599723,-1.234722 1.340556,-2.328333 2.293056,-3.245555 0,-0.03528 0,-0.03528 0.07055,-0.03528 1.340556,-2.645833 2.610556,-5.291666 3.880556,-7.902222 0.03528,-0.03528 0.07056,-0.105833 0.105833,-0.141111 0.635,-0.776111 1.199445,-1.552222 1.658056,-2.363611 0.246944,-0.423333 0.458611,-0.846667 0.635,-1.234722 0.3175,-0.705556 0.564444,-1.375834 0.670278,-2.081389 0.176388,-0.3175 0.388055,-0.599722 0.635,-0.846667 0.105833,-0.07055 0.176388,-0.211666 0.211666,-0.3175 0.105834,-0.529166 -0.03528,-0.881944 -0.493889,-1.093611 -0.176389,-0.141111 -0.423333,-0.246944 -0.670277,-0.246944 -0.176389,0.03528 -0.352778,0.07055 -0.493889,0.176389 -0.458611,0.211666 -0.917223,0.423333 -1.375834,0.635 -0.282222,-0.03528 -0.423333,-0.141112 -0.352777,-0.3175 0,-0.03528 0.03528,-0.03528 0.07056,-0.03528 0.176389,-0.529167 0.105833,-0.917222 -0.211667,-1.128889 -0.07055,-0.176389 -0.211666,-0.282222 -0.458611,-0.352778 -0.141111,0 -0.246944,0 -0.352777,0 -0.07056,0 -0.105834,0.03528 -0.141111,0.07056 -0.388056,0.423333 -0.846667,0.811389 -1.340556,1.164166 -0.282222,0.141111 -0.493889,0.3175 -0.776111,0.493889 -0.388056,0.211667 -0.740833,0.458611 -1.164167,0.705556 -0.493889,0.282222 -1.023055,0.635 -1.516944,0.987778 -0.105833,-0.282223 -0.246945,-0.564445 -0.388056,-0.846667 -0.423333,-0.811389 -0.9525,-1.481667 -1.658055,-2.010833 -0.493889,-0.423334 -0.9525,-0.881945 -1.375834,-1.375834 -0.176388,-0.246944 -0.423333,-0.458611 -0.635,-0.670277 -0.352777,-0.3175 -0.705555,-0.635 -1.058333,-0.9525 -0.07055,-0.105834 -0.176389,-0.211667 -0.246944,-0.282223 -0.529167,-0.705555 -1.093611,-1.340555 -1.693334,-1.975555 0,0 0,-0.03528 -0.03528,-0.07056 -0.211667,-0.3175 -0.458611,-0.670277 -0.670278,-1.023055 -0.105833,-0.176389 -0.211667,-0.352778 -0.3175,-0.529167 l -0.03528,-0.07055 c -0.141091,-0.246979 -0.246924,-0.493923 -0.282202,-0.776146 -0.105833,-0.105833 -0.176389,-0.282222 -0.211667,-0.493888 0,-0.03528 0,-0.07056 0,-0.07056 0.105834,-0.3175 0.246945,-0.599722 0.352778,-0.881944 0.141111,-0.3175 0.282222,-0.670278 0.388056,-1.023056 0.105833,-0.529167 -0.03528,-0.846667 -0.458612,-0.987778 0.07056,-0.564444 0.105834,-1.128889 0.141112,-1.728611 0,-0.811389 -0.03528,-1.658055 -0.105834,-2.469444 0,-0.423333 -0.07055,-0.811389 -0.176389,-1.234722 -0.07055,-0.599723 -0.176389,-1.199445 -0.282222,-1.763889 -0.105833,-0.493889 -0.282222,-0.9525 -0.493889,-1.411111 -0.07055,-0.176389 -0.105833,-0.352778 -0.176389,-0.493889 -0.105833,-0.211667 -0.176388,-0.388056 -0.282222,-0.564445 -0.07055,-0.176388 -0.176389,-0.352777 -0.282222,-0.529166 -0.423333,-0.529167 -0.881944,-0.987778 -1.481667,-1.305278 -0.282222,-0.352778 -0.564444,-0.705556 -0.811389,-1.023056 -0.176388,-0.211666 -0.352777,-0.388055 -0.599722,-0.493888 -0.740833,-0.423334 -1.5875,-0.705556 -2.469444,-0.881945 z m 2.822222,54.468888 c 0.03528,0 0.07056,0 0.07056,0 h 0.03528 c -0.03528,0 -0.07055,0 -0.105833,0 z m -8.501944,-46.17861 c 0.03528,-0.105834 0.07055,-0.211667 0.105833,-0.352778 0.141111,-0.599722 0.564445,-1.023056 1.164167,-1.199444 0.3175,-0.105834 0.599722,-0.211667 0.881944,-0.352778 0.141111,-0.07056 0.246945,-0.176389 0.3175,-0.3175 0.141111,-0.03528 0.282222,-0.07056 0.423333,-0.105834 0.141112,-0.03528 0.246945,-0.07056 0.388056,-0.07056 0.423333,0.141111 0.811389,0.3175 1.234722,0.599722 0.141111,0.105833 0.282222,0.246945 0.352778,0.423333 0.246944,0.458612 0.388056,0.917223 0.458611,1.375834 -0.176389,0.458611 -0.352778,0.917222 -0.529167,1.375833 -0.423333,0.388056 -0.881944,0.740833 -1.340555,1.093611 -0.423333,0.105833 -0.811389,0.176389 -1.234722,0.282222 -0.458611,-0.141111 -0.9525,-0.3175 -1.375834,-0.458611 -0.176388,-0.176389 -0.388055,-0.3175 -0.564444,-0.493889 -0.105833,-0.105833 -0.246944,-0.176388 -0.3175,-0.282222 -0.105833,-0.246944 -0.141111,-0.493889 -0.211667,-0.740833 0,0 0,0 0,0 0.07056,-0.282222 0.141111,-0.529167 0.246945,-0.776111 z M 26.759548,30.224498 c -0.07056,-0.03528 -0.176389,-0.07055 -0.282222,-0.141111 0.07056,0 0.141111,0 0.211667,0 0.881944,-0.03528 1.728611,0.03528 2.575277,0.211667 0.211667,0.07055 0.423333,0.105833 0.599722,0.176389 0.846667,0.246944 1.693334,0.423333 2.54,0.529166 0.141111,0.03528 0.246945,0.03528 0.352778,0.07056 0.529167,0.105833 1.093611,0.176389 1.622778,0.176389 -0.176389,0.3175 -0.352778,0.670278 -0.493889,1.023055 -0.03528,0.105834 -0.105833,0.176389 -0.141111,0.246945 -0.388056,0.423333 -0.599722,0.917222 -0.705556,1.411111 -0.07055,-0.282222 -0.176389,-0.599722 -0.282222,-0.881945 -0.141111,-0.3175 -0.282222,-0.599722 -0.458611,-0.881944 0,0 0,-0.03528 -0.03528,-0.03528 -0.3175,-0.529166 -0.811389,-0.881944 -1.411111,-1.093611 -0.846667,-0.282222 -1.693333,-0.423333 -2.575277,-0.423333 -0.03528,0 -0.07055,-0.03528 -0.105834,-0.03528 -0.141111,0 -0.3175,0 -0.493889,0.03528 0,-0.03528 0,-0.07056 0,-0.07056 0,-0.03528 0,-0.03528 0,-0.03528 -0.03528,-0.03528 -0.07056,-0.03528 -0.105833,-0.03528 -0.28222,-0.07055 -0.529165,-0.141104 -0.811387,-0.246938 z m -1.234722,2.716389 c 0.141111,-0.105833 0.282222,-0.176389 0.423333,-0.246944 0.493889,-0.3175 1.023056,-0.493889 1.622778,-0.564445 0.07055,0 0.141111,0 0.176389,-0.03528 0.458611,0.458612 0.917222,0.846667 1.446389,1.164167 0.176389,0.141111 0.352778,0.246944 0.529166,0.388056 0.352778,0.282222 0.705556,0.599722 1.058334,0.917222 0.176388,0.176389 0.246944,0.352778 0.3175,0.564444 0.03528,0.3175 0.07056,0.635 0.07056,0.987778 0,0.493889 -0.03528,0.987778 -0.07056,1.446389 -0.211667,-0.03528 -0.388056,-0.03528 -0.564445,-0.03528 -0.352778,0.03528 -0.670278,0 -0.987777,-0.03528 -0.388056,-0.03528 -0.776111,-0.07055 -1.128889,-0.07055 -0.740834,-0.03528 -1.446389,-0.07056 -2.151945,-0.105834 -0.07056,0 -0.141111,0 -0.246944,-0.03528 -0.740833,-0.07056 -1.481667,-0.141111 -2.2225,-0.246945 0,-0.03528 0.03528,-0.03528 0.07056,-0.03528 -0.07056,0 -0.105833,0 -0.176389,0 0,0 0,0 -0.03528,0 -0.07056,0 -0.141111,0 -0.176389,0 0,-0.141111 0.03528,-0.282222 0,-0.458611 0.07056,-0.03528 0.07056,-0.105833 0.07056,-0.176389 0.03528,-0.211666 0.105833,-0.423333 0.141111,-0.635 0.141111,-0.388055 0.282222,-0.776111 0.423334,-1.128888 0.07056,-0.03528 0.105833,-0.105834 0.141111,-0.176389 0,-0.03528 0,-0.07056 0,-0.105834 0.282222,-0.564444 0.740833,-1.058333 1.27,-1.375833 z m 15.239999,9.771944 c -0.07056,0.105834 -0.141111,0.176389 -0.176388,0.282223 -0.176389,0.141111 -0.3175,0.282222 -0.458612,0.458611 -0.03528,0.03528 -0.07055,0.07055 -0.07055,0.105833 -0.423333,0.564444 -0.811389,1.093611 -1.164167,1.5875 0,0 0,0 -0.03528,-0.03528 -0.211667,-0.388055 -0.458612,-0.776111 -0.599723,-1.199444 0,-0.03528 0,-0.03528 0,-0.03528 -0.211666,-0.423333 -0.423333,-0.811389 -0.599722,-1.234722 0.705556,0.282222 1.446389,0.3175 2.257778,0.07055 0.282222,0.105834 0.564444,0.105834 0.846666,0 z M 17.798993,36.927276 c 0.176389,-0.105833 0.352778,-0.211667 0.493889,-0.352778 0.493889,0.03528 0.987778,0.105833 1.481666,0.176389 -0.176388,0.03528 -0.352777,0.03528 -0.493888,0.07056 -0.493889,0.03528 -0.987778,0.07055 -1.481667,0.105833 z m -3.457222,1.411111 c 0.352778,0.282222 0.635,0.599722 0.917222,0.917222 -0.352778,0.282222 -0.705556,0.564445 -1.023056,0.881945 -0.07056,0.07055 -0.141111,0.141111 -0.211666,0.211666 -0.3175,0.352778 -0.635,0.705556 -0.917222,1.093611 0.03528,-0.493889 0.03528,-0.987777 0.07056,-1.481666 0,-0.246945 0.03528,-0.458611 0.03528,-0.670278 0.03528,-0.141111 0,-0.282222 -0.03528,-0.423333 0.246944,-0.07056 0.493888,-0.211667 0.776111,-0.352778 0.07056,-0.03528 0.141111,-0.105834 0.211666,-0.105834 0.03528,-0.03528 0.105834,-0.03528 0.176389,-0.07055 z m 3.104444,4.445 c 0.03528,-0.03528 0.03528,-0.105833 0.07056,-0.141111 0,-0.03528 0.03528,0 0.03528,0 0,0.07055 0,0.105833 -0.03528,0.141111 -0.03528,0.07055 -0.07056,0.07055 -0.105833,0.03528 z m -4.550833,8.960555 c 0,-0.211666 0,-0.458611 0,-0.670278 0.07056,0.141112 0.176389,0.3175 0.3175,0.458612 0.246944,0.3175 0.529167,0.635 0.811389,0.987777 0.423333,0.599723 0.917222,1.164167 1.446389,1.763889 -0.141112,-0.07055 -0.282223,-0.105833 -0.423334,-0.141111 -0.776111,-0.176389 -1.552222,-0.3175 -2.328333,-0.388056 0,0 0,-0.07055 0,-0.07055 0.03528,-0.105833 0.07056,-0.211667 0.07056,-0.282222 0.07056,-0.529167 0.105833,-1.093611 0.105833,-1.658056 z M 33.285937,38.479498 c -0.03528,0 -0.07056,0 -0.105834,0 0.03528,-0.3175 0.07056,-0.635 0.07056,-0.9525 0.493889,0.176389 1.023055,0.246945 1.552222,0.3175 0.493889,0.03528 0.9525,0.07056 1.446389,0.176389 0.07056,0 0.176389,0.03528 0.282222,0.03528 0.529167,0.03528 1.058334,0.141111 1.552222,0.246944 0.423334,0.105833 0.846667,0.176389 1.27,0.176389 0.07056,0.03528 0.176389,0.03528 0.282223,0.07056 0,0 0,0 0.03528,0 0.670278,0.176388 1.340556,0.352777 2.010834,0.493888 0.3175,0.07056 0.670277,0.141112 0.9525,0.246945 0.3175,0.246944 0.599722,0.458611 0.881944,0.705555 0.141111,0.07056 0.246945,0.141112 0.3175,0.211667 0.141111,0.07056 0.246945,0.141111 0.388056,0.211667 0,0.07056 0,0.141111 -0.03528,0.211666 0.03528,0.07056 0.105833,0.141112 0.141111,0.211667 -0.105833,0.564445 -0.105833,1.128889 -0.105833,1.728611 -0.105834,0.176389 -0.141111,0.423334 -0.176389,0.670278 -0.03528,0.846667 -0.03528,1.728611 -0.03528,2.610555 0,0.846667 0.03528,1.728612 0.141111,2.575278 0.07056,0.423333 0.105833,0.846667 0.141111,1.27 0.03528,0.881945 0.07056,1.763889 0.03528,2.645833 0,0.881945 0,1.728611 0.03528,2.575278 0,0.07056 0,0.141111 0,0.176389 0,0.423333 0.03528,0.846667 0.03528,1.234722 -0.740833,0.352778 -1.481666,0.740834 -2.222499,1.128889 -0.811389,0.388056 -1.552223,0.846667 -2.293056,1.305278 -0.07056,0.07055 -0.176389,0.141111 -0.246944,0.176389 -0.246945,0.105833 -0.529167,0.211666 -0.740834,0.3175 -0.105833,-0.03528 -0.211666,-0.07056 -0.3175,-0.105834 -0.776111,-0.282222 -1.622777,-0.564444 -2.469444,-0.740833 -0.529167,-0.07055 -1.058333,-0.176389 -1.5875,-0.246944 -0.03528,-0.03528 -0.07056,-0.03528 -0.07056,-0.07056 -0.423333,-0.141111 -0.811388,-0.352778 -1.164166,-0.599722 -0.246945,-0.03528 -0.635,-0.105833 -1.164167,-0.211667 -0.03528,0 -0.07056,0 -0.105833,0 -0.282222,-0.105833 -0.564445,-0.211666 -0.811389,-0.352778 -0.105833,0 -0.211667,-0.03528 -0.282222,-0.07055 0.03528,-0.105833 0.105833,-0.211667 0.141111,-0.3175 0.493889,0.176389 0.987778,0.282222 1.552222,0.3175 0.141111,0 0.3175,0.03528 0.493889,0.07055 0.3175,0.03528 0.670278,0.105834 0.987778,0.176389 0.846666,0.141111 1.693333,0.3175 2.54,0.529167 0.282222,0.03528 0.458611,0 0.529166,-0.211667 0,-0.03528 0.03528,-0.03528 0.07056,-0.07055 0.105833,-0.07056 0.246944,-0.211667 0.352778,-0.3175 0.246944,-0.282222 0.529166,-0.529167 0.811388,-0.776111 0.176389,-0.141111 0.352778,-0.246945 0.493889,-0.352778 0.282223,0.388055 0.564445,0.776111 0.917222,1.128889 0.141112,0.141111 0.282223,0.176389 0.458612,0.105833 0.246944,-0.105833 0.564444,-0.211667 0.811388,-0.3175 0.388056,-0.141111 0.740834,-0.3175 1.128889,-0.458611 0.141111,-0.07056 0.246945,-0.141111 0.3175,-0.282222 0.03528,-0.03528 0.07056,-0.141111 0.07056,-0.211667 0.03528,-0.176389 0.105833,-0.352778 0.211667,-0.529167 0.141111,-0.246944 0.3175,-0.493888 0.493888,-0.740833 0.211667,-0.388055 0.423334,-0.740833 0.599723,-1.128889 0,0 0,0 0,-0.03528 -0.03528,-0.03528 -0.03528,-0.03528 -0.03528,-0.07055 0,-0.246944 0,-0.458611 0,-0.670278 -0.07056,-0.881944 -0.105833,-1.763889 -0.176389,-2.610555 -0.03528,-0.846667 -0.03528,-1.693334 -0.07056,-2.504722 0,-0.141112 0,-0.246945 0,-0.352778 0.03528,-0.670278 -0.03528,-1.305278 -0.211666,-1.940278 -0.03528,-0.388056 -0.03528,-0.776111 -0.03528,-1.164167 0.105833,-0.03528 0.141111,-0.141111 0.176389,-0.246944 0.07055,-0.670278 0.07055,-1.305278 0.07055,-1.975556 -0.03528,-0.423333 -0.03528,-0.846666 0,-1.234722 0,-0.03528 -0.03528,-0.07056 -0.03528,-0.105833 -0.03528,-0.07056 -0.07056,-0.07056 -0.141111,-0.105833 -0.670278,-0.07056 -1.340556,-0.211667 -1.975556,-0.458612 v 0 c 0,0 0,0 -0.03528,-0.03528 -0.211666,-0.03528 -0.388055,-0.105834 -0.564444,-0.141111 -0.599722,-0.07056 -1.199445,-0.176389 -1.763889,-0.352778 -0.458611,-0.105834 -0.881944,-0.211667 -1.340556,-0.3175 -0.599722,-0.105834 -1.164166,-0.211667 -1.799166,-0.246945 -0.211667,0 -0.423334,-0.03528 -0.599722,-0.07055 -0.03528,0 -0.03528,0 -0.07056,0 -0.03528,0 -0.07056,0 -0.105833,0 -0.211667,0 -0.388056,-0.07056 -0.564445,-0.141111 -0.423333,-0.105834 -0.881944,-0.176389 -1.340555,-0.211667 z"
       id="path19" />
    <path
       style="fill:#ffffff;stroke:none;stroke-width:0.352778"
       d="m 42.881492,31.212276 c -0.03528,0.141111 -0.07056,0.246944 -0.105833,0.352778 -0.105834,0.246944 -0.176389,0.493889 -0.246945,0.776111 0,0 0,0 0,0 0.07056,0.246944 0.105834,0.493889 0.211667,0.740833 0.07056,0.105834 0.211667,0.176389 0.3175,0.282222 0.176389,0.176389 0.388056,0.3175 0.564444,0.493889 0.423334,0.141111 0.917223,0.3175 1.375834,0.458611 0.423333,-0.105833 0.811389,-0.176389 1.234722,-0.282222 0.458611,-0.352778 0.917222,-0.705555 1.340555,-1.093611 0.176389,-0.458611 0.352778,-0.917222 0.529167,-1.375833 -0.07056,-0.458611 -0.211667,-0.917222 -0.458611,-1.375834 -0.07056,-0.176388 -0.211667,-0.3175 -0.352778,-0.423333 -0.423333,-0.282222 -0.811389,-0.458611 -1.234722,-0.599722 -0.141111,0 -0.246944,0.03528 -0.388056,0.07056 -0.141111,0.03528 -0.282222,0.07056 -0.423333,0.105834 -0.07055,0.141111 -0.176389,0.246944 -0.3175,0.3175 -0.282222,0.141111 -0.564444,0.246944 -0.881944,0.352778 -0.599722,0.176388 -1.023056,0.599722 -1.164167,1.199444 z m 2.8575,0.846667 c 0.03528,0.246944 -0.03528,0.458611 -0.211667,0.599722 -0.141111,0.176389 -0.352777,0.211667 -0.599722,0.176389 -0.423333,-0.141111 -0.705555,-0.423334 -0.705555,-0.881945 -0.07056,-0.493889 0.176388,-0.776111 0.670277,-0.811389 0.493889,0.105834 0.740834,0.423334 0.846667,0.917223 z"
       id="path20" />
    <path
       style="fill:#5f5f61;stroke:none;stroke-width:0.352778"
       d="m 45.527325,32.658665 c 0.176389,-0.141111 0.246945,-0.352778 0.211667,-0.599722 -0.105833,-0.493889 -0.352778,-0.811389 -0.846667,-0.917223 -0.493889,0.03528 -0.740833,0.3175 -0.670277,0.811389 0,0.458611 0.282222,0.740834 0.705555,0.881945 0.246945,0.03528 0.458611,0 0.599722,-0.176389 z"
       id="path21" />
    <path
       style="fill:#ffffff;stroke:none;stroke-width:0.352778"
       d="m 26.477326,30.083387 c 0.105833,0.07056 0.211667,0.105833 0.282222,0.141111 0.282222,0.105834 0.529167,0.176389 0.811389,0.246945 0.03528,0 0.07055,0 0.105833,0.03528 0,0 0,0 0,0.03528 0,0 0,0.03528 0,0.07056 0.176389,-0.03528 0.352778,-0.03528 0.493889,-0.03528 0.03528,0 0.07056,0.03528 0.105834,0.03528 0.881944,0 1.72861,0.141111 2.575277,0.423333 0.599722,0.211667 1.093611,0.564445 1.411111,1.093611 0.03528,0 0.03528,0.03528 0.03528,0.03528 0.176389,0.282222 0.3175,0.564444 0.458611,0.881944 0.105833,0.282223 0.211667,0.599723 0.282222,0.881945 0.105834,-0.493889 0.3175,-0.987778 0.705556,-1.411111 0.03528,-0.07056 0.105833,-0.141111 0.141111,-0.246945 0.141111,-0.352777 0.3175,-0.705555 0.493889,-1.023055 -0.529167,0 -1.093611,-0.07056 -1.622778,-0.176389 -0.105833,-0.03528 -0.211667,-0.03528 -0.352778,-0.07056 -0.846666,-0.105833 -1.693333,-0.282222 -2.54,-0.529166 -0.176389,-0.07056 -0.388055,-0.105834 -0.599722,-0.176389 -0.846666,-0.176389 -1.693333,-0.246945 -2.575277,-0.211667 -0.07056,0 -0.141111,0 -0.211667,0 z"
       id="path22" />
    <path
       style="fill:#ffffff;stroke:none;stroke-width:0.352778"
       d="m 40.588437,42.995054 c 0.03528,-0.105834 0.105833,-0.176389 0.176388,-0.282223 -0.282222,0.105834 -0.564444,0.105834 -0.846666,0 -0.811389,0.246945 -1.552222,0.211667 -2.257778,-0.07055 0.176389,0.423333 0.388056,0.811389 0.599722,1.234722 0,0 0,0 0,0.03528 0.141111,0.423333 0.388056,0.811389 0.599723,1.199444 0.03528,0.03528 0.03528,0.03528 0.03528,0.03528 0.352778,-0.493889 0.740834,-1.023056 1.164167,-1.5875 0,-0.03528 0.03528,-0.07056 0.07055,-0.105833 0.141112,-0.176389 0.282223,-0.3175 0.458612,-0.458611 z"
       id="path23" />
    <path
       style="fill:#ffffff;stroke:none;stroke-width:0.352778"
       d="m 18.292882,36.574498 c -0.141111,0.141111 -0.3175,0.246945 -0.493889,0.352778 0.493889,-0.03528 0.987778,-0.07056 1.481667,-0.105833 0.141111,-0.03528 0.3175,-0.03528 0.493888,-0.07056 -0.493888,-0.07056 -0.987777,-0.141111 -1.481666,-0.176389 z"
       id="path24" />
    <path
       style="fill:#ffffff;stroke:none;stroke-width:0.352778"
       d="m 15.258993,39.255609 c -0.282222,-0.3175 -0.564444,-0.635 -0.917222,-0.917222 -0.07056,0.03528 -0.141111,0.03528 -0.176389,0.07055 -0.07056,0 -0.141111,0.07056 -0.211667,0.105834 -0.282222,0.141111 -0.529166,0.282222 -0.776111,0.352778 0.03528,0.141111 0.07055,0.282222 0.03528,0.423333 0,0.211667 -0.03528,0.423333 -0.03528,0.670278 -0.03528,0.493889 -0.03528,0.987777 -0.07056,1.481666 0.282222,-0.388055 0.599722,-0.740833 0.917222,-1.093611 0.07056,-0.07055 0.141111,-0.141111 0.211667,-0.211666 0.3175,-0.3175 0.670278,-0.599723 1.023056,-0.881945 z"
       id="path25" />
    <path
       style="fill:#575757;stroke:none;stroke-width:0.352778"
       d="m 17.516771,42.642276 c -0.03528,0.03528 -0.03528,0.105833 -0.07056,0.141111 0,0 0,0 -0.03528,0.03528 0.03528,0.03528 0.07055,0.03528 0.105833,-0.03528 0.03528,-0.03528 0.03528,-0.07056 0.03528,-0.141111 0,0 -0.03528,-0.03528 -0.03528,0 z"
       id="path26" />
    <path
       style="fill:#ffffff;stroke:none;stroke-width:0.352778"
       d="m 12.895382,51.073664 c 0,0.211667 0,0.458612 0,0.670278 0,0.564445 -0.03528,1.128889 -0.105833,1.658056 0,0.07056 -0.03528,0.176389 -0.07056,0.282222 0,0 0,0.07055 0,0.07055 0.776111,0.07056 1.552222,0.211667 2.328333,0.388056 0.141111,0.03528 0.282222,0.07056 0.423333,0.141111 -0.529167,-0.599722 -1.023055,-1.164166 -1.446389,-1.763889 -0.282222,-0.352777 -0.564444,-0.670277 -0.811389,-0.987777 -0.141111,-0.141112 -0.246944,-0.3175 -0.3175,-0.458612 z"
       id="path27" />
    <path
       style="fill:#acacad;stroke:none;stroke-width:0.352778"
       d="m 31.698437,57.106164 c -0.176389,-0.07055 -0.352778,-0.105833 -0.493889,-0.176389 0.246944,0.141112 0.529167,0.246945 0.811389,0.352778 0.03528,0 0.07056,0 0.105833,0 0,0 0,0 0,-0.03528 -0.141111,-0.07055 -0.282222,-0.105833 -0.423333,-0.141111 z"
       id="path28" />
    <path
       style="fill:#cfcfcd;stroke:none;stroke-width:0.352778"
       d="m 32.12177,57.247275 c 0,0.03528 0,0.03528 0,0.03528 0.529167,0.105834 0.917222,0.176389 1.164167,0.211667 0,-0.03528 0,-0.03528 -0.03528,-0.03528 -0.352778,-0.03528 -0.740833,-0.141111 -1.128889,-0.211667 z"
       id="path29" />
    <path
       style="fill:#ffffff;stroke:none;stroke-width:0.352778"
       d="m 33.180103,38.479498 c 0.03528,0 0.07056,0 0.105834,0 0.458611,0.03528 0.917222,0.105833 1.340555,0.211667 0.176389,0.07055 0.352778,0.141111 0.564445,0.141111 0.03528,0 0.07056,0 0.105833,0 0.03528,0 0.03528,0 0.07056,0 0.176388,0.03528 0.388055,0.07055 0.599722,0.07055 0.635,0.03528 1.199444,0.141111 1.799166,0.246945 0.458612,0.105833 0.881945,0.211666 1.340556,0.3175 0.564444,0.176389 1.164167,0.282222 1.763889,0.352778 0.176389,0.03528 0.352778,0.105833 0.564444,0.141111 0.03528,0.03528 0.03528,0.03528 0.03528,0.03528 v 0 c 0.635,0.246945 1.305278,0.388056 1.975556,0.458612 0.07055,0.03528 0.105833,0.03528 0.141111,0.105833 0,0.03528 0.03528,0.07055 0.03528,0.105833 -0.03528,0.388056 -0.03528,0.811389 0,1.234722 0,0.670278 0,1.305278 -0.07055,1.975556 -0.03528,0.105833 -0.07056,0.211667 -0.176389,0.246944 0,0.388056 0,0.776111 0.03528,1.164167 0.176389,0.635 0.246944,1.27 0.211666,1.940278 0,0.105833 0,0.211666 0,0.352778 0.03528,0.811388 0.03528,1.658055 0.07056,2.504722 0.07056,0.846666 0.105833,1.728611 0.176389,2.610555 0,0.211667 0,0.423334 0,0.670278 0,0.03528 0,0.03528 0.03528,0.07055 0,0.03528 0,0.03528 0,0.03528 -0.176389,0.388056 -0.388056,0.740834 -0.599723,1.128889 -0.176388,0.246945 -0.352777,0.493889 -0.493888,0.740833 -0.105834,0.176389 -0.176389,0.352778 -0.211667,0.529167 0,0.07056 -0.03528,0.176389 -0.07056,0.211667 -0.07055,0.141111 -0.176389,0.211666 -0.3175,0.282222 -0.388055,0.141111 -0.740833,0.3175 -1.128889,0.458611 -0.246944,0.105833 -0.564444,0.211667 -0.811388,0.3175 -0.176389,0.07056 -0.3175,0.03528 -0.458612,-0.105833 -0.352777,-0.352778 -0.634999,-0.740834 -0.917222,-1.128889 -0.141111,0.105833 -0.3175,0.211667 -0.493889,0.352778 -0.282222,0.246944 -0.564444,0.493889 -0.811388,0.776111 -0.105834,0.105833 -0.246945,0.246944 -0.352778,0.3175 -0.03528,0.03528 -0.07056,0.03528 -0.07056,0.07055 -0.07056,0.211667 -0.246944,0.246945 -0.529166,0.211667 -0.846667,-0.211667 -1.693334,-0.388056 -2.54,-0.529167 -0.3175,-0.07055 -0.670278,-0.141111 -0.987778,-0.176389 -0.176389,-0.03528 -0.352778,-0.07055 -0.493889,-0.07055 -0.564444,-0.03528 -1.058333,-0.141111 -1.552222,-0.3175 -0.03528,0.105833 -0.105834,0.211667 -0.141111,0.3175 0.07056,0.03528 0.176389,0.07055 0.282222,0.07055 0.141111,0.07056 0.3175,0.105834 0.493889,0.176389 0.141111,0.03528 0.282222,0.07056 0.423333,0.141111 0.388056,0.07056 0.776111,0.176389 1.128889,0.211667 0.03528,0 0.03528,0 0.03528,0.03528 0.352778,0.246944 0.740833,0.458611 1.164166,0.599722 0,0.03528 0.03528,0.03528 0.07056,0.07056 0.529167,0.07055 1.058333,0.176389 1.5875,0.246944 0.846667,0.176389 1.693333,0.458611 2.469444,0.740833 0.105834,0.03528 0.211667,0.07056 0.3175,0.105834 0.211667,-0.105834 0.493889,-0.211667 0.740834,-0.3175 0.07055,-0.03528 0.176388,-0.105834 0.246944,-0.176389 0.740833,-0.458611 1.481667,-0.917222 2.293056,-1.305278 0.740833,-0.388055 1.481666,-0.776111 2.222499,-1.128889 0,-0.388055 -0.03528,-0.811389 -0.03528,-1.234722 0,-0.03528 0,-0.105833 0,-0.176389 -0.03528,-0.846667 -0.03528,-1.693333 -0.03528,-2.575278 0.03528,-0.881944 0,-1.763888 -0.03528,-2.645833 -0.03528,-0.423333 -0.07055,-0.846667 -0.141111,-1.27 -0.105833,-0.846666 -0.141111,-1.728611 -0.141111,-2.575278 0,-0.881944 0,-1.763888 0.03528,-2.610555 0.03528,-0.246944 0.07055,-0.493889 0.176389,-0.670278 0,-0.599722 0,-1.164166 0.105833,-1.728611 -0.03528,-0.07056 -0.105833,-0.141111 -0.141111,-0.211667 0.03528,-0.07055 0.03528,-0.141111 0.03528,-0.211666 -0.141111,-0.07056 -0.246945,-0.141111 -0.388056,-0.211667 -0.07056,-0.07055 -0.176389,-0.141111 -0.3175,-0.211667 -0.282222,-0.246944 -0.564444,-0.458611 -0.881944,-0.705555 -0.282223,-0.105833 -0.635,-0.176389 -0.9525,-0.246945 -0.670278,-0.141111 -1.340556,-0.3175 -2.010834,-0.493888 -0.03528,0 -0.03528,0 -0.03528,0 -0.105834,-0.03528 -0.211667,-0.03528 -0.282223,-0.07056 -0.423333,0 -0.846666,-0.07056 -1.27,-0.176389 -0.493888,-0.105833 -1.023055,-0.211666 -1.552222,-0.246944 -0.105833,0 -0.211666,-0.03528 -0.282222,-0.03528 -0.493889,-0.105833 -0.9525,-0.141111 -1.446389,-0.176389 -0.529167,-0.07055 -1.058333,-0.141111 -1.552222,-0.3175 0,0.3175 -0.03528,0.635 -0.07056,0.9525 z m 3.069167,0.423333 c 0,0 0,0 0,-0.03528 0,0 0,0 0.03528,0.03528 z"
       id="path30" />
    <path
       style="fill:#575757;stroke:none;stroke-width:0.352778"
       d="m 36.24927,38.867554 c 0,0.03528 0,0.03528 0,0.03528 0,0 0,0 0.03528,0 z"
       id="path31" />
    <path
       style="fill:#5f5f61;stroke:none;stroke-width:0.352778"
       d="m 51.17177,20.135054 c -0.388056,0.246944 -0.670278,0.564444 -0.881945,0.917222 -0.211666,-0.07056 -0.423333,-0.176389 -0.635,-0.3175 -0.141111,-0.03528 -0.211666,-0.105833 -0.3175,-0.211666 -0.352777,-0.246945 -0.776111,-0.352778 -1.234722,-0.282223 -0.458611,0.07056 -0.705555,0.3175 -0.705555,0.740834 0,0.03528 0,0.105833 0,0.176389 0,0 0,0.03528 0,0.03528 -0.07056,0.176389 -0.03528,0.3175 0.141111,0.388056 0.105833,0.07055 0.211666,0.105833 0.3175,0.176389 0.07056,0.03528 0.176389,0.105833 0.282222,0.176389 0.141111,0.105833 0.3175,0.246944 0.493889,0.352777 0.705555,0.493889 1.375833,0.9525 2.081389,1.411111 0.141111,0.105834 0.3175,0.211667 0.493888,0.3175 0,0.03528 0.03528,0.07056 0.03528,0.105834 0.388056,0.388055 0.846667,0.705555 1.375834,0.9525 0.776111,0.352778 1.552222,0.811389 2.222499,1.340555 0.176389,0.105834 0.352778,0.246945 0.564445,0.352778 0.03528,0 0.07055,0.03528 0.105833,0.03528 0.105834,0.105833 0.246945,0.141111 0.423334,0.211667 0.03528,0 0.07056,0 0.105833,-0.03528 0.352778,-0.211667 0.635,-0.564445 0.705555,-0.987778 0.03528,-0.105833 0.03528,-0.176389 0,-0.211667 -0.529166,-0.564444 -1.128888,-0.987777 -1.869722,-1.305277 -0.07055,0 -0.07055,-0.03528 -0.105833,-0.07056 -0.03528,-0.03528 -0.141111,-0.105833 -0.176389,-0.141111 0.105833,-0.105833 0.211667,-0.246945 0.3175,-0.388056 0.246944,-0.388055 0.423333,-0.846666 0.493889,-1.305277 0.105833,-0.740834 -0.141111,-1.340556 -0.705556,-1.799167 -0.07055,-0.07056 -0.176389,-0.141111 -0.246944,-0.176389 -0.740833,-0.493889 -1.552222,-0.740833 -2.398889,-0.776111 -0.3175,0.03528 -0.635,0.141111 -0.881944,0.3175 z"
       id="path32" />
  </g>
</svg>
