<?xml version="1.0" encoding="UTF-8" standalone="no"?>
<!-- Created with Inkscape (http://www.inkscape.org/) -->

<svg
   width="63.707596mm"
   height="67.972961mm"
   viewBox="0 0 63.707596 67.972961"
   version="1.1"
   id="svg1"
   inkscape:version="1.3 (0e150ed6c4, 2023-07-21)"
   sodipodi:docname="stickers_intense.svg"
   xmlns:inkscape="http://www.inkscape.org/namespaces/inkscape"
   xmlns:sodipodi="http://sodipodi.sourceforge.net/DTD/sodipodi-0.dtd"
   xmlns="http://www.w3.org/2000/svg"
   xmlns:svg="http://www.w3.org/2000/svg">
  <sodipodi:namedview
     id="namedview1"
     pagecolor="#ffffff"
     bordercolor="#000000"
     borderopacity="0.25"
     inkscape:showpageshadow="2"
     inkscape:pageopacity="0.0"
     inkscape:pagecheckerboard="0"
     inkscape:deskcolor="#d1d1d1"
     inkscape:document-units="mm"
     inkscape:zoom="0.74386223"
     inkscape:cx="120.31798"
     inkscape:cy="128.38399"
     inkscape:window-width="1920"
     inkscape:window-height="1027"
     inkscape:window-x="1912"
     inkscape:window-y="-8"
     inkscape:window-maximized="1"
     inkscape:current-layer="layer1" />
  <defs
     id="defs1" />
  <g
     inkscape:label="Layer 1"
     inkscape:groupmode="layer"
     id="layer1"
     transform="translate(-73.289479,-114.56459)">
    <path
       style="fill:#5f5f61;stroke:none;stroke-width:0.352778"
       d="m 132.37986,115.65059 c 0,-0.91722 -0.38806,-1.23472 -1.23472,-1.02306 0,0.0706 0,0.10584 -0.0353,0.10584 -0.42333,0.24694 -0.88194,0.49388 -1.34056,0.74083 -0.0353,0 -0.0353,0 -0.0353,0 -0.24695,0.14111 -0.45861,0.24694 -0.70556,0.38805 -0.0705,0.0706 -0.17639,0.14112 -0.28222,0.17639 0,0 -0.0353,0 -0.0706,0 0,0.0353 0,0.0353 0,0.0353 -0.14111,0.10583 -0.28222,0.17639 -0.38805,0.28222 -0.17639,0.10584 -0.35278,0.17639 -0.49389,0.24695 -0.24695,0.10583 -0.45861,0.24694 -0.635,0.38805 -1.72861,0.88195 -3.4925,1.69334 -5.36222,2.39889 v 0.0353 c -0.10584,0 -0.21167,0 -0.3175,0 -2.25778,-1.48167 -5.15056,-2.61056 -8.67834,-3.38667 -0.0353,0 -0.10583,0 -0.17639,0 -0.70555,0.0706 -1.23472,-0.0353 -1.5875,-0.35277 -0.0353,0 -0.10583,0.0353 -0.14111,0.0353 -0.14111,0.0353 -0.24694,0.10584 -0.38805,0.14111 -0.0353,0 -0.10584,0.0353 -0.14111,0.0353 -0.0706,0.0353 -0.14111,0.10584 -0.21167,0.14111 -0.635,0.14111 -1.27,0.24695 -1.94028,0.38806 -0.635,0.14111 -1.23472,0.38805 -1.79916,0.70555 -2.08139,1.30528 -4.62139,1.69334 -7.514171,1.12889 -0.282222,-0.0353 -0.493889,-0.14111 -0.670278,-0.3175 -0.635,-0.70555 -1.199444,-0.74083 -1.658055,-0.14111 -0.03528,0.24695 -0.03528,0.49389 0,0.70556 -0.105833,0.45861 -0.07056,0.88194 0.105833,1.34055 0.176389,0.45861 0.423334,0.88195 0.776111,1.23473 0,0.0353 0,0.0705 0,0.0705 0.564445,0.42333 1.128889,0.74083 1.622778,1.02306 -0.423333,0.14111 -0.881944,0.24694 -1.340555,0.28222 -0.670278,0.10583 -1.27,0.24694 -1.869723,0.45861 -0.458611,0.0353 -0.917222,-0.0353 -1.234722,-0.17639 -0.03528,0 -0.105833,0 -0.141111,-0.0353 -0.846667,-0.28222 -1.658055,-0.56444 -2.504722,-0.84666 0.03528,0.24694 0.105833,0.45861 0.246944,0.635 0.03528,0.17639 0.105834,0.3175 0.246945,0.49389 0.246944,0.28222 0.529166,0.49388 0.881944,0.67027 0.03528,0 0.105834,0.0353 0.141111,0.0706 -0.03528,0 -0.07055,0.0353 -0.141111,0.0353 -0.03528,0.0353 -0.07055,0.0353 -0.141111,0.0353 -0.03528,0 -0.105833,0.0353 -0.141111,0.0353 -1.411111,0.56445 -2.822222,0.67028 -4.268611,0.3175 -0.03528,0 -0.105833,0 -0.141111,-0.0353 -0.176389,-0.10583 -0.423333,-0.17638 -0.705556,-0.17638 -0.141111,-0.0353 -0.282222,-0.10584 -0.423333,-0.14112 -0.03528,0 -0.03528,0 -0.07056,0.0353 0,-0.0353 0,-0.0353 -0.03528,-0.0353 -0.07056,0 -0.105834,0.0353 -0.105834,0.0706 -0.03528,0.0353 -0.03528,0.0353 -0.07055,0.0706 -0.03528,0.0353 -0.03528,0.10583 0,0.17638 0,0.0353 0,0.0353 0,0.0353 0,0.0353 0,0.0353 0.03528,0.0706 0.07055,0.24694 0.176388,0.45861 0.3175,0.635 0.599722,1.34055 1.411111,2.46944 2.434166,3.35139 -1.340555,0.17639 -2.610555,0 -3.81,-0.45861 -0.987778,-0.38806 -1.905,-0.635 -2.786944,-0.74084 -0.3175,-0.0705 -0.599722,-0.10583 -0.917222,-0.14111 -0.07056,0 -0.105834,0.0353 -0.176389,0.10583 -0.105834,0.24695 -0.141111,0.49389 0,0.74084 0.246944,0.56444 0.635,1.05833 1.128889,1.44639 0.03528,0.0705 0.105833,0.14111 0.141111,0.17639 -0.846667,-0.3175 -0.987778,-0.0353 -0.352778,0.81138 0.211667,0.28223 0.246944,0.45862 0.03528,0.49389 -1.552222,0.21167 -2.998611,0.24695 -4.374445,0.0353 0,0 -0.03528,0 -0.03528,-0.0353 -0.03528,0.0353 -0.07056,0.0353 -0.07056,0.0353 -0.176389,0.45861 -0.07055,0.84667 0.3175,1.16417 0.141111,0.17639 0.282222,0.35278 0.493889,0.45861 -0.176389,-0.0353 -0.388056,-0.0353 -0.564444,-0.10583 -0.846667,-0.21167 -1.693334,-0.38806 -2.575278,-0.45862 0,0 0,0 0,0 -0.03528,0 -0.07056,-0.0705 -0.141111,-0.0705 -0.03528,0 -0.105834,0.0353 -0.141111,0.0705 -0.07056,0.0353 -0.105834,0.0706 -0.105834,0.14112 0,0.56444 0.141111,1.09361 0.423334,1.5875 0.141111,0.21166 0.282222,0.42333 0.423333,0.59972 0.282222,0.38805 0.599722,0.70555 0.9525,1.02305 0.176389,0.24695 0.105833,0.38806 -0.211667,0.35278 -0.03528,0 -0.105833,0 -0.176389,0 -0.03528,0 -0.105833,0 -0.176389,0 -1.340555,-0.38805 -2.539999,-0.52917 -3.633611,-0.38805 0,-0.0353 0,-0.0353 -0.03528,-0.0353 0,0 -0.03528,0 -0.07056,0 0,0 0,0 -0.03528,0.0353 v 0.0353 c -0.07055,0 -0.176389,0 -0.282222,0 0.141111,0.35278 0.3175,0.635 0.529167,0.84667 0.03528,0.0353 0.07055,0.0706 0.105833,0.10583 0.3175,0.3175 0.635,0.635 0.987778,0.84667 -0.03528,0.21167 -0.07056,0.42333 -0.105833,0.67028 h 0.07055 v 44.97916 h 21.096111 c 0.388055,-0.35277 0.599722,-0.88194 0.670277,-1.51694 0,-0.3175 0,-0.59972 0,-0.88195 1.340556,-0.84666 2.434167,-1.94027 3.245556,-3.31611 0.564442,-0.91722 0.952502,-1.86972 1.164162,-2.8575 0.0706,-0.35277 0.10584,-0.635 0.10584,-0.91722 0.24694,-0.45861 0.49389,-0.91722 0.77611,-1.37583 0.10583,0.14111 0.21166,0.21166 0.35278,0.3175 0.21166,0.10583 0.35277,0.0705 0.42333,-0.14111 0.21167,-0.45861 0.28222,-0.88195 0.21167,-1.34056 -0.0706,-0.35278 -0.21167,-0.77611 -0.49389,-1.19944 0,-0.0706 -0.0353,-0.10584 -0.0353,-0.17639 h -0.0706 c -0.0353,-0.10584 -0.0353,-0.21167 -0.0353,-0.28222 0.0353,-0.28223 0.0705,-0.52917 0.14111,-0.81139 0.0353,-0.21167 0.0705,-0.45861 0.10583,-0.67028 0.77611,0.28222 1.62278,0.42333 2.50472,0.35278 0.14111,0 0.21167,-0.0353 0.28222,-0.17639 0.0353,-0.0353 0.0353,-0.10584 -0.0353,-0.17639 0,0 0,-0.0353 -0.0353,-0.0353 0.21167,-0.28222 0.14111,-0.56444 -0.17639,-0.84667 -0.0353,-0.0353 -0.10583,-0.0705 -0.14111,-0.14111 -0.35278,-0.28222 -0.74083,-0.49389 -1.12889,-0.67027 -0.0353,0 -0.0706,-0.0353 -0.10583,-0.0706 -0.35278,-0.635 -0.70556,-1.27 -1.05834,-1.94028 0.0706,-0.88194 0,-1.72861 -0.21166,-2.54 -0.0353,-0.0705 -0.0353,-0.14111 -0.0706,-0.17639 -0.0353,-0.17638 -0.10583,-0.35277 -0.10583,-0.56444 -0.0706,-0.3175 -0.14111,-0.67028 -0.24695,-0.98778 0.14111,0.14111 0.24695,0.28222 0.35278,0.42334 0.0353,0.0706 0.0353,0.10583 0.0353,0.14111 l 0.17639,0.17639 c 0.35278,-0.49389 0.10583,-1.12889 -0.70556,-1.94028 -0.0353,0 -0.10583,0 -0.10583,-0.0353 -0.0353,-0.0353 -0.0706,-0.0353 -0.10583,-0.10583 -0.0353,-0.28223 -0.0706,-0.59973 -0.10584,-0.88195 0.0353,-0.0705 0.0353,-0.14111 0.0706,-0.24694 0.14111,-0.49389 0.24694,-1.02306 0.28222,-1.55222 0.0706,0.10583 0.17639,0.21166 0.24694,0.3175 0.0706,0.0353 0.10584,0.0705 0.17639,0.0353 0.35278,-0.0705 0.635,-0.28222 0.88195,-0.59972 0,-0.0353 0.0353,-0.0705 0.0353,-0.10583 0.0353,-0.49389 -0.0353,-0.91722 -0.28223,-1.34056 0,-0.0705 0,-0.10583 -0.0353,-0.14111 0,-0.0353 -0.0353,-0.0705 -0.0706,-0.10583 0,-0.10584 0,-0.24695 -0.0353,-0.35278 0.0353,-0.42333 0.0706,-0.84667 0.10584,-1.27 0.0353,-0.17639 0.0705,-0.35278 0.14111,-0.56444 1.02305,0.9525 2.2225,1.34055 3.56305,1.23472 0.38806,0 0.45861,-0.21167 0.14111,-0.59972 -0.3175,-0.35278 -0.52916,-0.84667 -0.67027,-1.44639 0,-0.0353 0,-0.10584 0,-0.17639 -0.17639,-0.77611 -0.24695,-1.65806 -0.17639,-2.64584 0.17639,0.45862 0.45861,0.84667 0.81139,1.23473 0.0706,0.0705 0.14111,0.14111 0.21166,0.21166 0.10584,0.10584 0.21167,0.17639 0.3175,0.24695 0.0353,0 0.0706,0.0353 0.10584,0.0705 0,0 0,0 0.0353,0.0353 0.56445,0.56445 1.27,0.9525 2.04611,1.12889 0.24695,0.0706 0.49389,0.0706 0.70556,0.0706 v 0 c 0,0 0,0 0.0353,0 0.0353,-0.0353 0.0705,-0.0353 0.10583,-0.0706 0.14111,-0.49389 0.24695,-0.9525 0.21167,-1.48167 0.0353,-0.3175 0.0706,-0.70555 0.0706,-1.09361 v -0.52916 c 0.0353,-0.45862 0.0706,-0.81139 0.14111,-0.98778 0.21167,0.24694 0.45862,0.45861 0.77612,0.67028 0.14111,0.0705 0.3175,0.14111 0.45861,0.24694 0.3175,0.14111 0.56444,0.0706 0.77611,-0.17639 0.0353,-0.0705 0.0353,-0.14111 0,-0.21167 -0.35278,-0.42333 -0.59972,-0.84666 -0.81139,-1.30527 0,-0.0706 0,-0.10584 -0.0353,-0.17639 -0.0353,-0.21167 -0.0705,-0.42334 -0.10583,-0.59972 0,-0.0706 0,-0.14112 0.0353,-0.21167 0.52916,-0.42333 1.09361,-0.88195 1.65805,-1.30528 0.81139,-0.42333 1.72861,-0.77611 2.68111,-1.02305 0.0706,-0.0353 0.14111,-0.0353 0.17639,-0.0353 0,-0.0353 0,-0.0706 0,-0.10584 0.59972,-0.0705 1.19945,-0.17638 1.79917,-0.28222 0.88194,-0.17639 1.62278,-0.56444 2.25778,-1.16416 0.21166,-0.17639 0.38805,-0.35278 0.52916,-0.56445 2.75167,-1.19944 4.62139,-3.24555 5.60917,-6.17361 0.0353,-0.0706 0.0353,-0.10583 0.0353,-0.17639 2.78694,-2.75167 5.89139,-5.15055 9.38389,-7.19667 0.0353,0 0.10583,-0.0353 0.14111,-0.0353 0.3175,-0.24695 0.56444,-0.45861 0.70555,-0.635 v -0.0706 c 0.0353,0 0.0353,0 0.0706,0 0.17639,-0.24694 0.17639,-0.45861 0.0353,-0.59972 -0.0706,-0.0706 -0.10584,-0.10583 -0.14112,-0.10583 -1.55222,-0.38806 -3.28083,-0.56445 -5.18583,-0.52917 -0.14111,0 -0.3175,-0.0353 -0.49389,-0.0706 -0.81139,-0.10583 -1.65805,-0.14111 -2.50472,-0.0706 0,0 -0.0353,0 -0.0706,-0.0353 0.17639,-0.3175 0.35278,-0.67028 0.52917,-1.02306 l 0.0706,-0.14111 c 0.10583,-0.14111 0.17639,-0.28222 0.24694,-0.38805 0.0353,-0.0706 0.0706,-0.14111 0.10583,-0.17639 0.28223,-0.70556 0.56445,-1.37583 0.84667,-2.08139 0.17639,-0.35278 0.3175,-0.74083 0.49389,-1.12889 0,-0.0353 0.0353,-0.0705 0.0353,-0.10583 0,-0.0353 0,-0.0353 0,-0.0706 l 0.0353,-0.14111 z m -2.43417,1.30528 c 0.0353,0 0.10584,-0.0353 0.14111,-0.0353 -0.24694,1.16416 -0.70555,2.39889 -1.37583,3.73944 0,0.0353 -0.0353,0.10584 -0.0353,0.14111 0,0.0706 0,0.10584 -0.0353,0.17639 -0.0353,0.0706 -0.0706,0.14111 -0.14112,0.17639 0,0.0706 0,0.10583 -0.0353,0.17639 -0.52917,1.30528 -1.16417,2.57528 -1.905,3.70417 0,0.0353 0,0.0353 0,0.0705 -0.0706,0.0706 -0.14111,0.17639 -0.24695,0.28222 -0.0705,0 -0.17639,0 -0.28222,0 -0.84667,-1.79916 -2.04611,-3.38666 -3.52778,-4.7625 2.68111,-1.02305 5.15056,-2.2225 7.44361,-3.66888 z m 3.06917,8.92527 c 0.42333,0.0353 0.84667,0.10584 1.27,0.21167 -0.0353,0 -0.0353,0 -0.0353,0.0353 -0.0353,0.14111 -0.14111,0.24694 -0.3175,0.28222 -0.10583,0.0353 -0.21166,0.10583 -0.3175,0.17639 -0.70555,0.45861 -1.41111,0.9525 -2.11666,1.41111 -0.24695,0.17639 -0.49389,0.35278 -0.74084,0.49389 -0.10583,0.0705 -0.21166,0.10583 -0.3175,0.21167 -0.67028,0.45861 -1.30528,0.9525 -1.97555,1.44638 -0.3175,0.28223 -0.635,0.52917 -0.9525,0.77612 -0.0353,0.28222 -0.21167,0.45861 -0.49389,0.38805 -0.0353,0.0353 -0.0706,0.0706 -0.14111,0.10583 0,-0.0353 -0.0353,-0.14111 -0.0353,-0.17638 -0.10583,-0.0353 -0.14111,-0.10584 -0.14111,-0.21167 -0.0353,-0.3175 -0.0706,-0.635 -0.0706,-0.98778 0.0353,-0.21167 0,-0.42333 0,-0.635 -0.0353,-0.24694 -0.0705,-0.49389 -0.0705,-0.74083 0,0 0,0 0,-0.0353 0.35277,-0.67028 0.67027,-1.37583 1.02305,-2.04611 0.0706,-0.14111 0.14111,-0.28222 0.21167,-0.45861 0,0 0.0353,0 0.0705,0.0353 0.56445,-0.28223 1.44639,-0.38806 2.57528,-0.24695 0.0706,0 0.14111,0 0.17639,0 0.0706,0 0.14111,0 0.17639,0 0.17639,0 0.35278,0 0.52917,0 0.0705,0 0.14111,0 0.17639,0 0.35277,0 0.70555,0 1.05833,0 0.0705,0 0.14111,0 0.17639,0 0.0705,0 0.14111,0 0.17639,0.0353 0.0353,-0.0353 0.0705,-0.0706 0.10583,-0.0706 z m -15.80444,0.0353 c 0,0.0706 0,0.14111 0,0.17639 0,0.81139 -0.14112,1.51694 -0.35278,2.11667 0,0.0705 0,0.14111 0,0.17639 0,0.0705 0,0.10583 -0.0353,0.17638 -0.84667,2.04612 -2.29306,3.52778 -4.37444,4.40973 0,0.0705 0,0.10583 0,0.10583 -0.28223,0.0706 -0.56445,0.0706 -0.88195,0.0706 -0.0353,0 -0.10583,0 -0.17639,0.0353 -2.01083,0.24695 -3.59833,-0.21166 -4.7625,-1.44639 -0.0353,0 -0.10583,0 -0.10583,0 -0.24695,-0.35277 -0.49389,-0.67027 -0.67028,-1.02305 -0.17639,-0.35278 -0.28222,-0.70556 -0.38805,-1.05833 -0.24695,-0.77612 -0.3175,-1.5875 -0.24695,-2.39889 0.0353,-0.10584 0.0353,-0.21167 0.0353,-0.28223 0.0705,-0.70555 0.24694,-1.41111 0.52917,-2.04611 0.0353,-0.0353 0.0353,-0.0705 0.0705,-0.10583 0.0353,-0.14111 0.0706,-0.28222 0.14111,-0.42333 0.0353,-0.0706 0.0706,-0.10584 0.10584,-0.17639 0.28222,-0.635 0.67027,-1.23472 1.05833,-1.79917 1.09361,-0.91722 2.43417,-1.30528 4.02167,-1.16417 h 0.0353 c 0.28223,0 0.56445,0.0353 0.84667,0.10584 l 0.14111,-0.0353 c 0.70556,0.14111 1.37583,0.35278 2.04611,0.59972 1.19945,0.88195 2.11667,2.04611 2.75167,3.4925 0.0353,0.0353 0.0353,0.10584 0.0353,0.14111 0.0705,0.0706 0.10583,0.14111 0.14111,0.21167 0.0353,0.0353 0.0353,0.10583 0.0353,0.14111 z m -34.325282,1.41111 c 0.03528,0 0.03528,0 0.07056,0.0353 -0.03528,0 -0.03528,0 -0.03528,0 z"
       id="path53" />
    <path
       style="fill:#ffffff;stroke:none;stroke-width:0.352778"
       d="m 130.0868,116.92059 c -0.0353,0 -0.10583,0.0353 -0.14111,0.0353 -2.29305,1.44638 -4.7625,2.64583 -7.44361,3.66888 1.48167,1.37584 2.68111,2.96334 3.52778,4.7625 0.10583,0 0.21167,0 0.28222,0 0.10584,-0.10583 0.17639,-0.21166 0.24695,-0.28222 0,-0.0353 0,-0.0353 0,-0.0705 0.74083,-1.12889 1.37583,-2.39889 1.905,-3.70417 0.0353,-0.0706 0.0353,-0.10583 0.0353,-0.17639 0.0706,-0.0353 0.10584,-0.10583 0.14112,-0.17639 0.0353,-0.0705 0.0353,-0.10583 0.0353,-0.17639 0,-0.0353 0.0353,-0.10583 0.0353,-0.14111 0.67028,-1.34055 1.12889,-2.57528 1.37583,-3.73944 z m -2.82222,2.8575 c 0.0353,0 0.10584,-0.0353 0.17639,-0.0353 0.14111,0.0353 0.24695,0.10583 0.38806,0.17639 0.0353,0 0.0705,0.0353 0.10583,0.0705 -0.10583,0.91723 -0.56444,1.16417 -1.37583,0.81139 0,-0.17639 0.0353,-0.35277 0.0705,-0.52916 0.0353,-0.10584 0.0353,-0.17639 0.0706,-0.28223 0.14111,-0.10583 0.35278,-0.17638 0.56444,-0.21166 z"
       id="path54" />
    <path
       style="fill:#5f5f61;stroke:none;stroke-width:0.352778"
       d="m 127.44097,119.74281 c -0.0705,0 -0.14111,0.0353 -0.17639,0.0353 -0.21166,0.0353 -0.42333,0.10583 -0.56444,0.21166 -0.0353,0.10584 -0.0353,0.17639 -0.0706,0.28223 -0.0353,0.17639 -0.0705,0.35277 -0.0705,0.52916 0.81139,0.35278 1.27,0.10584 1.37583,-0.81139 -0.0353,-0.0353 -0.0706,-0.0705 -0.10583,-0.0705 -0.14111,-0.0706 -0.24695,-0.14111 -0.38806,-0.17639 z"
       id="path55" />
    <path
       style="fill:#ffffff;stroke:none;stroke-width:0.352778"
       d="m 134.28486,126.09281 c -0.42333,-0.10583 -0.84667,-0.17639 -1.27,-0.21167 -0.0353,0 -0.0706,0.0353 -0.10583,0.0706 -0.0353,-0.0353 -0.10584,-0.0353 -0.17639,-0.0353 -0.0353,0 -0.10584,0 -0.17639,0 -0.35278,0 -0.70556,0 -1.05833,0 -0.0353,0 -0.10584,0 -0.17639,0 -0.17639,0 -0.35278,0 -0.52917,0 -0.0353,0 -0.10583,0 -0.17639,0 -0.0353,0 -0.10583,0 -0.17639,0 -1.12889,-0.14111 -2.01083,-0.0353 -2.57528,0.24695 -0.0353,-0.0353 -0.0705,-0.0353 -0.0705,-0.0353 -0.0706,0.17639 -0.14111,0.3175 -0.21167,0.45861 -0.35278,0.67028 -0.67028,1.37583 -1.02305,2.04611 0,0.0353 0,0.0353 0,0.0353 0,0.24694 0.0353,0.49389 0.0705,0.74083 0,0.21167 0.0353,0.42333 0,0.635 0,0.35278 0.0353,0.67028 0.0706,0.98778 0,0.10583 0.0353,0.17639 0.14111,0.21167 0,0.0353 0.0353,0.14111 0.0353,0.17638 0.0705,-0.0353 0.10583,-0.0705 0.14111,-0.10583 0.28222,0.0706 0.45861,-0.10583 0.49389,-0.38805 0.3175,-0.24695 0.635,-0.49389 0.9525,-0.77612 0.67027,-0.49388 1.30527,-0.98777 1.97555,-1.44638 0.10584,-0.10584 0.21167,-0.14112 0.3175,-0.21167 0.24695,-0.14111 0.49389,-0.3175 0.74084,-0.49389 0.70555,-0.45861 1.41111,-0.9525 2.11666,-1.41111 0.10584,-0.0706 0.21167,-0.14111 0.3175,-0.17639 0.17639,-0.0353 0.28222,-0.14111 0.3175,-0.28222 0,-0.0353 0,-0.0353 0.0353,-0.0353 z"
       id="path56" />
    <path
       style="fill:#ffffff;stroke:none;stroke-width:0.352778"
       d="m 117.21042,126.09281 c 0,-0.0353 0,-0.10583 0,-0.17639 0,-0.0353 0,-0.10583 -0.0353,-0.14111 -0.0353,-0.0706 -0.0706,-0.14111 -0.14111,-0.21167 0,-0.0353 0,-0.10583 -0.0353,-0.14111 -0.635,-1.44639 -1.55222,-2.61055 -2.75167,-3.4925 -0.67028,-0.24694 -1.34055,-0.45861 -2.04611,-0.59972 l -0.14111,0.0353 c -0.28222,-0.0706 -0.56444,-0.10584 -0.84667,-0.10584 h -0.0353 c -1.5875,-0.14111 -2.92806,0.24695 -4.02167,1.16417 -0.38806,0.56445 -0.77611,1.16417 -1.05833,1.79917 -0.0353,0.0705 -0.0706,0.10583 -0.10584,0.17639 -0.0705,0.14111 -0.10583,0.28222 -0.14111,0.42333 -0.0353,0.0353 -0.0353,0.0706 -0.0705,0.10583 -0.28223,0.635 -0.45862,1.34056 -0.52917,2.04611 0,0.0706 0,0.17639 -0.0353,0.28223 -0.0705,0.81139 0,1.62277 0.24695,2.39889 0.10583,0.35277 0.21166,0.70555 0.38805,1.05833 0.17639,0.35278 0.42333,0.67028 0.67028,1.02305 0,0 0.0706,0 0.10583,0 1.16417,1.23473 2.75167,1.69334 4.7625,1.44639 0.0706,-0.0353 0.14111,-0.0353 0.17639,-0.0353 0.3175,0 0.59972,0 0.88195,-0.0706 0,0 0,-0.0353 0,-0.10583 2.08138,-0.88195 3.52777,-2.36361 4.37444,-4.40973 0.0353,-0.0705 0.0353,-0.10583 0.0353,-0.17638 0,-0.0353 0,-0.10584 0,-0.17639 0.21166,-0.59973 0.35278,-1.30528 0.35278,-2.11667 z m -6.94973,0.9525 c 0.14111,-0.21167 0.3175,-0.3175 0.56445,-0.3175 0.38805,-0.0353 0.74083,0.0706 1.05833,0.28222 0,0 0.0353,0 0.0353,0 0.10583,0.10584 0.17639,0.24695 0.21167,0.38806 0.0353,0.17639 0.0353,0.35278 0.0353,0.56444 0,0 0,0 0,0 0,0.0353 0,0.0353 -0.0353,0.0353 0,0.0706 0,0.14111 0,0.17639 -0.0353,0.14111 -0.0706,0.24694 -0.14112,0.38805 -0.0353,0 -0.0353,0.0353 -0.0353,0.0353 -0.59973,0.45861 -1.16417,0.45861 -1.69334,-0.0353 -0.10583,-0.10583 -0.21166,-0.21166 -0.28222,-0.3175 -0.10583,-0.45861 0,-0.84666 0.28222,-1.19944 z"
       id="path57" />
    <path
       style="fill:#5f5f61;stroke:none;stroke-width:0.352778"
       d="m 110.82514,126.72781 c -0.24695,0 -0.42334,0.10583 -0.56445,0.3175 -0.28222,0.35278 -0.38805,0.74083 -0.28222,1.19944 0.0706,0.10584 0.17639,0.21167 0.28222,0.3175 0.52917,0.49389 1.09361,0.49389 1.69334,0.0353 0,0 0,-0.0353 0.0353,-0.0353 0.0706,-0.14111 0.10584,-0.24694 0.14112,-0.38805 0,-0.0353 0,-0.10583 0,-0.17639 0.0353,0 0.0353,0 0.0353,-0.0353 0,0 0,0 0,0 0,-0.21166 0,-0.38805 -0.0353,-0.56444 -0.0353,-0.14111 -0.10584,-0.28222 -0.21167,-0.38806 0,0 -0.0353,0 -0.0353,0 -0.3175,-0.21166 -0.67028,-0.3175 -1.05833,-0.28222 z"
       id="path58" />
  </g>
</svg>
