<?xml version="1.0" encoding="UTF-8" standalone="no"?>
<!-- Created with Inkscape (http://www.inkscape.org/) -->

<svg
   width="76.368408mm"
   height="52.857883mm"
   viewBox="0 0 76.368408 52.857883"
   version="1.1"
   id="svg1"
   inkscape:version="1.3 (0e150ed6c4, 2023-07-21)"
   sodipodi:docname="stickers_huzza.svg"
   xmlns:inkscape="http://www.inkscape.org/namespaces/inkscape"
   xmlns:sodipodi="http://sodipodi.sourceforge.net/DTD/sodipodi-0.dtd"
   xmlns="http://www.w3.org/2000/svg"
   xmlns:svg="http://www.w3.org/2000/svg">
  <sodipodi:namedview
     id="namedview1"
     pagecolor="#ffffff"
     bordercolor="#000000"
     borderopacity="0.25"
     inkscape:showpageshadow="2"
     inkscape:pageopacity="0.0"
     inkscape:pagecheckerboard="0"
     inkscape:deskcolor="#d1d1d1"
     inkscape:document-units="mm"
     inkscape:zoom="0.74386223"
     inkscape:cx="449.68004"
     inkscape:cy="293.73719"
     inkscape:window-width="1920"
     inkscape:window-height="1027"
     inkscape:window-x="1912"
     inkscape:window-y="-8"
     inkscape:window-maximized="1"
     inkscape:current-layer="layer1" />
  <defs
     id="defs1" />
  <g
     inkscape:label="Layer 1"
     inkscape:groupmode="layer"
     id="layer1"
     transform="translate(14.02293,-70.908333)">
    <path
       style="fill:#5f5f61;stroke:none;stroke-width:0.352778"
       d="m 54.183473,94.43861 c -0.03528,-0.635 -0.105833,-1.27 -0.176389,-1.904999 -0.03528,-0.176389 -0.03528,-0.3175 -0.07055,-0.493889 0,-0.03528 0,-0.07056 0,-0.141111 -0.03528,-0.211667 -0.07056,-0.423334 -0.07056,-0.670278 -0.07055,-0.740834 -0.246944,-1.481667 -0.529166,-2.187222 0,-0.03528 0,-0.03528 0,-0.07056 -0.105834,-0.211667 -0.176389,-0.352778 -0.282223,-0.493889 0,-0.176389 0,-0.282222 -0.07055,-0.423333 -0.282222,-0.635 -0.635,-1.27 -1.023056,-1.869722 -0.846666,-1.305278 -1.693333,-2.575278 -2.610555,-3.81 -1.058333,-1.375834 -2.010833,-2.822222 -2.892778,-4.303889 -0.105833,-0.211667 -0.211666,-0.423333 -0.3175,-0.635 C 45.752085,76.658611 45.18764,76.2 44.376251,76.023611 44.094029,75.282778 43.811807,74.541944 43.564862,73.765833 43.388474,73.307222 43.28264,72.848611 43.212085,72.354722 c -0.07056,-0.881944 -0.564445,-1.340555 -1.375834,-1.446389 -0.07055,0 -0.105833,0 -0.141111,0 -0.987777,0.176389 -1.375833,0.705556 -1.199444,1.622778 0.3175,1.411111 0.670278,2.822222 1.023055,4.233333 0.141112,0.564445 0.282223,1.128889 0.423334,1.658056 -0.03528,0.282222 -0.03528,0.564444 0,0.881944 0.03528,0.246945 0.105833,0.529167 0.176389,0.776111 0.458611,2.010834 1.023055,3.986389 1.693333,5.961945 0.282222,0.776111 0.564444,1.5875 0.846667,2.363611 0.176388,0.564444 0.423333,1.128888 0.740833,1.658055 0.282222,0.493889 0.564444,0.987778 0.846667,1.446389 0.211666,0.352778 0.388055,0.705556 0.529166,1.058333 0.176389,0.352778 0.3175,0.740834 0.388056,1.093611 0.246944,1.023056 0.352777,2.010834 0.3175,3.033889 -0.03528,0.3175 0.03528,0.635 0.211666,0.917222 0.211667,0.493889 0.458611,0.917223 0.705556,1.375834 -0.105833,0.105833 -0.211667,0.246944 -0.246945,0.388055 h -0.987777 c -0.635,-0.529166 -1.340556,-0.846666 -2.116667,-0.917222 -0.846667,0.03528 -1.693333,-0.105833 -2.469444,-0.352778 -0.811389,-0.3175 -1.622778,-0.564444 -2.434167,-0.811389 -0.423333,-0.105833 -0.846667,-0.211666 -1.27,-0.282222 -0.458611,0 -0.917222,0.03528 -1.340555,0.07056 0.03528,-0.211667 0.105833,-0.423334 0.176388,-0.635 0.423334,-0.881945 0.635,-1.905 0.564445,-2.998611 -0.03528,-0.176389 -0.03528,-0.3175 -0.03528,-0.458611 0,-0.282223 -0.03528,-0.493889 -0.105833,-0.705556 0.07056,0 0.141111,-0.03528 0.246944,-0.07055 0.599722,-0.282223 1.164167,-0.599723 1.693334,-0.9525 0.423333,-0.282223 0.705555,-0.635 0.9525,-1.023056 0.3175,-0.352778 0.423333,-0.811389 0.3175,-1.340556 -0.07056,-0.3175 -0.211667,-0.564444 -0.423334,-0.705555 0.282222,-0.141111 0.529167,-0.3175 0.740834,-0.529167 0.211666,-0.246944 0.317499,-0.564444 0.246944,-0.917222 -0.105833,-0.458611 -0.423333,-0.705555 -0.9525,-0.740833 -0.07056,0 -0.141111,0 -0.211667,0.03528 0,-0.03528 0,-0.03528 0,-0.03528 0.03528,0 0.105834,-0.03528 0.176389,-0.07056 0.141111,-0.03528 0.282222,-0.105833 0.388056,-0.176389 0.564444,-0.246944 0.9525,-0.635 1.199444,-1.234722 0.141111,-0.3175 0.176389,-0.670278 0.141111,-1.058333 -0.07056,-0.564445 -0.388055,-0.881945 -0.917222,-0.987778 -0.176389,-0.105833 -0.352778,-0.141111 -0.564444,-0.07055 -0.105834,0 -0.176389,0.03528 -0.282223,0.07055 -0.846666,0.246944 -1.622777,0.599722 -2.398888,1.058333 -0.176389,0.07056 -0.352778,0.176389 -0.493889,0.282223 -0.105834,0.07056 -0.211667,0.105833 -0.3175,0.176388 -0.03528,-0.105833 -0.07056,-0.282222 -0.07056,-0.423333 -0.03528,-0.141111 -0.03528,-0.282222 -0.07056,-0.388055 -0.141112,-0.423334 -0.176389,-0.846667 -0.07056,-1.305278 -0.388056,-0.670278 -0.776111,-1.340556 -1.128889,-2.046111 -0.211666,-0.388056 -0.458611,-0.705556 -0.776111,-1.023056 -0.388055,-0.388055 -0.811389,-0.740833 -1.27,-1.093611 -0.282222,-0.246944 -0.635,-0.423333 -0.987778,-0.564444 -0.388055,-0.176389 -0.776111,-0.3175 -1.164166,-0.388056 -0.388056,-0.07055 -0.740834,-0.105833 -1.128889,-0.105833 -0.282222,-0.07056 -0.599722,-0.105833 -0.881945,-0.176389 -0.282222,-0.388056 -0.388055,-0.811389 -0.352777,-1.234722 -0.03528,-0.07056 -0.07056,-0.176389 -0.105834,-0.246945 -0.03528,-0.105833 -0.07055,-0.211666 -0.07055,-0.282222 -0.211667,-0.352778 -0.352778,-0.776111 -0.423334,-1.164167 -0.03528,-0.03528 -0.03528,-0.07055 -0.07055,-0.105833 0,-0.07055 0,-0.105833 0,-0.141111 C 29.030418,72.7075 28.748196,72.39 28.183752,72.248889 c -0.03528,0 -0.105834,0 -0.141111,0.03528 -0.141112,0 -0.211667,0.07055 -0.3175,0.176388 0,0 0,0.03528 0,0.07056 v 0 c -0.105834,0.105833 -0.176389,0.246944 -0.176389,0.352778 -0.07056,0.352777 -0.105834,0.705555 -0.105834,1.058333 -0.03528,0.105833 -0.07055,0.211667 -0.105833,0.3175 -0.105833,0.811389 -0.211667,1.5875 -0.3175,2.398889 -0.564444,-0.3175 -1.023055,-0.740833 -1.411111,-1.234722 -0.105833,-0.211667 -0.246944,-0.388056 -0.352778,-0.529167 0,0 0,0 -0.03528,0 -0.03528,-0.07056 -0.07055,-0.105833 -0.07055,-0.176389 -0.176389,-0.282222 -0.423333,-0.493889 -0.705556,-0.599722 -0.211666,0.07055 -0.388055,0.141111 -0.493889,0.3175 -0.03528,0 -0.07055,0.03528 -0.105833,0.07055 0,0.03528 0,0.03528 0,0.03528 0,0.03528 0,0.105834 0,0.176389 -0.03528,0 -0.03528,0 -0.03528,0.03528 0.07056,0.599722 0.141111,1.234722 0.246945,1.869722 0.03528,0.141111 0.03528,0.282222 0.07055,0.423333 0.07056,0.246945 0.176389,0.493889 0.3175,0.670278 0.03528,0.141111 0.105834,0.246945 0.176389,0.388056 0.105834,0.211666 0.176389,0.388055 0.176389,0.635 0.03528,0.282222 0.07056,0.599722 0.07056,0.917222 -0.282223,0.246944 -0.493889,0.529167 -0.670278,0.881944 -0.458611,0.881945 -0.635,1.869723 -0.458611,2.928056 0.03528,0.211666 0.07055,0.423333 0.07055,0.599722 C 23.13903,83.361388 22.574585,82.55 22.080696,81.668055 c -0.3175,-0.493889 -0.635,-0.987778 -0.9525,-1.552222 -0.176389,-0.211667 -0.3175,-0.458611 -0.458611,-0.670278 -0.141111,-0.211666 -0.3175,-0.423333 -0.493889,-0.599722 l -0.493889,-0.211667 -0.776111,-0.105833 -0.352777,0.352778 c -0.176389,0.458611 -0.246945,0.881944 -0.141112,1.305278 0.03528,0.211666 0.07056,0.423333 0.105834,0.635 0.03528,0.07055 0.03528,0.141111 0.03528,0.246944 l 0.246944,0.599722 -0.3175,0.352778 -0.176389,0.458611 0.03528,0.07056 c -0.03528,0.105833 -0.03528,0.282222 -0.03528,0.388055 v 0 0.03528 c 0,0.211667 0.105833,0.458611 0.282222,0.670278 0,0.03528 0.03528,0.07055 0.03528,0.07055 0,0.03528 0,0.07056 0,0.141111 0,0.07056 0,0.141111 0.03528,0.211667 0.03528,0.105833 0.105833,0.211667 0.176389,0.352778 -0.07056,0 -0.141111,0.03528 -0.176389,0.105833 -0.211667,0.141111 -0.352778,0.3175 -0.458611,0.564445 -0.07056,0.07055 -0.105834,0.211666 -0.141111,0.3175 -0.03528,0.211666 0,0.423333 0.03528,0.564444 0.03528,0.211667 0.105834,0.388056 0.211667,0.564444 0.105833,0.07056 0.176389,0.176389 0.246945,0.3175 l 0.03528,0.03528 0.03528,0.03528 c 0.07056,0.105833 0.141111,0.176389 0.211667,0.246944 0.211666,0.246945 0.458611,0.352778 0.670278,0.458612 l 0.07055,0.141111 c -0.246944,0.246944 -0.493889,0.529166 -0.705555,0.846666 -0.105834,0.176389 -0.246945,0.3175 -0.388056,0.458611 -0.07056,0.07056 -0.105833,0.105834 -0.141111,0.141111 -0.03528,0.03528 -0.03528,0.07056 -0.03528,0.141112 -0.03528,0 -0.03528,0.03528 -0.03528,0.07055 -0.811389,1.023056 -1.305277,2.151945 -1.481666,3.421944 0,0.03528 0,0.07056 0,0.07056 -0.03528,0.352778 -0.03528,0.670278 -0.07056,1.023056 0,0.246944 0.03528,0.493888 0.07056,0.740833 0.03528,0.3175 0.07055,0.670278 0.07055,0.987778 l -2.786944,-0.3175 -0.176389,-0.176389 c 1.058333,-0.529167 1.799167,-1.305278 2.293056,-2.398889 0.07055,-0.176389 0.176388,-0.352778 0.282222,-0.529167 0.03528,-0.07055 0.07055,-0.141111 0.141111,-0.211666 0,-0.03528 0.03528,-0.07056 0.07055,-0.105834 l 0.03528,-0.3175 c 0.141111,-0.423333 0.176389,-0.846666 0.211667,-1.305277 0.03528,-1.799167 -0.529167,-3.386667 -1.693333,-4.7625 -0.03528,-0.03528 -0.105834,-0.07056 -0.105834,-0.07056 -0.03528,-0.141111 -0.07056,-0.246944 -0.105833,-0.352778 -0.03528,-0.03528 -0.07056,-0.07055 -0.07056,-0.105833 0,-0.03528 -0.03528,-0.07056 -0.03528,-0.07056 0,-0.246944 -0.03528,-0.493888 -0.07056,-0.705555 -0.141111,-0.529167 -0.423333,-0.917222 -0.881944,-1.128889 l 0.282222,-0.458611 c 0,-0.03528 0,-0.07056 0,-0.07056 0.246944,-0.423333 0.423333,-0.811388 0.529166,-1.305277 0.105834,-0.141111 0.141112,-0.3175 0.105834,-0.493889 0,-0.176389 0,-0.352778 0.03528,-0.493889 0.07056,-0.564445 0.105833,-1.058333 0.03528,-1.5875 l 0.352778,-0.635 c 0,-0.246945 0.141111,-0.458611 0.388056,-0.635 0.458611,-0.352778 0.846666,-0.740833 1.234722,-1.164167 0.3175,-0.141111 0.388055,-0.352777 0.246944,-0.670277 0,-0.03528 -0.03528,-0.07056 -0.03528,-0.07056 -0.07055,-0.03528 -0.105833,-0.07056 -0.141111,-0.07056 0,0 0,0 -0.03528,0 -0.141112,-0.141111 -0.352778,-0.141111 -0.529167,-0.07055 -0.105833,0.03528 -0.246944,0.07055 -0.352778,0.105833 -0.03528,0 -0.07055,0 -0.07055,0.03528 -0.176389,0.07056 -0.388056,0.176389 -0.635,0.246944 l -0.705556,-0.07055 -0.105833,-0.176389 c -0.03528,-0.07056 -0.07056,-0.105833 -0.07056,-0.141111 0.141111,-0.3175 0.282222,-0.599722 0.458611,-0.881945 0.176389,-0.282222 0.352778,-0.493888 0.564445,-0.776111 0.211666,-0.211666 0.423333,-0.423333 0.599722,-0.670277 0.03528,-0.03528 0.07056,-0.07056 0.03528,-0.105834 -0.141111,-0.388055 -0.388056,-0.599722 -0.776111,-0.705555 -0.3175,0.105833 -0.599723,0.211666 -0.917223,0.352777 -0.776111,0.352778 -1.552222,0.740834 -2.328333,1.199445 -0.141111,-0.3175 -0.352778,-0.564445 -0.599722,-0.776111 v 0 C 11.07403,72.636944 10.615419,72.354722 10.050974,72.143055 9.7687521,71.931389 9.4159743,71.790278 9.0279188,71.719722 8.6398632,71.649167 8.2870855,71.684444 7.9695855,71.755 c -0.3527778,0.03528 -0.7055556,0.03528 -1.0230556,0.07055 -0.8113888,0.105834 -1.5874999,0.3175 -2.2930555,0.635 -0.2822222,0.07056 -0.4938888,0.211667 -0.7408333,0.388056 -0.4233333,0.3175 -0.8113889,0.670278 -1.1994444,1.058333 -0.1763889,0.176389 -0.3880555,0.388056 -0.5291667,0.635 -0.1058333,0.105834 -0.1763888,0.246945 -0.2469444,0.352778 -0.035278,0.07056 -0.070556,0.176389 -0.1058333,0.211667 0,0.03528 0,0.03528 0,0.03528 -0.070556,0.141112 -0.1411111,0.282223 -0.2469445,0.388056 -0.035278,0.105833 -0.1058333,0.246944 -0.1763889,0.352778 -0.74083327,1.481666 -0.74083327,2.928055 -0.035278,4.409722 0.1058333,0.176389 0.1763889,0.352778 0.3175,0.493889 0,0 0,0.03528 0,0.03528 -0.035278,0 -0.070556,0 -0.1058334,-0.03528 C 1.4431967,80.645 1.3020856,80.468611 1.1609745,80.362777 0.84347452,80.01 0.5612523,79.657222 0.31430786,79.304444 0.1026412,79.0575 -0.07374768,78.810555 -0.28541435,78.598889 -0.74402545,77.999166 -1.2379143,77.47 -1.7318032,76.905555 c 0,0 0,0 0,-0.03528 -0.2469444,-0.282223 -0.5997222,-0.388056 -0.9525,-0.388056 -0.1058333,0 -0.2469444,0.03528 -0.3527778,0.07056 -0.1763888,0.03528 -0.2822222,0.105833 -0.3527777,0.246944 0,0 0,0 -0.035278,0.03528 -0.3880555,0.352778 -0.5997222,0.811389 -0.5997222,1.375833 -0.1058333,0.388056 -0.1058333,0.846667 -0.070556,1.27 0.070556,0.529167 0.2469445,0.9525 0.5291667,1.305278 v 0.03528 c -0.035278,0 -0.070556,0.07055 -0.1058333,0.07055 -0.4586111,0.352778 -0.7408334,0.881945 -0.8113889,1.446389 -0.035278,0.105833 0,0.211667 0,0.3175 0.1411111,0.388055 0.3527778,0.705555 0.7055555,0.9525 0.035278,0.07055 0.1058334,0.141111 0.1763889,0.176389 -0.1763889,0.141111 -0.3175,0.282222 -0.3880555,0.493889 -0.2116667,0.599722 -0.1058334,1.128889 0.4233333,1.5875 0.070556,0.141111 0.1411111,0.211666 0.2469444,0.3175 0.1058334,0.141111 0.2116667,0.246944 0.3527778,0.388055 -0.1411111,0.176389 -0.2822222,0.388056 -0.4233333,0.670278 -0.3527778,0.776111 -0.5291667,1.622778 -0.4233333,2.54 -0.3175,-0.176389 -0.635,-0.3175 -0.9877778,-0.423333 -0.035278,-0.03528 -0.070556,-0.07056 -0.1058333,-0.105834 -0.2469445,-0.141111 -0.4938889,-0.352778 -0.6702778,-0.599722 -0.3175,-0.493889 -0.7761111,-0.811389 -1.27,-0.9525 -0.3527777,0 -0.6702777,0 -0.9877777,-0.03528 -0.6702778,-0.03528 -1.1288889,0.176389 -1.5169444,0.670278 -0.2116667,0.246944 -0.2116667,0.529167 -0.070556,0.846667 0.035278,0.105833 0.1058333,0.246944 0.1763889,0.388055 v 0.176389 c 0.1763889,0.670278 0.5644444,1.164167 1.1288889,1.446389 0.070555,0.03528 0.1058333,0.03528 0.1411111,0.07056 0.2469444,0.211666 0.4938888,0.423333 0.7761111,0.635 0.1058333,0.105833 0.2469444,0.176388 0.3880555,0.282222 0.1763889,0.105833 0.3527778,0.211666 0.5644444,0.3175 0.3880556,0.282222 0.8113889,0.564444 1.1641667,0.917222 0.1763889,0.246944 0.4586111,0.423333 0.7761111,0.564444 l 0.8466666,0.670278 c -0.1058333,0.03528 -0.2116666,0.03528 -0.3175,0.03528 -1.1288888,-0.352778 -2.2577777,-0.740833 -3.3866666,-1.128889 -0.5291666,-0.176389 -1.093611,-0.3175 -1.6227777,-0.352778 -0.8466667,-0.105833 -1.6580554,-0.246944 -2.4694444,-0.493889 -0.246944,0.03528 -0.458611,0.07056 -0.670278,0.211667 -0.03528,0.07056 -0.03528,0.176389 -0.07056,0.282222 -0.03528,0.03528 -0.03528,0.07056 0,0.141111 h -0.07056 c 0,0.03528 0,0.07056 0,0.07056 -0.529167,-0.105833 -1.058333,-0.211667 -1.5875,-0.352778 v 0.03528 c -0.03528,0 -0.07056,0 -0.105833,0 -0.03528,0 -0.03528,0 -0.03528,0.03528 -0.07055,0.03528 -0.141111,0.105833 -0.176389,0.176389 -0.105833,0.211666 -0.03528,0.388055 0.141111,0.529166 0.352778,0.211667 0.705556,0.388056 1.093611,0.564445 l -0.388055,-0.03528 c 0.211666,0.07055 0.388055,0.105833 0.599722,0.176389 0.670278,0.3175 1.411111,0.564444 2.187222,0.740833 1.6580557,0.423333 3.4219446,0.705556 5.1505557,0.811389 0.035278,0 0.035278,0 0.035278,0 0.1763889,0.03528 0.3175,0.07056 0.4938889,0.07056 0.7408333,0.03528 1.4816666,0.105833 2.2930555,0.282222 0.3880556,0.03528 0.8466667,0.105833 1.3405555,0.176389 0.17638892,0.03528 0.35277781,0.03528 0.56444447,0.105833 0.17638888,-0.03528 0.38805555,0 0.59972221,0.03528 0.28222221,0.352778 0.52916665,0.705555 0.74083331,1.093611 0.10583334,0.141111 0.24694441,0.282222 0.45861111,0.423333 0.2116667,0.141111 0.4586111,0.176389 0.7055555,0.07056 0,0 0,0 0.035278,-0.03528 0.1058333,-0.03528 0.2116667,-0.07056 0.3175,-0.141111 0.1763889,-0.105834 0.3175,-0.246945 0.4938889,-0.423334 0.1411111,-0.141111 0.2469444,-0.317499 0.4233333,-0.493888 0.6702778,0.141111 1.3405555,0.282222 2.0108333,0.423333 0.070556,0 0.1763889,0 0.2822222,0.03528 0.070556,0 0.1763889,0.03528 0.2822222,0.07055 0.070556,-0.03528 0.2116667,-0.07055 0.3527778,-0.03528 0.3527778,0.105834 0.7055555,0.176389 1.0936111,0.211667 0.1411111,0.352778 0.3175,0.635 0.5291666,0.9525 0.035278,0 0.035278,0.03528 0.035278,0.07056 0.3527778,0.3175 0.8466667,0.493889 1.3405555,0.529166 0.2116667,0 0.3880556,0 0.5997223,0 l 0.1763896,-0.141111 c 0,0 0,0 0.03528,0 0.493889,-0.176389 0.846667,-0.493889 1.058334,-0.987778 0.03528,-0.105833 0.07055,-0.176388 0.105833,-0.246944 0.740833,0.176389 1.446389,0.282222 2.151944,0.352778 0.282223,0.07055 0.564445,0.105833 0.846667,0.141111 0.176389,0.03528 0.352778,0.07055 0.564444,0.141111 0.211667,0.03528 0.493889,0.105833 0.740834,0.176389 0.246944,0.03528 0.493889,0.105833 0.740833,0.176389 0.03528,0.03528 0.07056,0.03528 0.105833,0.07055 0.529167,0.176389 1.058334,0.352778 1.552223,0.529167 0.282222,0.105833 0.529166,0.176389 0.740833,0.246944 0.282222,0.03528 0.493889,0.105827 0.705555,0.176387 0.03528,0.49389 0.141112,0.98778 0.282223,1.48167 0.03528,0.14111 0.141111,0.28222 0.3175,0.35277 0.141111,0.10584 0.352777,0.17639 0.529166,0.24695 0.3175,0.0353 0.564445,0 0.740834,-0.17639 0.141111,-0.14111 0.282222,-0.24694 0.423333,-0.38806 0.3175,-0.24694 0.599722,-0.52916 0.881944,-0.84666 l 5.609167,1.51694 c 0.03528,1.51695 0.176389,3.03389 0.529167,4.51556 0.105833,0.52916 0.211666,1.02305 0.352777,1.51694 0,0.0706 0.03528,0.17639 0.07056,0.24695 -0.03528,0.0353 -0.07056,0.0706 -0.03528,0.10583 0.03528,0.21167 0.141111,0.42333 0.246945,0.56444 0,0 0,0 0,0.0353 h 0.03528 c 0.141111,0.21167 0.388056,0.35278 0.705556,0.45861 0.105833,0.0353 0.211667,0.0353 0.3175,0 0.03528,0 0.03528,0 0.03528,0 0.246944,0.0706 0.493889,0.0353 0.705555,-0.14111 l 0.881945,0.35278 0.282222,-0.0353 0.635,-0.45861 c 0.141111,-0.28222 0.282222,-0.56444 0.388055,-0.84667 0.141111,-0.38805 0.282223,-0.77611 0.352778,-1.16416 0.03528,-0.0706 0.07056,-0.14111 0.07056,-0.21167 0.07055,-0.14111 0.105833,-0.28222 0.141111,-0.45861 0.105833,-0.42333 0.211666,-0.88194 0.3175,-1.34056 0.105833,-0.81138 0.282222,-1.5875 0.458611,-2.36361 2.046111,0.70556 4.1275,1.23473 6.279444,1.62278 1.023056,0.21167 2.116667,0.52917 3.245556,0.84667 0.07055,0.0353 0.141111,0.0706 0.211666,0.10583 0.176389,0.0706 0.352778,0.10583 0.564445,0.17639 0.3175,0.10583 0.635,0.21167 0.917222,0.35278 0.564444,0.24694 1.128889,0.45861 1.763889,0.70555 0.03528,0.0353 0.07056,0.0706 0.105833,0.10584 0.07056,0.10583 0.141111,0.14111 0.246945,0.21166 0.458611,0.21167 0.917222,0.28223 1.446388,0.14111 l 1.481667,0.77612 0.176389,0.24694 c 0.03528,0.17639 0.07056,0.3175 0.141111,0.49389 0,0.67028 0.105833,1.37583 0.3175,2.04611 0.564444,1.5875 1.128889,3.13972 1.693333,4.62139 0.246945,0.59972 0.458611,1.19944 0.670278,1.76389 0.176389,0.52916 0.388056,1.05833 0.599722,1.55222 0.246945,0.635 0.493889,1.27 0.776111,1.905 0.141112,0.35278 0.282223,0.70556 0.423334,1.09361 0.105833,0.24695 0.282222,0.45861 0.529166,0.56445 0.176389,0.0706 0.3175,0.0706 0.458612,0 h 0.03528 c 0.458611,0.56444 1.164167,0.81138 2.081389,0.74083 0.211667,0.49389 0.635,0.67028 1.164167,0.52917 0.105833,0 0.176389,-0.0706 0.211666,-0.14112 0.670278,-0.91722 1.164167,-1.905 1.481667,-2.99861 0.07056,-0.21166 0.176389,-0.45861 0.246945,-0.70555 0.07055,0 0.141111,-0.0353 0.246944,-0.10584 0.07056,-0.17638 0.07056,-0.35277 0.03528,-0.56444 0.282222,-0.77611 0.176389,-1.51694 -0.3175,-2.11667 0.141111,-0.35277 0.141111,-0.67027 -0.03528,-1.02305 -0.423333,-0.77611 -0.811389,-1.62278 -1.164167,-2.46945 0.03528,-0.0706 0.03528,-0.17639 0,-0.28222 -0.176389,-0.52917 -0.388055,-1.02305 -0.670277,-1.48167 -0.458612,-1.23472 -0.9525,-2.43416 -1.481667,-3.63361 -0.670278,-1.5875 -1.305278,-3.21027 -1.905,-4.86833 -0.211667,-0.635 -0.458611,-1.27 -0.705556,-1.86972 -0.423333,-1.37584 -0.776111,-2.786944 -1.093611,-4.162778 -0.211666,-0.9525 -0.423333,-1.905 -0.635,-2.8575 z M 27.936807,73.836389 c 0,-0.07056 0.03528,-0.105834 0.03528,-0.176389 -0.07056,-0.246945 -0.03528,-0.458611 0.105833,-0.635 0,-0.03528 0.03528,-0.03528 0.07056,-0.03528 0.246944,0.141111 0.352778,0.352778 0.423333,0.670278 0,0 0,0.03528 0,0.105833 0.388056,0.740833 0.670278,1.516945 0.881945,2.293056 0.105833,0.458611 0.211666,0.9525 0.3175,1.411111 0.03528,0.176389 -0.03528,0.3175 -0.211667,0.423333 -0.388056,0.141111 -0.811389,0.246944 -1.27,0.3175 -0.176389,0.03528 -0.3175,-0.03528 -0.388056,-0.211667 -0.03528,-0.105833 -0.03528,-0.211666 -0.07055,-0.3175 0,-0.03528 0,-0.03528 0,-0.03528 0,-0.03528 0,-0.03528 -0.03528,-0.03528 0,-0.07056 0,-0.105833 0,-0.176389 0,-0.03528 0,-0.07056 0.03528,-0.141111 0,-0.740833 0,-1.516945 -0.03528,-2.293056 0,-0.282222 0.03528,-0.493889 0.105833,-0.740833 0,0 0,-0.03528 0.03528,-0.07056 -0.03528,-0.105833 0,-0.246944 0,-0.352777 z m -3.739444,1.516944 c 0,-0.246944 0.105833,-0.352778 0.282222,-0.423333 0.282222,0.211666 0.529167,0.423333 0.740833,0.705555 0.176389,0.282223 0.388056,0.529167 0.635,0.811389 0.105834,0.141111 0.211667,0.282222 0.3175,0.423334 0.211667,0.352777 0.458612,0.705555 0.705556,1.058333 0.07055,0.105833 0.141111,0.211666 0.176389,0.352778 0.03528,0.03528 0.07055,0.07055 0.105833,0.141111 0,0 0,0.03528 0,0.07055 0.07056,0.352778 -0.07056,0.564445 -0.423333,0.635 -0.352778,0.105834 -0.670278,0.176389 -1.023056,0.176389 -0.141111,0.03528 -0.246944,0 -0.3175,-0.141111 -0.07055,-0.07056 -0.105833,-0.176389 -0.176389,-0.246944 -0.141111,-0.3175 -0.282222,-0.635 -0.388055,-0.9525 -0.105833,-0.3175 -0.211667,-0.599723 -0.282222,-0.9525 -0.176389,-0.529167 -0.282223,-1.058334 -0.352778,-1.658056 z M 30.370974,78.105 c 0,0.03528 0,0.03528 0,0.03528 -0.03528,0 -0.03528,0 -0.03528,0 z m 2.151944,2.610555 c 0.423334,0.07056 0.705556,0.176389 0.917222,0.352778 0.3175,0.282222 0.423334,0.670278 0.352778,1.199444 -0.03528,0.564445 -0.352778,0.9525 -0.9525,1.128889 -0.141111,0.03528 -0.246944,0.03528 -0.352778,0.07056 -0.3175,0.03528 -0.564444,-0.03528 -0.740833,-0.141111 -0.246944,-0.141111 -0.423333,-0.388056 -0.529166,-0.740834 -0.246945,-0.635 -0.07056,-1.164166 0.493888,-1.5875 0.211667,-0.176388 0.493889,-0.282222 0.776111,-0.282222 z m -0.105833,14.2875 h 0.03528 c 0,0.03528 0,0.03528 0,0.07055 z m 3.845278,-2.928056 c 0,-0.03528 0,-0.03528 0.03528,0 z m 4.198055,-4.903611 h 0.03528 l -0.03528,0.03528 z M 13.825696,73.483611 c 0.388056,-0.246945 0.740834,-0.423333 1.128889,-0.564445 0.352778,0.03528 0.458611,0.211667 0.352778,0.493889 0,0.07056 -0.03528,0.105834 -0.07056,0.141111 -0.529167,0.493889 -1.023056,0.987778 -1.516945,1.446389 -0.246944,0.211667 -0.423333,0.176389 -0.635,-0.03528 -0.141111,-0.211667 -0.3175,-0.423334 -0.458611,-0.599723 0.141111,-0.3175 0.388056,-0.529166 0.740833,-0.670277 0.141111,-0.03528 0.3175,-0.141112 0.458611,-0.211667 z m 2.504723,2.469444 c 0.03528,0 0.07056,-0.03528 0.105833,-0.07056 h 0.03528 c 0.03528,-0.03528 0.07055,-0.03528 0.07055,-0.03528 v 0 c 0.07056,0 0.105834,0.03528 0.141111,0.105833 0,0 0,0 0,0 -0.03528,0.07056 -0.07055,0.105834 -0.105833,0.176389 0.03528,0 0.03528,0 0.03528,0 -0.07056,0.141111 -0.176389,0.246945 -0.3175,0.282222 -0.07056,0.07056 -0.141111,0.141112 -0.176389,0.246945 -0.07056,0.176389 -0.176389,0.3175 -0.352778,0.458611 -0.246944,0.141111 -0.458611,0.352778 -0.635,0.564444 0,0.03528 0,0.105834 0,0.176389 0,0.03528 -0.03528,0.03528 -0.07056,0.03528 -0.282223,0.105833 -0.388056,0 -0.458611,-0.282222 -0.07056,-0.423333 -0.105834,-0.846667 -0.141112,-1.27 C 14.495974,76.235278 14.56653,76.2 14.672363,76.2 c 0.03528,0 0.07056,0.03528 0.105833,0.03528 0.3175,-0.176389 0.705556,-0.246945 1.128889,-0.282223 0.105834,0 0.211667,0 0.282223,0 0.07055,0 0.105833,0 0.141111,0 z m -11.1477779,0.07056 c 0.035278,-0.03528 0.070556,-0.105833 0.1411111,-0.176389 0,0 0.035278,-0.03528 0.035278,-0.03528 0.2469444,-0.529166 0.7408333,-0.846666 1.4463888,-1.023055 0.5644445,0 1.0230556,0.105833 1.4111111,0.282222 0.035278,0 0.035278,0 0.1058333,0 L 9.310141,76.2 v 0.105833 c 0,0.07056 0,0.105833 0.035278,0.176389 0.035278,0 0.035278,0.03528 0.070556,0.105833 l 0.035278,0.07056 v 0.07056 c 0.035278,0.105834 0.035278,0.246945 0.035278,0.352778 0.070555,0.388056 0.070555,0.740833 -0.070556,1.023056 v 0.3175 c -0.1411111,0.105833 -0.2822222,0.176389 -0.3880555,0.246944 -0.035278,0 -0.035278,0 -0.035278,0.03528 -0.1058333,0.07055 -0.2469444,0.176389 -0.3880555,0.246944 -0.1411112,0.105834 -0.2822223,0.176389 -0.4586111,0.176389 -0.070556,0 -0.070556,0 -0.1411112,0 -0.1058338,0.07054 -0.2822227,0.105823 -0.388056,0.176378 C 7.5462521,79.233889 7.5109744,79.163333 7.4404188,79.128055 6.3820855,79.0575 5.6412522,78.457777 5.2531966,77.399444 c 0,-0.141111 -0.035278,-0.246944 -0.035278,-0.388055 -0.035278,-0.07056 -0.035278,-0.141111 -0.035278,-0.211667 0,-0.03528 0,-0.03528 0,-0.03528 l -0.035278,-0.03528 -0.070556,-0.3175 0.1411111,-0.246944 z M 34.745418,103.08167 c -0.246944,0 -0.246944,0 -0.07055,-0.0353 0.176389,-0.0353 0.176389,-0.0353 0.07055,0.0353 z"
       id="path1" />
    <path
       style="fill:#ffffff;stroke:none;stroke-width:0.352778"
       d="m 27.972085,73.66 c 0,0.07055 -0.03528,0.105833 -0.03528,0.176389 0,0.105833 -0.03528,0.246944 0,0.352777 -0.03528,0.03528 -0.03528,0.07056 -0.03528,0.07056 -0.07055,0.246944 -0.105833,0.458611 -0.105833,0.740833 0.03528,0.776111 0.03528,1.552223 0.03528,2.293056 -0.03528,0.07055 -0.03528,0.105833 -0.03528,0.141111 0,0.07056 0,0.105833 0,0.176389 0.03528,0 0.03528,0 0.03528,0.03528 0,0 0,0 0,0.03528 0.03528,0.105834 0.03528,0.211667 0.07055,0.3175 0.07056,0.176389 0.211667,0.246945 0.388056,0.211667 0.458611,-0.07056 0.881944,-0.176389 1.27,-0.3175 0.176389,-0.105833 0.246944,-0.246944 0.211667,-0.423333 -0.105834,-0.458611 -0.211667,-0.9525 -0.3175,-1.411111 -0.211667,-0.776111 -0.493889,-1.552223 -0.881945,-2.293056 0,-0.07055 0,-0.105833 0,-0.105833 -0.07055,-0.3175 -0.176389,-0.529167 -0.423333,-0.670278 -0.03528,0 -0.07056,0 -0.07056,0.03528 -0.141111,0.176389 -0.176389,0.388055 -0.105833,0.635 z"
       id="path2" />
    <path
       style="fill:#ffffff;stroke:none;stroke-width:0.352778"
       d="m 24.479585,74.93 c -0.176389,0.07055 -0.282222,0.176389 -0.282222,0.423333 0.07056,0.599722 0.176389,1.128889 0.352778,1.658056 0.07055,0.352777 0.176389,0.635 0.282222,0.9525 0.105833,0.3175 0.246944,0.635 0.388055,0.9525 0.07056,0.07055 0.105834,0.176388 0.176389,0.246944 0.07056,0.141111 0.176389,0.176389 0.3175,0.141111 0.352778,0 0.670278,-0.07055 1.023056,-0.176389 0.352778,-0.07055 0.493889,-0.282222 0.423333,-0.635 0,-0.03528 0,-0.07055 0,-0.07055 -0.03528,-0.07056 -0.07056,-0.105834 -0.105833,-0.141111 -0.03528,-0.141112 -0.105834,-0.246945 -0.176389,-0.352778 -0.246944,-0.352778 -0.493889,-0.705556 -0.705556,-1.058333 -0.105833,-0.141112 -0.211666,-0.282223 -0.3175,-0.423334 -0.246944,-0.282222 -0.458611,-0.529166 -0.635,-0.811389 C 25.008752,75.353333 24.761807,75.141666 24.479585,74.93 Z"
       id="path3" />
    <path
       style="fill:#ffffff;stroke:none;stroke-width:0.352778"
       d="m 33.44014,81.068333 c -0.211666,-0.176389 -0.493888,-0.282222 -0.917222,-0.352778 0,0 -0.03528,0 -0.03528,0 -0.282222,0 -0.564444,0.105834 -0.776111,0.282222 -0.564444,0.423334 -0.740833,0.9525 -0.493888,1.5875 0.105833,0.352778 0.282222,0.599723 0.529166,0.740834 0.176389,0.105833 0.423333,0.176389 0.740833,0.141111 0.105834,-0.03528 0.211667,-0.03528 0.352778,-0.07056 0.599722,-0.176389 0.917222,-0.564444 0.9525,-1.128889 0.07056,-0.529166 -0.03528,-0.917222 -0.352778,-1.199444 z m -0.917222,0.246944 c 0.493889,0.03528 0.705556,0.282223 0.670278,0.811389 -0.03528,0.352778 -0.246944,0.529167 -0.670278,0.529167 -0.458611,-0.07056 -0.670278,-0.3175 -0.635,-0.705556 0.03528,-0.388055 0.246945,-0.599722 0.635,-0.635 z"
       id="path4" />
    <path
       style="fill:#5f5f61;stroke:none;stroke-width:0.352778"
       d="m 33.193196,82.126666 c 0.03528,-0.529166 -0.176389,-0.776111 -0.670278,-0.811389 -0.388055,0.03528 -0.599722,0.246945 -0.635,0.635 -0.03528,0.388056 0.176389,0.635 0.635,0.705556 0.423334,0 0.635,-0.176389 0.670278,-0.529167 z"
       id="path5" />
    <path
       style="fill:#ffffff;stroke:none;stroke-width:0.352778"
       d="m 14.954585,72.919166 c -0.388055,0.141112 -0.740833,0.3175 -1.128889,0.564445 -0.141111,0.07055 -0.3175,0.176389 -0.458611,0.211667 -0.352777,0.141111 -0.599722,0.352777 -0.740833,0.670277 0.141111,0.176389 0.3175,0.388056 0.458611,0.599723 0.211667,0.211666 0.388056,0.246944 0.635,0.03528 0.493889,-0.458611 0.987778,-0.9525 1.516945,-1.446389 0.03528,-0.03528 0.07056,-0.07055 0.07056,-0.141111 0.105833,-0.282222 0,-0.458611 -0.352778,-0.493889 z"
       id="path6" />
    <path
       style="fill:#ffffff;stroke:none;stroke-width:0.352778"
       d="m 16.436252,75.8825 c -0.03528,0.03528 -0.07056,0.07056 -0.105833,0.07056 -0.03528,0 -0.07056,0 -0.141111,0 -0.07056,0 -0.176389,0 -0.282223,0 -0.423333,0.03528 -0.811389,0.105834 -1.128889,0.282223 -0.03528,0 -0.07055,-0.03528 -0.105833,-0.03528 -0.105833,0 -0.176389,0.03528 -0.211667,0.141111 0.03528,0.423333 0.07056,0.846667 0.141112,1.27 0.07056,0.282222 0.176388,0.388055 0.458611,0.282222 0.03528,0 0.07056,0 0.07056,-0.03528 0,-0.07055 0,-0.141111 0,-0.176389 0.176389,-0.211666 0.388056,-0.423333 0.635,-0.564444 0.176389,-0.141111 0.282222,-0.282222 0.352778,-0.458611 0.03528,-0.105833 0.105833,-0.176389 0.176389,-0.246945 0.141111,-0.03528 0.246944,-0.141111 0.3175,-0.282222 0,0 0,0 -0.03528,0 0.03528,-0.07056 0.07056,-0.105833 0.105833,-0.176389 0,0 0,0 0,0 -0.03528,-0.07056 -0.07055,-0.105833 -0.141111,-0.105833 v 0 c 0,0 -0.03528,0 -0.07055,0.03528 z"
       id="path7" />
    <path
       style="fill:#ffffff;stroke:none;stroke-width:0.352778"
       d="m 5.3237522,75.847222 c -0.070556,0.07056 -0.1058333,0.141111 -0.1411111,0.176389 l 0.035278,0.141111 -0.1411111,0.246944 0.070556,0.3175 0.035278,0.03528 c 0,0 0,0 0,0.03528 0,0.07056 0,0.141111 0.035278,0.211667 0,0.141111 0.035278,0.246944 0.035278,0.388055 0.3880556,1.058333 1.1288889,1.658056 2.1872222,1.728611 0.070556,0.03528 0.1058333,0.105834 0.1763889,0.176389 0.1058333,-0.07055 0.2822222,-0.105833 0.3880555,-0.176389 0.070556,0 0.070556,0 0.1411112,0 0.1763888,0 0.3174999,-0.07055 0.4586111,-0.176389 0.1411111,-0.07055 0.2822222,-0.176389 0.3880555,-0.246944 0,-0.03528 0,-0.03528 0.035278,-0.03528 0.1058333,-0.07055 0.2469444,-0.141111 0.3880555,-0.246944 V 78.105 c 0.1411111,-0.282223 0.1411111,-0.635 0.070556,-1.023056 0,-0.105833 0,-0.246944 -0.035278,-0.352778 v -0.07056 l -0.035278,-0.07056 C 9.3806966,76.5175 9.3806966,76.482222 9.3454188,76.482222 9.310141,76.411666 9.310141,76.376389 9.310141,76.305833 V 76.2 L 8.3223632,75.071111 c -0.070555,0 -0.070555,0 -0.1058333,0 C 7.8284744,74.894722 7.3698633,74.788889 6.8054188,74.788889 6.0998633,74.965278 5.6059744,75.282778 5.35903,75.811944 Z m 1.8344444,1.164167 C 7.0170855,76.835 7.0170855,76.658611 7.0170855,76.482222 7.087641,76.2 7.2640299,76.058889 7.5109744,76.023611 c 0.4586111,-0.07056 0.7408333,0.07055 0.8466666,0.458611 0.035278,0.176389 0.035278,0.3175 -0.070555,0.458611 -0.035278,0.07056 -0.070556,0.141111 -0.1411111,0.176389 -0.4233334,0.282222 -0.7055556,0.246944 -0.9877783,-0.105833 z"
       id="path8" />
    <path
       style="fill:#5f5f61;stroke:none;stroke-width:0.352778"
       d="m 7.0170855,76.482222 c 0,0.176389 0,0.352778 0.1411111,0.529167 0.2822222,0.352777 0.5644444,0.388055 0.9877778,0.105833 0.070555,-0.03528 0.1058333,-0.105833 0.1411111,-0.176389 C 8.3929188,76.799722 8.3929188,76.658611 8.357641,76.482222 8.2518077,76.094166 7.9695855,75.953055 7.5109744,76.023611 7.2640299,76.058889 7.087641,76.2 7.0170855,76.482222 Z"
       id="path9" />
  </g>
</svg>
