<?xml version="1.0" encoding="UTF-8" standalone="no"?>
<!-- Created with Inkscape (http://www.inkscape.org/) -->

<svg
   width="47.709427mm"
   height="64.983566mm"
   viewBox="0 0 47.709427 64.983566"
   version="1.1"
   id="svg1"
   inkscape:version="1.3 (0e150ed6c4, 2023-07-21)"
   sodipodi:docname="stickers_battle_ready.svg"
   xmlns:inkscape="http://www.inkscape.org/namespaces/inkscape"
   xmlns:sodipodi="http://sodipodi.sourceforge.net/DTD/sodipodi-0.dtd"
   xmlns="http://www.w3.org/2000/svg"
   xmlns:svg="http://www.w3.org/2000/svg">
  <sodipodi:namedview
     id="namedview1"
     pagecolor="#ffffff"
     bordercolor="#000000"
     borderopacity="0.25"
     inkscape:showpageshadow="2"
     inkscape:pageopacity="0.0"
     inkscape:pagecheckerboard="0"
     inkscape:deskcolor="#d1d1d1"
     inkscape:document-units="mm"
     inkscape:zoom="0.74386223"
     inkscape:cx="343.47758"
     inkscape:cy="363.6426"
     inkscape:window-width="1920"
     inkscape:window-height="1027"
     inkscape:window-x="1912"
     inkscape:window-y="-8"
     inkscape:window-maximized="1"
     inkscape:current-layer="layer1" />
  <defs
     id="defs1" />
  <g
     inkscape:label="Layer 1"
     inkscape:groupmode="layer"
     id="layer1"
     transform="translate(-14.287465,-52.387402)">
    <path
       style="fill:#5f5f61;stroke:none;stroke-width:0.352778"
       d="m 35.85121,61.25288 c -0.07055,-0.03528 -0.141111,-0.07056 -0.211666,-0.105834 -0.458612,-0.352777 -0.987778,-0.599722 -1.5875,-0.740833 -0.846667,-0.176389 -1.728611,-0.246944 -2.610556,-0.211667 -0.105833,0 -0.246944,0.03528 -0.388055,0.07056 -0.141112,-0.07056 -0.3175,-0.07056 -0.529167,-0.03528 -0.670278,0.282222 -1.305278,0.599722 -1.905,0.987778 -0.740833,0.493889 -1.481667,1.023055 -2.187222,1.552222 -0.458611,0.352778 -0.881945,0.705556 -1.305278,1.128889 -0.3175,0.3175 -0.599722,0.705555 -0.776111,1.128889 -0.141111,0.352778 -0.282222,0.705555 -0.458611,1.023055 -0.03528,0.141111 -0.105833,0.246945 -0.176389,0.352778 -0.176389,0.3175 -0.282222,0.635 -0.282222,1.023056 -0.03528,0.07055 -0.07056,0.176389 -0.07056,0.3175 -0.07056,0.3175 -0.07056,0.670277 -0.07056,0.987777 0,0.423334 0,0.811389 -0.03528,1.234723 -0.105833,0.07055 -0.141111,0.176388 -0.105833,0.388055 0.03528,0.141111 0.07055,0.3175 0.105833,0.529167 0.03528,0.3175 0.105833,0.635 0.176389,0.9525 0,0.03528 0,0.07055 0,0.105833 0.03528,0.211667 0.105833,0.458611 0.176389,0.670278 0.176389,0.776111 0.388055,1.516944 0.599722,2.257778 0.03528,0.07055 0.03528,0.105833 0.07055,0.141111 0.3175,0.635 0.564445,1.27 0.740834,1.905 0.03528,0.07055 0.03528,0.141111 0.07055,0.176389 0,0.141111 0.03528,0.282222 0.03528,0.388055 -0.03528,0.211667 -0.07056,0.458611 -0.03528,0.670278 0.03528,0.881944 -0.105833,1.728611 -0.423333,2.504722 -0.105833,0.282222 -0.246945,0.564444 -0.388056,0.846667 -0.211666,0.211666 -0.423333,0.493889 -0.564444,0.740833 -0.03528,0.03528 -0.03528,0.07056 -0.03528,0.07056 0,0.03528 0,0.03528 0,0.03528 -0.03528,0 -0.03528,0.03528 -0.07055,0.07056 -0.458611,0.564444 -0.846667,1.199444 -1.164167,1.869722 -0.03528,0 -0.03528,0.03528 -0.07056,0.03528 -0.03528,0.07055 -0.03528,0.141111 -0.03528,0.176389 -0.211667,0.246944 -0.352778,0.493889 -0.458611,0.811389 -0.176389,0.458611 -0.3175,0.9525 -0.493889,1.446388 -0.176389,0.705556 -0.282223,1.411111 -0.246945,2.116667 -0.03528,0 -0.07056,0 -0.105833,0 -0.388056,-0.07056 -0.776111,0.07056 -1.093611,0.352778 0,0 -0.03528,0 -0.07056,0 -0.07056,0.03528 -0.141111,0.105833 -0.211666,0.176389 -0.105834,0.282222 -0.3175,0.529166 -0.564445,0.705555 0.176389,0.352778 0.458611,0.670278 0.881945,0.881945 0.03528,0.03528 0.07056,0.03528 0.105833,0.07055 -0.03528,0.141111 0.03528,0.282222 0.246944,0.352778 -0.03528,0.105833 -0.03528,0.141111 -0.03528,0.211667 0,0.105833 0,0.176389 0.03528,0.246944 -0.07055,0.176389 -0.105833,0.3175 -0.105833,0.493889 -0.141111,0.670278 -0.423333,1.305278 -0.811389,1.869722 0,-0.493889 0,-0.9525 0,-1.446389 0,-0.176389 0,-0.3175 -0.03528,-0.493889 -0.03528,-0.282222 -0.07055,-0.599722 -0.105833,-0.881944 0,-0.176389 0,-0.352778 -0.07056,-0.529167 0,-0.105833 -0.07056,-0.211666 -0.141111,-0.3175 0,0 0,0 0,-0.03528 v 0 c 0,-0.03528 0,-0.03528 0.03528,-0.07056 0,0 0,-0.03528 0,-0.07056 0,-0.03528 0,-0.07055 0,-0.105833 0,0 0,-0.07055 -0.03528,-0.07055 -0.03528,-0.07056 -0.07055,-0.105834 -0.141111,-0.141112 0,-0.03528 0,-0.03528 0,-0.07055 0,-0.07056 -0.07056,-0.211667 -0.105833,-0.282222 0,-0.03528 0.03528,-0.03528 0.03528,-0.03528 -0.07056,-0.211667 -0.176389,-0.423333 -0.3175,-0.599722 -0.3175,-0.493889 -0.740834,-0.740834 -1.27,-0.846667 -0.846667,0.141111 -1.552222,0.529167 -2.116667,1.199444 -0.246944,0.246945 -0.458611,0.529167 -0.670278,0.776112 -0.141111,0.176388 -0.211666,0.352777 -0.176389,0.564444 0.03528,0.176389 0.141112,0.246944 0.352778,0.246944 0.141111,0 0.246945,-0.03528 0.352778,-0.03528 0.07056,-0.03528 0.176389,-0.07056 0.282222,-0.105834 0.105834,0 0.211667,-0.03528 0.282222,-0.07055 0.564445,-0.105834 1.093612,-0.03528 1.5875,0.211666 0.03528,0.03528 0.07056,0.03528 0.105834,0.07056 0,0.07056 0,0.105833 0.03528,0.141111 0.07055,0.211667 0.105833,0.458611 0.141111,0.670278 0.105833,0.846667 0.141111,1.728611 0.176389,2.610555 0,0.211667 0,0.423334 -0.03528,0.635 -0.03528,0.881945 -0.176389,1.728611 -0.352778,2.575278 -0.211667,0.846667 -0.599722,1.5875 -1.199444,2.2225 -0.176389,-0.141111 -0.352778,-0.3175 -0.493889,-0.458611 0,-0.03528 0,-0.03528 0,-0.03528 -0.03528,-0.105833 -0.07056,-0.176389 -0.141111,-0.176389 -0.282223,-0.141111 -0.423334,-0.07055 -0.458612,0.246945 -0.141111,0.881941 -0.105833,1.728611 0.07056,2.575281 0.07056,0.38805 0.282222,0.67027 0.599722,0.88194 0.176389,0.0706 0.388056,0.10583 0.564445,0.0353 0.388055,-0.10584 0.705555,-0.3175 0.917222,-0.67028 0.105833,-0.14111 0.176389,-0.28222 0.282222,-0.38806 0.564445,-0.67027 1.058333,-1.41111 1.481667,-2.151939 0.176389,-0.352778 0.352777,-0.776111 0.529166,-1.164167 0.105834,-0.211666 0.176389,-0.423333 0.246945,-0.599722 0.105833,-0.246944 0.176389,-0.458611 0.246944,-0.670278 0.141111,0.141111 0.282222,0.246945 0.388056,0.352778 0.246944,0.3175 0.529166,0.493889 0.881944,0.529167 0.07056,0.07055 0.141111,0.176389 0.246945,0.246944 0,0.03528 0.03528,0.07056 0.07055,0.07056 0.07056,0.3175 0.211667,0.599722 0.423334,0.881944 0.105833,0.176389 0.246944,0.282222 0.423333,0.388056 0.529167,0.246937 1.058333,0.352777 1.622778,0.246937 0.03528,0.10584 0.07055,0.24695 0.105833,0.3175 0.07056,0.38806 0.07056,0.77611 0,1.16417 -0.07056,0.45861 -0.176389,0.88194 -0.352778,1.30528 -0.141111,0.42333 -0.3175,0.81139 -0.529166,1.16416 -0.423334,0.84667 -0.846667,1.65806 -1.27,2.50473 -0.3175,0.52916 -0.670278,1.02305 -1.023056,1.55222 -0.388056,0.52916 -0.670278,1.09361 -0.811389,1.72861 -0.141111,0.56444 0.03528,0.9525 0.564445,1.19944 0.105833,0.0353 0.176388,0.0706 0.282222,0.10584 0.03528,0.0705 0.105833,0.0705 0.246944,0.10583 0.07056,0 0.141111,0 0.211667,0.0353 0.07056,0 0.105833,0 0.176389,0 0.105833,0.0353 0.211666,0.0353 0.3175,0.0705 0.599722,0.10584 1.164166,0.0353 1.658055,-0.24694 0.458611,-0.21167 0.881945,-0.45861 1.27,-0.74083 0.282222,-0.17639 0.529167,-0.35278 0.740834,-0.56445 0,0.17639 0,0.35278 0.03528,0.52917 0.03528,0.3175 0.141111,0.56444 0.388056,0.77611 0.493889,0.49389 1.093611,0.56444 1.763889,0.24694 0.564444,-0.21166 1.058333,-0.52916 1.516944,-0.98777 0.599722,-0.59973 1.234722,-1.19945 1.834445,-1.83445 0.635,-0.59972 1.199444,-1.27 1.728611,-1.94028 0.176389,-0.24694 0.388055,-0.49389 0.599722,-0.70555 0.458611,-0.49389 0.846666,-0.98778 1.199444,-1.55222 0.388056,-0.56445 0.740834,-1.16417 1.058334,-1.79917 0.846666,0.24694 1.693333,0.3175 2.54,0.28222 0.105833,0 0.176388,0 0.246944,-0.0353 0.141111,0.49389 0.246944,0.98778 0.3175,1.51695 0.105833,0.59972 0.176389,1.23472 0.246944,1.83444 0,0.28222 0.03528,0.52917 0.07056,0.77611 0.07056,0.38806 0.105833,0.77611 0.105833,1.19945 0.03528,0.84666 0.105834,1.72861 0.211667,2.57528 0.141111,0.84666 0.211667,1.72861 0.246944,2.61055 0.03528,0.0706 0.03528,0.14111 0.03528,0.21167 0.03528,1.02305 0.423333,1.86972 1.128889,2.57528 0.105833,0.10583 0.211667,0.24694 0.3175,0.38805 0.141111,0.14111 0.3175,0.28222 0.493889,0.35278 0.493889,0.21167 0.987778,0.38805 1.481667,0.52917 0.282222,0.0705 0.529166,0 0.670277,-0.21167 0,-0.0706 0,-0.10583 0,-0.14111 -0.282222,-0.38806 -0.564444,-0.77611 -0.846666,-1.12889 0,-0.0706 -0.03528,-0.10583 -0.03528,-0.14111 -0.03528,-0.0706 -0.105833,-0.14111 -0.141111,-0.21167 -0.03528,-0.0705 -0.03528,-0.14111 -0.07056,-0.21167 -0.211666,-0.70555 -0.352778,-1.37583 -0.458611,-2.11666 0.03528,0.0353 0.07056,0.0353 0.105833,0.10583 0.03528,0.0706 0.07056,0.14111 0.105834,0.21167 0.03528,0.0353 0.03528,0.0706 0.03528,0.10583 0.458611,0.74083 0.987777,1.41111 1.622777,1.97556 0.105834,0.10583 0.211667,0.14111 0.352778,0.14111 0.352778,0 0.635,-0.17639 0.846667,-0.49389 0.388055,-0.59972 0.423333,-1.19945 0.105833,-1.83445 -0.211667,-0.45861 -0.458611,-0.88194 -0.705556,-1.30527 -0.529166,-0.88195 -1.093611,-1.76389 -1.728611,-2.57528 -0.07055,-0.10583 -0.141111,-0.21167 -0.211666,-0.3175 -0.458611,-0.45861 -0.635,-1.02306 -0.493889,-1.62278 0.141111,-0.88194 0.3175,-1.72861 0.493889,-2.61055 0.07056,-0.24695 0.141111,-0.45862 0.211666,-0.70556 0.176389,-0.35278 0.211667,-0.74083 0.105834,-1.12889 0,-0.0705 -0.03528,-0.10583 -0.141111,-0.14111 -0.03528,-0.0353 -0.141111,-0.0353 -0.211667,-0.0706 -0.352778,0.14112 -0.635,0.35278 -0.846667,0.67028 -0.211666,0.24695 -0.423333,0.52917 -0.670277,0.77611 -0.03528,0.0353 -0.07056,0.0706 -0.07056,0.14111 -0.03528,-0.0705 -0.03528,-0.14111 -0.07056,-0.17638 -0.211666,-0.84667 -0.3175,-1.69334 -0.3175,-2.57528 0,-0.17639 -0.03528,-0.28222 -0.07055,-0.38806 0.176389,-0.24694 0.352778,-0.52916 0.493889,-0.81139 0.105833,0.0353 0.211666,0.0706 0.3175,0.10584 0.211666,0.0353 0.352778,0.0353 0.493889,-0.0706 0.105833,-0.0705 0.211666,-0.21167 0.282222,-0.35278 0.105833,-0.21166 0.211667,-0.388047 0.3175,-0.599714 0.176389,-0.3175 0.176389,-0.705556 0.03528,-1.058333 -0.07056,-0.176389 -0.141111,-0.423334 -0.211667,-0.599723 -0.07056,-0.246944 -0.176389,-0.423333 -0.3175,-0.599722 0.105833,-0.07055 0.246944,-0.176389 0.352778,-0.282222 0.388055,-0.388055 0.635,-0.846667 0.776111,-1.340555 0,0 0,0 0.03528,0 0.670277,0.529166 1.446388,0.917222 2.257777,1.128888 0.846667,0.246945 1.728611,0.352778 2.610556,0.352778 0.176389,0 0.388055,0 0.599722,0 0.352778,-0.03528 0.705556,-0.07055 1.058333,-0.07055 0.846667,-0.03528 1.622778,-0.3175 2.293056,-0.846667 0.3175,-0.211667 0.564444,-0.458611 0.811389,-0.740833 0.282222,-0.3175 0.423333,-0.670278 0.493889,-1.058334 0.03528,-0.246944 0,-0.423333 -0.07056,-0.599722 0.07056,0 0.105833,-0.03528 0.141111,-0.03528 0.458611,-0.141111 0.917222,-0.246944 1.340556,-0.388055 0.635,-0.141111 1.234722,-0.352778 1.799166,-0.670278 0.352778,-0.176389 0.740834,-0.388055 1.128889,-0.564444 0.282222,-0.141111 0.564445,-0.3175 0.811389,-0.493889 0.141111,-0.141111 0.282222,-0.246945 0.423333,-0.352778 0.458612,-0.388056 0.670278,-0.881944 0.670278,-1.481667 0,-0.141111 -0.03528,-0.282222 -0.03528,-0.423333 -0.141111,-0.635 -0.529166,-0.9525 -1.199444,-0.917222 -0.105833,0 -0.211667,0 -0.3175,0 0.141111,-0.07056 0.3175,-0.141111 0.493889,-0.211667 0.599722,-0.282222 1.164166,-0.635 1.693333,-1.023055 0.246945,-0.141111 0.423333,-0.3175 0.635,-0.529167 0.03528,0 0.07056,-0.03528 0.141111,-0.07056 0.352778,-0.423333 0.670278,-0.881944 0.881945,-1.375833 0.141111,-0.282222 0.141111,-0.564444 0.03528,-0.811389 -0.141111,-0.3175 -0.3175,-0.635 -0.529166,-0.881944 -0.03528,-0.07056 -0.07056,-0.105834 -0.105834,-0.105834 -0.564444,-0.493888 -1.199444,-0.776111 -1.940277,-0.846666 -0.635,-0.07056 -1.234722,-0.141111 -1.834445,-0.141111 -0.881944,-0.03528 -1.728611,-0.03528 -2.610555,-0.03528 -0.352778,0 -0.705556,0 -1.058333,0 -1.305278,0.07056 -2.645834,0.141111 -4.021667,0.176389 -0.282222,0.03528 -0.599722,0 -0.917222,-0.03528 -0.635,-0.03528 -1.305278,-0.07055 -1.940278,0 -0.03528,-0.141111 -0.07056,-0.246944 -0.105833,-0.3175 0.211666,-0.105833 0.423333,-0.176389 0.670277,-0.211667 0.811389,-0.211666 1.658056,-0.493888 2.434167,-0.811388 0.141111,-0.07056 0.282222,-0.105834 0.423333,-0.141112 0.564445,-0.176388 1.093611,-0.458611 1.5875,-0.811388 0.282223,-0.176389 0.599723,-0.352778 0.881945,-0.493889 0.811389,-0.423334 1.446389,-0.9525 1.940277,-1.658056 0.388056,-0.529166 0.564445,-1.093611 0.529167,-1.693333 0,-0.423333 -0.141111,-0.705556 -0.423333,-0.881945 0.458611,-0.529166 0.917222,-1.128888 1.305278,-1.728611 0.493888,-0.740833 0.9525,-1.481666 1.375833,-2.2225 0.211667,-0.388055 0.388055,-0.776111 0.529167,-1.199444 0.3175,-0.811389 0.529166,-1.622778 0.670277,-2.504722 0.105834,-0.881945 0.07056,-1.728611 -0.141111,-2.575278 -0.105833,-0.423333 -0.352778,-0.705555 -0.776111,-0.740833 -0.352778,0 -0.705555,0.07055 -1.023055,0.282222 0.141111,-0.352778 0.3175,-0.705556 0.423333,-1.058333 0.176389,-0.529167 0.3175,-1.058334 0.458611,-1.622778 0.176389,-0.388056 0.352778,-0.811389 0.458611,-1.27 0.141111,-0.388056 0.176389,-0.776111 0.105833,-1.199444 -0.03528,-0.3175 -0.07055,-0.635 -0.07055,-0.9525 0,-0.246945 -0.03528,-0.458612 -0.105833,-0.635 -0.141112,-0.670278 -0.423334,-1.27 -0.776112,-1.869723 -0.388055,-0.635 -0.987777,-0.987777 -1.763888,-0.987777 -0.423334,-0.03528 -0.811389,0.03528 -1.199445,0.211666 -0.529166,0.211667 -0.881944,0.599723 -1.058333,1.128889 -0.176389,0.493889 -0.388056,0.987778 -0.635,1.481667 -0.07056,-0.529167 -0.176389,-1.058333 -0.282222,-1.5875 -0.105834,-0.423333 -0.246945,-0.846667 -0.388056,-1.234722 -0.105833,-0.282223 -0.246944,-0.529167 -0.388055,-0.776111 -0.529167,-0.705556 -1.164167,-1.27 -1.940278,-1.693334 -0.03528,-0.03528 -0.105834,-0.07055 -0.141111,-0.105833 -0.423334,-0.3175 -0.917222,-0.458611 -1.411111,-0.423333 -0.740834,-0.07056 -1.340556,0.211666 -1.763889,0.776111 -0.3175,0.388055 -0.529167,0.811389 -0.670278,1.27 0,0.03528 0,0.03528 -0.03528,0.03528 -0.03528,0.176389 -0.07055,0.352778 -0.105833,0.529167 0,0.105833 -0.03528,0.176389 -0.03528,0.282222 -0.105833,0.388056 -0.141111,0.846667 -0.105833,1.27 v 0.03528 c -0.03528,0.3175 -0.07056,0.635 -0.105834,0.987778 -0.07055,0.776111 -0.105833,1.5875 -0.07055,2.363611 0.03528,0.246944 0,0.493889 0,0.776111 -0.105833,0.811389 -0.282222,1.658056 -0.493889,2.434167 -0.03528,0.141111 -0.07056,0.246944 -0.105833,0.352777 -0.246945,0.846667 -0.493889,1.693334 -0.740834,2.504723 -0.07055,0.246944 -0.141111,0.493888 -0.246944,0.740833 -0.246944,0.599722 -0.423333,1.164166 -0.599722,1.763889 -0.282222,0.9525 -0.670278,1.834444 -1.234722,2.610555 -0.03528,0.105834 -0.105834,0.211667 -0.176389,0.282222 0,-0.141111 -0.03528,-0.3175 -0.105834,-0.493888 0,-0.07056 -0.03528,-0.141112 -0.03528,-0.211667 -0.141112,-0.670278 -0.3175,-1.340556 -0.493889,-1.975556 -0.105834,-0.564444 -0.282223,-1.093611 -0.423334,-1.622777 0,-0.03528 0,-0.07056 -0.03528,-0.07056 -0.105834,-0.388055 -0.282223,-0.776111 -0.458612,-1.128889 0,-0.03528 0,-0.07056 0,-0.07056 -0.03528,-0.141111 -0.07055,-0.282223 -0.176388,-0.388056 0,-0.03528 0,-0.03528 0,-0.03528 -0.03528,-0.141111 -0.105834,-0.282222 -0.176389,-0.388055 -0.03528,-0.03528 -0.03528,-0.07056 -0.07056,-0.141111 0,-0.03528 0,-0.07056 0,-0.07056 -0.105833,-0.282222 -0.211667,-0.564444 -0.388055,-0.776111 0,-0.03528 0,-0.03528 -0.03528,-0.03528 0,-0.03528 -0.03528,-0.07056 -0.03528,-0.07056 v -0.03528 c 0,0 0,0 0,-0.03528 -0.105833,-0.176389 -0.246944,-0.352778 -0.423333,-0.458611 -0.176389,-0.176389 -0.388056,-0.3175 -0.564445,-0.529167 -0.141111,-0.105833 -0.246944,-0.211666 -0.352777,-0.282222 -0.352778,-0.282222 -0.705556,-0.493889 -1.093612,-0.670278 0,-0.105833 -0.07055,-0.176388 -0.141111,-0.211666 -0.246944,-0.176389 -0.493889,-0.3175 -0.776111,-0.458611 z m 1.27,3.915833 c 0.105834,-0.07056 0.141111,-0.141111 0.176389,-0.211667 0.03528,0.141111 0.105833,0.282222 0.211667,0.423334 0.141111,0.282222 0.282222,0.599722 0.3175,0.881944 0.03528,0.105833 0.03528,0.176389 0.07055,0.282222 0.105834,0.388056 0.141111,0.811389 0.105834,1.234722 -0.03528,0.176389 0,0.388056 0,0.599723 0.03528,0.352777 0,0.670277 -0.141111,0.9525 -0.141112,0.282222 -0.282223,0.529166 -0.423334,0.811388 -0.246944,0.529167 -0.705555,0.811389 -1.27,0.881945 -0.03528,0.03528 -0.03528,0.03528 -0.07055,0.07055 -0.246945,-0.07055 -0.529167,-0.176388 -0.740834,-0.3175 -0.141111,-0.105833 -0.246944,-0.211666 -0.388055,-0.3175 -0.3175,-0.246944 -0.599722,-0.529166 -0.846667,-0.846666 -0.07055,-0.141111 -0.105833,-0.246945 -0.141111,-0.388056 -0.07055,-0.141111 -0.176389,-0.282222 -0.246944,-0.388055 0.493888,-0.458611 0.9525,-0.9525 1.375833,-1.446389 0.564444,-0.670278 1.164167,-1.340556 1.763889,-1.975556 0.03528,-0.03528 0.07055,-0.03528 0.07055,-0.07055 0.07056,-0.07056 0.141111,-0.105834 0.176389,-0.176389 z m -10.054166,3.598333 c 0.3175,0.03528 0.599722,0.105833 0.881944,0.211667 0.211667,0.03528 0.388056,0.105833 0.599722,0.211666 0.07056,0.03528 0.141112,0.03528 0.246945,0.07056 0,0.3175 -0.03528,0.670278 -0.105833,0.987778 0,0.03528 0,0.03528 0,0.03528 0,0.105833 -0.03528,0.176388 -0.03528,0.282222 0,0 0,0 -0.03528,0.03528 0,0.141111 -0.03528,0.3175 -0.105833,0.458611 -0.246945,0.599722 -0.635,1.093611 -1.164167,1.446389 -0.388056,0.105833 -0.776111,0.07055 -1.164167,-0.03528 -0.105833,-0.03528 -0.176389,-0.07056 -0.246944,-0.141111 -0.211667,-0.176389 -0.423333,-0.388056 -0.705556,-0.529167 -0.03528,-0.03528 -0.07055,-0.07056 -0.105833,-0.105833 -0.352778,-0.388056 -0.599722,-0.776111 -0.740833,-1.234723 -0.03528,-0.352777 -0.07056,-0.740833 -0.03528,-1.093611 0,-0.388055 0,-0.740833 -0.105833,-1.093611 0,-0.03528 0,-0.03528 0,-0.03528 0,-0.07056 0,-0.105833 0,-0.141111 0.282222,0.141111 0.564444,0.246945 0.846666,0.282223 0.635,0.246944 1.305278,0.352777 1.975556,0.388055 z m 3.033889,5.185833 c -0.211667,0.105834 -0.352778,0.176389 -0.529167,0.282223 0.105833,-0.141112 0.211667,-0.3175 0.282222,-0.529167 0.352778,-0.670278 0.740833,-1.375833 1.128889,-2.010833 0.141111,0.07055 0.282222,0.141111 0.423333,0.211666 0.599723,0.352778 1.199445,0.670278 1.869723,0.917222 0.105833,0.03528 0.211666,0.105834 0.282222,0.141112 -0.388056,0.07055 -0.811389,0.141111 -1.199445,0.176388 -0.176389,0.03528 -0.352777,0.07056 -0.493889,0.105834 -0.423333,0.141111 -0.811388,0.282222 -1.199444,0.458611 -0.176389,0.105833 -0.388056,0.176389 -0.564444,0.246944 z m 0.423333,2.363611 c -0.246945,-0.141111 -0.493889,-0.282222 -0.740833,-0.423333 0.211666,0.03528 0.423333,0.07056 0.635,0.105833 0.388055,0.07056 0.811388,0.141112 1.199444,0.211667 0.246944,0.03528 0.493889,0 0.705556,-0.07055 0.246944,-0.03528 0.423333,-0.176389 0.599722,-0.352778 0.141111,-0.141111 0.246944,-0.246945 0.352778,-0.3175 0.388055,-0.352778 0.776111,-0.670278 1.164166,-0.987778 -0.3175,0.599722 -0.599722,1.199444 -0.881944,1.799167 -0.141111,0.246944 -0.3175,0.458611 -0.458611,0.670277 0,0.03528 0,0.07056 0,0.07056 0,0.03528 0,0.03528 -0.03528,0.03528 0,0.03528 -0.03528,0.07055 -0.07056,0.105833 -0.07055,0.176389 -0.176389,0.352778 -0.211666,0.529167 -0.141111,-0.07056 -0.282223,-0.105834 -0.423334,-0.141111 -0.176389,-0.105834 -0.352777,-0.246945 -0.529166,-0.352778 -0.423334,-0.3175 -0.846667,-0.599722 -1.305278,-0.881945 z M 16.272044,90.039546 c -0.246944,0 -0.529167,0.03528 -0.776111,0.105833 0.458611,-0.564444 1.058333,-0.917222 1.799167,-0.987778 0.176388,0.105834 0.282222,0.246945 0.388055,0.423334 0.3175,0.529166 0.599722,1.058333 0.811389,1.622777 0,0.07056 0,0.141111 0,0.176389 0.03528,0.176389 0.105833,0.3175 0.176389,0.423334 0.03528,0.07056 0.03528,0.105833 0.03528,0.176388 0.105833,0.599723 0.105833,1.164167 0.105833,1.728611 -0.03528,0.458612 0,0.881945 0.03528,1.340556 -0.03528,0.176389 0.07056,0.282222 0.282222,0.388056 0.03528,0 0.07056,0 0.105833,0 0.03528,-0.03528 0.07056,-0.03528 0.07056,-0.03528 0.03528,-0.03528 0.03528,-0.03528 0.03528,-0.03528 0.493888,-0.388056 0.846666,-0.846667 1.093611,-1.375833 0.105833,-0.176389 0.176389,-0.352778 0.246944,-0.564445 0.141111,-0.3175 0.211667,-0.599722 0.282222,-0.9525 0.105834,-0.3175 0.105834,-0.599722 0.07056,-0.917222 0.211667,0.07056 0.458611,0.141111 0.740833,0.176389 0,-0.282222 -0.03528,-0.564444 -0.07055,-0.846667 -0.388056,-0.141111 -0.776111,-0.282222 -1.164167,-0.458611 -0.141111,-0.07055 -0.246944,-0.141111 -0.3175,-0.246944 -0.03528,-0.03528 -0.07056,-0.07056 -0.105833,-0.07056 0.3175,-0.141111 0.635,-0.246944 0.987777,-0.282222 0.03528,0 0.105834,0 0.176389,0.03528 0.03528,0 0.07056,0 0.105834,-0.03528 0.07055,0 0.105833,0 0.141111,0 v -0.03528 c 0.03528,0 0.07055,0 0.105833,0.03528 0.03528,-0.03528 0.105833,-0.03528 0.176389,-0.03528 v 0 c 0.03528,0 0.07056,0.03528 0.105833,0.03528 0.352778,0.423333 0.529167,0.881944 0.564445,1.446389 0.03528,0.211667 0,0.423333 -0.03528,0.564444 0.03528,0.211667 0,0.423334 -0.07056,0.635 -0.03528,0.07056 -0.07055,0.105834 -0.105833,0.141111 0,0.07056 0,0.141112 -0.03528,0.211667 -0.03528,0.03528 -0.07055,0.105833 -0.141111,0.141111 0,0 0,0.03528 0,0.07056 -0.03528,0 -0.03528,0.07055 -0.03528,0.07055 0,0 -0.03528,0.03528 -0.07055,0.03528 -0.07056,0.3175 -0.211667,0.635 -0.423333,0.917222 -0.105834,0.3175 -0.246945,0.635 -0.423334,0.917222 -0.176389,0.423334 -0.141111,0.776112 0.141111,1.058334 0.07056,0.07055 0.105834,0.105833 0.176389,0.141111 0.3175,0.246944 0.670278,0.458611 0.987778,0.705555 0.03528,0 0.07056,0.03528 0.105833,0.07056 0.105834,0.03528 0.211667,0.105833 0.3175,0.211667 0.105834,0.07055 0.246945,0.141111 0.388056,0.176389 0.3175,0.105833 0.670278,0.03528 1.023055,-0.176389 0.388056,-0.282223 0.811389,-0.493889 1.199445,-0.705556 -0.03528,0.176389 -0.07056,0.352778 -0.03528,0.529167 -0.211667,0.141111 -0.388056,0.246944 -0.564444,0.388055 -0.211667,0.141111 -0.458612,0.352778 -0.635,0.529167 -0.07056,0.07055 -0.105834,0.141111 -0.176389,0.211667 0,0.03528 0,0.105833 0,0.141111 -0.07056,0 -0.105834,0 -0.141111,0 -0.246945,0.176389 -0.635,0.211666 -1.093611,0.07055 -0.529167,-0.211666 -1.023056,-0.458611 -1.481667,-0.776111 0,0.03528 0,0.03528 -0.03528,0.03528 0,0 -0.03528,0 -0.07056,0 -0.03528,-0.03528 -0.07056,-0.03528 -0.141112,-0.07056 -0.423333,-0.352777 -0.881944,-0.670277 -1.340555,-0.9525 -0.03528,0 -0.07056,0.03528 -0.105833,0.07056 -0.03528,-0.03528 -0.07056,-0.03528 -0.07056,-0.07056 -0.03528,0.03528 -0.07056,0.07056 -0.141111,0.07056 -0.141111,0.07056 -0.211667,0.211667 -0.246945,0.388056 -0.03528,0.211666 -0.105833,0.388055 -0.141111,0.564444 -0.141111,0.352778 -0.282222,0.705555 -0.423333,1.058333 -0.3175,0.740834 -0.705555,1.375833 -1.199444,2.010833 0,0 0,0.0353 -0.03528,0.0353 -0.141111,0.3175 -0.3175,0.56445 -0.564445,0.70556 -0.246944,0.3175 -0.493888,0.635 -0.740833,0.91722 -0.03528,0 -0.07056,0 -0.141111,0.0353 -0.03528,-0.0353 -0.105833,-0.0706 -0.141111,-0.10583 0,-0.0353 0,-0.0353 0,-0.0353 -0.211667,-0.56445 -0.3175,-1.12889 -0.3175,-1.72861 0.105833,0.0705 0.176389,0.14111 0.282222,0.17639 0.07056,0.14111 0.141111,0.24694 0.282222,0.35277 0.176389,0.17639 0.352778,0.17639 0.564445,0.0706 0.141111,-0.10583 0.176389,-0.21167 0.07055,-0.38806 -0.03528,-0.0706 -0.105833,-0.17638 -0.176389,-0.24694 0,0 0.03528,-0.0353 0.03528,-0.0706 0,0 0,0 0,0 0,-0.0353 0.03528,-0.0705 0.07056,-0.10583 0.352778,-0.458606 0.670278,-0.987773 0.881944,-1.552217 0.282222,-0.811389 0.493889,-1.622778 0.599722,-2.504722 0,-0.141111 0,-0.3175 0.03528,-0.493889 0.03528,-0.599722 0.03528,-1.164167 0.03528,-1.728611 -0.03528,-0.881945 -0.105833,-1.763889 -0.176389,-2.610556 -0.03528,-0.176389 -0.07055,-0.352778 -0.141111,-0.458611 0,-0.03528 0,-0.07055 0,-0.07055 0.03528,-0.105834 0.03528,-0.176389 -0.03528,-0.211667 -0.423333,-0.423333 -0.917222,-0.599722 -1.552222,-0.599722 z m 23.177499,12.382504 c 0.246945,-0.17639 0.493889,-0.3175 0.705556,-0.52917 -0.03528,0.24694 -0.03528,0.49389 0,0.74083 0.03528,0.84667 0.176389,1.69334 0.388056,2.50472 0.03528,0.10584 0.07055,0.17639 0.105833,0.24695 0.176389,0.28222 0.352778,0.3175 0.564444,0.10583 0.03528,-0.0353 0.07056,-0.0705 0.03528,-0.14111 0,-0.0705 0,-0.14111 -0.03528,-0.24694 0.3175,-0.14111 0.564445,-0.38806 0.811389,-0.70556 0.07056,-0.14111 0.176389,-0.24694 0.3175,-0.38805 -0.211666,0.81138 -0.388055,1.5875 -0.529166,2.36361 -0.105834,0.45861 -0.176389,0.88194 -0.246945,1.30527 -0.03528,0.35278 -0.03528,0.67028 0.105833,0.9525 0.176389,0.49389 0.423334,0.91723 0.740834,1.34056 0.599722,0.84667 1.164166,1.69333 1.658055,2.57528 0.246945,0.42333 0.493889,0.84666 0.670278,1.30528 0.211667,0.45861 0.105833,0.84666 -0.282222,1.12888 -0.105834,-0.0705 -0.211667,-0.17638 -0.282222,-0.28222 -0.176389,-0.17639 -0.352778,-0.38805 -0.493889,-0.59972 -0.564445,-0.74083 -1.058334,-1.51694 -1.516945,-2.32833 -0.07055,-0.24695 -0.176389,-0.52917 -0.282222,-0.77611 -0.03528,-0.10584 -0.03528,-0.21167 -0.03528,-0.3175 0.03528,-0.35278 -0.141111,-0.49389 -0.458611,-0.49389 -0.07055,0.0353 -0.105833,0.0705 -0.141111,0.10583 -0.105833,0.52917 -0.141111,1.05833 0,1.5875 0.176389,0.84667 0.352778,1.69333 0.493889,2.57528 0.105833,0.74083 0.352778,1.41111 0.776111,2.04611 -0.105833,-0.0353 -0.211667,-0.0353 -0.3175,-0.0706 -0.07056,-0.0705 -0.176389,-0.10583 -0.246944,-0.14111 -0.388056,-0.3175 -0.776111,-0.67028 -1.058334,-1.05833 -0.176389,-0.24695 -0.3175,-0.52917 -0.388055,-0.81139 -0.141111,-0.42333 -0.246945,-0.88194 -0.246945,-1.30528 -0.07055,-0.88194 -0.141111,-1.72861 -0.246944,-2.61055 -0.03528,-0.24695 -0.07056,-0.52917 -0.07056,-0.77611 -0.07055,-0.88195 -0.141111,-1.76389 -0.211666,-2.61056 -0.07056,-0.42333 -0.105834,-0.84667 -0.105834,-1.30528 -0.07055,-0.635 -0.141111,-1.27 -0.282222,-1.905 -0.07055,-0.42333 -0.141111,-0.84666 -0.246944,-1.27 0,0 0,-0.0353 -0.03528,-0.0353 0.03528,-0.0353 0.03528,-0.0353 0.07056,-0.0353 0.105833,-0.0353 0.211666,-0.10584 0.317499,-0.14111 z"
       id="path10" />
    <path
       style="fill:#ffffff;stroke:none;stroke-width:0.352778"
       d="m 37.297599,64.957046 c -0.03528,0.07056 -0.07055,0.141111 -0.176389,0.211667 -0.03528,0.07055 -0.105833,0.105833 -0.176389,0.176389 0,0.03528 -0.03528,0.03528 -0.07055,0.07055 -0.599722,0.635 -1.199445,1.305278 -1.763889,1.975556 -0.423333,0.493889 -0.881945,0.987778 -1.375833,1.446389 0.07055,0.105833 0.176389,0.246944 0.246944,0.388055 0.03528,0.141111 0.07056,0.246945 0.141111,0.388056 0.246945,0.3175 0.529167,0.599722 0.846667,0.846666 0.141111,0.105834 0.246944,0.211667 0.388055,0.3175 0.211667,0.141112 0.493889,0.246945 0.740834,0.3175 0.03528,-0.03528 0.03528,-0.03528 0.07055,-0.07055 0.564445,-0.07056 1.023056,-0.352778 1.27,-0.881945 0.141111,-0.282222 0.282222,-0.529166 0.423334,-0.811388 0.141111,-0.282223 0.176388,-0.599723 0.141111,-0.9525 0,-0.211667 -0.03528,-0.423334 0,-0.599723 0.03528,-0.423333 0,-0.846666 -0.105834,-1.234722 -0.03528,-0.105833 -0.03528,-0.176389 -0.07055,-0.282222 -0.03528,-0.282222 -0.176389,-0.599722 -0.3175,-0.881944 -0.105834,-0.141112 -0.176389,-0.282223 -0.211667,-0.423334 z m -1.728611,2.434167 c 0.03528,-0.07056 0.105833,-0.105833 0.211667,-0.105833 0.493889,-0.03528 0.811389,0.176388 0.846666,0.634999 0.07056,0.423334 -0.07055,0.705556 -0.423333,0.846667 -0.03528,0 -0.105833,0 -0.141111,0 -0.458611,-0.07055 -0.670278,-0.3175 -0.705556,-0.776111 0,-0.211667 0.07056,-0.423333 0.211667,-0.599722 z"
       id="path11" />
    <path
       style="fill:#5f5f61;stroke:none;stroke-width:0.352778"
       d="m 35.780655,67.28538 c -0.105834,0 -0.176389,0.03528 -0.211667,0.105833 -0.141111,0.176389 -0.211667,0.388055 -0.211667,0.599722 0.03528,0.458611 0.246945,0.705556 0.705556,0.776111 0.03528,0 0.105833,0 0.141111,0 0.352778,-0.141111 0.493889,-0.423333 0.423333,-0.846667 -0.03528,-0.458611 -0.352777,-0.670277 -0.846666,-0.634999 z"
       id="path12" />
    <path
       style="fill:#ffffff;stroke:none;stroke-width:0.352778"
       d="m 27.948988,68.978713 c -0.282222,-0.105834 -0.564444,-0.176389 -0.881944,-0.211667 -0.670278,-0.03528 -1.340556,-0.141111 -1.975556,-0.388055 -0.282222,-0.03528 -0.564444,-0.141112 -0.846666,-0.282223 0,0.03528 0,0.07056 0,0.141111 0,0 0,0 0,0.03528 0.105833,0.352778 0.105833,0.705556 0.105833,1.093611 -0.03528,0.352778 0,0.740834 0.03528,1.093611 0.141111,0.458612 0.388055,0.846667 0.740833,1.234723 0.03528,0.03528 0.07056,0.07055 0.105833,0.105833 0.282223,0.141111 0.493889,0.352778 0.705556,0.529167 0.07056,0.07055 0.141111,0.105833 0.246944,0.141111 0.388056,0.105833 0.776111,0.141111 1.164167,0.03528 0.529167,-0.352778 0.917222,-0.846667 1.164167,-1.446389 0.07056,-0.141111 0.105833,-0.3175 0.105833,-0.458611 0.03528,-0.03528 0.03528,-0.03528 0.03528,-0.03528 0,-0.105834 0.03528,-0.176389 0.03528,-0.282222 0,0 0,0 0,-0.03528 0.07055,-0.3175 0.105833,-0.670278 0.105833,-0.987778 -0.105833,-0.03528 -0.176389,-0.03528 -0.246945,-0.07056 -0.211666,-0.105833 -0.388055,-0.176388 -0.599722,-0.211666 z m -1.905,1.305278 c -0.03528,-0.105834 -0.07055,-0.246945 -0.03528,-0.388056 0,-0.246944 0.141112,-0.388056 0.352778,-0.423333 0.529167,0.03528 0.776111,0.282222 0.740834,0.740833 -0.03528,0.246944 -0.141112,0.388056 -0.352778,0.458611 -0.388056,0.105833 -0.635,-0.03528 -0.705556,-0.388055 z"
       id="path13" />
    <path
       style="fill:#5f5f61;stroke:none;stroke-width:0.352778"
       d="m 26.00871,69.895935 c -0.03528,0.141111 0,0.282222 0.03528,0.388056 0.07056,0.352777 0.3175,0.493888 0.705556,0.388055 0.211666,-0.07055 0.3175,-0.211667 0.352778,-0.458611 0.03528,-0.458611 -0.211667,-0.705556 -0.740834,-0.740833 -0.211666,0.03528 -0.352778,0.176389 -0.352778,0.423333 z"
       id="path14" />
    <path
       style="fill:#ffffff;stroke:none;stroke-width:0.352778"
       d="m 29.571766,74.235102 c 0.176389,-0.105834 0.3175,-0.176389 0.529167,-0.282223 0.176388,-0.07055 0.388055,-0.141111 0.564444,-0.246944 0.388056,-0.176389 0.776111,-0.3175 1.199444,-0.458611 0.141112,-0.03528 0.3175,-0.07056 0.493889,-0.105834 0.388056,-0.03528 0.811389,-0.105833 1.199445,-0.176388 -0.07056,-0.03528 -0.176389,-0.105834 -0.282222,-0.141112 -0.670278,-0.246944 -1.27,-0.564444 -1.869723,-0.917222 -0.141111,-0.07055 -0.282222,-0.141111 -0.423333,-0.211666 -0.388056,0.635 -0.776111,1.340555 -1.128889,2.010833 -0.07056,0.211667 -0.176389,0.388055 -0.282222,0.529167 z"
       id="path15" />
    <path
       style="fill:#ffffff;stroke:none;stroke-width:0.352778"
       d="m 29.783433,75.893157 c 0.246944,0.141111 0.493888,0.282222 0.740833,0.423333 0.458611,0.282223 0.881944,0.564445 1.305278,0.881945 0.176389,0.105833 0.352777,0.246944 0.529166,0.352778 0.141111,0.03528 0.282223,0.07055 0.423334,0.141111 0.03528,-0.176389 0.141111,-0.352778 0.211666,-0.529167 0.03528,-0.03528 0.07056,-0.07055 0.07056,-0.105833 0.03528,0 0.03528,0 0.03528,-0.03528 0,0 0,-0.03528 0,-0.07056 0.141111,-0.211666 0.3175,-0.423333 0.458611,-0.670277 0.282222,-0.599723 0.564444,-1.199445 0.881944,-1.799167 -0.388055,0.3175 -0.776111,0.635 -1.164166,0.987778 -0.105834,0.07055 -0.211667,0.176389 -0.352778,0.3175 -0.176389,0.176389 -0.352778,0.3175 -0.599722,0.352778 -0.211667,0.07055 -0.458612,0.105833 -0.705556,0.07055 -0.388056,-0.07055 -0.811389,-0.141111 -1.199444,-0.211667 -0.211667,-0.03528 -0.423334,-0.07056 -0.635,-0.105833 z"
       id="path16" />
    <path
       style="fill:#ffffff;stroke:none;stroke-width:0.352778"
       d="m 15.495933,90.145379 c 0.246944,-0.07056 0.529167,-0.105833 0.776111,-0.105833 0.635,0 1.128889,0.176389 1.552222,0.599722 0.07056,0.03528 0.07056,0.105833 0.03528,0.211667 0,0 0,0.03528 0,0.07055 0.07056,0.105833 0.105833,0.282222 0.141111,0.458611 0.07056,0.846667 0.141111,1.728611 0.176389,2.610556 0,0.564444 0,1.128889 -0.03528,1.728611 -0.03528,0.176389 -0.03528,0.352778 -0.03528,0.493889 -0.105833,0.881944 -0.3175,1.693333 -0.599722,2.504722 -0.211666,0.564444 -0.529166,1.093611 -0.881944,1.552226 -0.03528,0.0353 -0.07056,0.0706 -0.07056,0.10583 0,0 0,0 0,0 0,0.0353 -0.03528,0.0706 -0.03528,0.0706 0.07056,0.0706 0.141112,0.17639 0.176389,0.24694 0.105834,0.17639 0.07056,0.28223 -0.07055,0.38806 -0.211667,0.10582 -0.388056,0.10582 -0.564445,-0.0706 -0.141111,-0.10583 -0.211666,-0.21166 -0.282222,-0.35278 -0.105833,-0.0353 -0.176389,-0.10584 -0.282222,-0.17639 0,0.59973 0.105833,1.16416 0.3175,1.72862 0,0 0,0 0,0.0353 0.03528,0.0353 0.105833,0.0705 0.141111,0.10583 0.07056,-0.0353 0.105833,-0.0353 0.141111,-0.0353 0.246945,-0.28221 0.493889,-0.59972 0.740833,-0.91722 0.246945,-0.1411 0.423334,-0.38805 0.564445,-0.70556 0.03528,0 0.03528,-0.0353 0.03528,-0.0353 0.493889,-0.635 0.881944,-1.269998 1.199444,-2.010832 0.141111,-0.352778 0.282222,-0.705555 0.423333,-1.058333 0.03528,-0.176389 0.105834,-0.352778 0.141111,-0.564444 0.03528,-0.176389 0.105834,-0.3175 0.246945,-0.388056 0.07055,0 0.105833,-0.03528 0.141111,-0.07056 0,0.03528 0.03528,0.03528 0.07056,0.07056 0.03528,-0.03528 0.07055,-0.07056 0.105833,-0.07056 0.458611,0.282223 0.917222,0.599723 1.340555,0.9525 0.07056,0.03528 0.105834,0.03528 0.141112,0.07056 0.03528,0 0.07056,0 0.07056,0 0.03528,0 0.03528,0 0.03528,-0.03528 0.458611,0.3175 0.9525,0.564445 1.481667,0.776111 0.458611,0.141111 0.846666,0.105834 1.093611,-0.07055 0.03528,0 0.07055,0 0.141111,0 0,-0.03528 0,-0.105834 0,-0.141111 0.07056,-0.07056 0.105833,-0.141112 0.176389,-0.211667 0.176388,-0.176389 0.423333,-0.388056 0.635,-0.529167 0.176388,-0.141111 0.352777,-0.246944 0.564444,-0.388055 -0.03528,-0.176389 0,-0.352778 0.03528,-0.529167 -0.388056,0.211667 -0.811389,0.423333 -1.199445,0.705556 -0.352777,0.211666 -0.705555,0.282222 -1.023055,0.176389 -0.141111,-0.03528 -0.282222,-0.105834 -0.388056,-0.176389 -0.105833,-0.105834 -0.211666,-0.176389 -0.3175,-0.211667 -0.03528,-0.03528 -0.07055,-0.07056 -0.105833,-0.07056 -0.3175,-0.246944 -0.670278,-0.458611 -0.987778,-0.705555 -0.07055,-0.03528 -0.105833,-0.07056 -0.176389,-0.141111 -0.282222,-0.282222 -0.3175,-0.635 -0.141111,-1.058334 0.176389,-0.282222 0.3175,-0.599722 0.423334,-0.917222 0.211666,-0.282222 0.352777,-0.599722 0.423333,-0.917222 0.03528,0 0.07055,-0.03528 0.07055,-0.03528 0,0 0,-0.07055 0.03528,-0.07055 0,-0.03528 0,-0.07056 0,-0.07056 0.07056,-0.03528 0.105834,-0.105833 0.141111,-0.141111 0.03528,-0.07056 0.03528,-0.141111 0.03528,-0.211667 0.03528,-0.03528 0.07056,-0.07055 0.105833,-0.141111 0.07056,-0.211666 0.105834,-0.423333 0.07056,-0.635 0.03528,-0.141111 0.07056,-0.352777 0.03528,-0.564444 -0.03528,-0.564445 -0.211667,-1.023056 -0.564445,-1.446389 -0.03528,0 -0.07056,-0.03528 -0.105833,-0.03528 v 0 c -0.07056,0 -0.141111,0 -0.176389,0.03528 -0.03528,-0.03528 -0.07055,-0.03528 -0.105833,-0.03528 v 0.03528 c -0.03528,0 -0.07056,0 -0.141111,0 -0.03528,0.03528 -0.07056,0.03528 -0.105834,0.03528 -0.07055,-0.03528 -0.141111,-0.03528 -0.176389,-0.03528 -0.352777,0.03528 -0.670277,0.141111 -0.987777,0.282222 0.03528,0 0.07055,0.03528 0.105833,0.07056 0.07056,0.105833 0.176389,0.176389 0.3175,0.246944 0.388056,0.176389 0.776111,0.3175 1.164167,0.458611 0.03528,0.282223 0.07055,0.564445 0.07055,0.846667 -0.282222,-0.03528 -0.529166,-0.105833 -0.740833,-0.176389 0.03528,0.3175 0.03528,0.599722 -0.07056,0.917222 -0.07055,0.352778 -0.141111,0.635 -0.282222,0.9525 -0.07055,0.211667 -0.141111,0.388056 -0.246944,0.564445 -0.246945,0.529166 -0.599723,0.987777 -1.093611,1.375833 0,0 0,0 -0.03528,0.03528 0,0 -0.03528,0 -0.07056,0.03528 -0.03528,0 -0.07055,0 -0.105833,0 -0.211667,-0.105834 -0.3175,-0.211667 -0.282222,-0.388056 -0.03528,-0.458611 -0.07056,-0.881944 -0.03528,-1.340556 0,-0.564444 0,-1.128888 -0.105833,-1.728611 0,-0.07055 0,-0.105833 -0.03528,-0.176388 -0.07056,-0.105834 -0.141111,-0.246945 -0.176389,-0.423334 0,-0.03528 0,-0.105833 0,-0.176389 -0.211667,-0.564444 -0.493889,-1.093611 -0.811389,-1.622777 -0.105833,-0.176389 -0.211667,-0.3175 -0.388055,-0.423334 -0.740834,0.07056 -1.340556,0.423334 -1.799167,0.987778 z"
       id="path17" />
    <path
       style="fill:#ffffff;stroke:none;stroke-width:0.352778"
       d="m 40.155099,101.89288 c -0.211667,0.21167 -0.458611,0.35278 -0.705556,0.52917 -0.105833,0.0353 -0.211666,0.10583 -0.317499,0.14111 -0.03528,0 -0.03528,0 -0.07056,0.0353 0.03528,0 0.03528,0.0353 0.03528,0.0353 0.105833,0.42334 0.176389,0.84667 0.246944,1.27 0.141111,0.635 0.211667,1.27 0.282222,1.905 0,0.45861 0.03528,0.88195 0.105834,1.30528 0.07055,0.84667 0.141111,1.72861 0.211666,2.61056 0,0.24694 0.03528,0.52916 0.07056,0.77611 0.105833,0.88194 0.176389,1.72861 0.246944,2.61055 0,0.42334 0.105834,0.88195 0.246945,1.30528 0.07055,0.28222 0.211666,0.56444 0.388055,0.81139 0.282223,0.38805 0.670278,0.74083 1.058334,1.05833 0.07056,0.0353 0.176389,0.0706 0.246944,0.14111 0.105833,0.0353 0.211667,0.0353 0.3175,0.0706 -0.423333,-0.635 -0.670278,-1.30528 -0.776111,-2.04611 -0.141111,-0.88195 -0.3175,-1.72861 -0.493889,-2.57528 -0.141111,-0.52917 -0.105833,-1.05833 0,-1.5875 0.03528,-0.0353 0.07056,-0.0706 0.141111,-0.10583 0.3175,0 0.493889,0.14111 0.458611,0.49389 0,0.10583 0,0.21166 0.03528,0.3175 0.105833,0.24694 0.211667,0.52916 0.282222,0.77611 0.458611,0.81139 0.9525,1.5875 1.516945,2.32833 0.141111,0.21167 0.3175,0.42333 0.493889,0.59972 0.07055,0.10584 0.176388,0.21167 0.282222,0.28222 0.388055,-0.28222 0.493889,-0.67027 0.282222,-1.12888 -0.176389,-0.45862 -0.423333,-0.88195 -0.670278,-1.30528 -0.493889,-0.88195 -1.058333,-1.72861 -1.658055,-2.57528 -0.3175,-0.42333 -0.564445,-0.84667 -0.740834,-1.34056 -0.141111,-0.28222 -0.141111,-0.59972 -0.105833,-0.9525 0.07056,-0.42333 0.141111,-0.84666 0.246945,-1.30527 0.141111,-0.77611 0.3175,-1.55223 0.529166,-2.36361 -0.141111,0.14111 -0.246944,0.24694 -0.3175,0.38805 -0.246944,0.3175 -0.493889,0.56445 -0.811389,0.70556 0.03528,0.10583 0.03528,0.17639 0.03528,0.24694 0.03528,0.0706 0,0.10583 -0.03528,0.14111 -0.211666,0.21167 -0.388055,0.17639 -0.564444,-0.10583 -0.03528,-0.0706 -0.07056,-0.14111 -0.105833,-0.24695 -0.211667,-0.81138 -0.352778,-1.65805 -0.388056,-2.50472 -0.03528,-0.24694 -0.03528,-0.49389 0,-0.74083 z"
       id="path18" />
  </g>
</svg>
