<?xml version="1.0" encoding="UTF-8" standalone="no"?>
<!-- Created with Inkscape (http://www.inkscape.org/) -->

<svg
   width="33.636261mm"
   height="46.590103mm"
   viewBox="0 0 33.636261 46.590103"
   version="1.1"
   id="svg1"
   inkscape:version="1.3 (0e150ed6c4, 2023-07-21)"
   sodipodi:docname="stickers_huzza.svg"
   xmlns:inkscape="http://www.inkscape.org/namespaces/inkscape"
   xmlns:sodipodi="http://sodipodi.sourceforge.net/DTD/sodipodi-0.dtd"
   xmlns="http://www.w3.org/2000/svg"
   xmlns:svg="http://www.w3.org/2000/svg">
  <sodipodi:namedview
     id="namedview1"
     pagecolor="#ffffff"
     bordercolor="#000000"
     borderopacity="0.25"
     inkscape:showpageshadow="2"
     inkscape:pageopacity="0.0"
     inkscape:pagecheckerboard="0"
     inkscape:deskcolor="#d1d1d1"
     inkscape:document-units="mm"
     inkscape:zoom="0.74386223"
     inkscape:cx="63.85591"
     inkscape:cy="88.053939"
     inkscape:window-width="1920"
     inkscape:window-height="1027"
     inkscape:window-x="1912"
     inkscape:window-y="-8"
     inkscape:window-maximized="1"
     inkscape:current-layer="layer1" />
  <defs
     id="defs1" />
  <g
     inkscape:label="Layer 1"
     inkscape:groupmode="layer"
     id="layer1"
     transform="translate(-88.370749,-125.14797)">
    <path
       style="fill:#5f5f61;stroke:none;stroke-width:0.352778"
       d="m 119.64458,130.8982 c -0.10583,0.0353 -0.17639,0.10584 -0.24694,0.21167 -0.0706,0.14111 -0.17639,0.28222 -0.3175,0.38806 -0.24695,0.24694 -0.49389,0.49388 -0.77611,0.70555 -0.21167,0.14111 -0.38806,0.3175 -0.56445,0.49389 -0.49389,0.52917 -0.98777,1.09361 -1.44639,1.65806 -0.52916,0.56444 -1.05833,1.16416 -1.55222,1.79916 -0.0353,0 -0.10583,0.0353 -0.10583,0.0706 -0.17639,0.21166 -0.35278,0.42333 -0.56445,0.635 -0.21166,0.24694 -0.45861,0.52916 -0.67027,0.81139 -0.14111,0.17639 -0.28223,0.35277 -0.42334,0.52916 -0.42333,0.635 -0.84666,1.23473 -1.30527,1.79917 -0.0706,0.0353 -0.10584,0.0706 -0.14111,0.10583 -0.0706,0.14111 -0.17639,0.28223 -0.28223,0.42334 0,-0.17639 0,-0.38806 -0.0353,-0.56445 0,-0.0353 0,-0.0353 0,-0.0705 0,-0.17639 0,-0.38806 0,-0.59973 -0.0353,-0.88194 -0.0706,-1.76388 -0.10584,-2.61055 0,-0.24695 0,-0.45861 0,-0.67028 -0.0353,-0.45861 -0.0353,-0.88194 0,-1.30528 0.0353,-0.49389 0.0353,-0.98777 0.0353,-1.48166 0,-0.38806 -0.0353,-0.77611 -0.0353,-1.12889 -0.0353,-0.3175 -0.0705,-0.635 -0.10583,-0.9525 -0.0353,-0.49389 -0.14111,-0.98778 -0.24695,-1.48167 0,-0.0705 0,-0.10583 -0.0353,-0.14111 0,-0.10583 -0.0353,-0.21167 -0.0706,-0.3175 -0.0706,-0.45861 -0.24694,-0.84667 -0.52917,-1.19944 -0.14111,-0.17639 -0.3175,-0.35278 -0.45861,-0.52917 -0.14111,-0.10583 -0.24694,-0.21167 -0.38805,-0.3175 -0.67028,-0.56445 -1.48167,-0.84667 -2.36361,-0.91722 -0.0706,0 -0.14111,0 -0.17639,0 -0.17639,-0.0353 -0.28222,0 -0.38806,0.0705 -0.0353,-0.0705 -0.0705,-0.10583 -0.0705,-0.17639 -0.0706,-0.14111 -0.0706,-0.3175 -0.10584,-0.49389 0,-0.21166 -0.10583,-0.38805 -0.3175,-0.49388 -0.0353,0 -0.0705,0 -0.0705,0.0353 -0.0353,0 -0.0706,0 -0.0706,0.0353 -0.21166,0.3175 -0.38805,0.635 -0.59972,0.9525 0,0.0353 -0.0353,0.0706 -0.0353,0.0706 -0.0353,0.0353 -0.0353,0.0705 -0.0353,0.0705 -0.0705,0 -0.14111,0 -0.21166,0 -0.77611,0.17639 -1.51695,0.42334 -2.25778,0.84667 -0.52917,0.28222 -0.98778,0.67028 -1.34056,1.12889 -0.0705,0.0353 -0.10583,0.0705 -0.10583,0.10583 -0.14111,0.0706 -0.24694,0.17639 -0.3175,0.28222 -0.10583,0.10584 -0.17639,0.21167 -0.24694,0.3175 -0.0706,0.10584 -0.17639,0.24695 -0.28223,0.38806 -0.10583,0.21167 -0.21166,0.38805 -0.317496,0.56444 -0.141111,0.3175 -0.246944,0.635 -0.352778,0.9525 -0.07056,0.14111 -0.105833,0.28223 -0.105833,0.45861 -0.03528,0.14112 -0.07055,0.3175 -0.07055,0.45862 -0.03528,0.24694 -0.105834,0.45861 -0.105834,0.70555 0,0.10583 0,0.21167 -0.03528,0.28222 0,0.42334 -0.03528,0.81139 -0.07055,1.19945 -0.07056,0.3175 -0.105833,0.67028 -0.141111,1.02305 -0.03528,0.42334 -0.07056,0.88195 -0.105834,1.34056 -0.07055,0.10583 -0.07055,0.17639 -0.07055,0.28222 0.03528,0.56445 0.03528,1.12889 -0.03528,1.72861 0,0.38806 -0.03528,0.77611 -0.07055,1.16417 0,0.0705 -0.03528,0.10583 0,0.14111 0,0.0706 0,0.10583 0,0.14111 0,0.0353 0,0.0353 0,0.0353 -0.03528,0 -0.03528,0 -0.03528,-0.0353 -0.176389,-0.28222 -0.388056,-0.56444 -0.599722,-0.81139 -0.03528,-0.0705 -0.07056,-0.10583 -0.141112,-0.17639 0,0 0,0 0,-0.0353 0,0 0,0 0,0 0,-0.0353 0,-0.0353 0,-0.0353 -0.03528,-0.0353 -0.03528,-0.0353 -0.03528,-0.0706 -0.03528,0 -0.03528,-0.0353 -0.03528,-0.0353 0,-0.0353 0,-0.0353 -0.03528,-0.0353 0,-0.0353 -0.03528,-0.0706 -0.07055,-0.0706 0,-0.0353 0,-0.0353 0,-0.0353 v -0.0353 c 0,0 0,0 0,-0.0353 -0.07056,-0.0353 -0.105834,-0.0706 -0.105834,-0.10584 -0.105833,-0.14111 -0.141111,-0.24694 -0.176389,-0.38805 0,0 -0.03528,0 -0.03528,-0.0353 -0.03528,-0.0705 -0.07056,-0.14111 -0.105834,-0.21167 -0.105833,-0.17638 -0.211666,-0.35277 -0.3175,-0.52916 0,-0.0353 0,-0.0353 0,-0.0353 0,-0.0353 0,-0.0353 0,-0.0353 -0.03528,-0.0353 -0.03528,-0.0705 -0.07055,-0.0705 -0.03528,-0.14111 -0.105834,-0.21167 -0.211667,-0.3175 0,0 0,0 -0.03528,-0.0353 0,0 0,0 0,-0.0353 0,0 0,0 0,0 -0.07055,-0.0705 -0.105833,-0.10583 -0.176389,-0.14111 0,-0.0353 0,-0.0353 0,-0.0353 -0.03528,-0.0353 -0.07055,-0.0705 -0.07055,-0.0705 0,-0.0353 -0.03528,-0.0706 -0.07056,-0.10584 -0.141111,-0.17639 -0.3175,-0.38805 -0.529166,-0.59972 0,0 0,0 0,-0.0353 0,0 0,0 0,-0.0353 0,-0.0353 -0.03528,-0.0706 -0.07056,-0.10584 -0.03528,-0.0705 -0.105833,-0.17639 -0.176389,-0.24694 -0.03528,0 -0.03528,-0.0353 -0.03528,-0.0353 -0.07055,-0.0706 -0.105833,-0.14111 -0.105833,-0.17639 -0.07056,-0.0353 -0.105833,-0.0705 -0.141111,-0.10583 -0.141111,-0.17639 -0.282222,-0.35278 -0.388056,-0.56445 -0.03528,-0.0353 -0.03528,-0.0353 -0.07055,-0.0353 0,-0.0353 0,-0.0353 0,-0.0353 0,-0.0353 0,-0.0353 0,-0.0353 -0.03528,0 -0.03528,0 -0.03528,-0.0353 0,0 -0.03528,0 -0.03528,-0.0353 0,0 0,0 -0.03528,-0.0353 0,0 0,0 0,-0.0353 0,0 0,0 0,-0.0353 -0.03528,0 -0.03528,0 -0.03528,-0.0353 -0.03528,-0.0353 -0.03528,-0.0706 -0.07056,-0.14111 -0.141111,-0.21166 -0.282222,-0.42333 -0.493889,-0.59972 0,-0.0706 -0.03528,-0.10583 -0.07055,-0.14111 -0.141111,-0.21167 -0.3175,-0.42333 -0.458611,-0.635 0,0 0,-0.0353 -0.03528,-0.0706 0,0 -0.03528,-0.0353 -0.03528,-0.0705 -0.03528,-0.0353 -0.07055,-0.0353 -0.07055,-0.0353 -0.03528,-0.0353 -0.03528,-0.0706 -0.03528,-0.0706 -0.176389,-0.17638 -0.352778,-0.38805 -0.493889,-0.56444 0,-0.0353 0,-0.0353 -0.03528,-0.0353 0,-0.0353 0,-0.0353 0,-0.0353 -0.03528,-0.0353 -0.03528,-0.0353 -0.03528,-0.0353 -0.03528,-0.0353 -0.03528,-0.0353 -0.07055,-0.0706 0,0 0,0 0,-0.0353 0,0 0,0 0,-0.0353 0,0 0,0 0,-0.0353 -0.03528,0 -0.03528,0 -0.03528,-0.0353 0,0 0,0 -0.03528,0 -0.07055,-0.17639 -0.176389,-0.3175 -0.282222,-0.45861 -0.246944,-0.3175 -0.564444,-0.635 -0.917222,-0.88195 -0.07056,-0.0353 -0.141111,-0.0353 -0.176389,-0.0353 -0.211667,0 -0.388056,0.10583 -0.529167,0.24694 0,0.0706 0,0.14111 0,0.21167 0,0.0353 0,0.0353 0,0.0353 0,0 0,0 0,0.0353 -0.03528,0.0353 -0.07055,0.0706 -0.07055,0.10584 -0.03528,0 -0.03528,0 -0.07056,0.0353 0,0 0,0.0353 0,0.0353 -0.141111,0.17639 -0.246944,0.3175 -0.352778,0.49389 0,0.0353 0,0.0706 -0.03528,0.10583 -0.07056,0.14112 -0.176389,0.28223 -0.3175,0.42334 0,0 0,0.0353 0,0.0705 0,0 0,0 -0.03528,0.0353 -0.07056,0.0706 -0.141111,0.14111 -0.211667,0.24695 -0.176389,0.3175 -0.352778,0.67027 -0.529166,1.02305 0,0.0706 -0.03528,0.10583 -0.07056,0.14111 0,0 0,0 -0.03528,0.0353 0,0 0,0 0,0.0353 0,0 0,0 0,0.0353 -0.03528,0.0353 -0.07055,0.0705 -0.105833,0.10583 -0.03528,0.0705 -0.07056,0.14111 -0.105833,0.17639 -0.03528,0.0353 -0.07056,0.0705 -0.105834,0.10583 -0.03528,0.0706 -0.03528,0.10583 -0.07055,0.17639 0,0 0,0 -0.03528,0.0353 0,0.0353 0,0.0706 -0.03528,0.10583 -0.03528,0.10583 -0.07055,0.17639 -0.141111,0.24695 0,0.0353 0,0.0705 -0.03528,0.14111 0,0 0,0 0,0.0353 -0.03528,0.0353 -0.07055,0.10584 -0.07055,0.14112 0,0.0353 0,0.0705 -0.03528,0.0705 0,0.0353 0,0.0353 0,0.0353 -0.03528,0 -0.03528,0 -0.03528,0.0353 -0.07055,0.21166 -0.07055,0.45861 0,0.74083 0.07056,0.10583 0.105833,0.21167 0.141111,0.35278 0,0 0,0 0.03528,0.0353 0,0 0.03528,0.0353 0.03528,0.0705 0.176389,0.38806 0.388055,0.74083 0.670278,1.09361 0.07055,0.0706 0.176388,0.17639 0.246944,0.24695 0.03528,-0.0353 0.07056,-0.0706 0.07056,-0.0706 h 0.03528 l -0.105833,0.0706 c -0.211667,0.24694 -0.423333,0.49389 -0.599722,0.74083 0,0.0353 0,0.0353 -0.03528,0.0353 0,0.0706 -0.03528,0.14111 -0.07056,0.21166 0,0.0706 0,0.17639 0,0.24695 -0.03528,0.28222 -0.03528,0.56444 0,0.84667 0.03528,0 0.03528,0.0353 0.07056,0.0353 0,0.0353 0,0.0353 0,0.0353 0,0.0706 0.03528,0.14111 0.03528,0.17639 0,0.0353 0.03528,0.0353 0.03528,0.0706 0.176388,0.45861 0.423333,0.88194 0.705555,1.30527 0.423333,0.52917 0.846667,1.05834 1.305278,1.55223 -0.03528,0.0705 -0.07056,0.10583 -0.105834,0.17638 0,0 0,0 0,0.0353 -0.03528,0.0353 -0.03528,0.10584 -0.03528,0.17639 -0.03528,0 -0.03528,0.0353 -0.07056,0.0353 0,0.0353 0,0.0705 0,0.0705 -0.03528,0.21167 -0.03528,0.42334 -0.03528,0.635 -0.03528,0.0353 -0.03528,0.0353 -0.03528,0.0706 0,0 0,0.0353 0,0.0706 -0.03528,0.14111 -0.03528,0.3175 0,0.49388 0,0 0.03528,0.0353 0.03528,0.0706 0,0 0,0 0,0.0353 0.03528,0.0705 0.03528,0.17639 0.03528,0.28222 0.03528,0.0353 0.03528,0.0706 0.07056,0.0706 v 0.0353 c 0,0.10584 0,0.21167 0.03528,0.28223 0.03528,0.0705 0.07056,0.14111 0.07056,0.21166 0,0.0353 0,0.0353 0.03528,0.0353 0.03528,0.0706 0.03528,0.14111 0.07056,0.21167 0,0.0353 0.03528,0.0353 0.03528,0.0353 0,0.0353 0,0.0353 0,0.0353 0,0.0353 0,0.0353 0,0.0353 0.423333,0.81139 0.9525,1.48167 1.5875,2.08139 0.105833,0.0705 0.176389,0.14111 0.282222,0.24694 0.740834,0.77611 1.481667,1.48167 2.2225,2.25778 0.07056,0.0706 0.176389,0.14111 0.246945,0.21167 -0.03528,0.0353 -0.07056,0.0353 -0.07056,0.0705 -0.03528,0 -0.03528,0.0353 -0.03528,0.0353 -0.07055,0.14111 -0.176389,0.24695 -0.282222,0.35278 0,0 0,0 -0.03528,0.0353 0,0.0353 0,0.0705 -0.07055,0.10583 0,0 0,0 0,0 0,0.0706 -0.03528,0.10583 -0.07056,0.10583 0,0.0353 0,0.0353 -0.03528,0.0353 0,0.0706 0,0.10583 -0.07055,0.10583 0,0.0353 0,0.0353 0,0.0353 -0.03528,0.0353 -0.03528,0.10584 -0.105833,0.14111 0,0 0,0 0,0.0353 0,0 0,0.0353 0,0.0706 0,0 0,0.0353 -0.03528,0.0353 0,0.0353 -0.03528,0.0353 -0.03528,0.0353 0,0.0706 0,0.10584 -0.03528,0.14111 -0.03528,0.0706 -0.07055,0.14111 -0.105833,0.24695 0,0 -0.03528,0.0353 -0.03528,0.0705 0,0.0353 0,0.0706 -0.03528,0.0706 0,0.0705 0,0.14111 0,0.17639 -0.03528,0.0353 -0.03528,0.0353 -0.07055,0.0705 0,0.0353 0,0.0706 0,0.10584 -0.03528,0.0353 -0.03528,0.10583 -0.03528,0.17638 -0.03528,0.0353 -0.03528,0.0706 -0.03528,0.0706 0,0.0353 0,0.0706 -0.03528,0.10583 0,0.0706 -0.03528,0.14111 -0.07056,0.21167 0,0.0353 0,0.0706 0,0.0706 -0.03528,0.0705 -0.03528,0.14111 -0.03528,0.21166 -0.03528,0.0353 -0.03528,0.0353 -0.03528,0.0706 0,0.0353 0,0.0705 -0.03528,0.10583 0,0.0706 -0.03528,0.10583 0,0.14111 -0.03528,0.0353 -0.03528,0.0706 -0.07056,0.0706 0,0.0706 0,0.10583 0,0.17639 -0.03528,0.0706 -0.03528,0.17639 -0.03528,0.28222 0,0.0353 -0.03528,0.0705 -0.03528,0.0705 0,0.14112 0,0.24695 0,0.38806 -0.03528,0.3175 -0.03528,0.635 0,0.9525 0,0 0.03528,0.0353 0.03528,0.0706 0,0.0353 0,0.10583 0.03528,0.14111 0,0.0706 0.03528,0.10583 0.07056,0.17639 -0.105834,0.0353 -0.176389,0.14111 -0.246945,0.21166 -0.493889,0.45861 -1.058333,0.74084 -1.728611,0.84667 -0.811389,0.10583 -1.622778,0.21167 -2.434166,0.21167 0,0.10583 0,0.17638 0,0.24694 0,0.17639 0,0.35278 -0.03528,0.56444 0,0 0,0.0353 -0.03528,0.0706 0,0 0,0 0,0.0353 0,0.0353 0,0.0705 0,0.10583 0.03528,0.0353 0.03528,0.0353 0.07056,0.0353 v 0 c 0.176388,0.10583 0.317499,0.21167 0.529166,0.3175 0.635,0.38805 1.27,0.74083 1.975556,1.02305 0.282222,0.14112 0.564444,0.24695 0.846666,0.35278 1.164167,0.42334 2.363611,0.70556 3.563056,0.91722 0.07055,0.0353 0.176389,0.0706 0.246944,0.0706 0.176389,0.0706 0.3175,0.10583 0.458611,0.10583 v 0 c 0,0.0353 -0.03528,0.0706 -0.07055,0.0706 0,0.0353 0,0.0353 0,0.0353 0,0.0353 0,0.0353 0,0.0353 -0.105834,0.14112 -0.176389,0.28223 -0.282222,0.42334 0,0.0353 0,0.0353 0,0.0353 -0.07056,0.17638 -0.176389,0.35277 -0.211667,0.49388 -0.03528,0.0353 -0.03528,0.0353 -0.03528,0.0353 -0.03528,0.0706 -0.03528,0.10584 -0.03528,0.17639 -0.07055,0.0353 -0.105833,0.10583 -0.105833,0.17639 -0.03528,0 -0.03528,0 -0.03528,0.0353 v 0 c -0.03528,0.0705 -0.03528,0.10583 -0.03528,0.14111 -0.03528,0.0353 -0.03528,0.0353 -0.03528,0.0353 -0.07056,0.10583 -0.141111,0.21166 -0.176389,0.35277 -0.07056,0.17639 -0.176389,0.35278 -0.3175,0.52917 0,0 0,0 0,0.0353 -0.03528,0.0706 -0.07056,0.17639 -0.141111,0.24694 -0.03528,0.10584 -0.07056,0.17639 -0.141111,0.24695 0,0 0,0 0,0.0353 v 0 c -0.07056,0.14111 -0.141112,0.24694 -0.246945,0.35277 0,0 0,0 0,0.0353 0,0.0353 0,0.0706 -0.03528,0.10583 0,0 0,0 -0.03528,0.0353 0,0 0,0 0,0 -0.03528,0.0706 -0.03528,0.10584 -0.03528,0.14111 0,0.0353 0,0.0353 -0.03528,0.0353 -0.105833,0.14111 -0.176389,0.3175 -0.246944,0.45861 -0.03528,0.10584 -0.105834,0.17639 -0.211667,0.28222 -0.07056,0.21167 -0.211667,0.42334 -0.352778,0.635 v 0 c -0.03528,0.0706 -0.03528,0.10584 -0.03528,0.14112 -0.03528,0.0353 -0.03528,0.0353 -0.03528,0.0353 -0.03528,0.0706 -0.03528,0.10584 -0.07056,0.17639 0,0 -0.03528,0 -0.03528,0.0353 0,0 0,0 0,0.0353 -0.03528,0.0353 -0.03528,0.0705 -0.03528,0.14111 -0.03528,0 -0.03528,0 -0.03528,0.0353 -0.03528,0.0353 -0.03528,0.10583 -0.07056,0.17639 -0.03528,0.0353 -0.03528,0.0353 -0.03528,0.10583 l 0.03528,0.10583 c -0.564444,0.14111 -1.164166,0.24695 -1.728611,0.35278 -0.282222,0.0353 -0.529167,0.0706 -0.811389,0.10583 -0.246944,0 -0.529166,0 -0.811389,0.0353 -0.599722,0 -1.128888,0.14111 -1.622777,0.49389 0,0.0353 0,0.0706 0,0.10583 -0.03528,0.0353 -0.03528,0.0706 -0.03528,0.10584 v 0.0353 c 0,0 0,0.0353 0,0.0706 0,0.0353 0,0.0706 0,0.10583 0.03528,0.21167 0.211667,0.38806 0.458611,0.45861 0.917222,0.0706 1.834444,0.0353 2.716389,-0.10583 -0.493889,0.28222 -0.917222,0.635 -1.27,1.02306 0,0.0705 0,0.14111 0,0.17639 0,0.0353 0,0.0705 0,0.0705 v 0.0353 c 0,0.0353 0,0.0353 -0.03528,0.0353 0,0 0,0 0,0 0,0.0353 0,0.0353 0,0.0353 0,0.0353 0,0.0353 0,0.0353 0.03528,0.0706 0.07056,0.10584 0.141111,0.14111 0.105833,0.10584 0.246945,0.14111 0.352778,0.17639 0.3175,0.10584 0.635,0.0353 0.987778,-0.10583 0.141111,-0.0706 0.282222,-0.14111 0.423333,-0.24695 0.423333,-0.21166 0.811389,-0.45861 1.234722,-0.70555 0.423334,-0.28222 0.846667,-0.59972 1.27,-0.91722 0,0 0,0 0,-0.0353 0,0 0,-0.0353 0.03528,-0.0706 v 0 h 0.03528 c 0,0 0,0 0,0 0.599722,0.0353 1.164166,0.0353 1.763889,-0.0705 0.423333,-0.0353 0.776111,-0.17639 1.128888,-0.35278 0,-0.0706 0,-0.17639 -0.03528,-0.24694 0,-0.10584 0,-0.17639 0,-0.28223 v 0 c -0.03528,-0.0353 -0.03528,-0.0353 -0.07056,-0.0353 -0.105833,-0.28223 -0.3175,-0.45862 -0.670278,-0.49389 -0.3175,0 -0.635,-0.0353 -0.987777,-0.0353 -0.246945,0.0353 -0.564445,0.0705 -0.846667,0.14111 -0.07056,0 -0.141111,0.0353 -0.211667,0.0353 0.141111,-0.14111 0.246945,-0.3175 0.352778,-0.52917 0.03528,-0.0353 0.03528,-0.0705 0.07056,-0.10583 0,-0.0353 0.03528,-0.0706 0.03528,-0.0706 v -0.0353 c 0.07056,-0.14111 0.141111,-0.28222 0.211667,-0.42333 0.03528,0 0.03528,0 0.03528,-0.0353 0.176389,-0.21166 0.3175,-0.42333 0.423333,-0.67027 0.07056,-0.17639 0.176389,-0.35278 0.282222,-0.52917 0.03528,0 0.03528,0 0.03528,-0.0353 0.105833,-0.24694 0.246945,-0.49389 0.388056,-0.70555 0.03528,-0.0353 0.07055,-0.0706 0.07055,-0.10584 0,-0.0353 0,-0.0353 0,-0.0353 0,-0.0353 0,-0.0353 0,-0.0353 0.07056,-0.0706 0.105834,-0.14111 0.141111,-0.21167 0,-0.10583 0.03528,-0.17639 0.141111,-0.24694 0,-0.0353 0,-0.0353 0,-0.0353 0,-0.0353 0,-0.0353 0,-0.0353 0,-0.0353 0.03528,-0.0706 0.03528,-0.0706 0.141111,-0.24694 0.246945,-0.45861 0.352778,-0.70555 0,-0.0353 0.03528,-0.10583 0.03528,-0.14111 0.07055,-0.14111 0.141111,-0.24695 0.211666,-0.38806 0.03528,0 0.03528,0 0.03528,-0.0353 0,0 0,-0.0353 0,-0.0705 0.03528,0 0.03528,-0.0353 0.07056,-0.0353 0,-0.0353 0,-0.0353 0,-0.0353 0.03528,-0.0353 0.03528,-0.0705 0.03528,-0.10583 0.141111,-0.24694 0.3175,-0.49389 0.458611,-0.74083 h 0.03528 c 0.458612,0.0705 0.917223,0.0705 1.411116,0.0353 0,0 0,0 0.0353,0 0.0705,0.14112 0.21166,0.24695 0.3175,0.3175 0.0353,0 0.0353,0.0353 0.0353,0.0706 0,0 0,0 0.0353,0.0353 0,0 0.0353,0.0353 0.0706,0.0706 0.0353,0 0.0705,0.0353 0.0705,0.0706 0.10584,0.14111 0.21167,0.24694 0.3175,0.3175 0.38806,0.38805 0.84667,0.42333 1.34056,0.14111 0.17639,-0.10583 0.3175,-0.21167 0.45861,-0.35278 0.28222,-0.21166 0.56444,-0.35278 0.84667,-0.42333 0.24694,0.17639 0.45861,0.35278 0.70555,0.52917 0.28222,0.17638 0.59972,0.35277 0.91722,0.42333 0.10584,0.0353 0.17639,0.0353 0.24695,0 0.10583,-0.0353 0.21166,-0.0706 0.3175,-0.10583 0.17639,-0.10584 0.38805,-0.21167 0.56444,-0.35278 0.35278,-0.21167 0.74084,-0.35278 1.16417,-0.42334 0.35278,0.14112 0.70555,0.21167 1.09361,0.21167 0.10583,0 0.21167,0 0.3175,0.0353 0.14111,0.0353 0.28222,0.0353 0.38806,0 0.14111,0.35278 0.24694,0.74083 0.35277,1.09361 0,0.0353 0,0.0353 0.0353,0.0706 0,0.10583 0.0353,0.21166 0.10583,0.3175 -0.0353,0.0353 -0.0353,0.0705 0,0.10583 0.0706,0.21167 0.10584,0.38805 0.17639,0.56444 -0.0353,0.0353 0,0.0706 0,0.10584 0.0706,0.14111 0.10584,0.28222 0.10584,0.42333 0.0353,0.0353 0.0705,0.0706 0.0705,0.10583 0,0.0706 0.0353,0.17639 0.0353,0.28223 0.0353,0.0353 0.0353,0.0705 0.0706,0.14111 0.10583,0.67027 0.28222,1.37583 0.52916,2.01083 -0.35278,-0.14111 -0.74083,-0.28222 -1.09361,-0.35278 -0.45861,-0.10583 -0.88194,-0.17639 -1.34055,-0.21166 -0.0706,0 -0.14112,0 -0.17639,0.0353 0,0 -0.0353,0.0353 -0.0706,0.0706 -0.0353,0 -0.0705,0 -0.0705,0.0353 -0.0353,0 -0.0706,0.0353 -0.10584,0.0353 0,0.0353 0,0.0353 0,0.0353 0,0.0353 0,0.0353 0,0.0353 -0.0353,0.0353 -0.0353,0.0353 -0.0353,0.0353 -0.0353,0.0353 -0.0353,0.0353 -0.0353,0.0353 v 0.0353 c 0,0 0,0 -0.0353,0.0353 0,0 0,0.0353 0,0.0706 0.0353,0.0353 0.0353,0.0705 0,0.10583 0,0 0,0 0,0.0353 0.0353,0.0353 0.0353,0.0705 0,0.0705 0,0.0353 0,0.0353 0,0.0353 0.0353,0.0353 0.0353,0.0706 0.0705,0.0706 0,0.0353 0,0.0353 0.0353,0.0353 0.0353,0.0353 0.0706,0.0706 0.10584,0.10584 0,0 0,0 0.0353,0.0353 0.0706,0.0353 0.17639,0.0705 0.28223,0.14111 0.56444,0.24694 1.16416,0.42333 1.79916,0.52916 0.28222,0.0353 0.56445,0.10584 0.84667,0.21167 0.17639,0.0706 0.3175,0.0706 0.45861,0.0353 0.0706,0.14111 0.14111,0.24694 0.21167,0.38805 0,0 0,0 0,0.0353 0,0 0,0 0,0.0353 0.0705,0 0.0705,0.0705 0.10583,0.10583 0,0.0353 0,0.0353 0.0353,0.0353 0,0.0353 0,0.0353 0,0.0353 0,0.0353 0.0353,0.0705 0.0353,0.10583 0.0705,0.0706 0.14111,0.14111 0.17638,0.28222 0.0353,0 0.0706,0.0706 0.0706,0.10584 0.0353,0.0353 0.0353,0.0353 0.0353,0.0353 0.0705,0.10584 0.10583,0.17639 0.14111,0.28223 0,0 0,0 0.0353,0.0353 0.0706,0.0706 0.10583,0.21167 0.14111,0.3175 0.17639,0.28223 0.35277,0.52917 0.59972,0.81139 0,0 0,0 0,0 0.0705,0.14111 0.17639,0.24695 0.28222,0.38806 0.0706,0.0705 0.14111,0.14111 0.21167,0.17639 0.28222,0.17639 0.56444,0.17639 0.88194,-0.0353 0,-0.0353 0,-0.0706 0,-0.10583 0,-0.0706 0,-0.17639 0,-0.28223 -0.0353,-0.0353 -0.0353,-0.0353 -0.0353,-0.0353 -0.0353,-0.0353 -0.0353,-0.0353 -0.0353,-0.0706 0,0 0,-0.0353 0,-0.0705 -0.0353,0 -0.0353,-0.0353 -0.0706,-0.0706 0,-0.0353 -0.0353,-0.10583 -0.0353,-0.14111 -0.0353,-0.0353 -0.0353,-0.0353 -0.0353,-0.0353 -0.0353,-0.0353 -0.0353,-0.0705 -0.0353,-0.0705 0,-0.0706 0,-0.10584 -0.0353,-0.14112 0,0 -0.0353,0 -0.0353,-0.0353 -0.0353,0 -0.0353,-0.0353 -0.0353,-0.0706 0,0 0,0 0,-0.0353 -0.0353,0 -0.0353,0 -0.0353,-0.0353 0,0 0,-0.0353 -0.0353,-0.0353 0,-0.0706 -0.0353,-0.10584 0,-0.14111 -0.0353,-0.0353 -0.0353,-0.0353 -0.0353,-0.0353 0,-0.0353 0,-0.0353 -0.0353,-0.0353 0,-0.0353 0,-0.0353 0,-0.0705 -0.0353,-0.10584 -0.0705,-0.17639 -0.14111,-0.28223 -0.0353,-0.0706 -0.0705,-0.14111 -0.10583,-0.17639 -0.0353,-0.0353 -0.0353,-0.0353 -0.0353,-0.0705 0,0 0,-0.0353 -0.0353,-0.0706 0,0 0,0 -0.0353,-0.0353 0,-0.0353 -0.0353,-0.0706 -0.0353,-0.10584 -0.0353,0 -0.0353,0 -0.0353,-0.0353 0,-0.0353 -0.0353,-0.0705 -0.0353,-0.10583 -0.10583,-0.17639 -0.21166,-0.35278 -0.35278,-0.49389 0,-0.0353 0,-0.0353 0,-0.0353 -0.0353,-0.0353 -0.0353,-0.0353 -0.0353,-0.0705 0.0353,0 0.0353,0 0.0353,0.0353 0.24695,0.0353 0.52917,0.0705 0.77612,0.0705 0.24694,0.0353 0.49388,0.0706 0.74083,0.0706 0.9525,0.10583 1.86972,0 2.75167,-0.3175 0.10583,0.0353 0.21166,0 0.28222,-0.14111 0,-0.0706 0.0353,-0.10584 0.0705,-0.14111 0,-0.10584 0,-0.24695 -0.0353,-0.38806 -0.0353,0 -0.0353,-0.0353 -0.0706,-0.0706 0,0 0,-0.0353 -0.0353,-0.0353 0,-0.0353 0,-0.0353 0,-0.0353 -0.0353,-0.0353 -0.0353,-0.0353 -0.0353,-0.0353 0,-0.0353 0,-0.0353 0,-0.0353 0,-0.0353 0,-0.0353 0,-0.0353 0,-0.0353 0,-0.0353 -0.0353,-0.0353 -0.14111,-0.14111 -0.3175,-0.21167 -0.52917,-0.17639 -1.41111,0.28222 -2.78694,0.35278 -4.16278,0.28222 0,0 -0.0353,0 -0.0353,0 -0.28222,-0.14111 -0.45861,-0.35278 -0.59972,-0.59972 0,-0.0353 0,-0.0353 -0.0353,-0.0353 -0.0353,-0.10583 -0.10583,-0.17639 -0.17638,-0.28222 0,-0.0706 0,-0.17639 -0.0353,-0.24695 0,-0.0353 -0.0353,-0.0353 -0.0353,-0.0353 -0.0353,-0.0706 -0.0353,-0.17639 -0.0353,-0.24695 -0.0353,0 -0.0353,0 -0.0353,0 -0.0353,-0.10583 -0.0706,-0.21166 -0.0706,-0.3175 0,-0.0353 -0.0353,-0.0353 -0.0353,-0.0706 0,-0.10584 -0.0353,-0.17639 -0.0353,-0.28223 -0.0353,0 -0.0353,-0.0353 -0.0705,-0.0353 0,-0.14111 -0.0353,-0.24695 -0.0353,-0.38806 0,0 -0.0353,-0.0353 -0.0353,-0.0705 0,0 0,0 0,-0.0353 -0.0353,-0.14111 -0.0353,-0.28222 -0.0353,-0.45861 -0.0353,0 -0.0353,-0.0353 -0.0706,-0.0706 0,0 0,0 0,-0.0353 0,-0.10583 0,-0.21166 -0.0353,-0.35277 0,0 -0.0353,-0.0353 -0.0353,-0.0706 -0.0353,-0.10583 -0.0353,-0.24694 -0.0353,-0.35278 -0.0353,-0.0353 -0.0353,-0.0353 -0.0706,-0.0705 0,0 0,0 0,-0.0353 0,-0.14111 0,-0.28222 -0.0353,-0.38806 0,-0.0353 -0.0353,-0.0353 -0.0353,-0.0353 -0.0353,-0.10584 -0.0353,-0.17639 -0.0353,-0.28223 -0.0353,0 -0.0353,-0.0353 -0.0706,-0.0353 0,-0.10584 0,-0.21167 -0.0353,-0.3175 0,0 -0.0353,-0.0353 -0.0353,-0.0706 0,-0.0706 -0.0353,-0.17639 -0.0353,-0.24694 -0.0353,-0.0353 -0.0353,-0.0706 -0.0706,-0.0706 0,-0.0706 0,-0.14111 -0.0353,-0.21167 0,0 -0.0353,-0.0353 -0.0353,-0.0706 0,0 0,0 -0.0353,-0.0353 0,-0.10583 -0.0353,-0.24694 -0.0353,-0.38806 0,0 0,0 0.0353,0 0.49389,-0.14111 0.9525,-0.38805 1.34055,-0.74083 0.24695,-0.24694 0.49389,-0.49389 0.70556,-0.70555 0.35278,-0.42334 0.67028,-0.84667 0.9525,-1.30528 0.49389,-0.74084 0.67028,-1.51695 0.52917,-2.36361 0.10583,-0.38806 0.17639,-0.77611 0.17639,-1.16417 0.0353,-0.14111 0.0353,-0.28222 0.0353,-0.42333 0,-0.45861 -0.0705,-0.88195 -0.17639,-1.27 -0.10583,-0.35278 -0.24694,-0.67028 -0.35277,-0.9525 -0.0353,-0.10584 -0.0706,-0.17639 -0.14111,-0.24695 0.10583,-0.0705 0.21166,-0.14111 0.3175,-0.21166 0.3175,-0.24695 0.635,-0.56445 0.91722,-0.91723 0.17639,-0.28222 0.38805,-0.52916 0.635,-0.81138 0.0705,-0.0706 0.14111,-0.17639 0.21166,-0.24695 0.35278,-0.42333 0.67028,-0.81139 0.98778,-1.23472 0.28222,-0.35278 0.56445,-0.67028 0.91722,-0.98778 0.14112,-0.14111 0.24695,-0.28222 0.35278,-0.42333 0.10584,-0.10584 0.24695,-0.21167 0.35278,-0.3175 0.45861,-0.38806 0.84667,-0.81139 1.23472,-1.27 0.14111,-0.17639 0.28222,-0.35278 0.35278,-0.56445 0.0353,-0.0353 0.0353,-0.0705 0.0353,-0.10583 0.0353,-0.17639 0.0353,-0.3175 0,-0.45861 0,-0.21167 -0.0353,-0.42333 -0.0706,-0.635 -0.10583,-0.42333 -0.21166,-0.84667 -0.35278,-1.23472 v -0.0353 c 0,0 0,-0.0353 0,-0.0353 0.0706,-0.10583 0.17639,-0.21167 0.28223,-0.3175 0.0705,-0.10583 0.14111,-0.21167 0.24694,-0.28222 0.14111,-0.17639 0.24695,-0.3175 0.35278,-0.52917 0.24694,-0.35278 0.28222,-0.77611 0.21167,-1.23472 -0.14112,-0.52917 -0.28223,-1.05833 -0.42334,-1.5875 -0.0353,-0.14111 -0.10583,-0.24694 -0.17639,-0.3175 0.28223,-0.21167 0.52917,-0.45861 0.74084,-0.67028 0,-0.0353 0,-0.0353 0.0353,-0.0353 0,-0.0353 0.0353,-0.0705 0.0706,-0.0705 0.24694,-0.21167 0.42333,-0.45861 0.45861,-0.77611 0.0353,-0.0706 0.0706,-0.17639 0.10583,-0.28222 0,-0.24695 -0.0353,-0.52917 -0.0705,-0.74084 0,-0.10583 0,-0.21166 0,-0.3175 0,-0.28222 -0.0353,-0.56444 -0.14111,-0.84666 0,-0.0706 -0.0353,-0.14112 -0.0353,-0.24695 -0.10583,-0.28222 -0.21167,-0.56444 -0.3175,-0.84667 -0.17639,-0.38805 -0.3175,-0.74083 -0.49389,-1.09361 -0.0353,-0.0353 -0.0353,-0.0705 -0.0353,-0.14111 -0.10583,-0.24694 -0.21166,-0.49389 -0.35277,-0.74083 -0.17639,-0.35278 -0.42334,-0.635 -0.74084,-0.81139 0,0 -0.0353,0 -0.0705,0 -0.0353,0.0353 -0.0706,0.0353 -0.10584,0.10583 z m -28.574996,-0.49389 v -0.0353 c 0,0 0.03528,-0.0353 0.07056,-0.0706 z m 9.419166,0.67028 c 0.0353,-0.14111 0.10583,-0.3175 0.17639,-0.49389 0.0706,-0.10583 0.14111,-0.24694 0.24694,-0.38805 0.10584,-0.14111 0.21167,-0.3175 0.3175,-0.45861 0.0353,-0.0706 0.0706,-0.10584 0.10584,-0.14111 0.21166,-0.28223 0.52916,-0.52917 0.88194,-0.67028 0.0706,0 0.14111,0.0353 0.17639,0.10583 0.10583,0.10583 0.17639,0.21167 0.24695,0.35278 0.10583,0.3175 0.14111,0.635 0.10583,0.9525 -0.0706,0.45861 -0.21167,0.84667 -0.42333,1.23472 -0.42334,0.67028 -0.9525,1.05833 -1.65806,1.27 -0.0706,-0.10583 -0.17639,-0.17639 -0.24694,-0.21167 -0.0353,-0.10583 -0.0353,-0.17638 -0.0353,-0.24694 -0.0353,-0.10583 -0.0353,-0.21167 -0.0353,-0.28222 -0.0353,-0.21167 -0.0353,-0.42334 -0.0353,-0.59972 0.0353,-0.0353 0.0353,-0.0353 0.0353,-0.0353 0.0353,-0.0353 0.0353,-0.0353 0.0353,-0.0353 0.0353,-0.14111 0.0705,-0.24694 0.10583,-0.35278 z m 5.22111,-4.86833 c 0,0.0353 0.0353,0.10583 0.0353,0.14111 0.35278,0.74083 0.67028,1.48167 0.9525,2.25778 -0.0353,0 -0.0353,0 -0.0706,-0.0353 -0.17638,-0.0706 -0.35277,-0.14111 -0.56444,-0.21167 -0.49389,-0.14111 -0.98778,-0.17639 -1.44639,-0.0353 0,-0.0353 0,-0.0353 0,-0.0353 0.14111,-0.45861 0.3175,-0.88195 0.56445,-1.30528 0.0705,-0.0353 0.14111,-0.10583 0.17638,-0.21167 0.0353,-0.0353 0.0353,-0.10583 0.0353,-0.14111 0,-0.0353 0,-0.0353 0.0353,-0.0705 0.0706,-0.10584 0.14111,-0.24695 0.24694,-0.35278 0,-0.0353 0,-0.0353 0.0353,0 z m -0.17639,5.32694 c 0.45861,-0.28222 0.88195,-0.67027 1.30528,-1.09361 -0.0706,0.17639 -0.14111,0.42334 -0.21167,0.67028 -0.21166,0.635 -0.49388,1.23472 -0.88194,1.76389 -0.0706,-0.10583 -0.14111,-0.24695 -0.24694,-0.35278 -0.24695,-0.42333 -0.45862,-0.88194 -0.635,-1.34055 0.0705,0.0705 0.17638,0.14111 0.24694,0.17638 0.0706,0.0353 0.10583,0.0706 0.14111,0.14112 0.10583,0.0705 0.17639,0.10583 0.28222,0.0353 z m 3.175,-3.35139 c 0.28223,0 0.52917,0.14112 0.635,0.42334 0.10584,0.17639 0.21167,0.3175 0.38806,0.42333 0.0353,0.17639 0.10583,0.35278 0.21167,0.52917 0,0 0,0 0,0 0,0.0353 0,0.0705 0,0.14111 0.0353,0 0.0353,0 0.0353,0.0353 0,0 0,0 0,0.0353 0,0 0,0.0353 0,0.0706 0.0353,0.0706 0.0353,0.14111 0.0353,0.21167 0,0.42333 -0.10583,0.81139 -0.3175,1.19944 -0.10583,-0.0353 -0.21167,-0.0705 -0.35278,-0.10583 -0.14111,-0.17639 -0.28222,-0.35278 -0.42333,-0.52917 -0.0706,-0.0705 -0.10583,-0.17639 -0.14111,-0.28222 -0.24695,-0.70556 -0.28222,-1.41111 -0.0706,-2.15195 z m -14.111108,23.88306 c 0,0 0,0 0,0 v 0.0706 c 0,0 0,0 0,-0.0353 z m 2.751667,8.92528 c 0,0 0,0.0353 -0.03528,0.0705 0,0 0,0 0,0 z m -6.279445,9.27805 c 0.03528,0 0.03528,0 0.03528,-0.0353 l -0.03528,0.0706 z"
       id="path46" />
    <path
       style="fill:#ffffff;stroke:none;stroke-width:0.352778"
       d="m 100.66514,130.5807 c -0.0706,0.17639 -0.14111,0.35278 -0.17639,0.49389 -0.0353,0.10584 -0.0705,0.21167 -0.10583,0.35278 0,0 0,0 -0.0353,0.0353 0,0 0,0 -0.0353,0.0353 0,0.17638 0,0.38805 0.0353,0.59972 0,0.0706 0,0.17639 0.0353,0.28222 0,0.0706 0,0.14111 0.0353,0.24694 0.0705,0.0353 0.17638,0.10584 0.24694,0.21167 0.70556,-0.21167 1.23472,-0.59972 1.65806,-1.27 0.21166,-0.38805 0.35277,-0.77611 0.42333,-1.23472 0.0353,-0.3175 0,-0.635 -0.10583,-0.9525 -0.0706,-0.14111 -0.14112,-0.24695 -0.24695,-0.35278 -0.0353,-0.0705 -0.10583,-0.10583 -0.17639,-0.10583 -0.35278,0.14111 -0.67028,0.38805 -0.88194,0.67028 -0.0353,0.0353 -0.0706,0.0705 -0.10584,0.14111 -0.10583,0.14111 -0.21166,0.3175 -0.3175,0.45861 -0.10583,0.14111 -0.17638,0.28222 -0.24694,0.38805 z m 0.49389,0.9525 c -0.0353,-0.0353 -0.0353,-0.0705 -0.0353,-0.14111 -0.0353,-0.45861 0.17639,-0.84666 0.52917,-1.09361 0.21166,0.10583 0.28222,0.28222 0.17639,0.56445 -0.0353,0.0705 -0.10584,0.14111 -0.14111,0.21166 0,0.10584 -0.0353,0.17639 -0.10584,0.28222 0,0 -0.0353,0.0353 -0.0705,0.0353 -0.0353,0.28222 -0.14111,0.35278 -0.35278,0.14111 z"
       id="path47" />
    <path
       style="fill:#5f5f61;stroke:none;stroke-width:0.352778"
       d="m 101.12375,131.39209 c 0,0.0706 0,0.10584 0.0353,0.14111 0.21167,0.21167 0.3175,0.14111 0.35278,-0.14111 0.0353,0 0.0705,-0.0353 0.0705,-0.0353 0.0706,-0.10583 0.10584,-0.17638 0.10584,-0.28222 0.0353,-0.0705 0.10583,-0.14111 0.14111,-0.21166 0.10583,-0.28223 0.0353,-0.45862 -0.17639,-0.56445 -0.35278,0.24695 -0.56445,0.635 -0.52917,1.09361 z"
       id="path48" />
    <path
       style="fill:#ffffff;stroke:none;stroke-width:0.352778"
       d="m 105.74514,126.34737 c 0,-0.0353 -0.0353,-0.10583 -0.0353,-0.14111 -0.0353,-0.0353 -0.0353,-0.0353 -0.0353,0 -0.10583,0.10583 -0.17638,0.24694 -0.24694,0.35278 -0.0353,0.0353 -0.0353,0.0353 -0.0353,0.0705 0,0.0353 0,0.10584 -0.0353,0.14111 -0.0353,0.10584 -0.10583,0.17639 -0.17638,0.21167 -0.24695,0.42333 -0.42334,0.84667 -0.56445,1.30528 0,0 0,0 0,0.0353 0.45861,-0.14112 0.9525,-0.10584 1.44639,0.0353 0.21167,0.0706 0.38806,0.14111 0.56444,0.21167 0.0353,0.0353 0.0353,0.0353 0.0706,0.0353 -0.28222,-0.77611 -0.59972,-1.51695 -0.9525,-2.25778 z"
       id="path49" />
    <path
       style="fill:#ffffff;stroke:none;stroke-width:0.352778"
       d="m 106.83875,130.43959 c -0.42333,0.42334 -0.84667,0.81139 -1.30528,1.09361 -0.10583,0.0706 -0.17639,0.0353 -0.28222,-0.0353 -0.0353,-0.0706 -0.0705,-0.10584 -0.14111,-0.14112 -0.0706,-0.0353 -0.17639,-0.10583 -0.24694,-0.17638 0.17638,0.45861 0.38805,0.91722 0.635,1.34055 0.10583,0.10583 0.17638,0.24695 0.24694,0.35278 0.38806,-0.52917 0.67028,-1.12889 0.88194,-1.76389 0.0706,-0.24694 0.14112,-0.49389 0.21167,-0.67028 z"
       id="path50" />
    <path
       style="fill:#ffffff;stroke:none;stroke-width:0.352778"
       d="m 109.34347,128.60515 c -0.10583,-0.28222 -0.35277,-0.42334 -0.635,-0.42334 -0.21166,0.74084 -0.17639,1.44639 0.0706,2.15195 0.0353,0.10583 0.0705,0.21167 0.14111,0.28222 0.14111,0.17639 0.28222,0.35278 0.42333,0.52917 0.14111,0.0353 0.24695,0.0705 0.35278,0.10583 0.21167,-0.38805 0.3175,-0.77611 0.3175,-1.19944 0,-0.0706 0,-0.14111 -0.0353,-0.21167 0,-0.0353 0,-0.0706 0,-0.0706 0,-0.0353 0,-0.0353 0,-0.0353 0,-0.0353 0,-0.0353 -0.0353,-0.0353 0,-0.0706 0,-0.10583 0,-0.14111 0,0 0,0 0,0 -0.10584,-0.17639 -0.17639,-0.35278 -0.21167,-0.52917 -0.17639,-0.10583 -0.28222,-0.24694 -0.38806,-0.42333 z m -0.3175,1.55222 c -0.0705,-0.0353 -0.10583,-0.14111 -0.10583,-0.21167 -0.0353,-0.38805 0.10583,-0.59972 0.45861,-0.635 0.3175,0.10584 0.42333,0.3175 0.3175,0.70556 -0.10583,0.3175 -0.3175,0.35278 -0.67028,0.14111 z"
       id="path51" />
    <path
       style="fill:#5f5f61;stroke:none;stroke-width:0.352778"
       d="m 108.92014,129.9457 c 0,0.0706 0.0353,0.17639 0.10583,0.21167 0.35278,0.21167 0.56445,0.17639 0.67028,-0.14111 0.10583,-0.38806 0,-0.59972 -0.3175,-0.70556 -0.35278,0.0353 -0.49389,0.24695 -0.45861,0.635 z"
       id="path52" />
  </g>
</svg>
